<svg xmlns="http://www.w3.org/2000/svg" width="19.375" height="19.375" viewBox="0 0 19.375 19.375">
  <path id="earth" d="M9.688-17.187A9.687,9.687,0,0,0,0-7.5,9.687,9.687,0,0,0,9.688,2.188,9.687,9.687,0,0,0,19.375-7.5,9.687,9.687,0,0,0,9.688-17.187ZM12.9-3.219l-.442.441a.934.934,0,0,0-.241.418c-.059.221-.107.445-.186.659L11.354.129A7.807,7.807,0,0,1,9.688.313V-.757a2.925,2.925,0,0,0-.884-2,1.25,1.25,0,0,1-.366-.884v-1.25a1.246,1.246,0,0,0-.643-1.093c-.561-.311-1.36-.745-1.907-1.02a5.632,5.632,0,0,1-1.236-.85L4.62-7.884a5.388,5.388,0,0,1-.705-.81c-.366-.538-.963-1.423-1.351-2a7.855,7.855,0,0,1,4.031-3.98l.938.469a.625.625,0,0,0,.9-.559V-15.2A7.811,7.811,0,0,1,9.39-15.3L10.5-14.192a.625.625,0,0,1,0,.884l-.183.183-.4.4a.313.313,0,0,0,0,.442l.183.183a.313.313,0,0,1,0,.442l-.313.313a.359.359,0,0,1-.221.091H9.207a.312.312,0,0,0-.218.089l-.387.377a.359.359,0,0,0-.095.224.371.371,0,0,0,.033.14L9.149-9.2a.313.313,0,0,1-.279.452h-.22a.312.312,0,0,1-.2-.077l-.362-.315a.725.725,0,0,0-.41-.153.749.749,0,0,0-.2.032l-1.218.406a.5.5,0,0,0-.319.443h0A.467.467,0,0,0,6.2-8l.433.216a2.645,2.645,0,0,0,1.184.28c.411,0,.882,1.066,1.25,1.25H11.67a1.251,1.251,0,0,1,.884.366l.535.535a1.369,1.369,0,0,1,.349.842h0A2.087,2.087,0,0,1,12.9-3.219Zm3.387-3.568a.938.938,0,0,1-.553-.389l-.7-1.054a1.1,1.1,0,0,1-.158-.52,1.1,1.1,0,0,1,.158-.52l.765-1.148a.936.936,0,0,1,.361-.318l.507-.254A7.751,7.751,0,0,1,17.5-7.5a7.783,7.783,0,0,1-.071,1Z" transform="translate(0 17.188)" fill="#666"/>
</svg>
