<svg xmlns="http://www.w3.org/2000/svg" width="28.699" height="32" viewBox="0 0 28.699 32"><defs><style>.a{fill:#fff;}</style></defs><g transform="translate(0 11.25)"><path class="a" d="M26.177,180H2.522A2.679,2.679,0,0,0,0,182.813v11.375A2.679,2.679,0,0,0,2.522,197H5.045v-7.5H4.2a.943.943,0,0,1,0-1.875H24.5a.943.943,0,0,1,0,1.875h-.841V197h2.522a2.679,2.679,0,0,0,2.522-2.812V182.813A2.679,2.679,0,0,0,26.177,180ZM5.886,185.625H4.2a.943.943,0,0,1,0-1.875H5.886a.943.943,0,0,1,0,1.875Z" transform="translate(0 -180)"/></g><g transform="translate(5.85 20.75)"><path class="a" d="M120,332v10.313a.938.938,0,0,0,.938.938h15.125a.938.938,0,0,0,.938-.937V332Zm14.188,7.5H122.813a.938.938,0,1,1,0-1.875h11.375a.938.938,0,0,1,0,1.875Zm0-3.75H122.813a.938.938,0,1,1,0-1.875h11.375a.938.938,0,0,1,0,1.875Z" transform="translate(-120 -332)"/></g><g transform="translate(18.206 0.549)"><path class="a" d="M332,8.789v5.076h5.076Z" transform="translate(-332 -8.789)"/></g><g transform="translate(3.975)"><path class="a" d="M104.187,7.5a.937.937,0,0,1-.937-.937V0H90.937A.937.937,0,0,0,90,.938V9.375h20.75V7.5Z" transform="translate(-90)"/></g></svg>