<svg xmlns="http://www.w3.org/2000/svg" width="16" height="14.222" viewBox="0 0 16 14.222">
  <path id="alert_icon" data-name="alert icon" d="M15.82-1.777,9.155-13.334a1.334,1.334,0,0,0-2.31,0L.18-1.777a1.334,1.334,0,0,0,1.155,2h13.33A1.334,1.334,0,0,0,15.82-1.777ZM8-4.167A1.278,1.278,0,0,1,9.278-2.889,1.278,1.278,0,0,1,8-1.611,1.278,1.278,0,0,1,6.722-2.889,1.278,1.278,0,0,1,8-4.167ZM6.787-8.76a.333.333,0,0,1,.333-.352H8.88a.333.333,0,0,1,.333.352L9.007-4.982a.333.333,0,0,1-.333.315H7.326a.333.333,0,0,1-.333-.315Z" transform="translate(0 14)" fill="#d87300"/>
</svg>
