<svg xmlns="http://www.w3.org/2000/svg" width="178.582" height="141.789" viewBox="0 0 178.582 141.789">
  <g id="Group_272" data-name="Group 272" transform="translate(-135.201 -437.702)">
    <g id="Group_251" data-name="Group 251" transform="translate(140 464)">
      <rect id="Rectangle_890" data-name="Rectangle 890" width="89.995" height="17.068" rx="8.534" transform="translate(43.446 -1.982)" fill="rgba(255,64,64,0.05)"/>
      <rect id="Rectangle_899" data-name="Rectangle 899" width="72.746" height="17.068" rx="8.534" transform="translate(28.534 98.423)" fill="rgba(255,64,64,0.05)"/>
      <rect id="Rectangle_900" data-name="Rectangle 900" width="17.707" height="17.068" rx="8.534" transform="translate(10.841)" fill="rgba(255,64,64,0.05)"/>
      <rect id="Rectangle_891" data-name="Rectangle 891" width="169.128" height="17.068" rx="8.534" transform="translate(4.655 34.154)" fill="rgba(255,64,64,0.05)"/>
      <rect id="Rectangle_895" data-name="Rectangle 895" width="169.128" height="17.068" rx="8.534" transform="translate(0 70.29)" fill="rgba(255,64,64,0.05)"/>
      <path id="Subtraction_18" data-name="Subtraction 18" d="M33.136,19.068H4.1c-.2,0-.4-.006-.6-.019A9.534,9.534,0,0,0,3.5.019C3.71.006,3.913,0,4.1,0H33.136l.224,0a9.587,9.587,0,0,0-9.309,9.531,9.588,9.588,0,0,0,9.309,9.532l-.029,0h-.194Z" transform="translate(84.564 15.086)" fill="rgba(255,64,64,0.05)"/>
      <path id="Subtraction_20" data-name="Subtraction 20" d="M33.634,19.227H-4.386l-.228,0H-3.6A9.55,9.55,0,0,0,5.935,9.685,9.55,9.55,0,0,0-3.6.146H33.634A9.511,9.511,0,0,1,36.49.582H33.8a9.25,9.25,0,1,0,0,18.5H35.29A9.594,9.594,0,0,1,33.634,19.227Z" transform="translate(38.715 51.076)" fill="rgba(255,64,64,0.05)"/>
    </g>
    <g id="Path_785" data-name="Path 785" transform="translate(288.445 454.464)" fill="#fff">
      <path d="M10.666,0A10.666,10.666,0,1,1,0,10.666,10.666,10.666,0,0,1,10.666,0Z" stroke="none"/>
      <path d="M 10.66568088531494 4.999998092651367 C 7.541610717773438 4.999998092651367 5 7.541608810424805 5 10.66567897796631 C 5 13.78974914550781 7.541610717773438 16.33135986328125 10.66568088531494 16.33135986328125 C 13.78975105285645 16.33135986328125 16.33135986328125 13.78974914550781 16.33135986328125 10.66567897796631 C 16.33135986328125 7.541608810424805 13.78975105285645 4.999998092651367 10.66568088531494 4.999998092651367 M 10.66568088531494 -1.9073486328125e-06 C 16.55617141723633 -1.9073486328125e-06 21.33136177062988 4.775188446044922 21.33136177062988 10.66567897796631 C 21.33136177062988 16.5561695098877 16.55617141723633 21.33135986328125 10.66568088531494 21.33135986328125 C 4.775190353393555 21.33135986328125 0 16.5561695098877 0 10.66567897796631 C 0 4.775188446044922 4.775190353393555 -1.9073486328125e-06 10.66568088531494 -1.9073486328125e-06 Z" stroke="none" fill="rgba(255,64,64,0.4)"/>
    </g>
    <g id="Path_788" data-name="Path 788" transform="translate(154.141 565.676) rotate(166)" fill="#fff">
      <path d="M7.812,0A7.812,7.812,0,1,1,0,7.812,7.812,7.812,0,0,1,7.812,0Z" stroke="none"/>
      <path d="M 7.811717987060547 4.999996185302734 C 6.261327743530273 4.999996185302734 4.999998092651367 6.261326789855957 4.999998092651367 7.811716556549072 C 4.999998092651367 9.362106323242188 6.261327743530273 10.62343597412109 7.811717987060547 10.62343597412109 C 9.36210823059082 10.62343597412109 10.62343788146973 9.362106323242188 10.62343788146973 7.811716556549072 C 10.62343788146973 6.261326789855957 9.36210823059082 4.999996185302734 7.811717987060547 4.999996185302734 M 7.811717987060547 -3.814697265625e-06 C 12.12600803375244 -3.814697265625e-06 15.62343788146973 3.497426986694336 15.62343788146973 7.811716556549072 C 15.62343788146973 12.12600708007813 12.12600803375244 15.62343692779541 7.811717987060547 15.62343692779541 C 3.497427940368652 15.62343692779541 -1.9073486328125e-06 12.12600708007813 -1.9073486328125e-06 7.811716556549072 C -1.9073486328125e-06 3.497426986694336 3.497427940368652 -3.814697265625e-06 7.811717987060547 -3.814697265625e-06 Z" stroke="none" fill="rgba(255,64,64,0.4)"/>
    </g>
    <path id="Path_796" data-name="Path 796" d="M3.644,0A3.644,3.644,0,1,1,0,3.644,3.644,3.644,0,0,1,3.644,0Z" transform="translate(257.687 444.773) rotate(166)" fill="rgba(255,64,64,0.4)"/>
    <path id="Path_797" data-name="Path 797" d="M3.644,0A3.644,3.644,0,1,1,0,3.644,3.644,3.644,0,0,1,3.644,0Z" transform="translate(306.083 559.871) rotate(166)" fill="rgba(255,64,64,0.4)"/>
    <g id="Polygon_1" data-name="Polygon 1" transform="translate(195 488)" fill="#fff">
      <path d="M 56.34294891357422 55.33333206176758 L 8.657050132751465 55.33333206176758 C 7.211249828338623 55.33333206176758 5.916379928588867 54.58588409423828 5.193270206451416 53.33389282226563 C 4.470170021057129 52.08190155029297 4.469810009002686 50.58677291870117 5.192309856414795 49.33443069458008 L 29.03525924682617 8.006662368774414 C 29.75811576843262 6.753708839416504 31.053466796875 6.005562305450439 32.49996948242188 6.005562305450439 C 32.50006103515625 6.005562305450439 32.49991226196289 6.005562305450439 32.5 6.005562305450439 C 33.94660949707031 6.005562305450439 35.24184036254883 6.753632545471191 35.96474838256836 8.006662368774414 L 59.80768966674805 49.33443069458008 C 60.53020095825195 50.58677291870117 60.52983856201172 52.08189392089844 59.80672836303711 53.33388137817383 C 59.0836296081543 54.58587265014648 57.78876113891602 55.33333206176758 56.34294891357422 55.33333206176758 Z" stroke="none"/>
      <path d="M 32.5 7.00555419921875 C 31.4150390625 7.00555419921875 30.44361877441406 7.566612243652344 29.90143966674805 8.506393432617188 L 6.058490753173828 49.83415222167969 C 5.516609191894531 50.77341461181641 5.516880035400391 51.89475250244141 6.059211730957031 52.83374404907227 C 6.601539611816406 53.77273178100586 7.572689056396484 54.33332061767578 8.657051086425781 54.33332061767578 L 56.34294891357422 54.33332061767578 C 57.42729949951172 54.33332061767578 58.39846038818359 53.77273178100586 58.94078063964844 52.83374404907227 C 59.48310852050781 51.89475250244141 59.48337936401367 50.77341461181641 58.94150924682617 49.83416366577148 L 35.09854888916016 8.506381988525391 C 34.55636978149414 7.566612243652344 33.5849494934082 7.00555419921875 32.5 7.00555419921875 M 32.5 5.005550384521484 C 34.18442535400391 5.005550384521484 35.86885070800781 5.839347839355469 36.83091735839844 7.506942749023438 L 60.67388153076172 48.83471298217773 C 62.59695053100586 52.16805267333984 60.19123840332031 56.33332061767578 56.34294891357422 56.33332061767578 L 8.657051086425781 56.33332061767578 C 4.808761596679688 56.33332061767578 2.403041839599609 52.16805267333984 4.326118469238281 48.83471298217773 L 28.16907119750977 7.506942749023438 C 29.13114547729492 5.839347839355469 30.81557083129883 5.005550384521484 32.5 5.005550384521484 Z" stroke="none" fill="#ff4040"/>
    </g>
    <path id="Path_834" data-name="Path 834" d="M9.357-22.567a8.388,8.388,0,0,1-.224,1.674q-.224,1.041-.563,2.445-.324,1.326-.74,3.308t-.879,4.9H5.764q-.463-2.946-.879-4.9t-.74-3.285q-.293-1.219-.54-2.383a9.291,9.291,0,0,1-.247-1.751,2.7,2.7,0,0,1,.879-2.028,2.949,2.949,0,0,1,2.113-.841,2.983,2.983,0,0,1,2.113.841A2.683,2.683,0,0,1,9.357-22.567ZM9.327-5.523A2.677,2.677,0,0,1,8.44-3.51a2.92,2.92,0,0,1-2.075.841,2.938,2.938,0,0,1-2.09-.841,2.677,2.677,0,0,1-.887-2.013,2.726,2.726,0,0,1,.887-2.028,2.91,2.91,0,0,1,2.09-.856,2.892,2.892,0,0,1,2.075.856A2.726,2.726,0,0,1,9.327-5.523Z" transform="translate(221.643 537.436)" fill="#ff4040"/>
  </g>
</svg>
