<svg xmlns="http://www.w3.org/2000/svg" width="123.705" height="98" viewBox="0 0 123.705 98">
  <g id="Group_1485" data-name="Group 1485" transform="translate(-762 -290)">
    <g id="Group_812" data-name="Group 812" transform="translate(-8 -72)">
      <g id="Group_260" data-name="Group 260" transform="translate(770 362)">
        <g id="Group_252" data-name="Group 252" transform="translate(3.324 16.625)">
          <rect id="Rectangle_890" data-name="Rectangle 890" width="62.34" height="11.823" rx="5.912" transform="translate(30.095 0)" fill="#f6f6f6"/>
          <rect id="Rectangle_899" data-name="Rectangle 899" width="50.392" height="11.823" rx="5.912" transform="translate(19.766 69.552)" fill="#f6f6f6"/>
          <rect id="Rectangle_900" data-name="Rectangle 900" width="12.266" height="11.823" rx="5.912" transform="translate(7.51 1.373)" fill="#f6f6f6"/>
          <rect id="Rectangle_891" data-name="Rectangle 891" width="117.157" height="11.823" rx="5.912" transform="translate(3.224 25.032)" fill="#f6f6f6"/>
          <rect id="Rectangle_895" data-name="Rectangle 895" width="117.157" height="11.823" rx="5.912" transform="translate(0 50.064)" fill="#f6f6f6"/>
          <path id="Subtraction_18" data-name="Subtraction 18" d="M20.684,13.209H.418c-.134,0-.275,0-.418-.013A6.613,6.613,0,0,0,6.187,6.6,6.613,6.613,0,0,0,0,.013C.163,0,.3,0,.418,0H20.529l.155,0a6.641,6.641,0,0,0-6.449,6.6,6.642,6.642,0,0,0,6.449,6.6Z" transform="translate(61.003 11.823)" fill="#f6f6f6"/>
          <path id="Subtraction_20" data-name="Subtraction 20" d="M26.494,13.217H.751a6.629,6.629,0,0,0,6.556-6.61A6.616,6.616,0,0,0,.7,0h25.8a6.589,6.589,0,0,1,1.978.3H26.613a6.408,6.408,0,1,0,0,12.815h1.03A6.646,6.646,0,0,1,26.494,13.217Z" transform="translate(23.623 36.855)" fill="#f6f6f6"/>
        </g>
        <g id="Path_818" data-name="Path 818" transform="translate(106.154 11.083)" fill="#fff">
          <path d="M 7.388237476348877 12.27647590637207 C 4.692857265472412 12.27647590637207 2.49999737739563 10.08361625671387 2.49999737739563 7.388236045837402 C 2.49999737739563 4.692855834960938 4.692857265472412 2.499995946884155 7.388237476348877 2.499995946884155 C 10.08361721038818 2.499995946884155 12.2764778137207 4.692855834960938 12.2764778137207 7.388236045837402 C 12.2764778137207 10.08361625671387 10.08361721038818 12.27647590637207 7.388237476348877 12.27647590637207 Z" stroke="none"/>
          <path d="M 7.388237476348877 4.999996185302734 C 6.071357727050781 4.999996185302734 4.999997138977051 6.071355819702148 4.999997138977051 7.388236045837402 C 4.999997138977051 8.705116271972656 6.071357727050781 9.77647590637207 7.388237476348877 9.77647590637207 C 8.705118179321289 9.77647590637207 9.776477813720703 8.705116271972656 9.776477813720703 7.388236045837402 C 9.776477813720703 6.071355819702148 8.705118179321289 4.999996185302734 7.388237476348877 4.999996185302734 M 7.388237476348877 -3.814697265625e-06 C 11.46864700317383 -3.814697265625e-06 14.7764778137207 3.307826042175293 14.7764778137207 7.388236045837402 C 14.7764778137207 11.46864604949951 11.46864700317383 14.77647590637207 7.388237476348877 14.77647590637207 C 3.307827949523926 14.77647590637207 -2.86102294921875e-06 11.46864604949951 -2.86102294921875e-06 7.388236045837402 C -2.86102294921875e-06 3.307826042175293 3.307827949523926 -3.814697265625e-06 7.388237476348877 -3.814697265625e-06 Z" stroke="none" fill="#ccc"/>
        </g>
        <g id="Path_819" data-name="Path 819" transform="translate(13.119 88.777) rotate(166)" fill="#fff">
          <path d="M 5.41126537322998 8.322524070739746 C 3.805985450744629 8.322524070739746 2.499995470046997 7.016534328460693 2.499995470046997 5.411264419555664 C 2.499995470046997 3.805994510650635 3.805985450744629 2.500004529953003 5.41126537322998 2.500004529953003 C 7.01653528213501 2.500004529953003 8.322525024414062 3.805994510650635 8.322525024414062 5.411264419555664 C 8.322525024414062 6.188894271850586 8.019705772399902 6.919974327087402 7.469845294952393 7.469834327697754 C 6.919975280761719 8.019704818725586 6.188895225524902 8.322524070739746 5.41126537322998 8.322524070739746 Z" stroke="none"/>
          <path d="M 5.41126537322998 5.000004291534424 C 5.18448543548584 5.000004291534424 4.999995231628418 5.184494495391846 4.999995231628418 5.411264419555664 C 4.999995231628418 5.638034343719482 5.18448543548584 5.822524547576904 5.41126537322998 5.822524547576904 C 5.453395366668701 5.822524547576904 5.581625461578369 5.822524547576904 5.702075481414795 5.702064514160156 C 5.822525501251221 5.581624507904053 5.822525501251221 5.453414440155029 5.822525501251221 5.411264419555664 C 5.822525501251221 5.184494495391846 5.638035297393799 5.000004291534424 5.41126537322998 5.000004291534424 M 5.41126537322998 4.76837158203125e-06 C 8.399825096130371 4.76837158203125e-06 10.82252502441406 2.422704696655273 10.82252502441406 5.411264419555664 C 10.82253551483154 8.399824142456055 8.399825096130371 10.82252407073975 5.41126537322998 10.82252407073975 C 2.42270565032959 10.82252407073975 -4.76837158203125e-06 8.399824142456055 -4.76837158203125e-06 5.411264419555664 C -4.76837158203125e-06 2.422704696655273 2.42270565032959 4.76837158203125e-06 5.41126537322998 4.76837158203125e-06 Z" stroke="none" fill="#ccc"/>
        </g>
        <path id="Path_820" data-name="Path 820" d="M2.524,0A2.524,2.524,0,1,1,0,2.524,2.524,2.524,0,0,1,2.524,0Z" transform="translate(84.847 4.898) rotate(166)" fill="#ccc"/>
        <path id="Path_821" data-name="Path 821" d="M2.524,0A2.524,2.524,0,1,1,0,2.524,2.524,2.524,0,0,1,2.524,0Z" transform="translate(118.371 84.56) rotate(166)" fill="#ccc"/>
      </g>
    </g>
    <g id="Group_12389" data-name="Group 12389" transform="translate(382.909 -1447.742)">
      <path id="money-bill-solid" d="M50.772,64H2.672A2.673,2.673,0,0,0,0,66.672V93.395a2.673,2.673,0,0,0,2.672,2.672h48.1a2.673,2.673,0,0,0,2.672-2.672V66.672A2.673,2.673,0,0,0,50.772,64ZM4.008,92.058V86.714a5.344,5.344,0,0,1,5.344,5.344Zm0-18.706V68.008H9.353A5.344,5.344,0,0,1,4.008,73.353Zm22.714,14.7c-3.69,0-6.681-3.59-6.681-8.017s2.991-8.017,6.681-8.017S33.4,75.606,33.4,80.033,30.411,88.05,26.722,88.05Zm22.714,4.008H44.092a5.344,5.344,0,0,1,5.344-5.344Zm0-18.706a5.344,5.344,0,0,1-5.344-5.344h5.344Z" transform="translate(416.492 1709.762)" fill="#999"/>
      <g id="slash-solid" transform="translate(428.084 1762.447) rotate(9)" fill="#999" stroke-linecap="square" stroke-linejoin="round">
        <path d="M 50.46731567382812 44.25587844848633 C 49.84071350097656 44.25592803955078 49.22273254394531 44.0440559387207 48.72722244262695 43.65929794311523 L -0.4015461206436157 5.688147068023682 C -1.638686060905457 4.726127147674561 -1.862356066703796 2.941236972808838 -0.9036661386489868 1.706606984138489 L 0.7368139028549194 -0.4041330218315125 C 1.277463912963867 -1.100383043289185 2.094123840332031 -1.500002980232239 2.976993799209595 -1.500002980232239 C 3.604043960571289 -1.500002980232239 4.222263813018799 -1.287713050842285 4.717763900756836 -0.9022430181503296 L 53.84548568725586 37.06808853149414 C 55.08261489868164 38.03011703491211 55.30628204345703 39.81500625610352 54.34760284423828 41.04961776733398 L 52.70712280273438 43.16036605834961 C 52.16671371459961 43.85631561279297 51.35018539428711 44.25580596923828 50.46731567382812 44.25587844848633 Z" stroke="none"/>
        <path d="M 50.46718978881836 42.75587463378906 C 50.86552429199219 42.75584411621094 51.25966262817383 42.57870483398438 51.52276229858398 42.23987579345703 L 53.16284561157227 40.12964630126953 C 53.61545562744141 39.54676818847656 53.51022338867188 38.70752716064453 52.92819213867188 38.25491714477539 L 3.796743869781494 0.281697005033493 C 3.213863611221313 -0.1717432290315628 2.373783349990845 -0.06652284413576126 1.921173930168152 0.5163570046424866 L 0.2810938954353333 2.626576900482178 C -0.1715161204338074 3.209456920623779 -0.06629611551761627 4.048707008361816 0.5157439112663269 4.501317024230957 L 49.64719390869141 42.47452545166016 L 49.64718246459961 42.47452545166016 C 49.89123916625977 42.66403579711914 50.18027877807617 42.75589752197266 50.46718978881836 42.75587463378906 M 50.46742248535156 45.75587844848633 C 50.46741485595703 45.75587844848633 50.46740341186523 45.75587844848633 50.46740341186523 45.75587844848633 C 49.50978088378906 45.75594711303711 48.56550216674805 45.43242263793945 47.8083610534668 44.84491729736328 L -1.318836092948914 6.874987125396729 C -1.321186065673828 6.873177051544189 -1.323516130447388 6.87136697769165 -1.32585608959198 6.869546890258789 C -3.211956024169922 5.402866840362549 -3.554036140441895 2.674087047576904 -2.088426113128662 0.786637008190155 L -0.4475361108779907 -1.324622988700867 C 0.3789438903331757 -2.388972997665405 1.627433896064758 -3.000003099441528 2.976993799209595 -3.000003099441528 C 3.934217929840088 -3.000003099441528 4.877857208251953 -2.676640272140503 5.634656429290771 -2.089397430419922 L 54.76277542114258 35.88124847412109 C 54.7651252746582 35.8830680847168 54.76747512817383 35.8848762512207 54.76981353759766 35.8867073059082 C 56.6558837890625 37.35338592529297 56.99796295166016 40.08215713500977 55.53236389160156 41.96958541870117 L 53.89147567749023 44.08085632324219 C 53.06527328491211 45.14486694335938 51.81695556640625 45.75577545166016 50.46742248535156 45.75587844848633 Z" stroke="none" fill="#fff"/>
      </g>
    </g>
  </g>
</svg>
