<svg xmlns="http://www.w3.org/2000/svg" width="26.157" height="30.006" viewBox="0 0 26.157 30.006">
  <g id="pdf_on_green_bg_hover" data-name="pdf on green bg hover" transform="translate(-998 -123.744)">
    <path id="Path_1324" data-name="Path 1324" d="M999.35,88.9V115h19.6V92.6l-6.2-5.1Z" transform="translate(0 37)" fill="#fff"/>
    <path id="Path_1320" data-name="Path 1320" d="M21.674-20.514,16.758-25.43a2.813,2.813,0,0,0-1.986-.826H2.813A2.822,2.822,0,0,0,0-23.437V.938A2.813,2.813,0,0,0,2.813,3.75H19.688A2.813,2.813,0,0,0,22.5.938V-18.521A2.826,2.826,0,0,0,21.674-20.514ZM19.459-18.75H15v-4.459ZM2.813.938V-23.437h9.375v6.094a1.4,1.4,0,0,0,1.406,1.406h6.094V.938Zm14.66-8.42c-.715-.7-2.754-.51-3.773-.381a5.081,5.081,0,0,1-2.156-2.713,7.369,7.369,0,0,0,.316-3.281,1.306,1.306,0,0,0-2.5-.346,8.44,8.44,0,0,0,.41,3.932A47.05,47.05,0,0,1,7.7-5.912c-1.172.6-2.754,1.535-2.988,2.707C4.518-2.279,6.234.029,9.17-5.033a29.052,29.052,0,0,1,4.008-1.178,7.8,7.8,0,0,0,3.27,1A1.354,1.354,0,0,0,17.473-7.482ZM5.865-2.924A7.027,7.027,0,0,1,7.646-4.975C6.533-3.2,5.865-2.883,5.865-2.924Zm4.781-11.168c.434,0,.393,1.881.105,2.391A4.913,4.913,0,0,1,10.646-14.092Zm-1.43,8a23,23,0,0,0,1.447-3.205,6.457,6.457,0,0,0,1.764,2.08A19.827,19.827,0,0,0,9.217-6.088Zm7.711-.293s-.293.352-2.186-.457C16.8-6.99,17.139-6.521,16.928-6.381Z" transform="translate(998 150)" fill="#ff0505"/>
    <path id="Path_1318" data-name="Path 1318" d="M15515.067,1523.35l3.8,4.457,4.426-4.457" transform="translate(-14499.848 -1385.27)" fill="#ff0505" stroke="#389773" stroke-linecap="round" stroke-linejoin="round" stroke-width="1"/>
  </g>
</svg>
