<svg id="print_on_white_bg_hover" data-name="print on white bg hover" xmlns="http://www.w3.org/2000/svg" width="26.3" height="29.325" viewBox="0 0 26.3 29.325">
  <g id="Group_1138" data-name="Group 1138" transform="translate(0 10.309)">
    <g id="Group_1137" data-name="Group 1137">
      <path id="Path_1299" data-name="Path 1299" d="M23.988,180H2.312A2.455,2.455,0,0,0,0,182.577V193a2.455,2.455,0,0,0,2.312,2.577H4.623v-6.873H3.853a.864.864,0,0,1,0-1.718H22.447a.864.864,0,0,1,0,1.718h-.771v6.873h2.312A2.455,2.455,0,0,0,26.3,193V182.577A2.455,2.455,0,0,0,23.988,180ZM5.394,185.155H3.853a.864.864,0,0,1,0-1.718H5.394a.864.864,0,0,1,0,1.718Z" transform="translate(0 -180)" fill="#08743b"/>
    </g>
  </g>
  <g id="Group_1140" data-name="Group 1140" transform="translate(5.361 19.015)">
    <g id="Group_1139" data-name="Group 1139">
      <path id="Path_1300" data-name="Path 1300" d="M120,332v9.45a.859.859,0,0,0,.859.859h13.86a.859.859,0,0,0,.859-.859V332Zm13,6.873H122.577a.859.859,0,1,1,0-1.718H133a.859.859,0,1,1,0,1.718Zm0-3.436H122.577a.859.859,0,1,1,0-1.718H133a.859.859,0,1,1,0,1.718Z" transform="translate(-120 -332)" fill="#999"/>
    </g>
  </g>
  <g id="Group_1146" data-name="Group 1146" transform="translate(16.684 0.503)">
    <g id="Group_1145" data-name="Group 1145">
      <path id="Path_1303" data-name="Path 1303" d="M332,8.789V13.44h4.651Z" transform="translate(-332 -8.789)" fill="#999"/>
    </g>
  </g>
  <g id="Group_1148" data-name="Group 1148" transform="translate(3.642)">
    <g id="Group_1147" data-name="Group 1147">
      <path id="Path_1304" data-name="Path 1304" d="M103,6.873a.859.859,0,0,1-.859-.859V0H90.859A.859.859,0,0,0,90,.859V8.591h19.015V6.873Z" transform="translate(-90)" fill="#999"/>
    </g>
  </g>
</svg>
