<svg xmlns="http://www.w3.org/2000/svg" width="26.233" height="29.25" viewBox="0 0 26.233 29.25">
  <g id="print_on_green_bg_hover" data-name="print on green bg hover" transform="translate(-1086.573 -125.5)">
    <path id="Path_1299" data-name="Path 1299" d="M23.927,180H2.306A2.449,2.449,0,0,0,0,182.571v10.4a2.449,2.449,0,0,0,2.306,2.571H4.611v-6.855H3.843a.862.862,0,0,1,0-1.714H22.39a.862.862,0,0,1,0,1.714h-.769v6.855h2.306a2.449,2.449,0,0,0,2.306-2.571v-10.4A2.449,2.449,0,0,0,23.927,180ZM5.38,185.142H3.843a.862.862,0,0,1,0-1.714H5.38a.862.862,0,0,1,0,1.714Z" transform="translate(1086.573 -44.217)" fill="#fff"/>
    <path id="Path_1300" data-name="Path 1300" d="M120,332v9.426a.857.857,0,0,0,.857.857h13.825a.857.857,0,0,0,.857-.857V332Zm12.968,6.855h-10.4a.857.857,0,1,1,0-1.714h10.4a.857.857,0,0,1,0,1.714Zm0-3.428h-10.4a.857.857,0,1,1,0-1.714h10.4a.857.857,0,0,1,0,1.714Z" transform="translate(971.92 -187.533)" fill="#f7eedd"/>
    <path id="Path_1303" data-name="Path 1303" d="M332,8.789v4.639h4.639Z" transform="translate(771.215 117.213)" fill="#f7eedd"/>
    <path id="Path_1304" data-name="Path 1304" d="M102.968,6.855A.856.856,0,0,1,102.111,6V0H90.857A.856.856,0,0,0,90,.857V8.569h18.967V6.855Z" transform="translate(1000.206 125.5)" fill="#f7eedd"/>
  </g>
</svg>
