<svg xmlns="http://www.w3.org/2000/svg" width="26.157" height="30.006" viewBox="0 0 26.157 30.006">
  <g id="xcel_on_white_bg_hover" data-name="xcel on white bg hover" transform="translate(-1065 -475.744)">
    <path id="Path_1332" data-name="Path 1332" d="M999.35,88.9V115h19.6V92.6l-6.2-5.1Z" transform="translate(67 389)" fill="#fff"/>
    <path id="Path_1333" data-name="Path 1333" d="M21.674-20.514,16.758-25.43a2.813,2.813,0,0,0-1.986-.826H2.813A2.822,2.822,0,0,0,0-23.437V.938A2.813,2.813,0,0,0,2.813,3.75H19.688A2.813,2.813,0,0,0,22.5.938V-18.521A2.826,2.826,0,0,0,21.674-20.514ZM19.459-18.75H15v-4.459ZM2.813.938V-23.437h9.375v6.094a1.4,1.4,0,0,0,1.406,1.406h6.094V.938ZM15.234-13.125H13.547a.7.7,0,0,0-.615.369,30.629,30.629,0,0,0-1.676,3.381c-.814-1.705-.4-1.014-1.676-3.381a.706.706,0,0,0-.621-.369H7.266a.7.7,0,0,0-.609,1.055L9.369-7.5,6.656-2.93a.7.7,0,0,0,.609,1.055H8.959a.7.7,0,0,0,.615-.369A30.464,30.464,0,0,0,11.25-5.625c.873,1.77.346.932,1.676,3.381a.706.706,0,0,0,.621.369h1.687a.7.7,0,0,0,.609-1.055L13.125-7.5c.041-.064,1.775-2.959,2.713-4.57A.7.7,0,0,0,15.234-13.125Z" transform="translate(1065 502)" fill="#08743b"/>
    <path id="Path_1336" data-name="Path 1336" d="M15515.067,1523.35l3.8,4.457,4.426-4.457" transform="translate(-14432.848 -1028.27)" fill="#08743b" stroke="#fff" stroke-linecap="round" stroke-linejoin="round" stroke-width="1"/>
  </g>
</svg>
