<svg width="90" height="90" viewBox="0 0 100 100" fill="none" xmlns="http://www.w3.org/2000/svg">
  <path fill-rule="evenodd" clip-rule="evenodd" d="M9.16536 4.33301C6.77213 4.33301 4.83203 6.27311 4.83203 8.66634V51.9997C4.83203 53.1498 5.28927 54.2528 6.10302 55.0656L43.3238 92.243C44.5309 93.4513 45.9644 94.4098 47.5421 95.0639C49.1203 95.7181 50.812 96.0548 52.5204 96.0548C54.2288 96.0548 55.9204 95.7181 57.4986 95.0639C59.076 94.41 60.5109 93.45 61.7179 92.2421L92.7862 61.1738L89.722 58.1097L92.7953 61.1647C95.2165 58.729 96.5756 55.4341 96.5756 51.9997C96.5756 48.5653 95.2165 45.2704 92.7953 42.8347L55.5628 5.60221C54.7502 4.78955 53.648 4.33301 52.4987 4.33301H9.16536ZM86.6528 55.0507L86.6488 55.0547L55.5862 86.1172C55.1837 86.5201 54.7058 86.8398 54.1798 87.0578C53.6537 87.2759 53.0898 87.3881 52.5204 87.3881C51.9509 87.3881 51.387 87.2759 50.861 87.0578C50.3349 86.8398 49.857 86.5201 49.4545 86.1172L49.451 86.1138L13.4987 50.2033V12.9997H50.7038L86.6488 48.9447L86.6528 48.9487C87.4574 49.7602 87.9089 50.8567 87.9089 51.9997C87.9089 53.1426 87.4574 54.2392 86.6528 55.0507ZM30.832 25.9997C28.4388 25.9997 26.4987 27.9398 26.4987 30.333C26.4987 32.7262 28.4388 34.6663 30.832 34.6663H30.8754C33.2686 34.6663 35.2087 32.7262 35.2087 30.333C35.2087 27.9398 33.2686 25.9997 30.8754 25.9997H30.832Z" fill="#1BAF5D"/>
</svg>
