<svg xmlns="http://www.w3.org/2000/svg" width="29" height="27.25" viewBox="0 0 29 27.25">
  <g id="Terminate_VIC_Contributor_Hover" data-name="Terminate VIC Contributor Hover" transform="translate(-371 -1174.75)">
    <path id="Path_1884" data-name="Path 1884" d="M9.625-8.25a5.5,5.5,0,0,0,5.5-5.5,5.5,5.5,0,0,0-5.5-5.5,5.5,5.5,0,0,0-5.5,5.5A5.5,5.5,0,0,0,9.625-8.25Zm3.85,1.375h-.718a7.488,7.488,0,0,1-3.132.688,7.5,7.5,0,0,1-3.132-.687H5.775A5.777,5.777,0,0,0,0-1.1V3.688A2.063,2.063,0,0,0,2.063,5.75H17.188A2.063,2.063,0,0,0,19.25,3.688V-1.1A5.777,5.777,0,0,0,13.475-6.875Z" transform="translate(371 1194)" fill="#1baf5d"/>
    <g id="Path_1885" data-name="Path 1885" transform="translate(382 1184)" fill="#1baf5d">
      <path d="M 9 17.5 C 4.313079833984375 17.5 0.5 13.68692016601563 0.5 9 C 0.5 4.313079833984375 4.313079833984375 0.5 9 0.5 C 13.68692016601563 0.5 17.5 4.313079833984375 17.5 9 C 17.5 13.68692016601563 13.68692016601563 17.5 9 17.5 Z" stroke="none"/>
      <path d="M 9 1 C 4.588789939880371 1 1 4.588789939880371 1 9 C 1 13.41121006011963 4.588789939880371 17 9 17 C 13.41121006011963 17 17 13.41121006011963 17 9 C 17 4.588789939880371 13.41121006011963 1 9 1 M 9 0 C 13.97056007385254 0 18 4.029439926147461 18 9 C 18 13.97056007385254 13.97056007385254 18 9 18 C 4.029439926147461 18 0 13.97056007385254 0 9 C 0 4.029439926147461 4.029439926147461 0 9 0 Z" stroke="none" fill="#fff"/>
    </g>
    <text id="_" data-name="" transform="translate(387 1197)" fill="#fff" font-size="10" font-family="FontAwesome5Free-Regular, 'Font Awesome 5 Free'"><tspan x="0" y="0"></tspan></text>
  </g>
</svg>
