<svg xmlns="http://www.w3.org/2000/svg" width="49" height="49" viewBox="0 0 49 49">
  <g id="Bad" transform="translate(12643 4122.75)">
    <circle id="Ellipse_631" data-name="Ellipse 631" cx="17.25" cy="17.25" r="17.25" transform="translate(-12636 -4115.75)" fill="#e66b00"/>
    <path id="Path_2062" data-name="Path 2062" d="M24-68.75a24,24,0,0,0-24,24,24,24,0,0,0,24,24,24,24,0,0,0,24-24A24,24,0,0,0,24-68.75Zm7.742,16.258a3.093,3.093,0,0,1,3.1,3.1,3.093,3.093,0,0,1-3.1,3.1,3.093,3.093,0,0,1-3.1-3.1A3.093,3.093,0,0,1,31.742-52.492Zm-15.484,0a3.093,3.093,0,0,1,3.1,3.1,3.093,3.093,0,0,1-3.1,3.1,3.093,3.093,0,0,1-3.1-3.1A3.093,3.093,0,0,1,16.258-52.492ZM32.729-31.376A11.354,11.354,0,0,0,24-35.46a11.354,11.354,0,0,0-8.729,4.084A1.549,1.549,0,0,1,12.89-33.36,14.454,14.454,0,0,1,24-38.556,14.4,14.4,0,0,1,35.1-33.35,1.543,1.543,0,0,1,32.729-31.376Z" transform="translate(-12642.5 -4053.5)" fill="#fdbc85" stroke="#e66b00" stroke-width="1"/>
  </g>
</svg>
