<svg xmlns="http://www.w3.org/2000/svg" width="48" height="48" viewBox="0 0 48 48">
  <g id="Excellent" transform="translate(12219 4123.75)">
    <ellipse id="Ellipse_634" data-name="Ellipse 634" cx="17.25" cy="16.75" rx="17.25" ry="16.75" transform="translate(-12212 -4115)" fill="#989898"/>
    <path id="Path_2065" data-name="Path 2065" d="M24-68.75a24,24,0,0,0-24,24,24,24,0,0,0,24,24,24,24,0,0,0,24-24A24,24,0,0,0,24-68.75Zm7.742,16.258a3.093,3.093,0,0,1,3.1,3.1,3.093,3.093,0,0,1-3.1,3.1,3.093,3.093,0,0,1-3.1-3.1A3.093,3.093,0,0,1,31.742-52.492Zm-15.484,0a3.093,3.093,0,0,1,3.1,3.1,3.093,3.093,0,0,1-3.1,3.1,3.093,3.093,0,0,1-3.1-3.1A3.093,3.093,0,0,1,16.258-52.492ZM24-27.718c-5.864,0-13.016-3.706-13.916-9.029a1.551,1.551,0,0,1,2-1.732A41.828,41.828,0,0,0,24-37.008a41.828,41.828,0,0,0,11.913-1.471,1.556,1.556,0,0,1,2,1.732C37.016-31.424,29.864-27.718,24-27.718Z" transform="translate(-12219 -4055)" fill="#ccc"/>
  </g>
</svg>
