<svg xmlns="http://www.w3.org/2000/svg" width="49" height="49" viewBox="0 0 49 49">
  <g id="Excellent" transform="translate(12197.5 3921.25)">
    <ellipse id="Ellipse_634" data-name="Ellipse 634" cx="17.25" cy="17.25" rx="17.25" ry="17.25" transform="translate(-12190 -3913)" fill="#1baf5d"/>
    <path id="Path_2066" data-name="Path 2066" d="M24-68.75a24,24,0,0,0-24,24,24,24,0,0,0,24,24,24,24,0,0,0,24-24A24,24,0,0,0,24-68.75Zm7.742,16.258a3.093,3.093,0,0,1,3.1,3.1,3.093,3.093,0,0,1-3.1,3.1,3.093,3.093,0,0,1-3.1-3.1A3.093,3.093,0,0,1,31.742-52.492Zm-15.484,0a3.093,3.093,0,0,1,3.1,3.1,3.093,3.093,0,0,1-3.1,3.1,3.093,3.093,0,0,1-3.1-3.1A3.093,3.093,0,0,1,16.258-52.492ZM24-27.718c-5.864,0-13.016-3.706-13.916-9.029a1.551,1.551,0,0,1,2-1.732A41.828,41.828,0,0,0,24-37.008a41.828,41.828,0,0,0,11.913-1.471,1.556,1.556,0,0,1,2,1.732C37.016-31.424,29.864-27.718,24-27.718Z" transform="translate(-12197 -3852)" fill="#9fffde" stroke="#1baf5d" stroke-width="1"/>
  </g>
</svg>
