<svg xmlns="http://www.w3.org/2000/svg" width="180.168" height="142.73" viewBox="0 0 180.168 142.73">
  <g id="Failed" transform="translate(-762 -290)">
    <g id="Group_812" data-name="Group 812" transform="translate(762 290)">
      <g id="Group_260" data-name="Group 260" transform="translate(0 0)">
        <g id="Group_252" data-name="Group 252" transform="translate(4.841 24.213)">
          <rect id="Rectangle_890" data-name="Rectangle 890" width="90.795" height="17.22" rx="8.61" transform="translate(43.832 0)" fill="#fff5f5"/>
          <rect id="Rectangle_899" data-name="Rectangle 899" width="73.393" height="17.22" rx="8.61" transform="translate(28.788 101.297)" fill="#fff5f5"/>
          <rect id="Rectangle_900" data-name="Rectangle 900" width="17.864" height="17.22" rx="8.61" transform="translate(10.938 1.999)" fill="#fff5f5"/>
          <rect id="Rectangle_891" data-name="Rectangle 891" width="170.631" height="17.22" rx="8.61" transform="translate(4.696 36.457)" fill="#fff5f5"/>
          <rect id="Rectangle_895" data-name="Rectangle 895" width="170.631" height="17.22" rx="8.61" transform="translate(0 72.914)" fill="#fff5f5"/>
          <path id="Subtraction_18" data-name="Subtraction 18" d="M29.9,19.238H.608c-.2,0-.408-.006-.608-.019a9.63,9.63,0,0,0,9.01-9.6A9.63,9.63,0,0,0,0,.019C.212.006.416,0,.608,0H29.9l.226,0a9.618,9.618,0,0,0-6.649,16.342,9.564,9.564,0,0,0,6.649,2.89l-.028,0h-.2Z" transform="translate(88.847 17.22)" fill="#fff5f5"/>
          <path id="Subtraction_20" data-name="Subtraction 20" d="M37.57,19.25H-.788l-.228,0H0A9.635,9.635,0,0,0,9.625,9.624,9.635,9.635,0,0,0,0,0H37.57a9.6,9.6,0,0,1,2.883.441h-2.71a9.332,9.332,0,1,0,0,18.664h1.5A9.679,9.679,0,0,1,37.57,19.25Z" transform="translate(35.422 53.677)" fill="#fff5f5"/>
        </g>
        <g id="Path_818" data-name="Path 818" transform="translate(154.605 16.142)" fill="#fff">
          <path d="M 10.76045989990234 19.02091789245605 C 6.205629825592041 19.02091789245605 2.5 15.31528759002686 2.5 10.76045799255371 C 2.5 6.205627918243408 6.205629825592041 2.499998092651367 10.76045989990234 2.499998092651367 C 15.31528949737549 2.499998092651367 19.02091979980469 6.205627918243408 19.02091979980469 10.76045799255371 C 19.02091979980469 15.31528759002686 15.31528949737549 19.02091789245605 10.76045989990234 19.02091789245605 Z" stroke="none"/>
          <path d="M 10.76045989990234 4.999998092651367 C 7.58413028717041 4.999998092651367 5 7.584128379821777 5 10.76045799255371 C 5 13.93678855895996 7.58413028717041 16.52091789245605 10.76045989990234 16.52091789245605 C 13.93679046630859 16.52091789245605 16.52091979980469 13.93678855895996 16.52091979980469 10.76045799255371 C 16.52091979980469 7.584128379821777 13.93679046630859 4.999998092651367 10.76045989990234 4.999998092651367 M 10.76045989990234 -1.9073486328125e-06 C 16.70330047607422 -1.9073486328125e-06 21.52091979980469 4.817617416381836 21.52091979980469 10.76045799255371 C 21.52091979980469 16.70329856872559 16.70330047607422 21.52091789245605 10.76045989990234 21.52091789245605 C 4.817619323730469 21.52091789245605 0 16.70329856872559 0 10.76045799255371 C 0 4.817617416381836 4.817619323730469 -1.9073486328125e-06 10.76045989990234 -1.9073486328125e-06 Z" stroke="none" fill="#ffb2b2"/>
        </g>
        <g id="Path_819" data-name="Path 819" transform="translate(19.107 129.298) rotate(166)" fill="#fff">
          <path d="M 7.881135940551758 13.26226425170898 C 4.913966178894043 13.26226425170898 2.499995946884155 10.84830474853516 2.499995946884155 7.881134510040283 C 2.499995946884155 4.913964748382568 4.913966178894043 2.500004529953003 7.881135940551758 2.500004529953003 C 10.84830570220947 2.500004529953003 13.26227569580078 4.913964748382568 13.26227569580078 7.881134510040283 C 13.26227569580078 10.84830474853516 10.84830570220947 13.26226425170898 7.881135940551758 13.26226425170898 Z" stroke="none"/>
          <path d="M 7.881135940551758 5.000004768371582 C 6.292466163635254 5.000004768371582 4.999996185302734 6.292474746704102 4.999996185302734 7.881134510040283 C 4.999996185302734 9.469794273376465 6.292466163635254 10.76226425170898 7.881135940551758 10.76226425170898 C 8.650715827941895 10.76226425170898 9.374236106872559 10.46257400512695 9.918405532836914 9.918404579162598 C 10.46257591247559 9.374224662780762 10.76226615905762 8.650714874267578 10.76226615905762 7.881134510040283 C 10.76226615905762 6.292474746704102 9.469795227050781 5.000004768371582 7.881135940551758 5.000004768371582 M 7.881135940551758 4.76837158203125e-06 C 12.23376560211182 4.76837158203125e-06 15.76226615905762 3.528504371643066 15.76226615905762 7.881134510040283 C 15.76227569580078 12.2337646484375 12.23376560211182 15.76226425170898 7.881135940551758 15.76226425170898 C 3.528506278991699 15.76226425170898 -3.814697265625e-06 12.2337646484375 -3.814697265625e-06 7.881134510040283 C -3.814697265625e-06 3.528504371643066 3.528506278991699 4.76837158203125e-06 7.881135940551758 4.76837158203125e-06 Z" stroke="none" fill="#ffb2b2"/>
        </g>
        <g id="Path_820" data-name="Path 820" transform="translate(123.573 7.134) rotate(166)" fill="#ccc">
          <path d="M 3.675998687744141 4.851998329162598 C 3.027548789978027 4.851998329162598 2.499998569488525 4.324448585510254 2.499998569488525 3.675998449325562 C 2.499998569488525 3.027548551559448 3.027548789978027 2.499998331069946 3.675998687744141 2.499998331069946 C 4.324448585510254 2.499998331069946 4.851998805999756 3.027548551559448 4.851998805999756 3.675998449325562 C 4.851998805999756 4.324448585510254 4.324448585510254 4.851998329162598 3.675998687744141 4.851998329162598 Z" stroke="none"/>
          <path d="M 3.675998687744141 -1.430511474609375e-06 C 5.706198692321777 -1.430511474609375e-06 7.351998805999756 1.645798683166504 7.351998805999756 3.675998449325562 C 7.351998805999756 5.706198692321777 5.706198692321777 7.351998329162598 3.675998687744141 7.351998329162598 C 1.645798683166504 7.351998329162598 -1.430511474609375e-06 5.706198692321777 -1.430511474609375e-06 3.675998449325562 C -1.430511474609375e-06 1.645798683166504 1.645798683166504 -1.430511474609375e-06 3.675998687744141 -1.430511474609375e-06 Z" stroke="none" fill="#ffb2b2"/>
        </g>
        <g id="Path_821" data-name="Path 821" transform="translate(172.4 123.156) rotate(166)" fill="#ccc">
          <path d="M 3.675998687744141 4.851998329162598 C 3.027548789978027 4.851998329162598 2.499998569488525 4.324448585510254 2.499998569488525 3.675998449325562 C 2.499998569488525 3.027548551559448 3.027548789978027 2.499998331069946 3.675998687744141 2.499998331069946 C 4.324448585510254 2.499998331069946 4.851998805999756 3.027548551559448 4.851998805999756 3.675998449325562 C 4.851998805999756 4.324448585510254 4.324448585510254 4.851998329162598 3.675998687744141 4.851998329162598 Z" stroke="none"/>
          <path d="M 3.675998687744141 -1.430511474609375e-06 C 5.706198692321777 -1.430511474609375e-06 7.351998805999756 1.645798683166504 7.351998805999756 3.675998449325562 C 7.351998805999756 5.706198692321777 5.706198692321777 7.351998329162598 3.675998687744141 7.351998329162598 C 1.645798683166504 7.351998329162598 -1.430511474609375e-06 5.706198692321777 -1.430511474609375e-06 3.675998449325562 C -1.430511474609375e-06 1.645798683166504 1.645798683166504 -1.430511474609375e-06 3.675998687744141 -1.430511474609375e-06 Z" stroke="none" fill="#ffb2b2"/>
        </g>
      </g>
    </g>
    <g id="Polygon_30" data-name="Polygon 30" transform="translate(811.966 327.284)" fill="#fff">
      <path d="M 70.55189514160156 67.64775848388672 L 8.657052993774414 67.64775848388672 C 7.211243152618408 67.64775848388672 5.916373252868652 66.90029907226562 5.193273067474365 65.64830780029297 C 4.470163345336914 64.39631652832031 4.469803333282471 62.90119552612305 5.192313194274902 61.64885711669922 L 36.13973236083984 8.00666618347168 C 36.86263275146484 6.753635883331299 38.15786361694336 6.005555629730225 39.60447311401367 6.005555629730225 C 41.05108261108398 6.005555629730225 42.3463134765625 6.753635883331299 43.0692138671875 8.00666618347168 L 74.01663970947266 61.64885711669922 C 74.73914337158203 62.90119552612305 74.73878479003906 64.39631652832031 74.01567077636719 65.64830780029297 C 73.29257202148438 66.90029907226562 71.99770355224609 67.64775848388672 70.55189514160156 67.64775848388672 Z" stroke="none"/>
      <path d="M 39.60447311401367 7.00555419921875 C 38.51950454711914 7.00555419921875 37.5480842590332 7.566612243652344 37.00590515136719 8.506385803222656 L 6.058494567871094 62.14857864379883 C 5.516616821289062 63.08783340454102 5.516883850097656 64.20916748046875 6.0592041015625 65.14816284179688 C 6.601539611816406 66.087158203125 7.57269287109375 66.64774322509766 8.657051086425781 66.64774322509766 L 70.55189514160156 66.64774322509766 C 71.63625335693359 66.64774322509766 72.60740661621094 66.087158203125 73.14972686767578 65.14816284179688 C 73.69206237792969 64.20917510986328 73.69232940673828 63.08783340454102 73.15045928955078 62.14857864379883 L 42.20304107666016 8.506385803222656 C 41.66086196899414 7.566612243652344 40.68943023681641 7.00555419921875 39.60447311401367 7.00555419921875 M 39.60446929931641 5.00555419921875 C 41.28889846801758 5.00555419921875 42.97332763671875 5.839347839355469 43.93540573120117 7.506942749023438 L 74.88282775878906 61.14913177490234 C 76.80589294433594 64.48247528076172 74.40018463134766 68.64774322509766 70.55189514160156 68.64774322509766 L 8.657051086425781 68.64774322509766 C 4.808761596679688 68.64774322509766 2.403038024902344 64.48247528076172 4.326118469238281 61.14913177490234 L 35.27354049682617 7.506942749023438 C 36.23561096191406 5.839347839355469 37.92004013061523 5.00555419921875 39.60446929931641 5.00555419921875 Z" stroke="none" fill="#ff4040"/>
    </g>
    <path id="Path_1343" data-name="Path 1343" d="M10.669-21.94A10.222,10.222,0,0,1,10.4-19.9q-.273,1.269-.686,2.979-.395,1.616-.9,4.032T7.737-6.922H6.29q-.564-3.59-1.071-5.977t-.9-4q-.357-1.485-.658-2.9a11.322,11.322,0,0,1-.3-2.133,3.3,3.3,0,0,1,1.071-2.472A3.593,3.593,0,0,1,7-25.436a3.635,3.635,0,0,1,2.575,1.024A3.269,3.269,0,0,1,10.669-21.94ZM10.631-1.17A3.262,3.262,0,0,1,9.551,1.283,3.558,3.558,0,0,1,7.023,2.307,3.58,3.58,0,0,1,4.476,1.283,3.262,3.262,0,0,1,3.4-1.17,3.321,3.321,0,0,1,4.476-3.642,3.547,3.547,0,0,1,7.023-4.685,3.525,3.525,0,0,1,9.551-3.642,3.321,3.321,0,0,1,10.631-1.17Z" transform="translate(845.167 381.966)" fill="#ff4040"/>
  </g>
</svg>
