<svg xmlns="http://www.w3.org/2000/svg" width="49" height="49" viewBox="0 0 49 49">
  <g id="Good" transform="translate(12358.5 4123.25)">
    <ellipse id="Ellipse_633" data-name="Ellipse 633" cx="17.25" cy="16.75" rx="17.25" ry="16.75" transform="translate(-12353 -4115)" fill="#8bbc1d"/>
    <path id="Path_2064" data-name="Path 2064" d="M24-68.75a24,24,0,0,0-24,24,24,24,0,0,0,24,24,24,24,0,0,0,24-24A24,24,0,0,0,24-68.75Zm7.742,16.258a3.093,3.093,0,0,1,3.1,3.1,3.093,3.093,0,0,1-3.1,3.1,3.093,3.093,0,0,1-3.1-3.1A3.093,3.093,0,0,1,31.742-52.492Zm-15.484,0a3.093,3.093,0,0,1,3.1,3.1,3.093,3.093,0,0,1-3.1,3.1,3.093,3.093,0,0,1-3.1-3.1A3.093,3.093,0,0,1,16.258-52.492ZM35.11-36.021A14.417,14.417,0,0,1,24-30.814a14.417,14.417,0,0,1-11.11-5.206A1.549,1.549,0,0,1,15.271-38,11.309,11.309,0,0,0,24-33.921,11.34,11.34,0,0,0,32.729-38,1.55,1.55,0,0,1,35.11-36.021Z" transform="translate(-12358 -4054)" fill="#c9ea7f" stroke="#8bbc1d" stroke-width="1"/>
  </g>
</svg>
