<svg xmlns="http://www.w3.org/2000/svg" width="48" height="48" viewBox="0 0 48 48">
  <g id="Neutral" transform="translate(12501 4122.75)">
    <circle id="Ellipse_632" data-name="Ellipse 632" cx="17.25" cy="17.25" r="17.25" transform="translate(-12494 -4116)" fill="#989898"/>
    <path id="Path_2063" data-name="Path 2063" d="M24-68.75a24,24,0,0,0-24,24,24,24,0,0,0,24,24,24,24,0,0,0,24-24A24,24,0,0,0,24-68.75ZM16.258-52.492a3.093,3.093,0,0,1,3.1,3.1,3.093,3.093,0,0,1-3.1,3.1,3.093,3.093,0,0,1-3.1-3.1A3.093,3.093,0,0,1,16.258-52.492ZM33.29-33.911H14.71a1.548,1.548,0,0,1,0-3.1H33.29A1.548,1.548,0,0,1,33.29-33.911ZM31.742-46.3a3.093,3.093,0,0,1-3.1-3.1,3.093,3.093,0,0,1,3.1-3.1,3.093,3.093,0,0,1,3.1,3.1A3.093,3.093,0,0,1,31.742-46.3Z" transform="translate(-12501 -4054)" fill="#ccc"/>
  </g>
</svg>
