<svg xmlns="http://www.w3.org/2000/svg" width="49" height="49" viewBox="0 0 49 49">
  <g id="Neutral" transform="translate(-470.5 -281.375)">
    <circle id="Ellipse_632" data-name="Ellipse 632" cx="20.875" cy="20.875" r="20.875" transform="translate(474 284)" fill="#ffa200"/>
    <path id="Path_2068" data-name="Path 2068" d="M24-48.125a24,24,0,0,0-24,24,24,24,0,0,0,24,24,24,24,0,0,0,24-24A24,24,0,0,0,24-48.125ZM16.258-31.867a3.093,3.093,0,0,1,3.1,3.1,3.093,3.093,0,0,1-3.1,3.1,3.093,3.093,0,0,1-3.1-3.1A3.093,3.093,0,0,1,16.258-31.867ZM33.29-13.286H14.71a1.548,1.548,0,0,1,0-3.1H33.29A1.548,1.548,0,0,1,33.29-13.286ZM31.742-25.673a3.093,3.093,0,0,1-3.1-3.1,3.093,3.093,0,0,1,3.1-3.1,3.093,3.093,0,0,1,3.1,3.1A3.093,3.093,0,0,1,31.742-25.673Z" transform="translate(471 330)" fill="#ffd894" stroke="#ffa200" stroke-width="1"/>
  </g>
</svg>
