<svg xmlns="http://www.w3.org/2000/svg" width="49" height="49" viewBox="0 0 49 49">
  <g id="Worse" transform="translate(12784.5 4124.25)">
    <circle id="Ellipse_630" data-name="Ellipse 630" cx="17.25" cy="17.25" r="17.25" transform="translate(-12778 -4117)" fill="#af0000"/>
    <path id="Path_2061" data-name="Path 2061" d="M24-68.75a24,24,0,0,0-24,24,24,24,0,0,0,24,24,24,24,0,0,0,24-24A24,24,0,0,0,24-68.75ZM13.161-49.4a3.093,3.093,0,0,1,3.1-3.1,3.093,3.093,0,0,1,3.1,3.1,3.093,3.093,0,0,1-3.1,3.1A3.093,3.093,0,0,1,13.161-49.4ZM31.287-31.656A29.248,29.248,0,0,0,24-33.137a29.248,29.248,0,0,0-7.287,1.481,1.553,1.553,0,0,1-1.984-1.752c.677-3.871,5.816-5.923,9.271-5.923s8.593,2.061,9.271,5.923A1.552,1.552,0,0,1,31.287-31.656ZM31.742-46.3a3.093,3.093,0,0,1-3.1-3.1,3.093,3.093,0,0,1,3.1-3.1,3.093,3.093,0,0,1,3.1,3.1A3.093,3.093,0,0,1,31.742-46.3Z" transform="translate(-12784 -4055)" fill="#ff7b7b" stroke="#af0000" stroke-width="1"/>
  </g>
</svg>
