<svg xmlns="http://www.w3.org/2000/svg" width="22" height="16.5" viewBox="0 0 22 16.5">
  <path id="Path_10309" data-name="Path 10309" d="M0-15.125A1.375,1.375,0,0,1,1.375-16.5h16.5a1.374,1.374,0,0,1,1.375,1.375,1.374,1.374,0,0,1-1.375,1.375H1.375A1.374,1.374,0,0,1,0-15.125ZM2.75-8.25A1.374,1.374,0,0,1,4.125-9.625h16.5A1.374,1.374,0,0,1,22-8.25a1.374,1.374,0,0,1-1.375,1.375H4.125A1.374,1.374,0,0,1,2.75-8.25ZM17.875,0H1.375A1.374,1.374,0,0,1,0-1.375,1.374,1.374,0,0,1,1.375-2.75h16.5A1.374,1.374,0,0,1,19.25-1.375,1.374,1.374,0,0,1,17.875,0Z" transform="translate(0 16.5)" fill="#ccc"/>
</svg>
