<svg xmlns="http://www.w3.org/2000/svg" width="40" height="40" viewBox="0 0 40 40">
  <g id="Group_13455" data-name="Group 13455" transform="translate(-586 -940)">
    <rect id="Rectangle_6771" data-name="Rectangle 6771" width="40" height="40" rx="20" transform="translate(586 940)" fill="#e3fffc"/>
    <path id="Path_1902" data-name="Path 1902" d="M0,.563A1.688,1.688,0,0,0,1.688,2.25H14.063A1.688,1.688,0,0,0,15.75.563V-9H0Zm2.25-6.75a.564.564,0,0,1,.563-.562H6.188a.564.564,0,0,1,.563.563v3.375a.564.564,0,0,1-.562.563H2.813a.564.564,0,0,1-.562-.562ZM14.063-13.5H12.375v-1.687a.564.564,0,0,0-.562-.562H10.688a.564.564,0,0,0-.562.563V-13.5h-4.5v-1.687a.564.564,0,0,0-.562-.562H3.938a.564.564,0,0,0-.562.563V-13.5H1.688A1.688,1.688,0,0,0,0-11.812v1.688H15.75v-1.687A1.688,1.688,0,0,0,14.063-13.5Z" transform="translate(598.125 966.75)" fill="#21d3df"/>
  </g>
</svg>
