<svg xmlns="http://www.w3.org/2000/svg" xmlns:xlink="http://www.w3.org/1999/xlink" width="117" height="117" viewBox="0 0 117 117">
  <defs>
    <clipPath id="clip-path">
      <path id="Subtraction_2" data-name="Subtraction 2" d="M58.5,117A58.515,58.515,0,0,1,35.729,4.6,58.515,58.515,0,0,1,81.271,112.4,58.133,58.133,0,0,1,58.5,117Zm0-90A31.5,31.5,0,1,0,90,58.5,31.536,31.536,0,0,0,58.5,27Z" transform="translate(0 0)" fill="#d10f0f"/>
    </clipPath>
  </defs>
  <g id="Group_255" data-name="Group 255" transform="translate(-161 -250.5)">
    <text id="_0" data-name="0" transform="translate(219.413 320.146)" fill="#666" font-size="30" font-family="Roboto-Regular, Roboto"><tspan x="-8.423" y="0">0</tspan></text>
    <g id="Mask_Group_2" data-name="Mask Group 2" transform="translate(161 250.5)" clip-path="url(#clip-path)">
      <path id="Path_648" data-name="Path 648" d="M676.489,370.906l22.62,86.97L550.615,472.69l-5.325-111.424,67.239-29.9Z" transform="translate(-554.029 -346.336)" fill="#f2f2f2"/>
    </g>
    <path id="Subtraction_15" data-name="Subtraction 15" d="M36.66,73.32A36.67,36.67,0,0,1,22.39,2.881,36.669,36.669,0,0,1,50.93,70.439,36.429,36.429,0,0,1,36.66,73.32Zm0-67.917A31.257,31.257,0,1,0,67.917,36.66,31.293,31.293,0,0,0,36.66,5.4Z" transform="translate(182.84 272.34)" opacity="0.1"/>
  </g>
</svg>
