<svg xmlns="http://www.w3.org/2000/svg" width="24" height="18.018" viewBox="0 0 24 18.018"><defs><style>.a{fill:#999;}</style></defs><g transform="translate(-1 -3.991)"><path class="a" d="M1.75,7.75H7.43a2.994,2.994,0,0,0,5.805,0H24.25a.75.75,0,0,0,0-1.5H13.236a2.994,2.994,0,0,0-5.805,0H1.75a.75.75,0,0,0,0,1.5Zm8.583-2.259A1.509,1.509,0,1,1,8.824,7,1.51,1.51,0,0,1,10.333,5.491Z"/><path class="a" d="M24.25,12.25H22.644a2.994,2.994,0,0,0-5.805,0H1.75a.75.75,0,0,0,0,1.5H16.839a2.994,2.994,0,0,0,5.805,0H24.25a.75.75,0,1,0,0-1.5Zm-4.509,2.259A1.509,1.509,0,1,1,21.25,13,1.51,1.51,0,0,1,19.741,14.509Z"/><path class="a" d="M24.25,18.25H9.718a2.994,2.994,0,0,0-5.8,0H1.75a.75.75,0,0,0,0,1.5H3.914a2.994,2.994,0,0,0,5.8,0H24.25a.75.75,0,0,0,0-1.5ZM6.816,20.509A1.509,1.509,0,1,1,8.324,19,1.51,1.51,0,0,1,6.816,20.509Z"/></g></svg>