<svg xmlns="http://www.w3.org/2000/svg" width="49" height="49" viewBox="0 0 49 49">
  <g id="hand" transform="translate(-545 -803)">
    <g id="Polygon_3" data-name="Polygon 3" transform="translate(545 803)" fill="none">
      <path d="M32.577,0a5,5,0,0,1,3.536,1.464L47.536,12.887A5,5,0,0,1,49,16.423V32.577a5,5,0,0,1-1.464,3.536L36.113,47.536A5,5,0,0,1,32.577,49H16.423a5,5,0,0,1-3.536-1.464L1.464,36.113A5,5,0,0,1,0,32.577V16.423a5,5,0,0,1,1.464-3.536L12.887,1.464A5,5,0,0,1,16.423,0Z" stroke="none"/>
      <path d="M 16.4228401184082 2 C 15.62150955200195 2 14.86814117431641 2.312049865722656 14.30152130126953 2.878669738769531 L 2.878681182861328 14.30150985717773 C 2.312061309814453 14.86814117431641 2 15.62150955200195 2 16.42282867431641 L 2 32.5771598815918 C 2 33.37849044799805 2.312049865722656 34.13185882568359 2.878669738769531 34.69847869873047 L 14.30152130126953 46.12131881713867 C 14.86814117431641 46.68795013427734 15.62149810791016 47 16.4228401184082 47 L 32.5771598815918 47 C 33.37849044799805 47 34.13185882568359 46.68793869018555 34.69849014282227 46.12131881713867 L 46.12131881713867 34.69847869873047 C 46.68795013427734 34.13185882568359 47 33.37850189208984 47 32.5771598815918 L 46.9999885559082 16.42282104492188 C 47 15.62149810791016 46.68795013427734 14.86814117431641 46.12131881713867 14.30150985717773 L 34.69849014282227 2.878681182861328 C 34.13185882568359 2.312061309814453 33.37849044799805 2 32.5771598815918 2 L 16.4228401184082 2 M 16.4228401184082 0 L 32.5771598815918 0 C 33.90324020385742 0 35.17501831054688 0.5267906188964844 36.11270141601563 1.464469909667969 L 47.53553009033203 12.88729858398438 C 48.47322082519531 13.82498168945313 49 15.09675979614258 48.9999885559082 16.4228401184082 L 49 32.5771598815918 C 49 33.90325164794922 48.47322082519531 35.17501831054688 47.53553009033203 36.11270141601563 L 36.11270141601563 47.53553009033203 C 35.17501068115234 48.47322082519531 33.90324020385742 49 32.5771598815918 49 L 16.4228401184082 49 C 15.09674835205078 49 13.82498168945313 48.47322082519531 12.88729858398438 47.53553009033203 L 1.464458465576172 36.11268997192383 C 0.5267791748046875 35.17501068115234 0 33.90324020385742 0 32.5771598815918 L 0 16.42282867431641 C 0 15.09674835205078 0.5267906188964844 13.82498168945313 1.464469909667969 12.88729858398438 L 12.88731002807617 1.464458465576172 C 13.82498931884766 0.5267791748046875 15.09675979614258 0 16.4228401184082 0 Z" stroke="none" fill="#999"/>
    </g>
    <path id="Polygon_2" data-name="Polygon 2" d="M25.506,0a5,5,0,0,1,3.536,1.464l8.494,8.494A5,5,0,0,1,39,13.494V25.506a5,5,0,0,1-1.464,3.536l-8.494,8.494A5,5,0,0,1,25.506,39H13.494a5,5,0,0,1-3.536-1.464L1.464,29.042A5,5,0,0,1,0,25.506V13.494A5,5,0,0,1,1.464,9.958L9.958,1.464A5,5,0,0,1,13.494,0Z" transform="translate(550 808)" fill="#ff4040"/>
    <path id="hold" d="M17.5,4.682V11.94a.7.7,0,0,1-.7.7h0a.7.7,0,0,1-.7-.7V1.4a1.4,1.4,0,0,0-1.4-1.4h0a1.4,1.4,0,0,0-1.4,1.4V11.94a.7.7,0,0,1-.7.7h0a.7.7,0,0,1-.7-.7V3.512a1.17,1.17,0,0,0-1.171-1.171h0A1.17,1.17,0,0,0,9.537,3.512v9.364a.7.7,0,0,1-.7.7h0a.7.7,0,0,1-.7-.7V7.023A1.17,1.17,0,0,0,6.962,5.853h0A1.17,1.17,0,0,0,5.787,7.023v12.7c.391,5.656,3.493,6.994,7.871,6.994a8.071,8.071,0,0,0,7.106-3.91c.544-.877,3.837-6,4.119-6.541A6.213,6.213,0,0,1,26.3,14.4a3.162,3.162,0,0,0,.74-.986c.051-.095.2-1.239-.651-1.236A4.219,4.219,0,0,0,24.2,12.9a7.672,7.672,0,0,0-2.334,2.59,1.426,1.426,0,0,1-1.186.744c-.469.011-.347-.219-.376-1.187h0V4.682a1.4,1.4,0,0,0-1.4-1.4h0A1.4,1.4,0,0,0,17.5,4.682Z" transform="translate(554.213 813.326)" fill="#fff"/>
  </g>
</svg>
