
<svg xmlns="http://www.w3.org/2000/svg" width="40" height="40" viewBox="0 0 40 40">
  <g id="Group_13456" data-name="Group 13456" transform="translate(-468 -878)">
    <rect id="Rectangle_6770" data-name="Rectangle 6770" width="40" height="40" rx="20" transform="translate(468 878)" fill="#e3fffc"/>
    <path id="Path_1900" data-name="Path 1900" d="M9.529-10.677l1.908.5a.3.3,0,0,1,.233.285.31.31,0,0,1-.321.3H10.1A1.054,1.054,0,0,1,9.7-9.671a.5.5,0,0,0-.538.07L8.5-8.986a.408.408,0,0,0-.079.093.4.4,0,0,0-.058.209.4.4,0,0,0,.195.345,2.955,2.955,0,0,0,1.213.4v.622a.59.59,0,0,0,.611.563h.611a.59.59,0,0,0,.611-.562v-.619a2.019,2.019,0,0,0,1.881-2.215,2.132,2.132,0,0,0-1.637-1.677l-1.908-.5a.3.3,0,0,1-.233-.285.31.31,0,0,1,.321-.3h1.252a1.054,1.054,0,0,1,.395.077.5.5,0,0,0,.538-.07l.668-.615a.394.394,0,0,0,.076-.091.4.4,0,0,0,.059-.21.4.4,0,0,0-.194-.345,2.957,2.957,0,0,0-1.214-.4v-.623a.59.59,0,0,0-.611-.562h-.611a.59.59,0,0,0-.611.563v.619a2.02,2.02,0,0,0-1.881,2.215A2.134,2.134,0,0,0,9.529-10.677ZM19.873-4.215a1.164,1.164,0,0,0-1.5,0l-3.248,2.6a2.227,2.227,0,0,1-1.4.491H9.563A.563.563,0,0,1,9-1.687a.563.563,0,0,1,.563-.562h2.752a1.167,1.167,0,0,0,1.169-.935,1.1,1.1,0,0,0,.016-.189s0,0,0,0A1.126,1.126,0,0,0,12.375-4.5H6.75a4.127,4.127,0,0,0-2.605.924L2.51-2.25H.563A.563.563,0,0,0,0-1.687V1.688a.563.563,0,0,0,.563.563H13.107a2.245,2.245,0,0,0,1.4-.492L19.828-2.5a1.123,1.123,0,0,0,.423-.879,1.121,1.121,0,0,0-.378-.84Z" transform="translate(477.874 904.75)" fill="#21d3df"/>
  </g>
</svg>
