<svg xmlns="http://www.w3.org/2000/svg" width="40" height="40" viewBox="0 0 40 40">
  <g id="Group_13453" data-name="Group 13453" transform="translate(-474 -746)">
    <rect id="Rectangle_6774" data-name="Rectangle 6774" width="40" height="40" rx="20" transform="translate(474 746)" fill="#e3fffc"/>
    <path id="Path_1899" data-name="Path 1899" d="M13.254-12.059,9.812-15.5a.843.843,0,0,0-.6-.246H9v4.5h4.5v-.214A.841.841,0,0,0,13.254-12.059Zm-5.379,1.09V-15.75H.844A.842.842,0,0,0,0-14.906V1.406a.842.842,0,0,0,.844.844H12.656a.842.842,0,0,0,.844-.844V-10.125H8.719A.846.846,0,0,1,7.875-10.969ZM2.25-13.219a.281.281,0,0,1,.281-.281H5.344a.281.281,0,0,1,.281.281v.563a.281.281,0,0,1-.281.281H2.531a.281.281,0,0,1-.281-.281Zm0,2.813v-.562a.281.281,0,0,1,.281-.281H5.344a.281.281,0,0,1,.281.281v.563a.281.281,0,0,1-.281.281H2.531A.281.281,0,0,1,2.25-10.406ZM7.313-1.129v.848A.281.281,0,0,1,7.031,0H6.469a.281.281,0,0,1-.281-.281v-.854a2.013,2.013,0,0,1-1.1-.4.282.282,0,0,1-.02-.427l.413-.394a.289.289,0,0,1,.356-.026.846.846,0,0,0,.451.131h.988a.442.442,0,0,0,.415-.464.459.459,0,0,0-.308-.448L5.8-3.636a1.591,1.591,0,0,1-1.11-1.525,1.566,1.566,0,0,1,1.5-1.585v-.848a.281.281,0,0,1,.281-.281h.563a.281.281,0,0,1,.281.281v.854a2.01,2.01,0,0,1,1.1.4.282.282,0,0,1,.02.427l-.413.394a.289.289,0,0,1-.356.026.843.843,0,0,0-.451-.131H6.227a.442.442,0,0,0-.415.464.459.459,0,0,0,.308.448L7.7-4.239a1.591,1.591,0,0,1,1.11,1.525A1.565,1.565,0,0,1,7.313-1.129Z" transform="translate(487.25 772.75)" fill="#21d3df"/>
  </g>
</svg>