

<svg xmlns="http://www.w3.org/2000/svg" width="40" height="40" viewBox="0 0 40 40">
  <g id="Group_13454" data-name="Group 13454" transform="translate(-671 -808)">
    <rect id="Rectangle_6775" data-name="Rectangle 6775" width="40" height="40" rx="20" transform="translate(671 808)" fill="#e3fffc"/>
    <path id="Path_1901" data-name="Path 1901" d="M2.813-2.812H.563A.563.563,0,0,0,0-2.25V0A.563.563,0,0,0,.563.563h2.25A.563.563,0,0,0,3.375,0V-2.25A.563.563,0,0,0,2.813-2.812Zm0-11.25H.563A.563.563,0,0,0,0-13.5v2.25a.563.563,0,0,0,.563.563h2.25a.563.563,0,0,0,.563-.562V-13.5A.563.563,0,0,0,2.813-14.062Zm0,5.625H.563A.563.563,0,0,0,0-7.875v2.25a.563.563,0,0,0,.563.563h2.25a.563.563,0,0,0,.563-.562v-2.25A.563.563,0,0,0,2.813-8.437ZM17.438-2.25H6.188a.563.563,0,0,0-.562.563V-.562A.563.563,0,0,0,6.188,0h11.25A.563.563,0,0,0,18-.562V-1.687A.563.563,0,0,0,17.438-2.25Zm0-11.25H6.188a.563.563,0,0,0-.562.563v1.125a.563.563,0,0,0,.563.563h11.25A.563.563,0,0,0,18-11.812v-1.125A.563.563,0,0,0,17.438-13.5Zm0,5.625H6.188a.563.563,0,0,0-.562.563v1.125a.563.563,0,0,0,.563.563h11.25A.563.563,0,0,0,18-6.187V-7.312A.563.563,0,0,0,17.438-7.875Z" transform="translate(682 834.75)" fill="#21d3df"/>
  </g>
</svg>
