<svg xmlns="http://www.w3.org/2000/svg" width="174.655" height="138.363" viewBox="0 0 174.655 138.363">
  <g id="Group_13598" data-name="Group 13598" transform="translate(-602.673 -358.319)">
    <g id="Group_1485" data-name="Group 1485" transform="translate(-150.377 108.681)">
      <g id="Group_812" data-name="Group 812" transform="translate(-16.95 -112.363)">
        <g id="Group_260" data-name="Group 260" transform="translate(770 362)">
          <g id="Group_252" data-name="Group 252" transform="translate(4.692 23.472)">
            <rect id="Rectangle_890" data-name="Rectangle 890" width="88.016" height="16.693" rx="8.346" transform="translate(42.491 0)" fill="#f6f6f6"/>
            <rect id="Rectangle_899" data-name="Rectangle 899" width="71.147" height="16.693" rx="8.346" transform="translate(27.907 98.198)" fill="#f6f6f6"/>
            <rect id="Rectangle_900" data-name="Rectangle 900" width="17.317" height="16.693" rx="8.346" transform="translate(10.603 1.938)" fill="#f6f6f6"/>
            <rect id="Rectangle_891" data-name="Rectangle 891" width="165.41" height="16.693" rx="8.346" transform="translate(4.553 35.342)" fill="#f6f6f6"/>
            <rect id="Rectangle_895" data-name="Rectangle 895" width="165.41" height="16.693" rx="8.346" transform="translate(0 70.683)" fill="#f6f6f6"/>
            <path id="Subtraction_18" data-name="Subtraction 18" d="M28.984,18.649H.589c-.191,0-.39-.006-.59-.018A9.337,9.337,0,0,0,8.734,9.324,9.337,9.337,0,0,0,0,.018C.211.005.409,0,.589,0h28.4L29.2,0a9.376,9.376,0,0,0-9.1,9.321,9.378,9.378,0,0,0,9.1,9.322l-.033,0h-.186Z" transform="translate(86.128 16.693)" fill="#f6f6f6"/>
            <path id="Subtraction_20" data-name="Subtraction 20" d="M36.419,18.662H-.764l-.224,0H0A9.34,9.34,0,0,0,9.33,9.329,9.34,9.34,0,0,0,0,0H36.419a9.3,9.3,0,0,1,2.795.428H36.588a9.046,9.046,0,1,0,0,18.093h1.455A9.387,9.387,0,0,1,36.419,18.662Z" transform="translate(34.338 52.034)" fill="#f6f6f6"/>
          </g>
          <g id="Path_818" data-name="Path 818" transform="translate(149.874 15.648)" fill="#fff">
            <path d="M 10.43118667602539 18.36237525939941 C 6.057916641235352 18.36237525939941 2.499996662139893 14.8044548034668 2.499996662139893 10.43118476867676 C 2.499996662139893 6.057914733886719 6.057916641235352 2.500004768371582 10.43118667602539 2.500004768371582 C 14.80445671081543 2.500004768371582 18.36237716674805 6.057914733886719 18.36237716674805 10.43118476867676 C 18.36237716674805 14.8044548034668 14.80445671081543 18.36237525939941 10.43118667602539 18.36237525939941 Z" stroke="none"/>
            <path d="M 10.43118667602539 4.999995231628418 C 7.436416625976562 4.999995231628418 4.999997138977051 7.43641471862793 4.999997138977051 10.43118476867676 C 4.999997138977051 13.42594528198242 7.436416625976562 15.86236476898193 10.43118667602539 15.86236476898193 C 13.42595672607422 15.86236476898193 15.86237716674805 13.42594528198242 15.86237716674805 10.43118476867676 C 15.86237716674805 7.43641471862793 13.42595672607422 4.999995231628418 10.43118667602539 4.999995231628418 M 10.43118667602539 -5.7220458984375e-06 C 16.19216728210449 -5.7220458984375e-06 20.86237716674805 4.670204162597656 20.86237716674805 10.43118476867676 C 20.86237716674805 16.19216537475586 16.19216728210449 20.86236381530762 10.43118667602539 20.86236381530762 C 4.670206069946289 20.86236381530762 -3.814697265625e-06 16.19216537475586 -3.814697265625e-06 10.43118476867676 C -3.814697265625e-06 4.670204162597656 4.670206069946289 -5.7220458984375e-06 10.43118667602539 -5.7220458984375e-06 Z" stroke="none" fill="#ccc"/>
          </g>
          <g id="Path_819" data-name="Path 819" transform="translate(18.523 125.342) rotate(166)" fill="#fff">
            <path d="M 7.639970779418945 12.77993965148926 C 4.80578088760376 12.77993965148926 2.500000715255737 10.47416019439697 2.500000715255737 7.639969825744629 C 2.500000715255737 4.805779933929443 4.80578088760376 2.499999761581421 7.639970779418945 2.499999761581421 C 10.47416114807129 2.499999761581421 12.77994060516357 4.805779933929443 12.77994060516357 7.639969825744629 C 12.77994060516357 10.47416019439697 10.47416114807129 12.77993965148926 7.639970779418945 12.77993965148926 Z" stroke="none"/>
            <path d="M 7.639970779418945 5 C 6.184290885925293 5 5.000000953674316 6.184289932250977 5.000000953674316 7.639969825744629 C 5.000000953674316 9.095649719238281 6.184290885925293 10.27993965148926 7.639970779418945 10.27993965148926 C 9.095650672912598 10.27993965148926 10.27994060516357 9.095649719238281 10.27994060516357 7.639969825744629 C 10.27994060516357 6.184289932250977 9.095650672912598 5 7.639970779418945 5 M 7.639970779418945 0 C 11.85941123962402 0 15.27994060516357 3.420529365539551 15.27994060516357 7.639969825744629 C 15.27994060516357 11.85940933227539 11.85941123962402 15.27993965148926 7.639970779418945 15.27993965148926 C 3.420530319213867 15.27993965148926 9.5367431640625e-07 11.85940933227539 9.5367431640625e-07 7.639969825744629 C 9.5367431640625e-07 3.420529365539551 3.420530319213867 0 7.639970779418945 0 Z" stroke="none" fill="#ccc"/>
          </g>
          <path id="Path_820" data-name="Path 820" d="M3.564,0A3.564,3.564,0,1,1,0,3.564,3.564,3.564,0,0,1,3.564,0Z" transform="translate(119.792 6.915) rotate(166)" fill="#ccc"/>
          <path id="Path_821" data-name="Path 821" d="M3.564,0A3.564,3.564,0,1,1,0,3.564,3.564,3.564,0,0,1,3.564,0Z" transform="translate(167.124 119.387) rotate(166)" fill="#ccc"/>
        </g>
      </g>
    </g>
    <g id="Group_13597" data-name="Group 13597" transform="translate(22935.914 13576.71)">
      <path id="Union_107" data-name="Union 107" d="M43.531,60.7,38.989,56.54,34.454,60.7c-.932.85-2.143.576-2.143-.715V47.281a10.512,10.512,0,1,1,13.355,0V59.988c0,.795-.451,1.205-1.017,1.205A1.717,1.717,0,0,1,43.531,60.7ZM34.174,39.177a4.819,4.819,0,1,0,4.815-4.821A4.82,4.82,0,0,0,34.174,39.177ZM6.439,56.193c-4.715,0-6.423-1.83-6.423-6.693L.008,16.333H7c6.051,0,8.928-4.039,8.911-9.244V.008H39.236c4.715,0,6.423,1.83,6.423,6.695V26.556a14.166,14.166,0,0,0-6.68-1.673A14.351,14.351,0,0,0,24.693,39.177a14.122,14.122,0,0,0,3.833,9.259v7.757ZM0,12.558c0-1.132.693-1.651,1.393-2.376l8.872-9.12A2.739,2.739,0,0,1,12.113,0V6.629c0,2.662-.48,4.055-1.154,4.75s-1.9,1.179-4.443,1.179Z" transform="translate(-22270.664 -13163)" fill="#999"/>
    </g>
  </g>
</svg>
