<svg xmlns="http://www.w3.org/2000/svg" width="294" height="212.166" viewBox="0 0 294 212.166">
  <g id="Search_error" data-name="Search error" transform="translate(-509 -373.669)">
    <g id="Group_331" data-name="Group 331" transform="translate(642.516 373.669)" opacity="0.6">
      <g id="Group_260" data-name="Group 260" transform="translate(0 0)">
        <g id="Group_252" data-name="Group 252" transform="translate(5.451 27.657)">
          <rect id="Rectangle_890" data-name="Rectangle 890" width="102.238" height="19.39" rx="9.695" transform="translate(27.375 0)" fill="#f6f6f6"/>
          <rect id="Rectangle_899" data-name="Rectangle 899" width="82.643" height="19.39" rx="9.695" transform="translate(26.313 114.064)" fill="#f6f6f6"/>
          <rect id="Rectangle_900" data-name="Rectangle 900" width="20.115" height="19.39" rx="9.695" transform="translate(12.316 2.251)" fill="#f6f6f6"/>
          <rect id="Rectangle_891" data-name="Rectangle 891" width="149.745" height="19.39" rx="9.695" transform="translate(5.288 41.052)" fill="#f6f6f6"/>
          <rect id="Rectangle_895" data-name="Rectangle 895" width="149.745" height="19.39" rx="9.695" transform="translate(0 82.104)" fill="#f6f6f6"/>
          <path id="Subtraction_18" data-name="Subtraction 18" d="M33.668,21.662H.686c-.229,0-.46-.007-.686-.022a10.844,10.844,0,0,0,10.146-10.81A10.845,10.845,0,0,0,0,.022C.237.007.467,0,.686,0H33.668l.254,0A10.892,10.892,0,0,0,23.346,10.831,10.893,10.893,0,0,0,33.923,21.659l-.007,0h-.248Z" transform="translate(74.106 19.39)" fill="#f6f6f6"/>
          <path id="Subtraction_20" data-name="Subtraction 20" d="M43.456,21.677H.264c-.105,0-.2,0-.282,0h1.17A10.837,10.837,0,0,0,1.152,0h42.3A10.8,10.8,0,0,1,46.7.5H43.65a10.508,10.508,0,0,0,0,21.017h1.689A10.9,10.9,0,0,1,43.456,21.677Z" transform="translate(27.84 60.441)" fill="#f6f6f6"/>
        </g>
        <g id="Path_818" data-name="Path 818" transform="translate(129.931 0)" fill="#fff">
          <path d="M 12.11667346954346 21.73333740234375 C 6.814023494720459 21.73333740234375 2.500003576278687 17.4193172454834 2.500003576278687 12.11666774749756 C 2.500003576278687 6.814017772674561 6.814023494720459 2.499997854232788 12.11667346954346 2.499997854232788 C 17.4193229675293 2.499997854232788 21.73334312438965 6.814017772674561 21.73334312438965 12.11666774749756 C 21.73334312438965 17.4193172454834 17.4193229675293 21.73333740234375 12.11667346954346 21.73333740234375 Z" stroke="none"/>
          <path d="M 12.11667346954346 4.999998092651367 C 8.192523956298828 4.999998092651367 5.000003814697266 8.19251823425293 5.000003814697266 12.11666774749756 C 5.000003814697266 16.04081726074219 8.192523956298828 19.23333740234375 12.11667346954346 19.23333740234375 C 16.04082489013672 19.23333740234375 19.23334312438965 16.04081726074219 19.23334312438965 12.11666774749756 C 19.23334312438965 8.19251823425293 16.04082489013672 4.999998092651367 12.11667346954346 4.999998092651367 M 12.11667346954346 -1.9073486328125e-06 C 18.80852317810059 -1.9073486328125e-06 24.23334312438965 5.42481803894043 24.23334312438965 12.11666774749756 C 24.23334312438965 18.80851745605469 18.80852317810059 24.23333740234375 12.11667346954346 24.23333740234375 C 5.424823760986328 24.23333740234375 3.814697265625e-06 18.80851745605469 3.814697265625e-06 12.11666774749756 C 3.814697265625e-06 5.42481803894043 5.424823760986328 -1.9073486328125e-06 12.11667346954346 -1.9073486328125e-06 Z" stroke="none" fill="#ccc"/>
        </g>
        <g id="Path_819" data-name="Path 819" transform="translate(21.516 145.986) rotate(166)" fill="#fff">
          <path d="M 8.874448776245117 15.2488842010498 C 5.35956859588623 15.2488842010498 2.499998807907104 12.38932418823242 2.499998807907104 8.874444007873535 C 2.499998807907104 5.359563827514648 5.35956859588623 2.500004053115845 8.874448776245117 2.500004053115845 C 12.389328956604 2.500004053115845 15.24889850616455 5.359563827514648 15.24889850616455 8.874444007873535 C 15.24889850616455 12.38932418823242 12.389328956604 15.2488842010498 8.874448776245117 15.2488842010498 Z" stroke="none"/>
          <path d="M 8.874448776245117 5.000003814697266 C 6.738068580627441 5.000003814697266 4.999999046325684 6.73807430267334 4.999999046325684 8.874444007873535 C 4.999999046325684 11.01081466674805 6.738068580627441 12.7488842010498 8.874448776245117 12.7488842010498 C 9.90934944152832 12.7488842010498 10.88230895996094 12.34587383270264 11.61409854888916 11.61408424377441 C 12.34587860107422 10.88230419158936 12.74888896942139 9.909354209899902 12.74888896942139 8.874444007873535 C 12.74888896942139 6.73807430267334 11.01081848144531 5.000003814697266 8.874448776245117 5.000003814697266 M 8.874448776245117 3.814697265625e-06 C 13.77566909790039 3.814697265625e-06 17.74888801574707 3.973223686218262 17.74888801574707 8.874444007873535 C 17.74889945983887 13.77566432952881 13.77566909790039 17.7488842010498 8.874448776245117 17.7488842010498 C 3.973228454589844 17.7488842010498 -1.9073486328125e-06 13.77566432952881 -1.9073486328125e-06 8.874444007873535 C -1.9073486328125e-06 3.973223686218262 3.973228454589844 3.814697265625e-06 8.874448776245117 3.814697265625e-06 Z" stroke="none" fill="#ccc"/>
        </g>
        <path id="Path_820" data-name="Path 820" d="M4.139,0A4.139,4.139,0,1,1,0,4.139,4.139,4.139,0,0,1,4.139,0Z" transform="translate(110.765 8.424) rotate(166)" fill="#ccc"/>
        <path id="Path_821" data-name="Path 821" d="M4.139,0A4.139,4.139,0,1,1,0,4.139,4.139,4.139,0,0,1,4.139,0Z" transform="translate(151.737 139.069) rotate(166)" fill="#ccc"/>
      </g>
    </g>
    <g id="Group_361" data-name="Group 361" transform="translate(509 397.935)" opacity="0.6">
      <g id="Group_260-2" data-name="Group 260" transform="translate(0)">
        <g id="Group_252-2" data-name="Group 252" transform="translate(5.451 18.423)">
          <rect id="Rectangle_890-2" data-name="Rectangle 890" width="102.238" height="19.39" rx="9.695" transform="translate(49.356 0)" fill="#f6f6f6"/>
          <rect id="Rectangle_899-2" data-name="Rectangle 899" width="82.643" height="19.39" rx="9.695" transform="translate(32.416 114.064)" fill="#f6f6f6"/>
          <rect id="Rectangle_900-2" data-name="Rectangle 900" width="20.115" height="19.39" rx="9.695" transform="translate(12.316 2.251)" fill="#f6f6f6"/>
          <rect id="Rectangle_891-2" data-name="Rectangle 891" width="192.137" height="19.39" rx="9.695" transform="translate(5.288 41.052)" fill="#f6f6f6"/>
          <rect id="Rectangle_895-2" data-name="Rectangle 895" width="192.137" height="19.39" rx="9.695" transform="translate(0 82.104)" fill="#f6f6f6"/>
          <path id="Subtraction_18-2" data-name="Subtraction 18" d="M33.668,21.662H.686c-.229,0-.46-.007-.686-.022a10.844,10.844,0,0,0,10.146-10.81A10.845,10.845,0,0,0,0,.022C.237.007.467,0,.686,0H33.668l.254,0A10.892,10.892,0,0,0,23.346,10.831,10.893,10.893,0,0,0,33.923,21.659l-.007,0h-.248Z" transform="translate(100.045 19.39)" fill="#f6f6f6"/>
          <path id="Subtraction_20-2" data-name="Subtraction 20" d="M43.456,21.677H.264c-.105,0-.2,0-.282,0h1.17A10.837,10.837,0,0,0,1.152,0h42.3A10.806,10.806,0,0,1,46.7.5H43.65a10.508,10.508,0,0,0,0,21.017h1.689A10.906,10.906,0,0,1,43.456,21.677Z" transform="translate(38.736 60.441)" fill="#f6f6f6"/>
        </g>
        <g id="Path_818-2" data-name="Path 818" transform="translate(174.091 9.335)" fill="#fff">
          <path d="M 12.11667346954346 21.73333740234375 C 6.814023494720459 21.73333740234375 2.500003576278687 17.4193172454834 2.500003576278687 12.11666774749756 C 2.500003576278687 6.814017772674561 6.814023494720459 2.499997854232788 12.11667346954346 2.499997854232788 C 17.4193229675293 2.499997854232788 21.73334312438965 6.814017772674561 21.73334312438965 12.11666774749756 C 21.73334312438965 17.4193172454834 17.4193229675293 21.73333740234375 12.11667346954346 21.73333740234375 Z" stroke="none"/>
          <path d="M 12.11667346954346 4.999998092651367 C 8.192523956298828 4.999998092651367 5.000003814697266 8.19251823425293 5.000003814697266 12.11666774749756 C 5.000003814697266 16.04081726074219 8.192523956298828 19.23333740234375 12.11667346954346 19.23333740234375 C 16.04082489013672 19.23333740234375 19.23334312438965 16.04081726074219 19.23334312438965 12.11666774749756 C 19.23334312438965 8.19251823425293 16.04082489013672 4.999998092651367 12.11667346954346 4.999998092651367 M 12.11667346954346 -1.9073486328125e-06 C 18.80852317810059 -1.9073486328125e-06 24.23334312438965 5.42481803894043 24.23334312438965 12.11666774749756 C 24.23334312438965 18.80851745605469 18.80852317810059 24.23333740234375 12.11667346954346 24.23333740234375 C 5.424823760986328 24.23333740234375 3.814697265625e-06 18.80851745605469 3.814697265625e-06 12.11666774749756 C 3.814697265625e-06 5.42481803894043 5.424823760986328 -1.9073486328125e-06 12.11667346954346 -1.9073486328125e-06 Z" stroke="none" fill="#ccc"/>
        </g>
        <g id="Path_819-2" data-name="Path 819" transform="translate(21.516 145.595) rotate(166)" fill="#fff">
          <path d="M 8.874448776245117 15.2488842010498 C 5.35956859588623 15.2488842010498 2.499998807907104 12.38932418823242 2.499998807907104 8.874444007873535 C 2.499998807907104 5.359563827514648 5.35956859588623 2.500004053115845 8.874448776245117 2.500004053115845 C 12.389328956604 2.500004053115845 15.24889850616455 5.359563827514648 15.24889850616455 8.874444007873535 C 15.24889850616455 12.38932418823242 12.389328956604 15.2488842010498 8.874448776245117 15.2488842010498 Z" stroke="none"/>
          <path d="M 8.874448776245117 5.000003814697266 C 6.738068580627441 5.000003814697266 4.999999046325684 6.73807430267334 4.999999046325684 8.874444007873535 C 4.999999046325684 11.01081466674805 6.738068580627441 12.7488842010498 8.874448776245117 12.7488842010498 C 9.90934944152832 12.7488842010498 10.88230895996094 12.34587383270264 11.61409854888916 11.61408424377441 C 12.34587860107422 10.88230419158936 12.74888896942139 9.909354209899902 12.74888896942139 8.874444007873535 C 12.74888896942139 6.73807430267334 11.01081848144531 5.000003814697266 8.874448776245117 5.000003814697266 M 8.874448776245117 3.814697265625e-06 C 13.77566909790039 3.814697265625e-06 17.74888801574707 3.973223686218262 17.74888801574707 8.874444007873535 C 17.74889945983887 13.77566432952881 13.77566909790039 17.7488842010498 8.874448776245117 17.7488842010498 C 3.973228454589844 17.7488842010498 -1.9073486328125e-06 13.77566432952881 -1.9073486328125e-06 8.874444007873535 C -1.9073486328125e-06 3.973223686218262 3.973228454589844 3.814697265625e-06 8.874448776245117 3.814697265625e-06 Z" stroke="none" fill="#ccc"/>
        </g>
        <path id="Path_820-2" data-name="Path 820" d="M4.139,0A4.139,4.139,0,1,1,0,4.139,4.139,4.139,0,0,1,4.139,0Z" transform="translate(94.937 8.033) rotate(166)" fill="#ccc"/>
      </g>
    </g>
    <g id="Rectangle_1022" data-name="Rectangle 1022" transform="translate(619 391)" fill="none" stroke="#ebebeb" stroke-linecap="round" stroke-width="2" stroke-dasharray="8 6">
      <rect width="119" height="179" rx="5" stroke="none"/>
      <rect x="1" y="1" width="117" height="177" rx="4" fill="none"/>
    </g>
    <rect id="Rectangle_1015" data-name="Rectangle 1015" width="117" height="170" rx="5" transform="translate(606 380)" fill="#e2e2e2"/>
    <rect id="Rectangle_1016" data-name="Rectangle 1016" width="114" height="146" rx="5" transform="translate(578 413)" fill="#ebebeb"/>
    <rect id="Rectangle_1018" data-name="Rectangle 1018" width="85" height="4" rx="2" transform="translate(593 497)" fill="#fff"/>
    <rect id="Rectangle_1019" data-name="Rectangle 1019" width="85" height="4" rx="2" transform="translate(593 510)" fill="#fff"/>
    <ellipse id="Ellipse_216" data-name="Ellipse 216" cx="17.5" cy="17" rx="17.5" ry="17" transform="translate(645 502)" fill="rgba(255,255,255,0.72)" opacity="0.42"/>
    <rect id="Rectangle_1020" data-name="Rectangle 1020" width="85" height="5" rx="2.5" transform="translate(593 523)" fill="#fff"/>
    <rect id="Rectangle_1023" data-name="Rectangle 1023" width="85" height="5" rx="2.5" transform="translate(593 536)" fill="#fff"/>
    <circle id="Ellipse_214" data-name="Ellipse 214" cx="4" cy="4" r="4" transform="translate(650 449)" fill="#fff"/>
    <circle id="Ellipse_215" data-name="Ellipse 215" cx="4" cy="4" r="4" transform="translate(613 449)" fill="#fff"/>
    <path id="Path_863" data-name="Path 863" d="M-2577,6737.309s.884-12.556,12.2-12.91,12.379,12.379,12.379,12.91" transform="translate(3200.947 -6266.275)" fill="none" stroke="#fff" stroke-linecap="round" stroke-width="2"/>
    <line id="Line_47" data-name="Line 47" y1="9.726" x2="9.726" transform="translate(589.021 425.497)" fill="none" stroke="#fff" stroke-linecap="round" stroke-width="4"/>
    <line id="Line_48" data-name="Line 48" y1="9.726" x2="9.726" transform="translate(598.914 425.669) rotate(92)" fill="none" stroke="#fff" stroke-linecap="round" stroke-width="4"/>
    <path id="Path_866" data-name="Path 866" d="M.511,15.805l22.067-.635h0L0,0Z" transform="matrix(-0.999, -0.035, 0.035, -0.999, 691.746, 452.254)" fill="#c5c5c5" opacity="0.08"/>
    <path id="Path_864" data-name="Path 864" d="M0,0,23.874,26.526H0Z" transform="translate(668.158 412.676)" fill="#fff"/>
    <path id="Path_865" data-name="Path 865" d="M0,0,23.874,26.526H0Z" transform="translate(692.032 439.202) rotate(180)" fill="#e2e2e2"/>
    <g id="Ellipse_217" data-name="Ellipse 217" transform="translate(635 497)" fill="rgba(255,255,255,0.34)" stroke="#ccc" stroke-linecap="round" stroke-width="5">
      <circle cx="27" cy="27" r="27" stroke="none"/>
      <circle cx="27" cy="27" r="24.5" fill="none"/>
    </g>
    <rect id="Rectangle_1024" data-name="Rectangle 1024" width="11.495" height="7.074" transform="translate(681.53 540.438) rotate(48)" fill="#ccc"/>
    <rect id="Rectangle_1025" data-name="Rectangle 1025" width="45.979" height="11.495" rx="5.747" transform="translate(687.72 543.975) rotate(48)" fill="#ccc"/>
  </g>
</svg>
