<svg id="Layer_5" enable-background="new 0 0 64 64" height="80.835" width="140.479" viewBox="0 0 64 64"  fill="#1baf5d" xmlns="http://www.w3.org/2000/svg"><path d="m31 51h8v-38h-8zm2-2v-4h4v4zm4-22v4h-4v-4zm-4-2v-4h4v4zm4 8v4h-4v-4zm0 6v4h-4v-4zm0-24v4h-4v-4z"/><path d="m59 7.101v-3.101c0-1.654-1.346-3-3-3h-22c-1.654 0-3 1.346-3 3v3.101c-2.279.465-4 2.485-4 4.899v1h-20.618l-2 4h-.079c-1.822 0-3.303 1.481-3.303 3.303 0 .653.192 1.287.555 1.832l1.445 2.168v22.697h-2v16h62v-51c0-2.414-1.721-4.434-4-4.899zm-51.382 7.899h19.382v2h-20.382zm-3.315 4h22.697v4h-22.465l-1.316-1.974c-.143-.215-.219-.465-.219-.723 0-.719.584-1.303 1.303-1.303zm8.697 28v-6h6v6zm0-8v-6h6v6zm-2-14v6h-6v-6zm8 0v6h-6v-6zm-14 8h6v6h-6zm16 0h6v6h-6zm0-2v-6h6v6zm-16 10h6v6h-6zm7 20h-5v-3.5c0-1.378 1.122-2.5 2.5-2.5s2.5 1.122 2.5 2.5zm11 0h-5v-3.5c0-1.378 1.122-2.5 2.5-2.5s2.5 1.122 2.5 2.5zm4 0h-2v-3.5c0-2.481-2.019-4.5-4.5-4.5s-4.5 2.019-4.5 4.5v3.5h-2v-3.5c0-2.481-2.019-4.5-4.5-4.5s-4.5 2.019-4.5 4.5v3.5h-2v-12h24zm-6-14v-6h6v6zm13-44h22c.551 0 1 .449 1 1v3h-24v-3c0-.551.449-1 1-1zm23 58h-6v-6h6zm-8 0h-8v-6h8zm-10 0h-6v-6h6zm22 0h-2v-8h-28v8h-2v-49c0-1.654 1.346-3 3-3h26c1.654 0 3 1.346 3 3z"/><path d="m41 51h8v-38h-8zm2-2v-4h4v4zm4-22v4h-4v-4zm-4-2v-4h4v4zm4 8v4h-4v-4zm0 6v4h-4v-4zm0-24v4h-4v-4z"/><path d="m51 51h8v-38h-8zm2-2v-4h4v4zm4-22v4h-4v-4zm-4-2v-4h4v4zm4 8v4h-4v-4zm0 6v4h-4v-4zm0-24v4h-4v-4z"/></svg>