<svg xmlns="http://www.w3.org/2000/svg" xmlns:xlink="http://www.w3.org/1999/xlink" width="67" height="67" viewBox="0 0 67 67">
  <defs>
    <clipPath id="clip-path">
      <rect id="Rectangle_5564" data-name="Rectangle 5564" width="67" height="67" fill="#fff" stroke="#707070" stroke-width="1"/>
    </clipPath>
  </defs>
  <g id="complaint" clip-path="url(#clip-path)">
    <g id="feedback_black_24dp" transform="translate(0)">
      <path id="Path_10251" data-name="Path 10251" d="M0,0H66.707V66.707H0Z" fill="none"/>
      <path id="Path_10252" data-name="Path 10252" d="M54.031,4H9.559A5.559,5.559,0,0,0,4.028,9.559L4,59.59,15.118,48.472H54.031a5.576,5.576,0,0,0,5.559-5.559V9.559A5.576,5.576,0,0,0,54.031,4Zm0,38.913H12.811l-1.64,1.64L9.559,46.165V9.559H54.031ZM29.015,31.795h5.559v5.559H29.015Zm0-16.677h5.559V26.236H29.015Z" transform="translate(1.559 1.559)" fill="#1baf5d"/>
    </g>
  </g>
</svg>
