<svg xmlns="http://www.w3.org/2000/svg" width="144.604" height="114.556" viewBox="0 0 144.604 114.556">
  <g id="Enguiry_White" data-name="Enguiry White" transform="translate(-1002 -487.385)">
    <g id="Group_12867" data-name="Group 12867" transform="translate(12747.209 -8886.643)">
      <path id="Path_10381" data-name="Path 10381" d="M143.679,14H93.955a8.878,8.878,0,0,0-8.833,8.834V57.312a8.878,8.878,0,0,0,8.834,8.834h5.414a45.772,45.772,0,0,1-1.638,8.264,5.484,5.484,0,0,0,1.924,6.055,5.506,5.506,0,0,0,6.411.214A79.026,79.026,0,0,0,121.88,66.146h21.8a8.878,8.878,0,0,0,8.834-8.834V22.834A8.878,8.878,0,0,0,143.679,14Zm3.063,43.312a3.162,3.162,0,0,1-3.135,3.135H120.526a2.876,2.876,0,0,0-2.208,1.068,72.967,72.967,0,0,1-14.96,14.105,56.759,56.759,0,0,0,1.995-12.182,2.684,2.684,0,0,0-.784-2.137,2.925,2.925,0,0,0-2.066-.926H93.955a3.162,3.162,0,0,1-3.135-3.135V22.833A3.162,3.162,0,0,1,93.955,19.7h49.724a3.162,3.162,0,0,1,3.135,3.135V57.312Z" transform="translate(-11791.331 9392)" fill="#fff"/>
      <path id="Path_10382" data-name="Path 10382" d="M392.495,115.36c-6.126,0-8.335,4.63-8.335,7.551v.214a1.429,1.429,0,0,0,1.425,1.425h2.351a1.429,1.429,0,0,0,1.425-1.425v-.214c0-.214.071-2.351,3.206-2.351,1.71,0,2.921.427,2.921,2.494,0,1.211-1.852,2.778-2.849,3.562-1.71,1.354-3.063,2.778-3.063,5.627v.5A1.429,1.429,0,0,0,391,134.167h2.351a1.429,1.429,0,0,0,1.425-1.425v-.5c0-.5,0-.641,1.211-1.638,1.638-1.354,4.7-3.847,4.7-7.551-.143-3.776-2.28-7.694-8.193-7.694Z" transform="translate(-12052.329 9303.534)" fill="#fff"/>
      <path id="Path_10383" data-name="Path 10383" d="M428.2,281.12h-2.849a1.429,1.429,0,0,0-1.425,1.425v2.422a1.429,1.429,0,0,0,1.425,1.425H428.2a1.429,1.429,0,0,0,1.425-1.425v-2.422A1.53,1.53,0,0,0,428.2,281.12Z" transform="translate(-12087.033 9158.86)" fill="#fff"/>
      <path id="Path_10384" data-name="Path 10384" d="M206.631,115.36H188.466a1.429,1.429,0,0,0-1.425,1.425v2.422a1.429,1.429,0,0,0,1.425,1.425h18.166a1.429,1.429,0,0,0,1.425-1.425v-2.422a1.429,1.429,0,0,0-1.425-1.425Z" transform="translate(-11880.285 9303.534)" fill="#fff"/>
      <path id="Path_10385" data-name="Path 10385" d="M206.631,198.24H188.466a1.429,1.429,0,0,0-1.425,1.425v2.422a1.429,1.429,0,0,0,1.425,1.425h18.166a1.429,1.429,0,0,0,1.425-1.425v-2.422A1.429,1.429,0,0,0,206.631,198.24Z" transform="translate(-11880.285 9231.197)" fill="#fff"/>
      <path id="Path_10386" data-name="Path 10386" d="M206.631,281.12H188.466a1.429,1.429,0,0,0-1.425,1.425v2.422a1.429,1.429,0,0,0,1.425,1.425h18.166a1.429,1.429,0,0,0,1.425-1.425v-2.422A1.429,1.429,0,0,0,206.631,281.12Z" transform="translate(-11880.285 9158.86)" fill="#fff"/>
    </g>
    <g id="Pattern" transform="translate(1002 487.385)">
      <g id="Group_251" data-name="Group 251" transform="translate(3.885 19.434)" opacity="0.097">
        <rect id="Rectangle_890" data-name="Rectangle 890" width="72.872" height="13.821" rx="6.91" transform="translate(35.18)" fill="#fff"/>
        <rect id="Rectangle_899" data-name="Rectangle 899" width="58.905" height="13.821" rx="6.91" transform="translate(23.105 81.302)" fill="#fff"/>
        <rect id="Rectangle_900" data-name="Rectangle 900" width="14.338" height="13.821" rx="6.91" transform="translate(8.778 1.605)" fill="#fff"/>
        <rect id="Rectangle_891" data-name="Rectangle 891" width="136.949" height="13.821" rx="6.91" transform="translate(3.769 29.261)" fill="#fff"/>
        <rect id="Rectangle_895" data-name="Rectangle 895" width="136.949" height="13.821" rx="6.91" transform="translate(0 58.521)" fill="#fff"/>
        <path id="Subtraction_18" data-name="Subtraction 18" d="M24,15.44H.489c-.158,0-.323-.005-.489-.015a7.729,7.729,0,0,0,7.231-7.7A7.729,7.729,0,0,0,0,.015C.185,0,.34,0,.489,0H24l.181,0A7.764,7.764,0,0,0,16.64,7.72a7.764,7.764,0,0,0,7.539,7.718.48.48,0,0,1-.05,0H24Z" transform="translate(71.309 13.821)" fill="#fff"/>
        <path id="Subtraction_20" data-name="Subtraction 20" d="M30.153,15.45H.056A7.748,7.748,0,0,0,7.725,7.724,7.733,7.733,0,0,0,0,0H30.153a7.7,7.7,0,0,1,2.313.354H30.291a7.49,7.49,0,0,0,0,14.98h1.2A7.772,7.772,0,0,1,30.153,15.45Z" transform="translate(28.431 43.081)" fill="#fff"/>
      </g>
      <g id="Path_785" data-name="Path 785" transform="translate(124.087 12.956)" fill="#4eae81" opacity="0.1">
        <path d="M 8.636385917663574 14.77276420593262 C 5.252766132354736 14.77276420593262 2.499995946884155 12.01999378204346 2.499995946884155 8.636384010314941 C 2.499995946884155 5.252774238586426 5.252766132354736 2.500004053115845 8.636385917663574 2.500004053115845 C 12.02000617980957 2.500004053115845 14.77277565002441 5.252774238586426 14.77277565002441 8.636384010314941 C 14.77277565002441 12.01999378204346 12.02000617980957 14.77276420593262 8.636385917663574 14.77276420593262 Z" stroke="none"/>
        <path d="M 8.636385917663574 5.000003814697266 C 6.63127613067627 5.000003814697266 4.999996185302734 6.631274223327637 4.999996185302734 8.636384010314941 C 4.999996185302734 10.64149379730225 6.63127613067627 12.27276420593262 8.636385917663574 12.27276420593262 C 10.64149570465088 12.27276420593262 12.27277565002441 10.64149379730225 12.27277565002441 8.636384010314941 C 12.27277565002441 6.631274223327637 10.64149570465088 5.000003814697266 8.636385917663574 5.000003814697266 M 8.636385917663574 3.814697265625e-06 C 13.40612602233887 3.814697265625e-06 17.27277565002441 3.866643905639648 17.27277565002441 8.636384010314941 C 17.27277565002441 13.40612411499023 13.40612602233887 17.27276420593262 8.636385917663574 17.27276420593262 C 3.866645812988281 17.27276420593262 -3.814697265625e-06 13.40612411499023 -3.814697265625e-06 8.636384010314941 C -3.814697265625e-06 3.866643905639648 3.866645812988281 3.814697265625e-06 8.636385917663574 3.814697265625e-06 Z" stroke="none" fill="#fff"/>
      </g>
      <g id="Path_788" data-name="Path 788" transform="translate(15.336 103.775) rotate(166)" fill="#4eae81" opacity="0.1">
        <path d="M 6.325429439544678 10.15085792541504 C 4.216079235076904 10.15085792541504 2.499999523162842 8.434778213500977 2.499999523162842 6.325428009033203 C 2.499999523162842 4.21607780456543 4.216079235076904 2.499998092651367 6.325429439544678 2.499998092651367 C 8.434779167175293 2.499998092651367 10.15085983276367 4.21607780456543 10.15085983276367 6.325428009033203 C 10.15085983276367 8.434778213500977 8.434779167175293 10.15085792541504 6.325429439544678 10.15085792541504 Z" stroke="none"/>
        <path d="M 6.325429439544678 4.999998092651367 C 5.594589233398438 4.999998092651367 4.999999523162842 5.594587802886963 4.999999523162842 6.325428009033203 C 4.999999523162842 7.056268215179443 5.594589233398438 7.650857925415039 6.325429439544678 7.650857925415039 C 7.056269645690918 7.650857925415039 7.650859355926514 7.056268215179443 7.650859355926514 6.325428009033203 C 7.650859355926514 5.594587802886963 7.056269645690918 4.999998092651367 6.325429439544678 4.999998092651367 M 6.325429439544678 -1.9073486328125e-06 C 9.818869590759277 -1.9073486328125e-06 12.65085983276367 2.831988334655762 12.65085983276367 6.325428009033203 C 12.65085983276367 9.818867683410645 9.818869590759277 12.65085792541504 6.325429439544678 12.65085792541504 C 2.831989288330078 12.65085792541504 -9.5367431640625e-07 9.818867683410645 -9.5367431640625e-07 6.325428009033203 C -9.5367431640625e-07 2.831988334655762 2.831989288330078 -1.9073486328125e-06 6.325429439544678 -1.9073486328125e-06 Z" stroke="none" fill="#fff"/>
      </g>
      <path id="Path_796" data-name="Path 796" d="M2.95,0A2.95,2.95,0,1,1,0,2.95,2.95,2.95,0,0,1,2.95,0Z" transform="translate(99.18 5.725) rotate(166)" fill="#fff" opacity="0.1"/>
      <path id="Path_797" data-name="Path 797" d="M2.95,0A2.95,2.95,0,1,1,0,2.95,2.95,2.95,0,0,1,2.95,0Z" transform="translate(138.369 98.845) rotate(166)" fill="#fff" opacity="0.1"/>
    </g>
  </g>
</svg>
