<svg xmlns="http://www.w3.org/2000/svg" xmlns:xlink="http://www.w3.org/1999/xlink" width="67" height="67" viewBox="0 0 67 67">
  <defs>
    <clipPath id="clip-path">
      <rect id="Rectangle_5564" data-name="Rectangle 5564" width="67" height="67" transform="translate(161 24)" fill="#fff" stroke="#707070" stroke-width="1"/>
    </clipPath>
  </defs>
  <g id="objection" transform="translate(-161 -24)" clip-path="url(#clip-path)">
    <g id="speaker_notes_off_black_24dp" transform="translate(161 24)">
      <path id="Path_10258" data-name="Path 10258" d="M0,0H67.146V67.146H0Z" fill="none"/>
      <path id="Path_10259" data-name="Path 10259" d="M55.955,9.923V43.5H52.206L57.55,48.84a5.625,5.625,0,0,0,4-5.344V9.923a5.612,5.612,0,0,0-5.6-5.6H13.038l5.6,5.6ZM16.787,32.3h5.6v5.6h-5.6ZM50.36,23.911H32.622l5.6,5.6H50.36Zm0-8.393H27.978v3.749l1.847,1.847H50.36ZM3.945,3.18,0,7.125l5.624,5.624L5.6,60.282,16.787,49.091h25.18L58,65.123l3.945-3.945ZM14.464,43.5l-3.273,3.273V18.316l5.6,5.6v5.6h5.6L36.371,43.5Z" transform="translate(0 1.268)" fill="#1baf5d"/>
    </g>
  </g>
</svg>
