<svg xmlns="http://www.w3.org/2000/svg" xmlns:xlink="http://www.w3.org/1999/xlink" width="67" height="67" viewBox="0 0 67 67">
  <defs>
    <clipPath id="clip-path">
      <rect id="Rectangle_5564" data-name="Rectangle 5564" width="67" height="67" transform="translate(0.254)" fill="#fff" stroke="#707070" stroke-width="1"/>
    </clipPath>
  </defs>
  <g id="question" transform="translate(-0.254)" clip-path="url(#clip-path)">
    <g id="live_help_black_24dp" transform="translate(-0.101)">
      <path id="Path_10253" data-name="Path 10253" d="M0,0H66.707V66.707H0Z" fill="none"/>
      <path id="Path_10254" data-name="Path 10254" d="M50.472,4H11.559A5.559,5.559,0,0,0,6,9.559V48.472a5.559,5.559,0,0,0,5.559,5.559H22.677l8.338,8.338,8.338-8.338H50.472a5.576,5.576,0,0,0,5.559-5.559V9.559A5.576,5.576,0,0,0,50.472,4Zm0,44.472H37.047l-1.64,1.64L31.015,54.5,26.6,50.084l-1.612-1.612H11.559V9.559H50.472ZM28.236,40.133h5.559v5.559H28.236ZM31.015,17.9a5.576,5.576,0,0,1,5.559,5.559c0,5.559-8.338,4.864-8.338,13.9h5.559c0-6.254,8.338-6.949,8.338-13.9a11.118,11.118,0,0,0-22.236,0h5.559A5.576,5.576,0,0,1,31.015,17.9Z" transform="translate(2.338 1.559)" fill="#1baf5d"/>
    </g>
  </g>
</svg>
