<svg xmlns="http://www.w3.org/2000/svg" width="18" height="15.189" viewBox="0 0 18 15.189">
  <path id="Reassign_History" data-name="Reassign History" d="M4.908-14.5a.421.421,0,0,0-.3-.124.421.421,0,0,0-.3.124L2.072-12.276l-.8-.778a.421.421,0,0,0-.3-.124.421.421,0,0,0-.3.124L.124-12.5A.421.421,0,0,0,0-12.2a.421.421,0,0,0,.124.3L1.8-10.237a.448.448,0,0,0,.309.124.448.448,0,0,0,.31-.124l.548-.549L5.5-13.324a.424.424,0,0,0,.124-.3.424.424,0,0,0-.121-.3Zm0,5.6a.421.421,0,0,0-.3-.124.421.421,0,0,0-.3.124L2.072-6.665l-.8-.777a.421.421,0,0,0-.3-.124.421.421,0,0,0-.3.124l-.552.552a.421.421,0,0,0-.124.3.421.421,0,0,0,.124.3l1.669,1.67A.447.447,0,0,0,2.1-4.5a.448.448,0,0,0,.309-.124l.552-.552L5.5-7.714a.421.421,0,0,0,.124-.3.421.421,0,0,0-.121-.3ZM2.25-2.812A1.706,1.706,0,0,0,.542-1.125,1.706,1.706,0,0,0,2.25.562,1.688,1.688,0,0,0,3.937-1.125,1.688,1.688,0,0,0,2.25-2.812Zm15.187.562H7.312a.563.563,0,0,0-.562.562V-.562A.563.563,0,0,0,7.312,0H17.437A.563.563,0,0,0,18-.562V-1.687A.563.563,0,0,0,17.437-2.25Zm0-11.25H7.312a.563.563,0,0,0-.562.562v1.125a.563.563,0,0,0,.562.562H17.437A.563.563,0,0,0,18-11.812v-1.125A.563.563,0,0,0,17.437-13.5Zm0,5.625H7.312a.563.563,0,0,0-.562.562v1.125a.563.563,0,0,0,.562.562H17.437A.563.563,0,0,0,18-6.187V-7.312A.563.563,0,0,0,17.437-7.875Z" transform="translate(0 14.626)"  fill="#666666" opacity="0.776"/>
</svg>
