<svg xmlns="http://www.w3.org/2000/svg" xmlns:xlink="http://www.w3.org/1999/xlink" width="67" height="67" viewBox="0 0 67 67">
  <defs>
    <clipPath id="clip-path">
      <rect id="Rectangle_5564" data-name="Rectangle 5564" width="67" height="67" transform="translate(-0.24)" fill="#fff" stroke="#707070" stroke-width="1"/>
    </clipPath>
  </defs>
  <g id="request-service" transform="translate(0.24)" clip-path="url(#clip-path)">
    <g id="add_task_black_24dp" transform="translate(-0.24)">
      <rect id="Rectangle_5568" data-name="Rectangle 5568" width="67" height="67" fill="none"/>
      <path id="Path_10262" data-name="Path 10262" d="M59.585,12.839,27.871,44.58,16.086,32.8l3.919-3.919,7.866,7.866L55.666,8.947ZM31.79,54.031a22.236,22.236,0,1,1,11.9-41L47.717,9A27.795,27.795,0,1,0,31.79,59.59,27.517,27.517,0,0,0,45.076,56.2l-4.169-4.169A21.758,21.758,0,0,1,31.79,54.031Zm19.456-13.9H42.908v5.559h8.338v8.338h5.559V45.692h8.338V40.133H56.806V31.795H51.247Z" transform="translate(1.899 1.559)" fill="#1baf5d"/>
    </g>
  </g>
</svg>
