<svg xmlns="http://www.w3.org/2000/svg" xmlns:xlink="http://www.w3.org/1999/xlink" width="67" height="67" viewBox="0 0 67 67">
  <defs>
    <clipPath id="clip-path">
      <rect id="Rectangle_5564" data-name="Rectangle 5564" width="67" height="67" transform="translate(0.014)" fill="#fff" stroke="#707070" stroke-width="1"/>
    </clipPath>
  </defs>
  <g id="suggest" transform="translate(-0.014)" clip-path="url(#clip-path)">
    <g id="reviews_black_24dp" transform="translate(-0.005)">
      <g id="Group_11552" data-name="Group 11552">
        <path id="Path_10255" data-name="Path 10255" d="M0,0H66.707V66.707H0Z" fill="none"/>
      </g>
      <g id="Group_11553" data-name="Group 11553" transform="translate(5.56 5.559)">
        <path id="Path_10256" data-name="Path 10256" d="M54.031,4H9.559A5.576,5.576,0,0,0,4,9.559V59.59L15.118,48.472H54.031a5.576,5.576,0,0,0,5.559-5.559V9.559A5.576,5.576,0,0,0,54.031,4Zm0,38.913H12.811L9.559,46.165V9.559H54.031Z" transform="translate(-4 -4)" fill="#1baf5d"/>
        <path id="Path_10257" data-name="Path 10257" d="M27.9,37.795l4.364-9.534L41.795,23.9l-9.534-4.364L27.9,10l-4.364,9.534L14,23.9l9.534,4.364Z" transform="translate(-0.103 -1.662)" fill="#1baf5d"/>
      </g>
    </g>
  </g>
</svg>
