<svg xmlns="http://www.w3.org/2000/svg" width="27" height="27.25" viewBox="0 0 27 27.25">
  <g id="Disable_Cancel_VIC_Details_and_Cancelation_Details" data-name="Disable Cancel VIC Details and Cancelation Details" transform="translate(-373 -1174.75)">
    <path id="Path_1876" data-name="Path 1876" d="M9.625-13.406V-19.25H1.031A1.029,1.029,0,0,0,0-18.219V1.719A1.029,1.029,0,0,0,1.031,2.75H15.469A1.029,1.029,0,0,0,16.5,1.719V-12.375H10.656A1.034,1.034,0,0,1,9.625-13.406Zm2.75,10.141a.517.517,0,0,1-.516.516H4.641a.517.517,0,0,1-.516-.516v-.344a.517.517,0,0,1,.516-.516h7.219a.517.517,0,0,1,.516.516Zm0-2.75a.517.517,0,0,1-.516.516H4.641a.517.517,0,0,1-.516-.516v-.344a.517.517,0,0,1,.516-.516h7.219a.517.517,0,0,1,.516.516Zm0-3.094v.344a.517.517,0,0,1-.516.516H4.641a.517.517,0,0,1-.516-.516v-.344a.517.517,0,0,1,.516-.516h7.219A.517.517,0,0,1,12.375-9.109Zm4.125-4.9a1.028,1.028,0,0,0-.3-.726l-4.207-4.211a1.03,1.03,0,0,0-.73-.3H11v5.5h5.5Z" transform="translate(373 1194)" fill="#ccc"/>
    <g id="Ellipse_448" data-name="Ellipse 448" transform="translate(382 1184)" fill="#ccc" stroke="#fff" stroke-width="1">
      <circle cx="9" cy="9" r="9" stroke="none"/>
      <circle cx="9" cy="9" r="8.5" fill="none"/>
    </g>
    <path id="Path_1877" data-name="Path 1877" d="M4.741-3.75,6.7-5.7a.614.614,0,0,0,0-.869l-.434-.434a.614.614,0,0,0-.869,0L3.438-5.053,1.483-7.008a.614.614,0,0,0-.869,0L.18-6.573a.614.614,0,0,0,0,.869L2.134-3.75.18-1.8a.614.614,0,0,0,0,.869l.434.434a.614.614,0,0,0,.869,0L3.438-2.447,5.392-.492a.614.614,0,0,0,.869,0L6.7-.927a.614.614,0,0,0,0-.869Z" transform="translate(387 1197)" fill="#fff"/>
  </g>
</svg>
