<svg xmlns="http://www.w3.org/2000/svg" width="29" height="27.25" viewBox="0 0 29 27.25">
  <g id="Terminate_VIC_Contributor" data-name="Terminate VIC Contributor" transform="translate(-371 -1174.75)">
    <path id="Path_1884" data-name="Path 1884" d="M9.625-8.25a5.5,5.5,0,0,0,5.5-5.5,5.5,5.5,0,0,0-5.5-5.5,5.5,5.5,0,0,0-5.5,5.5A5.5,5.5,0,0,0,9.625-8.25Zm3.85,1.375h-.718a7.488,7.488,0,0,1-3.132.688,7.5,7.5,0,0,1-3.132-.687H5.775A5.777,5.777,0,0,0,0-1.1V3.688A2.063,2.063,0,0,0,2.063,5.75H17.188A2.063,2.063,0,0,0,19.25,3.688V-1.1A5.777,5.777,0,0,0,13.475-6.875Z" transform="translate(371 1194)" fill="#fff"/>
    <g id="Ellipse_448" data-name="Ellipse 448" transform="translate(382 1184)" fill="#fff" stroke="#1baf5d" stroke-width="1">
      <circle cx="9" cy="9" r="9" stroke="none"/>
      <circle cx="9" cy="9" r="8.5" fill="none"/>
    </g>
    <path id="Path_1886" data-name="Path 1886" d="M5.234-.625H5.7a.234.234,0,0,0,.234-.234V-5.078A.234.234,0,0,0,5.7-5.312H5.234A.234.234,0,0,0,5-5.078V-.859A.234.234,0,0,0,5.234-.625Zm3.2-6.562H6.828L6.164-8.295a1.039,1.039,0,0,0-.8-.455H3.39a1.039,1.039,0,0,0-.8.455L1.922-7.187H.313A.313.313,0,0,0,0-6.875v.313a.313.313,0,0,0,.313.313H.625V.313a.938.938,0,0,0,.938.938H7.188A.938.938,0,0,0,8.125.313V-6.25h.313a.313.313,0,0,0,.313-.312v-.312A.313.313,0,0,0,8.438-7.187ZM3.356-7.756a.13.13,0,0,1,.1-.057H5.293a.13.13,0,0,1,.1.057l.341.568H3.015ZM7.188.313H1.563V-6.25H7.188ZM3.047-.625h.469A.234.234,0,0,0,3.75-.859V-5.078a.234.234,0,0,0-.234-.234H3.047a.234.234,0,0,0-.234.234V-.859A.234.234,0,0,0,3.047-.625Z" transform="translate(387 1197)" fill="#1baf5d"/>
  </g>
</svg>