<svg xmlns="http://www.w3.org/2000/svg" width="50" height="50" viewBox="0 0 50 50">
  <g id="Establishment" transform="translate(-110 -455)">
    <path id="Path_715" data-name="Path 715" d="M25,0A25,25,0,1,1,0,25,25,25,0,0,1,25,0Z" transform="translate(110 455)" fill="#e5e8f5"/>
    <g id="office" transform="translate(105.188 460.253)">
      <path id="Path_1282" data-name="Path 1282" d="M16.812,117H42.739v2.54H16.812Z" transform="translate(0 -83.591)" fill="#465a61"/>
      <path id="Path_1283" data-name="Path 1283" d="M47.019,43.286H26.312V16.464a1.1,1.1,0,0,1,1.1-1.1H45.92a1.1,1.1,0,0,1,1.1,1.1Z" transform="translate(-6.89 -9.877)" fill="#596c76"/>
      <path id="Path_1284" data-name="Path 1284" d="M34.75,1.747h8.036V5.488H34.75Z" transform="translate(-13.01 0)" fill="#76e2f8"/>
      <path id="Path_1285" data-name="Path 1285" d="M52.747,94.5H58.93v6.183H52.747Z" transform="translate(-26.063 -67.268)" fill="#fff5f5"/>
      <path id="Path_1286" data-name="Path 1286" d="M46.625,86.625h9.546v2.162H46.625Z" transform="translate(-21.623 -61.56)" fill="#ff9100"/>
      <g id="Group_1274" data-name="Group 1274" transform="translate(22.169 8.236)">
        <path id="Path_1287" data-name="Path 1287" d="M36.312,25.366h5.58v2.648h-5.58Z" transform="translate(-36.312 -25.366)" fill="#fff5f5"/>
        <path id="Path_1288" data-name="Path 1288" d="M36.312,46.171h5.58v2.648h-5.58Z" transform="translate(-36.312 -40.455)" fill="#fff5f5"/>
        <path id="Path_1289" data-name="Path 1289" d="M36.312,66.977h5.58v2.648h-5.58Z" transform="translate(-36.312 -55.546)" fill="#fff5f5"/>
        <path id="Path_1290" data-name="Path 1290" d="M71.375,25.366h5.58v2.648h-5.58Z" transform="translate(-61.743 -25.366)" fill="#fff5f5"/>
        <path id="Path_1291" data-name="Path 1291" d="M71.375,46.171h5.58v2.648h-5.58Z" transform="translate(-61.743 -40.455)" fill="#fff5f5"/>
        <path id="Path_1292" data-name="Path 1292" d="M71.375,66.977h5.58v2.648h-5.58Z" transform="translate(-61.743 -55.546)" fill="#fff5f5"/>
      </g>
    </g>
  </g>
</svg>
