<svg xmlns="http://www.w3.org/2000/svg" width="105.876" height="83.876" viewBox="0 0 105.876 83.876">
  <g id="Super_Admin" data-name="Super Admin" transform="translate(-967 -258)">
    <g id="Group_252" data-name="Group 252" transform="translate(969.845 272.229)">
      <rect id="Rectangle_890" data-name="Rectangle 890" width="53.356" height="10.119" rx="5.06" transform="translate(25.758 0)" fill="#f6f6f6"/>
      <rect id="Rectangle_899" data-name="Rectangle 899" width="43.13" height="10.119" rx="5.06" transform="translate(16.917 59.528)" fill="#f6f6f6"/>
      <rect id="Rectangle_900" data-name="Rectangle 900" width="10.498" height="10.119" rx="5.06" transform="translate(6.427 1.175)" fill="#f6f6f6"/>
      <rect id="Rectangle_891" data-name="Rectangle 891" width="100.272" height="10.119" rx="5.06" transform="translate(2.76 21.424)" fill="#f6f6f6"/>
      <rect id="Rectangle_895" data-name="Rectangle 895" width="100.272" height="10.119" rx="5.06" transform="translate(0 42.848)" fill="#f6f6f6"/>
      <path id="Subtraction_18" data-name="Subtraction 18" d="M17.7,11.305H.357c-.12,0-.24,0-.357-.011A5.659,5.659,0,0,0,5.295,5.653,5.66,5.66,0,0,0,0,.011C.138,0,.252,0,.357,0H17.571L17.7,0a5.685,5.685,0,0,0-5.52,5.651A5.685,5.685,0,0,0,17.7,11.3Z" transform="translate(52.211 10.119)" fill="#f6f6f6"/>
      <path id="Subtraction_20" data-name="Subtraction 20" d="M22.078,11.312H.113A5.688,5.688,0,0,0,5.656,5.656,5.662,5.662,0,0,0,0,0H22.078a5.64,5.64,0,0,1,1.695.259H22.18a5.484,5.484,0,1,0,0,10.968h.876A5.694,5.694,0,0,1,22.078,11.312Z" transform="translate(20.816 31.543)" fill="#f6f6f6"/>
    </g>
    <g id="Path_818" data-name="Path 818" transform="translate(1057.854 267.486)" fill="#fff">
      <path d="M 6.323412418365479 10.14682102203369 C 4.215172290802002 10.14682102203369 2.500002384185791 8.43165111541748 2.500002384185791 6.323411464691162 C 2.500002384185791 4.215171337127686 4.215172290802002 2.500001430511475 6.323412418365479 2.500001430511475 C 8.431652069091797 2.500001430511475 10.14682197570801 4.215171337127686 10.14682197570801 6.323411464691162 C 10.14682197570801 8.43165111541748 8.431652069091797 10.14682102203369 6.323412418365479 10.14682102203369 Z" stroke="none"/>
      <path d="M 6.323412418365479 5.000001430511475 C 5.593682289123535 5.000001430511475 5.000002384185791 5.593681335449219 5.000002384185791 6.323411464691162 C 5.000002384185791 7.053141593933105 5.593682289123535 7.64682149887085 6.323412418365479 7.64682149887085 C 7.053142547607422 7.64682149887085 7.646822452545166 7.053141593933105 7.646822452545166 6.323411464691162 C 7.646822452545166 5.593681335449219 7.053142547607422 5.000001430511475 6.323412418365479 5.000001430511475 M 6.323412418365479 1.9073486328125e-06 C 9.815732955932617 1.9073486328125e-06 12.64682197570801 2.83109188079834 12.64682197570801 6.323411464691162 C 12.64682197570801 9.815731048583984 9.815732955932617 12.64682102203369 6.323412418365479 12.64682102203369 C 2.831092834472656 12.64682102203369 2.86102294921875e-06 9.815731048583984 2.86102294921875e-06 6.323411464691162 C 2.86102294921875e-06 2.83109188079834 2.831092834472656 1.9073486328125e-06 6.323412418365479 1.9073486328125e-06 Z" stroke="none" fill="#ccc"/>
    </g>
    <g id="Path_819" data-name="Path 819" transform="translate(978.228 333.982) rotate(166)" fill="#fff">
      <path d="M 4.631370067596436 6.762739181518555 C 3.456130027770996 6.762739181518555 2.5 5.806609153747559 2.5 4.631369113922119 C 2.5 3.45612907409668 3.456130027770996 2.499999046325684 4.631370067596436 2.499999046325684 C 5.806610107421875 2.499999046325684 6.762740135192871 3.45612907409668 6.762740135192871 4.631369113922119 C 6.762740135192871 5.806609153747559 5.806610107421875 6.762739181518555 4.631370067596436 6.762739181518555 Z" stroke="none"/>
      <path d="M 4.631370067596436 -9.5367431640625e-07 C 7.189200401306152 -9.5367431640625e-07 9.262740135192871 2.073539257049561 9.262740135192871 4.631369113922119 C 9.262740135192871 7.189199447631836 7.189200401306152 9.262739181518555 4.631370067596436 9.262739181518555 C 2.073540210723877 9.262739181518555 0 7.189199447631836 0 4.631369113922119 C 0 2.073539257049561 2.073530197143555 -9.5367431640625e-07 4.631370067596436 -9.5367431640625e-07 Z" stroke="none" fill="#ccc"/>
    </g>
    <path id="Path_820" data-name="Path 820" d="M2.16,0A2.16,2.16,0,1,1,0,2.16,2.16,2.16,0,0,1,2.16,0Z" transform="translate(1039.618 262.192) rotate(166)" fill="#ccc"/>
    <path id="Path_821" data-name="Path 821" d="M2.16,0A2.16,2.16,0,1,1,0,2.16,2.16,2.16,0,0,1,2.16,0Z" transform="translate(1068.311 330.373) rotate(166)" fill="#ccc"/>
    <path id="Path_1269" data-name="Path 1269" d="M44.53-16.521a8.558,8.558,0,0,0,0-3.107l1.882-1.087a.528.528,0,0,0,.241-.62,10.945,10.945,0,0,0-2.422-4.187.532.532,0,0,0-.656-.1l-1.882,1.087A8.563,8.563,0,0,0,39-26.091v-2.174a.531.531,0,0,0-.416-.518,11.005,11.005,0,0,0-4.829,0,.531.531,0,0,0-.416.518v2.174a8.563,8.563,0,0,0-2.691,1.554l-1.882-1.087a.533.533,0,0,0-.656.1,10.946,10.946,0,0,0-2.422,4.187.537.537,0,0,0,.241.62l1.882,1.087a8.557,8.557,0,0,0,0,3.107L25.93-15.435a.528.528,0,0,0-.241.62,11,11,0,0,0,2.422,4.187.532.532,0,0,0,.656.1l1.882-1.087a8.563,8.563,0,0,0,2.691,1.554v2.174a.531.531,0,0,0,.416.518,11.005,11.005,0,0,0,4.829,0A.531.531,0,0,0,39-7.885v-2.174a8.563,8.563,0,0,0,2.691-1.554l1.882,1.087a.533.533,0,0,0,.656-.1,10.945,10.945,0,0,0,2.422-4.187.537.537,0,0,0-.241-.62Zm-8.352,1.984a3.541,3.541,0,0,1-3.538-3.538,3.546,3.546,0,0,1,3.538-3.538,3.546,3.546,0,0,1,3.538,3.538A3.541,3.541,0,0,1,36.178-14.537Zm-19.84-10.54a9.336,9.336,0,0,0,9.336-9.336,9.336,9.336,0,0,0-9.336-9.336A9.336,9.336,0,0,0,7-34.414,9.336,9.336,0,0,0,16.339-25.077ZM31.014-8.556c-.168-.088-.336-.19-.5-.284l-.576.336a2.919,2.919,0,0,1-1.43.387A2.9,2.9,0,0,1,26.4-9.038a13.3,13.3,0,0,1-2.932-5.077,2.853,2.853,0,0,1,1.306-3.333l.576-.335q-.011-.284,0-.569l-.576-.336a2.849,2.849,0,0,1-1.306-3.333c.066-.212.16-.423.233-.635-.277-.022-.547-.088-.832-.088H21.656a12.711,12.711,0,0,1-5.317,1.167,12.736,12.736,0,0,1-5.317-1.167H9.8A9.806,9.806,0,0,0,0-12.94v3.034A3.5,3.5,0,0,0,3.5-6.4H29.176a3.5,3.5,0,0,0,1.984-.62,2.84,2.84,0,0,1-.146-.861Z" transform="translate(1001.199 330.918)" fill="#999"/>
  </g>
</svg>
