<svg xmlns="http://www.w3.org/2000/svg" width="16.933" height="14.657" viewBox="0 0 16.933 14.657">
  <g id="Group_1517" data-name="Group 1517" transform="translate(-3805.284 1525)">
    <path id="Union_1" data-name="Union 1" d="M763.9-1836.412a4.068,4.068,0,0,1,4.07-4.069,4.068,4.068,0,0,1,4.069,4.069,4.069,4.069,0,0,1-4.069,4.07A4.069,4.069,0,0,1,763.9-1836.412Zm3.544-2.363v2.552a.656.656,0,0,0,.247.512l1.1.816a.263.263,0,0,0,.369-.041l.328-.41a.262.262,0,0,0-.041-.369l-.951-.7v-2.363a.263.263,0,0,0-.263-.263h-.525A.263.263,0,0,0,767.443-1838.775Zm5.72,4.208a5.472,5.472,0,0,0,.35-1.934,5.506,5.506,0,0,0-5.5-5.5,5.511,5.511,0,0,0-1.391.177v-3.4A1.778,1.778,0,0,1,768.4-1847h10.214a1.334,1.334,0,0,1,1.332,1.332.445.445,0,0,1-.445.444H768.842a.445.445,0,0,0-.445.445.444.444,0,0,0,.445.444h10.58a1.374,1.374,0,0,1,1.41,1.332v7.105a1.374,1.374,0,0,1-1.41,1.332Zm4.116-4.884a.89.89,0,0,0,.888.888.89.89,0,0,0,.888-.888.89.89,0,0,0-.888-.888A.89.89,0,0,0,777.279-1839.451Z" transform="translate(3041.385 322)" fill="#ccc"/>
  </g>
</svg>
