<svg xmlns="http://www.w3.org/2000/svg" width="14.251" height="17.813" viewBox="0 0 14.251 17.813"><defs><style>.a{fill:#af0000;}</style></defs><path class="a" d="M-4397.875,487.813a.715.715,0,0,1-.394-.093A13.274,13.274,0,0,1-4405,476.188v-2.27a.793.793,0,0,1,.732-.787,8.724,8.724,0,0,0,5.456-2.513l.376-.394a.8.8,0,0,1,.562-.225.8.8,0,0,1,.563.225l.375.394a8.733,8.733,0,0,0,5.457,2.513.793.793,0,0,1,.732.787v2.27a13.275,13.275,0,0,1-6.731,11.532A1.018,1.018,0,0,1-4397.875,487.813Zm-2.068-12.281a.524.524,0,0,0-.375.155l-.376.376a.528.528,0,0,0-.156.376.528.528,0,0,0,.156.376l1.689,1.689-1.689,1.69a.528.528,0,0,0-.156.374.53.53,0,0,0,.156.376l.376.376a.526.526,0,0,0,.375.155.53.53,0,0,0,.376-.155l1.69-1.69,1.689,1.69a.528.528,0,0,0,.376.155.524.524,0,0,0,.375-.155l.375-.376a.53.53,0,0,0,.156-.376.528.528,0,0,0-.156-.374l-1.689-1.69,1.689-1.689a.528.528,0,0,0,.156-.376.528.528,0,0,0-.156-.376l-.375-.376a.527.527,0,0,0-.375-.155.529.529,0,0,0-.376.155l-1.689,1.69-1.69-1.69A.529.529,0,0,0-4399.944,475.531Z" transform="translate(4405 -470)"/></svg>