<svg xmlns="http://www.w3.org/2000/svg" width="50" height="50" viewBox="0 0 50 50">
	<g id="Relationship_Manager_Icon" data-name="Relationship Manager Icon" transform="translate(-75 -559)">
		<path id="Path_1300" data-name="Path 1300" d="M25,0A25,25,0,1,1,0,25,25,25,0,0,1,25,0Z" transform="translate(75 559)" fill="#fff" />
		<path id="Path_1300_-_Outline" data-name="Path 1300 - Outline" d="M25,2a23.007,23.007,0,0,0-8.952,44.193,23.006,23.006,0,0,0,17.9-42.387A22.854,22.854,0,0,0,25,2m0-2A25,25,0,1,1,0,25,25,25,0,0,1,25,0Z" transform="translate(75 559)" fill="#1baf5d" />
		<path id="Path_1299" data-name="Path 1299" d="M19.938-18.125a7.249,7.249,0,0,1-7.25,7.25,7.249,7.249,0,0,1-7.25-7.25,7.25,7.25,0,0,1,7.25-7.25A7.25,7.25,0,0,1,19.938-18.125ZM11.844-5.03,9.969-8.156h5.438L13.531-5.03l1.886,7.018,2.237-9.13a9.139,9.139,0,0,1,7.72,9.029,1.743,1.743,0,0,1-1.739,1.739H1.74A1.741,1.741,0,0,1,0,1.886,9.139,9.139,0,0,1,7.72-7.142l2.237,9.13Z" transform="translate(88 594)" fill="#1baf5d" />
	</g>
</svg>
