<svg xmlns="http://www.w3.org/2000/svg" width="11.001" height="15.5" viewBox="0 0 11.001 15.5">
  <g id="Violations_small_icon" data-name="Violations small icon" transform="translate(15974.775 3491)">
    <path id="Subtraction_1" data-name="Subtraction 1" d="M3.591,10.321a.394.394,0,0,1-.218-.065L1.945,9.325l-1.33.926a.4.4,0,0,1-.4.03A.367.367,0,0,1,0,9.95V.371A.38.38,0,0,1,.387,0H8.2a.4.4,0,0,1,.243.082l2.415,1.859A.364.364,0,0,1,11,2.23V9.951a.369.369,0,0,1-.187.317.4.4,0,0,1-.2.054.4.4,0,0,1-.179-.042L8.472,9.3l-1.583.965a.4.4,0,0,1-.437-.014l-1.273-.9-1.368.9A.4.4,0,0,1,3.591,10.321ZM2.607,6.233a.387.387,0,1,0,0,.774H8.57a.387.387,0,1,0,0-.774ZM4.516,4.346a.387.387,0,1,0,0,.774H8.571a.387.387,0,0,0,0-.774ZM7.97.4a.387.387,0,0,0-.387.387V2.846a.387.387,0,0,0,.387.387h2.287a.387.387,0,1,0,0-.774h-1.9V.788A.388.388,0,0,0,7.97.4Z" transform="translate(-15974.775 -3491)" fill="#1baf5d"/>
    <path id="Subtraction_2" data-name="Subtraction 2" d="M10.613,5.265H.387A.387.387,0,0,1,0,4.878V1.532a.388.388,0,0,1,.162-.316l1.55-1.1a.387.387,0,0,1,.443,0l1.44.98L4.976.2A.386.386,0,0,1,5.409.2l1.277.9L8.237.066A.383.383,0,0,1,8.452,0a.388.388,0,0,1,.184.047L10.8,1.212a.387.387,0,0,1,.2.341V4.878A.387.387,0,0,1,10.613,5.265ZM2.607,2.981a.387.387,0,1,0,0,.774H8.57a.387.387,0,1,0,0-.774Z" transform="translate(-15974.774 -3480.765)" fill="#1baf5d"/>
  </g>
</svg>
