<svg xmlns="http://www.w3.org/2000/svg" width="20.652" height="29.723" viewBox="0 0 20.652 29.723"><defs><style>.a{fill:#ffa200;}</style></defs><g transform="translate(0 0)"><path class="a" d="M95.46,54.417,91.1,53.674v-1.92a7.34,7.34,0,0,0,3.359-4.294,1.653,1.653,0,0,0,.917-.266,1.7,1.7,0,0,0,.409-2.6,1.729,1.729,0,0,0-.794-.509v-.039c0-.236.006-.524,0-.775v-1.02a5.849,5.849,0,0,0-2.953-5.3,8.024,8.024,0,0,0-7.695.013,4.82,4.82,0,0,0-2.562,4.29c0,.257,0,.521.006.779,0,.436.008.847,0,1.173,0,.006,0,.012,0,.018,0,.4-.006.672-.01.851A1.729,1.729,0,0,0,80.532,45.8a1.752,1.752,0,0,0,.8,1.363,1.608,1.608,0,0,0,.933.3,7.322,7.322,0,0,0,3.291,4.328v1.762l-1.009.189a.5.5,0,0,0-.088.008l-2.178.409a.5.5,0,0,0-.075.022l-1.077.2A3.838,3.838,0,0,0,78,58.152v7.041a.5.5,0,0,0,.5.5H98.149a.5.5,0,0,0,.5-.5V58.2a3.827,3.827,0,0,0-3.193-3.782ZM84.849,37.834a7.07,7.07,0,0,1,6.686-.011,4.8,4.8,0,0,1,2.448,4.424v.775A5.79,5.79,0,0,1,89.3,44.151a4.6,4.6,0,0,1-3.143-2.359.5.5,0,0,0-.8-.125,3.928,3.928,0,0,1-2.549,1.07c0-.224,0-.467-.006-.717s-.005-.519-.006-.773A3.829,3.829,0,0,1,84.849,37.834Zm-1.71,8.953a.5.5,0,0,0-.654-.376.589.589,0,0,1-.589-.086.756.756,0,0,1-.357-.564.719.719,0,0,1,.719-.746c.507,0,.519-.468.529-.881,0-.108,0-.238.007-.386a5.139,5.139,0,0,0,2.786-.951,5.656,5.656,0,0,0,3.5,2.34,6.181,6.181,0,0,0,1.328.144,6.876,6.876,0,0,0,3.569-1.044c0,.426.014.492.15.63a.5.5,0,0,0,.359.15.72.72,0,0,1,.714.813.739.739,0,0,1-.361.512.618.618,0,0,1-.59.069.5.5,0,0,0-.66.368,6.319,6.319,0,0,1-4.209,4.652l-.217.07a2.932,2.932,0,0,1-1.787.022,6.308,6.308,0,0,1-4.238-4.733Zm3.929,5.692a3.75,3.75,0,0,0,1.151.18,4.068,4.068,0,0,0,1.254-.2l.217-.07c.135-.044.267-.092.4-.143v1.712a3.006,3.006,0,0,1-3.526.014V52.293C86.729,52.36,86.9,52.423,87.068,52.478ZM89.41,64.685l1.82-3.5a2.262,2.262,0,0,1-1.82,3.5Zm-1.137,0H86.889l2.356-4.533h.088a2.249,2.249,0,0,1,1.135.308Zm-4.228-4.533h1.511v4.533H84.045Zm4.065,0-1.547,2.976V60.155Zm-2.05-1.007H84.018l-1.023-4.092,1.348-.253L87.6,59.148Zm-7.052-1a2.831,2.831,0,0,1,2.308-2.781L82,55.242l1.063,4.25a.494.494,0,0,0-.028.159v1.007H82.03V58.207a.5.5,0,0,0-1.007,0v2.956a.5.5,0,0,0,.5.5h1.511v3.022h-4.03Zm18.637,6.537H95.126V59.148a.5.5,0,0,0-1.007,0v5.541H91.693a3.272,3.272,0,0,0-2.359-5.541h-.473L85.447,54.6l.22-.041.205.158a4.017,4.017,0,0,0,4.9-.011l.064-.05,4.451.758A2.822,2.822,0,0,1,97.645,58.2Z" transform="translate(-78 -35.974)"/></g></svg>