<svg xmlns="http://www.w3.org/2000/svg" width="17.458" height="25.125" viewBox="0 0 17.458 25.125"><defs><style>.a{fill:#21d3df;}</style></defs><path class="a" d="M92.759,51.564l-3.688-.628V49.313a6.2,6.2,0,0,0,2.839-3.63,1.4,1.4,0,0,0,.775-.225,1.437,1.437,0,0,0,.345-2.2,1.461,1.461,0,0,0-.671-.43v-.033c0-.2,0-.443,0-.655v-.862a4.944,4.944,0,0,0-2.5-4.478,6.783,6.783,0,0,0-6.5.011A4.074,4.074,0,0,0,81.2,40.436c0,.217,0,.44.005.659,0,.368.007.716,0,.991,0,.005,0,.01,0,.015,0,.341,0,.568-.008.719a1.462,1.462,0,0,0-1.055,1.456,1.481,1.481,0,0,0,.677,1.153,1.359,1.359,0,0,0,.788.255,6.189,6.189,0,0,0,2.781,3.658v1.49l-.853.16A.42.42,0,0,0,83.46,51l-1.841.346a.42.42,0,0,0-.064.019l-.91.171A3.245,3.245,0,0,0,78,54.721v5.952a.426.426,0,0,0,.426.426H95.032a.426.426,0,0,0,.426-.426V54.761a3.235,3.235,0,0,0-2.7-3.2ZM83.79,37.546a5.977,5.977,0,0,1,5.652-.01,4.06,4.06,0,0,1,2.069,3.74v.655a4.894,4.894,0,0,1-3.961.955,3.892,3.892,0,0,1-2.657-1.994.426.426,0,0,0-.68-.105,3.32,3.32,0,0,1-2.154.9c0-.19,0-.395,0-.606s0-.439-.005-.654A3.237,3.237,0,0,1,83.79,37.546Zm-1.446,7.568a.426.426,0,0,0-.553-.318.5.5,0,0,1-.5-.073.639.639,0,0,1-.3-.477.608.608,0,0,1,.608-.63c.429,0,.438-.4.447-.745,0-.091,0-.2.006-.326a4.344,4.344,0,0,0,2.355-.8,4.781,4.781,0,0,0,2.961,1.978,5.225,5.225,0,0,0,1.122.122,5.812,5.812,0,0,0,3.017-.883c0,.36.012.416.127.532a.427.427,0,0,0,.3.127.608.608,0,0,1,.6.687.624.624,0,0,1-.305.432.523.523,0,0,1-.5.058.426.426,0,0,0-.558.311,5.342,5.342,0,0,1-3.558,3.932l-.184.06a2.479,2.479,0,0,1-1.51.019,5.332,5.332,0,0,1-3.582-4Zm3.322,4.811a3.17,3.17,0,0,0,.973.152,3.439,3.439,0,0,0,1.06-.171l.184-.06c.114-.037.226-.078.336-.121v1.447a2.541,2.541,0,0,1-2.981.012V49.768C85.378,49.825,85.52,49.878,85.665,49.925Zm1.979,10.318,1.538-2.96a1.912,1.912,0,0,1-1.538,2.96Zm-.961,0H85.514l1.992-3.832h.075a1.9,1.9,0,0,1,.959.26ZM83.11,56.414h1.277v3.832H83.11Zm3.436,0L85.238,58.93V56.414Zm-1.733-.852H83.087L82.222,52.1l1.14-.214,2.754,3.673Zm-5.961-.842A2.393,2.393,0,0,1,80.8,52.37l.581-.109.9,3.593a.417.417,0,0,0-.024.134v.852h-.852V54.768a.426.426,0,0,0-.852,0v2.5a.426.426,0,0,0,.426.426h1.277v2.555H78.852Zm15.754,5.526H92.477V55.563a.426.426,0,1,0-.852,0v4.684H89.575a2.766,2.766,0,0,0-1.994-4.684h-.4l-2.886-3.848.186-.035.173.133A3.4,3.4,0,0,0,88.8,51.8l.054-.042,3.763.641a2.386,2.386,0,0,1,1.99,2.358Z" transform="translate(-78 -35.974)"/></svg>