<svg xmlns="http://www.w3.org/2000/svg" width="22.527" height="19.54" viewBox="0 0 22.527 19.54">
  <g id="Disease_Icon" data-name="Disease Icon" transform="translate(0 0.091)">
    <path id="Subtraction_1" data-name="Subtraction 1" d="M14.028,18.469H1.687A1.689,1.689,0,0,1,0,16.781V15.319a4.73,4.73,0,0,1,4.725-4.725h.587a6.121,6.121,0,0,0,5.126,0h.657a3.978,3.978,0,0,0,.325,5.25l2.606,2.623Zm-6.153-9a4.5,4.5,0,1,1,4.5-4.5A4.505,4.505,0,0,1,7.875,9.469Z" transform="translate(0 -0.56)" fill="#1baf5d"/>
    <g id="Group_864" data-name="Group 864" transform="translate(11.286 9.064)">
      <path id="Path_1269" data-name="Path 1269" d="M20.64,8.893a3.407,3.407,0,0,0-4.625-.17,3.407,3.407,0,0,0-4.625.17,3.366,3.366,0,0,0-.936,3.008h2.128l1.39-1.958a.278.278,0,0,1,.482.057l.965,2.412.567,1.419.6-1.39.028-.057a.273.273,0,0,1,.255-.17h.709a.549.549,0,0,1,.482-.284.567.567,0,1,1,0,1.135.6.6,0,0,1-.511-.284h-.454l-.823,1.9a.273.273,0,0,1-.255.17h0a.287.287,0,0,1-.255-.17l-.908-2.27-.681-1.674-1.163,1.646-.028.028a.258.258,0,0,1-.227.113H10.624a3.462,3.462,0,0,0,.794,1.248l4.4,4.426a.274.274,0,0,0,.4,0l4.4-4.426A3.451,3.451,0,0,0,20.64,8.893Z" transform="translate(-10.396 -7.9)" fill="#1baf5d"/>
    </g>
  </g>
</svg>
