<svg xmlns="http://www.w3.org/2000/svg" width="25.715" height="22.84" viewBox="0 0 25.715 22.84"><defs><style>.a{fill:#bc00ff;}</style></defs><g transform="translate(0 0.56)"><path class="a" d="M16.924,21.441H2.063A2.065,2.065,0,0,1,0,19.378V17.59a5.782,5.782,0,0,1,5.775-5.775h.717a7.476,7.476,0,0,0,5.848.177,4.563,4.563,0,0,0,.7,5.537l3.886,3.911Zm-7.3-11a5.5,5.5,0,1,1,5.5-5.5A5.506,5.506,0,0,1,9.625,10.44Z" transform="translate(0 0)"/><g transform="translate(12.883 10.426)"><path class="a" d="M22.09,9.034a3.89,3.89,0,0,0-5.28-.194,3.89,3.89,0,0,0-5.28.194,3.843,3.843,0,0,0-1.069,3.433h2.429l1.587-2.235a.317.317,0,0,1,.551.065l1.1,2.753.648,1.62.68-1.587.032-.065a.311.311,0,0,1,.292-.194h.81a.627.627,0,0,1,.551-.324.648.648,0,1,1,0,1.3.68.68,0,0,1-.583-.324h-.518l-.939,2.17a.311.311,0,0,1-.292.194h0a.328.328,0,0,1-.292-.194L15.483,13.05l-.777-1.911-1.328,1.879-.032.032a.3.3,0,0,1-.259.13H10.656a3.952,3.952,0,0,0,.907,1.425l5.021,5.053a.313.313,0,0,0,.453,0L22.058,14.6A3.939,3.939,0,0,0,22.09,9.034Z" transform="translate(-10.396 -7.9)"/></g></g></svg>