<svg xmlns="http://www.w3.org/2000/svg" width="178.581" height="141.473" viewBox="0 0 178.581 141.473"><defs><style>.a{fill:#f6f6f6;}.b{fill:#fff;}.c,.f{fill:#ccc;}.d{fill:#999;}.e,.f{stroke:none;}</style></defs><g transform="translate(-770 -362)"><g transform="translate(-197 104)"><g transform="translate(971.798 283.982)"><rect class="a" width="89.995" height="17.068" rx="8.534" transform="translate(43.446 -1.982)"/><rect class="a" width="72.746" height="17.068" rx="8.534" transform="translate(28.534 98.423)"/><rect class="a" width="17.707" height="17.068" rx="8.534" transform="translate(10.841)"/><rect class="a" width="169.128" height="17.068" rx="8.534" transform="translate(4.655 34.154)"/><rect class="a" width="169.128" height="17.068" rx="8.534" transform="translate(0 70.29)"/><path class="a" d="M33.136,19.068H4.1c-.2,0-.4-.006-.6-.019A9.534,9.534,0,0,0,3.5.019C3.71.006,3.913,0,4.1,0H33.136l.224,0a9.587,9.587,0,0,0-9.309,9.531,9.588,9.588,0,0,0,9.309,9.532l-.029,0h-.194Z" transform="translate(84.564 15.086)"/><path class="a" d="M33.634,19.227H-4.386l-.228,0H-3.6A9.55,9.55,0,0,0,5.935,9.685,9.55,9.55,0,0,0-3.6.146H33.634A9.511,9.511,0,0,1,36.49.582H33.8a9.25,9.25,0,1,0,0,18.5H35.29A9.594,9.594,0,0,1,33.634,19.227Z" transform="translate(38.715 51.076)"/></g><g class="b" transform="translate(1120.244 274)"><path class="e" d="M 10.66568088531494 18.83135986328125 C 6.163110733032227 18.83135986328125 2.500000953674316 15.16824913024902 2.500000953674316 10.66567897796631 C 2.500000953674316 6.163108825683594 6.163110733032227 2.499999046325684 10.66568088531494 2.499999046325684 C 15.16825103759766 2.499999046325684 18.83136177062988 6.163108825683594 18.83136177062988 10.66567897796631 C 18.83136177062988 15.16824913024902 15.16825103759766 18.83135986328125 10.66568088531494 18.83135986328125 Z"/><path class="f" d="M 10.66568088531494 4.999998092651367 C 7.541610717773438 4.999998092651367 5 7.541608810424805 5 10.66567897796631 C 5 13.78974914550781 7.541610717773438 16.33135986328125 10.66568088531494 16.33135986328125 C 13.78975105285645 16.33135986328125 16.33135986328125 13.78974914550781 16.33135986328125 10.66567897796631 C 16.33135986328125 7.541608810424805 13.78975105285645 4.999998092651367 10.66568088531494 4.999998092651367 M 10.66568088531494 -1.9073486328125e-06 C 16.55617141723633 -1.9073486328125e-06 21.33136177062988 4.775188446044922 21.33136177062988 10.66567897796631 C 21.33136177062988 16.5561695098877 16.55617141723633 21.33135986328125 10.66568088531494 21.33135986328125 C 4.775190353393555 21.33135986328125 0 16.5561695098877 0 10.66567897796631 C 0 4.775188446044922 4.775190353393555 -1.9073486328125e-06 10.66568088531494 -1.9073486328125e-06 Z"/></g><g class="b" transform="translate(985.939 386.159) rotate(166)"><path class="e" d="M 7.811717987060547 13.12343692779541 C 4.882827758789063 13.12343692779541 2.499998092651367 10.7406063079834 2.499998092651367 7.811716556549072 C 2.499998092651367 4.882826328277588 4.882827758789063 2.499996662139893 7.811717987060547 2.499996662139893 C 10.74060821533203 2.499996662139893 13.12343788146973 4.882826328277588 13.12343788146973 7.811716556549072 C 13.12343788146973 10.7406063079834 10.74060821533203 13.12343692779541 7.811717987060547 13.12343692779541 Z"/><path class="f" d="M 7.811717987060547 4.999996185302734 C 6.261327743530273 4.999996185302734 4.999998092651367 6.261326789855957 4.999998092651367 7.811716556549072 C 4.999998092651367 9.362106323242188 6.261327743530273 10.62343597412109 7.811717987060547 10.62343597412109 C 9.36210823059082 10.62343597412109 10.62343788146973 9.362106323242188 10.62343788146973 7.811716556549072 C 10.62343788146973 6.261326789855957 9.36210823059082 4.999996185302734 7.811717987060547 4.999996185302734 M 7.811717987060547 -3.814697265625e-06 C 12.12600803375244 -3.814697265625e-06 15.62343788146973 3.497426986694336 15.62343788146973 7.811716556549072 C 15.62343788146973 12.12600708007813 12.12600803375244 15.62343692779541 7.811717987060547 15.62343692779541 C 3.497427940368652 15.62343692779541 -1.9073486328125e-06 12.12600708007813 -1.9073486328125e-06 7.811716556549072 C -1.9073486328125e-06 3.497426986694336 3.497427940368652 -3.814697265625e-06 7.811717987060547 -3.814697265625e-06 Z"/></g><path class="c" d="M3.644,0A3.644,3.644,0,1,1,0,3.644,3.644,3.644,0,0,1,3.644,0Z" transform="translate(1089.485 265.071) rotate(166)"/><path class="c" d="M3.644,0A3.644,3.644,0,1,1,0,3.644,3.644,3.644,0,0,1,3.644,0Z" transform="translate(1137.881 380.071) rotate(166)"/></g><path class="d" d="M0-5.338V0C0,4.412,10.75,8,24,8S48,4.412,48,0V-5.338C42.838-1.7,33.4,0,24,0S5.162-1.7,0-5.338ZM40-40c13.25,0,24-3.588,24-8s-10.75-8-24-8-24,3.588-24,8S26.75-40,40-40ZM0-18.45V-12C0-7.588,10.75-4,24-4s24-3.588,24-8v-6.45C42.838-14.2,33.387-12,24-12S5.162-14.2,0-18.45Zm52,1.375C59.162-18.463,64-21.037,64-24v-5.338c-2.9,2.05-7.162,3.45-12,4.313ZM24-36C10.75-36,0-31.525,0-26S10.75-16,24-16s24-4.475,24-10S37.25-36,24-36Zm27.412,7.037C58.912-30.312,64-32.963,64-36v-5.338c-4.437,3.138-12.062,4.825-20.088,5.225C47.6-34.325,50.313-31.925,51.412-28.963Z" transform="translate(829.166 478.618)"/></g></svg>