<svg xmlns="http://www.w3.org/2000/svg" width="20.407" height="18.705" viewBox="0 0 20.407 18.705">
  <g id="Appeal" transform="translate(-2.5 -6.45)">
    <path id="Path_750" data-name="Path 750" d="M15.736,74.74H14.382v-.516a.917.917,0,0,0-.924-.924H5.723a.917.917,0,0,0-.924.924v.516H3.424a.917.917,0,0,0-.924.924v1.59a.385.385,0,0,0,.387.387H16.295a.385.385,0,0,0,.387-.387v-1.59A.949.949,0,0,0,15.736,74.74Z" transform="translate(0 -52.486)" fill="#00b353" fill-rule="evenodd"/>
    <path id="Path_751" data-name="Path 751" d="M48.764,30.738l-6.876-6.876.774-.8L39.095,19.5,35.7,22.895l3.588,3.588.8-.774,6.876,6.876a.727.727,0,0,0,1.053,0l.752-.752A.821.821,0,0,0,48.764,30.738Z" transform="translate(-26.066 -10.246)" fill="#00b353" fill-rule="evenodd"/>
    <path id="Path_752" data-name="Path 752" d="M26.929,42.191a.727.727,0,0,0,1.053,0l.688-.688a.727.727,0,0,0,0-1.053l-3.954-3.975a.727.727,0,0,0-1.053,0l-.688.688a.727.727,0,0,0,0,1.053Z" transform="translate(-15.899 -23.397)" fill="#00b353" fill-rule="evenodd"/>
    <path id="Path_753" data-name="Path 753" d="M56.651,12.413a.727.727,0,0,0,1.053,0l.688-.688a.727.727,0,0,0,0-1.053l-3.975-4a.727.727,0,0,0-1.053,0l-.688.688a.727.727,0,0,0,0,1.053Z" transform="translate(-39.217)" fill="#00b353" fill-rule="evenodd"/>
  </g>
</svg>
