<svg xmlns="http://www.w3.org/2000/svg" width="44.055" height="28.167" viewBox="0 0 44.055 28.167">
  <g id="married" transform="translate(-338.945 -435.589)">
    <path id="Subtraction_24" data-name="Subtraction 24" d="M6.5,16.741h0c-2.548,0-3.816-2.31-4.834-4.166l0-.008-.139-.253A9.3,9.3,0,0,1,.458,9.77C.378,9.469.3,9.157.141,8.723A2.035,2.035,0,0,1,.177,7.139a1.774,1.774,0,0,1,.4-.56h0A5.1,5.1,0,0,1,.35,5.571,4.414,4.414,0,0,1,.579,3.413,4.914,4.914,0,0,1,1.928,1.647,5.519,5.519,0,0,1,3.648.587C3.956.513,4.234.442,4.48.38A8.624,8.624,0,0,1,6.633,0a5.443,5.443,0,0,1,.994.1.523.523,0,0,1,.394.277c.124.185.265.394.986.454a4.376,4.376,0,0,1,2.142.69,3.294,3.294,0,0,1,1.116,1.333,7.136,7.136,0,0,1,.508,2.934,2,2,0,0,0,.083.791c.329.423.738.949,0,3.556a12.557,12.557,0,0,1-2.064,4.129,7.607,7.607,0,0,1-1.7,1.64,4.617,4.617,0,0,1-2.085.808A4.536,4.536,0,0,1,6.5,16.741ZM1.739,6.727a.324.324,0,0,0-.109.019c-.083.03-.159.142-.222.324A6.122,6.122,0,0,0,1.874,11.2c.143.224.3.5.483.81v0c.9,1.547,2.25,3.885,4.007,3.886H6.4c2.077-.034,4.753-2.035,5.637-5.324a12.056,12.056,0,0,0,.454-2.453,1.645,1.645,0,0,0-.19-1.026.431.431,0,0,0-.358-.176l-.045,0a1.245,1.245,0,0,0-.765.417c0-.025-.1-2.451-.682-2.451a.241.241,0,0,0-.083.016c-.06.022-.17.074-.322.146A13.343,13.343,0,0,1,6.606,6.224a11.726,11.726,0,0,1-1.878.139,15.471,15.471,0,0,1-2.088-.139V7.651C2.635,7.642,2.188,6.727,1.739,6.727Z" transform="translate(363.86 435.589)" fill="#1baf5d"/>
    <path id="Subtraction_25" data-name="Subtraction 25" d="M-.131,18.132l0,0c.092-.189,2.255-4.672,2.017-7.824a19.2,19.2,0,0,1,.336-4.341c.292-1.539.894-3.609,2.1-4.732A5.318,5.318,0,0,1,8.068,0a10.763,10.763,0,0,1,2.77.38c.024,0,.09-.007.191-.007a4.753,4.753,0,0,1,2.542.774,6.287,6.287,0,0,1,2.522,4.481c.008.045.026.166.043.293s.3,7.235.3,7.307l0,0c.168.418,1.642,4.092,1.642,4.379,0,.015-.009.023-.026.023a7.722,7.722,0,0,1-1.391-.893l-.439-.31a7.3,7.3,0,0,0-2.057-1.2.154.154,0,0,0-.054.008c-.481.18-1.325,1.63-1.334,1.644l-.606-1.644-.006.006a6.353,6.353,0,0,1-2.187,1.211,1.406,1.406,0,0,1-.354.04,11.333,11.333,0,0,1-3.664-1.258l-.682,2.374L4.018,15.238-.128,18.13ZM11.844,5.241a.579.579,0,0,0-.275.071c-.115.062-.275.162-.478.289A18.185,18.185,0,0,1,8.464,7.017c-.6.259-1.269.5-1.912.733a7.415,7.415,0,0,0-2.168.972,3.332,3.332,0,0,0-.044,1.9,6.9,6.9,0,0,0,1.2,2.908,7.551,7.551,0,0,0,3.471,2.131c.034-.005,3.418-.572,4.445-3.532a13.584,13.584,0,0,1,.69-1.82,2.092,2.092,0,0,1-.082.42l.305-.975L14.8,7.565l-.731-.975-.608.427C13.45,7,12.654,5.241,11.844,5.241Z" transform="translate(341.881 436.04)" fill="#1baf5d"/>
    <path id="Path_1187" data-name="Path 1187" d="M1014.069,1209l-.9,2.3-1.25-.833-2.9,4.011-3.182-4.011-.917.833-1.26-2.3s-4.628,2.253-4.932,2.8-1.766,6.455-1.766,6.455-.244.853,1.34,1.218,21.313,0,21.313,0,1.34-.3,1.34-1.218a59.759,59.759,0,0,0-1.827-6.455Z" transform="translate(-658 -755.88)" fill="#1baf5d"/>
    <path id="Path_1188" data-name="Path 1188" d="M861.916,1203.691c-.153-.612-2.972,6.966-2.972,6.966a15.07,15.07,0,0,1-.8-2.881c-.035-.835,1.635-2.157-.592-2.018s-1.392,0-1.392,0l.591,2.018-.591,3.132-3.1-7.217a12.289,12.289,0,0,1-3.027,1.51c-1.079.209-3.132-.035-3.758,2.853s-1.183,6.229-1.183,6.229-.162,1.206-.13,1.269,23.235-.051,23.235-.051a1.431,1.431,0,0,0,1.6-1.635c-.139-1.775-1.079-7.481-2.645-8.108S862.069,1204.3,861.916,1203.691Z" transform="translate(-487.808 -751.838)" fill="#fff"/>
    <path id="Path_1183" data-name="Path 1183" d="M861.916,1203.691c-.153-.612-2.972,6.966-2.972,6.966a15.07,15.07,0,0,1-.8-2.881c-.035-.835,1.635-2.157-.592-2.018s-1.392,0-1.392,0l.591,2.018-.591,3.132-3.1-7.217a12.289,12.289,0,0,1-3.027,1.51c-1.079.209-3.132-.035-3.758,2.853s-1.183,6.229-1.183,6.229-.278,1.113,1.531,1.218,21.574,0,21.574,0a1.431,1.431,0,0,0,1.6-1.635c-.139-1.775-1.079-7.481-2.645-8.108S862.069,1204.3,861.916,1203.691Z" transform="translate(-486.808 -751.838)" fill="#1baf5d"/>
  </g>
</svg>
