<svg id="bank-building" xmlns="http://www.w3.org/2000/svg" width="25.117" height="25.105" viewBox="0 0 25.117 25.105">
  <g id="Layer_1_78_">
    <g id="Group_499" data-name="Group 499">
      <path id="Path_1196" data-name="Path 1196" d="M23.965,42.718H1.141a1.141,1.141,0,0,0,0,2.283H23.965a1.141,1.141,0,0,0,0-2.283Z" transform="translate(0 -19.896)" fill="#1baf5d"/>
      <path id="Path_1197" data-name="Path 1197" d="M3.81,27.223a1.142,1.142,0,0,0,0,2.283h19.97a1.142,1.142,0,0,0,0-2.283H23.5V16.951h.285a.57.57,0,1,0,0-1.14H3.81a.57.57,0,1,0,0,1.14H4.1V27.222H3.81Zm17.4-10.271V27.222H17.79V16.951Zm-5.706,0V27.222H12.083V16.951Zm-9.129,0H9.8V27.222H6.378Z" transform="translate(-1.243 -7.368)" fill="#1baf5d"/>
      <path id="Path_1198" data-name="Path 1198" d="M1.141,7.429H23.976a1.142,1.142,0,0,0,.37-2.221L13.022.112a1.144,1.144,0,0,0-.936,0L.673,5.247a1.141,1.141,0,0,0,.468,2.182Z" transform="translate(0 -0.012)" fill="#1baf5d"/>
    </g>
  </g>
</svg>
