<svg xmlns="http://www.w3.org/2000/svg" width="15.5" height="15.5" viewBox="0 0 15.5 15.5">
  <path id="Close" d="M0-13.75A7.749,7.749,0,0,0-7.75-6,7.749,7.749,0,0,0,0,1.75,7.749,7.749,0,0,0,7.75-6,7.749,7.749,0,0,0,0-13.75ZM3.8-3.966a.375.375,0,0,1,0,.531L2.562-2.2a.375.375,0,0,1-.531,0L0-4.25-2.034-2.2a.375.375,0,0,1-.531,0L-3.8-3.437a.375.375,0,0,1,0-.531L-1.75-6-3.8-8.034a.375.375,0,0,1,0-.531L-2.563-9.8a.375.375,0,0,1,.531,0L0-7.75,2.034-9.8a.375.375,0,0,1,.531,0L3.8-8.562a.375.375,0,0,1,0,.531L1.75-6Z" transform="translate(7.75 13.75)" fill="#666"/>
</svg>
