<svg xmlns="http://www.w3.org/2000/svg" width="15.375" height="14.521" viewBox="0 0 15.375 14.521">
  <path id="Complaint" d="M152.387,84.582h-9.4a2.993,2.993,0,0,0-2.99,2.99v5.979a2.993,2.993,0,0,0,2.99,2.99h2.362l2.008,2.409h0a.427.427,0,0,0,.656,0l2.008-2.409h2.362a2.993,2.993,0,0,0,2.99-2.99V87.572a2.993,2.993,0,0,0-2.99-2.99Zm-4.7,9.823h0a.855.855,0,1,1,.6-.25.854.854,0,0,1-.6.25Zm.854-3.844h0a.854.854,0,1,1-1.708,0V88a.854.854,0,1,1,1.708,0Z" transform="translate(-140.002 -84.582)" fill="#666"/>
</svg>
