<svg xmlns="http://www.w3.org/2000/svg" width="178.581" height="141.473" viewBox="0 0 178.581 141.473">
  <g id="Group_260" data-name="Group 260" transform="translate(-967 -258)">
    <g id="Group_252" data-name="Group 252" transform="translate(971.798 283.982)">
      <rect id="Rectangle_890" data-name="Rectangle 890" width="89.995" height="17.068" rx="8.534" transform="translate(43.446 -1.982)" fill="#f6f6f6"/>
      <rect id="Rectangle_899" data-name="Rectangle 899" width="72.746" height="17.068" rx="8.534" transform="translate(28.534 98.423)" fill="#f6f6f6"/>
      <rect id="Rectangle_900" data-name="Rectangle 900" width="17.707" height="17.068" rx="8.534" transform="translate(10.841)" fill="#f6f6f6"/>
      <rect id="Rectangle_891" data-name="Rectangle 891" width="169.128" height="17.068" rx="8.534" transform="translate(4.655 34.154)" fill="#f6f6f6"/>
      <rect id="Rectangle_895" data-name="Rectangle 895" width="169.128" height="17.068" rx="8.534" transform="translate(0 70.29)" fill="#f6f6f6"/>
      <path id="Subtraction_18" data-name="Subtraction 18" d="M33.136,19.068H4.1c-.2,0-.4-.006-.6-.019A9.534,9.534,0,0,0,3.5.019C3.71.006,3.913,0,4.1,0H33.136l.224,0a9.587,9.587,0,0,0-9.309,9.531,9.588,9.588,0,0,0,9.309,9.532l-.029,0h-.194Z" transform="translate(84.564 15.086)" fill="#f6f6f6"/>
      <path id="Subtraction_20" data-name="Subtraction 20" d="M33.634,19.227H-4.386l-.228,0H-3.6A9.55,9.55,0,0,0,5.935,9.685,9.55,9.55,0,0,0-3.6.146H33.634A9.511,9.511,0,0,1,36.49.582H33.8a9.25,9.25,0,1,0,0,18.5H35.29A9.594,9.594,0,0,1,33.634,19.227Z" transform="translate(38.715 51.076)" fill="#f6f6f6"/>
    </g>
    <g id="Path_818" data-name="Path 818" transform="translate(1120.244 274)" fill="#fff">
      <path d="M 10.66568088531494 18.83135986328125 C 6.163110733032227 18.83135986328125 2.500000953674316 15.16824913024902 2.500000953674316 10.66567897796631 C 2.500000953674316 6.163108825683594 6.163110733032227 2.499999046325684 10.66568088531494 2.499999046325684 C 15.16825103759766 2.499999046325684 18.83136177062988 6.163108825683594 18.83136177062988 10.66567897796631 C 18.83136177062988 15.16824913024902 15.16825103759766 18.83135986328125 10.66568088531494 18.83135986328125 Z" stroke="none"/>
      <path d="M 10.66568088531494 4.999998092651367 C 7.541610717773438 4.999998092651367 5 7.541608810424805 5 10.66567897796631 C 5 13.78974914550781 7.541610717773438 16.33135986328125 10.66568088531494 16.33135986328125 C 13.78975105285645 16.33135986328125 16.33135986328125 13.78974914550781 16.33135986328125 10.66567897796631 C 16.33135986328125 7.541608810424805 13.78975105285645 4.999998092651367 10.66568088531494 4.999998092651367 M 10.66568088531494 -1.9073486328125e-06 C 16.55617141723633 -1.9073486328125e-06 21.33136177062988 4.775188446044922 21.33136177062988 10.66567897796631 C 21.33136177062988 16.5561695098877 16.55617141723633 21.33135986328125 10.66568088531494 21.33135986328125 C 4.775190353393555 21.33135986328125 0 16.5561695098877 0 10.66567897796631 C 0 4.775188446044922 4.775190353393555 -1.9073486328125e-06 10.66568088531494 -1.9073486328125e-06 Z" stroke="none" fill="#ccc"/>
    </g>
    <g id="Path_819" data-name="Path 819" transform="translate(985.939 386.159) rotate(166)" fill="#fff">
      <path d="M 7.811717987060547 13.12343692779541 C 4.882827758789063 13.12343692779541 2.499998092651367 10.7406063079834 2.499998092651367 7.811716556549072 C 2.499998092651367 4.882826328277588 4.882827758789063 2.499996662139893 7.811717987060547 2.499996662139893 C 10.74060821533203 2.499996662139893 13.12343788146973 4.882826328277588 13.12343788146973 7.811716556549072 C 13.12343788146973 10.7406063079834 10.74060821533203 13.12343692779541 7.811717987060547 13.12343692779541 Z" stroke="none"/>
      <path d="M 7.811717987060547 4.999996185302734 C 6.261327743530273 4.999996185302734 4.999998092651367 6.261326789855957 4.999998092651367 7.811716556549072 C 4.999998092651367 9.362106323242188 6.261327743530273 10.62343597412109 7.811717987060547 10.62343597412109 C 9.36210823059082 10.62343597412109 10.62343788146973 9.362106323242188 10.62343788146973 7.811716556549072 C 10.62343788146973 6.261326789855957 9.36210823059082 4.999996185302734 7.811717987060547 4.999996185302734 M 7.811717987060547 -3.814697265625e-06 C 12.12600803375244 -3.814697265625e-06 15.62343788146973 3.497426986694336 15.62343788146973 7.811716556549072 C 15.62343788146973 12.12600708007813 12.12600803375244 15.62343692779541 7.811717987060547 15.62343692779541 C 3.497427940368652 15.62343692779541 -1.9073486328125e-06 12.12600708007813 -1.9073486328125e-06 7.811716556549072 C -1.9073486328125e-06 3.497426986694336 3.497427940368652 -3.814697265625e-06 7.811717987060547 -3.814697265625e-06 Z" stroke="none" fill="#ccc"/>
    </g>
    <path id="Path_820" data-name="Path 820" d="M3.644,0A3.644,3.644,0,1,1,0,3.644,3.644,3.644,0,0,1,3.644,0Z" transform="translate(1089.485 265.071) rotate(166)" fill="#ccc"/>
    <path id="Path_821" data-name="Path 821" d="M3.644,0A3.644,3.644,0,1,1,0,3.644,3.644,3.644,0,0,1,3.644,0Z" transform="translate(1137.881 380.071) rotate(166)" fill="#ccc"/>
  </g>
</svg>
