<svg xmlns="http://www.w3.org/2000/svg" xmlns:xlink="http://www.w3.org/1999/xlink" width="128" height="128" viewBox="0 0 128 128">
  <defs>
    <clipPath id="clip-path">
      <path id="Path_10507" data-name="Path 10507" d="M120.488,125.246h99.866v111.77H120.488Zm0,0" transform="translate(-120.488 -125.246)"/>
    </clipPath>
  </defs>
  <g id="Group_13489" data-name="Group 13489" transform="translate(16518 8054)">
    <g id="Ellipse_913" data-name="Ellipse 913" transform="translate(-16518 -8054)" fill="none" stroke="#f2f2f2" stroke-width="1">
      <circle cx="64" cy="64" r="64" stroke="none"/>
      <circle cx="64" cy="64" r="63.5" fill="none"/>
    </g>
    <g id="_2" data-name="2" transform="translate(-16624.488 -8165.046)">
      <path id="Path_10504" data-name="Path 10504" d="M182.262,141.693c-.067.114-.128.239-.2.361s-.131.253-.2.373-.128.253-.189.387c-.081.166-.157.344-.232.518q-.284.634-.521,1.281c-.079.2-.151.4-.221.606-.053.16-.111.32-.157.483-.1.273-.186.559-.265.835-.1.32-.186.635-.27.955l-.043.169c-.067.259-.137.515-.2.774l-.006.029c-.061.262-.122.53-.174.783l-.021.105c-.052.224-.1.445-.136.66-.015.076-.032.16-.047.239q-.074.4-.139.779c-.215,1.273-.349,2.375-.431,3.179-.006.09-.015.177-.021.253a1.682,1.682,0,0,0-.023.25c-.015.11-.02.206-.029.3v.07l-.012.151-.006.073-.008.16c-.006.072-.006.113-.006.113a13.438,13.438,0,0,0-.235,2.573l.451,6.427a12.7,12.7,0,0,1-.812,2.8,2.352,2.352,0,0,0-.075.553v.061a1.985,1.985,0,0,0,.846,1.516,2.121,2.121,0,0,1,.8,1.423,15.515,15.515,0,0,1,.107,2.343c.006,1.257-.038,2.652-.072,3.434v.067a1.157,1.157,0,0,0,.4.859,1.339,1.339,0,0,1,.53.995,1.515,1.515,0,0,1-.355.888v.009a1.154,1.154,0,0,0-.6,1.019l.012,9.681v.006l-.07-.006c-.183-.009-.367-.023-.55-.047a3.731,3.731,0,0,1-.437-.061c-.16-.023-.323-.055-.484-.093l-.1-.02-.047-.017-.069-.015-.122-.032a23.377,23.377,0,0,1-9.062-4.639l-.18-.152c-.168-.154-.344-.308-.512-.468-.117-.114-.239-.224-.352-.338-.23-.229-.463-.468-.684-.7-.332-.352-.655-.71-.931-1.066-3.068-3.874-3.77-8.56-4.2-13.278-.151-1.686-.273-3.356-.448-5a1.148,1.148,0,0,0-.024-.221l-.39-5.067a12.23,12.23,0,0,1,.838-3.93c.166-.4.346-.806.544-1.19l.093-.175.027-.055c.122-.221.25-.449.39-.664s.262-.437.417-.652c.136-.2.279-.413.425-.6A16.963,16.963,0,0,1,165.3,150a39.7,39.7,0,0,1,14.891-9.053s.786.233,2.073.748" transform="translate(-10.336 -4.001)" fill="#f4c9ab"/>
      <path id="Path_10505" data-name="Path 10505" d="M205.158,158.575l-.585,5.751c-.006.079-.014.149-.02.221-.16,1.519-.268,3.074-.4,4.62-.349,4.031-.853,8.047-2.806,11.582a15.969,15.969,0,0,1-1.4,2.083,17.518,17.518,0,0,1-1.686,1.861q-.2.187-.393.361c-.157.151-.317.282-.483.422-.093.09-.192.169-.285.244a23.4,23.4,0,0,1-8.845,4.48c-.2.055-.4.09-.594.131a8.547,8.547,0,0,1-1.721.168h-.008a1.751,1.751,0,0,1-.207-.008.87.87,0,0,1-.206,0v-.006l-.012-9.681a1.154,1.154,0,0,1,.6-1.019v-.009a1.515,1.515,0,0,0,.355-.888,1.339,1.339,0,0,0-.53-.995,1.157,1.157,0,0,1-.4-.859v-.067c.034-.782.078-2.177.072-3.434a15.515,15.515,0,0,0-.107-2.343,2.121,2.121,0,0,0-.8-1.423,1.985,1.985,0,0,1-.846-1.516v-.061a2.352,2.352,0,0,1,.075-.553,12.7,12.7,0,0,0,.812-2.8l-.451-6.427a14.4,14.4,0,0,1,.241-2.573h-.006s0-.041.006-.113l.008-.16.006-.073.012-.151v-.07c.009-.093.014-.189.029-.3a1.682,1.682,0,0,1,.023-.25c.006-.076.015-.163.021-.253.081-.8.215-1.906.431-3.179q.065-.379.139-.779c.015-.079.032-.163.047-.239.037-.215.084-.437.136-.66l.021-.105c.052-.253.113-.521.174-.783l.006-.029c.058-.259.128-.515.2-.774l.043-.169c.084-.32.174-.634.27-.955.079-.276.166-.562.265-.835.046-.163.1-.323.157-.483.07-.2.142-.408.221-.606q.236-.646.521-1.281c.075-.174.151-.352.232-.518.061-.134.131-.253.189-.387s.131-.25.2-.373.128-.247.2-.361a40.163,40.163,0,0,1,12.9,8.3,15.568,15.568,0,0,1,3.469,5.079,9.177,9.177,0,0,1,.716,3.246" transform="translate(-16.149 -4.257)" fill="#ffdbc2"/>
      <g id="Group_13479" data-name="Group 13479" transform="translate(120.488 125.246)" clip-path="url(#clip-path)">
        <path id="Path_10506" data-name="Path 10506" d="M153.2,173.912c-.151-.42-.285-.853-.411-1.287-.093-.32-.183-.637-.262-.966-.081-.3-.148-.605-.206-.9a3.99,3.99,0,0,1-.09-.434c-.16-.786-.273-1.58-.376-2.381-.113-.873-.206-1.764-.288-2.652-.145-1.686-.27-3.359-.44-5a.779.779,0,0,0-.034-.227l-.285-3.726v-.008a12.334,12.334,0,0,1,.1-2.969,2.78,2.78,0,0,1,.078-.445,6.391,6.391,0,0,1,.151-.649c.02-.082.044-.149.067-.218a.661.661,0,0,1,.067-.215v-.012a6.981,6.981,0,0,1,.276-.751l.012-.023a2.434,2.434,0,0,1,.1-.25l.07-.169.079-.159v-.012c.09-.2.18-.39.285-.571a1.009,1.009,0,0,1,.093-.183l.021-.055c.125-.227.25-.443.387-.661s.273-.431.423-.646l.1-.151c.082-.113.157-.238.239-.341l.1-.148a6.9,6.9,0,0,1,.446-.536c.09-.113.18-.227.273-.329l.082-.082.087-.1c.2-.229.4-.445.614-.663.276-.273.55-.533.832-.8.192-.183.387-.364.591-.535.163-.137.308-.285.469-.414a58.777,58.777,0,0,1,12.83-8.6s.067.023.192.058c.308.1.969.317,1.889.693,2.7,1.095,7.777,4.555,12.172,8.743l.011.012c.294.273.591.556.876.841.238.241.466.48.693.73.139.16.276.305.411.478l.1.113.137.172.067.09.1.136a7.472,7.472,0,0,1,.458.629q.218.323.419.646c.105.16.2.317.288.478l.009.012c.113.206.23.422.332.637l.044.093.034.076h.012c.055.116.113.241.171.358.067.145.134.294.192.431l.024.067a3.929,3.929,0,0,1,.282,1.458c.035.993,0,1.982-.032,2.972l-.148,4.5v.056c-.046.4-.078.809-.113,1.219-.113,1.174-.2,2.37-.308,3.563-.341,4.031-.841,8.047-2.8,11.579v.008c-.137.242-.285.469-.443.711l-.957,1.365v.008l-2.846,2.882c-.215.183-.446.355-.673.524a6.5,6.5,0,0,1-.567.422c-.09.07-.183.134-.273.192-.16.113-.329.229-.5.344s-.332.2-.5.305l-.055.035c-.39.241-.789.466-1.188.669-.067.035-.145.082-.227.117-.171.1-.352.18-.524.262-.262.137-.536.262-.806.376-.411.18-.832.352-1.252.51-.323.116-.64.229-.96.335-.087.032-.168.058-.259.087q-.533.174-1.06.308c-.215.047-.431.09-.638.137h-.046l-.044.011a4.66,4.66,0,0,1-.559.082l-.116.011-.122.012-.047.012h-.066c-.07.011-.125.011-.2.02-.163,0-.308.011-.469.011a1.98,1.98,0,0,1-.262-.011h-.227c-.2-.009-.376-.02-.559-.044-.145-.023-.285-.035-.431-.069a3.647,3.647,0,0,1-.481-.093l-.113-.021-.044-.011-.069-.021-.125-.026a23.476,23.476,0,0,1-9.062-4.645l-.171-.146c-.171-.159-.352-.308-.524-.469-.116-.122-.227-.227-.352-.341-.227-.227-.454-.468-.684-.707-.332-.352-.649-.7-.922-1.06s-.521-.689-.751-1.045c-.145-.218-.285-.434-.411-.649s-.273-.466-.4-.707c-.116-.2-.218-.408-.32-.615l-.023-.046c-.055-.122-.125-.262-.183-.384s-.113-.273-.168-.41C153.4,174.459,153.3,174.182,153.2,173.912Zm65.485,35.507c.375-2.48-17.851-7.981-18.4-8.15l-.055-.125c-.262-.864-1.478-1.674-2.811-2.311a27.052,27.052,0,0,0-3.8-1.423c-.376-.114-.591-.169-.591-.169-.011-.093-.023-.238-.046-.411a6.379,6.379,0,0,0-2.7-3.824,11.81,11.81,0,0,0-3.109-1.846v-.012a57.351,57.351,0,0,1,3.074-7.238c4.168-8.234,11.695-29.468-.259-47.409l-.023.046a23.115,23.115,0,0,0-3.2-4.165c-.137-.151-.27-.273-.411-.4-.137-.145-.282-.27-.422-.4a27.08,27.08,0,0,0-8.369-5.042,23.7,23.7,0,0,0-7.6-1.3h-.25a23.5,23.5,0,0,0-7.594,1.3,26.888,26.888,0,0,0-8.334,5.042c-.137.128-.273.262-.411.4s-.285.262-.422.4a22.324,22.324,0,0,0-3.2,4.119,37.558,37.558,0,0,0-5.964,21.154,58.777,58.777,0,0,0,2.151,14.868,103.493,103.493,0,0,0,4.2,12.111c1.252,3.121,2.335,5.5,3.077,7.047l.021.047a6.132,6.132,0,0,1-1.811,2.46,34.674,34.674,0,0,1-5.51,3.539c-4.907,2.87-14.277,6.694-14.014,7.128a.243.243,0,0,0,.058.171c-.364.157-.73.32-1.095.478-1.193.524-2.182.946-2.9,1.24-3,1.278-5.068,2.142-5.068,2.142a7.138,7.138,0,0,0-2.4,1.261q1.555,2.309,3.324,4.453c.25.329.536.672.832,1,.192.265.4.515.615.765.341.376.672.728.99,1.092a60.293,60.293,0,0,0,81.537,6.957c.879-.649,1.743-1.345,2.573-2.084a49.939,49.939,0,0,0,4.36-4.142c.559-.582,1.115-1.187,1.63-1.8.087-.114.2-.224.294-.341a4.328,4.328,0,0,0,.443-.512,3.312,3.312,0,0,0,.23-.262,7.819,7.819,0,0,0,.684-.829c.829-1,1.615-2.049,2.358-3.12a7.087,7.087,0,0,0-1.674-1.9" transform="translate(-120.488 -125.245)"/>
      </g>
      <path id="Path_10508" data-name="Path 10508" d="M201.02,157.6a30.464,30.464,0,0,0-6.843-14.746,30.944,30.944,0,0,1,6.514,14.807,42.161,42.161,0,0,1-.349,16.195,35.837,35.837,0,0,1-2.57,7.67,24.789,24.789,0,0,1-4.584,6.575,27.235,27.235,0,0,1-6.369,4.855,28.9,28.9,0,0,1-3.828,1.723,10.589,10.589,0,0,1-7.032.09l-.038-.011A25.214,25.214,0,0,1,161.158,181.8a41.06,41.06,0,0,1-3.813-19.81,40.049,40.049,0,0,1,1.77-10.056,28.091,28.091,0,0,1,4.718-9.076,26.588,26.588,0,0,0-5.387,8.837A37.679,37.679,0,0,0,156.2,161.9a42.038,42.038,0,0,0,.44,10.5,37.064,37.064,0,0,0,3.164,10.068A27.6,27.6,0,0,0,162.6,187a28.207,28.207,0,0,0,3.659,3.885,25.414,25.414,0,0,0,9.305,5.027,34.844,34.844,0,0,0,10.4,1.24,41.5,41.5,0,0,0,10.258-1.517,45.813,45.813,0,0,1-10.255.763l-.043,0a.921.921,0,0,1-.349-1.753q.864-.406,1.7-.87a28.025,28.025,0,0,0,6.509-5.1,25.455,25.455,0,0,0,4.63-6.84,31.284,31.284,0,0,0,1.476-3.857,37.728,37.728,0,0,0,1.031-3.993,42.709,42.709,0,0,0,.1-16.378" transform="translate(-9.063 -4.488)" fill="#323131"/>
      <path id="Path_10509" data-name="Path 10509" d="M164.4,214.41a23.161,23.161,0,0,0,9.509,8.3,31.658,31.658,0,0,0,5.958,2.122,43.141,43.141,0,0,0,6.249,1.129,61.967,61.967,0,0,0,6.372.387c2.127.052,4.285,0,6.409-.073a49.432,49.432,0,0,0,6.337-.742,34.742,34.742,0,0,0,6.185-1.653l.108.236a36.728,36.728,0,0,1-12.537,3.385c-2.171.194-4.328.282-6.505.311a59.79,59.79,0,0,1-6.535-.335,34.746,34.746,0,0,1-12.579-3.711,21.8,21.8,0,0,1-5.269-3.976,21.009,21.009,0,0,1-3.7-5.376" transform="translate(-11.19 -22.725)" fill="#323131"/>
      <path id="Path_10510" data-name="Path 10510" d="M213.472,221.894a22.688,22.688,0,0,1-3.665.844c-.69.1-1.383.183-2.072.25-.58.055-1.156.093-1.735.13-1.27.07-2.539.076-3.808.056s-2.529-.108-3.8-.207c1.269.035,2.538.05,3.8.015s2.521-.108,3.776-.244c.376-.041.756-.088,1.132-.14.87-.113,1.735-.25,2.6-.431a24.488,24.488,0,0,0,3.137-.847,1.288,1.288,0,0,1,.041.4s.221.061.6.169" transform="translate(-19.856 -24.486)" fill="#323131"/>
      <path id="Path_10511" data-name="Path 10511" d="M135.5,232.316s4.68,6.419,23.143,10.656a104.992,104.992,0,0,0,33.4,2.067c12.69-1.2,30.358-3.706,30.186-8.328a2.3,2.3,0,0,1,.05.614c-.145,2.954-6.1,4.934-8.351,5.553-21.76,6-45.742,3.435-45.742,3.435-17.435-2.332-25.194-6.529-30.463-10.65-1.452-1.139-2.582-2.169-3.324-2.87.367-.157.737-.32,1.1-.478" transform="translate(-3.546 -27.289)" fill="#323131"/>
      <path id="Path_10512" data-name="Path 10512" d="M198.947,154.531l-.032-.067a27.883,27.883,0,0,0-4.729-6.77,35.645,35.645,0,0,0-11.643-7.992c-1.287-.516-2.075-.751-2.075-.751l.774-.4s-14.554,4.019-19.074,15.912l.015-.026a9.468,9.468,0,0,1,2.753-2.954,26.925,26.925,0,0,1,34.011,3.045" transform="translate(-10.623 -3.392)"/>
    </g>
  </g>
</svg>
