<svg xmlns="http://www.w3.org/2000/svg" xmlns:xlink="http://www.w3.org/1999/xlink" width="128" height="128" viewBox="0 0 128 128">
  <defs>
    <clipPath id="clip-path">
      <path id="Path_10531" data-name="Path 10531" d="M162,210h15.019v49.417H162Zm0,0" transform="translate(-162 -210)"/>
    </clipPath>
    <clipPath id="clip-path-2">
      <path id="Path_10533" data-name="Path 10533" d="M187.16,210h53.832v49.393H187.16Zm0,0" transform="translate(-187.16 -210)"/>
    </clipPath>
    <clipPath id="clip-path-3">
      <path id="Path_10535" data-name="Path 10535" d="M187.16,227.1h2.133v36.55H187.16Zm0,0" transform="translate(-187.16 -227.102)"/>
    </clipPath>
    <clipPath id="clip-path-4">
      <path id="Path_10537" data-name="Path 10537" d="M180.355,226.129H186.1V263.41h-5.741Zm0,0" transform="translate(-180.355 -226.129)"/>
    </clipPath>
    <clipPath id="clip-path-5">
      <path id="Path_10554" data-name="Path 10554" d="M236,215.434h17.155v27.741H236Zm0,0" transform="translate(-236 -215.434)"/>
    </clipPath>
  </defs>
  <g id="Group_13490" data-name="Group 13490" transform="translate(16696 8007)">
    <g id="Ellipse_916" data-name="Ellipse 916" transform="translate(-16696 -8007)" fill="none" stroke="#f2f2f2" stroke-width="1">
      <circle cx="64" cy="64" r="64" stroke="none"/>
      <circle cx="64" cy="64" r="63.5" fill="none"/>
    </g>
    <g id="_1" data-name="1" transform="translate(-16801.758 -8119.77)">
      <path id="Path_10517" data-name="Path 10517" d="M184.34,186.945h-1.027a10.863,10.863,0,0,0-6.187,2.517,2.821,2.821,0,0,0-.974,2.15l.006,2.825a1.547,1.547,0,0,0,.64,1.262,10.6,10.6,0,0,0,2.581,1.446,12.475,12.475,0,0,0,2.7.358l.041,0a.825.825,0,0,0,.46-.141.839.839,0,0,0,.346-.525l.017-.17,0-1.652a.681.681,0,0,1,.678-.689h.73l-.008-7.383" transform="translate(-14.931 -14.936)" fill="#f4c9ab"/>
      <path id="Path_10518" data-name="Path 10518" d="M197.625,207.962c0,.152-.006.311-.02.493a10.209,10.209,0,0,1-.132,1.223,2.8,2.8,0,0,1-.05.291l-.015.074a10.178,10.178,0,0,1-.4,1.419,12.589,12.589,0,0,1-6.087,6.689,17.763,17.763,0,0,1-6.592,2.127l-.111.014-.029.006c-.229.029-.464.05-.7.065l-.129.009h-.05c-.155.014-.314.023-.466.023H182.8l-.2.006H182.5c-.132,0-.255,0-.378,0a17.018,17.018,0,0,1-2.042-.126,16.111,16.111,0,0,1-2.522-.484l-.182-.05c-.17-.044-.334-.094-.5-.144-.123-.035-.255-.082-.384-.123-.206-.068-.417-.137-.619-.22-.27-.1-.54-.211-.81-.325s-.536-.241-.8-.372-.525-.261-.777-.4c-6.008-3.35-6.735-8.085-6.729-10.191,0-.328.017-.6.032-.777v-.014c.02-.182.041-.276.041-.276l.19-1.516.889-7.152c.1.094.206.188.3.291a45.625,45.625,0,0,0,7.252,5.755l.44.276.032.024.109.059.355.211.14.074.08.041.014.009c.071.035.152.074.232.109l.044.014c.083.038.167.074.249.1.15.053.311.1.469.152l.141.035c.094.029.2.053.3.082l.032.006a12.785,12.785,0,0,0,1.437.264c.126.02.247.029.37.041l.126.015.094.006.005.008.464.044.179.009.149.005c.094.009.182.015.276.015.109.006.226.014.335.014s.249.006.363.006h.123l.161.009h.2l.1-.009h.276l.17-.006c.135,0,.267-.008.4-.014s.258-.015.384-.02h.035a10.184,10.184,0,0,0,4.324-1.012,34.822,34.822,0,0,0,3.52-2.614l.086-.079c.372-.285.748-.58,1.123-.88l.1-.082c.188-.152.372-.3.56-.449l.108-.1c.109-.094.22-.191.329-.279.076-.056.14-.114.211-.173.108-.086.211-.182.32-.267.152-.132.311-.264.457-.39.382-.332.748-.66,1.106-.98.179-.158.354-.32.519-.481l.138,1.18-5.524,5.459a11.74,11.74,0,0,1-5.474,3.095l-.179.041c-.32.079-.663.155-1.033.226-.123.023-.246.044-.375.065l-.2.053a2.3,2.3,0,0,0-1.361,1.068,2.2,2.2,0,0,0-.167.357,2.146,2.146,0,0,0-.14.786l.011,6.026v.006a1.828,1.828,0,0,0,.059.46l.038.152a2.213,2.213,0,0,0,.372.677l.132.135a1.834,1.834,0,0,0,.457.343,1.886,1.886,0,0,0,.361.155,2.374,2.374,0,0,0,.385.08l.2.008a1.871,1.871,0,0,0,.211-.008,14.541,14.541,0,0,0,6.806-2.309,15.122,15.122,0,0,0,6.046-11.563l.105.816.176,1.513a2.837,2.837,0,0,1,.035.294l.014.158a5.944,5.944,0,0,1,.026.619" transform="translate(-12.591 -17.706)" fill="#f4c9ab"/>
      <path id="Path_10519" data-name="Path 10519" d="M207.1,204.293l-.548-4.652h.006Zm0,0" transform="translate(-22.503 -18.098)" fill="#f4c9ab"/>
      <path id="Path_10520" data-name="Path 10520" d="M205.409,174.688s.006,1.484-.015,3.484c-.005.27-.008.554-.023.845l0,.378c-.029,1.7-.088,3.617-.182,5.277v.035c-.012.3-.032.59-.053.874-.009.094-.015.188-.021.282a10.9,10.9,0,0,1-.451,2.86,5.225,5.225,0,0,1-.681,1.021l-.14.167c-.1.114-.2.232-.3.349l-.167.182-.17.191c-.24.246-.493.511-.768.777-.173.167-.346.343-.534.517l-.285.261-.065.059c-.164.161-.34.323-.519.481-.358.32-.725.648-1.106.98-.146.126-.3.258-.457.39-.109.085-.212.182-.32.267-.071.059-.135.117-.211.173-.109.088-.22.185-.329.279l-.108.1c-.188.149-.372.3-.56.449l-.1.082c-.375.3-.751.6-1.123.88-.352.282-.707.551-1.051.807-.425.32-.845.619-1.229.886a2.408,2.408,0,0,1-.276.2c-.149.108-.3.211-.448.314l-.094.067c-.123.074-.232.153-.346.22s-.212.144-.311.2c-.068.035-.132.079-.206.114l-.014.006a.911.911,0,0,1-.241.112c-.085.044-.179.082-.282.123-.173.065-.351.123-.551.182-.261.073-.528.146-.822.2h0a9.117,9.117,0,0,1-.9.147c-.369.05-.76.088-1.153.126h-.035c-.126.005-.255.014-.384.02s-.264.014-.4.014-.24.006-.357.006h-.089l-.1.009h-.2l-.161-.009-.009-8.792,1.009-.006a.689.689,0,0,1,.677.692v1.652a.832.832,0,0,0,.825.836h.047a12.9,12.9,0,0,0,2.69-.364,10.3,10.3,0,0,0,2.581-1.44,1.572,1.572,0,0,0,.64-1.267l0-2.7a2.87,2.87,0,0,0-1.106-2.25,15.951,15.951,0,0,0-2.47-1.528,9.339,9.339,0,0,0-4.247-1.006h-.66l-.009-3.253h.59a11.827,11.827,0,0,1,6.656,2.054l2.01,1.37a3.493,3.493,0,0,1,1.546,2.916l0,2.481a.881.881,0,0,0,.877.88.847.847,0,0,0,.58-.231l2.062-1.916c1.525-1.4,1.174-3.259,1.537-5.3.132-.795.291-1.654.425-2.452a17.189,17.189,0,0,1,1.6-4.843c.05-.106.109-.209.167-.309s.1-.2.152-.293.109-.2.164-.3" transform="translate(-17.644 -11.883)" fill="#3d280a"/>
      <path id="Path_10521" data-name="Path 10521" d="M172.937,188.717l.006,2.822a1.558,1.558,0,0,0,.643,1.267,10.482,10.482,0,0,0,2.578,1.443,13.093,13.093,0,0,0,2.7.361h.041a.772.772,0,0,0,.457-.144.791.791,0,0,0,.346-.525l.02-.167v-1.652a.67.67,0,0,1,.675-.686h.733l.009,8.792h-.123c-.114,0-.24,0-.363-.006s-.226-.008-.335-.014l-.065-.006a1.658,1.658,0,0,1-.211-.009l-.149-.005-.179-.009-.464-.044-.005-.008-.094-.006-.126-.015c-.123-.011-.244-.02-.37-.041a12.785,12.785,0,0,1-1.437-.264l-.032-.006c-.1-.029-.2-.053-.3-.082l-.141-.035c-.158-.053-.319-.1-.469-.152-.082-.029-.167-.065-.249-.1l-.026-.014h-.017c-.08-.035-.161-.074-.232-.109l-.014-.009-.08-.041-.14-.074-.355-.211-.109-.059-.032-.024-.44-.276c-.361-.246-.754-.508-1.162-.807-.2-.141-.4-.285-.611-.437s-.411-.32-.628-.472c-.422-.329-.853-.663-1.282-1-.146-.117-.293-.226-.44-.352-.188-.149-.384-.311-.577-.472-.106-.094-.214-.188-.326-.276s-.226-.182-.334-.276q-.3-.251-.59-.511l-.053-.041c-.431-.372-.848-.746-1.25-1.109-.1-.1-.2-.2-.3-.291l-.173-.158c-.215-.205-.426-.408-.628-.6-.1-.094-.206-.191-.294-.291V191.5a13.171,13.171,0,0,1-2.082-2.49l-.056-.123a4.893,4.893,0,0,1-.29-1.332c-.432-3.572-.209-12.232-.209-12.232.05.089.1.173.152.261a13.422,13.422,0,0,1,1.579,4.826c.143.8.3,1.66.434,2.452.364,2.045.106,4.1,1.622,5.495l2.08,1.916.065.05.05.044a.774.774,0,0,0,.423.128l.035.006.05-.006a.859.859,0,0,0,.825-.871l0-2.484a3.528,3.528,0,0,1,1.539-2.916l2.016-1.37a11.783,11.783,0,0,1,6.645-2.054h.3l.009,3.253H180.1a10.8,10.8,0,0,0-6.186,2.52,2.8,2.8,0,0,0-.977,2.147" transform="translate(-11.717 -12.041)" fill="#3d280a"/>
      <path id="Path_10522" data-name="Path 10522" d="M202.388,204.944v.009a15.121,15.121,0,0,1-6.046,11.563,14.541,14.541,0,0,1-6.806,2.309,1.872,1.872,0,0,1-.211.008l-.2-.008a2.373,2.373,0,0,1-.385-.08,3.093,3.093,0,0,1-.361-.155,1.834,1.834,0,0,1-.457-.343l-.132-.135a2.213,2.213,0,0,1-.372-.677l-.038-.152a1.827,1.827,0,0,1-.059-.46v-.006l-.005-6.02a2.382,2.382,0,0,1,.134-.792,2.2,2.2,0,0,1,.167-.357,2.3,2.3,0,0,1,1.361-1.068l.2-.044c.129-.02.252-.05.375-.073.369-.071.713-.147,1.033-.226l.179-.041a11.74,11.74,0,0,0,5.474-3.095l5.524-5.459h.006l.542,4.652.077.651" transform="translate(-17.711 -18.098)" fill="#ffdbc2"/>
      <path id="Path_10523" data-name="Path 10523" d="M166.8,210.188l-.006.008v-.008Zm0,0" transform="translate(-12.602 -20.724)" fill="#e4eef5"/>
      <path id="Path_10524" data-name="Path 10524" d="M194.432,189.48a15.274,15.274,0,0,0-2.47-1.528,9.339,9.339,0,0,0-4.247-1.006h-.66l.011,7.386h1.009a.681.681,0,0,1,.677.692v1.646a.832.832,0,0,0,.825.836h.047a12.433,12.433,0,0,0,2.69-.364,9.879,9.879,0,0,0,2.581-1.44,1.565,1.565,0,0,0,.648-1.267l-.005-2.7a2.855,2.855,0,0,0-1.106-2.256" transform="translate(-17.647 -14.936)" fill="#ffdbc2"/>
      <path id="Path_10525" data-name="Path 10525" d="M199.458,138.3c-3.224-.229-10.4-.394-18.73-.394-8.07,0-15.058.152-18.419.37,2.038-5.536,6.911-10.863,18.037-11.273,0,0,12.766-.939,17.651,7.941a15.235,15.235,0,0,1,1.461,3.356" transform="translate(-11.484)" fill="#eaf4fa"/>
      <path id="Path_10526" data-name="Path 10526" d="M200.575,152.167a49.984,49.984,0,0,1-.246,5.7l-.006-.02v.02h.006l-.085.408-.93,4.673-.446,2.235c-.1-1.311-.158-2.628-.179-3.94l0-.4c0-.971.082-1.945.134-2.922.032-.665.065-1.334.062-2,0-.408-.008-.819-.047-1.217v-.014c0-.065,0-.329-.02-.713l-.006-.146v-.006a22.444,22.444,0,0,0-.32-2.954c-.02-.129-.044-.255-.074-.387v-.02l-.014-1.32a4.583,4.583,0,0,0-.429-.179h-.008l-.026-.08-.053-.111a3.625,3.625,0,0,0-.285-.523h-.008c-1.883-.059-4.518.071-7.639.212-1.869.079-3.91.167-6.066.22q-1.3.03-2.652.032h-.005c-.306.008-.611.008-.915.008h-.466c-1.018-.008-2-.02-2.978-.05-2.071-.053-4.033-.146-5.84-.232-2.945-.143-5.48-.276-7.434-.22-.2.009-.384.024-.572.032a.711.711,0,0,0-.2.252,2.6,2.6,0,0,0-.238.692,27.576,27.576,0,0,0-.134,5.509c-.027.4-.047.8-.044,1.209,0,1.047.082,2.1.143,3.156.041.662.074,1.317.068,1.974l0,.2c-.023,1.308-.076,2.628-.173,3.937l-1.2-5.987-.017-.083-.018-.108a34.273,34.273,0,0,1-.32-4.3l-.005.015a25.045,25.045,0,0,1-.385-4.25c0-.182,0-.364,0-.552.006-.61.023-1.262.082-1.936a24.261,24.261,0,0,1,.34-2.664,21.547,21.547,0,0,1,.731-2.839c.065-.2.129-.384.2-.583,3.361-.218,10.349-.37,18.419-.37,8.328,0,15.506.164,18.73.394.062.173.118.352.17.545a27.064,27.064,0,0,1,.7,2.822c.161.792.306,1.651.411,2.593.077.62.135,1.262.182,1.951a5.033,5.033,0,0,1,.032.528v.006l.009.038c.029.566.056,1.15.059,1.763" transform="translate(-11.034 -3.625)" fill="#3d280a"/>
      <path id="Path_10527" data-name="Path 10527" d="M162.275,147.121l-2.291,3.385-.188.276-.736,1.091-.015.011-.008.009c-.3.264-.617.54-.927.845l.015-.056c.854-2.942,1.487-5.052,1.734-5.882l.123.056a1.857,1.857,0,0,0,.659.179c.452.026,1.006.047,1.634.086" transform="translate(-10.438 -4.939)" fill="#c9d3d9"/>
      <path id="Path_10528" data-name="Path 10528" d="M200.608,142.836a1.443,1.443,0,0,0-.452-.526,2.38,2.38,0,0,0-.642-.319c-.246-.024-.531-.05-.866-.071-3.224-.229-10.4-.394-18.73-.394-8.07,0-15.058.152-18.419.37-.455.032-.842.059-1.159.1l-.015.006a2.163,2.163,0,0,0-.663.314,1.448,1.448,0,0,0-.581,1.464l.023.118a1.955,1.955,0,0,0,.912,1.105l.2.094a1.943,1.943,0,0,0,.66.167c.49.029,1.085.068,1.775.1l.158.006c3.678.188,9.977.457,17.131.457,7.249,0,13.629-.279,17.287-.466.7-.035,1.293-.074,1.781-.1a1.975,1.975,0,0,0,1.414-.683,1.627,1.627,0,0,0,.188-1.739" transform="translate(-10.675 -3.625)" fill="#000d14"/>
      <path id="Path_10529" data-name="Path 10529" d="M155.646,211.539c-.135,11.42-.66,30.068-2.493,44.747a60.874,60.874,0,0,1-15.269-7.973c-.332-.232-.666-.478-.989-.722a59.7,59.7,0,0,1-4.746-3.94l-.434-.4c.574-2.236,1.088-4.459,1.522-6.583,1.077-5.371,2.4-11.443,3.7-17.416l.325-.132.089-.032,2.558-1.068h.012l.3-.123.355-.144,15.069-6.216" transform="translate(-3.865 -21.061)" fill="#e4eef5"/>
      <g id="Group_13483" data-name="Group 13483" transform="translate(150.593 189.323)" clip-path="url(#clip-path)">
        <path id="Path_10530" data-name="Path 10530" d="M176.558,259.262a1.292,1.292,0,0,1-.179-.009,60.332,60.332,0,0,1-14.31-2.848q.748-6.252,1.279-12.922a324.33,324.33,0,0,0,.889-32.714l1.235-.514.143-.065v.012c-.012.176-.032.455-.032.777,0,2.1.722,6.838,6.726,10.188.255.14.522.287.777.41.27.132.534.255.8.367s.542.231.813.334c.2.077.41.141.619.211.123.041.258.089.382.118.164.059.334.114.51.158l.176.044.167,36.451" transform="translate(-162.017 -210.048)" fill="#e9edf0"/>
      </g>
      <g id="Group_13484" data-name="Group 13484" transform="translate(169.487 189.323)" clip-path="url(#clip-path-2)">
        <path id="Path_10532" data-name="Path 10532" d="M241,227.975q-.933,1.668-1.968,3.268c-.235.36-.455.725-.7,1.059a44.522,44.522,0,0,1-3.1,4.224,6.567,6.567,0,0,1-.7.845,2.611,2.611,0,0,1-.223.27,5.465,5.465,0,0,1-.455.52c-.088.111-.2.223-.29.334-.523.634-1.092,1.247-1.657,1.836-.435.458-.88.909-1.335,1.346v.009c-.487.5-.979.98-1.49,1.446s-1.056.948-1.6,1.4c-.833.745-1.71,1.446-2.6,2.1-.167.129-.331.252-.5.387-.322.244-.654.49-.988.737a61,61,0,0,1-15.169,8.061c-.443.164-.889.323-1.355.463a60.9,60.9,0,0,1-18.114,3.151c-.446.008-.9.008-1.346.008h-.02l-.167-36.019c.12,0,.255,0,.378-.009h.434c.143-.012.288-.012.419-.02l.135-.012c.246-.012.475-.035.7-.068h.035l.179-.02c.088-.015.188-.024.279-.047a17.029,17.029,0,0,0,6.292-2.076,12.967,12.967,0,0,0,5.5-5.439l.012-.011c.134-.279.258-.557.369-.834.056-.134.108-.267.155-.4a7.085,7.085,0,0,0,.234-.733c.065-.235.121-.466.164-.689l.012-.068a2.111,2.111,0,0,0,.053-.3,9.9,9.9,0,0,0,.135-1.223v-.487c0-.322-.023-.6-.032-.777h.009l1.625.654.979.411.053.023,15.1,6.216.032.011.657.267.012.008,2.567,1.06.091.032,1.188.49,11.141,4.582c.282.109.534.232.8.343l.012.012.032.023c.388.267.769.52,1.144.778l.035.023A17.79,17.79,0,0,1,241,227.975" transform="translate(-187.174 -210.052)" fill="#e9edf0"/>
      </g>
      <g id="Group_13485" data-name="Group 13485" transform="translate(169.487 202.166)" clip-path="url(#clip-path-3)">
        <path id="Path_10534" data-name="Path 10534" d="M188.749,263.806c-.446.008-.9.008-1.346.008h-.02l-.167-36.019c.12,0,.255,0,.378-.009h.434c.143-.012.288-.012.419-.02l.135-.012.167,36.052" transform="translate(-187.174 -227.264)" fill="#c7d5e0"/>
      </g>
      <g id="Group_13486" data-name="Group 13486" transform="translate(164.377 201.435)" clip-path="url(#clip-path-4)">
        <path id="Path_10536" data-name="Path 10536" d="M185.811,263.611c-1.534,0-3.048-.056-4.562-.179a1.288,1.288,0,0,1-.179-.009l-.164-36.486.176.044a16.224,16.224,0,0,0,2.525.481,17.605,17.605,0,0,0,2.036.129l.167,36.019" transform="translate(-180.492 -226.33)" fill="#dae5ed"/>
      </g>
      <path id="Path_10538" data-name="Path 10538" d="M159.538,151.672l-.017,8.876-.288-3.684a2.2,2.2,0,0,0-3.661-1.651l-.194.182-.085.085-.132.126-.2.267a53.226,53.226,0,0,0-7.122,14.171,53.621,53.621,0,0,1,7.454-15.207l.2-.267a12.26,12.26,0,0,1,3.171-2.423,7.311,7.311,0,0,1,.877-.475" transform="translate(-7.88 -6.152)" fill="#c9d3d9"/>
      <path id="Path_10539" data-name="Path 10539" d="M167.117,196.616l-.889,7.152-.19,1.516s-.021.094-.041.276v.008l-.144.065-2.27.939c.074-6.316.032-10.423.032-10.423l-.02-4.541a4.892,4.892,0,0,0,.29,1.332l.056.123a13.17,13.17,0,0,0,2.082,2.49v.009c.088.1.2.2.294.291.2.2.413.4.628.6l.173.158" transform="translate(-11.801 -16.097)" fill="#c7d5e0"/>
      <path id="Path_10540" data-name="Path 10540" d="M157.692,197.621c-.135,11.42-.66,30.068-2.493,44.747A60.875,60.875,0,0,1,139.93,234.4c.023-.1.035-.211.056-.311.068-.39.123-.78.191-1.168.088-.5.164-1,.234-1.49.041-.279.089-.557.123-.822.053-.358.1-.713.141-1.059.088-.586.17-1.156.246-1.722.032-.311.077-.622.111-.924.024-.234.053-.469.077-.7.035-.2.056-.4.079-.593s.032-.378.056-.566c.044-.378.088-.748.12-1.089.056-.533.111-1.035.158-1.5l.02-.153a3.347,3.347,0,0,1,.023-.334c.068-.736.121-1.37.167-1.892.012-.167.02-.332.041-.478.059-.745.082-1.156.082-1.156s.009-.167.018-.466a1.085,1.085,0,0,1,.011-.191l.012-.132v-.211c.023-.311.035-.678.071-1.112,0-.123,0-.243.008-.379l.009-.17c.012-.208.023-.44.035-.675.023-.445.047-.924.076-1.446,0-.18.012-.343.024-.534.011-.332.035-.689.059-1.045,0-.17.009-.323.017-.49.035-.681.083-1.379.112-2.112.023-.434.047-.88.07-1.322s.053-.9.077-1.371c.056-.942.111-1.936.167-2.945.011-.123.011-.234.02-.354.035-.68.068-1.37.111-2.08.012-.2.024-.4.035-.6.021-.345.044-.689.065-1.035.246-4.148.514-8.472.789-12.365a1.392,1.392,0,0,0,.012-.223c.322-4.48.378-8.029.545-10.229v-.059c.068-.666.144-1.232.223-1.711.279-1.179,1.033-2.9,1.426-4.083l.029-.112.035-.111c.035-.112.065-.211.112-.323.111-.32.223-.631.334-.93.164-.469.332-.915.511-1.358.355-.924.733-1.792,1.1-2.616.179-.4.354-.774.537-1.153.8-1.657,1.575-3.08,2.276-4.262.079-.129.155-.252.234-.388.155-.255.3-.5.446-.736.132-.211.264-.411.387-.6.39-.59.7-1.047.936-1.379l.1-.123.1-.143.2-.267.047-.044.088-.08.088-.088c.068-.065.132-.123.2-.188a1.71,1.71,0,0,1,.545-.346l.068-.035a2.182,2.182,0,0,1,.822-.164,1.649,1.649,0,0,1,.413.047,2.014,2.014,0,0,1,.411.111,1.749,1.749,0,0,1,.355.188l.023.009a2.333,2.333,0,0,1,.323.243,2.481,2.481,0,0,1,.288.326c.076.123.158.243.223.375a2.381,2.381,0,0,1,.188.9c.011.12.023.243.035.366a1.319,1.319,0,0,1,.023.22v.056l.2,2.594.009.164c.056.957.091,1.916.091,2.869l.032,6.574v.023l.044,11.93v.024l.023,4.526s.044,4.1-.032,10.42" transform="translate(-5.911 -7.143)" fill="#eaf4fa"/>
      <path id="Path_10541" data-name="Path 10541" d="M145.621,183.367a10.833,10.833,0,0,1,.217-1.711c-.071.475-.149,1.051-.217,1.711" transform="translate(-7.328 -13.619)" fill="#e4eef5"/>
      <path id="Path_10542" data-name="Path 10542" d="M133.086,216.2l-.1,1.69-.446,1.622-.657,2.438c-1.364,5.492-1.957,7.439-3.57,14.791-.077.311-.14.645-.223.988-.14.669-.3,1.346-.451,2.033-.27,1.159-.558,2.338-.872,3.526-.765-.757-1.51-1.522-2.232-2.311-.314-.369-.654-.722-.989-1.114a8.352,8.352,0,0,1-.636-.766c-.288-.334-.587-.677-.834-1.012a57.451,57.451,0,0,1-5.882-8.619,18.057,18.057,0,0,1,2.89-2.933l.044-.023c.378-.258.768-.534,1.179-.8,4.016-2.746,9.164-6.216,10.809-8.372l1.28-1.423a.4.4,0,0,1,.689.288" transform="translate(0 -22.116)" fill="#e3ebf0"/>
      <path id="Path_10543" data-name="Path 10543" d="M140.609,208.006c-.011.155-.011.311-.023.466v.024c0,.067-.009.131-.009.211-.023.267-.035.545-.047.833a1.97,1.97,0,0,0-.012.267c-.02.422-.053.856-.076,1.314-.024.331-.044.665-.065,1.012-.059.977-.123,2.013-.194,3.089l-.006.179c-.023.243-.035.5-.059.754-.012.158-.023.314-.035.481-.009.132-.017.279-.029.423v.044c-.071.989-.146,2-.235,3.057-.047.657-.1,1.323-.155,2-.1,1.176-.255,3.168-.481,5.6-.7,7.518-1.109,11.479-1.775,16.337-.111.845-.234,1.681-.369,2.525a59.7,59.7,0,0,1-4.746-3.94c.578-2.145,1.077-4.28,1.5-6.337.135-.657.323-1.625.566-2.824.047-.223.088-.446.135-.678.276-1.358.6-2.948.944-4.661.626-3.068,1.3-6.548,1.971-10.029.563-2.981,1.112-5.972,1.576-8.719v-.023a5.242,5.242,0,0,1,.637-1.745c0,.023-.012.088-.023.167l.457.079.053.012.5.076" transform="translate(-4.009 -20.098)" fill="#eaf4fa"/>
      <path id="Path_10544" data-name="Path 10544" d="M143.042,207.921l-.979-.349a.541.541,0,0,1,.979.349" transform="translate(-6.442 -20.016)" fill="#d6e0e8"/>
      <path id="Path_10545" data-name="Path 10545" d="M141.8,184.012c-.167,2.2-.223,5.749-.545,10.229a1.392,1.392,0,0,1-.012.223c-.276,3.892-.543,8.216-.789,12.365-.02.345-.044.689-.065,1.035-.011.2-.023.4-.035.6-.044.71-.076,1.4-.111,2.08-.009.12-.009.231-.02.354-.056,1.009-.112,2-.167,2.945-.023.469-.056.924-.077,1.371s-.047.888-.07,1.322c-.029.734-.077,1.431-.112,2.112-.008.167-.017.32-.017.49-.023.355-.047.713-.059,1.045-.012.191-.024.354-.024.534-.029.522-.053,1-.076,1.446-.012.235-.023.467-.035.675l-.009.17c-.008.135-.008.255-.008.378-.035.434-.047.8-.071,1.112v.211l-.012.132a1.085,1.085,0,0,0-.011.191c-.009.3-.018.466-.018.466s-.023.411-.082,1.156c-.021.146-.029.311-.041.478-.047.522-.1,1.156-.167,1.892a3.347,3.347,0,0,0-.023.334l-.02.153c-.047.469-.1.971-.158,1.5-.032.341-.077.71-.12,1.089-.024.188-.047.375-.056.566s-.044.39-.079.593c-.023.228-.053.463-.077.7-.035.3-.079.614-.111.924-.077.566-.158,1.135-.246,1.722-.041.346-.088.7-.141,1.059-.035.264-.082.543-.123.822-.07.49-.146.988-.234,1.49-.068.387-.123.777-.191,1.168-.02.1-.032.211-.056.311-.332-.232-.666-.478-.989-.722.135-.845.258-1.681.369-2.525.666-4.858,1.077-8.819,1.775-16.337.226-2.435.378-4.427.481-5.6.056-.68.109-1.346.155-2,.089-1.054.164-2.068.235-3.057l.012-.044c0-.144.008-.291.017-.423.012-.167.023-.322.035-.481.023-.252.035-.511.059-.754l.006-.179c.071-1.077.134-2.112.194-3.089.02-.346.041-.68.065-1.012.023-.458.056-.892.076-1.314,0-.091.012-.179.012-.267.011-.288.035-.566.047-.833,0-.08.009-.144.009-.211v-.024a.553.553,0,0,0-.478-.542l-.053-.012a.558.558,0,0,0-.569.434c-.311,1.522-1.088,5.369-1.989,9.775-.669,3.279-1.405,6.882-2.06,10.061-.345,1.713-.668,3.3-.944,4.661-.047.232-.089.455-.135.678-.243,1.2-.431,2.167-.566,2.824-.422,2.057-.921,4.192-1.5,6.337l-.434-.4c-.358-.335-.725-.678-1.083-1.024.314-1.188.6-2.367.872-3.526.152-.677.311-1.364.451-2.033.083-.343.146-.677.223-.988,1.613-7.352,2.206-9.3,3.57-14.791l.657-2.438a15.765,15.765,0,0,0,.546-3.312A.4.4,0,0,0,135.9,208l-1.28,1.423a26.031,26.031,0,0,0,4.192-8.085c.367-1.382.625-2.359.655-2.547.748-3.614,1.381-6.908,1.827-9.654v-.012c.164-2,.332-3.746.5-5.113" transform="translate(-3.506 -14.205)" fill="#dce6ed"/>
      <path id="Path_10546" data-name="Path 10546" d="M162.9,243.675q-.536,6.675-1.279,12.922c-.457-.14-.912-.3-1.358-.454,1.833-14.679,2.358-33.327,2.493-44.747l1.033-.434a324.331,324.331,0,0,1-.889,32.714" transform="translate(-10.974 -20.917)" fill="#d1dbe3"/>
      <path id="Path_10547" data-name="Path 10547" d="M200.426,150.884l-.191-.276-2.326-3.385-.135.008-.161.009c-3.676.194-9.971.455-17.129.455h-.463c-7.154,0-13.453-.258-17.131-.455l-.158-.006-.141-.008-2.291,3.385-.188.276-.736,1.091c.071-.059.141-.109.208-.167l.059-.038c.194-.152.391-.3.581-.434s.375-.27.563-.393c.366-.249.731-.466,1.077-.657.1-.065.211-.109.3-.164,1.364-.71,4.412-.854,5.134-.868h.152l.088.014.085.015h.009c.173.023.343.05.508.079l.1.015c.161.029.319.05.478.079.1.015.185.038.279.053l.035.005c.211.035.429.083.64.123.267.053.531.1.8.161.109.021.211.044.32.065s.226.047.334.065c.226.053.446.1.669.141.246.053.5.1.742.152a12.218,12.218,0,0,0,3.91.6c.117-.008.241-.014.369-.029l.089-.008a8.029,8.029,0,0,0,.9-.147c.12-.02.246-.05.36-.079a4.354,4.354,0,0,0,.828-.232l.146-.068.152-.047a1.943,1.943,0,0,1,.311-.088,3.038,3.038,0,0,1,.32-.062,2.23,2.23,0,0,1,.32-.021h.029a2.167,2.167,0,0,1,.317.021,3.092,3.092,0,0,1,.323.062,2.035,2.035,0,0,1,.311.088l.155.047.143.068a4.545,4.545,0,0,0,.83.232c.115.029.241.059.364.079a7.973,7.973,0,0,0,.9.147l.088.008c.132.015.252.021.369.029a12.312,12.312,0,0,0,3.905-.6c.249-.053.493-.1.742-.155.226-.041.443-.086.666-.138l.334-.065c.109-.023.211-.044.32-.065.267-.062.531-.108.8-.161.212-.044.429-.088.64-.126l.038,0c.094-.018.179-.038.273-.053.158-.029.32-.05.478-.079l.1-.015c.17-.029.335-.059.508-.082h.009l.085-.012.091-.017h.149c.719.017,3.773.161,5.143.868.094.059.2.1.3.164.346.191.713.411,1.083.657.191.123.382.252.572.393s.384.285.581.434l.059.038c.068.059.138.109.211.167l-.745-1.091" transform="translate(-10.753 -5.044)" fill="#eaf4fa"/>
      <path id="Path_10548" data-name="Path 10548" d="M210.688,147.056l2.326,3.385.191.276.745,1.091.021.02c.308.264.622.54.936.845l-.015-.056c-.877-2.942-1.593-5.236-1.845-6.066l-.123.059a1.838,1.838,0,0,1-.657.176c-.451.026-.945.232-1.578.27" transform="translate(-23.532 -4.876)" fill="#c9d3d9"/>
      <path id="Path_10549" data-name="Path 10549" d="M200.409,146.031a4.426,4.426,0,0,1-.683.232c-.951.252-12.323.651-19.114.666h-.188c-6.794-.015-18.768-.517-19.205-.546a1.943,1.943,0,0,1-.66-.167s-.044.138-.12.394l.123.056a1.857,1.857,0,0,0,.659.179c.452.026,1.006.047,1.634.086l.141.008.158.006c3.678.2,9.977.457,17.131.455h.463c7.158,0,13.453-.261,17.129-.455l.161-.009.135-.008a10.66,10.66,0,0,0,1.5-.188,3.492,3.492,0,0,0,.733-.258l.123-.059c-.079-.255-.123-.391-.123-.391" transform="translate(-11.018 -4.747)" fill="#b6bfc4"/>
      <path id="Path_10550" data-name="Path 10550" d="M203.916,163.36c0-.971.082-1.945.134-2.922.032-.665.065-1.334.062-2,0-.408-.008-.819-.047-1.217-.018-.182-.041-.363-.077-.54a6.612,6.612,0,0,0-.317-1.15L203.645,153v-.02a4.3,4.3,0,0,0-2.584-1.238h-.023a7.405,7.405,0,0,0-1.314-.1,17.618,17.618,0,0,0-5.706,1.114,12.908,12.908,0,0,1-5.858.8,2.864,2.864,0,0,0-3.189,2.546l-.469,4.512-.056.449-.98,6.744-1.766,1.722-.08.132a1.048,1.048,0,0,0-.085.291l-.015.161-.017,2.031a.994.994,0,0,0,.877.991l3.285.317.006,1.458.587,0a11.865,11.865,0,0,1,6.65,2.054l2.019,1.37a3.538,3.538,0,0,1,1.546,2.916l0,2.49a.868.868,0,0,0,1.458.64l2.059-1.907c1.519-1.4,1.168-3.268,1.531-5.307.141-.8.291-1.66.425-2.458a17.019,17.019,0,0,1,1.916-5.438c.047-.1.109-.2.164-.306v-.005l.068-1.244c-.1-1.311-.158-2.628-.179-3.94l0-.4" transform="translate(-16.264 -6.144)" fill="#ffdbc2"/>
      <path id="Path_10551" data-name="Path 10551" d="M199.035,152.722a4.3,4.3,0,0,0-2.584-1.238h-.023a8.351,8.351,0,0,0-1.314-.1,17.618,17.618,0,0,0-5.706,1.114,12.908,12.908,0,0,1-5.858.8,2.864,2.864,0,0,0-3.189,2.546l-.469,4.512-.056.449-.98,6.744-1.766,1.716v.006l-.08.132a.783.783,0,0,0-.085.291l-.015.161-.026,2.031a1.012,1.012,0,0,0,.886.991l3.285.317,0,1.455h-.3a11.783,11.783,0,0,0-6.645,2.054l-2.016,1.37a3.528,3.528,0,0,0-1.539,2.916l0,2.484a.859.859,0,0,1-.825.871l-.05.006-.035-.006a.774.774,0,0,1-.423-.128l-.05-.044-.065-.05-2.08-1.916c-1.516-1.4-1.258-3.45-1.622-5.495-.135-.792-.291-1.651-.434-2.452a16.839,16.839,0,0,0-1.731-5.087l-.167-1.719c.1-1.308.149-2.628.173-3.937l0-.2c.006-.657-.026-1.312-.068-1.974-.062-1.054-.146-2.109-.143-3.156,0-.408.017-.81.044-1.209a27.575,27.575,0,0,1,.134-5.509,8.271,8.271,0,0,1,3.491-.851,14.847,14.847,0,0,1,2.966.261c.537.1,1.077.205,1.6.311.727.146,1.449.3,2.176.446a11.328,11.328,0,0,0,4.333.572,10.161,10.161,0,0,0,2.27-.529,3.186,3.186,0,0,1,1.1-.22h.029a3.216,3.216,0,0,1,1.106.22,10.205,10.205,0,0,0,2.273.529,11.287,11.287,0,0,0,4.327-.572c.727-.146,1.446-.3,2.17-.446.531-.108,1.068-.217,1.6-.311a14.842,14.842,0,0,1,2.963-.264,8.064,8.064,0,0,1,2.96.62h.008a4.583,4.583,0,0,1,.429.179l.014,1.32" transform="translate(-11.654 -5.885)" fill="#f4c9ab"/>
      <path id="Path_10552" data-name="Path 10552" d="M208.12,173.743c-.291-1.185-1.068-2.9-1.464-4.083-.023-.077-.053-.149-.074-.226-.243-.76-.508-1.514-.774-2.233-.161-.437-.326-.865-.493-1.279l-.05-.126c-.053-.137-.108-.276-.17-.4-.2-.51-.411-1-.625-1.481-.484-1.1-.983-2.115-1.458-3.048-.322-.619-.636-1.2-.945-1.739-.053-.094-.1-.188-.155-.273q-.382-.682-.745-1.27c-.091-.143-.17-.282-.258-.423-.225-.369-.445-.713-.651-1.018-.205-.32-.393-.6-.56-.842l-.065-.091c-.091-.126-.17-.238-.243-.346l-.132-.176c-.079-.114-.152-.208-.211-.293l-.205-.267-.021-.02a15.439,15.439,0,0,0-1.939-1.616c-.314-.226-.628-.423-.927-.6-.1-.068-.2-.123-.3-.179-.118-.068-.226-.132-.335-.194l-.161-.094-.143-.074c-.082-.035-.164-.079-.243-.117a4.583,4.583,0,0,0-.429-.179h-.008a8.064,8.064,0,0,0-2.96-.62,14.841,14.841,0,0,0-2.963.264c-.534.094-1.071.2-1.6.311-.725.146-1.443.3-2.17.446a11.287,11.287,0,0,1-4.327.572,10.206,10.206,0,0,1-2.273-.529,3.216,3.216,0,0,0-1.106-.22H176.9a3.186,3.186,0,0,0-1.1.22,10.161,10.161,0,0,1-2.27.529,11.328,11.328,0,0,1-4.333-.572c-.728-.144-1.449-.3-2.176-.446-.528-.106-1.068-.214-1.6-.311a14.848,14.848,0,0,0-2.966-.261,8.271,8.271,0,0,0-3.491.851l-.137.065c-.1.053-.2.1-.306.167s-.214.123-.331.191a13.94,13.94,0,0,0-1.311.851,15.443,15.443,0,0,0-1.86,1.572l-.2.267a53.354,53.354,0,0,0-7.4,15.046c-.023.074-.053.146-.07.226-.391,1.179-1.15,2.895-1.429,4.08.065-.354.115-.651.17-.885a54.638,54.638,0,0,1,7.779-17.833,11.752,11.752,0,0,1,1.206-1.51c.316-.314.6-.569.868-.8l.065-.059.023-.02c.071-.059.141-.109.208-.167l.059-.038c.194-.152.391-.3.581-.434h0c.191-.14.372-.27.56-.393.366-.249.731-.466,1.077-.657.1-.065.211-.109.3-.164a3.033,3.033,0,0,1,.379-.2,4.14,4.14,0,0,1,.665-.252l.1-.032.059-.014a11.236,11.236,0,0,1,2.628-.384c.34-.009.68-.014,1.024-.009.085.009.173.009.261.024h.074c.094.008.182.023.267.029h.009c.173.023.343.05.508.079l.1.015c.161.029.319.05.478.079.1.015.185.038.279.053l.035.005c.211.035.429.083.64.123.267.053.531.1.8.161l.109.021.161.038.05.006c.108.023.226.047.334.065.226.053.446.1.669.141.246.053.5.1.742.152a12.218,12.218,0,0,0,3.91.6c.117-.008.241-.014.369-.029h.053l.035-.008a8.028,8.028,0,0,0,.9-.147c.12-.02.246-.05.36-.079a7.578,7.578,0,0,0,.974-.3l.152-.047a1.5,1.5,0,0,1,.267-.077l.044-.011a3.039,3.039,0,0,1,.32-.062,2.231,2.231,0,0,1,.32-.021h.029a2.168,2.168,0,0,1,.317.021,3.092,3.092,0,0,1,.323.062l.014,0h.02c.089.023.191.053.276.085l.155.047a7.716,7.716,0,0,0,.973.3c.115.029.241.059.364.079a7.973,7.973,0,0,0,.9.147l.035.008h.053c.132.015.252.021.369.029a12.312,12.312,0,0,0,3.905-.6c.249-.053.493-.1.742-.155.226-.041.443-.086.666-.138.091-.011.185-.035.279-.05l.056-.015.123-.032h.023l.173-.032c.267-.062.531-.108.8-.161.212-.044.429-.088.64-.126l.038,0c.094-.018.179-.038.273-.053.158-.029.32-.05.478-.079l.1-.015c.17-.029.335-.059.508-.082h.009c.085-.006.176-.02.27-.029h.071a2.607,2.607,0,0,1,.261-.021c.343-.008.686,0,1.024.006a11.024,11.024,0,0,1,2.793.431h.008a4.6,4.6,0,0,1,1.042.452c.094.059.2.1.3.164.346.191.713.411,1.083.657.149.1.3.2.445.308l.126.085c.188.135.385.285.581.434l.059.038c.068.059.138.109.211.167l.021.02.067.062c.27.223.555.478.875.792a11.745,11.745,0,0,1,1.22,1.513,55.125,55.125,0,0,1,7.941,17.83c.059.234.111.531.179.885" transform="translate(-7.4 -5.709)" fill="#fff"/>
      <g id="Group_13487" data-name="Group 13487" transform="translate(206.164 193.403)" clip-path="url(#clip-path-5)">
        <path id="Path_10553" data-name="Path 10553" d="M253.223,229.362q-.933,1.668-1.968,3.268c-.235.36-.455.725-.7,1.059a44.519,44.519,0,0,1-3.1,4.224,6.568,6.568,0,0,1-.7.845,2.613,2.613,0,0,1-.223.27,5.468,5.468,0,0,1-.455.52c-.088.111-.2.223-.29.334-.523.634-1.092,1.247-1.657,1.836-.435.458-.88.909-1.335,1.346-.3-1.111-.577-2.2-.833-3.294-.176-.689-.334-1.376-.49-2.057-.08-.343-.144-.665-.223-.976-1.678-7.352-2.291-9.308-3.7-14.791l-.334-1.179-.355-1.271-.457-1.622-.112-1.678a.4.4,0,0,1,.692-.288l1.276,1.411c1.669,2.159,6.862,5.626,10.9,8.372l.012.012.032.023c.388.267.769.52,1.144.778l.035.023a17.79,17.79,0,0,1,2.845,2.833" transform="translate(-236.071 -215.519)" fill="#e3ebf0"/>
      </g>
      <path id="Path_10555" data-name="Path 10555" d="M240.118,242.5c-.522.478-1.056.948-1.6,1.4-.833.745-1.71,1.446-2.6,2.1-.167.129-.331.252-.5.387-.129-.768-.24-1.522-.352-2.29-.713-4.858-1.158-8.819-1.924-16.349-.246-2.423-.423-4.424-.534-5.591-.1-1.071-.188-2.1-.27-3.1-.053-.59-.1-1.176-.141-1.745l-.011-.147-.012-.008V217.1a2.569,2.569,0,0,0-.023-.29l-.012-.1v-.077c-.032-.381-.065-.756-.088-1.123-.044-.593-.088-1.156-.132-1.713,0-.12-.012-.232-.023-.355-.012-.234-.032-.457-.044-.68l-.011-.088c-.012-.179-.021-.343-.032-.514-.047-.686-.089-1.352-.135-1.989a2.327,2.327,0,0,1-.023-.276c-.032-.5-.053-.992-.077-1.458-.011-.158-.023-.3-.035-.445l.481-.077h.009l.091-.012.431-.067c-.012-.089-.029-.144-.029-.179a5.351,5.351,0,0,1,.654,1.745v.035c.487,2.781,1.079,5.806,1.669,8.819.586,2.924,1.188,5.84,1.745,8.507.1.478.2.944.3,1.413.355,1.722.7,3.3.989,4.67.047.232.088.455.134.678.267,1.191.466,2.167.6,2.813.423,2,.933,4.08,1.511,6.16" transform="translate(-28.723 -20.094)" fill="#eaf4fa"/>
      <path id="Path_10556" data-name="Path 10556" d="M240.163,231.856c.255,1.091.534,2.182.833,3.294v.009c-.487.5-.979.98-1.49,1.446-.578-2.08-1.088-4.157-1.511-6.16-.135-.646-.334-1.622-.6-2.813-.047-.223-.088-.446-.134-.678-.288-1.367-.634-2.948-.989-4.67-.1-.469-.2-.936-.3-1.413-.6-2.781-1.235-5.77-1.836-8.539-.933-4.447-1.769-8.34-2.092-9.874a.562.562,0,0,0-.542-.446l-.091.012H231.4a.52.52,0,0,0-.446.522l-.011.056c.023.445.056.909.088,1.4a2.327,2.327,0,0,0,.023.276c.035.637.079,1.3.135,1.989.011.17.02.335.032.514l.011.088c.012.223.032.446.044.68.011.112.023.235.023.355.044.557.088,1.12.132,1.713.035.367.056.743.088,1.123v.077l.012.1a2.569,2.569,0,0,1,.023.29l.012.065.011.147c.041.569.088,1.147.141,1.745.082,1,.17,2.033.27,3.1.111,1.167.288,3.168.534,5.591.766,7.53,1.211,11.491,1.924,16.349.112.768.223,1.522.352,2.29-.322.244-.654.49-.988.737l-.021-.091c-.067-.4-.131-.78-.2-1.168-.088-.5-.164-1-.24-1.5-.047-.279-.094-.545-.123-.822-.071-.357-.112-.7-.158-1.047-.089-.586-.176-1.168-.255-1.722-.044-.311-.088-.622-.123-.936-.032-.235-.065-.469-.088-.686s-.056-.4-.077-.593-.047-.391-.068-.578c-.044-.375-.091-.736-.132-1.088-.059-.522-.123-1.024-.17-1.493l-.021-.153c0-.111-.02-.234-.02-.334q-.123-1.122-.194-1.892c-.006-.176-.029-.332-.041-.478-.059-.745-.089-1.156-.089-1.156s-.011-.167-.023-.478c-.011-.056-.011-.111-.023-.179l-.012-.144v-.211c-.02-.3-.041-.666-.076-1.1a2.254,2.254,0,0,0-.024-.39v-.164c-.011-.211-.032-.434-.044-.669-.02-.454-.056-.936-.088-1.458a4.666,4.666,0,0,0-.032-.522c-.012-.332-.035-.689-.059-1.057-.009-.158-.021-.322-.032-.49-.044-.669-.089-1.367-.123-2.1-.032-.434-.053-.88-.089-1.322s-.056-.912-.088-1.382c-.056-.9-.111-1.854-.179-2.834l-.009-.111c-.059-.989-.134-2-.2-3.036-.024-.334-.047-.678-.071-1.024-.276-4.148-.59-8.472-.912-12.365,0-.077-.009-.147-.009-.223-.354-4.48-.445-8.029-.625-10.241.17,1.379.358,3.124.534,5.125v.012c.478,2.734,1.135,6.04,1.913,9.642.047.2.3,1.176.692,2.558a26.175,26.175,0,0,0,4.244,8.073l-1.276-1.411a.4.4,0,0,0-.692.288,16.718,16.718,0,0,0,.569,3.3l.355,1.271.334,1.179c1.411,5.483,2.024,7.439,3.7,14.791.079.311.143.633.223.976.155.681.313,1.368.49,2.057" transform="translate(-28.111 -14.201)" fill="#dce6ed"/>
      <path id="Path_10557" data-name="Path 10557" d="M213.875,256.039c-.443.164-.889.323-1.355.463q-.783-6.2-1.367-12.8a318.112,318.112,0,0,1-1.191-32.626l.979.411.053.023c.035,1.634.082,3.4.134,5.292.012.246.012.493.024.725.023.669.044,1.367.053,2.068.023.346.035.689.047,1.045.167,4.728.4,9.962.746,15.289.008.211.02.434.044.657.311,4.829.713,9.733,1.211,14.376.056.493.112.971.167,1.446.144,1.235.291,2.438.455,3.629" transform="translate(-23.343 -20.946)" fill="#d1dbe3"/>
      <path id="Path_10558" data-name="Path 10558" d="M222.785,169.876a53.8,53.8,0,0,0-7.2-14.007l-.2-.27-.132-.123-.088-.085-.2-.182a2.105,2.105,0,0,0-1.825-.517,2.18,2.18,0,0,0-1.766,1.657v.006a1.871,1.871,0,0,0-.05.334l-.005.17-.252,3.684-.059-5-.026-2.532v-.02l-.014-1.32a2,2,0,0,1,.387.191l.161.094c.109.062.217.126.335.194.1.056.205.111.3.179.308.176.6.349.918.56v.006a12.1,12.1,0,0,1,1.948,1.654l.021.02.205.267c.059.085.132.179.211.293l.132.176c.074.108.152.22.243.346l.065.091c.167.246.355.522.56.842s.426.648.651,1.018c.089.141.167.279.258.423q.362.589.745,1.27c.053.086.1.179.155.273.309.539.623,1.12.945,1.739.475.933.974,1.951,1.458,3.048.205.484.425.971.625,1.481.062.129.117.267.17.4l.05.126c.167.414.331.842.493,1.279.267.719.531,1.473.774,2.233" transform="translate(-23.602 -6.151)" fill="#c9d3d9"/>
      <path id="Path_10559" data-name="Path 10559" d="M210.106,205.969l0,.094-.05-.02-.985-.408-1.622-.66a2.837,2.837,0,0,0-.035-.294l-.176-1.513-.105-.816v-.009l-.077-.651-.542-4.652h-.006l-.138-1.18.065-.059.285-.261c.188-.173.36-.349.534-.517.276-.267.528-.531.768-.777l.17-.191.167-.182c.1-.117.2-.235.3-.349l.14-.167a5.228,5.228,0,0,0,.681-1.021,10.9,10.9,0,0,0,.451-2.86c.006-.094.012-.188.021-.282l.029,6.354s0,4.1.123,10.42" transform="translate(-22.457 -15.496)" fill="#c7d5e0"/>
      <path id="Path_10560" data-name="Path 10560" d="M229.321,234.171a61,61,0,0,1-15.169,8.061c-.164-1.191-.311-2.393-.455-3.629-.056-.475-.111-.953-.167-1.446-.5-4.643-.9-9.548-1.211-14.376-.023-.223-.035-.446-.044-.657-.346-5.327-.578-10.561-.746-15.289-.011-.355-.023-.7-.047-1.045-.009-.7-.029-1.4-.053-2.068-.012-.232-.012-.478-.024-.725-.053-1.889-.1-3.658-.134-5.292v-.088c-.129-6.316-.129-10.432-.129-10.432v-.533l-.012-1.147-.011-4.6v-.068l-.047-10.287v-.009l-.029-6.418c0-.933.009-1.869.053-2.8.047-1.159.123-2.314.246-3.47v-.17a1.668,1.668,0,0,1,.053-.322v-.021a1.857,1.857,0,0,1,.258-.622l.1-.155a1.111,1.111,0,0,1,.176-.211,1.045,1.045,0,0,1,.2-.191l.065-.053.146-.1a1.5,1.5,0,0,1,.223-.12,1.354,1.354,0,0,1,.288-.123,2.07,2.07,0,0,1,.291-.077h.02l.044-.014.3-.032h.032a2.492,2.492,0,0,1,.4.032l.024.014a3.092,3.092,0,0,1,.334.088l.143.077a1.962,1.962,0,0,1,.546.346,1.386,1.386,0,0,1,.188.188l.088.076.091.092h.009l.012.023.023.02.211.267a54.065,54.065,0,0,1,7.2,14c.02.083.044.158.068.235.4,1.179,1.176,2.892,1.467,4.083.079.466.155,1.045.232,1.711l.011.047c.179,2.212.27,5.761.625,10.241,0,.076.009.146.009.223.323,3.892.637,8.216.912,12.365.023.345.047.689.071,1.024.065,1.036.14,2.047.2,3.036l.009.111c.068.98.123,1.933.179,2.834.032.469.065.936.088,1.382s.056.888.089,1.322c.035.734.079,1.431.123,2.1.011.167.023.332.032.49.023.367.047.725.059,1.057a4.666,4.666,0,0,1,.032.522c.032.522.068,1,.088,1.458.012.235.032.458.044.669v.164a2.254,2.254,0,0,1,.024.39c.035.434.056.8.076,1.1v.211l.012.144c.012.068.012.123.023.179.012.311.023.478.023.478s.029.411.089,1.156c.011.146.035.3.041.478q.071.769.194,1.892c0,.1.02.223.02.334l.021.153c.047.469.111.971.17,1.493.041.352.089.713.132,1.088.02.188.044.378.068.578s.044.39.077.593.056.451.088.686c.035.314.079.625.123.936.079.554.167,1.135.255,1.722.047.346.088.689.158,1.047.029.276.076.543.123.822.076.5.152,1,.24,1.5.071.387.135.766.2,1.168l.021.091" transform="translate(-23.62 -7.139)" fill="#eaf4fa"/>
    </g>
  </g>
</svg>
