<svg xmlns="http://www.w3.org/2000/svg" xmlns:xlink="http://www.w3.org/1999/xlink" width="119.182" height="119.182" viewBox="0 0 119.182 119.182">
  <defs>
    <clipPath id="clip-path">
      <path id="Path_10266" data-name="Path 10266" d="M59.591,0A59.591,59.591,0,1,1,0,59.591,59.591,59.591,0,0,1,59.591,0Z" transform="translate(-20352 -20639.125)" fill="#5c8dba"/>
    </clipPath>
  </defs>
  <g id="Avatar_Male" transform="translate(20352 20639.125)">
    <path id="Path_10267" data-name="Path 10267" d="M59.591,0A59.591,59.591,0,1,1,0,59.591,59.591,59.591,0,0,1,59.591,0Z" transform="translate(-20352 -20639.125)" fill="#5071b6"/>
    <g id="Mask_Group_5" data-name="Mask Group 5" clip-path="url(#clip-path)">
      <g id="Group_12748" data-name="Group 12748" transform="translate(-126 5.941)">
        <path id="Rectangle_9930" data-name="Rectangle 9930" d="M5,0H62a5,5,0,0,1,5,5V31a0,0,0,0,1,0,0H0a0,0,0,0,1,0,0V5A5,5,0,0,1,5,0Z" transform="translate(-20199 -20613)" fill="#edf9f7"/>
        <path id="Rectangle_9929" data-name="Rectangle 9929" d="M5,0H76a5,5,0,0,1,5,5V44a0,0,0,0,1,0,0H0a0,0,0,0,1,0,0V5A5,5,0,0,1,5,0Z" transform="translate(-20206 -20583)" fill="#e1ecf6"/>
        <path id="Path_10265" data-name="Path 10265" d="M0,0,36.736,0V9.471L0,9.467Z" transform="translate(-20184 -20559)" fill="#fefffd"/>
        <path id="Path_10264" data-name="Path 10264" d="M0,0H36.705V5.158H0Z" transform="translate(-20184 -20564)" fill="#bb6f7b"/>
        <path id="Path_10258" data-name="Path 10258" d="M-20206.045-20538.945l22.078-10.754,36.662.188,22.148,10.566v12.527l-80.889.533Z" fill="#fefffd"/>
        <rect id="Rectangle_9925" data-name="Rectangle 9925" width="57" height="4" rx="2" transform="translate(-20193 -20621)" fill="#292d38"/>
        <rect id="Rectangle_9926" data-name="Rectangle 9926" width="57" height="4" rx="2" transform="translate(-20193 -20617)" fill="#292d38"/>
        <path id="Path_10244" data-name="Path 10244" d="M-20140.389-20623h-47.9s5.078-13.375,23.574-13.309S-20140.389-20623-20140.389-20623Z" transform="translate(0 2)" fill="#edf9f7"/>
        <rect id="Rectangle_9928" data-name="Rectangle 9928" width="61" height="8" rx="4" transform="translate(-20196 -20595)" fill="#d2dfe7"/>
        <rect id="Rectangle_9927" data-name="Rectangle 9927" width="47" height="9" rx="4.5" transform="translate(-20189 -20611)" fill="#d4e1f1"/>
        <path id="Path_10252" data-name="Path 10252" d="M-20174.578-20610.711c3.5.113,17.6,0,17.6,0a10.455,10.455,0,0,1,9.092,5.785c.961,1.979,1.02,5.57.8,10.033.123-.061,6.039,0,6.039,0l-.057,12.986a22.363,22.363,0,0,0-2.721,7.674c-.686,2.7.076,5.619-4.561,13.879-5.344,8.5-16.791,8.219-16.791,8.219s-9.832-.449-15.113-6.018a18.946,18.946,0,0,1-5.283-11.949s.207-7.9-4.869-12.166l.205-12.686s6.773-1.656,6.658-6.289S-20178.037-20611.047-20174.578-20610.711Z" fill="#f3a5a5"/>
        <path id="Subtraction_46" data-name="Subtraction 46" d="M10.1,20.459H10.04C6.951,20.413.069,17.007,0,16.973V1.641l.021-.006C.742,1.468,7.147,0,9.967,0c.152,0,.293,0,.42.013,2.7.178,9.5,1.614,9.564,1.629V16.973l-.006,0C19.669,17.119,13.144,20.459,10.1,20.459ZM18.375,6.541l-6.294,5.423c.006.026.694,2.7,2.44,2.822.053,0,.1.005.158.005,1.715,0,3.677-1.975,3.7-2ZM1.661,6.43v6.256c.019.019,1.971,2,3.695,2,.053,0,.106,0,.158-.005,1.749-.127,2.433-2.795,2.44-2.822Z" transform="translate(-20174.652 -20575.078)" fill="#4b1f2e"/>
        <path id="Path_10255" data-name="Path 10255" d="M-20172.965-20570.889h16.688v2.344a15.006,15.006,0,0,1-2.633,3.123,17.771,17.771,0,0,1-3.625,2.314l-4.146-.094a17.534,17.534,0,0,1-3.473-2.221,18.713,18.713,0,0,1-2.811-3.123Z" fill="#fbfef5"/>
        <path id="Path_10263" data-name="Path 10263" d="M-20301.355-20609.965a10.053,10.053,0,0,1,8.227,5.344h-33.906s2.574-4.619,7-5.344Z" transform="translate(144.851 -1)" fill="#e1928e"/>
        <rect id="Rectangle_9931" data-name="Rectangle 9931" width="2" height="26" transform="translate(-20166 -20552)" fill="#d1d9dc"/>
        <rect id="Rectangle_9932" data-name="Rectangle 9932" width="2" height="9" transform="translate(-20166 -20552)" fill="#e3e9e9"/>
      </g>
    </g>
  </g>
</svg>