<svg xmlns="http://www.w3.org/2000/svg" width="17.001" height="18.356" viewBox="0 0 17.001 18.356">
  <g id="Plea" transform="translate(12183.671 -5000.229)">
    <path id="Path_10437" data-name="Path 10437" d="M189.433,50.367l-.02-5.745a3.521,3.521,0,0,0-1.047-2.706l-2.5-2.452a1.2,1.2,0,0,0-1.59-.064,1.158,1.158,0,0,0-.388.856,1.158,1.158,0,0,0-.388-.856,1.2,1.2,0,0,0-1.59.064l-2.5,2.452a3.521,3.521,0,0,0-1.047,2.706l-.02,5.745-1.039,1.639,4.694,2.271c.012.008.024.012.036.02l1.317-2.464a1.11,1.11,0,0,0,.129-.64l.27-4.131a1.15,1.15,0,1,0-2.291.2c0,.024-.012.906-.02,1.647a.486.486,0,1,1-.97-.04l.258-3.615a2.9,2.9,0,0,1,.845-2.194l1.941-1.945a1.146,1.146,0,0,0,.372-.852,1.146,1.146,0,0,0,.372.852l1.941,1.945a2.9,2.9,0,0,1,.845,2.194l.258,3.615a.486.486,0,1,1-.97.04c-.008-.741-.02-1.623-.02-1.647a1.15,1.15,0,1,0-2.291-.2l.27,4.131a1.109,1.109,0,0,0,.129.64l1.317,2.464c.012-.008.024-.012.036-.02l4.694-2.271Z" transform="translate(-12359.063 4961.102)" fill="#666"/>
    <path id="Path_10438" data-name="Path 10438" d="M407.94,395.214l-.748-1.546a.493.493,0,0,0-.658-.229l-4.806,2.326a.493.493,0,0,0-.229.658l.748,1.546a.493.493,0,0,0,.658.229l4.806-2.326A.493.493,0,0,0,407.94,395.214Z" transform="translate(-12574.659 4620.337)" fill="#666"/>
    <path id="Path_10439" data-name="Path 10439" d="M133.185,395.757l-4.806-2.326a.493.493,0,0,0-.658.229l-.748,1.546a.493.493,0,0,0,.229.658l4.806,2.326a.493.493,0,0,0,.658-.229l.748-1.546A.493.493,0,0,0,133.185,395.757Z" transform="translate(-12310.594 4620.346)" fill="#666"/>
  </g>
</svg>
