<svg xmlns="http://www.w3.org/2000/svg" width="3.125" height="3.125" viewBox="0 0 26.938 26.938">
  <g id="Violations_Details_icon" data-name="Violations Details icon" transform="translate(15974.775 3491)">
    <path id="Subtraction_1" data-name="Subtraction 1" d="M5.792,16.648a.635.635,0,0,1-.351-.1l-2.3-1.5L.992,16.534a.653.653,0,0,1-.65.048A.592.592,0,0,1,0,16.049V.6A.612.612,0,0,1,.624,0h12.6a.646.646,0,0,1,.392.132l3.9,3a.587.587,0,0,1,.234.466V16.05a.6.6,0,0,1-.3.511.64.64,0,0,1-.323.087.65.65,0,0,1-.289-.068L13.664,15l-2.554,1.556a.65.65,0,0,1-.705-.023L8.353,15.082,6.147,16.541A.641.641,0,0,1,5.792,16.648ZM4.2,10.053a.624.624,0,0,0,0,1.249h9.618a.624.624,0,0,0,0-1.249ZM7.284,7.009a.624.624,0,1,0,0,1.249h6.54a.624.624,0,0,0,0-1.249ZM12.855.646a.625.625,0,0,0-.624.624V4.59a.625.625,0,0,0,.624.624h3.689a.624.624,0,0,0,0-1.249H13.479V1.27A.625.625,0,0,0,12.855.646Z" transform="translate(-15974.775 -3491)" fill="#fff"/>
    <path id="Subtraction_2" data-name="Subtraction 2" d="M17.118,8.492H.624A.624.624,0,0,1,0,7.868v-5.4a.627.627,0,0,1,.262-.509l2.5-1.78A.624.624,0,0,1,3.476.174L5.8,1.755,8.026.317a.623.623,0,0,1,.7.013l2.06,1.45,2.5-1.674A.618.618,0,0,1,13.632,0a.626.626,0,0,1,.3.075l3.485,1.879a.623.623,0,0,1,.328.55V7.868A.624.624,0,0,1,17.118,8.492ZM4.2,4.808a.624.624,0,1,0,0,1.249h9.618a.624.624,0,1,0,0-1.249Z" transform="translate(-15974.774 -3474.492)" fill="#fff"/>
  </g>
</svg>
