<svg xmlns="http://www.w3.org/2000/svg" width="20.582" height="26.866" viewBox="0 0 20.582 26.866"><defs><style>.a{fill:#1baf5d;}</style></defs><g transform="translate(-468.742 -362)"><path class="a" d="M20.895,38.141l-.373-3.351a.99.99,0,0,0-.34-.578l-3.7-2.856a1.337,1.337,0,0,0-.718-.227s-1.8.029,1.295,3.033l-2.776-1.227a.608.608,0,0,1-.357-.507l.086-2.8c-.133-1.4-1.285-1.208-1.285-1.208a.541.541,0,0,0-.444.411l-.541,4.6a.865.865,0,0,0,.222.61l4.021,4.1Z" transform="translate(457 350.725)"/><path class="a" d="M30.262,38.141l4.021-4.1a.861.861,0,0,0,.222-.61l-.54-4.6a.54.54,0,0,0-.444-.411s-1.154-.193-1.285,1.208l.085,2.8a.606.606,0,0,1-.357.507l-2.776,1.227c3.1-3,1.295-3.033,1.295-3.033a1.323,1.323,0,0,0-.718.227l-3.7,2.856a1,1,0,0,0-.341.578l-.37,3.351Z" transform="translate(454.815 350.725)"/><path class="a" d="M29.692,28.055a.949.949,0,0,0-1.151-.61c-.283.076-.568.143-.853.207-.17-.564-.315-1.137-.428-1.715h.419a.9.9,0,1,0,0-1.8H17.614a.9.9,0,0,0,0,1.8h.42q-.171.868-.428,1.715c-.285-.064-.57-.131-.853-.207a.948.948,0,0,0-1.151.61.917.917,0,0,0,.688,1.135A24.881,24.881,0,0,0,29,29.19.917.917,0,0,0,29.692,28.055ZM19.34,27.971a19.418,19.418,0,0,0,.478-2.033h5.657a19.684,19.684,0,0,0,.478,2.033A23.021,23.021,0,0,1,19.34,27.971Z" transform="translate(456.387 351.412)"/><path class="a" d="M30.362,8a1.309,1.309,0,0,0-1.023.432,12.6,12.6,0,0,0-2.768,6.338h-9.9c-.062,0-.412-.024-.533-.024a1.541,1.541,0,0,0,0,3.083,1.584,1.584,0,0,0,.23-.019l.384,2.15a1.182,1.182,0,0,0,1.209.986h9.068a.986.986,0,0,0,.987-.986,33.727,33.727,0,0,1,.712-6.338A11.826,11.826,0,0,1,29.745,11.1,1.61,1.61,0,1,0,30.362,8Z" transform="translate(456.543 354.001)"/></g></svg>