<svg xmlns="http://www.w3.org/2000/svg" width="24" height="24" viewBox="0 0 24 24"><defs><style>.a{fill:#1baf5d;}</style></defs><path class="a" d="M23.255-2.922a.75.75,0,0,0-1.005-.338l-1.7.86-2.7-5.738A1.635,1.635,0,0,0,16.5-9H10.3l-.214-1.5H15.75a.75.75,0,0,0,.75-.75v-1.5a.75.75,0,0,0-.75-.75H9.658l-.219-1.532A3,3,0,0,0,12-18.081,3.01,3.01,0,0,0,9.143-21,3,3,0,0,0,6-18c.018.283-.073-.407,1.515,10.712A1.5,1.5,0,0,0,9-6h6.547L18.49.263a1.5,1.5,0,0,0,2.024.706L23.583-.573a.75.75,0,0,0,.338-1.005ZM14.595-4.5H13.446A5.258,5.258,0,0,1,8.25,0,5.256,5.256,0,0,1,3-5.25,5.253,5.253,0,0,1,5.64-9.8L5.2-12.914A8.263,8.263,0,0,0,0-5.25,8.259,8.259,0,0,0,8.25,3,8.262,8.262,0,0,0,15.8-1.931Z" transform="translate(0 21)"/></svg>