<svg xmlns="http://www.w3.org/2000/svg" width="21.223" height="18.755" viewBox="0 0 21.223 18.755"><defs><style>.a{fill:#1baf5d;}</style></defs><g transform="translate(-480.444 -294.999)"><path class="a" d="M8299.769-11608.268h-12.547a1.224,1.224,0,0,1-1.223-1.223v-13.323a1.224,1.224,0,0,1,1.223-1.223h4.683v-.724a2.244,2.244,0,0,1,2.241-2.241h4.885a2.244,2.244,0,0,1,2.241,2.241v.724H8306a1.224,1.224,0,0,1,1.223,1.223v6.838a6.005,6.005,0,0,0-5.667-4.025,6.006,6.006,0,0,0-6,6,5.976,5.976,0,0,0,4.213,5.731Zm-5.623-17.354a.862.862,0,0,0-.86.861v.724h6.583v-.724a.863.863,0,0,0-.861-.861Z" transform="translate(-7805.555 11922)"/><path class="a" d="M67.761,58.2a4.361,4.361,0,1,0,0,8.722,4.419,4.419,0,0,0,2.12-.545L70,66.316l.03.03,1.726,1.726a.944.944,0,0,0,.636.273h0a.825.825,0,0,0,.636-.273.872.872,0,0,0,.273-.636.825.825,0,0,0-.273-.636l-1.7-1.7.091-.121a4.523,4.523,0,0,0,.727-2.392A4.394,4.394,0,0,0,67.761,58.2Zm0,7.117a2.756,2.756,0,1,1,2.756-2.756A2.766,2.766,0,0,1,67.761,65.317Z" transform="translate(428.317 245.409)"/></g></svg>