<svg xmlns="http://www.w3.org/2000/svg" width="188.789" height="188.903" viewBox="0 0 188.789 188.903">
  <g id="Group_13539" data-name="Group 13539" transform="translate(16706.381 15475.515)">
    <g id="Group_13245" data-name="Group 13245" transform="translate(724.619 806.795)">
      <g id="Ellipse_894" data-name="Ellipse 894" transform="translate(-17431 -16282)" fill="none" stroke="#e6e7e7" stroke-width="6">
        <circle cx="84" cy="84" r="84" stroke="none"/>
        <circle cx="84" cy="84" r="81" fill="none"/>
      </g>
      <g id="Layer_1" transform="translate(-17454.848 -16256.363)">
        <g id="Group_13244" data-name="Group 13244" transform="translate(59.08 36.27)">
          <g id="Group_13242" data-name="Group 13242" transform="translate(0 0)">
            <path id="Path_10405" data-name="Path 10405" d="M367.135,36.27h-.377a6.115,6.115,0,0,0-3.241.909C360.154,39.228,359,44.027,359,44.027h3.713c.135,0,.261-.005.391-.013,4.365-.262,6.407-4.848,7.089-6.835.191-.555.275-.909.275-.909Z" transform="translate(-278.131 -36.27)" fill="#1a5632"/>
            <g id="Group_13241" data-name="Group 13241" transform="translate(0 7.76)">
              <path id="Path_10406" data-name="Path 10406" d="M80.9,145.57a1.431,1.431,0,1,0,1.416,1.445A1.412,1.412,0,0,0,80.9,145.57Z" transform="translate(-73.979 -123.858)" fill="#1a5632"/>
              <path id="Path_10407" data-name="Path 10407" d="M95.546,145.57a1.431,1.431,0,1,0,1.416,1.445A1.431,1.431,0,0,0,95.546,145.57Z" transform="translate(-84.679 -123.858)" fill="#1a5632"/>
              <path id="Path_10408" data-name="Path 10408" d="M161.546,72.331a1.416,1.416,0,1,0,0-2.831,1.405,1.405,0,0,0-1.416,1.416A1.387,1.387,0,0,0,161.546,72.331Z" transform="translate(-132.883 -68.3)" fill="#1a5632"/>
              <path id="Path_10409" data-name="Path 10409" d="M176.2,69.49a1.416,1.416,0,0,0,0,2.831,1.425,1.425,0,0,0,1.418-1.416A1.409,1.409,0,0,0,176.2,69.49Z" transform="translate(-143.583 -68.292)" fill="#1a5632"/>
              <path id="Path_10410" data-name="Path 10410" d="M88.559,98.887H82.29V93.71c0-3.732-1.526-5.94-6.075-5.94a26.269,26.269,0,0,0-4.959.518v10.6H68.914c-5.695,0-7.329-2.1-7.329-6.239a11.272,11.272,0,0,1,1.062-4.686l-2.7.437a12.171,12.171,0,0,0-.871,4.549c0,5.177,2.642,7.927,9.507,7.927h5.093v-10.9a14.424,14.424,0,0,1,2.289-.218c2.753,0,3.869,1.2,3.869,4.276v6.838H91.07v-12.8H88.562V98.887Z" transform="translate(-59.08 -81.643)" fill="#1a5632"/>
              <path id="Path_10411" data-name="Path 10411" d="M235.862,72.351a1.513,1.513,0,0,0,1.5-1.5,1.486,1.486,0,0,0-2.971,0A1.506,1.506,0,0,0,235.862,72.351Z" transform="translate(-187.12 -68.212)" fill="#1a5632"/>
              <path id="Path_10412" data-name="Path 10412" d="M264.1,145.57a1.431,1.431,0,1,0,1.416,1.445A1.412,1.412,0,0,0,264.1,145.57Z" transform="translate(-207.782 -123.858)" fill="#1a5632"/>
              <path id="Path_10413" data-name="Path 10413" d="M278.756,145.57a1.43,1.43,0,1,0,1.418,1.445A1.431,1.431,0,0,0,278.756,145.57Z" transform="translate(-218.489 -123.858)" fill="#1a5632"/>
              <path id="Path_10414" data-name="Path 10414" d="M228.013,71.177a6.387,6.387,0,0,0-6.811,6.647c0,2.316.682,3.759,2.017,4.605a8.263,8.263,0,0,0-1.58-.135h-6.021V71.477h-2.5V82.292h-7.059V71.477h-2.5V82.292h-7.029V65.076a28.539,28.539,0,0,0-4.659.191v1.472c.736.054,1.526.164,2.152.272V84.284h39.836v-7C233.845,73.383,231.909,71.177,228.013,71.177Zm3.379,11.114h-2.7c-3.486,0-4.959-1.5-4.959-4.605,0-2.723,1.526-4.522,4.061-4.522,2.262,0,3.6,1.281,3.6,4.522v4.605Z" transform="translate(-156.058 -65.048)" fill="#1a5632"/>
              <path id="Path_10415" data-name="Path 10415" d="M397.1,72.331a1.416,1.416,0,1,0,0-2.831,1.405,1.405,0,0,0-1.416,1.416A1.385,1.385,0,0,0,397.1,72.331Z" transform="translate(-304.92 -68.3)" fill="#1a5632"/>
              <path id="Path_10416" data-name="Path 10416" d="M411.736,69.49a1.416,1.416,0,0,0,0,2.831,1.422,1.422,0,0,0,1.416-1.416A1.4,1.4,0,0,0,411.736,69.49Z" transform="translate(-315.613 -68.292)" fill="#1a5632"/>
              <path id="Path_10417" data-name="Path 10417" d="M371.123,85.644h-7.464V69.652A31.762,31.762,0,0,0,359,69.87v1.472c.736.054,1.526.164,2.152.272V87.634H373.63V74.829h-2.5V85.644Z" transform="translate(-278.131 -68.4)" fill="#1a5632"/>
            </g>
          </g>
          <g id="Group_13243" data-name="Group 13243" transform="translate(0.305 35.117)">
            <path id="Path_10418" data-name="Path 10418" d="M60.21,193.622h4.875a4.927,4.927,0,0,0-.968-3.206,5.86,5.86,0,0,0-3.028-1.772l.138-1.464a8.136,8.136,0,0,1,2.138.76,6.041,6.041,0,0,1,1.661,1.275,5.457,5.457,0,0,1,1.068,1.753,6.224,6.224,0,0,1,.377,2.222v1.645H60.21Z" transform="translate(-60.21 -181.607)" fill="#b8d637"/>
            <path id="Path_10419" data-name="Path 10419" d="M90.131,185.041H88.747V174.862c-.183-.03-.4-.059-.639-.084l-.7-.07v-.814c.388-.051.828-.086,1.316-.108s.955-.022,1.407,0v11.255Z" transform="translate(-80.076 -171.812)" fill="#b8d637"/>
            <path id="Path_10420" data-name="Path 10420" d="M104.93,196.467a6.678,6.678,0,0,1-.162,1.521,2.957,2.957,0,0,1-.561,1.192,2.718,2.718,0,0,1-1.068.785,4.38,4.38,0,0,1-1.7.283,7.248,7.248,0,0,1-.8-.046l.154-1.383a5.419,5.419,0,0,0,.677.046,2,2,0,0,0,1.583-.561,2.621,2.621,0,0,0,.491-1.761V189.33h1.383v5.843h2.06v1.23h-2.06v.065Z" transform="translate(-89.739 -183.177)" fill="#b8d637"/>
            <path id="Path_10421" data-name="Path 10421" d="M123.05,211.07h4.368v1.213H123.05Z" transform="translate(-106.106 -199.055)" fill="#b8d637"/>
            <path id="Path_10422" data-name="Path 10422" d="M138.1,211.07h4.368v1.213H138.1Z" transform="translate(-117.098 -199.055)" fill="#b8d637"/>
            <path id="Path_10423" data-name="Path 10423" d="M153.16,211.07h4.368v1.213H153.16Z" transform="translate(-128.097 -199.055)" fill="#b8d637"/>
            <path id="Path_10424" data-name="Path 10424" d="M168.21,185.6h2.429a3.524,3.524,0,0,1-.561-.968,3.94,3.94,0,0,1-.253-1.507,4.023,4.023,0,0,1,.224-1.321,3.508,3.508,0,0,1,.661-1.154,3.241,3.241,0,0,1,1.092-.814,3.488,3.488,0,0,1,1.5-.307,3.34,3.34,0,0,1,1.416.278,2.857,2.857,0,0,1,1,.752,3.191,3.191,0,0,1,.6,1.108,4.434,4.434,0,0,1,.2,1.337,4.245,4.245,0,0,1-.27,1.545,3.6,3.6,0,0,1-.76,1.208,3.514,3.514,0,0,1-1.184.793,4.021,4.021,0,0,1-1.537.283h-4.551V185.6Zm4.859.016a1.718,1.718,0,0,0,1.507-.7,3.093,3.093,0,0,0,.491-1.823,3.642,3.642,0,0,0-.108-.884,2.308,2.308,0,0,0-.345-.777,1.813,1.813,0,0,0-.607-.545,1.77,1.77,0,0,0-.876-.208,1.668,1.668,0,0,0-.83.2,1.728,1.728,0,0,0-.585.531,2.259,2.259,0,0,0-.337.768,3.825,3.825,0,0,0-.108.93,3.741,3.741,0,0,0,.108.893,2.716,2.716,0,0,0,.332.806,1.878,1.878,0,0,0,.561.585A1.434,1.434,0,0,0,173.069,185.617Zm-.016-7.55a.828.828,0,0,1-.639-.278.938.938,0,0,1-.253-.661.9.9,0,0,1,.253-.639.839.839,0,0,1,.639-.27.789.789,0,0,1,.623.27.93.93,0,0,1,.237.639.975.975,0,0,1-.237.661A.779.779,0,0,1,173.053,178.067Z" transform="translate(-139.089 -173.602)" fill="#b8d637"/>
            <path id="Path_10425" data-name="Path 10425" d="M206.111,167.316c-.092-.011-.181-.019-.262-.024s-.164-.008-.245-.008a.655.655,0,0,0-.423.129.438.438,0,0,0-.162.361.581.581,0,0,0,.183.415.865.865,0,0,0,.631.183h.644v.876H203.45v-.876q.17,0,.493.008a1.77,1.77,0,0,1,.539.084.8.8,0,0,1-.283-.315,1.1,1.1,0,0,1-.084-.469,1.019,1.019,0,0,1,.415-.855,1.706,1.706,0,0,1,1.06-.315q.154,0,.332.016c.119.011.243.024.377.046Zm.092,12.422H204.82V171.59c-.183-.03-.4-.059-.639-.084l-.7-.07v-.814c.388-.051.828-.086,1.316-.108s.955-.022,1.408,0v9.224Z" transform="translate(-164.827 -166.51)" fill="#b8d637"/>
          </g>
        </g>
      </g>
      <path id="Path_10426" data-name="Path 10426" d="M3.011,167.727a2.914,2.914,0,1,1,0-5.824c44.483,0,80.675-35.008,80.675-78.039S47.495,5.824,3.011,5.824A2.962,2.962,0,0,1,0,2.913,2.963,2.963,0,0,1,3.011,0c47.8,0,86.7,37.621,86.7,83.863S50.815,167.727,3.011,167.727Z" transform="matrix(0.966, 0.259, -0.259, 0.966, -17330.697, -16280.473)" fill="#0d8659" stroke="#0d8659" stroke-width="3"/>
    </g>
  </g>
</svg>
