<svg xmlns="http://www.w3.org/2000/svg" width="17.397" height="17" viewBox="0 0 17.397 17"><defs><style>.a{fill:#1baf5d;}</style></defs><g transform="translate(-9.5 -10.365)"><path class="a" d="M25.773,10.365H21.536a1.126,1.126,0,0,0-1.124,1.124v7.84c0,.31,0,.455,2.243,1.7v2.216a.314.314,0,0,0,.314.314h.162v2.76h-1.6V22.746a3.414,3.414,0,0,0-3.414-3.414H12.914A3.414,3.414,0,0,0,9.5,22.746v4.62H23.654a.524.524,0,0,0,.524-.524V23.558h.162a.314.314,0,0,0,.314-.314V21.025c2.242-1.25,2.243-1.385,2.243-1.7v-7.84A1.126,1.126,0,0,0,25.773,10.365Zm.077,8.73c-.292.2-.973.6-1.692,1.005h-1.01c-.719-.4-1.4-.8-1.688-1V11.489a.077.077,0,0,1,.077-.077h4.237a.077.077,0,0,1,.077.077Z"/><circle class="a" cx="3.814" cy="3.814" r="3.814" transform="translate(12.081 11.21)"/><path class="a" d="M72.227,26.336H71.169V25.278a.111.111,0,0,0-.111-.111H69.833a.111.111,0,0,0-.111.111v1.058H68.664a.111.111,0,0,0-.111.111v1.225a.111.111,0,0,0,.111.111h1.058v1.058a.111.111,0,0,0,.111.111h1.225a.111.111,0,0,0,.111-.111V27.784h1.058a.111.111,0,0,0,.111-.111V26.447A.111.111,0,0,0,72.227,26.336Z" transform="translate(-46.995 -11.752)"/></g></svg>