<svg xmlns="http://www.w3.org/2000/svg" width="26" height="26.25" viewBox="0 0 26 26.25">
  <g id="Refund_credit_balance" data-name="Refund credit balance" transform="translate(-1195 -1292.75)">
    <path id="Path_1878" data-name="Path 1878" d="M16.2-14.738l-4.207-4.211a1.03,1.03,0,0,0-.73-.3H11v5.5h5.5v-.262A1.028,1.028,0,0,0,16.2-14.738ZM9.625-13.406V-19.25H1.031A1.029,1.029,0,0,0,0-18.219V1.719A1.029,1.029,0,0,0,1.031,2.75H15.469A1.029,1.029,0,0,0,16.5,1.719V-12.375H10.656A1.034,1.034,0,0,1,9.625-13.406ZM2.75-16.156a.344.344,0,0,1,.344-.344H6.531a.344.344,0,0,1,.344.344v.688a.344.344,0,0,1-.344.344H3.094a.344.344,0,0,1-.344-.344Zm0,3.438v-.687a.344.344,0,0,1,.344-.344H6.531a.344.344,0,0,1,.344.344v.688a.344.344,0,0,1-.344.344H3.094A.344.344,0,0,1,2.75-12.719ZM8.938-1.38V-.344A.344.344,0,0,1,8.594,0H7.906a.344.344,0,0,1-.344-.344V-1.387a2.46,2.46,0,0,1-1.348-.488A.344.344,0,0,1,6.19-2.4l.5-.482A.353.353,0,0,1,7.13-2.91a1.034,1.034,0,0,0,.551.16H8.889A.54.54,0,0,0,9.4-3.317a.561.561,0,0,0-.377-.547l-1.934-.58A1.945,1.945,0,0,1,5.729-6.308,1.913,1.913,0,0,1,7.562-8.245V-9.281a.344.344,0,0,1,.344-.344h.688a.344.344,0,0,1,.344.344v1.044a2.457,2.457,0,0,1,1.348.488.344.344,0,0,1,.024.522l-.5.482a.353.353,0,0,1-.435.031,1.031,1.031,0,0,0-.551-.16H7.611a.54.54,0,0,0-.507.567.561.561,0,0,0,.377.547l1.934.58a1.945,1.945,0,0,1,1.357,1.864A1.913,1.913,0,0,1,8.938-1.38Z" transform="translate(1195 1312)" fill="#fff"/>
    <g id="seconded" transform="translate(822 118)">
      <g id="Ellipse_448" data-name="Ellipse 448" transform="translate(383 1185)" fill="#fff" stroke="#1baf5d" stroke-width="1">
        <circle cx="8" cy="8" r="8" stroke="none"/>
        <circle cx="8" cy="8" r="7.5" fill="none"/>
      </g>
      <path id="Path_1879" data-name="Path 1879" d="M4.092-9.453A3.914,3.914,0,0,0,1.386-8.365L.821-8.931a.38.38,0,0,0-.649.269v2.123a.38.38,0,0,0,.38.38H2.675a.38.38,0,0,0,.269-.649l-.661-.661a2.641,2.641,0,0,1,1.793-.717A2.661,2.661,0,0,1,6.76-5.5,2.661,2.661,0,0,1,4.1-2.865a2.641,2.641,0,0,1-1.752-.658.19.19,0,0,0-.259.009l-.628.628a.19.19,0,0,0,.008.276A3.913,3.913,0,0,0,4.1-1.6,3.928,3.928,0,0,0,8.027-5.525,3.935,3.935,0,0,0,4.092-9.453Z" transform="translate(387.4 1198.4)" fill="#1baf5d"/>
    </g>
  </g>
</svg>
