<svg xmlns="http://www.w3.org/2000/svg" width="189.478" height="114" viewBox="0 0 189.478 114">
  <g id="VIC_New" data-name="VIC New" transform="translate(-407.002 -264.834)">
    <g id="Group_281" data-name="Group 281" transform="translate(405.616 264.834)">
      <path id="Path_915" data-name="Path 915" d="M146.463,24h-70.8c-4.576,0-8.285,3.166-8.285,7.072s3.709,7.072,8.285,7.072h70.8c4.576,0,8.285-3.166,8.285-7.072S151.038,24,146.463,24Z" transform="translate(-20.649 -7.509)" fill="#f2f2f2"/>
      <path id="Path_916" data-name="Path 916" d="M108.649,145.086H54.6c-4.575,0-8.285,3.166-8.285,7.071s3.709,7.072,8.285,7.072h54.051c4.575,0,8.285-3.166,8.285-7.072S113.224,145.086,108.649,145.086Z" transform="translate(-14.057 -45.394)" fill="#f2f2f2"/>
      <path id="Path_917" data-name="Path 917" d="M168.477,67.579H20.861c-4.575,0-8.285,3.166-8.285,7.072s3.709,7.072,8.285,7.072H168.477c4.576,0,8.285-3.166,8.285-7.072S173.053,67.579,168.477,67.579Z" transform="translate(-3.502 -21.144)" fill="#f2f2f2"/>
      <path id="Path_918" data-name="Path 918" d="M161.9,111.158H14.285C9.709,111.158,6,114.324,6,118.23s3.709,7.071,8.285,7.071H161.9c4.576,0,8.285-3.166,8.285-7.071S166.477,111.158,161.9,111.158Z" transform="translate(-1.444 -34.779)" fill="#f2f2f2"/>
      <path id="Path_919" data-name="Path 919" d="M91.31,103.974H55.164a10.131,10.131,0,0,0,6.543-2.32,7.107,7.107,0,0,0,0-11.172,10.133,10.133,0,0,0-6.542-2.319H91.31a10.7,10.7,0,0,1,2.773.361H91.471a9.817,9.817,0,0,0-6.35,2.245,6.9,6.9,0,0,0,0,10.84,9.818,9.818,0,0,0,6.35,2.245h1.446a10.927,10.927,0,0,1-1.608.12Z" transform="translate(-16.519 -27.584)" fill="#f2f2f2"/>
      <path id="Path_920" data-name="Path 920" d="M227.485,160.054a3.534,3.534,0,1,1,2.177-1.609A3.534,3.534,0,0,1,227.485,160.054Z" transform="translate(-69.368 -47.899)" fill="#e4e4e4"/>
      <circle id="Ellipse_163" data-name="Ellipse 163" cx="5.505" cy="5.505" r="5.505" transform="translate(146.103 17.865)" fill="none" stroke="#ddd" stroke-width="3"/>
      <circle id="Ellipse_164" data-name="Ellipse 164" cx="4.188" cy="4.188" r="4.188" transform="translate(112.861 0)" fill="#ddd"/>
      <circle id="Ellipse_165" data-name="Ellipse 165" cx="2.094" cy="2.094" r="2.094" transform="translate(6.321 34.038)" fill="#ddd"/>
      <path id="Path_921" data-name="Path 921" d="M31.9,23h-.62a8.276,8.276,0,1,0,0,16.552h.62A8.276,8.276,0,0,0,31.9,23Z" transform="translate(-6.763 -7.196)" fill="#f2f2f2"/>
      <path id="Path_922" data-name="Path 922" d="M4.279,140.143a.353.353,0,0,0,.433.249,3.533,3.533,0,1,1-2.139,1.635.353.353,0,0,0-.611-.355,4.24,4.24,0,1,0,2.567-1.962.353.353,0,0,0-.25.433Z" transform="translate(0 -43.667)" fill="#ddd"/>
      <path id="Path_923" data-name="Path 923" d="M265.607,111.618a.943.943,0,0,1-.414,1.365,7.805,7.805,0,1,1,4.29-4.342.944.944,0,0,1-1.36.431h0a1.212,1.212,0,0,1-.485-1.463,5.717,5.717,0,1,0-3.5,3.542,1.212,1.212,0,0,1,1.469.467Z" transform="translate(-79.17 -30.649)" fill="#ddd"/>
      <path id="Path_924" data-name="Path 924" d="M159.918,60.491H119.829q-.414,0-.829-.016a17.282,17.282,0,0,0,8.766-2.586c2.292-1.529,3.567-3.547,3.567-5.643s-1.275-4.115-3.567-5.643A17.282,17.282,0,0,0,119,44.016c.29-.011.57-.016.829-.016h40.4a17.726,17.726,0,0,0-9.086,2.494c-2.4,1.538-3.748,3.6-3.767,5.748.019,2.15,1.369,4.211,3.767,5.749a17.727,17.727,0,0,0,9.086,2.5h-.308Z" transform="translate(-36.8 -13.767)" fill="#f2f2f2"/>
    </g>
    <g id="doctor" transform="translate(407.415 277.425)">
      <g id="Group_2357" data-name="Group 2357" transform="translate(56.114)">
        <g id="Group_2356" data-name="Group 2356">
          <g id="Group_2360" data-name="Group 2360">
            <path id="Path_1812" data-name="Path 1812" d="M-16673-18674.5l-12.25-3.25h-8.5l-7.75,3.25-6.75,7.25-3.75,8v19.5l2.5,3.5,2.25,4,3,7.75,4.25,3.75,3.75,3.5,1.25,1.75v2.75l-1.25,1.75-3.75,3.75-4.25,1.5h-5.25l-2.5,2v1l-3.25,2-1.75,2.25v1.75l-2,2.25v14.5h64v-12.5l-1.25-4.25-2.25-4-3-3-3-2-4.25-1.5h-7.25l-2.25-3.75v-4.5l5.25-5.25,5.25-7.5,1.5-11.5,4.75-2,1.25-14.75,1.75-5v-2.75l-6-4.5-4.25-2.75h-4.25Z" transform="translate(16725.473 18679.408)" fill="#fff"/>
            <line id="Line_189" data-name="Line 189" x2="83" transform="translate(-2.027 99.908)" fill="none" stroke="#1baf5d" stroke-linecap="round" stroke-width="3"/>
            <path id="man" d="M144.892,87.661v9.752a1.651,1.651,0,1,1-3.3,0V87.661a13.729,13.729,0,0,0-13.738-13.737,10.136,10.136,0,0,1-8.72-4.9,1.651,1.651,0,0,1,2.82-1.717,6.858,6.858,0,0,0,5.9,3.312,17.029,17.029,0,0,1,17.039,17.039ZM116.083,71.113a1.651,1.651,0,0,1-1.261,1.965,15.8,15.8,0,0,1-12.281-2.4,10.011,10.011,0,0,1-7.468,3.249A13.729,13.729,0,0,0,81.335,87.661v9.752a1.651,1.651,0,0,1-3.3,0V87.661A17.029,17.029,0,0,1,95.072,70.622a6.882,6.882,0,0,0,6.9-6.88v-.435A22.116,22.116,0,0,1,89.4,44.19a6.736,6.736,0,0,1-5.175-6.525V29.106c-.09-4.189.532-14.681,8.182-22.055C101.851-2.054,117-1.475,128.138,3.887a1.655,1.655,0,0,1,.349,2.749,22.281,22.281,0,0,1,13.635,9.81,1.823,1.823,0,0,1,.38,1.3,1.67,1.67,0,0,1-.474,1.047,10.779,10.779,0,0,0-3.12,7.614V37.665a1.651,1.651,0,1,1-3.3,0V26.4a14.052,14.052,0,0,1,3.207-8.974,19.069,19.069,0,0,0-13.688-8.036l-2.9-.311a1.652,1.652,0,0,1-.453-3.168l1.32-.543C105.9-.619,87.525,6.038,87.525,29.089v8.576a3.408,3.408,0,0,0,1.857,3.02v-10.7a11.569,11.569,0,0,1,11.556-11.556h21.048a11.569,11.569,0,0,1,11.556,11.555V43.5a22.111,22.111,0,0,1-28.306,21.059,10.094,10.094,0,0,1-.864,3.371,12.5,12.5,0,0,0,9.746,1.922,1.651,1.651,0,0,1,1.964,1.262Zm-4.621-8.961a18.8,18.8,0,0,0,18.778-18.778V29.982a8.263,8.263,0,0,0-8.254-8.254H100.938a8.264,8.264,0,0,0-8.254,8.254V43.373A18.8,18.8,0,0,0,111.462,62.152ZM134.177,90.6H121.225a1.651,1.651,0,1,0,0,3.3h12.953a1.651,1.651,0,0,0,0-3.3Z" transform="translate(-72.895 0.408)" fill="#1baf5d"/>
          </g>
        </g>
      </g>
    </g>
  </g>
</svg>
