<svg xmlns="http://www.w3.org/2000/svg" width="122.806" height="160.92" viewBox="0 0 122.806 160.92">
  <g id="Annuity_Value_Certificate" data-name="Annuity Value Certificate" transform="translate(-979 -311)">
    <g id="Annuity_Value_Certificate-2" data-name="Annuity Value Certificate" transform="translate(979 311)">
      <g id="Group_12932" data-name="Group 12932" transform="translate(0)">
        <path id="Path_10322" data-name="Path 10322" d="M197.3,0l11.01,11.01,12.7-5.929,5.929,14.4L240.5,17.786V33.03l13.551,5.082-5.929,13.551,11.01,9.317L247.272,71.99l6.775,12.7-14.4,5.929.847,13.551H225.252l-4.235,13.551-14.4-5.929-9.317,11.01-10.163-11.857-12.7,6.775-5.929-14.4-14.4.847.847-15.245L141.4,84.694l5.929-14.4-11.01-9.317,11.01-10.163-5.929-12.7,14.4-5.929-1.694-14.4,15.245.847,5.082-13.551,13.551,5.929Zm0,17.786a43.377,43.377,0,0,1,43.2,43.2c0,23.715-19.48,42.348-43.2,42.348a41.936,41.936,0,0,1-42.348-42.348c0-23.715,18.633-43.2,42.348-43.2Z" transform="translate(-136.323)" fill="#af0000" fill-rule="evenodd"/>
        <path id="Path_10323" data-name="Path 10323" d="M293.379,119.795A37.265,37.265,0,1,1,256.115,82.53a37.265,37.265,0,0,1,37.265,37.265" transform="translate(-195.135 -58.814)" fill="#af0000" fill-rule="evenodd"/>
        <path id="Path_10324" data-name="Path 10324" d="M306.75,394.95v47.428l-28.8-18.633L248.31,442.378V395.795l3.388,9.317,14.4-7.623,11.857,12.7,10.164-11.857,15.245,6.775Z" transform="translate(-216.13 -281.458)" fill="#af0000" fill-rule="evenodd"/>
      </g>
    </g>
    <g id="Annuity" transform="translate(-16048 -14586.207)">
      <path id="Path_1212" data-name="Path 1212" d="M17093.178,15253l-2.176,5.436-1.32,2.717-2.553-1.088-3.105-2.408-2.025,1.088.7,3.031,6.988,4.268,10.789,1.477,8.936-1.477,5.59-2.484,2.092-1.783.777-1.711-.777-2.408h-1.477l-2.949,1.945-2.02,1.551-1.236-3.5-1.869-3.105-1.4-1.162-2.4.389-.385,1.551,1.164,3.107,1.236,1.629,1.17,1.711v.771l-3.57,1.012h-8.7l-1.473-.543a2.964,2.964,0,0,0,0-1.24c-.15-.545,1.473-3.031,1.473-3.031l1.242-3.105,1.791-1.861-1.326-.777h-3.18Z" transform="translate(-11.066 -290.543)" fill="#fff"/>
      <path id="Path_1211" data-name="Path 1211" d="M17125.316,14963.91a3.726,3.726,0,0,1,0-3.883l2.789-1.008,2.793-.934,5.049.545,5.129,1.4,3.338-7.762,1.318-3.49,2.1-.775,1.471,1.082-.928,3.963-5.279,14.436-3.023,4.191-8.158.545-8.072-1.16-4.574,2.328-2.414-.625-.855-1.7,1.633-1.713,4.037-1.863h4.576l5.67.467,5.279.309,2.879-2.562.617-2.715-7.842-1.4-5.355,1.4Z" transform="translate(-42.425 -9.224)" fill="#fff"/>
      <g id="retirement" transform="translate(17070 14938)">
        <g id="Group_546" data-name="Group 546" transform="translate(0 0)">
          <path id="Path_1210" data-name="Path 1210" d="M14.773,28.755a2.822,2.822,0,0,1,3.9.832,7.29,7.29,0,0,0,2.69,2.2L24.572,24.9a4.387,4.387,0,0,0-2.552,1.026l-.8.674a2.8,2.8,0,0,1-1.807.66q-.125,0-.25-.011a2.818,2.818,0,0,1-1.566-4.966l.8-.674a9.992,9.992,0,0,1,7.342-2.315l11.646,1.019a2.089,2.089,0,0,0,2.147-1.374l.925-2.573-7.045-.99a5.094,5.094,0,0,0-3.8.983l-1.067.8a2.582,2.582,0,0,1-1.56.524,2.623,2.623,0,0,1-.368-.026,2.6,2.6,0,0,1-1.2-4.653l1.067-.8a10.264,10.264,0,0,1,7.655-1.98l8.119,1.141,3.416-9.5a2.818,2.818,0,0,1,5.3,1.907l-6.14,17.075a7.726,7.726,0,0,1-4.429,4.568l2.918,6.262a7.029,7.029,0,0,0,2.483-2.09,2.818,2.818,0,0,1,4.729,3.066c-1.419,2.189-3.972,4.014-7.381,5.279A31.791,31.791,0,0,1,32.24,39.747a31.791,31.791,0,0,1-10.917-1.816c-3.41-1.264-5.962-3.09-7.381-5.279A2.821,2.821,0,0,1,14.773,28.755Zm8.164,3.76q.171.067.346.133c.421.156.858.3,1.305.431l3.684-7.9-1.838-.161Zm3.362,1a28.648,28.648,0,0,0,5.941.6,28.467,28.467,0,0,0,6.177-.652l-3.595-7.712-4.712-.412Zm7.6-21.569a8.54,8.54,0,0,0-6.37,1.647l-1.067.8a.867.867,0,0,0,.4,1.551h0a.862.862,0,0,0,.642-.166l1.067-.8a6.81,6.81,0,0,1,4.116-1.383,6.962,6.962,0,0,1,.969.068l7.4,1.04.6-1.667ZM43.2,20.26l6.14-17.075a1.084,1.084,0,1,0-2.04-.734l-6.14,17.075a3.826,3.826,0,0,1-3.93,2.514L25.588,21.022a8.268,8.268,0,0,0-6.076,1.916l-.8.674a1.084,1.084,0,0,0,.6,1.91h0a1.078,1.078,0,0,0,.791-.249l.8-.673a6.109,6.109,0,0,1,3.947-1.441q.272,0,.547.024L37.045,24.2A6,6,0,0,0,43.2,20.26Zm-4.5,5.612a7.7,7.7,0,0,1-1.138.085c-.224,0-.449-.01-.675-.03l-.077-.007,3.3,7.088q.551-.169,1.077-.363.288-.107.565-.221ZM15.4,31.709c1.214,1.873,3.472,3.463,6.529,4.6A30.046,30.046,0,0,0,32.24,38.013a30.049,30.049,0,0,0,10.314-1.708c3.057-1.134,5.315-2.723,6.529-4.6a1.084,1.084,0,0,0-1.819-1.179A11.034,11.034,0,0,1,41.8,34.273a27.865,27.865,0,0,1-9.56,1.573,27.865,27.865,0,0,1-9.56-1.573,11.035,11.035,0,0,1-5.464-3.743A1.084,1.084,0,1,0,15.4,31.709Z" transform="translate(-13.489 0)" fill="#fff"/>
        </g>
      </g>
    </g>
  </g>
</svg>
