<svg xmlns="http://www.w3.org/2000/svg" width="40" height="40" viewBox="0 0 40 40">
  <g id="Group_13555" data-name="Group 13555" transform="translate(-761 17616)">
    <g id="Group_13550" data-name="Group 13550" transform="translate(212 -18637)">
      <circle id="Ellipse_132" data-name="Ellipse 132" cx="20" cy="20" r="20" transform="translate(549 1021)" fill="#c7fcff"/>
      <g id="Group_547" data-name="Group 547" transform="translate(-16511 -13907)">
        <path id="Path_1212" data-name="Path 1212" d="M17087.7,15253l-1.105,2.764-.672,1.381-1.3-.553-1.58-1.225-1.027.553.354,1.541,3.553,2.17,5.486.75,4.539-.75,2.842-1.264,1.064-.906.4-.869-.4-1.225h-.75l-1.5.988-1.027.789-.631-1.777-.949-1.578-.709-.592-1.223.2-.2.789.592,1.58.631.828.594.869v.393l-1.816.514h-4.42l-.75-.275a1.526,1.526,0,0,0,0-.631c-.08-.277.748-1.541.748-1.541l.631-1.578.908-.947-.672-.395h-1.617Z" transform="translate(-11.526 -302.567)" fill="#21d3df"/>
        <path id="Path_1211" data-name="Path 1211" d="M17120.7,14956.1a1.9,1.9,0,0,1,0-1.975l1.42-.512,1.42-.475,2.566.277,2.607.709,1.7-3.945.67-1.775,1.066-.395.748.551-.473,2.014-2.684,7.34-1.537,2.131-4.146.277-4.1-.592-2.326,1.184-1.227-.316-.436-.867.83-.869,2.053-.947h2.326l2.883.236,2.684.158,1.463-1.3.314-1.381-3.986-.709-2.723.709Z" transform="translate(-44.183 -9.605)" fill="#21d3df"/>
        <g id="retirement" transform="translate(17070 14938)">
          <g id="Group_546" data-name="Group 546">
            <path id="Path_1210" data-name="Path 1210" d="M14.142,14.618a1.434,1.434,0,0,1,1.981.423,3.706,3.706,0,0,0,1.368,1.12l1.632-3.5a2.23,2.23,0,0,0-1.3.521l-.408.342a1.422,1.422,0,0,1-.918.335q-.063,0-.127-.006a1.433,1.433,0,0,1-.8-2.525l.408-.342A5.079,5.079,0,0,1,19.71,9.809l5.92.518a1.062,1.062,0,0,0,1.091-.7L27.2,8.32l-3.581-.5a2.59,2.59,0,0,0-1.932.5l-.542.409A1.313,1.313,0,0,1,20.352,9a1.322,1.322,0,0,1-.8-2.379l.542-.409A5.218,5.218,0,0,1,23.985,5.2l4.127.58L29.849.948a1.434,1.434,0,1,1,2.7.97L29.424,10.6a3.928,3.928,0,0,1-2.251,2.322L28.657,16.1a3.573,3.573,0,0,0,1.262-1.062,1.433,1.433,0,0,1,2.4,1.559,7.433,7.433,0,0,1-3.752,2.684,16.161,16.161,0,0,1-5.55.923,16.161,16.161,0,0,1-5.55-.923A7.433,7.433,0,0,1,13.719,16.6,1.434,1.434,0,0,1,14.142,14.618Zm4.15,1.911.176.067c.214.079.436.152.663.219L21,12.8l-.935-.082ZM20,17.036a14.564,14.564,0,0,0,3.02.3,14.472,14.472,0,0,0,3.14-.331l-1.827-3.921-2.4-.21ZM23.863,6.071a4.342,4.342,0,0,0-3.238.837l-.542.409a.441.441,0,0,0,.2.789h0a.438.438,0,0,0,.327-.084l.542-.409a3.462,3.462,0,0,1,2.092-.7,3.539,3.539,0,0,1,.493.035l3.763.529.3-.848ZM28.595,10.3l3.121-8.68a.551.551,0,0,0-1.037-.373l-3.121,8.68a1.945,1.945,0,0,1-2,1.278l-5.92-.518a4.2,4.2,0,0,0-3.089.974L16.143,12a.551.551,0,0,0,.306.971h0a.548.548,0,0,0,.4-.127l.408-.342a3.106,3.106,0,0,1,2.006-.732q.138,0,.278.012l5.92.518a3.048,3.048,0,0,0,3.134-2Zm-2.286,2.853a3.915,3.915,0,0,1-.579.043,2.632,2.632,0,0,1-.343-.015h-.039l1.68,3.6q.28-.086.547-.185.147-.054.287-.112ZM14.459,16.12a6.582,6.582,0,0,0,3.319,2.337,15.274,15.274,0,0,0,5.243.868,15.276,15.276,0,0,0,5.243-.868,6.582,6.582,0,0,0,3.319-2.337.551.551,0,0,0-.925-.6,5.609,5.609,0,0,1-2.778,1.9,14.165,14.165,0,0,1-4.86.8,14.166,14.166,0,0,1-4.86-.8,5.61,5.61,0,0,1-2.778-1.9.551.551,0,0,0-.925.6Z" transform="translate(-13.489)" fill="#21d3df"/>
          </g>
        </g>
      </g>
    </g>
  </g>
</svg>
