<svg xmlns="http://www.w3.org/2000/svg" width="13.091" height="12" viewBox="0 0 13.091 12">
  <g id="Contract_detaiils" data-name="Contract detaiils" transform="translate(-8185.505 -517.352)">
    <g id="layout_1_" data-name="layout (1)" transform="translate(8185.505 516.352)">
      <g id="Group_1514" data-name="Group 1514" transform="translate(2.206 5.353)">
        <path id="Path_1291" data-name="Path 1291" d="M5.907,9.846H4.5A.423.423,0,0,1,4.5,9H5.907a.423.423,0,0,1,0,.846Z" transform="translate(-4.073 -9)" fill="#666"/>
      </g>
      <g id="Group_1515" data-name="Group 1515" transform="translate(5.915 5.353)">
        <path id="Path_1292" data-name="Path 1292" d="M15.728,9.846H11.5A.423.423,0,1,1,11.5,9h4.232a.423.423,0,0,1,0,.846Z" transform="translate(-11.073 -9)" fill="#666"/>
      </g>
      <g id="Group_1516" data-name="Group 1516" transform="translate(2.206 7.529)">
        <path id="Path_1293" data-name="Path 1293" d="M5.907,13.846H4.5A.423.423,0,1,1,4.5,13H5.907a.423.423,0,1,1,0,.846Z" transform="translate(-4.073 -13)" fill="#666"/>
      </g>
      <g id="Group_1517" data-name="Group 1517" transform="translate(5.915 7.529)">
        <path id="Path_1294" data-name="Path 1294" d="M15.728,13.846H11.5a.423.423,0,1,1,0-.846h4.232a.423.423,0,0,1,0,.846Z" transform="translate(-11.073 -13)" fill="#666"/>
      </g>
      <g id="Group_1518" data-name="Group 1518" transform="translate(2.206 9.705)">
        <path id="Path_1295" data-name="Path 1295" d="M5.907,17.846H4.5A.423.423,0,0,1,4.5,17H5.907a.423.423,0,0,1,0,.846Z" transform="translate(-4.073 -17)" fill="#666"/>
      </g>
      <g id="Group_1519" data-name="Group 1519" transform="translate(5.915 9.705)">
        <path id="Path_1296" data-name="Path 1296" d="M15.728,17.846H11.5a.423.423,0,1,1,0-.846h4.232a.423.423,0,0,1,0,.846Z" transform="translate(-11.073 -17)" fill="#666"/>
      </g>
      <g id="Group_1520" data-name="Group 1520" transform="translate(0 1)">
        <path id="Path_1297" data-name="Path 1297" d="M11.591,13H1.5A1.5,1.5,0,0,1,0,11.5v-9A1.5,1.5,0,0,1,1.5,1H11.591a1.5,1.5,0,0,1,1.5,1.5v9A1.5,1.5,0,0,1,11.591,13ZM1.5,1.818A.683.683,0,0,0,.818,2.5v9a.683.683,0,0,0,.682.682H11.591a.683.683,0,0,0,.682-.682v-9a.683.683,0,0,0-.682-.682Z" transform="translate(0 -1)" fill="#666"/>
      </g>
      <g id="Group_1521" data-name="Group 1521" transform="translate(0 2.904)">
        <path id="Path_1298" data-name="Path 1298" d="M12.682,5.346H.409a.423.423,0,0,1,0-.846H12.682a.423.423,0,0,1,0,.846Z" transform="translate(0 -4.5)" fill="#666"/>
      </g>
    </g>
  </g>
</svg>
