<?xml version="1.0" encoding="utf-8"?>
<!-- Generator: Adobe Illustrator 27.2.0, SVG Export Plug-In . SVG Version: 6.00 Build 0) -->
<svg version="1.1" id="Layer_1" xmlns="http://www.w3.org/2000/svg" xmlns:xlink="http://www.w3.org/1999/xlink" x="0px" y="0px" viewBox="0 0 512 512" style="enable-background:new 0 0 512 512;" xml:space="preserve" width="15.999" height="15.999">
	<g fill="#15b39c">
		<path d="M448,277.3H311.5c-23.5,0-46.9-6.4-68.3-17.1c-21.3-10.7-38.4-27.7-53.3-46.9c-19.2-25.6-51.2-42.7-85.3-42.7H64
		c-12.8,0-21.3-8.5-21.3-21.3c0-12.8,8.5-21.3,21.3-21.3h40.5c46.9,0,91.7,23.5,119.5,61.9c8.5,12.8,21.3,25.6,36.3,32
		c14.9,8.5,32,10.7,46.9,10.7H448c12.8,0,21.3,8.5,21.3,21.3S460.8,277.3,448,277.3z" />
		<path d="M106.7,384H64c-12.8,0-21.3-8.5-21.3-21.3c0-12.8,8.5-21.3,21.3-21.3h42.7c17.1,0,34.1-4.3,46.9-10.7
		c14.9-8.5,27.7-19.2,36.3-32c12.8-19.2,32-34.1,53.3-46.9c21.3-10.7,44.8-17.1,68.3-17.1h115.2c12.8,0,21.3,8.5,21.3,21.3
		c0,12.8-8.5,21.3-21.3,21.3H309.3c-17.1,0-34.1,4.3-46.9,10.7c-14.9,8.5-27.7,19.2-36.3,32c-12.8,19.2-32,34.1-53.3,46.9
		C151.5,377.6,128,384,106.7,384L106.7,384z" />
		<path d="M390,341.3c-6.4,0-10.7-2.1-14.9-6.4c-8.5-8.5-8.5-21.3,0-29.9l49.1-49.1l-49.1-49.1c-8.5-8.5-8.5-21.3,0-29.9
		s21.3-8.5,29.9,0l64,64c8.5,8.5,8.5,21.3,0,29.9l-64,64C400.7,339.2,396.4,341.3,390,341.3L390,341.3z" />
	</g>
</svg>
