<svg xmlns="http://www.w3.org/2000/svg" width="122.806" height="160.92" viewBox="0 0 122.806 160.92">
  <g id="Obligation_of_Transferring_Benefits_Certificate" data-name="Obligation of Transferring Benefits  Certificate" transform="translate(-619 -858.08)">
    <g id="Group_13212" data-name="Group 13212" transform="translate(619 858.08)">
      <g id="Group_12932" data-name="Group 12932" transform="translate(0)">
        <path id="Path_10322" data-name="Path 10322" d="M197.3,0l11.01,11.01,12.7-5.929,5.929,14.4L240.5,17.786V33.03l13.551,5.082-5.929,13.551,11.01,9.317L247.272,71.99l6.775,12.7-14.4,5.929.847,13.551H225.252l-4.235,13.551-14.4-5.929-9.317,11.01-10.163-11.857-12.7,6.775-5.929-14.4-14.4.847.847-15.245L141.4,84.694l5.929-14.4-11.01-9.317,11.01-10.163-5.929-12.7,14.4-5.929-1.694-14.4,15.245.847,5.082-13.551,13.551,5.929Zm0,17.786a43.377,43.377,0,0,1,43.2,43.2c0,23.715-19.48,42.348-43.2,42.348a41.936,41.936,0,0,1-42.348-42.348c0-23.715,18.633-43.2,42.348-43.2Z" transform="translate(-136.323)" fill="#0e98ab" fill-rule="evenodd"/>
        <path id="Path_10323" data-name="Path 10323" d="M293.379,119.795A37.265,37.265,0,1,1,256.115,82.53a37.265,37.265,0,0,1,37.265,37.265" transform="translate(-195.135 -58.814)" fill="#0e98ab" fill-rule="evenodd"/>
        <path id="Path_10324" data-name="Path 10324" d="M306.75,394.95v47.428l-28.8-18.633L248.31,442.378V395.795l3.388,9.317,14.4-7.623,11.857,12.7,10.164-11.857,15.245,6.775Z" transform="translate(-216.13 -281.458)" fill="#0e98ab" fill-rule="evenodd"/>
      </g>
      <g id="Group_12933" data-name="Group 12933" transform="translate(37.165 52.029)">
        <g id="Group_12904" data-name="Group 12904">
          <g id="Group_12903" data-name="Group 12903" transform="translate(26.867 0.098)">
            <path id="Path_1270" data-name="Path 1270" d="M71.539,42.531a40.093,40.093,0,0,1-1.813,4.395,5.345,5.345,0,0,1-.439,4.395c-.22.385-.494.824-.769,1.263-.769,1.044-1.813,2.2-2.966,3.461-.055.11-.165.165-.22.275a.837.837,0,1,1-1.263-1.1c.11-.11.165-.22.275-.275a27.6,27.6,0,0,0,3.516-4.34c1.1-2.2.384-3.68-.714-4.285a2.036,2.036,0,0,0-2.8.494,41.794,41.794,0,0,1-3.571,4.394,32.932,32.932,0,0,0-3.79,4.889,23.554,23.554,0,0,0-2.362,9.228c-.11,1.923-.165,4.12-.22,5.438a1.219,1.219,0,0,0,1.208,1.208h7.745a1.219,1.219,0,0,0,1.208-1.208v-2.2a1.812,1.812,0,0,1,.659-1.318,40.72,40.72,0,0,0,6.811-5.878c3.131-3.68,4.285-14.557,4.449-17.8C76.647,40.224,72.472,39.509,71.539,42.531Z" transform="translate(-54.4 -40.618)" fill="#0e98ab"/>
          </g>
          <path id="Path_1271" data-name="Path 1271" d="M24.942,55.909a36.032,36.032,0,0,0-3.79-4.889,40.5,40.5,0,0,1-3.571-4.395,2.071,2.071,0,0,0-2.8-.494c-1.1.6-1.813,2.087-.714,4.285a23.359,23.359,0,0,0,3.516,4.34c.11.11.165.22.275.275a.842.842,0,0,1-.165,1.263.921.921,0,0,1-1.1-.165c-.055-.11-.165-.165-.22-.275-1.154-1.263-2.2-2.417-2.966-3.461a5.2,5.2,0,0,1-.769-1.263,5.333,5.333,0,0,1-.439-4.394,42.312,42.312,0,0,1-1.813-4.395A2.5,2.5,0,0,0,5.5,43.33c.165,3.241,1.318,14.117,4.449,17.8a38.607,38.607,0,0,0,6.811,5.878,1.5,1.5,0,0,1,.659,1.318v2.2a1.219,1.219,0,0,0,1.208,1.208H26.37a1.219,1.219,0,0,0,1.208-1.208c-.055-1.318-.11-3.516-.22-5.438C27.084,61.183,25.93,57.447,24.942,55.909Z" transform="translate(-5.491 -40.442)" fill="#0e98ab"/>
        </g>
      </g>
      <path id="noun-money-4857994" d="M118.073,117.392a3.4,3.4,0,0,0-3.4-3.4H99.649a3.4,3.4,0,0,0-3.4,3.4v6.417a3.4,3.4,0,0,0,3.4,3.4h15.019a3.4,3.4,0,0,0,3.4-3.4Zm-10.914-.846a4.055,4.055,0,1,0,4.055,4.055A4.057,4.057,0,0,0,107.159,116.546Zm-6.214-3.015h13.723a3.861,3.861,0,0,1,3.861,3.861v5.259h.84a3.4,3.4,0,0,0,3.4-3.4v-6.417a3.4,3.4,0,0,0-3.4-3.4H104.349a3.4,3.4,0,0,0-3.4,3.4Zm-1.7,7.526H101.4a.456.456,0,1,0,0-.913H99.242a.456.456,0,0,0,0,.913Zm13.674,0h2.158a.456.456,0,1,0,0-.913h-2.158a.456.456,0,0,0,0,.913Z" transform="translate(-46.691 -73.033)" fill="#0e98ab" fill-rule="evenodd"/>
    </g>
    <g id="Obligation" transform="translate(-11434.997 -11929.85)">
      <path id="Path_10378" data-name="Path 10378" d="M291.491,146.385q-.4-1.356-.781-2.718a13.941,13.941,0,0,1-.818-3.449,16.328,16.328,0,0,1-4.449,1.659,15.77,15.77,0,0,1-2.755.063c-.9-.017-1.791.046-2.692.015a35.832,35.832,0,0,1-4.017-.291,5,5,0,0,0-2.526.291,8.811,8.811,0,0,0-1.519,1.022q-.668.424-1.355.817a8.551,8.551,0,0,0-1.891,1.056,6.624,6.624,0,0,0-1.512,2.134,9.309,9.309,0,0,1-1.061,2.289,9.455,9.455,0,0,0-1.218,1.513c-.31.654.178,1.085.775,1.29a2.886,2.886,0,0,0,2.3-.225c1.4-.791,1.967-2.442,3.186-3.433s3.31-1.672,4.771-.891c.761.406,1.368,1.044,2.125,1.468.822.46,1.691.827,2.5,1.3,1.71,1,3.236,2.263,5.036,3.115a17.4,17.4,0,0,1,5.024,2.925c.6-.447,1.188-.9,1.748-1.4.393-.348.708-.763,1.1-1.1a4.864,4.864,0,0,1,.986-.664c-1.617-1.812-2.411-4.5-2.97-6.794Z" transform="translate(11841.723 12698.435)" fill="#fff"/>
      <path id="Path_10379" data-name="Path 10379" d="M199.74,194.755a8.191,8.191,0,0,0-4.078-3.092,32.625,32.625,0,0,1-4.965-2.882,34.818,34.818,0,0,0-4.706-2.582c-.237-.111-.217-.279-.422-.454a2.969,2.969,0,0,0-.921-.607,3.771,3.771,0,0,0-2.556.367c-1.45.691-2.09,2.227-3.193,3.3a4.06,4.06,0,0,1-4.616.865,2.137,2.137,0,0,1-1.039-1.131,2.442,2.442,0,0,1,.694-2.149,7.361,7.361,0,0,0,1.388-2.023,9.2,9.2,0,0,1,1.1-2.371,13.983,13.983,0,0,1-3.179.619,5.174,5.174,0,0,1-1.684-.405l-2.543-.881c-.264-.091-.277.269-.367.5q-2.06,5.151-4.121,10.3-.416,1.045-.835,2.09a6.977,6.977,0,0,1,2.333.948,24.073,24.073,0,0,0,2.689,1.782c.2.12.3.292.459.092a1.8,1.8,0,0,1,.556-.475,2.17,2.17,0,0,1,1.4-.182,3.785,3.785,0,0,1,2.527,1.749,3.8,3.8,0,0,1,3.159-.7,2.332,2.332,0,0,1,1.174.69,2,2,0,0,1,.355.565c.109.263.59.035.881.024,1.019-.044,2.321.231,2.681,1.317a10.732,10.732,0,0,0,.329,1.507c.1.207.448.163.635.17a2.06,2.06,0,0,1,.966.243,3,3,0,0,1,1.155,3.173c-.055.457-.091.473.359.65a4.673,4.673,0,0,0,.778.234,3.9,3.9,0,0,0,1.046.094,2.073,2.073,0,0,0,2.175-1.907c.927.456,2.275.8,3.128,0a2.349,2.349,0,0,0,.373-2.551,2.449,2.449,0,0,0,3.08-1.15c.472-.953.05-2.366-.3-3.3,1.119.722,2.572,1.492,3.674.3a2.526,2.526,0,0,0,.438-2.742Z" transform="translate(11932.295 12661.618)" fill="#fff"/>
      <path id="Path_10380" data-name="Path 10380" d="M224.735,337.018a2.6,2.6,0,0,0-1.767-1c-.516-.061-.942.015-1.024.642a2.972,2.972,0,0,0,1.037,2.407c.468.343,1.738,1.01,2.132.2a2.893,2.893,0,0,0-.379-2.245c-.249-.3.123.249,0,0Z" transform="translate(11880.127 12523.052)" fill="#fff"/>
      <path id="Path_10381" data-name="Path 10381" d="M259.159,346.45c.03-.653-.981-1.155-1.5-1.249a2.338,2.338,0,0,0-2.178,1.11,3.277,3.277,0,0,0-.026,3.726c.713.9,2.193.44,2.842-.3a4.064,4.064,0,0,0,.855-1.859,5.835,5.835,0,0,0,.108-.756c.02-.259-.113-.434-.1-.67,0-.018-.008.136,0,0Z" transform="translate(11850.606 12514.829)" fill="#fff"/>
      <path id="Path_10382" data-name="Path 10382" d="M297.715,360.991c-.249-.466-.08-1.117-.391-1.536a1.747,1.747,0,0,0-.991-.619c-.437-.113-.991-.31-1.369.007a4.585,4.585,0,0,0-1.377,3.628c.1.977.832,2.031,1.965,1.658a3.089,3.089,0,0,0,1.561-1.46c.212-.363.783-1.327.6-1.678s0,.008,0,0Z" transform="translate(11815.951 12502.74)" fill="#fff"/>
      <path id="Path_10383" data-name="Path 10383" d="M330.088,386.4a1.433,1.433,0,0,0-.923.023,1.715,1.715,0,0,0-.593.694,3.984,3.984,0,0,0-.462,1.717,1.441,1.441,0,0,0,1.16,1.585c2.089.225,2.611-3.289.818-4.019-.113-.013.409.166,0,0Z" transform="translate(11785.01 12477.965)" fill="#fff"/>
      <path id="Path_10384" data-name="Path 10384" d="M520.554,121.544s-1.855-.155-3.014-4.1c0,0-2.32-7.193-2.4-8.43,0,0-.617-1.548.464-1.779l4.176-2.088,5.336,14.964a24.768,24.768,0,0,1-4.564,1.43Z" transform="translate(11617.619 12729.851)" fill="#fff"/>
      <path id="Path_10385" data-name="Path 10385" d="M95.637,144.965l3.712,1.391s.851.155-.078,2.32l-5.1,12.529s-.619,1.006-3.4.078l-3.171-1.314L94.322,144.5Z" transform="translate(12000.469 12694.598)" fill="#fff"/>
    </g>
  </g>
</svg>
