<svg xmlns="http://www.w3.org/2000/svg" width="40" height="40" viewBox="0 0 40 40">
  <g id="Group_597" data-name="Group 597" transform="translate(-880 -560)">
    <g id="Group_573" data-name="Group 573" transform="translate(880 560)">
      <circle id="Ellipse_132" data-name="Ellipse 132" cx="20" cy="20" r="20" fill="rgba(255,64,64,0.1)"/>
    </g>
    <path id="Path_1241" data-name="Path 1241" d="M9.751-15.329a4.464,4.464,0,0,0-1.876-.421,4.5,4.5,0,0,0-4.166,2.813H6.563Zm2.29,2.391a4.489,4.489,0,0,0-1.283-1.741L8.437-12.937ZM7.875-6.75a4.5,4.5,0,0,0,4.5-4.5,4.494,4.494,0,0,0-.057-.562H3.432a4.431,4.431,0,0,0-.057.563A4.5,4.5,0,0,0,7.875-6.75ZM2.813-5.214V2.25H7.322L3.86-5.538A5.614,5.614,0,0,0,2.813-5.214ZM0,.563A1.687,1.687,0,0,0,1.688,2.25V-4.492A4.693,4.693,0,0,0,0-.9ZM9-1.125H7.053l1.5,3.375H9A1.688,1.688,0,0,0,9-1.125Zm2.025-4.5h-.587a6.139,6.139,0,0,1-2.563.563,6.139,6.139,0,0,1-2.563-.562H5.053l1.5,3.375H9A2.816,2.816,0,0,1,11.813.563a2.786,2.786,0,0,1-.577,1.688h2.827A1.687,1.687,0,0,0,15.75.563V-.9A4.725,4.725,0,0,0,11.025-5.625Z" transform="translate(892 587)" fill="#ff4040"/>
  </g>
</svg>
