<svg xmlns="http://www.w3.org/2000/svg" width="19.997" height="19.997" viewBox="0 0 19.997 19.997">
  <g id="Parallel" transform="translate(-506 -329)">
    <path id="Path_10579" data-name="Path 10579" d="M3.5,0h13A3.5,3.5,0,0,1,20,3.5v13A3.5,3.5,0,0,1,16.5,20H3.5A3.5,3.5,0,0,1,0,16.5V3.5A3.5,3.5,0,0,1,3.5,0Z" transform="translate(506 329)" fill="#cb772b"/>
    <g id="Group_15817" data-name="Group 15817" transform="translate(509.965 332.966)">
      <path id="arrows-to-circle-solid" d="M-18.715,289.429h-.417a.713.713,0,0,1-.714-.714.713.713,0,0,1,.714-.714h2.145a.714.714,0,0,1,.5.208l0,0a.77.77,0,0,1,.154.23.7.7,0,0,1,.054.272v2.143a.714.714,0,0,1-.714.714.714.714,0,0,1-.714-.714v-.415l-9.419,9.416a.715.715,0,0,1-1.011,0,.715.715,0,0,1,0-1.011Z" transform="translate(28.343 -288)" fill="#fff"/>
      <path id="arrows-to-circle-solid-2" data-name="arrows-to-circle-solid" d="M-2.916,289.429h-.417a.713.713,0,0,1-.714-.714A.713.713,0,0,1-3.334,288h2.145a.714.714,0,0,1,.5.208l0,0a.77.77,0,0,1,.154.23.7.7,0,0,1,.054.272v2.143a.714.714,0,0,1-.714.714.714.714,0,0,1-.714-.714v-.415l-4.153,4.145a.715.715,0,0,1-1.011,0,.715.715,0,0,1,0-1.011Z" transform="translate(12.544 -282.754)" fill="#fff"/>
      <path id="arrows-to-circle-solid-3" data-name="arrows-to-circle-solid" d="M-2.781,289.429H-3.2a.713.713,0,0,1-.714-.714A.713.713,0,0,1-3.2,288h2.145a.714.714,0,0,1,.5.208l0,0a.77.77,0,0,1,.154.23.7.7,0,0,1,.054.272v2.143a.714.714,0,0,1-.714.714.714.714,0,0,1-.714-.714v-.415l-4.108,4.117a.715.715,0,0,1-1.011,0,.715.715,0,0,1,0-1.011Z" transform="translate(7.16 -288)" fill="#fff"/>
    </g>
  </g>
</svg>