<svg xmlns="http://www.w3.org/2000/svg" width="20" height="20" viewBox="0 0 20 20">
  <g id="Reactivated" transform="translate(-1006 -1148)">
    <rect id="Rectangle_12595" data-name="Rectangle 12595" width="20" height="20" rx="4" transform="translate(1006 1148)" fill="#5071b6"/>
    <path id="Path_10561" data-name="Path 10561" d="M11.769-5.687h.216a.608.608,0,0,0,.609-.609v-3.25a.609.609,0,0,0-.376-.564.61.61,0,0,0-.665.132L10.5-8.922A5.686,5.686,0,0,0,2.478-8.9a5.687,5.687,0,0,0,0,8.044,5.687,5.687,0,0,0,8.044,0,.814.814,0,0,0,0-1.15.814.814,0,0,0-1.15,0A4.063,4.063,0,0,1,3.626-2a4.063,4.063,0,0,1,0-5.746,4.062,4.062,0,0,1,5.721-.025L8.3-6.729a.61.61,0,0,0-.132.665.609.609,0,0,0,.564.376Z" transform="translate(1009 1163)" fill="#fff"/>
  </g>
</svg>
