<svg xmlns="http://www.w3.org/2000/svg" width="25" height="25" viewBox="0 0 25 25">
  <g id="Group_13561" data-name="Group 13561" transform="translate(-976 17544)">
    <g id="Group_11525" data-name="Group 11525" transform="translate(791 -17983)">
      <g id="Group_11514" data-name="Group 11514">
        <rect id="Rectangle_3877" data-name="Rectangle 3877" width="25" height="25" rx="4" transform="translate(185 439)" fill="#fceed5"/>
        <g id="Group_11512" data-name="Group 11512" transform="translate(-621 -658.285)">
          <path id="Subtraction_21" data-name="Subtraction 21" d="M9.558,13H1.312A1.347,1.347,0,0,1,0,11.684V7.746H5.25V9.059a.439.439,0,0,0,.438.438H8.312a.438.438,0,0,0,.437-.438V7.746h2.6a4.678,4.678,0,0,0-1.793,5.248ZM14,6.872H0V3.809A1.347,1.347,0,0,1,1.312,2.5H3.5V1.184A1.347,1.347,0,0,1,4.812-.129H9.187A1.347,1.347,0,0,1,10.5,1.184V2.5h2.187A1.347,1.347,0,0,1,14,3.809V6.871ZM4.812,1.184V2.5H9.187V1.184Z" transform="translate(810 1101.907)" fill="#ffa200"/>
          <path id="Path_1312" data-name="Path 1312" d="M8.492,4.246A4.246,4.246,0,1,1,4.246,0,4.246,4.246,0,0,1,8.492,4.246ZM1.65,2.4a3.184,3.184,0,0,0,4.44,4.44L1.65,2.4ZM7.43,4.246A3.184,3.184,0,0,0,2.4,1.65l4.44,4.44A3.157,3.157,0,0,0,7.43,4.246Z" transform="matrix(0.174, 0.985, -0.985, 0.174, 827.495, 1108.604)" fill="#ff4040"/>
        </g>
      </g>
    </g>
  </g>
</svg>
