<svg xmlns="http://www.w3.org/2000/svg" width="15" height="15" viewBox="0 0 15 15">
  <path id="Path_1880" data-name="Path 1880" d="M15-5.625a7.5,7.5,0,0,1-7.5,7.5A7.5,7.5,0,0,1,0-5.625a7.5,7.5,0,0,1,7.5-7.5A7.5,7.5,0,0,1,15-5.625ZM2.915-8.883a5.587,5.587,0,0,0-1.04,3.258A5.61,5.61,0,0,0,7.5,0a5.577,5.577,0,0,0,3.258-1.04L2.915-8.883Zm10.21,3.258A5.61,5.61,0,0,0,7.5-11.25a5.587,5.587,0,0,0-3.258,1.04l7.843,7.843A5.577,5.577,0,0,0,13.125-5.625Z" transform="translate(0 13.125)" fill="#666"/>
</svg>
