<svg xmlns="http://www.w3.org/2000/svg" width="15" height="20" viewBox="0 0 15 20">
  <path id="Path_10577" data-name="Path 10577" d="M11.25,10.5H3.75V13h7.5Zm3.477-5.9L10.9.773A.937.937,0,0,0,10.238.5H10v5h5V5.262A.934.934,0,0,0,14.727,4.6ZM8.75,5.813V.5H.937A.935.935,0,0,0,0,1.438V19.562a.935.935,0,0,0,.937.937H14.062A.935.935,0,0,0,15,19.562V6.75H9.687A.94.94,0,0,1,8.75,5.813ZM2.5,3.313A.312.312,0,0,1,2.812,3H5.937a.312.312,0,0,1,.312.312v.625a.312.312,0,0,1-.312.313H2.812A.312.312,0,0,1,2.5,3.938Zm0,2.5A.312.312,0,0,1,2.812,5.5H5.937a.312.312,0,0,1,.312.312v.625a.312.312,0,0,1-.312.312H2.812A.312.312,0,0,1,2.5,6.438Zm10,11.875a.312.312,0,0,1-.312.313H9.062a.312.312,0,0,1-.312-.312v-.625a.312.312,0,0,1,.313-.312h3.125a.312.312,0,0,1,.312.312Zm0-7.812v3.75a.625.625,0,0,1-.625.625H3.125a.625.625,0,0,1-.625-.625V9.875a.625.625,0,0,1,.625-.625h8.75A.625.625,0,0,1,12.5,9.875Z" transform="translate(0 -0.5)" fill="#707070"/>
</svg>
