<svg xmlns="http://www.w3.org/2000/svg" width="122.806" height="160.92" viewBox="0 0 122.806 160.92">
  <g id="Wages_Certificate" data-name="Wages Certificate" transform="translate(0)">
    <g id="Group_12932" data-name="Group 12932" transform="translate(0)">
      <path id="Path_10322" data-name="Path 10322" d="M197.3,0l11.01,11.01,12.7-5.929,5.929,14.4L240.5,17.786V33.03l13.551,5.082-5.929,13.551,11.01,9.317L247.272,71.99l6.775,12.7-14.4,5.929.847,13.551H225.252l-4.235,13.551-14.4-5.929-9.317,11.01-10.163-11.857-12.7,6.775-5.929-14.4-14.4.847.847-15.245L141.4,84.694l5.929-14.4-11.01-9.317,11.01-10.163-5.929-12.7,14.4-5.929-1.694-14.4,15.245.847,5.082-13.551,13.551,5.929Zm0,17.786a43.377,43.377,0,0,1,43.2,43.2c0,23.715-19.48,42.348-43.2,42.348a41.936,41.936,0,0,1-42.348-42.348c0-23.715,18.633-43.2,42.348-43.2Z" transform="translate(-136.323)" fill="#801f8b" fill-rule="evenodd"/>
      <path id="Path_10323" data-name="Path 10323" d="M293.379,119.795A37.265,37.265,0,1,1,256.115,82.53a37.265,37.265,0,0,1,37.265,37.265" transform="translate(-195.135 -58.814)" fill="#801f8b" fill-rule="evenodd"/>
      <path id="Path_10324" data-name="Path 10324" d="M306.75,394.95v47.428l-28.8-18.633L248.31,442.378V395.795l3.388,9.317,14.4-7.623,11.857,12.7,10.164-11.857,15.245,6.775Z" transform="translate(-216.13 -281.458)" fill="#801f8b" fill-rule="evenodd"/>
    </g>
    <g id="Wage">
      <g id="Group_12933" data-name="Group 12933" transform="translate(37.165 52.029)">
        <g id="Group_12904" data-name="Group 12904">
          <g id="Group_12903" data-name="Group 12903" transform="translate(26.867 0.098)">
            <path id="Path_1270" data-name="Path 1270" d="M71.539,42.531a40.093,40.093,0,0,1-1.813,4.395,5.345,5.345,0,0,1-.439,4.395c-.22.385-.494.824-.769,1.263-.769,1.044-1.813,2.2-2.966,3.461-.055.11-.165.165-.22.275a.837.837,0,1,1-1.263-1.1c.11-.11.165-.22.275-.275a27.6,27.6,0,0,0,3.516-4.34c1.1-2.2.384-3.68-.714-4.285a2.036,2.036,0,0,0-2.8.494,41.794,41.794,0,0,1-3.571,4.394,32.932,32.932,0,0,0-3.79,4.889,23.554,23.554,0,0,0-2.362,9.228c-.11,1.923-.165,4.12-.22,5.438a1.219,1.219,0,0,0,1.208,1.208h7.745a1.219,1.219,0,0,0,1.208-1.208v-2.2a1.812,1.812,0,0,1,.659-1.318,40.72,40.72,0,0,0,6.811-5.878c3.131-3.68,4.285-14.557,4.449-17.8C76.647,40.224,72.472,39.509,71.539,42.531Z" transform="translate(-54.4 -40.618)" fill="#fff"/>
          </g>
          <path id="Path_1271" data-name="Path 1271" d="M24.942,55.909a36.032,36.032,0,0,0-3.79-4.889,40.5,40.5,0,0,1-3.571-4.395,2.071,2.071,0,0,0-2.8-.494c-1.1.6-1.813,2.087-.714,4.285a23.359,23.359,0,0,0,3.516,4.34c.11.11.165.22.275.275a.842.842,0,0,1-.165,1.263.921.921,0,0,1-1.1-.165c-.055-.11-.165-.165-.22-.275-1.154-1.263-2.2-2.417-2.966-3.461a5.2,5.2,0,0,1-.769-1.263,5.333,5.333,0,0,1-.439-4.394,42.312,42.312,0,0,1-1.813-4.395A2.5,2.5,0,0,0,5.5,43.33c.165,3.241,1.318,14.117,4.449,17.8a38.607,38.607,0,0,0,6.811,5.878,1.5,1.5,0,0,1,.659,1.318v2.2a1.219,1.219,0,0,0,1.208,1.208H26.37a1.219,1.219,0,0,0,1.208-1.208c-.055-1.318-.11-3.516-.22-5.438C27.084,61.183,25.93,57.447,24.942,55.909Z" transform="translate(-5.491 -40.442)" fill="#fff"/>
        </g>
      </g>
      <path id="noun-money-4857994" d="M118.073,117.392a3.4,3.4,0,0,0-3.4-3.4H99.649a3.4,3.4,0,0,0-3.4,3.4v6.417a3.4,3.4,0,0,0,3.4,3.4h15.019a3.4,3.4,0,0,0,3.4-3.4Zm-10.914-.846a4.055,4.055,0,1,0,4.055,4.055A4.057,4.057,0,0,0,107.159,116.546Zm-6.214-3.015h13.723a3.861,3.861,0,0,1,3.861,3.861v5.259h.84a3.4,3.4,0,0,0,3.4-3.4v-6.417a3.4,3.4,0,0,0-3.4-3.4H104.349a3.4,3.4,0,0,0-3.4,3.4Zm-1.7,7.526H101.4a.456.456,0,1,0,0-.913H99.242a.456.456,0,0,0,0,.913Zm13.674,0h2.158a.456.456,0,1,0,0-.913h-2.158a.456.456,0,0,0,0,.913Z" transform="translate(-46.691 -73.033)" fill="#fff" fill-rule="evenodd"/>
    </g>
  </g>
</svg>
