<svg xmlns="http://www.w3.org/2000/svg" width="15.5" height="15.5" viewBox="0 0 15.5 15.5">
  <path id="Add_Contract" data-name="Add Contract" d="M8-13.75A7.749,7.749,0,0,0,.25-6,7.749,7.749,0,0,0,8,1.75,7.749,7.749,0,0,0,15.75-6,7.749,7.749,0,0,0,8-13.75Zm4.5,8.625a.376.376,0,0,1-.375.375H9.25v2.875a.376.376,0,0,1-.375.375H7.125a.376.376,0,0,1-.375-.375V-4.75H3.875A.376.376,0,0,1,3.5-5.125v-1.75a.376.376,0,0,1,.375-.375H6.75v-2.875a.376.376,0,0,1,.375-.375h1.75a.376.376,0,0,1,.375.375V-7.25h2.875a.376.376,0,0,1,.375.375Z" transform="translate(-0.25 13.75)" fill="#666"/>
</svg>
