<svg xmlns="http://www.w3.org/2000/svg" width="18" height="24" viewBox="0 0 18 24">
  <path id="Contract_Information" data-name="Contract Information" d="M10.5-14.625V-21H1.125A1.122,1.122,0,0,0,0-19.875V1.875A1.122,1.122,0,0,0,1.125,3h15.75A1.122,1.122,0,0,0,18,1.875V-13.5H11.625A1.128,1.128,0,0,1,10.5-14.625Zm-7.5-3A.375.375,0,0,1,3.375-18h3.75a.375.375,0,0,1,.375.375v.75a.375.375,0,0,1-.375.375H3.375A.375.375,0,0,1,3-16.875Zm0,3A.375.375,0,0,1,3.375-15h3.75a.375.375,0,0,1,.375.375v.75a.375.375,0,0,1-.375.375H3.375A.375.375,0,0,1,3-13.875ZM12.038-3H14.25a.75.75,0,0,1,.75.75.75.75,0,0,1-.75.75H12.038a2.015,2.015,0,0,1-1.811-1.118.519.519,0,0,0-.477-.306.511.511,0,0,0-.47.29l-.36.719a.82.82,0,0,1-.67.414h0L8.2-1.5a.747.747,0,0,1-.658-.51L6.75-4.379l-.5,1.494A2.024,2.024,0,0,1,4.331-1.5H3.75A.75.75,0,0,1,3-2.25.75.75,0,0,1,3.75-3h.581a.525.525,0,0,0,.5-.359L5.682-5.92A1.126,1.126,0,0,1,6.75-6.69a1.124,1.124,0,0,1,1.067.769l.651,1.952a2.1,2.1,0,0,1,3.094.664A.535.535,0,0,0,12.038-3Zm5.634-13.078-4.589-4.594a1.124,1.124,0,0,0-.8-.328H12v6h6v-.286A1.121,1.121,0,0,0,17.672-16.078Z" transform="translate(0 21)" fill="#1baf5d"/>
</svg>
