<svg xmlns="http://www.w3.org/2000/svg" xmlns:xlink="http://www.w3.org/1999/xlink" width="119.183" height="119.183" viewBox="0 0 119.183 119.183">
  <defs>
    <clipPath id="clip-path">
      <path id="Path_715" data-name="Path 715" d="M59.591,0A59.591,59.591,0,1,1,0,59.591,59.591,59.591,0,0,1,59.591,0Z" transform="translate(-9622 13612)" fill="#f5eee5"/>
    </clipPath>
  </defs>
  <g id="female" transform="translate(9622 -13612)">
    <path id="Path_1187" data-name="Path 1187" d="M59.591,0A59.591,59.591,0,1,1,0,59.591,59.591,59.591,0,0,1,59.591,0Z" transform="translate(-9622 13612)" fill="#f5eee5"/>
    <g id="Mask_Group_17" data-name="Mask Group 17" clip-path="url(#clip-path)">
      <g id="Group_419" data-name="Group 419" transform="translate(140 32)">
        <path id="Path_1184" data-name="Path 1184" d="M-9669.333,13525.333s-1.934,8.334,1.733,10.667,21.933,5,25.933,12-34.666,16-34.666,16l-34-5.667-9-10.333,1.666-2.333A94.34,94.34,0,0,1-9696,13536c11.667-3.333,4-12.667,4-12.667Z" transform="translate(-22 138)" fill="#1e1e23"/>
        <path id="Path_1185" data-name="Path 1185" d="M-9669,13523.908V13534l-10.2,7-12.6-6.8v-10.292Z" transform="translate(-22 138)" fill="#d4b08c"/>
        <path id="Path_1179" data-name="Path 1179" d="M20.481,89.7a11.191,11.191,0,0,1-4.2-.787A54.726,54.726,0,0,1,8.332,83.4c-2.185-2.01-3.321-4.458-3.671-8.741S3,55.17,3,51.674C3,46.692,7.458,39,20.481,39h0C33.5,39,37.962,46.692,37.962,51.674c0,3.5-1.311,18.792-1.661,23.075s-1.4,6.73-3.671,8.741A59.911,59.911,0,0,1,24.677,89a13.2,13.2,0,0,1-4.2.7Z" transform="translate(-9723.245 13580.5)" fill="#f2cea5"/>
        <path id="Path_1183" data-name="Path 1183" d="M-9671.15,13464.333c1.15,2,15.816-2.334,16.483,21s-.334,30.667,3,35.667-17.333,6-17.333,6,16-45.334-6-41.667-23,10-23,15.334,5.667,26.333,5.667,26.333-16-.667-17.334-6,2.334,7.334,3.667-20.333,7-31,13.667-36.334S-9672.3,13462.333-9671.15,13464.333Z" transform="translate(-22 138)" fill="#e6a422"/>
        <path id="Path_1186" data-name="Path 1186" d="M-9671.15,13464.333c.765,1.33,5.246,6.945,3.817,13-.611,2.626-1.86,7.106-7.667,8-17.333,2.666-23,10-23,15.334s5.667,26.333,5.667,26.333-16-.667-17.334-6,2.334,7.334,3.667-20.333,7-31,13.667-36.334S-9672.3,13462.333-9671.15,13464.333Z" transform="translate(-22 138)" fill="#d98c21"/>
      </g>
    </g>
  </g>
</svg>
