<svg xmlns="http://www.w3.org/2000/svg" xmlns:xlink="http://www.w3.org/1999/xlink" width="120" height="120" viewBox="0 0 120 120"><defs><style>.a{fill:#f5eee5;}.b{clip-path:url(#a);}.c{fill:#d4b08c;}.d{clip-path:url(#c);}.e{fill:#1e1e23;}.f{fill:#c1cad4;}.g{fill:#216dd9;}.h{fill:#249cf2;}.i{fill:#fff;}.j{fill:#f2cea5;}.k{fill:#a3705f;}.l{fill:#262626;}.m,.n{fill:none;stroke-width:2px;}.m{stroke:#cc9872;}.n{stroke:#bb8660;}.o{fill:#d98c21;}.p{fill:#e6a422;}</style><clipPath id="a"><circle cx="60" cy="60" r="60"/></clipPath><clipPath id="c"><path d="M50.469,101.758l33.252,9.177a14.477,14.477,0,0,1,8.462,7.866v11.68H-27V118.8a14.15,14.15,0,0,1,8.462-7.866l33.252-9.177V84H50.469Z" transform="translate(27 -84)"/></clipPath></defs><g transform="translate(27 -23)"><g transform="translate(-27 23)"><path class="a" d="M59.591,0A59.591,59.591,0,1,1,0,59.591,59.591,59.591,0,0,1,59.591,0Z"/><g class="b"><path class="c" d="M50.469,101.758l33.252,9.177a14.477,14.477,0,0,1,8.462,7.866v11.68H-27V118.8a14.15,14.15,0,0,1,8.462-7.866l33.252-9.177V84H50.469Z" transform="translate(27 -11.299)"/></g><g class="b"><g class="d" transform="translate(0 72.701)"><path class="e" d="M32.83,103.959H24.248L18.528,98H-27v29.8H92.54V98H47.132l-5.721,5.959Z" transform="translate(27 -81.314)"/></g><g class="d" transform="translate(0 72.701)"><path class="f" d="M26.012,104.477H27.2L44.723,95.3l-6.913,34.444-11.8-1.311-11.8,1.311L7.3,95.3l17.52,9.177Z" transform="translate(33.58 -81.832)"/></g><g class="d" transform="translate(0 72.701)"><path class="g" d="M21.267,112h5.959l4.767,14.3H16.5Z" transform="translate(35.344 -78.629)"/></g><g class="d" transform="translate(0 72.701)"><path class="h" d="M12.5,103H37.528l-9.535,10.726H22.035Z" transform="translate(34.577 -80.355)"/></g><g class="d" transform="translate(0 72.701)"><path class="i" d="M44.542,93,27.38,104.918l12.872,13.11,4.886-23.836ZM7.6,93l17.162,11.918-12.872,13.11L7,94.192Z" transform="translate(33.522 -82.274)"/></g></g><path class="j" d="M26.836,108.126a15.259,15.259,0,0,1-5.721-1.073A74.623,74.623,0,0,1,10.27,99.545C7.291,96.8,5.741,93.466,5.264,87.626S3,61.049,3,56.281C3,49.488,9.078,39,26.836,39h0c17.758,0,23.837,10.488,23.837,17.281,0,4.767-1.788,25.624-2.264,31.464S46.5,96.923,43.4,99.664a81.691,81.691,0,0,1-10.846,7.508,18,18,0,0,1-5.721.953Z" transform="translate(32.755 -19.931)"/><path class="k" d="M32.777,83H16.092c-.477,0-.715.477-.477.953,1.549,2.741,4.41,4.171,7.985,4.41,3.695.238,7.747-1.549,9.654-4.41A.624.624,0,0,0,32.777,83Z" transform="translate(35.157 -11.491)"/><circle class="l" cx="2.384" cy="2.384" r="2.384" transform="translate(67.934 51.248)"/><circle class="l" cx="2.384" cy="2.384" r="2.384" transform="translate(46.481 51.248)"/><path class="m" d="M8,65.575S9.311,62,15.27,62c4.052,0,6.436,1.788,7.628,3.575" transform="translate(33.714 -15.519)"/><path class="n" d="M40.613,65.575S39.3,62,33.343,62C27.622,62,25,65.575,25,67.959V78.686" transform="translate(36.975 -15.519)"/><path class="o" d="M44.489,76.82s.953-7.509,4.41-8.581c.477-2.145,1.788-8.343,1.788-11.8s-.358-6.793-2.264-9.654A12.867,12.867,0,0,0,39.364,41.9c-2.741,1.669-9.177,5.482-11.2,7.747-1.073,1.192.477,2.145.477,2.145a17.132,17.132,0,0,1,2.026-.715c2.98-.834,9.535-1.43,11.561,1.549,2.5,3.575,2.5,14.064,2.5,15.613C44.727,69.67,44.489,76.82,44.489,76.82Z" transform="translate(37.509 -19.375)"/><path class="p" d="M.788,69.908C4.244,71.1,5.2,78.489,5.2,78.489s-.238-7.151-.238-8.581c0-1.907.238-10.846,4.052-15.136C13.3,50,19.023,48.455,22.241,50.6c1.669,1.073,7.27,6.555,13.229,2.026C39.045,49.886,45.6,43.688,45.6,43.688s-3.456-10.607-19.188-9.415A53.016,53.016,0,0,1,12.348,33.2s-.119,2.98,1.073,4.529C3.529,40.589.311,47.74-.642,53.223A14.793,14.793,0,0,0-1,56.441v1.669C-1,61.565.311,67.644.788,69.908Z" transform="translate(31.987 -21.043)"/></g></g></svg>