<svg xmlns="http://www.w3.org/2000/svg" width="16" height="16" viewBox="0 0 16 16">
  <path id="Transfer" d="M13.77-13.607l.125,2.587A8.775,8.775,0,0,0,8-13.75H7.995A7.748,7.748,0,0,0,.384-7.443a.451.451,0,0,0-.006.068A.375.375,0,0,0,.753-7H2.286a.393.393,0,0,0,.365-.289A5.77,5.77,0,0,1,7.995-11.5a6.145,6.145,0,0,1,4.562,2.43L9.386-9.221H9.368a.375.375,0,0,0-.375.375h0v1.482a.375.375,0,0,0,.375.375h6.257A.375.375,0,0,0,16-7.364v-6.261A.375.375,0,0,0,15.625-14h-1.48a.375.375,0,0,0-.375.375S13.77-13.612,13.77-13.607ZM7.995-.5h0A6.133,6.133,0,0,1,3.432-2.931l3.181.152h.018a.375.375,0,0,0,.375-.375h0V-4.635a.375.375,0,0,0-.375-.375H.375A.375.375,0,0,0,0-4.635v6.26A.375.375,0,0,0,.375,2h1.48a.375.375,0,0,0,.375-.375c0-.005,0-.014,0-.019L2.1-.974A8.777,8.777,0,0,0,7.987,1.75h.007a7.749,7.749,0,0,0,7.611-6.307.451.451,0,0,0,.006-.068A.375.375,0,0,0,15.237-5H13.7a.393.393,0,0,0-.365.289A5.768,5.768,0,0,1,8-.5Z" transform="translate(0 14)" fill="#666"/>
</svg>
