<svg xmlns="http://www.w3.org/2000/svg" width="12" height="16" viewBox="0 0 12 16">
  <path id="Path_1304" data-name="Path 1304" d="M7-9.75V-14H.75a.748.748,0,0,0-.75.75V1.25A.748.748,0,0,0,.75,2h10.5A.748.748,0,0,0,12,1.25V-9H7.75A.752.752,0,0,1,7-9.75Zm-5-2A.25.25,0,0,1,2.25-12h2.5a.25.25,0,0,1,.25.25v.5a.25.25,0,0,1-.25.25H2.25A.25.25,0,0,1,2-11.25Zm0,2A.25.25,0,0,1,2.25-10h2.5A.25.25,0,0,1,5-9.75v.5A.25.25,0,0,1,4.75-9H2.25A.25.25,0,0,1,2-9.25ZM8.025-2H9.5a.5.5,0,0,1,.5.5.5.5,0,0,1-.5.5H8.025a1.343,1.343,0,0,1-1.207-.746.346.346,0,0,0-.318-.2.341.341,0,0,0-.313.193l-.24.479A.5.5,0,0,1,5.5-1s0,0,0,0L5.464-1a.5.5,0,0,1-.438-.34L4.5-2.919l-.332,1A1.349,1.349,0,0,1,2.887-1H2.5A.5.5,0,0,1,2-1.5.5.5,0,0,1,2.5-2h.387a.35.35,0,0,0,.333-.239l.568-1.707A.751.751,0,0,1,4.5-4.46a.75.75,0,0,1,.712.513l.434,1.3A1.4,1.4,0,0,1,7.708-2.2.357.357,0,0,0,8.025-2Zm3.756-8.719L8.722-13.781A.749.749,0,0,0,8.191-14H8v4h4v-.191A.748.748,0,0,0,11.781-10.719Z" transform="translate(0 14)" fill="#666"/>
</svg>
