<svg xmlns="http://www.w3.org/2000/svg" width="20.391" height="13" viewBox="0 0 26.391 24">
  <g id="Inspection_Details_icon" data-name="Inspection Details icon" transform="translate(-120 -1343.25)">
    <path id="Path_2062" data-name="Path 2062" d="M15.328,1.125h-.7V-14.906a.844.844,0,0,0-.844-.844H1.969a.844.844,0,0,0-.844.844V1.125h-.7A.422.422,0,0,0,0,1.547v.7H15.75v-.7A.422.422,0,0,0,15.328,1.125ZM4.5-13.078a.422.422,0,0,1,.422-.422H6.328a.422.422,0,0,1,.422.422v1.406a.422.422,0,0,1-.422.422H4.922a.422.422,0,0,1-.422-.422ZM4.5-9.7a.422.422,0,0,1,.422-.422H6.328A.422.422,0,0,1,6.75-9.7V-8.3a.422.422,0,0,1-.422.422H4.922A.422.422,0,0,1,4.5-8.3ZM6.328-4.5H4.922A.422.422,0,0,1,4.5-4.922V-6.328a.422.422,0,0,1,.422-.422H6.328a.422.422,0,0,1,.422.422v1.406A.422.422,0,0,1,6.328-4.5ZM9,1.125H6.75V-1.828a.422.422,0,0,1,.422-.422H8.578A.422.422,0,0,1,9-1.828Zm2.25-6.047a.422.422,0,0,1-.422.422H9.422A.422.422,0,0,1,9-4.922V-6.328a.422.422,0,0,1,.422-.422h1.406a.422.422,0,0,1,.422.422Zm0-3.375a.422.422,0,0,1-.422.422H9.422A.422.422,0,0,1,9-8.3V-9.7a.422.422,0,0,1,.422-.422h1.406a.422.422,0,0,1,.422.422Zm0-3.375a.422.422,0,0,1-.422.422H9.422A.422.422,0,0,1,9-11.672v-1.406a.422.422,0,0,1,.422-.422h1.406a.422.422,0,0,1,.422.422Z" transform="translate(120 1359)" fill="#fff"/>
    <g id="Group_1754" data-name="Group 1754">
      <circle id="Ellipse_401" data-name="Ellipse 401" cx="6.5" cy="6.5" r="6.5" transform="translate(132 1344)" fill="#1baf5d"/>
      <path id="search-location-solid" d="M13.209,11.578,10.6,8.97a.627.627,0,0,0-.445-.183H9.73a5.439,5.439,0,1,0-.942.941v.426a.627.627,0,0,0,.183.445l2.608,2.607a.625.625,0,0,0,.887,0l.74-.74a.63.63,0,0,0,0-.889ZM5.441,9.205A3.766,3.766,0,1,1,9.207,5.44,3.764,3.764,0,0,1,5.441,9.205Zm0-1.254Z" transform="translate(134 1345)" fill="#fff"/>
    </g>
  </g>
</svg>
