<svg xmlns="http://www.w3.org/2000/svg" width="20" height="20" viewBox="10 0 15 35">
  <path id="Penalty_Calculation_Details_icon" data-name="Penalty Calculation Details icon" d="M28.792,16.374,24.845,8.592a.839.839,0,0,0-.695-.472l-5.336.028a3.15,3.15,0,0,0-1.5-1.779V5.34a1.643,1.643,0,0,0-1.64-1.64,1.625,1.625,0,0,0-1.64,1.64V6.368a3.211,3.211,0,0,0-1.473,1.779L7.225,8.119a.879.879,0,0,0-.695.472L2.611,16.374a1.157,1.157,0,0,0-.083.75A5.012,5.012,0,0,0,7.28,21.1a5.012,5.012,0,0,0,4.753-3.974,1.177,1.177,0,0,0-.083-.75L8.892,10.315l3.669.028a3.267,3.267,0,0,0,1.473,1.751V22.516a3.8,3.8,0,0,1-3.419,3.78l-2.974.334a.664.664,0,0,0-.584.667v1.5a.676.676,0,0,0,.667.667H23.734A.676.676,0,0,0,24.4,28.8V27.3a.685.685,0,0,0-.584-.667L20.732,26.3a3.819,3.819,0,0,1-3.419-3.78V12.093a3.267,3.267,0,0,0,1.473-1.751l3.669-.028L19.4,16.374a1.157,1.157,0,0,0-.083.75A5.012,5.012,0,0,0,24.067,21.1a5.012,5.012,0,0,0,4.753-3.974A.888.888,0,0,0,28.792,16.374ZM9.837,15.317H4.751l2.557-5.031Zm11.729,0,2.557-5.031,2.557,5.031Z" transform="translate(-2.5 -3.7)" fill="#fff"/>
</svg>
