<svg xmlns="http://www.w3.org/2000/svg" width="23" height="23" viewBox="0 0 23 23">
  <path id="Exclusion_1" data-name="Exclusion 1" d="M-7308.5,23a11.426,11.426,0,0,1-8.132-3.369A11.425,11.425,0,0,1-7320,11.5a11.425,11.425,0,0,1,3.369-8.132A11.426,11.426,0,0,1-7308.5,0a11.425,11.425,0,0,1,8.131,3.369A11.425,11.425,0,0,1-7297,11.5a11.425,11.425,0,0,1-3.369,8.132A11.425,11.425,0,0,1-7308.5,23Zm-.553-18a1.957,1.957,0,0,0-1.249.5,3.873,3.873,0,0,0-1.02,1.352,3.684,3.684,0,0,0-.412,1.578,2.236,2.236,0,0,0,.461,1.277,3.082,3.082,0,0,0,1.227,1.012,4.314,4.314,0,0,0-1.2,3.022,3.465,3.465,0,0,0,1.086,2.68,4.259,4.259,0,0,0,2.969.992,4.452,4.452,0,0,0,1.532-.445,20.33,20.33,0,0,0,2.414-1.29l-.219-.68c-1.1.253-1.9.415-2.351.481a9.576,9.576,0,0,1-1.336.1,4.775,4.775,0,0,1-2.445-.513,1.592,1.592,0,0,1-.845-1.426,2.07,2.07,0,0,1,.336-1.117,3.308,3.308,0,0,1,1.027-.977,12.878,12.878,0,0,1,2.09-1,6.391,6.391,0,0,0,1.134-.538,1.49,1.49,0,0,0,.424-.454,1.192,1.192,0,0,0,.152-.625,1.341,1.341,0,0,0-.187-.8,16.292,16.292,0,0,0-3.094,1.383,2.8,2.8,0,0,1-1.453-.794,2.223,2.223,0,0,1-.579-1.442,4.638,4.638,0,0,1,.946-.395,3.85,3.85,0,0,1,1-.119,4.948,4.948,0,0,1,1.688.366l.336-.639A3.6,3.6,0,0,0-7309.053,5Z" transform="translate(7320 0)" fill="#fff"/>
</svg>
