<svg xmlns="http://www.w3.org/2000/svg" width="23" height="23" viewBox="0 0 23 23">
  <g id="SAR" transform="translate(-5175 4386)">
    <path id="Path_1310" data-name="Path 1310" d="M11.5,0A11.5,11.5,0,1,1,0,11.5,11.5,11.5,0,0,1,11.5,0Z" transform="translate(5175 -4386)" fill="#fff"/>
    <g id="sar-2" data-name="sar" transform="translate(5176.5 -4160.679)">
      <path id="Path_1306" data-name="Path 1306" d="M6.231-219.828a9.732,9.732,0,0,0-.36,1.1l-.138.581.214.187c.208.187.214.214.643,2.573.623,3.465.623,3.832-.055,4.42a3.943,3.943,0,0,1-3.161.6c-1.217-.367-1.335-1.667-.311-3.368a6.393,6.393,0,0,0,.339-.609.955.955,0,0,0-.242-.2l-.242-.152-.311.484a8.7,8.7,0,0,0-.982,2.075,5.365,5.365,0,0,0-.125,1.349,2.469,2.469,0,0,0,.159,1.245,2.294,2.294,0,0,0,1.729,1.287,5.447,5.447,0,0,0,2.158-.138A3.959,3.959,0,0,0,7.8-210.165a2.673,2.673,0,0,0,.221-1.363,15.492,15.492,0,0,0-.443-3.922c-.166-.927-.3-1.708-.3-1.743s.048-.062.1-.062c.166,0,.457-.754.546-1.453l.042-.311-.45-.242c-.567-.3-.685-.422-.671-.719.007-.2-.021-.249-.194-.3C6.452-220.361,6.452-220.361,6.231-219.828Z" transform="translate(0 0)" fill="#4ba180"/>
      <path id="Path_1307" data-name="Path 1307" d="M105.947-212.848c-.028.09-.214.512-.4.948l-.346.8.235.277a1.837,1.837,0,0,1,.311.519,21.137,21.137,0,0,1,.131,2.393c.048,2.179.1,2.615.373,3.133a1.574,1.574,0,0,0,.685.629,21.885,21.885,0,0,0,2.656.076h2.455l-.028-1.785a7.1,7.1,0,0,0-.18-2.227c-.152-.47-.623-1.224-.74-1.19a3.567,3.567,0,0,0-.353.872l-.291.851.249.3a3.222,3.222,0,0,1,.533,1.01l.042.159h-3.825l-.194-.194c-.3-.3-.353-.733-.415-3.023s-.09-2.476-.526-3.272a2.165,2.165,0,0,0-.277-.429A.362.362,0,0,0,105.947-212.848Z" transform="translate(-96.527 -6.814)" fill="#4ba180"/>
      <path id="Path_1308" data-name="Path 1308" d="M167.257-152.606c-.048.221-.138.664-.214.989l-.124.581.284.367a3.44,3.44,0,0,1,.609,1.293c.007.436-.892,1.473-1.971,2.289a2.514,2.514,0,0,1-1.556.685,2.267,2.267,0,0,1-1.418-.408l-.546-.311-.159.187a1.022,1.022,0,0,0-.159.27,3.456,3.456,0,0,0,.754.574c1.466.955,2.352,1.252,3.064,1.024a5.409,5.409,0,0,0,2.414-2.317l.214-.436-.028-1.708a6.248,6.248,0,0,0-.18-2.117,3.417,3.417,0,0,0-.858-1.356A.963.963,0,0,0,167.257-152.606Z" transform="translate(-149.399 -62.664)" fill="#4ba180"/>
      <path id="Path_1309" data-name="Path 1309" d="M107.144-76.547a2.469,2.469,0,0,1-.325.56,5.167,5.167,0,0,1-.512-.27l-.477-.277-.166.291c-.339.609-.664,1.21-.664,1.245a1.912,1.912,0,0,0,.4.263c.214.125.526.3.685.387l.291.166.291-.574c.159-.318.3-.581.3-.595a2.7,2.7,0,0,1,.519.228,2.078,2.078,0,0,0,.56.228,4.008,4.008,0,0,0,.443-.726l.38-.706-.152-.083c-.09-.042-.415-.214-.726-.387l-.567-.3Z" transform="translate(-96.341 -133.314)" fill="#4ba180"/>
    </g>
  </g>
</svg>
