<svg xmlns="http://www.w3.org/2000/svg" width="23.289" height="25.941" viewBox="0 0 23.289 25.941">
  <path id="BenefitReason_Green" d="M23503.67,5567.94a1.517,1.517,0,0,1-.5-.094l-.043-.021c-1.859-.9-11.129-6.141-11.129-20.936a1.162,1.162,0,0,1,1.074-1.163,19.463,19.463,0,0,0,9.826-3.458,1.218,1.218,0,0,1,1.529,0,19.24,19.24,0,0,0,9.779,3.5,1.147,1.147,0,0,1,1.08,1.168,28.228,28.228,0,0,1-1.678,9.944,21.492,21.492,0,0,1-3.721,6.4,16.986,16.986,0,0,1-5.732,4.563l-.045.012-.039.011h0A1.443,1.443,0,0,1,23503.67,5567.94Zm-.006-10.127a1.13,1.13,0,1,0,1.127,1.127A1.131,1.131,0,0,0,23503.664,5557.813Zm.064-7.07c.83,0,1.27.465,1.27,1.345,0,.759-.461,1.117-.992,1.532l-.1.079a2.927,2.927,0,0,0-1.293,2.343v.673h2.014v-.572a2.386,2.386,0,0,1,1.215-1.563l.07-.052c.059-.041.115-.083.172-.125a2.783,2.783,0,0,0,1.258-2.526c0-.994-.777-2.874-3.719-2.874a3.511,3.511,0,0,0-3.623,3.683h2.2C23502.207,5551.469,23502.781,5550.743,23503.729,5550.743Z" transform="translate(-23492.002 -5541.999)" fill="#1baf5d"/>
</svg>
