<svg xmlns="http://www.w3.org/2000/svg" width="23.231" height="24.786" viewBox="0 0 23.231 24.786">
  <g id="Benefits-gray" data-name="Group 1493" transform="translate(-5.479 -2.5)">
    <path id="Path_1270" data-name="Path 1270" d="M62.523,41.524a19,19,0,0,1-.859,2.083,2.533,2.533,0,0,1-.208,2.083c-.1.182-.234.391-.365.6-.365.495-.859,1.041-1.406,1.64-.026.052-.078.078-.1.13a.4.4,0,1,1-.6-.521c.052-.052.078-.1.13-.13a13.082,13.082,0,0,0,1.666-2.057c.521-1.041.182-1.744-.338-2.031a.965.965,0,0,0-1.328.234,19.809,19.809,0,0,1-1.692,2.083,15.608,15.608,0,0,0-1.8,2.317,11.164,11.164,0,0,0-1.12,4.374c-.052.911-.078,1.953-.1,2.578a.578.578,0,0,0,.573.573h3.671a.578.578,0,0,0,.573-.573V53.865a.859.859,0,0,1,.312-.625,19.3,19.3,0,0,0,3.228-2.786c1.484-1.744,2.031-6.9,2.109-8.436a1.2,1.2,0,0,0-2.346-.494Z" transform="translate(-36.175 -28.194)" fill="#666666"/>
    <path id="Path_1271" data-name="Path 1271" d="M14.71,47.773a17.077,17.077,0,0,0-1.8-2.317,19.2,19.2,0,0,1-1.692-2.083.982.982,0,0,0-1.328-.234c-.521.286-.859.989-.338,2.031a11.072,11.072,0,0,0,1.666,2.057c.052.052.078.1.13.13a.4.4,0,0,1-.078.6.436.436,0,0,1-.521-.078c-.026-.052-.078-.078-.1-.13-.547-.6-1.041-1.146-1.406-1.64a2.463,2.463,0,0,1-.365-.6,2.528,2.528,0,0,1-.208-2.083,20.055,20.055,0,0,1-.859-2.083,1.183,1.183,0,0,0-2.317.469c.078,1.536.625,6.691,2.109,8.436a18.3,18.3,0,0,0,3.228,2.786.711.711,0,0,1,.312.625V54.7a.578.578,0,0,0,.573.573h3.671a.578.578,0,0,0,.573-.573c-.026-.625-.052-1.666-.1-2.578a10.82,10.82,0,0,0-1.15-4.349Z" transform="translate(0 -28.063)" fill="#666666"/>
    <path id="Path_1272" data-name="Path 1272" d="M37.513,5.364a.662.662,0,0,0-.625-.677,11.256,11.256,0,0,1-5.676-2.031.705.705,0,0,0-.885,0,11.132,11.132,0,0,1-5.7,2A.68.68,0,0,0,24,5.338c0,9.217,6.223,12.029,6.483,12.159a.936.936,0,0,0,.286.052,1.107,1.107,0,0,0,.286-.052C31.316,17.393,37.513,14.581,37.513,5.364ZM33.425,9.009l-2.734,2.734a.817.817,0,0,1-1.146,0l-1.484-1.484a.81.81,0,0,1,1.146-1.146l.937.937,2.187-2.187a.817.817,0,0,1,1.146,0,.808.808,0,0,1,.234.573A1.2,1.2,0,0,1,33.425,9.009Z" transform="translate(-13.69)" fill="#666666"/>
  </g>
</svg>
