<svg xmlns="http://www.w3.org/2000/svg" width="14.685" height="18.625" viewBox="0 0 14.685 18.625">
  <g id="Bulk_Reassign_Gray" data-name="Bulk Reassign Gray" transform="translate(0.502 0.497)">
    <path id="Union_1" data-name="Union 1" d="M.7,17.627a.7.7,0,0,1-.7-.7V3.4a.7.7,0,0,1,.7-.7h.958V14.762a1,1,0,0,0,1,1H11.2v1.166a.7.7,0,0,1-.7.7Zm2.488-2.695a.7.7,0,0,1-.7-.7V.7a.7.7,0,0,1,.7-.7H9.018V3.969a.7.7,0,0,0,.7.7h3.965v9.564a.7.7,0,0,1-.7.7ZM5.2,8.427,4.7,8.922a.35.35,0,0,0,0,.495l2.275,2.274a.35.35,0,0,0,.495,0L11.5,7.666a.35.35,0,0,0,0-.495L11,6.676a.35.35,0,0,0-.495,0L7.223,9.959,5.691,8.427a.35.35,0,0,0-.495,0Zm8.487-4.692H9.951V0h.178a.7.7,0,0,1,.495.2l2.855,2.858a.7.7,0,0,1,.2.493v.176h0Z" fill="#666666" stroke="rgba(0,0,0,0)" stroke-width="1"/>
  </g>
</svg>
