<svg xmlns="http://www.w3.org/2000/svg" width="12.25" height="14" viewBox="0 0 12.25 14">
  <path id="Calender" d="M4.156-10.5H8.094v-1.094a.656.656,0,0,1,.656-.656.656.656,0,0,1,.656.656V-10.5H10.5a1.751,1.751,0,0,1,1.75,1.75V0A1.752,1.752,0,0,1,10.5,1.75H1.75A1.751,1.751,0,0,1,0,0V-8.75A1.75,1.75,0,0,1,1.75-10.5H2.844v-1.094A.656.656,0,0,1,3.5-12.25a.656.656,0,0,1,.656.656ZM1.313-5.469H3.5V-7H1.313Zm0,1.313v1.75H3.5v-1.75Zm3.5,0v1.75H7.438v-1.75Zm3.938,0v1.75h2.188v-1.75ZM10.938-7H8.75v1.531h2.188Zm0,5.906H8.75V.438H10.5A.439.439,0,0,0,10.938,0Zm-3.5,0H4.813V.438H7.438Zm-3.937,0H1.313V0A.438.438,0,0,0,1.75.438H3.5ZM7.438-7H4.813v1.531H7.438Z" transform="translate(0 12.25)" fill="#666"/>
</svg>
