<svg xmlns="http://www.w3.org/2000/svg" width="19.25" height="22" viewBox="0 0 19.25 22">
  <path id="Path_1290" data-name="Path 1290" d="M18.734-12.375a.517.517,0,0,0,.516-.516v-1.719a.517.517,0,0,0-.516-.516h-.859v-2.062a2.063,2.063,0,0,0-2.062-2.062H2.062A2.063,2.063,0,0,0,0-17.187V.687A2.063,2.063,0,0,0,2.062,2.75h13.75A2.063,2.063,0,0,0,17.875.687V-1.375h.859a.517.517,0,0,0,.516-.516V-3.609a.517.517,0,0,0-.516-.516h-.859v-2.75h.859a.517.517,0,0,0,.516-.516V-9.109a.517.517,0,0,0-.516-.516h-.859v-2.75Zm-9.8-1.375A2.753,2.753,0,0,1,11.687-11a2.753,2.753,0,0,1-2.75,2.75A2.753,2.753,0,0,1,6.187-11,2.753,2.753,0,0,1,8.937-13.75ZM13.75-3.575a.9.9,0,0,1-.963.825h-7.7a.9.9,0,0,1-.963-.825V-4.4A2.706,2.706,0,0,1,7.012-6.875h.215a4.451,4.451,0,0,0,1.71.344,4.435,4.435,0,0,0,1.71-.344h.215A2.706,2.706,0,0,1,13.75-4.4Z" transform="translate(0 19.25)" fill="#ccc"/>
</svg>
