<svg xmlns="http://www.w3.org/2000/svg" width="19.226" height="18.963" viewBox="0 0 19.226 18.963">
  <g id="Contact_Us_-_Green" data-name="Contact Us - Green" transform="translate(19387.818 -342)">
    <path id="Path_1286" data-name="Path 1286" d="M94.627,133.2q-.2-.118-.579-.322t-.681-.375q-.306-.172-.574-.333-.043-.032-.268-.188h0a3.017,3.017,0,0,0-.381-.231.7.7,0,0,0-.306-.075.891.891,0,0,0-.536.306h0a5.238,5.238,0,0,0-.59.665,6.451,6.451,0,0,1-.569.665.816.816,0,0,1-.493.306.723.723,0,0,1-.241-.054,2.336,2.336,0,0,1-.22-.091q-.075-.038-.258-.15t-.2-.123h0a10.632,10.632,0,0,1-4.388-4.388q-.011-.022-.123-.2t-.15-.258h0a2.328,2.328,0,0,1-.091-.22.724.724,0,0,1-.054-.242.818.818,0,0,1,.306-.494h0a6.423,6.423,0,0,1,.665-.569,5.237,5.237,0,0,0,.665-.59.89.89,0,0,0,.306-.536.7.7,0,0,0-.075-.306,2.983,2.983,0,0,0-.231-.381q-.156-.225-.188-.268-.161-.268-.333-.574t-.375-.681q-.2-.376-.322-.579-.376-.751-.569-.815h0a.6.6,0,0,0-.225-.032,3.538,3.538,0,0,0-.756.107,4.27,4.27,0,0,0-.735.225,2.876,2.876,0,0,0-1.137,1.309,3.978,3.978,0,0,0-.51,2.559,4.645,4.645,0,0,0,.134.617q.1.343.156.51t.22.6q.161.429.193.526A9.71,9.71,0,0,0,82,130.39a18.027,18.027,0,0,0,5.15,5.15,9.718,9.718,0,0,0,1.878.891q.1.032.526.193t.6.22q.166.059.51.156h0a4.621,4.621,0,0,0,.617.134,3.977,3.977,0,0,0,2.559-.51,2.876,2.876,0,0,0,1.309-1.137,4.259,4.259,0,0,0,.225-.735,3.541,3.541,0,0,0,.107-.757.6.6,0,0,0-.032-.225q-.064-.193-.815-.569Z" transform="translate(-19468.186 223.792)" fill="#666666" fill-rule="evenodd"/>
    <path id="Path_1287" data-name="Path 1287" d="M302.461,19.318a5.477,5.477,0,1,0-10.09,3.026,5.246,5.246,0,0,1-1.636,1.425c.138.357.647.466,1,.5a6.045,6.045,0,0,0,2.25-.286h0a5.476,5.476,0,0,0,8.478-4.666Zm-7.888,1.007a.849.849,0,1,1,.6-.249.849.849,0,0,1-.6.249Zm2.489,0h0a.849.849,0,1,1,.6-.249.849.849,0,0,1-.6.249Zm2.489,0a.849.849,0,1,1,.6-.249.849.849,0,0,1-.6.249Z" transform="translate(-19671.053 328.084)" fill="#666666" fill-rule="evenodd"/>
  </g>
</svg>
