<svg xmlns="http://www.w3.org/2000/svg" width="20.625" height="22" viewBox="0 0 20.625 22">
  <path id="Path_10574" data-name="Path 10574" d="M16.5-19.25H4.125a2.75,2.75,0,0,0-2.75,2.75V0a2.75,2.75,0,0,0,2.75,2.75H16.5A2.75,2.75,0,0,0,19.25,0V-16.5A2.751,2.751,0,0,0,16.5-19.25Zm-6.187,5.5A2.75,2.75,0,0,1,13.063-11a2.75,2.75,0,0,1-2.75,2.75A2.75,2.75,0,0,1,7.563-11,2.751,2.751,0,0,1,10.313-13.75Zm4.125,11H6.188A.69.69,0,0,1,5.5-3.437,3.437,3.437,0,0,1,8.938-6.875h2.75a3.438,3.438,0,0,1,3.438,3.438A.69.69,0,0,1,14.438-2.75ZM21.313-16.5h-.687v4.125h.688A.69.69,0,0,0,22-13.062v-2.75A.688.688,0,0,0,21.313-16.5Zm0,5.5h-.687v4.125h.688A.69.69,0,0,0,22-7.562v-2.75A.69.69,0,0,0,21.313-11Zm0,5.5h-.687v4.125h.688A.688.688,0,0,0,22-2.062v-2.75A.69.69,0,0,0,21.313-5.5Z" transform="translate(-1.375 19.25)" fill="#1baf5d"/>
</svg>
