<svg xmlns="http://www.w3.org/2000/svg" width="123.705" height="98" viewBox="0 0 123.705 98">
  <g id="Group_1485" data-name="Group 1485" transform="translate(-762 -290)">
    <g id="Group_812" data-name="Group 812" transform="translate(-8 -72)">
      <g id="Group_260" data-name="Group 260" transform="translate(770 362)">
        <g id="Group_252" data-name="Group 252" transform="translate(3.324 16.625)">
          <rect id="Rectangle_890" data-name="Rectangle 890" width="62.34" height="11.823" rx="5.912" transform="translate(30.095 0)" fill="#fff5f5"/>
          <rect id="Rectangle_899" data-name="Rectangle 899" width="50.392" height="11.823" rx="5.912" transform="translate(19.766 69.552)" fill="#fff5f5"/>
          <rect id="Rectangle_900" data-name="Rectangle 900" width="12.266" height="11.823" rx="5.912" transform="translate(7.51 1.373)" fill="#fff5f5"/>
          <rect id="Rectangle_891" data-name="Rectangle 891" width="117.157" height="11.823" rx="5.912" transform="translate(3.224 25.032)" fill="#fff5f5"/>
          <rect id="Rectangle_895" data-name="Rectangle 895" width="117.157" height="11.823" rx="5.912" transform="translate(0 50.064)" fill="#fff5f5"/>
          <path id="Subtraction_18" data-name="Subtraction 18" d="M20.684,13.209H.418c-.134,0-.275,0-.418-.013A6.613,6.613,0,0,0,6.187,6.6,6.613,6.613,0,0,0,0,.013C.163,0,.3,0,.418,0H20.529l.155,0a6.641,6.641,0,0,0-6.449,6.6,6.642,6.642,0,0,0,6.449,6.6Z" transform="translate(61.003 11.823)" fill="#fff5f5"/>
          <path id="Subtraction_20" data-name="Subtraction 20" d="M26.494,13.217H.751a6.629,6.629,0,0,0,6.556-6.61A6.616,6.616,0,0,0,.7,0h25.8a6.589,6.589,0,0,1,1.978.3H26.613a6.408,6.408,0,1,0,0,12.815h1.03A6.646,6.646,0,0,1,26.494,13.217Z" transform="translate(23.623 36.855)" fill="#fff5f5"/>
        </g>
        <g id="Path_818" data-name="Path 818" transform="translate(106.154 11.083)" fill="#fff">
          <path d="M 7.388237476348877 12.27647590637207 C 4.692857265472412 12.27647590637207 2.49999737739563 10.08361625671387 2.49999737739563 7.388236045837402 C 2.49999737739563 4.692855834960938 4.692857265472412 2.499995946884155 7.388237476348877 2.499995946884155 C 10.08361721038818 2.499995946884155 12.2764778137207 4.692855834960938 12.2764778137207 7.388236045837402 C 12.2764778137207 10.08361625671387 10.08361721038818 12.27647590637207 7.388237476348877 12.27647590637207 Z" stroke="none"/>
          <path d="M 7.388237476348877 4.999996185302734 C 6.071357727050781 4.999996185302734 4.999997138977051 6.071355819702148 4.999997138977051 7.388236045837402 C 4.999997138977051 8.705116271972656 6.071357727050781 9.77647590637207 7.388237476348877 9.77647590637207 C 8.705118179321289 9.77647590637207 9.776477813720703 8.705116271972656 9.776477813720703 7.388236045837402 C 9.776477813720703 6.071355819702148 8.705118179321289 4.999996185302734 7.388237476348877 4.999996185302734 M 7.388237476348877 -3.814697265625e-06 C 11.46864700317383 -3.814697265625e-06 14.7764778137207 3.307826042175293 14.7764778137207 7.388236045837402 C 14.7764778137207 11.46864604949951 11.46864700317383 14.77647590637207 7.388237476348877 14.77647590637207 C 3.307827949523926 14.77647590637207 -2.86102294921875e-06 11.46864604949951 -2.86102294921875e-06 7.388236045837402 C -2.86102294921875e-06 3.307826042175293 3.307827949523926 -3.814697265625e-06 7.388237476348877 -3.814697265625e-06 Z" stroke="none" fill="#ffb2b2"/>
        </g>
        <g id="Path_819" data-name="Path 819" transform="translate(13.119 88.777) rotate(166)" fill="#fff">
          <path d="M 5.41126537322998 8.322524070739746 C 3.805985450744629 8.322524070739746 2.499995470046997 7.016534328460693 2.499995470046997 5.411264419555664 C 2.499995470046997 3.805994510650635 3.805985450744629 2.500004529953003 5.41126537322998 2.500004529953003 C 7.01653528213501 2.500004529953003 8.322525024414062 3.805994510650635 8.322525024414062 5.411264419555664 C 8.322525024414062 6.188894271850586 8.019705772399902 6.919974327087402 7.469845294952393 7.469834327697754 C 6.919975280761719 8.019704818725586 6.188895225524902 8.322524070739746 5.41126537322998 8.322524070739746 Z" stroke="none"/>
          <path d="M 5.41126537322998 5.000004291534424 C 5.18448543548584 5.000004291534424 4.999995231628418 5.184494495391846 4.999995231628418 5.411264419555664 C 4.999995231628418 5.638034343719482 5.18448543548584 5.822524547576904 5.41126537322998 5.822524547576904 C 5.453395366668701 5.822524547576904 5.581625461578369 5.822524547576904 5.702075481414795 5.702064514160156 C 5.822525501251221 5.581624507904053 5.822525501251221 5.453414440155029 5.822525501251221 5.411264419555664 C 5.822525501251221 5.184494495391846 5.638035297393799 5.000004291534424 5.41126537322998 5.000004291534424 M 5.41126537322998 4.76837158203125e-06 C 8.399825096130371 4.76837158203125e-06 10.82252502441406 2.422704696655273 10.82252502441406 5.411264419555664 C 10.82253551483154 8.399824142456055 8.399825096130371 10.82252407073975 5.41126537322998 10.82252407073975 C 2.42270565032959 10.82252407073975 -4.76837158203125e-06 8.399824142456055 -4.76837158203125e-06 5.411264419555664 C -4.76837158203125e-06 2.422704696655273 2.42270565032959 4.76837158203125e-06 5.41126537322998 4.76837158203125e-06 Z" stroke="none" fill="#ffb2b2"/>
        </g>
        <g id="Path_820" data-name="Path 820" transform="translate(84.847 4.898) rotate(166)" fill="#ccc">
          <path d="M2.524,0A2.524,2.524,0,1,1,0,2.524,2.524,2.524,0,0,1,2.524,0Z" stroke="none"/>
          <path d="M 2.523976802825928 -3.337860107421875e-06 C 3.917926788330078 -3.337860107421875e-06 5.047956943511963 1.130026578903198 5.047956943511963 2.523976564407349 C 5.047956943511963 3.917926549911499 3.917926788330078 5.047956466674805 2.523976802825928 5.047956466674805 C 1.130026817321777 5.047956466674805 -3.337860107421875e-06 3.917926549911499 -3.337860107421875e-06 2.523976564407349 C -3.337860107421875e-06 1.130026578903198 1.130026817321777 -3.337860107421875e-06 2.523976802825928 -3.337860107421875e-06 Z" stroke="none" fill="#ffb2b2"/>
        </g>
        <g id="Path_821" data-name="Path 821" transform="translate(118.371 84.56) rotate(166)" fill="#ccc">
          <path d="M2.524,0A2.524,2.524,0,1,1,0,2.524,2.524,2.524,0,0,1,2.524,0Z" stroke="none"/>
          <path d="M 2.523976802825928 -3.337860107421875e-06 C 3.917926788330078 -3.337860107421875e-06 5.047956943511963 1.130026578903198 5.047956943511963 2.523976564407349 C 5.047956943511963 3.917926549911499 3.917926788330078 5.047956466674805 2.523976802825928 5.047956466674805 C 1.130026817321777 5.047956466674805 -3.337860107421875e-06 3.917926549911499 -3.337860107421875e-06 2.523976564407349 C -3.337860107421875e-06 1.130026578903198 1.130026817321777 -3.337860107421875e-06 2.523976802825928 -3.337860107421875e-06 Z" stroke="none" fill="#ffb2b2"/>
        </g>
      </g>
    </g>
    <g id="Polygon_30" data-name="Polygon 30" transform="translate(796.307 315.6)" fill="#fff">
      <path d="M 45.72858810424805 46.13422012329102 L 8.657049179077148 46.13422012329102 C 7.211249828338623 46.13422012329102 5.916379451751709 45.38675689697266 5.193269729614258 44.1347770690918 C 4.470169544219971 42.88278961181641 4.469809532165527 41.38766860961914 5.192309379577637 40.13533020019531 L 23.72807884216309 8.006658554077148 C 24.45097923278809 6.753628253936768 25.7462100982666 6.005558490753174 27.19281959533691 6.005558490753174 C 28.63942909240723 6.005558490753174 29.93465995788574 6.753628253936768 30.65756988525391 8.006658554077148 L 49.19332885742188 40.13533020019531 C 49.91584014892578 41.38766860961914 49.91547775268555 42.88277816772461 49.19237899780273 44.13476943969727 C 48.46926879882812 45.38675689697266 47.17440032958984 46.13422012329102 45.72858810424805 46.13422012329102 Z" stroke="none"/>
      <path d="M 27.19281959533691 7.005546569824219 C 26.10785865783691 7.005546569824219 25.13644027709961 7.566608428955078 24.59425926208496 8.506378173828125 L 6.058490753173828 40.63505935668945 C 5.516609191894531 41.57431030273438 5.516880035400391 42.69564056396484 6.059207916259766 43.63462829589844 C 6.601539611816406 44.57362747192383 7.572689056396484 45.13421630859375 8.657051086425781 45.13421630859375 L 45.72859191894531 45.13421630859375 C 46.81293869018555 45.13421630859375 47.78409957885742 44.57362747192383 48.32641983032227 43.63463973999023 C 48.86875152587891 42.69564819335938 48.8690185546875 41.57431030273438 48.3271484375 40.63504791259766 L 29.79137992858887 8.506389617919922 C 29.24919891357422 7.566608428955078 28.27776908874512 7.005546569824219 27.19281959533691 7.005546569824219 M 27.19281959533691 5.00555419921875 C 28.87724685668945 5.00555419921875 30.56167411804199 5.839347839355469 31.52375030517578 7.506938934326172 L 50.05952072143555 39.6356086730957 C 51.98258972167969 42.96894073486328 49.57688140869141 47.13421630859375 45.72859191894531 47.13421630859375 L 8.657051086425781 47.13421630859375 C 4.808757781982422 47.13421630859375 2.403038024902344 42.96894073486328 4.326118469238281 39.6356086730957 L 22.86188888549805 7.506938934326172 C 23.82396507263184 5.839347839355469 25.50839233398438 5.00555419921875 27.19281959533691 5.00555419921875 Z" stroke="none" fill="#ff4040"/>
    </g>
    <path id="Path_1343" data-name="Path 1343" d="M8.378-23.035a7.019,7.019,0,0,1-.187,1.4q-.187.871-.471,2.046-.271,1.11-.619,2.768t-.736,4.1H5.371q-.387-2.465-.736-4.1t-.619-2.749Q3.77-20.6,3.564-21.57a7.774,7.774,0,0,1-.206-1.465,2.263,2.263,0,0,1,.736-1.7,2.467,2.467,0,0,1,1.768-.7,2.5,2.5,0,0,1,1.768.7A2.245,2.245,0,0,1,8.378-23.035ZM8.352-8.775A2.24,2.24,0,0,1,7.61-7.09a2.443,2.443,0,0,1-1.736.7,2.458,2.458,0,0,1-1.749-.7,2.24,2.24,0,0,1-.742-1.684,2.28,2.28,0,0,1,.742-1.7,2.435,2.435,0,0,1,1.749-.716,2.42,2.42,0,0,1,1.736.716A2.28,2.28,0,0,1,8.352-8.775Z" transform="translate(818.051 361.116)" fill="#ff4040"/>
  </g>
</svg>
