<svg xmlns="http://www.w3.org/2000/svg" width="21" height="24.001" viewBox="0 0 21 24.001">
  <path id="Date_Converter" data-name="Date Converter" d="M21011.748-404h-16.5a2.252,2.252,0,0,1-2.252-2.247V-419h21v12.752A2.252,2.252,0,0,1,21011.748-404Zm-10.643-8.228a.69.69,0,0,0-.49.2l-2.41,2.415a.682.682,0,0,0-.2.488.682.682,0,0,0,.2.488l2.41,2.41a.683.683,0,0,0,.49.206.683.683,0,0,0,.484-.2.686.686,0,0,0,0-.976l-1.232-1.239h7.988a.692.692,0,0,0,.691-.691.69.69,0,0,0-.691-.686h-7.988l1.232-1.239a.682.682,0,0,0,.2-.488.682.682,0,0,0-.2-.488A.677.677,0,0,0,21001.105-412.229Zm-2.416-2.414a.691.691,0,0,0-.689.691.69.69,0,0,0,.689.691h7.99l-1.234,1.234a.69.69,0,0,0-.2.488.69.69,0,0,0,.2.488.67.67,0,0,0,.486.2.678.678,0,0,0,.49-.2l2.41-2.415a.68.68,0,0,0,.205-.488.68.68,0,0,0-.205-.488l-2.41-2.41a.676.676,0,0,0-.488-.206.676.676,0,0,0-.488.206.69.69,0,0,0,0,.976l1.234,1.234ZM21014-420.5h-21v-2.252a2.254,2.254,0,0,1,2.252-2.252h2.246v-1.5a1.506,1.506,0,0,1,1.5-1.5,1.5,1.5,0,0,1,1.5,1.5v1.5h6v-1.5a1.5,1.5,0,0,1,1.5-1.5,1.506,1.506,0,0,1,1.5,1.5v1.5h2.246a2.254,2.254,0,0,1,2.252,2.252v2.251Z" transform="translate(-20993 428.002)" fill="#fff"/>
</svg>
