<svg xmlns="http://www.w3.org/2000/svg" width="178.581" height="141.473" viewBox="0 0 178.581 141.473"><defs><style>.a{fill:rgba(175,0,0,0.04);}.b{fill:rgba(175,0,0,0.03);}.c{fill:#fff;}.d{fill:rgba(175,0,0,0.2);}.e{fill:#ffe5e5;stroke:#af0000;stroke-width:2px;}.f{fill:#af0000;}.g,.h{stroke:none;}.h{fill:rgba(175,0,0,0.2);}.i{fill:none;}</style></defs><g transform="translate(-135.202 -258)"><g transform="translate(140 283.982)"><rect class="a" width="89.995" height="17.068" rx="8.534" transform="translate(43.446 -1.982)"/><rect class="a" width="72.746" height="17.068" rx="8.534" transform="translate(28.534 98.423)"/><rect class="a" width="17.707" height="17.068" rx="8.534" transform="translate(10.841)"/><rect class="a" width="169.128" height="17.068" rx="8.534" transform="translate(4.655 34.154)"/><rect class="a" width="169.128" height="17.068" rx="8.534" transform="translate(0 70.29)"/><path class="b" d="M33.136,19.068H4.1c-.2,0-.4-.006-.6-.019A9.534,9.534,0,0,0,3.5.019C3.71.006,3.913,0,4.1,0H33.136l.224,0a9.587,9.587,0,0,0-9.309,9.531,9.588,9.588,0,0,0,9.309,9.532l-.029,0h-.194Z" transform="translate(84.564 15.086)"/><path class="a" d="M33.634,19.227H-4.386l-.228,0H-3.6A9.55,9.55,0,0,0,5.935,9.685,9.55,9.55,0,0,0-3.6.146H33.634A9.511,9.511,0,0,1,36.49.582H33.8a9.25,9.25,0,1,0,0,18.5H35.29A9.594,9.594,0,0,1,33.634,19.227Z" transform="translate(38.715 51.076)"/></g><g class="c" transform="translate(288.446 274)"><path class="g" d="M10.666,0A10.666,10.666,0,1,1,0,10.666,10.666,10.666,0,0,1,10.666,0Z"/><path class="h" d="M 10.66568088531494 4.999998092651367 C 7.541610717773438 4.999998092651367 5 7.541608810424805 5 10.66567897796631 C 5 13.78974914550781 7.541610717773438 16.33135986328125 10.66568088531494 16.33135986328125 C 13.78975105285645 16.33135986328125 16.33135986328125 13.78974914550781 16.33135986328125 10.66567897796631 C 16.33135986328125 7.541608810424805 13.78975105285645 4.999998092651367 10.66568088531494 4.999998092651367 M 10.66568088531494 -1.9073486328125e-06 C 16.55617141723633 -1.9073486328125e-06 21.33136177062988 4.775188446044922 21.33136177062988 10.66567897796631 C 21.33136177062988 16.5561695098877 16.55617141723633 21.33135986328125 10.66568088531494 21.33135986328125 C 4.775190353393555 21.33135986328125 0 16.5561695098877 0 10.66567897796631 C 0 4.775188446044922 4.775190353393555 -1.9073486328125e-06 10.66568088531494 -1.9073486328125e-06 Z"/></g><g class="c" transform="translate(154.141 386.159) rotate(166)"><path class="g" d="M7.812,0A7.812,7.812,0,1,1,0,7.812,7.812,7.812,0,0,1,7.812,0Z"/><path class="h" d="M 7.811717987060547 4.999996185302734 C 6.261327743530273 4.999996185302734 4.999998092651367 6.261326789855957 4.999998092651367 7.811716556549072 C 4.999998092651367 9.362106323242188 6.261327743530273 10.62343597412109 7.811717987060547 10.62343597412109 C 9.36210823059082 10.62343597412109 10.62343788146973 9.362106323242188 10.62343788146973 7.811716556549072 C 10.62343788146973 6.261326789855957 9.36210823059082 4.999996185302734 7.811717987060547 4.999996185302734 M 7.811717987060547 -3.814697265625e-06 C 12.12600803375244 -3.814697265625e-06 15.62343788146973 3.497426986694336 15.62343788146973 7.811716556549072 C 15.62343788146973 12.12600708007812 12.12600803375244 15.62343692779541 7.811717987060547 15.62343692779541 C 3.497427940368652 15.62343692779541 -1.9073486328125e-06 12.12600708007812 -1.9073486328125e-06 7.811716556549072 C -1.9073486328125e-06 3.497426986694336 3.497427940368652 -3.814697265625e-06 7.811717987060547 -3.814697265625e-06 Z"/></g><path class="d" d="M3.644,0A3.644,3.644,0,1,1,0,3.644,3.644,3.644,0,0,1,3.644,0Z" transform="translate(257.687 265.071) rotate(166)"/><path class="d" d="M3.644,0A3.644,3.644,0,1,1,0,3.644,3.644,3.644,0,0,1,3.644,0Z" transform="translate(306.083 380.071) rotate(166)"/><g transform="translate(-261.798 -484)"><g class="e" transform="translate(459 796)"><circle class="g" cx="30" cy="30" r="30"/><circle class="i" cx="30" cy="30" r="29"/></g></g><path class="f" d="M-9.75.813A2.439,2.439,0,0,0-7.312,3.25H7.313A2.439,2.439,0,0,0,9.75.813V-16.25H-9.75Zm13.813-13A.813.813,0,0,1,4.875-13a.813.813,0,0,1,.813.813V-.812A.813.813,0,0,1,4.875,0a.813.813,0,0,1-.812-.812Zm-4.875,0A.813.813,0,0,1,0-13a.813.813,0,0,1,.813.813V-.812A.813.813,0,0,1,0,0,.813.813,0,0,1-.812-.812Zm-4.875,0A.813.813,0,0,1-4.875-13a.813.813,0,0,1,.813.813V-.812A.813.813,0,0,1-4.875,0a.813.813,0,0,1-.812-.812Zm16.25-8.937H4.469l-.477-.95A1.219,1.219,0,0,0,2.9-22.751s0,0,0,0H-2.909a1.2,1.2,0,0,0-1.082.675l-.477.95h-6.094a.813.813,0,0,0-.812.813v1.625a.813.813,0,0,0,.813.813H10.563a.813.813,0,0,0,.813-.812v-1.625A.813.813,0,0,0,10.563-21.125Z" transform="translate(227.202 352)"/></g></svg>