<svg xmlns="http://www.w3.org/2000/svg" width="189.478" height="116.166" viewBox="0 0 189.478 116.166">
  <g id="disease" transform="translate(-951 -271.834)">
    <g id="Group_282" data-name="Group 282" transform="translate(949.616 271.834)">
      <path id="Path_915" data-name="Path 915" d="M146.463,24h-70.8c-4.576,0-8.285,3.166-8.285,7.072s3.709,7.072,8.285,7.072h70.8c4.576,0,8.285-3.166,8.285-7.072S151.038,24,146.463,24Z" transform="translate(-20.649 -7.509)" fill="#f2f2f2"/>
      <path id="Path_916" data-name="Path 916" d="M108.649,145.086H54.6c-4.575,0-8.285,3.166-8.285,7.071s3.709,7.072,8.285,7.072h54.051c4.575,0,8.285-3.166,8.285-7.072S113.224,145.086,108.649,145.086Z" transform="translate(-14.057 -45.394)" fill="#f2f2f2"/>
      <path id="Path_917" data-name="Path 917" d="M168.477,67.579H20.861c-4.575,0-8.285,3.166-8.285,7.072s3.709,7.072,8.285,7.072H168.477c4.576,0,8.285-3.166,8.285-7.072S173.053,67.579,168.477,67.579Z" transform="translate(-3.502 -21.144)" fill="#f2f2f2"/>
      <path id="Path_918" data-name="Path 918" d="M161.9,111.158H14.285C9.709,111.158,6,114.324,6,118.23s3.709,7.071,8.285,7.071H161.9c4.576,0,8.285-3.166,8.285-7.071S166.477,111.158,161.9,111.158Z" transform="translate(-1.444 -34.779)" fill="#f2f2f2"/>
      <path id="Path_919" data-name="Path 919" d="M91.31,103.974H55.164a10.131,10.131,0,0,0,6.543-2.32,7.107,7.107,0,0,0,0-11.172,10.133,10.133,0,0,0-6.542-2.319H91.31a10.7,10.7,0,0,1,2.773.361H91.471a9.817,9.817,0,0,0-6.35,2.245,6.9,6.9,0,0,0,0,10.84,9.818,9.818,0,0,0,6.35,2.245h1.446a10.927,10.927,0,0,1-1.608.12Z" transform="translate(-16.519 -27.584)" fill="#f2f2f2"/>
      <path id="Path_920" data-name="Path 920" d="M227.485,160.054a3.534,3.534,0,1,1,2.177-1.609,3.539,3.539,0,0,1-2.177,1.609Z" transform="translate(-69.368 -47.899)" fill="#e4e4e4"/>
      <circle id="Ellipse_163" data-name="Ellipse 163" cx="5.505" cy="5.505" r="5.505" transform="translate(146.103 17.865)" fill="none" stroke="#ddd" stroke-width="3"/>
      <circle id="Ellipse_164" data-name="Ellipse 164" cx="4.188" cy="4.188" r="4.188" transform="translate(112.861 0)" fill="#ddd"/>
      <circle id="Ellipse_165" data-name="Ellipse 165" cx="2.094" cy="2.094" r="2.094" transform="translate(6.321 34.038)" fill="#ddd"/>
      <path id="Path_921" data-name="Path 921" d="M31.9,23h-.62a8.276,8.276,0,1,0,0,16.552h.62A8.276,8.276,0,1,0,31.9,23Z" transform="translate(-6.763 -7.196)" fill="#f2f2f2"/>
      <path id="Path_922" data-name="Path 922" d="M4.279,140.143a.353.353,0,0,0,.433.249,3.533,3.533,0,1,1-2.139,1.635.353.353,0,1,0-.611-.355,4.24,4.24,0,1,0,2.567-1.962A.353.353,0,0,0,4.279,140.143Z" transform="translate(0 -43.667)" fill="#ddd"/>
      <path id="Path_923" data-name="Path 923" d="M265.607,111.618a.943.943,0,0,1-.414,1.365,7.805,7.805,0,1,1,4.29-4.342.944.944,0,0,1-1.36.431h0a1.212,1.212,0,0,1-.485-1.463,5.717,5.717,0,1,0-3.5,3.542,1.212,1.212,0,0,1,1.469.467Z" transform="translate(-79.17 -30.649)" fill="#ddd"/>
      <path id="Path_924" data-name="Path 924" d="M159.918,60.491H119.829q-.414,0-.829-.016a17.282,17.282,0,0,0,8.766-2.586c2.292-1.529,3.567-3.547,3.567-5.643s-1.275-4.115-3.567-5.643A17.282,17.282,0,0,0,119,44.016c.29-.011.57-.016.829-.016h40.4a17.726,17.726,0,0,0-9.086,2.494c-2.4,1.538-3.748,3.6-3.767,5.748.019,2.15,1.369,4.211,3.767,5.749a17.727,17.727,0,0,0,9.086,2.5h-.308Z" transform="translate(-36.8 -13.767)" fill="#f2f2f2"/>
    </g>
    <path id="Path_1235" data-name="Path 1235" d="M-14473.333,22853.334h43.666l5-2,15.667-15.668V22828l-3.333-8.334-8-3-7.334,5.334-5-2.334-6.666-3-7.334,5.334-2.333-2.334-3-5.666,6.667-6.334,6-5,17.666,2h20l5-4.666v-40l-5-5.334H-14452l-6.333,5.334v8.334l-8.334,3.332-4.333,3.668-5.667,1.666-4.666,7.666v11l4.666,7,10,8.668,2,2.666-2,5.666-10,5-11,3.334-5.333,10.334v15Z" transform="translate(15487 -22467)" fill="#fff"/>
    <g id="heart-problem" transform="translate(990 286)">
      <path id="Path_1227" data-name="Path 1227" d="M0,0H3.817V3.258H0Z" transform="translate(72.066 86.185) rotate(-45)" fill="#1baf5d"/>
      <path id="Path_1228" data-name="Path 1228" d="M52.8,54.321A6.632,6.632,0,0,0,48.266,43l-.075,3.256A3.373,3.373,0,0,1,50.5,52.016l-2.862,2.862,2.3,2.3Z" transform="translate(29.336 26.42)" fill="#1baf5d"/>
      <path id="Path_1229" data-name="Path 1229" d="M41,46h3.258V60.661H41Z" transform="translate(25.161 28.306)" fill="#1baf5d"/>
      <circle id="Ellipse_244" data-name="Ellipse 244" cx="1.5" cy="1.5" r="1.5" transform="translate(66 92)" fill="#1baf5d"/>
      <path id="Path_1230" data-name="Path 1230" d="M93.855,1H44.984a8.154,8.154,0,0,0-8.145,8.145V14.4a22.2,22.2,0,0,0-9.891,4.486l-2.209,1.767A13.283,13.283,0,0,0,14.032,33.716v3.123A22.912,22.912,0,0,0,26.605,57.184a24.229,24.229,0,0,0,3.717,3.408V61.7a4.854,4.854,0,0,1-3.116,4.555L14.5,71.2A21.046,21.046,0,0,0,1,90.937V102H67.79a5.521,5.521,0,0,0,3.932-1.629L86.746,85.348A13.148,13.148,0,1,0,68.152,66.754l-.362.362-.362-.362a13.114,13.114,0,0,0-17.923-.6A4.843,4.843,0,0,1,46.613,61.7V60.593a24.23,24.23,0,0,0,3.717-3.408,22.733,22.733,0,0,0,5.664-4.055h37.86A8.154,8.154,0,0,0,102,44.986V9.145A8.154,8.154,0,0,0,93.855,1ZM58.132,66.161a9.823,9.823,0,0,1,6.993,2.9l2.665,2.665,2.665-2.665A9.89,9.89,0,0,1,84.442,83.045L69.419,98.068a2.386,2.386,0,0,1-3.258,0L51.138,83.045a9.89,9.89,0,0,1,6.993-16.883ZM47.269,68.655a13.131,13.131,0,0,0,1.566,16.693L62.229,98.742H17.29V82.452H14.032v16.29H4.258v-7.8a17.807,17.807,0,0,1,11.424-16.7l12.7-4.941a8.072,8.072,0,0,0,5.125-6.689A24.8,24.8,0,0,0,38,64.464l.469.14.469-.14a24.8,24.8,0,0,0,4.486-1.857A8.054,8.054,0,0,0,47.269,68.655Zm-8.8-7.458A21.094,21.094,0,0,1,23.806,41.009V39.621a4.411,4.411,0,0,1,8.357-1.973l2.245,4.488,13.47-5.052a3.889,3.889,0,0,1,5.25,3.641v.282A21.1,21.1,0,0,1,38.468,61.2ZM49.242,33.581a7.142,7.142,0,0,0-2.509.454L36.01,38.056l-.932-1.865a7.67,7.67,0,0,0-14.529,3.431v1.388a24.679,24.679,0,0,0,1.562,8.626,19.568,19.568,0,0,1-4.82-12.8V33.716A10.036,10.036,0,0,1,25.7,23.785l.419-.07,2.861-2.289A18.872,18.872,0,0,1,59.645,36.163v.676a19.561,19.561,0,0,1-4.82,12.794,24.626,24.626,0,0,0,1.562-8.624v-.282A7.154,7.154,0,0,0,49.242,33.581Zm13.5,0H70.69l2.5-9.994,7.8,15.6,4.2-10.489h7.042V43.355H61.932a22.545,22.545,0,0,0,.971-6.516v-.676a22.148,22.148,0,0,0-.165-2.582Zm29.487-8.145H82.978l-2.32,5.8L72.166,14.252l-4.019,16.07H62.1A22.176,22.176,0,0,0,46.613,14.84V10.774H92.226Zm6.516,19.548a4.893,4.893,0,0,1-4.887,4.887h-35.1a23.083,23.083,0,0,0,1.9-3.258H92.226a3.261,3.261,0,0,0,3.258-3.258V10.774a3.261,3.261,0,0,0-3.258-3.258H46.613a3.261,3.261,0,0,0-3.258,3.258V14.2a22.148,22.148,0,0,0-2.582-.165c-.226,0-.451.021-.676.029V9.145a4.893,4.893,0,0,1,4.887-4.887H93.855a4.893,4.893,0,0,1,4.887,4.887Z" transform="translate(0 0)" fill="#1baf5d"/>
    </g>
  </g>
</svg>
