<svg xmlns="http://www.w3.org/2000/svg" width="23" height="23" viewBox="0 0 23 23">
  <g id="SAR_Icon" data-name="SAR Icon" transform="translate(-951 -29)">
    <circle id="Ellipse_265" data-name="Ellipse 265" cx="11.5" cy="11.5" r="11.5" transform="translate(951 29)" fill="#fff"/>
    <path id="Path_1252" data-name="Path 1252" d="M-5.308-1.865A.752.752,0,0,0-5.6-2.5a3.843,3.843,0,0,0-1.055-.469,7.477,7.477,0,0,1-1.206-.486A1.971,1.971,0,0,1-9.072-5.22a1.717,1.717,0,0,1,.325-1.028,2.118,2.118,0,0,1,.933-.706A3.51,3.51,0,0,1-6.45-7.207a3.2,3.2,0,0,1,1.357.276,2.161,2.161,0,0,1,.925.779,2.038,2.038,0,0,1,.33,1.143H-5.3a.959.959,0,0,0-.308-.759,1.265,1.265,0,0,0-.864-.271,1.351,1.351,0,0,0-.835.227.716.716,0,0,0-.3.6.686.686,0,0,0,.349.581,3.944,3.944,0,0,0,1.028.439,4.441,4.441,0,0,1,1.821.933,1.857,1.857,0,0,1,.571,1.387,1.711,1.711,0,0,1-.7,1.448A3.057,3.057,0,0,1-6.416.1,3.63,3.63,0,0,1-7.91-.2a2.364,2.364,0,0,1-1.028-.823,2.107,2.107,0,0,1-.354-1.211h1.47q0,1.177,1.406,1.177A1.368,1.368,0,0,0-5.6-1.272.691.691,0,0,0-5.308-1.865Zm6.475.4H-1.4L-1.89,0H-3.447L-.8-7.109H.557L3.218,0H1.66ZM-1.006-2.651H.771L-.122-5.312Zm7.52.049H5.347V0H3.882V-7.109H6.523a2.986,2.986,0,0,1,1.943.562A1.938,1.938,0,0,1,9.15-4.961a2.187,2.187,0,0,1-.315,1.213,2.148,2.148,0,0,1-.955.774L9.419-.068V0H7.847ZM5.347-3.789H6.528a1.21,1.21,0,0,0,.854-.281,1,1,0,0,0,.3-.774A1.074,1.074,0,0,0,7.4-5.635a1.187,1.187,0,0,0-.876-.288H5.347Z" transform="translate(962.292 44.207)" fill="#4da581"/>
  </g>
</svg>
