<svg xmlns="http://www.w3.org/2000/svg" width="23" height="23" viewBox="0 0 23 23">
  <path id="Exclusion_2" data-name="Exclusion 2" d="M-9958.5-4499a11.426,11.426,0,0,1-8.132-3.368A11.426,11.426,0,0,1-9970-4510.5a11.513,11.513,0,0,1,11.5-11.5,11.427,11.427,0,0,1,8.133,3.369A11.429,11.429,0,0,1-9947-4510.5a11.43,11.43,0,0,1-3.367,8.132A11.426,11.426,0,0,1-9958.5-4499Zm.433-14.82V-4506h1.611v-5.147l0,0,3.136,5.144h1.611v-7.822h-1.606v5.157l-3.143-5.157Zm-6.518,0V-4506h5.241v-1.3h-3.63v-2.094h3.095v-1.261h-3.095v-1.864h3.62v-1.306Z" transform="translate(9970.001 4522)" fill="#fff"/>
</svg>
