<svg xmlns="http://www.w3.org/2000/svg" width="20" height="20" viewBox="0 0 20 20">
  <path id="Subtraction_3" data-name="Subtraction 3" d="M3637.607-4839h-6.214a2.012,2.012,0,0,1-1.413-.585l-4.394-4.393a1.989,1.989,0,0,1-.585-1.416v-6.213a1.987,1.987,0,0,1,.585-1.415l4.394-4.393a2.01,2.01,0,0,1,1.413-.586h6.214a1.986,1.986,0,0,1,1.414.586l4.393,4.393a1.989,1.989,0,0,1,.586,1.415v6.213a1.99,1.99,0,0,1-.586,1.416l-4.393,4.393A1.992,1.992,0,0,1,3637.607-4839Zm-2.982-6.624a2.19,2.19,0,0,0-2.187,2.188,2.19,2.19,0,0,0,2.187,2.187,2.19,2.19,0,0,0,2.187-2.187A2.19,2.19,0,0,0,3634.625-4845.625Zm-1.279-9.625a.651.651,0,0,0-.476.2.65.65,0,0,0-.179.485l.371,7.437a.657.657,0,0,0,.656.624h1.814a.657.657,0,0,0,.656-.624l.372-7.437a.653.653,0,0,0-.18-.485.651.651,0,0,0-.476-.2Z" transform="translate(-3624.5 4858.5)" fill="#af0000" stroke="#af0000" stroke-width="1"/>
</svg>
