<svg xmlns="http://www.w3.org/2000/svg" width="189.478" height="115.8" viewBox="0 0 189.478 115.8">
  <g id="GCC" transform="translate(-674 -264.834)">
    <g id="Group_282" data-name="Group 282" transform="translate(672.616 264.834)">
      <path id="Path_915" data-name="Path 915" d="M146.463,24h-70.8c-4.576,0-8.285,3.166-8.285,7.072s3.709,7.072,8.285,7.072h70.8c4.576,0,8.285-3.166,8.285-7.072S151.038,24,146.463,24Z" transform="translate(-20.649 -7.509)" fill="#f2f2f2"/>
      <path id="Path_916" data-name="Path 916" d="M108.649,145.086H54.6c-4.575,0-8.285,3.166-8.285,7.071s3.709,7.072,8.285,7.072h54.051c4.575,0,8.285-3.166,8.285-7.072S113.224,145.086,108.649,145.086Z" transform="translate(-14.057 -45.394)" fill="#f2f2f2"/>
      <path id="Path_917" data-name="Path 917" d="M168.477,67.579H20.861c-4.575,0-8.285,3.166-8.285,7.072s3.709,7.072,8.285,7.072H168.477c4.576,0,8.285-3.166,8.285-7.072S173.053,67.579,168.477,67.579Z" transform="translate(-3.502 -21.144)" fill="#f2f2f2"/>
      <path id="Path_918" data-name="Path 918" d="M161.9,111.158H14.285C9.709,111.158,6,114.324,6,118.23s3.709,7.071,8.285,7.071H161.9c4.576,0,8.285-3.166,8.285-7.071S166.477,111.158,161.9,111.158Z" transform="translate(-1.444 -34.779)" fill="#f2f2f2"/>
      <path id="Path_919" data-name="Path 919" d="M91.31,103.974H55.164a10.131,10.131,0,0,0,6.543-2.32,7.107,7.107,0,0,0,0-11.172,10.133,10.133,0,0,0-6.542-2.319H91.31a10.7,10.7,0,0,1,2.773.361H91.471a9.817,9.817,0,0,0-6.35,2.245,6.9,6.9,0,0,0,0,10.84,9.818,9.818,0,0,0,6.35,2.245h1.446a10.927,10.927,0,0,1-1.608.12Z" transform="translate(-16.519 -27.584)" fill="#f2f2f2"/>
      <path id="Path_920" data-name="Path 920" d="M227.485,160.054a3.534,3.534,0,1,1,2.177-1.609,3.539,3.539,0,0,1-2.177,1.609Z" transform="translate(-69.368 -47.899)" fill="#e4e4e4"/>
      <circle id="Ellipse_163" data-name="Ellipse 163" cx="5.505" cy="5.505" r="5.505" transform="translate(146.103 17.865)" fill="none" stroke="#ddd" stroke-width="3"/>
      <circle id="Ellipse_164" data-name="Ellipse 164" cx="4.188" cy="4.188" r="4.188" transform="translate(112.861 0)" fill="#ddd"/>
      <circle id="Ellipse_165" data-name="Ellipse 165" cx="2.094" cy="2.094" r="2.094" transform="translate(6.321 34.038)" fill="#ddd"/>
      <path id="Path_921" data-name="Path 921" d="M31.9,23h-.62a8.276,8.276,0,1,0,0,16.552h.62A8.276,8.276,0,1,0,31.9,23Z" transform="translate(-6.763 -7.196)" fill="#f2f2f2"/>
      <path id="Path_922" data-name="Path 922" d="M4.279,140.143a.353.353,0,0,0,.433.249,3.533,3.533,0,1,1-2.139,1.635.353.353,0,1,0-.611-.355,4.24,4.24,0,1,0,2.567-1.962A.353.353,0,0,0,4.279,140.143Z" transform="translate(0 -43.667)" fill="#ddd"/>
      <path id="Path_923" data-name="Path 923" d="M265.607,111.618a.943.943,0,0,1-.414,1.365,7.805,7.805,0,1,1,4.29-4.342.944.944,0,0,1-1.36.431h0a1.212,1.212,0,0,1-.485-1.463,5.717,5.717,0,1,0-3.5,3.542,1.212,1.212,0,0,1,1.469.467Z" transform="translate(-79.17 -30.649)" fill="#ddd"/>
      <path id="Path_924" data-name="Path 924" d="M159.918,60.491H119.829q-.414,0-.829-.016a17.282,17.282,0,0,0,8.766-2.586c2.292-1.529,3.567-3.547,3.567-5.643s-1.275-4.115-3.567-5.643A17.282,17.282,0,0,0,119,44.016c.29-.011.57-.016.829-.016h40.4a17.726,17.726,0,0,0-9.086,2.494c-2.4,1.538-3.748,3.6-3.767,5.748.019,2.15,1.369,4.211,3.767,5.749a17.727,17.727,0,0,0,9.086,2.5h-.308Z" transform="translate(-36.8 -13.767)" fill="#f2f2f2"/>
    </g>
    <g id="Group_303" data-name="Group 303" transform="translate(0 36.567)">
      <path id="Path_861" data-name="Path 861" d="M57.719,49.114H61.7l1.448-2.9,2.533-.724-1.448-2.9L61.7,38.619l5.79-1.81L71.833,35l4.7,1.81,8.686,4.343L92.462,45.5l1.448,3.619,3.619,2.533L108.386,54.9l5.429-3.257,2.9-4.343,3.981,1.81V53.1l3.257,7.6,4.343,6.152,2.9,6.152,3.619,2.533,2.171-3.619,2.533,2.9-2.533,4.343,4.7,5.067h3.981l9.771-2.533L160.5,74.81l4.343-2.9v7.238l7.238,5.067,6.876,4.343,2.533,8.686-2.533,5.429-4.343,3.619-2.533,6.152-2.533,1.81-4.7,1.448v4.7H160.5l-3.257,4.7h-3.981l-5.79,1.81-5.791-8.324-2.171-4.343-3.981,1.448-11.581,1.81-4.7,2.9-3.619,4.7-7.238-1.81-10.857-1.086H92.462l-2.533,2.9-1.448-2.9-5.79-6.514-3.619-7.6-7.238-3.257-1.086-4.7-1.81-12.3L61.7,81.686l-2.171-5.429L49.757,60.7,46.5,58.162,48.31,53.1h7.238Z" transform="translate(654.575 214.433)" fill="#fff"/>
      <path id="Path_862" data-name="Path 862" d="M90.237,126.592c-.9-1.378-2.811-4.383-3.308-5.375-.62-1.24-4.341-2.067-4.961-5.788s-2.274-5.168-3.928-7.649-4.754-1.861-5.995-3.514-2.481-3.308-2.067-9.1S66.258,85.456,64.811,83.6c-1.158-1.488-2.274-1.309-2.687-1.034-.62-.758-1.778-2.522-1.447-3.514.413-1.24-1.86-3.307-3.1-5.375-.992-1.654-6.2-10.2-8.682-14.263H46l1.654-5.995,7.028.62a31.294,31.294,0,0,0,2.894-4.548c.207-.827.413-.62,1.24-.62h3.307l.413-3.1a3.822,3.822,0,0,0,2.481-1.034c.827-.827.345-1.171,0-1.24l-4.961-5.168,6.2-.62,1.86-1.24h1.447c0-.551.207-1.612,1.034-1.447,1.034.207,8.062,1.034,11.163,4.341,2.481,2.646,6.821,3.859,8.682,4.134L89.429,43.3l4.736,3.089v3.928c.345,0,1.943.5,5.581,2.481s10.2,1.516,13.024,1.034c.206-1.792,1.116-5.54,3.1-6.2s4.134.965,4.962,1.86l-2.688,1.654,1.447,1.034,1.241,3.721v1.24l.827,2.274c.965,1.171,3.183,3.845,4.341,5.168l1.447,1.654L129.72,68.3c.276,1.171.869,3.762,1.034,4.754.207,1.24,1.447,1.447,2.067,2.067.5.5,1.171,4.065,1.447,5.788.069-1.24.248-3.928.413-4.754.207-1.034,3.515-5.788,4.134-3.1.5,2.15-2.342,7.855-3.1,9.716h3.1l.62,1.24.827.414,1.654-.414h1.241l.62-.62h7.234a7.543,7.543,0,0,0,2.274-.62l7.028-7.649,1.86-2.481.207-.827c.207-.345.744-1.034,1.24-1.034s.9,1.516,1.034,2.274c-.345,1.723-.744,5.623.414,7.442,1.447,2.274,8.682,5.375,11.163,5.788,1.984.331,2.342,1.654,2.273,2.274a5.3,5.3,0,0,1,.62,2.48c0,1.447,2.067,1.653,2.688,2.48.5.662.758.276.827,0a3.915,3.915,0,0,1,0,1.654c-.207.62-3.514,5.167-3.514,5.788,0,.5-1.93,2.963-2.894,4.134l-1.034-.827c-.483.138-1.447.62-1.447,1.447,0,1.034-1.241,2.273-1.241,3.1s-.207,3.927-1.034,4.341a20.989,20.989,0,0,0-4.961,2.274c-2.481,1.653-1.241,3.72-1.447,4.341s-1.654,0-3.308,0a2.661,2.661,0,0,0-2.688,1.654,4.473,4.473,0,0,1-3.307,3.307,13.112,13.112,0,0,0-4.755.62c-1.86.62-4.341,1.241-4.961,2.067" transform="translate(654.713 214.433)" fill="none" stroke="#1baf5d" stroke-linecap="round" stroke-linejoin="round" stroke-width="3"/>
      <path id="Path_863" data-name="Path 863" d="M138.532,60.573a2.167,2.167,0,0,1,3.1.62c1.447,1.86,1.447,2.687,2.48,2.894l2.067.413" transform="translate(629.157 207.481)" fill="none" stroke="#1baf5d" stroke-width="3"/>
      <path id="Path_864" data-name="Path 864" d="M106.984,156.081v-.9a3.054,3.054,0,0,1,2.565-3.308c2.067-.413,3.308.414,7.029.414s4.548.413,5.167.62,7.029.62,8.063,1.034.206,2.48,2.481,1.241,2.48-5.375,5.168-6.408.62-1.654,4.548-1.654a77.179,77.179,0,0,0,10.129-1.034,16.368,16.368,0,0,0,4.795-1.586l6.574,13.369" transform="translate(637.881 184.19)" fill="none" stroke="#1baf5d" stroke-linecap="round" stroke-width="3"/>
      <path id="Path_865" data-name="Path 865" d="M175.945,130.948l12.609-4.341c1.241-.345,3.887-1.241,4.548-2.067s2.618-7.649,3.514-10.956l-2.48-4.134.62-6.615,3.514-2.067-1.653-4.341h3.927" transform="translate(618.824 197.467)" fill="none" stroke="#1baf5d" stroke-linecap="round" stroke-linejoin="round" stroke-width="3"/>
      <path id="Path_866" data-name="Path 866" d="M176.23,103.852v5.581l18.4,3.307" transform="translate(618.745 195.417)" fill="none" stroke="#1baf5d" stroke-width="3"/>
      <path id="Path_867" data-name="Path 867" d="M167.711,97.744l2.019,2.719" transform="translate(621.098 197.104)" fill="none" stroke="#1baf5d" stroke-width="2"/>
      <line id="Line_2" data-name="Line 2" y1="1.209" x2="1.209" transform="translate(787.705 280.528)" fill="none" stroke="#1baf5d" stroke-linecap="round" stroke-width="2"/>
    </g>
  </g>
</svg>
