<svg xmlns="http://www.w3.org/2000/svg" width="30.5" height="19.25" viewBox="0 0 30.5 19.25">
  <g id="Group_417" data-name="Group 417" transform="translate(-307 -633.125)">
    <path id="Path_1178" data-name="Path 1178" d="M12.375-11.687a6.189,6.189,0,0,0-6.187-6.187A6.189,6.189,0,0,0,0-11.687,6.189,6.189,0,0,0,4.813-5.655v2.217H3.266a.517.517,0,0,0-.516.516V-1.2a.517.517,0,0,0,.516.516H4.813V.859a.517.517,0,0,0,.516.516H7.047A.517.517,0,0,0,7.563.859V-.687H9.109A.517.517,0,0,0,9.625-1.2V-2.922a.517.517,0,0,0-.516-.516H7.563V-5.655A6.189,6.189,0,0,0,12.375-11.687Zm-9.625,0a3.442,3.442,0,0,1,3.438-3.437,3.442,3.442,0,0,1,3.438,3.438A3.442,3.442,0,0,1,6.188-8.25,3.442,3.442,0,0,1,2.75-11.687Z" transform="translate(307 651)" fill="#1baf5d"/>
    <path id="Path_1179" data-name="Path 1179" d="M15.984-16.5H12.59a.517.517,0,0,0-.365.881l.726.726L9.483-11.425a6.158,6.158,0,0,0-3.3-.95A6.189,6.189,0,0,0,0-6.187,6.189,6.189,0,0,0,6.188,0a6.189,6.189,0,0,0,6.188-6.187,6.158,6.158,0,0,0-.95-3.3l3.468-3.468.726.726a.516.516,0,0,0,.881-.365v-3.395A.517.517,0,0,0,15.984-16.5ZM6.188-2.75A3.442,3.442,0,0,1,2.75-6.187,3.442,3.442,0,0,1,6.188-9.625,3.442,3.442,0,0,1,9.625-6.187,3.442,3.442,0,0,1,6.188-2.75Z" transform="translate(321 651)" fill="#1baf5d"/>
  </g>
</svg>
