<svg xmlns="http://www.w3.org/2000/svg" width="19.334" height="22.195" viewBox="0 0 19.334 22.195">
  <g id="icon" class="icon" transform="translate(-33 512)">
    <path class="icon" id="Path_2011" data-name="Path 2011" d="M141-506.261v5.739l2.458,1.747c1.353.962,2.48,1.756,2.51,1.764s1.166-.78,2.527-1.747l2.475-1.764V-512H141Zm4.127-2.848.858.858.858-.858c.468-.468.876-.854.9-.854a6.621,6.621,0,0,1,.889.889c0,.022-.386.429-.854.9l-.858.858.867.867.867.867-.468.464-.464.468-.867-.867-.867-.867-.867.867-.867.867-.464-.468-.468-.464.867-.867.867-.867-.858-.858c-.468-.468-.854-.876-.854-.9a6.62,6.62,0,0,1,.889-.889C144.251-509.963,144.659-509.577,145.127-509.109Zm2.982,7.209v.65h-4.248v-1.3h4.248Z" transform="translate(-103.318)" fill="#666"/>
    <path class="icon" id="Path_2012" data-name="Path 2012" d="M50.982-356.316c-.689.486-1.3.91-1.353.949-.091.065-.056.1,1.257,1.027l1.352.967.013-.958c0-.525,0-1.383,0-1.912l-.013-.958Z" transform="translate(-15.88 -148.09)" fill="#666"/>
    <path class="icon" id="Path_2013" data-name="Path 2013" d="M401-355.088v1.912l.121-.082c.26-.169,2.61-1.847,2.6-1.855-.069-.061-2.688-1.886-2.7-1.886S401-356.142,401-355.088Z" transform="translate(-352.047 -148.281)" fill="#666"/>
    <path class="icon" id="Path_2014" data-name="Path 2014" d="M33-280.879v6.225H52.334V-287.1l-.117.082c-.069.043-2.228,1.582-4.8,3.416s-4.712,3.329-4.747,3.329-2.2-1.526-4.816-3.386-4.777-3.394-4.8-3.412S33-285.47,33-280.879Zm3.034,3.841v.65h-1.3v-1.3h1.3Zm4.508,0v.65H37.335v-1.3h3.208Z" transform="translate(0 -215.151)" fill="#666"/>
  </g>
</svg>
