<svg xmlns="http://www.w3.org/2000/svg" width="189.479" height="113.835" viewBox="0 0 189.479 113.835">
  <g id="Group_306" data-name="Group 306" transform="translate(-140 -264.834)">
    <g id="Group_279" data-name="Group 279" transform="translate(138.616 264.834)">
      <path id="Path_915" data-name="Path 915" d="M146.463,24h-70.8c-4.576,0-8.285,3.166-8.285,7.072s3.709,7.072,8.285,7.072h70.8c4.576,0,8.285-3.166,8.285-7.072S151.038,24,146.463,24Z" transform="translate(-20.649 -7.509)" fill="#f2f2f2"/>
      <path id="Path_916" data-name="Path 916" d="M108.649,145.086H54.6c-4.575,0-8.285,3.166-8.285,7.071s3.709,7.072,8.285,7.072h54.051c4.575,0,8.285-3.166,8.285-7.072S113.224,145.086,108.649,145.086Z" transform="translate(-14.057 -45.394)" fill="#f2f2f2"/>
      <path id="Path_917" data-name="Path 917" d="M168.477,67.579H20.861c-4.575,0-8.285,3.166-8.285,7.072s3.709,7.072,8.285,7.072H168.477c4.576,0,8.285-3.166,8.285-7.072S173.053,67.579,168.477,67.579Z" transform="translate(-3.502 -21.144)" fill="#f2f2f2"/>
      <path id="Path_918" data-name="Path 918" d="M161.9,111.158H14.285C9.709,111.158,6,114.324,6,118.23s3.709,7.071,8.285,7.071H161.9c4.576,0,8.285-3.166,8.285-7.071S166.477,111.158,161.9,111.158Z" transform="translate(-1.444 -34.779)" fill="#f2f2f2"/>
      <path id="Path_919" data-name="Path 919" d="M91.31,103.974H55.164a10.131,10.131,0,0,0,6.543-2.32,7.107,7.107,0,0,0,0-11.172,10.133,10.133,0,0,0-6.542-2.319H91.31a10.7,10.7,0,0,1,2.773.361H91.471a9.817,9.817,0,0,0-6.35,2.245,6.9,6.9,0,0,0,0,10.84,9.818,9.818,0,0,0,6.35,2.245h1.446a10.927,10.927,0,0,1-1.608.12Z" transform="translate(-16.519 -27.584)" fill="#f2f2f2"/>
      <path id="Path_920" data-name="Path 920" d="M227.485,160.054a3.534,3.534,0,1,1,2.177-1.609,3.539,3.539,0,0,1-2.177,1.609Z" transform="translate(-69.368 -47.899)" fill="#e4e4e4"/>
      <circle id="Ellipse_163" data-name="Ellipse 163" cx="5.505" cy="5.505" r="5.505" transform="translate(146.103 17.865)" fill="none" stroke="#ddd" stroke-width="3"/>
      <circle id="Ellipse_164" data-name="Ellipse 164" cx="4.188" cy="4.188" r="4.188" transform="translate(112.861 0)" fill="#ddd"/>
      <circle id="Ellipse_165" data-name="Ellipse 165" cx="2.094" cy="2.094" r="2.094" transform="translate(6.321 34.038)" fill="#ddd"/>
      <path id="Path_921" data-name="Path 921" d="M31.9,23h-.62a8.276,8.276,0,1,0,0,16.552h.62A8.276,8.276,0,1,0,31.9,23Z" transform="translate(-6.763 -7.196)" fill="#f2f2f2"/>
      <path id="Path_922" data-name="Path 922" d="M4.279,140.143a.353.353,0,0,0,.433.249,3.533,3.533,0,1,1-2.139,1.635.353.353,0,1,0-.611-.355,4.24,4.24,0,1,0,2.567-1.962A.353.353,0,0,0,4.279,140.143Z" transform="translate(0 -43.667)" fill="#ddd"/>
      <path id="Path_923" data-name="Path 923" d="M265.607,111.618a.943.943,0,0,1-.414,1.365,7.805,7.805,0,1,1,4.29-4.342.944.944,0,0,1-1.36.431h0a1.212,1.212,0,0,1-.485-1.463,5.717,5.717,0,1,0-3.5,3.542,1.212,1.212,0,0,1,1.469.467Z" transform="translate(-79.17 -30.649)" fill="#ddd"/>
      <path id="Path_924" data-name="Path 924" d="M159.918,60.491H119.829q-.414,0-.829-.016a17.282,17.282,0,0,0,8.766-2.586c2.292-1.529,3.567-3.547,3.567-5.643s-1.275-4.115-3.567-5.643A17.282,17.282,0,0,0,119,44.016c.29-.011.57-.016.829-.016h40.4a17.726,17.726,0,0,0-9.086,2.494c-2.4,1.538-3.748,3.6-3.767,5.748.019,2.15,1.369,4.211,3.767,5.749a17.727,17.727,0,0,0,9.086,2.5h-.308Z" transform="translate(-36.8 -13.767)" fill="#f2f2f2"/>
    </g>
    <g id="Group_301" data-name="Group 301" transform="translate(0 -11.03)">
      <path id="Path_942" data-name="Path 942" d="M107.553,74.686A2.046,2.046,0,0,0,105.4,76.6v3.958a2.17,2.17,0,0,0,4.31,0V76.6A2.046,2.046,0,0,0,107.553,74.686Z" transform="translate(111.256 255.239)" fill="#1baf5d"/>
      <path id="Path_943" data-name="Path 943" d="M120.741,74.686a2.046,2.046,0,0,0-2.155,1.915v3.958a2.17,2.17,0,0,0,4.31,0V76.6A2.046,2.046,0,0,0,120.741,74.686Z" transform="translate(106.688 255.239)" fill="#1baf5d"/>
      <path id="Path_944" data-name="Path 944" d="M133.928,74.686a2.046,2.046,0,0,0-2.155,1.915v3.958a2.17,2.17,0,0,0,4.31,0V76.6A2.046,2.046,0,0,0,133.928,74.686Z" transform="translate(102.121 255.239)" fill="#1baf5d"/>
      <path id="Path_945" data-name="Path 945" d="M147.117,74.686a2.046,2.046,0,0,0-2.155,1.915v3.958a2.17,2.17,0,0,0,4.31,0V76.6A2.046,2.046,0,0,0,147.117,74.686Z" transform="translate(97.552 255.239)" fill="#1baf5d"/>
      <path id="Path_946" data-name="Path 946" d="M160.3,74.686a2.046,2.046,0,0,0-2.155,1.915v3.958a2.17,2.17,0,0,0,4.31,0V76.6A2.046,2.046,0,0,0,160.3,74.686Z" transform="translate(92.985 255.239)" fill="#1baf5d"/>
      <path id="Path_947" data-name="Path 947" d="M160.7,116.536,159.388,94.3H148.6v-6.67L137.165,86.8V71.515h-5.229V59.009H126.38v-5.28l-1.307-6.948-7.517-7.226-11.439-1.667-9.8,2.779L88.8,46.781,86.835,57.619l-5.229,1.389.98,12.506H76.7V86.8l-11.439.834-1.307,5.28L53.5,93.47v24.178Z" transform="translate(129.232 267.984)" fill="#fff"/>
      <path id="Path_948" data-name="Path 948" d="M88.042,148.278a2.893,2.893,0,0,0-1.714.537,1.537,1.537,0,0,0,0,2.591,3,3,0,0,0,3.428,0,1.536,1.536,0,0,0,0-2.591A2.893,2.893,0,0,0,88.042,148.278Z" transform="translate(118.107 229.749)" fill="#1baf5d"/>
      <path id="Path_949" data-name="Path 949" d="M88.042,125.149a2.205,2.205,0,0,0-2.424,1.881v8.148a2.5,2.5,0,0,0,4.849,0V127.03A2.205,2.205,0,0,0,88.042,125.149Z" transform="translate(118.107 237.76)" fill="#1baf5d"/>
      <path id="Path_950" data-name="Path 950" d="M106.461,125.149a1.858,1.858,0,0,0-1.886,1.829V142.1a1.887,1.887,0,0,0,3.771,0V126.978A1.858,1.858,0,0,0,106.461,125.149Z" transform="translate(111.541 237.76)" fill="#1baf5d"/>
      <path id="Path_951" data-name="Path 951" d="M124.593,125.149a1.858,1.858,0,0,0-1.886,1.829V142.1a1.887,1.887,0,0,0,3.771,0V126.978A1.858,1.858,0,0,0,124.593,125.149Z" transform="translate(105.261 237.76)" fill="#1baf5d"/>
      <path id="Path_952" data-name="Path 952" d="M143.55,125.149a1.858,1.858,0,0,0-1.886,1.829V142.1a1.887,1.887,0,0,0,3.771,0V126.978A1.858,1.858,0,0,0,143.55,125.149Z" transform="translate(98.695 237.76)" fill="#1baf5d"/>
      <path id="Path_953" data-name="Path 953" d="M161.683,125.149a1.858,1.858,0,0,0-1.886,1.829V142.1a1.886,1.886,0,0,0,3.771,0V126.978A1.858,1.858,0,0,0,161.683,125.149Z" transform="translate(92.414 237.76)" fill="#1baf5d"/>
      <path id="Path_954" data-name="Path 954" d="M179.529,125.149a2.893,2.893,0,0,0-1.714.537,1.536,1.536,0,0,0,0,2.591,3,3,0,0,0,3.428,0,1.537,1.537,0,0,0,0-2.591A2.893,2.893,0,0,0,179.529,125.149Z" transform="translate(86.419 237.76)" fill="#1baf5d"/>
      <path id="Path_955" data-name="Path 955" d="M179.529,136.363c-1.339,0-2.424.818-2.424,1.828v7.8c0,1.009,1.086,1.828,2.424,1.828s2.424-.818,2.424-1.828v-7.8C181.954,137.181,180.869,136.363,179.529,136.363Z" transform="translate(86.419 233.876)" fill="#1baf5d"/>
      <path id="Path_956" data-name="Path 956" d="M100.96,98.516a2,2,0,0,0-2.155,1.8v3.725a2.189,2.189,0,0,0,4.31,0v-3.725A2,2,0,0,0,100.96,98.516Z" transform="translate(113.54 246.985)" fill="#1baf5d"/>
      <path id="Path_957" data-name="Path 957" d="M114.147,98.516a2,2,0,0,0-2.155,1.8v3.725a2.189,2.189,0,0,0,4.31,0v-3.725A2,2,0,0,0,114.147,98.516Z" transform="translate(108.972 246.985)" fill="#1baf5d"/>
      <path id="Path_958" data-name="Path 958" d="M127.335,98.516a2,2,0,0,0-2.155,1.8v3.725a2.189,2.189,0,0,0,4.309,0v-3.725A2,2,0,0,0,127.335,98.516Z" transform="translate(104.404 246.985)" fill="#1baf5d"/>
      <path id="Path_959" data-name="Path 959" d="M140.523,98.516a2,2,0,0,0-2.155,1.8v3.725a2.189,2.189,0,0,0,4.31,0v-3.725A2,2,0,0,0,140.523,98.516Z" transform="translate(99.836 246.985)" fill="#1baf5d"/>
      <path id="Path_960" data-name="Path 960" d="M153.711,98.516a2,2,0,0,0-2.155,1.8v3.725a2.189,2.189,0,0,0,4.309,0v-3.725A2,2,0,0,0,153.711,98.516Z" transform="translate(95.268 246.985)" fill="#1baf5d"/>
      <path id="Path_961" data-name="Path 961" d="M166.9,98.516a2,2,0,0,0-2.155,1.8v3.725a2.189,2.189,0,0,0,4.31,0v-3.725A2,2,0,0,0,166.9,98.516Z" transform="translate(90.701 246.985)" fill="#1baf5d"/>
      <path id="Path_962" data-name="Path 962" d="M158.756,87.082H150.17V83.064a2.006,2.006,0,0,0-2.147-1.827h-9.874V68.817h1.5a1.85,1.85,0,1,0,0-3.653h-6.01V55.657a1.968,1.968,0,0,0,1.932-1.817,2.006,2.006,0,0,0-2.147-1.827h-5.3V50.431c0-9.791-8.807-17.863-20.034-18.785v-7.7a2.175,2.175,0,0,0-4.293,0v7.7C92.578,32.567,83.77,40.64,83.77,50.431v1.583H78.476a2.006,2.006,0,0,0-2.147,1.827,1.968,1.968,0,0,0,1.932,1.817v9.507h-6.01a1.85,1.85,0,1,0,0,3.653h1.5v12.42H63.879a2.006,2.006,0,0,0-2.147,1.827v4.018H53.147A2.006,2.006,0,0,0,51,88.909v24.84a2.006,2.006,0,0,0,2.147,1.826H158.756a2.006,2.006,0,0,0,2.147-1.826V88.909A2.006,2.006,0,0,0,158.756,87.082ZM88.064,50.431c0-8.393,8.025-15.221,17.888-15.221s17.887,6.828,17.887,15.221v1.583H88.064Zm-5.51,5.236h46.794v9.5H82.554ZM78.046,68.817h55.81v12.42H78.046ZM55.293,90.735h6.44v21.187h-6.44Zm10.733-1.826V84.89h79.851v27.032H66.026Zm90.584,23.014h-6.44V90.735h6.44Z" transform="translate(130.098 273.446)" fill="#1baf5d"/>
      <path id="Path_963" data-name="Path 963" d="M132.6,6h15.085l-3.595,9.815h-8.241v6.219H132.6Zm3.249,7.1h5.838l1.6-4.379h-7.442Z" transform="translate(101.835 279.03)" fill="#1baf5d" fill-rule="evenodd"/>
    </g>
  </g>
</svg>
