<svg xmlns="http://www.w3.org/2000/svg" width="189.479" height="114.166" viewBox="0 0 189.479 114.166">
  <g id="Group_308" data-name="Group 308" transform="translate(-941 -264.834)">
    <g id="Group_283" data-name="Group 283" transform="translate(939.616 264.834)">
      <path id="Path_915" data-name="Path 915" d="M146.463,24h-70.8c-4.576,0-8.285,3.166-8.285,7.072s3.709,7.072,8.285,7.072h70.8c4.576,0,8.285-3.166,8.285-7.072S151.038,24,146.463,24Z" transform="translate(-20.649 -7.509)" fill="#f2f2f2"/>
      <path id="Path_916" data-name="Path 916" d="M108.649,145.086H54.6c-4.575,0-8.285,3.166-8.285,7.071s3.709,7.072,8.285,7.072h54.051c4.575,0,8.285-3.166,8.285-7.072S113.224,145.086,108.649,145.086Z" transform="translate(-14.057 -45.394)" fill="#f2f2f2"/>
      <path id="Path_917" data-name="Path 917" d="M168.477,67.579H20.861c-4.575,0-8.285,3.166-8.285,7.072s3.709,7.072,8.285,7.072H168.477c4.576,0,8.285-3.166,8.285-7.072S173.053,67.579,168.477,67.579Z" transform="translate(-3.502 -21.144)" fill="#f2f2f2"/>
      <path id="Path_918" data-name="Path 918" d="M161.9,111.158H14.285C9.709,111.158,6,114.324,6,118.23s3.709,7.071,8.285,7.071H161.9c4.576,0,8.285-3.166,8.285-7.071S166.477,111.158,161.9,111.158Z" transform="translate(-1.444 -34.779)" fill="#f2f2f2"/>
      <path id="Path_919" data-name="Path 919" d="M91.31,103.974H55.164a10.131,10.131,0,0,0,6.543-2.32,7.107,7.107,0,0,0,0-11.172,10.133,10.133,0,0,0-6.542-2.319H91.31a10.7,10.7,0,0,1,2.773.361H91.471a9.817,9.817,0,0,0-6.35,2.245,6.9,6.9,0,0,0,0,10.84,9.818,9.818,0,0,0,6.35,2.245h1.446a10.927,10.927,0,0,1-1.608.12Z" transform="translate(-16.519 -27.584)" fill="#f2f2f2"/>
      <path id="Path_920" data-name="Path 920" d="M227.485,160.054a3.534,3.534,0,1,1,2.177-1.609,3.539,3.539,0,0,1-2.177,1.609Z" transform="translate(-69.368 -47.899)" fill="#e4e4e4"/>
      <circle id="Ellipse_163" data-name="Ellipse 163" cx="5.505" cy="5.505" r="5.505" transform="translate(146.103 17.865)" fill="none" stroke="#ddd" stroke-width="3"/>
      <circle id="Ellipse_164" data-name="Ellipse 164" cx="4.188" cy="4.188" r="4.188" transform="translate(112.861 0)" fill="#ddd"/>
      <circle id="Ellipse_165" data-name="Ellipse 165" cx="2.094" cy="2.094" r="2.094" transform="translate(6.321 34.038)" fill="#ddd"/>
      <path id="Path_921" data-name="Path 921" d="M31.9,23h-.62a8.276,8.276,0,1,0,0,16.552h.62A8.276,8.276,0,1,0,31.9,23Z" transform="translate(-6.763 -7.196)" fill="#f2f2f2"/>
      <path id="Path_922" data-name="Path 922" d="M4.279,140.143a.353.353,0,0,0,.433.249,3.533,3.533,0,1,1-2.139,1.635.353.353,0,1,0-.611-.355,4.24,4.24,0,1,0,2.567-1.962A.353.353,0,0,0,4.279,140.143Z" transform="translate(0 -43.667)" fill="#ddd"/>
      <path id="Path_923" data-name="Path 923" d="M265.607,111.618a.943.943,0,0,1-.414,1.365,7.805,7.805,0,1,1,4.29-4.342.944.944,0,0,1-1.36.431h0a1.212,1.212,0,0,1-.485-1.463,5.717,5.717,0,1,0-3.5,3.542,1.212,1.212,0,0,1,1.469.467Z" transform="translate(-79.17 -30.649)" fill="#ddd"/>
      <path id="Path_924" data-name="Path 924" d="M159.918,60.491H119.829q-.414,0-.829-.016a17.282,17.282,0,0,0,8.766-2.586c2.292-1.529,3.567-3.547,3.567-5.643s-1.275-4.115-3.567-5.643A17.282,17.282,0,0,0,119,44.016c.29-.011.57-.016.829-.016h40.4a17.726,17.726,0,0,0-9.086,2.494c-2.4,1.538-3.748,3.6-3.767,5.748.019,2.15,1.369,4.211,3.767,5.749a17.727,17.727,0,0,0,9.086,2.5h-.308Z" transform="translate(-36.8 -13.767)" fill="#f2f2f2"/>
    </g>
    <g id="Group_307" data-name="Group 307">
      <path id="Path_1079" data-name="Path 1079" d="M4425.333,1434.667l-6.667-8-.833-4h2.5l5,2.333,5.333,6.833,9.167-.667L4448,1429.5h4.167l1.667,1.667v2l-1.667,1.5-10.333,3.5-3.333,2.167,5.667,7.167L4446,1449h4.833l1.333,1.333-9.5,7.5-2.833.833-1.333-2.167,2.333-4.833-7.667-7.333-10.5,13.5-3.167-3.167Z" transform="translate(-3369 -1141)" fill="#fff"/>
      <g id="Group_306" data-name="Group 306">
        <path id="Path_1077" data-name="Path 1077" d="M86.5,1.031a3.444,3.444,0,0,0-.478,2.231,8.884,8.884,0,0,0,1.673,3.983q1.2,1.554,2.868,3.585l1.673,1.912c.4.4.717.8,1.115,1.195a1.387,1.387,0,0,1,.4,1.2c-.08.239-.159.558-.239.876l-5.577,14.9c-.159.478-.319.956-.478,1.514a2.509,2.509,0,0,0,.4,2.39,7.119,7.119,0,0,0,2.31,2.071,1.884,1.884,0,0,0,2.549-.4,5.811,5.811,0,0,0,.717-.876c1.912-2.709,3.744-5.5,5.657-8.206a12.646,12.646,0,0,1,2.23-2.709c.239-.159.4-.319.638-.478l4.939,5.178c.558.558,1.036,1.115,1.593,1.673,0,.08-.08.159-.08.239l-.4.876c-.319.717-.717,1.354-1.035,2.071a2.3,2.3,0,0,0,.318,2.549A15.321,15.321,0,0,0,108.407,38a1.664,1.664,0,0,0,2.39.159,3.468,3.468,0,0,0,.557-.478l1.912-1.514c2.31-1.753,4.621-3.585,6.851-5.417a2.62,2.62,0,0,0,1.036-2.549,2.99,2.99,0,0,0-1.912-1.992,3.707,3.707,0,0,0-2.629-.08l-.717.159-1.912.478c-1.673-2.151-3.266-4.3-4.939-6.373l-.8-1.036.4-.239a12.3,12.3,0,0,1,2.708-1.354l9.4-3.665c.557-.239,1.115-.4,1.593-.637a2.008,2.008,0,0,0,1.355-1.832,2.125,2.125,0,0,0-.239-.956,1.6,1.6,0,0,0-.319-.637,4.2,4.2,0,0,0-2.708-2.39,6.6,6.6,0,0,0-2.47-.08L104.025,9.476c-1.115.159-2.31.319-3.426.478a1.137,1.137,0,0,1-1.2-.478L97.97,7.8C96.855,6.449,95.74,5.174,94.624,3.82a12.94,12.94,0,0,0-2.788-2.47,8.365,8.365,0,0,0-2.549-1.2A2.383,2.383,0,0,0,86.5,1.031Zm2.47.637A8.968,8.968,0,0,1,91.119,2.7a9.713,9.713,0,0,1,2.39,2.151c1.115,1.275,2.231,2.629,3.346,3.983l1.355,1.593a2.722,2.722,0,0,0,2.708,1.115c1.116-.159,2.23-.319,3.426-.478l13.942-1.912a4.416,4.416,0,0,1,1.832.08,2.817,2.817,0,0,1,1.673,1.514,3.957,3.957,0,0,1,.239.558c.159.478.08.637-.319.8-.478.239-1.036.4-1.593.637l-9.4,3.505a20.592,20.592,0,0,0-2.948,1.514l-.8.478-1.036.717,1.832,2.47c1.673,2.231,3.426,4.461,5.1,6.613a1,1,0,0,0,1.2.4c.717-.159,1.434-.4,2.151-.558l.717-.159a2.373,2.373,0,0,1,1.673.08,1.685,1.685,0,0,1,.956,1.115.8.8,0,0,1-.16.4.957.957,0,0,1-.4.4c-2.31,1.832-4.541,3.585-6.851,5.338l-1.912,1.514a3.35,3.35,0,0,1-.557.4.246.246,0,0,1-.159.08l-.16-.159a11.418,11.418,0,0,1-.956-1.036.713.713,0,0,1-.08-.876c.319-.717.637-1.354,1.035-2.071l.4-.876.239-.478a1.1,1.1,0,0,0-.16-1.275c-.637-.637-1.194-1.275-1.832-1.912l-5.178-5.5-.638-.637-.557.4c-.16.08-.239.159-.4.239a8.292,8.292,0,0,0-.876.637,13.185,13.185,0,0,0-2.549,3.027c-1.833,2.709-3.745,5.5-5.657,8.206a4.378,4.378,0,0,1-.558.717c-.239.239-.319.239-.478.08a6.606,6.606,0,0,1-1.912-1.753c-.159-.159-.239-.4-.08-.956a15.038,15.038,0,0,1,.478-1.434l5.577-14.9a8.106,8.106,0,0,0,.319-1.115,2.874,2.874,0,0,0-.717-2.47c-.4-.4-.717-.8-1.115-1.2L92,9.795c-1.115-1.354-2.071-2.47-2.868-3.505a6.984,6.984,0,0,1-1.354-3.266,1.519,1.519,0,0,1,.159-1.036C88.012,1.668,88.49,1.509,88.968,1.668Z" transform="translate(962.297 280)" fill="#1baf5d"/>
        <g id="Group_305" data-name="Group 305">
          <path id="Path_1078" data-name="Path 1078" d="M136.135,105.214V82.185l-2.551-7.112-4.464-4.4-8.608-3.725-10.521-4.064V57.124l3.188-3.387L115.73,47.3l3.826-1.693,1.275-3.725L119.556,38.5v-4.4l-1.275-7.451-8.29-8.128L101.383,17.5,91.5,19.871l-4.145,6.773L84.485,38.5l-.956,3.387,2.232,3.725L88.948,47.3l1.275,4.4,4.782,5.419v5.757l-22,8.805-3.507,6.1v32.851l1.275,2.709h62.809l2.551-1.016Z" transform="translate(909.771 262.5)" fill="#fff"/>
          <g id="Group_304" data-name="Group 304">
            <path id="Path_1076" data-name="Path 1076" d="M75.773,98.185V108.3c0,.016,0,.033,0,.049v21.026a4.03,4.03,0,0,1-4.2,3.82H28.657a1.624,1.624,0,0,1-.85.24H15.294v-.24H4.2A4.03,4.03,0,0,1,0,129.37V98.185c0-8.851,8.336-12.068,8.692-12.2l.018-.007.013,0,19.667-6.931V75.066a13.712,13.712,0,0,1-6.174-9.448,7.521,7.521,0,0,1-4.185-1.552A6.119,6.119,0,0,1,15.6,59.25a5.714,5.714,0,0,1,1.7-4.007V49.553C17.3,39.323,26.456,31,37.709,31s20.409,8.323,20.409,18.553V55.1a6.018,6.018,0,0,1,1.7,4.152,6.119,6.119,0,0,1-2.428,4.815A7.526,7.526,0,0,1,53.2,65.618a13.812,13.812,0,0,1-5.84,9.227v4.2l19.688,6.931.031.011C67.437,86.117,75.773,89.334,75.773,98.185ZM16.349,130.172V100.717a1.654,1.654,0,0,0-3.293,0V130.2H4.2a.872.872,0,0,1-.909-.826V98.185c0-6.74,6.256-9.279,6.64-9.428l11.82-4.165,5.193,9.461A2.927,2.927,0,0,0,29.529,95.5a3.091,3.091,0,0,0,.71-.078l7.649-4.988,8.091,5.057q.123.01.256.01a2.926,2.926,0,0,0,2.581-1.451l5.193-9.461,11.829,4.164c.428.167,6.642,2.712,6.642,9.429V108.31c0,.012,0,.024,0,.035v21.025a.872.872,0,0,1-.909.826H62.719V100.717a1.654,1.654,0,0,0-3.293,0V130.2h-4.56l.053.213H28.657a1.623,1.623,0,0,0-.85-.239ZM50.924,83.507l-4.841,8.82-.378-.244L40.26,88.567l.676-.759,5.3-5.951ZM31.683,79.525v-2.8A18.189,18.189,0,0,0,37.909,77.8a16.794,16.794,0,0,0,6.159-1.167v2.907L37.881,86.48ZM56.524,59.25A3.234,3.234,0,0,1,55.242,61.8a4.018,4.018,0,0,1-1.9.8V55.909A3.506,3.506,0,0,1,56.524,59.25ZM22.08,62.591A3.5,3.5,0,0,1,18.9,59.25c0-1.6,1.459-2.9,3.184-3.265Zm.088-9.657a8.838,8.838,0,0,0-1.574.322v-3.7c0-8.579,7.678-15.559,17.115-15.559s17.115,6.98,17.115,15.559v3.6a7.972,7.972,0,0,0-1.485-.261v-.011a3.5,3.5,0,0,0-.047-.736c-.143-.656-.722-1.217-3.075-3.494-.575-.557-1.256-1.216-2.063-2a3.147,3.147,0,0,0-3.741-.415,34.186,34.186,0,0,1-19.193,4.7A2.913,2.913,0,0,0,22.168,52.934ZM25.373,63.77V53.939a37.893,37.893,0,0,0,20.582-5.046c.806.786,1.487,1.446,2.051,1.994h0c1.106,1.072,1.764,1.71,2.04,2.018V63.77C50.047,69.847,44.6,74.8,37.91,74.8,30.4,74.8,25.373,69.508,25.373,63.77ZM29.68,92.327l-4.841-8.82,4.675-1.646L35.5,88.571l-5.667,3.66Z" transform="translate(975 245.569)" fill="#1baf5d" fill-rule="evenodd"/>
            <rect id="Rectangle_922" data-name="Rectangle 922" width="84" height="3" rx="1.5" transform="translate(970.399 376)" fill="#1baf5d"/>
          </g>
        </g>
      </g>
    </g>
  </g>
</svg>
