<svg xmlns="http://www.w3.org/2000/svg" width="189.479" height="115.166" viewBox="0 0 189.479 115.166">
  <g id="Injury" transform="translate(-140 -271.834)">
    <g id="Group_323" data-name="Group 323" transform="translate(0 7)">
      <g id="Group_279" data-name="Group 279" transform="translate(138.616 264.834)">
        <path id="Path_915" data-name="Path 915" d="M146.463,24h-70.8c-4.576,0-8.285,3.166-8.285,7.072s3.709,7.072,8.285,7.072h70.8c4.576,0,8.285-3.166,8.285-7.072S151.038,24,146.463,24Z" transform="translate(-20.649 -7.509)" fill="#f2f2f2"/>
        <path id="Path_916" data-name="Path 916" d="M108.649,145.086H54.6c-4.575,0-8.285,3.166-8.285,7.071s3.709,7.072,8.285,7.072h54.051c4.575,0,8.285-3.166,8.285-7.072S113.224,145.086,108.649,145.086Z" transform="translate(-14.057 -45.394)" fill="#f2f2f2"/>
        <path id="Path_917" data-name="Path 917" d="M168.477,67.579H20.861c-4.575,0-8.285,3.166-8.285,7.072s3.709,7.072,8.285,7.072H168.477c4.576,0,8.285-3.166,8.285-7.072S173.053,67.579,168.477,67.579Z" transform="translate(-3.502 -21.144)" fill="#f2f2f2"/>
        <path id="Path_918" data-name="Path 918" d="M161.9,111.158H14.285C9.709,111.158,6,114.324,6,118.23s3.709,7.071,8.285,7.071H161.9c4.576,0,8.285-3.166,8.285-7.071S166.477,111.158,161.9,111.158Z" transform="translate(-1.444 -34.779)" fill="#f2f2f2"/>
        <path id="Path_919" data-name="Path 919" d="M91.31,103.974H55.164a10.131,10.131,0,0,0,6.543-2.32,7.107,7.107,0,0,0,0-11.172,10.133,10.133,0,0,0-6.542-2.319H91.31a10.7,10.7,0,0,1,2.773.361H91.471a9.817,9.817,0,0,0-6.35,2.245,6.9,6.9,0,0,0,0,10.84,9.818,9.818,0,0,0,6.35,2.245h1.446a10.927,10.927,0,0,1-1.608.12Z" transform="translate(-16.519 -27.584)" fill="#f2f2f2"/>
        <path id="Path_920" data-name="Path 920" d="M227.485,160.054a3.534,3.534,0,1,1,2.177-1.609,3.539,3.539,0,0,1-2.177,1.609Z" transform="translate(-69.368 -47.899)" fill="#e4e4e4"/>
        <circle id="Ellipse_163" data-name="Ellipse 163" cx="5.505" cy="5.505" r="5.505" transform="translate(146.103 17.865)" fill="none" stroke="#ddd" stroke-width="3"/>
        <circle id="Ellipse_164" data-name="Ellipse 164" cx="4.188" cy="4.188" r="4.188" transform="translate(112.861 0)" fill="#ddd"/>
        <circle id="Ellipse_165" data-name="Ellipse 165" cx="2.094" cy="2.094" r="2.094" transform="translate(6.321 34.038)" fill="#ddd"/>
        <path id="Path_921" data-name="Path 921" d="M31.9,23h-.62a8.276,8.276,0,1,0,0,16.552h.62A8.276,8.276,0,1,0,31.9,23Z" transform="translate(-6.763 -7.196)" fill="#f2f2f2"/>
        <path id="Path_922" data-name="Path 922" d="M4.279,140.143a.353.353,0,0,0,.433.249,3.533,3.533,0,1,1-2.139,1.635.353.353,0,1,0-.611-.355,4.24,4.24,0,1,0,2.567-1.962A.353.353,0,0,0,4.279,140.143Z" transform="translate(0 -43.667)" fill="#ddd"/>
        <path id="Path_923" data-name="Path 923" d="M265.607,111.618a.943.943,0,0,1-.414,1.365,7.805,7.805,0,1,1,4.29-4.342.944.944,0,0,1-1.36.431h0a1.212,1.212,0,0,1-.485-1.463,5.717,5.717,0,1,0-3.5,3.542,1.212,1.212,0,0,1,1.469.467Z" transform="translate(-79.17 -30.649)" fill="#ddd"/>
        <path id="Path_924" data-name="Path 924" d="M159.918,60.491H119.829q-.414,0-.829-.016a17.282,17.282,0,0,0,8.766-2.586c2.292-1.529,3.567-3.547,3.567-5.643s-1.275-4.115-3.567-5.643A17.282,17.282,0,0,0,119,44.016c.29-.011.57-.016.829-.016h40.4a17.726,17.726,0,0,0-9.086,2.494c-2.4,1.538-3.748,3.6-3.767,5.748.019,2.15,1.369,4.211,3.767,5.749a17.727,17.727,0,0,0,9.086,2.5h-.308Z" transform="translate(-36.8 -13.767)" fill="#f2f2f2"/>
      </g>
    </g>
    <path id="Path_1234" data-name="Path 1234" d="M-15292,22854h74v-33.334l-7.333-6.666-16.667-3.334-5.667-3V22799l11.334-9,2.333-7,6-3.334v-5.332l-6-3v-16l-8-10.668-18.333-3.332-16,7.332L-15280,22765v6.334l-5.333,5,5.333,5.332,3.667,5.668,10.666,11.666v8.666l-10.666,3-13.334,3.334-5.333,8.666Z" transform="translate(15487 -22467)" fill="#fff"/>
    <g id="broken-arm" transform="translate(113 236.303)">
      <path id="Path_1226" data-name="Path 1226" d="M145.391,107.161l-16.841-2.868V96.881a28.332,28.332,0,0,0,12.963-16.575,6.381,6.381,0,0,0,3.539-1.026A6.564,6.564,0,0,0,146.63,69.23a6.673,6.673,0,0,0-3.063-1.965v-.15c.01-.913.022-2.022.012-2.99V60.187c0-8.956-4.048-16.218-11.4-20.448a30.971,30.971,0,0,0-29.7.052c-6.407,3.724-9.92,9.6-9.89,16.557,0,.99.015,2.011.024,3.008.017,1.681.033,3.269.018,4.526,0,.024-.007.046-.007.07-.008,1.555-.022,2.594-.038,3.284a6.676,6.676,0,0,0-4.816,6.65,6.761,6.761,0,0,0,3.09,5.263,6.208,6.208,0,0,0,3.6,1.163,28.262,28.262,0,0,0,12.7,16.7v6.8l-3.893.73a1.915,1.915,0,0,0-.34.03l-8.406,1.579a1.913,1.913,0,0,0-.29.086l-4.156.779A14.816,14.816,0,0,0,78,121.576v27.176a1.944,1.944,0,0,0,1.944,1.944H155.77a1.944,1.944,0,0,0,1.944-1.944V121.76a14.772,14.772,0,0,0-12.323-14.6ZM104.436,43.153c7.461-4.337,18.314-4.355,25.806-.044,4.311,2.481,9.449,7.457,9.449,17.077v2.992c-5.657,4.137-12.046,5.685-18.088,4.359a17.774,17.774,0,0,1-12.132-9.1,1.944,1.944,0,0,0-3.106-.482,15.161,15.161,0,0,1-9.837,4.132c0-.866-.013-1.8-.022-2.767-.01-.99-.02-2-.024-2.985C96.451,49.279,100.79,45.272,104.436,43.153Zm-6.6,34.556a1.945,1.945,0,0,0-2.525-1.452,2.275,2.275,0,0,1-2.272-.331,2.92,2.92,0,0,1-1.379-2.178,2.775,2.775,0,0,1,2.774-2.879c1.957,0,2-1.807,2.04-3.4.01-.416.019-.918.026-1.49a19.835,19.835,0,0,0,10.752-3.672,21.831,21.831,0,0,0,13.518,9.03,23.857,23.857,0,0,0,5.126.556,26.539,26.539,0,0,0,13.777-4.031c-.01,1.642.053,1.9.579,2.43a1.948,1.948,0,0,0,1.384.578,2.778,2.778,0,0,1,2.754,3.138A2.851,2.851,0,0,1,143,75.981a2.386,2.386,0,0,1-2.277.265,1.944,1.944,0,0,0-2.547,1.419,24.391,24.391,0,0,1-16.247,17.956l-.838.272a11.318,11.318,0,0,1-6.9.085A24.348,24.348,0,0,1,97.835,77.709ZM113,99.679a14.473,14.473,0,0,0,4.445.693,15.7,15.7,0,0,0,4.842-.78l.838-.272c.52-.168,1.03-.354,1.536-.552v6.608a11.6,11.6,0,0,1-13.61.054V98.963C111.691,99.221,112.339,99.465,113,99.679Zm9.037,47.114,7.025-13.516a8.73,8.73,0,0,1-7.025,13.516Zm-4.39.015H112.31l9.095-17.5h.341a8.682,8.682,0,0,1,4.38,1.187Zm-16.318-17.5h5.833v17.5h-5.833Zm15.69,0L111.052,140.8V129.31Zm-7.914-3.888h-7.881l-3.948-15.794,5.2-.976,12.577,16.77Zm-27.219-3.845A10.926,10.926,0,0,1,90.8,110.844l2.654-.5,4.1,16.406a1.906,1.906,0,0,0-.109.614v3.888H93.554V121.79a1.944,1.944,0,0,0-3.888,0V133.2a1.944,1.944,0,0,0,1.944,1.944h5.833v11.665H81.888Zm71.937,25.232H144.1V125.421a1.944,1.944,0,1,0-3.889,0v21.387h-9.364a12.628,12.628,0,0,0-9.106-21.387H119.92l-13.177-17.569.847-.159.791.608a15.5,15.5,0,0,0,18.929-.041l.247-.192,17.181,2.926a10.893,10.893,0,0,1,9.087,10.765Z" fill="#1baf5d"/>
    </g>
  </g>
</svg>
