<svg xmlns="http://www.w3.org/2000/svg" width="25" height="20" viewBox="0 0 25 20">
  <path id="Internal" d="M8.75-7.5A5,5,0,0,0,13.08-10a5,5,0,0,0,0-5,5,5,0,0,0-4.33-2.5A5,5,0,0,0,4.42-15a5,5,0,0,0,0,5A5,5,0,0,0,8.75-7.5ZM6.965-5.625A6.963,6.963,0,0,0,0,1.34,1.16,1.16,0,0,0,1.16,2.5H15.336A2.5,2.5,0,0,1,15,1.25v-5q0-.123.012-.246a6.946,6.946,0,0,0-4.477-1.629Zm13.66-2.5a1.249,1.249,0,0,1,1.25,1.25V-5h-2.5V-6.875A1.249,1.249,0,0,1,20.625-8.125ZM17.5-6.875V-5a1.249,1.249,0,0,0-1.25,1.25v5A1.249,1.249,0,0,0,17.5,2.5h6.25A1.249,1.249,0,0,0,25,1.25v-5A1.249,1.249,0,0,0,23.75-5V-6.875A3.124,3.124,0,0,0,20.625-10,3.124,3.124,0,0,0,17.5-6.875Z" transform="translate(0 17.5)" fill="#999"/>
</svg>
