<svg
	xmlns="http://www.w3.org/2000/svg" id="master-artboard" viewBox="0 0 171.58311462402344 222.8759765625">
	<rect id="ee-background" x="0" y="0" width="171.58311462402344" height="222.8759765625" style="fill: white; fill-opacity: 0; pointer-events: none;"></rect>
	<g transform="matrix(0.2604166567325592, 0, 0, 0.2604166567325592, -186.649071931839, -64.45085906982422)">
		<path fill="#53bd82" d="M776.8,888.5c0,8.5,6.9,15.4,15.4,15.4h553.3c8.5,0,15.4-6.9,15.4-15.4V412.1h-584V888.5z" opacity=".19"></path>
		<path fill="#53bd82" d="M950.6 691.8c2.6 9 6.2 17.7 10.8 26 2.8 5 2.6 11.2-.6 16l-13.4 20.1 25.7 25.7 20.1-13.4c4.8-3.2 11-3.4 16-.6 8.2 4.6 16.9 8.2 26 10.8 5.5 1.6 9.7 6.1 10.9 11.8l4.7 23.7h36.3l4.8-23.8c1.1-5.6 5.3-10.2 10.9-11.8 9-2.6 17.7-6.2 26-10.8 5-2.8 11.2-2.6 16 .6l20.1 13.4 25.7-25.7-13.4-20.1c-3.2-4.8-3.4-11-.6-16 4.6-8.2 8.2-16.9 10.8-26 1.6-5.5 6.1-9.7 11.8-10.9l23.7-4.7v-36.3l-23.8-4.8c-5.6-1.1-10.2-5.3-11.8-10.9-2.6-9-6.2-17.7-10.8-26-2.8-5-2.6-11.2.6-16l13.4-20.1-25.7-25.7-20.1 13.4c-4.8 3.2-11 3.4-16 .6-8.2-4.6-16.9-8.2-26-10.8-5.5-1.6-9.7-6.1-10.9-11.8l-4.7-23.7h-36.3l-4.8 23.8c-1.1 5.6-5.3 10.2-10.9 11.8-9 2.6-17.7 6.2-26 10.8-5 2.8-11.2 2.6-16-.6l-20.1-13.4-25.7 25.7 13.4 20.1c3.2 4.8 3.4 11 .6 16-4.6 8.2-8.2 16.9-10.8 26-1.6 5.5-6.1 9.7-11.8 10.9l-23.7 4.7v36.3l23.8 4.8C944.5 682 949.1 686.2 950.6 691.8zM1068.8 565.7c50.9 0 92.2 41.3 92.2 92.2 0 50.9-41.3 92.2-92.2 92.2-50.9 0-92.2-41.3-92.2-92.2C976.6 607.1 1017.9 565.8 1068.8 565.7zM776.8 335.2v46.1h584v-46.1c0-8.5-6.9-15.4-15.4-15.4H792.1C783.6 319.8 776.8 326.7 776.8 335.2zM930.5 335.2h30.7V366h-30.7V335.2zM869 335.2h30.7V366H869V335.2zM807.5 335.2h30.7V366h-30.7V335.2z"></path>
		<path fill="#fcd2b1" d="M866.3,767.1l0.6-16.2l11.5,3.5l2.2,20.2C880.6,774.6,869.6,775.3,866.3,767.1z"></path>
		<path fill="#0e538c" d="M867.3,767.2c2.7,1.1,7.2,2.1,12.8,0.8l-0.7-4.6c0,0,3.2,1.9,4,6.1c0.8,4.1,1,3,6.2,6.2   c5.3,3.2,4.9,10.4,4.9,10.4l-39.2-1c0,0-1.1-7.9,6-16.3C862.7,767,865.2,766.3,867.3,767.2z"></path>
		<path fill="#ffbe55" d="M804,529c0,0-5.1,19.9,2.1,32.4s20.2-15.2,20.2-15.2S824,519.6,804,529z"></path>
		<path fill="#ffe3ca" d="M800.4,434.6c0,0-26.4,35.9-30.8,57.6c-4.5,21.7,0.3,69.1,0.3,69.1h10.8c0,0,5.7-60.5,9.3-69.1   c3.6-8.8,27-49.4,27-49.4L800.4,434.6z"></path>
		<path d="M 795.900024 784.299988 H 896.100021 V 795.799988 H 795.900024 V 784.299988 Z" fill="#d3d3d3"></path>
		<path d="M 774.5 863.700012 H 882.199997 V 875.200012 H 774.5 V 863.700012 Z" fill="#d3d3d3"></path>
		<path d="M 764.799988 940.5 H 872.499985 V 952 H 764.799988 V 940.5 Z" fill="#d3d3d3"></path>
		<path d="M 754 1016.9000244140625 L 742 1016.9000244140625 L 830.4000244140625 601.0999755859375 L 837.0999755859375 601.0999755859375 Z" fill="#d3d3d3"></path>
		<path d="M 879.2999877929688 1016.9000244140625 L 867.2999877929688 1016.9000244140625 L 937.4000244140625 589.4000244140625 L 943.2999877929688 592.2000122070312 Z" fill="#d3d3d3"></path>
		<path d="M 855 1016.900024 L 919.5 601.799988 L 830.400024 601.099976 L 742 1016.900024 L 728.200012 1016.900024 L 818 589.400024 L 937.400024 589.400024 L 871.099976 1016.900024 L 853 1016.900024" fill="#f7f7f7"></path>
		<path fill="#fcd2b1" d="M814.5,767.1l0.6-16.2l11.5,3.5l2.2,20.2C828.7,774.6,817.8,775.3,814.5,767.1z"></path>
		<path fill="#ffe3ca" d="M928,401.6c0,0,28.5-2.1,31.9-15.3c3.4-13.2,2.8-48.8,2.8-48.8h9.9c0,0,6.8,33.1,6.4,48.8   c-0.4,15.7-19.5,42.5-51,40.8C896.6,425.4,928,401.6,928,401.6z"></path>
		<path fill="#2a94f4" d="M835.7,399.9c0,0-16.5,1.7-23.3,8.9c-3.3,3.5-23.8,28.9-23,34.4l24.1,15l19.7-27.3L835.7,399.9z"></path>
		<path fill="#0b4870" d="M809.9,522.2c0,0-7.1,21-0.4,44s6.7,69.4,6.1,81.5s-11.9,47.1-2.3,108.9h2.3h12.5c0,0,9-64.8,14.2-92.4   c4.9-25.9,11.1-90.5,11.1-90.5s18.6,61.3,15.5,77.1c-3.4,17.4-3.8,105.7-3.8,105.7H880c0,0,16.7-76,17.7-96.4   c1.1-20.4-1.2-134.8-1.2-134.8S846.9,491.6,809.9,522.2z"></path>
		<path d="M 860.7000122070312 360 L 845.5999755859375 406.20001220703125 L 872.9000244140625 411.6000061035156 L 878.9000244140625 363.70001220703125 Z" fill="#fcd2b1"></path>
		<path fill="#2a94f4" d="M876.2,397.3c0,0,18.5,3.8,20.4,28c1.9,24.2,4.5,127.4,4.5,136.3c-0.6,4.1-72.5,17.8-93.9-3   c-5.4-5.3,12.3-95.1,9.8-118.7C814.4,416.4,828.4,386.5,876.2,397.3z"></path>
		<path fill="#2a94f4" d="M897.7,445.7c0,0,7.4-16.9,30.3-18.6c0,0,5.5-15.7,0-25.5c0,0-41.5-8.5-57.3-5.3S897.7,445.7,897.7,445.7z"></path>
		<path fill="#ffe3ca" d="M972.5,346.4c0,0,3.1-16.6-2.4-26c-3.3-5.6-6.9-8.2-10.5-7.2c-2.4,0.7-3.4,4.9-2.8,7.3   c0.8,3.1,3.4,11.6,4.8,14c0,0-2.5,0-5.1-5.6c-2.5-5.5-4.4,2.6-2.4,6.4C957.1,340.8,967,355.9,972.5,346.4z"></path>
		<path fill="#0e538c" d="M815.4,767.2c2.7,1.1,7.2,2.1,12.8,0.8l-0.7-4.6c0,0,3.2,1.9,4,6.1c0.8,4.1,1,3,6.2,6.2   c5.3,3.2,4.9,10.4,4.9,10.4l-39.2-1c0,0-1.1-7.9,6-16.3C810.9,767,813.3,766.3,815.4,767.2z"></path>
		<path fill="#0b4870" d="M899.4,353.1c-0.7-5.8,11.9-9.7-12.2-26.7c-12.3-8.6-33.7-4.8-40.3,8.2s-3.1,14.3-8.2,15.2   c-5.1,1,0.3,41.2,31.1,40.7C900.7,390,899.4,353.1,899.4,353.1z"></path>
		<path fill="#333" d="M813.6,406.6"></path>
		<path fill="#ffbe55" d="M805.7,515h93.8c3.8,0,6.9,2.8,7.3,6.5c1.6,14.1,3.3,46.1-13.2,48.4c-21.2,3-28-19.9-28-41.2L804,529   C804,529,801.9,518.8,805.7,515z"></path>
		<path fill="#2a94f4" d="M769.9,561.3"></path>
		<path fill="#ffe3ca" d="M780,555.7c0,0-1.8,21.3,5.1,27.1c6.9,5.9-12.2,8.5-16.9-2.3s1.7-24.8,1.7-24.8H780z"></path>
		<path fill="#ffe3ca" d="M778.2,558.5c0,0,6.4,1.1,8.8,8c1.4,3.9,2.2,8.1,2.6,11c0.3,1.9-1.9,3.2-3.5,2c-1.6-1.2-3.1-3-2.9-6.1   c0.5-6.5-7.3-4.6-7.3-4.6S773.3,561.1,778.2,558.5z"></path>
		<path fill="#f7f7f7" d="M882.9 529.7H878v-14.5c0-.8.7-1.5 1.5-1.5h2c.8 0 1.5.7 1.5 1.5V529.7zM890.2 529.7h-4.9v-9.6c0-.8.7-1.5 1.5-1.5h2c.8 0 1.5.7 1.5 1.5V529.7zM899.5 529.7h-6.8v-20.9c0-1.1.9-2 2-2h2.8c1.1 0 2 .9 2 2V529.7z"></path>
		<path d="M 867.200012 529.700012 H 905.000011 V 532.900012 H 867.200012 V 529.700012 Z" fill="#161616" opacity=".32"></path>
		<g>
			<path fill="#53bd82" d="M1412.8,222.4c-3.9,5-7.1,10.4-9.7,16.2c-1.6,3.5-5,5.9-8.9,6.1l-16.3,0.8l-3.6,24.1l15.3,5.5   c3.6,1.3,6.2,4.6,6.7,8.4c0.8,6.3,2.3,12.4,4.6,18.3c1.4,3.6,0.6,7.7-2,10.6l-10.9,12l14.5,19.6l14.8-6.9c3.5-1.6,7.6-1.2,10.7,1.2   c5,3.9,10.4,7.1,16.2,9.7c3.5,1.6,5.9,5,6.1,8.9l0.8,16.3l24.1,3.6l5.5-15.3c1.3-3.6,4.6-6.2,8.4-6.7c6.3-0.8,12.4-2.3,18.3-4.6   c3.6-1.4,7.7-0.6,10.6,2l12,11l19.6-14.5l-6.9-14.8c-1.6-3.5-1.2-7.6,1.2-10.7c3.9-5,7.1-10.4,9.7-16.2c1.6-3.5,5-5.9,8.9-6.1   l16.3-0.8l3.6-24.1l-15.3-5.5c-3.6-1.3-6.2-4.6-6.7-8.4c-0.8-6.3-2.3-12.4-4.6-18.3c-1.4-3.6-0.6-7.7,2-10.6l11-12l-14.5-19.6   l-14.8,6.9c-3.5,1.6-7.6,1.2-10.7-1.2c-5-3.9-10.4-7.1-16.2-9.7c-3.5-1.6-5.9-5-6.1-8.9l-0.8-16.3l-24.1-3.6l-5.5,15.3   c-1.3,3.6-4.6,6.2-8.4,6.7c-6.3,0.8-12.4,2.3-18.3,4.6c-3.6,1.4-7.7,0.6-10.6-2l-12-11l-19.6,14.5l6.9,14.8   C1415.6,215.2,1415.2,219.3,1412.8,222.4z M1528.1,235.9c20.3,27.5,14.5,66.4-13,86.7c-27.5,20.3-66.4,14.5-86.7-13   c-20.3-27.5-14.5-66.4,13-86.7C1469,202.6,1507.8,208.4,1528.1,235.9z"></path>
			<path fill="#53bd82" d="M1502.8,306c-18.4,13.6-44.2,9.7-57.8-8.7c-13.6-18.4-9.7-44.2,8.7-57.8c18.4-13.6,44.2-9.7,57.8,8.7   C1525.1,266.5,1521.2,292.4,1502.8,306z"></path>
		</g>
	</g>
</svg>