<svg xmlns="http://www.w3.org/2000/svg" width="27.25" height="23" viewBox="0 0 27.25 23">
  <g id="icon" transform="translate(-759.5 -334.25)">
    <path id="Path_2036" data-name="Path 2036" d="M18.734,1.375h-.859V-18.219a1.031,1.031,0,0,0-1.031-1.031H2.406a1.031,1.031,0,0,0-1.031,1.031V1.375H.516A.516.516,0,0,0,0,1.891V2.75H19.25V1.891A.516.516,0,0,0,18.734,1.375ZM5.5-15.984a.516.516,0,0,1,.516-.516H7.734a.516.516,0,0,1,.516.516v1.719a.516.516,0,0,1-.516.516H6.016a.516.516,0,0,1-.516-.516Zm0,4.125a.516.516,0,0,1,.516-.516H7.734a.516.516,0,0,1,.516.516v1.719a.516.516,0,0,1-.516.516H6.016a.516.516,0,0,1-.516-.516ZM7.734-5.5H6.016A.516.516,0,0,1,5.5-6.016V-7.734a.516.516,0,0,1,.516-.516H7.734a.516.516,0,0,1,.516.516v1.719A.516.516,0,0,1,7.734-5.5ZM11,1.375H8.25V-2.234a.516.516,0,0,1,.516-.516h1.719A.516.516,0,0,1,11-2.234Zm2.75-7.391a.516.516,0,0,1-.516.516H11.516A.516.516,0,0,1,11-6.016V-7.734a.516.516,0,0,1,.516-.516h1.719a.516.516,0,0,1,.516.516Zm0-4.125a.516.516,0,0,1-.516.516H11.516A.516.516,0,0,1,11-10.141v-1.719a.516.516,0,0,1,.516-.516h1.719a.516.516,0,0,1,.516.516Zm0-4.125a.516.516,0,0,1-.516.516H11.516A.516.516,0,0,1,11-14.266v-1.719a.516.516,0,0,1,.516-.516h1.719a.516.516,0,0,1,.516.516Z" transform="translate(760 354)" fill="#666" stroke="rgba(0,0,0,0)" stroke-width="1"/>
    <rect id="Rectangle_6882" data-name="Rectangle 6882" width="10" height="12" transform="translate(772 337)" fill="#666"/>
    <path id="Path_2035" data-name="Path 2035" d="M13.327-3.618,12.162-4.29a5.267,5.267,0,0,0,0-1.92l1.165-.673a.33.33,0,0,0,.15-.383,6.81,6.81,0,0,0-1.5-2.587.329.329,0,0,0-.4-.063l-1.165.673A5.16,5.16,0,0,0,8.75-10.2v-1.343a.328.328,0,0,0-.257-.32,6.874,6.874,0,0,0-2.986,0,.328.328,0,0,0-.257.32V-10.2a5.323,5.323,0,0,0-1.662.96L2.425-9.912a.325.325,0,0,0-.4.063,6.769,6.769,0,0,0-1.5,2.587.327.327,0,0,0,.15.383l1.165.673a5.267,5.267,0,0,0,0,1.92L.675-3.615a.33.33,0,0,0-.15.383,6.81,6.81,0,0,0,1.5,2.587.329.329,0,0,0,.4.063L3.59-1.255A5.16,5.16,0,0,0,5.253-.3V1.05a.328.328,0,0,0,.257.32,6.874,6.874,0,0,0,2.986,0,.328.328,0,0,0,.257-.32V-.3a5.323,5.323,0,0,0,1.663-.96l1.165.673a.325.325,0,0,0,.4-.063,6.769,6.769,0,0,0,1.5-2.587A.338.338,0,0,0,13.327-3.618ZM7-3.062A2.19,2.19,0,0,1,4.813-5.25,2.19,2.19,0,0,1,7-7.437,2.19,2.19,0,0,1,9.188-5.25,2.19,2.19,0,0,1,7-3.062Z" transform="translate(773 349)" fill="#666" stroke="#fff" stroke-width="0.5"/>
  </g>
</svg>
