<svg xmlns="http://www.w3.org/2000/svg" width="189.479" height="114.165" viewBox="0 0 189.479 114.165">
  <g id="Group_322" data-name="Group 322" transform="translate(-407 -264.834)">
    <g id="Group_281" data-name="Group 281" transform="translate(405.616 264.834)">
      <path id="Path_915" data-name="Path 915" d="M146.463,24h-70.8c-4.576,0-8.285,3.166-8.285,7.072s3.709,7.072,8.285,7.072h70.8c4.576,0,8.285-3.166,8.285-7.072S151.038,24,146.463,24Z" transform="translate(-20.649 -7.509)" fill="#f2f2f2"/>
      <path id="Path_916" data-name="Path 916" d="M108.649,145.086H54.6c-4.575,0-8.285,3.166-8.285,7.071s3.709,7.072,8.285,7.072h54.051c4.575,0,8.285-3.166,8.285-7.072S113.224,145.086,108.649,145.086Z" transform="translate(-14.057 -45.394)" fill="#f2f2f2"/>
      <path id="Path_917" data-name="Path 917" d="M168.477,67.579H20.861c-4.575,0-8.285,3.166-8.285,7.072s3.709,7.072,8.285,7.072H168.477c4.576,0,8.285-3.166,8.285-7.072S173.053,67.579,168.477,67.579Z" transform="translate(-3.502 -21.144)" fill="#f2f2f2"/>
      <path id="Path_918" data-name="Path 918" d="M161.9,111.158H14.285C9.709,111.158,6,114.324,6,118.23s3.709,7.071,8.285,7.071H161.9c4.576,0,8.285-3.166,8.285-7.071S166.477,111.158,161.9,111.158Z" transform="translate(-1.444 -34.779)" fill="#f2f2f2"/>
      <path id="Path_919" data-name="Path 919" d="M91.31,103.974H55.164a10.131,10.131,0,0,0,6.543-2.32,7.107,7.107,0,0,0,0-11.172,10.133,10.133,0,0,0-6.542-2.319H91.31a10.7,10.7,0,0,1,2.773.361H91.471a9.817,9.817,0,0,0-6.35,2.245,6.9,6.9,0,0,0,0,10.84,9.818,9.818,0,0,0,6.35,2.245h1.446a10.927,10.927,0,0,1-1.608.12Z" transform="translate(-16.519 -27.584)" fill="#f2f2f2"/>
      <path id="Path_920" data-name="Path 920" d="M227.485,160.054a3.534,3.534,0,1,1,2.177-1.609,3.539,3.539,0,0,1-2.177,1.609Z" transform="translate(-69.368 -47.899)" fill="#e4e4e4"/>
      <circle id="Ellipse_163" data-name="Ellipse 163" cx="5.505" cy="5.505" r="5.505" transform="translate(146.103 17.865)" fill="none" stroke="#ddd" stroke-width="3"/>
      <circle id="Ellipse_164" data-name="Ellipse 164" cx="4.188" cy="4.188" r="4.188" transform="translate(112.861 0)" fill="#ddd"/>
      <circle id="Ellipse_165" data-name="Ellipse 165" cx="2.094" cy="2.094" r="2.094" transform="translate(6.321 34.038)" fill="#ddd"/>
      <path id="Path_921" data-name="Path 921" d="M31.9,23h-.62a8.276,8.276,0,1,0,0,16.552h.62A8.276,8.276,0,1,0,31.9,23Z" transform="translate(-6.763 -7.196)" fill="#f2f2f2"/>
      <path id="Path_922" data-name="Path 922" d="M4.279,140.143a.353.353,0,0,0,.433.249,3.533,3.533,0,1,1-2.139,1.635.353.353,0,1,0-.611-.355,4.24,4.24,0,1,0,2.567-1.962A.353.353,0,0,0,4.279,140.143Z" transform="translate(0 -43.667)" fill="#ddd"/>
      <path id="Path_923" data-name="Path 923" d="M265.607,111.618a.943.943,0,0,1-.414,1.365,7.805,7.805,0,1,1,4.29-4.342.944.944,0,0,1-1.36.431h0a1.212,1.212,0,0,1-.485-1.463,5.717,5.717,0,1,0-3.5,3.542,1.212,1.212,0,0,1,1.469.467Z" transform="translate(-79.17 -30.649)" fill="#ddd"/>
      <path id="Path_924" data-name="Path 924" d="M159.918,60.491H119.829q-.414,0-.829-.016a17.282,17.282,0,0,0,8.766-2.586c2.292-1.529,3.567-3.547,3.567-5.643s-1.275-4.115-3.567-5.643A17.282,17.282,0,0,0,119,44.016c.29-.011.57-.016.829-.016h40.4a17.726,17.726,0,0,0-9.086,2.494c-2.4,1.538-3.748,3.6-3.767,5.748.019,2.15,1.369,4.211,3.767,5.749a17.727,17.727,0,0,0,9.086,2.5h-.308Z" transform="translate(-36.8 -13.767)" fill="#f2f2f2"/>
    </g>
    <g id="Group_317" data-name="Group 317" transform="translate(-7.901 -246)">
      <circle id="Ellipse_177" data-name="Ellipse 177" cx="19.5" cy="19.5" r="19.5" transform="translate(532.901 524)" fill="#fff"/>
      <g id="worldwide" transform="translate(533.254 524.25)">
        <g id="Group_316" data-name="Group 316" transform="translate(0 0)">
          <path id="Path_1084" data-name="Path 1084" d="M19.386.05A19.375,19.375,0,0,0,1.572,11.8l-.242.08.094.281A19.374,19.374,0,1,0,19.386.05Zm15.2,29.144-.995-.994V25.883a.645.645,0,0,0-.065-.289l-2.519-5.03V18.133a.646.646,0,0,0-.287-.537L28.78,16.3a.646.646,0,0,0-.517-.089l-2.373.593L21.905,15.1l-.548-3.841,1.52-1.519h3.262l1.1,1.65a.646.646,0,0,0,.431.278l3.875.646a.64.64,0,0,0,.31-.025l3.569-1.19A18.019,18.019,0,0,1,34.584,29.194ZM31.92,6.414l-1.05.7-2.928-.586-1.9-.632a.634.634,0,0,0-.36-.014l-2.4.6-1.053-.351.78-1.56h2.184a.646.646,0,0,0,.289-.068l2.235-1.117A18.15,18.15,0,0,1,31.92,6.414ZM12.306,2.784l1.55,1.033a.645.645,0,0,0,.253.1l3.13.522-.305.914L15.3,5.9a.646.646,0,0,0-.349.28L13.1,9.267l-2.979,1.788-4.392.627a.646.646,0,0,0-.555.639v1.938a.646.646,0,0,0,.189.457l1.1,1.1v1.11L3.777,15.135,2.8,12.212A18.187,18.187,0,0,1,12.306,2.784ZM10.468,23.959l-2.919-.584L6.464,21.21V19.692L8.87,17.286l.891,1.782a.646.646,0,0,0,.578.357h4.155l1.75,2.916a.646.646,0,0,0,.553.313h1.8l-.452,2.265L15.7,27.364a.646.646,0,0,0-.19.457v1.615L13.18,31.179a.646.646,0,0,0-.258.517v2.333l-.8-.266-1.134-2.837V24.592A.646.646,0,0,0,10.468,23.959ZM8.526,33.887A18.079,18.079,0,0,1,2.085,14.145l.537,1.609a.645.645,0,0,0,.254.333L6.1,18.233l-.734.735a.646.646,0,0,0-.189.457v1.938a.646.646,0,0,0,.068.289l1.292,2.583a.646.646,0,0,0,.452.344l2.713.542V31.05a.646.646,0,0,0,.046.24l1.292,3.229a.646.646,0,0,0,.4.373l1.938.646a.634.634,0,0,0,.2.034.646.646,0,0,0,.646-.646V32.019l2.325-1.744a.646.646,0,0,0,.258-.517v-1.67l2.394-2.394a.646.646,0,0,0,.176-.33l.646-3.229a.646.646,0,0,0-.633-.772H17.162l-1.75-2.916a.646.646,0,0,0-.553-.313H10.738l-1.11-2.226a.646.646,0,0,0-.475-.349.633.633,0,0,0-.56.181l-.838.835V15.55a.646.646,0,0,0-.189-.457l-1.1-1.1v-1.11l3.967-.566a.649.649,0,0,0,.241-.086L13.9,10.291a.645.645,0,0,0,.221-.221l1.815-3.024,1.711-.571a.639.639,0,0,0,.408-.408L18.7,4.129a.646.646,0,0,0-.506-.84l-3.738-.623L13.8,2.228A18.034,18.034,0,0,1,26.22,2.69l-1.18.589H22.609a.646.646,0,0,0-.581.357L20.737,6.22a.646.646,0,0,0,.374.9l1.938.646a.634.634,0,0,0,.36.014l2.4-.6,1.759.586a.475.475,0,0,0,.078.021l3.229.646a.641.641,0,0,0,.485-.1l1.47-.98a18.219,18.219,0,0,1,1.943,2.6L31.6,11.012l-3.44-.574L27.019,8.733a.646.646,0,0,0-.534-.287H22.609a.646.646,0,0,0-.457.189l-1.938,1.938a.646.646,0,0,0-.183.548l.646,4.521a.646.646,0,0,0,.387.5l4.521,1.938a.638.638,0,0,0,.411.033l2.306-.577,1.41.942v2.238a.645.645,0,0,0,.065.289l2.519,5.03v2.431a.646.646,0,0,0,.189.457l1.351,1.352A18.079,18.079,0,0,1,8.526,33.887Z" transform="translate(0 -0.05)" fill="#1baf5d"/>
        </g>
      </g>
    </g>
    <g id="Group_319" data-name="Group 319">
      <g id="Group_314" data-name="Group 314" transform="translate(-26.399 -169.504)">
        <g id="Group_296" data-name="Group 296" transform="translate(501.651 461.942)">
          <path id="Path_1027" data-name="Path 1027" d="M1149.246,1673.061l6.653-3.326h7.631l7.24,4.7,2.152,4.109v7.436l1.761,3.718v2.935l-3.13,1.957-2.153,3.131-1.565,3.13-.783,4.3,4.5,4.109,3.13,1.957,5.479,2.152,2.739,2.935.979,1.957-.979,27.395h-49.7v-31.5l3.718-.783,8.414-4.109,2.74-2.152,2.153-1.957-.979-4.3-3.914-6.261-2.348-1.957-.783-1.565.783-2.348,1.913-1.283-1-4.374v-5.692l1.9-2.935Z" transform="translate(-1133.201 -1668.814)" fill="#fff"/>
          <g id="Group_295" data-name="Group 295" transform="translate(0.921 0)">
            <g id="Group_287" data-name="Group 287" transform="translate(0)">
              <path id="Path_1022" data-name="Path 1022" d="M265.887,75.451l-7.107-2.741-3.623-3.623a1.3,1.3,0,0,0-.839-.378V65.825a13.459,13.459,0,0,0,3.414-6.724,3.733,3.733,0,0,0,.915-.073,3.862,3.862,0,0,0,3-3.831v-.952A3.911,3.911,0,0,0,260.5,51.47c1.152-6.268.2-11.375-2.757-14.794-2.864-3.307-7.477-4.887-13.341-4.57a17.48,17.48,0,0,0-10.024,3.7,6.876,6.876,0,0,0-2.686.912c-1.449.87-3.177,2.7-3.177,6.461a32.585,32.585,0,0,0,.9,7.581,3.868,3.868,0,0,0-2.126,3.5V55.2a3.862,3.862,0,0,0,3,3.831,3.726,3.726,0,0,0,.915.073,13.46,13.46,0,0,0,3.414,6.724v2.883a1.3,1.3,0,0,0-.839.378l-3.623,3.623-7.107,2.741a8.641,8.641,0,0,0-1.745.914,1.3,1.3,0,1,0,1.467,2.159,6.039,6.039,0,0,1,1.218-.637l6.6-2.544,5.043,7.564a3.733,3.733,0,0,0,2.748,1.65c.125.012.25.018.373.018a3.725,3.725,0,0,0,1.837-.486L239.5,108.635A1.3,1.3,0,0,0,240.746,110h.058a1.305,1.305,0,0,0,1.3-1.248l1-22.785h2.709l1,22.785a1.3,1.3,0,0,0,1.3,1.248h.058a1.305,1.305,0,0,0,1.246-1.361l-1.082-24.547a3.725,3.725,0,0,0,1.837.486c.124,0,.249-.006.373-.018a3.734,3.734,0,0,0,2.748-1.65l5.043-7.564,6.6,2.544a6.007,6.007,0,0,1,2.347,1.636l-4.512,4.512a8.574,8.574,0,0,0-2.528,6.1v18.556a1.305,1.305,0,1,0,2.61,0V90.137a5.982,5.982,0,0,1,1.763-4.257l3.96-3.96a6.015,6.015,0,0,1,.208,1.824l-1.011,24.9A1.305,1.305,0,0,0,269.037,110h.054a1.3,1.3,0,0,0,1.3-1.252l1.011-24.9A8.628,8.628,0,0,0,265.887,75.451ZM233.756,58.562a2.541,2.541,0,0,0-2.643-2.071,1.119,1.119,0,0,1-.3-.021,1.266,1.266,0,0,1-.91-1.273V54.26a1.237,1.237,0,0,1,.921-1.241,1.134,1.134,0,0,1,1.117.428,1.82,1.82,0,0,0,2.5.393,9.475,9.475,0,0,0,2.14-2.092,1.305,1.305,0,0,0-2.095-1.557,6.926,6.926,0,0,1-1.016,1.1,3.733,3.733,0,0,0-1.415-.756,30.015,30.015,0,0,1-.932-7.355c0-2,.616-3.4,1.831-4.174a4.237,4.237,0,0,1,1.951-.626,1.317,1.317,0,0,0,.9-.361,14.7,14.7,0,0,1,8.734-3.3c5.029-.271,8.912,1,11.227,3.672,2.334,2.7,3.111,6.833,2.268,12.013a5.657,5.657,0,0,0-1.113.078l-1.226-2.945a1.306,1.306,0,0,0-1.535-.761c-.121.032-12.173,3.087-17.226-3.2A1.3,1.3,0,1,0,234.9,45.2c5.16,6.425,15.4,5.027,18.808,4.345l.948,2.277a2.145,2.145,0,0,0,2.479,1.271,2.816,2.816,0,0,1,.977-.072,1.231,1.231,0,0,1,.926,1.225V55.2a1.265,1.265,0,0,1-.91,1.273,1.106,1.106,0,0,1-.3.021,2.542,2.542,0,0,0-2.643,2.071,10.891,10.891,0,0,1-21.422,0Zm5.789,23.069a1.137,1.137,0,0,1-1.75-.173l-5.08-7.62,2.043-2.043,7.8,6.824Zm3.682,1.724.079-1.794,1.16-1.16,1.16,1.16.079,1.794Zm1.24-6.534-7.242-6.336v-2.5a13.507,13.507,0,0,0,14.483,0v2.5Zm6.671,4.637a1.137,1.137,0,0,1-1.75.173l-3.012-3.012,7.8-6.824,2.043,2.043Z" transform="translate(-220.729 -32.066)" fill="#1baf5d"/>
            </g>
          </g>
        </g>
        <rect id="Rectangle_916" data-name="Rectangle 916" width="51.878" height="2.763" rx="1.381" transform="translate(502.798 538.45)" fill="#1baf5d"/>
        <g id="Group_294" data-name="Group 294" transform="translate(448.241 461.268)">
          <path id="Path_1026" data-name="Path 1026" d="M11.112,49.389V15.963L15,7.95,20.728,3.6l6.41-2.289L35.38,2.455,41.1,4.516h4.35L50.491,7.95l1.374,4.579V50.3H38.586v2.518l1.374,1.6,14.423,3.663,2.747,2.061,4.808,21.063-1.374,4.121-3.434.916H3.557L1.039,83.043V79.609l4.808-19.46,2.518-2.061L15.92,55.8l8.7-1.374V51.449H13.4Z" transform="translate(-0.156 -0.196)" fill="#fff"/>
          <g id="woman" transform="translate(0 0)">
            <g id="Group_293" data-name="Group 293" transform="translate(0 0)">
              <path id="Path_1025" data-name="Path 1025" d="M130.523,62.5a8.623,8.623,0,0,0-6.57-6.748h0c-.058-.017.5.122-13.177-3.267v-.464h10.065a3.767,3.767,0,0,0,3.763-3.763V29.06a4.7,4.7,0,0,0,0-2.171V19.883a1.278,1.278,0,1,0-2.556,0v3.668a6.636,6.636,0,0,0-2.276-.835,3.333,3.333,0,0,0-2.809-2.569,4.166,4.166,0,0,1-3.294-2.533,2.191,2.191,0,0,0-3.735-.342,23.385,23.385,0,0,1-18.85,9.7c-.8,0-1.346-.038-1.536-.047a3.38,3.38,0,0,0-3.576,3.374v2.937a17.335,17.335,0,0,0,5.342,12.484A17.115,17.115,0,0,0,95.006,48.4v1.062H84.986a1.208,1.208,0,0,1-1.207-1.206V19.538A16.973,16.973,0,0,1,100.54,2.557h.089a21.779,21.779,0,0,1,9.663,2.377c1.638.9,2.65.186,4.268.186,3.949,0,7.113,4.06,7.492,7.712,0,.053.008.268.009,1.088A1.3,1.3,0,0,0,123.34,15.2a1.278,1.278,0,0,0,1.277-1.279c0-.227,0-1.117-.02-1.323-.514-5.084-4.85-10.031-10.037-10.031-2.026,0-2.342.514-3.033.133A24.528,24.528,0,0,0,100.643,0,19.523,19.523,0,0,0,81.223,19.538V48.256a3.767,3.767,0,0,0,3.763,3.763H95.006v.464L81.88,55.735l-.052.014-.959.283c-.029.009-.057.018-.085.028A8.481,8.481,0,0,0,75.258,62.5c-3.89,19.54-3.726,18.705-3.735,18.772-.469,3.314,1.19,5.965,5.181,5.965h13.82a1.278,1.278,0,1,0,0-2.556H85.715V72.625a1.278,1.278,0,1,0-2.556,0V84.679H76.7c-1.7,0-2.683-.547-2.7-2.33-.007-.87-.041-.022,3.761-19.351a5.989,5.989,0,0,1,3.873-4.527l.886-.261,7.538-1.868c8.385,9.878,7.888,9.355,8.373,9.827a6.193,6.193,0,0,0,9.42-.549l7.893-9.271,7.509,1.861A6.2,6.2,0,0,1,128.017,63c3.769,19.162,3.768,18.478,3.761,19.351-.013,1.747-.958,2.331-2.7,2.331h-6.409V72.625a1.278,1.278,0,1,0-2.556,0V84.679H96.488a1.278,1.278,0,1,0,0,2.556h32.59c3.157,0,5.227-1.737,5.256-4.867C134.344,80.907,134.257,81.605,130.523,62.5ZM119.855,25.353a3.207,3.207,0,0,1,2.192,1.889v1.464a3.206,3.206,0,0,1-2.192,1.889Zm0,8.1v-.236a6.621,6.621,0,0,0,2.192-.82V48.256a1.208,1.208,0,0,1-1.206,1.206H110.776v-.988A16.919,16.919,0,0,0,119.855,33.454ZM93.078,43.865a14.768,14.768,0,0,1-4.55-10.635c.076-2.783-.184-3.12.26-3.538a.806.806,0,0,1,.607-.221A25.672,25.672,0,0,0,111.644,19.25a6.557,6.557,0,0,0,4.986,3.431.768.768,0,0,1,.669.757V33.454C117.3,46.17,102.075,52.452,93.078,43.865Zm12.83,20.1a3.7,3.7,0,0,1-6.05-.011L97.192,60.8h11.4Zm4.865-5.714H95.027l-2.2-2.593,3.761-.932a1.292,1.292,0,0,0,.97-1.253V49.516a16.928,16.928,0,0,0,10.658.036c.024,4.085-.055,3.991.071,4.352a1.278,1.278,0,0,0,.9.819l3.786.938Z" transform="translate(-71.445 -0.001)" fill="#1baf5d"/>
            </g>
          </g>
        </g>
        <rect id="Rectangle_917" data-name="Rectangle 917" width="80.914" height="2.763" rx="1.381" transform="translate(439.399 545.742)" fill="#1baf5d"/>
      </g>
      <path id="Path_1085" data-name="Path 1085" d="M5209.5,1509.938h20.188l-8.937-24.437-4-4.5-5,6Z" transform="translate(-4717 -1141)" fill="#fff"/>
    </g>
  </g>
</svg>
