<svg xmlns="http://www.w3.org/2000/svg" width="20" height="20" viewBox="0 0 20 20">
  <path id="Public" d="M13.75-7.5A24.425,24.425,0,0,1,13.621-5H6.379A23.362,23.362,0,0,1,6.25-7.5,24.425,24.425,0,0,1,6.379-10h7.242A23.361,23.361,0,0,1,13.75-7.5ZM14.875-10h4.809A9.965,9.965,0,0,1,20-7.5,9.965,9.965,0,0,1,19.684-5H14.875A24.68,24.68,0,0,0,15-7.5,24.68,24.68,0,0,0,14.875-10Zm4.4-1.25H14.715a13.74,13.74,0,0,0-2.16-5.922A10.02,10.02,0,0,1,19.27-11.25Zm-5.824,0h-6.9a15.744,15.744,0,0,1,1.055-3.7,6.381,6.381,0,0,1,1.309-2.012A1.614,1.614,0,0,1,10-17.5a1.614,1.614,0,0,1,1.086.539,6.381,6.381,0,0,1,1.309,2.012A15.452,15.452,0,0,1,13.449-11.25Zm-8.164,0H.727a10.026,10.026,0,0,1,6.719-5.922,13.74,13.74,0,0,0-2.16,5.922ZM.316-10H5.125A24.68,24.68,0,0,0,5-7.5,24.68,24.68,0,0,0,5.125-5H.316A9.965,9.965,0,0,1,0-7.5,9.965,9.965,0,0,1,.316-10ZM7.605-.055a15.471,15.471,0,0,1-1.055-3.7h6.9a15.654,15.654,0,0,1-1.055,3.7,6.381,6.381,0,0,1-1.309,2.012A1.605,1.605,0,0,1,10,2.5a1.614,1.614,0,0,1-1.086-.539A6.381,6.381,0,0,1,7.605-.051Zm-2.32-3.7a13.74,13.74,0,0,0,2.16,5.922A10.026,10.026,0,0,1,.727-3.75Zm13.988,0a10.028,10.028,0,0,1-6.715,5.922,13.79,13.79,0,0,0,2.16-5.922Z" transform="translate(0 17.5)" fill="#999"/>
</svg>
