<svg id="Reopen" xmlns="http://www.w3.org/2000/svg" width="25.064" height="25.064" viewBox="0 0 25.064 25.064">
  <path id="Path_1279" data-name="Path 1279" d="M12.6,25.064H0V0H18.336V10.231a8.276,8.276,0,0,0-2.216.054V2.216H2.216V22.849H10.5A8.267,8.267,0,0,0,12.6,25.064ZM4.675,5.177V7.392H13.96V5.177Zm0,4.809V12.2h7.354a8.231,8.231,0,0,1,1.932-1.255V9.985Zm0,7.025H9.321a8.171,8.171,0,0,1,.716-2.216H4.675ZM22.584,14.29A6.606,6.606,0,1,0,17.09,25.034l.57.03V22.37l-.5-.037a3.9,3.9,0,1,1,2.777-6.9l-2.144.932,5.2,2.067,2.07-5.215Z" fill="#fff"/>
</svg>
