<svg xmlns="http://www.w3.org/2000/svg" width="15" height="15" viewBox="0 0 15 15">
  <path id="SAR_icon" data-name="SAR icon" d="M14.748,13.518a7.5,7.5,0,1,1-4.324-9.686A7.506,7.506,0,0,1,14.748,13.518ZM1.853,8.58A6.309,6.309,0,1,0,10,4.945,6.317,6.317,0,0,0,1.853,8.58ZM12.1,8.115a.424.424,0,0,1-.593-.094,4.669,4.669,0,0,0-6.672-.908.424.424,0,0,1-.527-.665A5.517,5.517,0,0,1,12.2,7.522.425.425,0,0,1,12.1,8.115ZM5.344,9.187a.966.966,0,0,1,.4.35.9.9,0,0,1,.141.489H5.46a.582.582,0,0,0-.183-.456A.747.747,0,0,0,4.758,9.4a.764.764,0,0,0-.484.137.457.457,0,0,0-.174.381.41.41,0,0,0,.165.33,1.629,1.629,0,0,0,.562.247,2.646,2.646,0,0,1,.622.246.943.943,0,0,1,.332.314.806.806,0,0,1,.108.423.746.746,0,0,1-.3.621,1.285,1.285,0,0,1-.807.233,1.5,1.5,0,0,1-.613-.126,1.032,1.032,0,0,1-.438-.345.844.844,0,0,1-.154-.5H4a.55.55,0,0,0,.214.457.9.9,0,0,0,.57.168.826.826,0,0,0,.51-.136.442.442,0,0,0,.177-.37.434.434,0,0,0-.164-.363,1.9,1.9,0,0,0-.594-.253,1.976,1.976,0,0,1-.787-.382.729.729,0,0,1-.246-.56.773.773,0,0,1,.3-.623,1.2,1.2,0,0,1,.782-.246A1.308,1.308,0,0,1,5.344,9.187ZM3.823,8.157a.424.424,0,1,1-.762-.371l.012-.025a.424.424,0,1,1,.761.375Zm3.03,3.3-.3.834H6.12L7.336,9.1H7.7l1.219,3.189H8.492l-.3-.834ZM7.52,9.623,6.98,11.115H8.063Zm-4.144,3.8a.424.424,0,0,1,.592.094,4.67,4.67,0,0,0,6.672.908.424.424,0,1,1,.527.665A5.518,5.518,0,0,1,3.282,14.02a.423.423,0,0,1-.037-.435A.413.413,0,0,1,3.376,13.428Zm8.287-1.135h-.451L10.521,11H9.772v1.29H9.35V9.1H10.4a1.249,1.249,0,0,1,.828.245.882.882,0,0,1,.29.714.858.858,0,0,1-.161.519.958.958,0,0,1-.447.331l.748,1.353Zm-.747-1.8a.549.549,0,0,0,.185-.434.58.58,0,0,0-.176-.454.748.748,0,0,0-.509-.16H9.772v1.211h.646A.729.729,0,0,0,10.916,10.5Zm.731,2.911.01-.022a.424.424,0,1,1,.763.371l-.012.026a.424.424,0,0,1-.762-.373Z" transform="translate(-0.244 -3.336)" fill="#ccc" fill-rule="evenodd" opacity="0.996"/>
</svg>
