<svg xmlns="http://www.w3.org/2000/svg" width="82.781" height="82.407" viewBox="0 0 82.781 82.407">
  <g id="scan" transform="translate(-2 -2.105)">
    <path id="Path_740" data-name="Path 740" d="M5.724,53.314H78.153c.02-.108,1.7-8.245,1.724-8.144H4Z" transform="translate(1.449 31.198)" fill="#888"/>
    <path id="Subtraction_8" data-name="Subtraction 8" d="M-14185.219-937.56H-14268v-22.418h76.133l-56.508-45.212,2.148-2.7,61.008,47.917v22.417Zm-73.773-14.325a3,3,0,0,0-3.008,2.99,3.013,3.013,0,0,0,3.008,3.008h9.992a3.013,3.013,0,0,0,3.008-3.008,3,3,0,0,0-3.008-2.99Z" transform="translate(14270 1010)" fill="#888"/>
  </g>
</svg>
