<svg xmlns="http://www.w3.org/2000/svg" width="123.705" height="98" viewBox="0 0 123.705 98"><defs><style>.a{fill:#f6f6f6;}.b{fill:#fff;}.c,.e{fill:#ccc;}.d,.e{stroke:none;}</style></defs><g transform="translate(-762 -290)"><g transform="translate(-8 -72)"><g transform="translate(770 362)"><g transform="translate(3.324 16.625)"><rect class="a" width="62.34" height="11.823" rx="5.912" transform="translate(30.095 0)"/><rect class="a" width="50.392" height="11.823" rx="5.912" transform="translate(19.766 69.552)"/><rect class="a" width="12.266" height="11.823" rx="5.912" transform="translate(7.51 1.373)"/><rect class="a" width="117.157" height="11.823" rx="5.912" transform="translate(3.224 25.032)"/><rect class="a" width="117.157" height="11.823" rx="5.912" transform="translate(0 50.064)"/><path class="a" d="M20.684,13.209H.418c-.134,0-.275,0-.418-.013A6.613,6.613,0,0,0,6.187,6.6,6.613,6.613,0,0,0,0,.013C.163,0,.3,0,.418,0H20.529l.155,0a6.641,6.641,0,0,0-6.449,6.6,6.642,6.642,0,0,0,6.449,6.6Z" transform="translate(61.003 11.823)"/><path class="a" d="M26.494,13.217H.751a6.629,6.629,0,0,0,6.556-6.61A6.616,6.616,0,0,0,.7,0h25.8a6.589,6.589,0,0,1,1.978.3H26.613a6.408,6.408,0,1,0,0,12.815h1.03A6.646,6.646,0,0,1,26.494,13.217Z" transform="translate(23.623 36.855)"/></g><g class="b" transform="translate(106.154 11.083)"><path class="d" d="M 7.388237476348877 12.27647590637207 C 4.692857265472412 12.27647590637207 2.49999737739563 10.08361625671387 2.49999737739563 7.388236045837402 C 2.49999737739563 4.692855834960938 4.692857265472412 2.499995946884155 7.388237476348877 2.499995946884155 C 10.08361721038818 2.499995946884155 12.2764778137207 4.692855834960938 12.2764778137207 7.388236045837402 C 12.2764778137207 10.08361625671387 10.08361721038818 12.27647590637207 7.388237476348877 12.27647590637207 Z"/><path class="e" d="M 7.388237476348877 4.999996185302734 C 6.071357727050781 4.999996185302734 4.999997138977051 6.071355819702148 4.999997138977051 7.388236045837402 C 4.999997138977051 8.705116271972656 6.071357727050781 9.77647590637207 7.388237476348877 9.77647590637207 C 8.705118179321289 9.77647590637207 9.776477813720703 8.705116271972656 9.776477813720703 7.388236045837402 C 9.776477813720703 6.071355819702148 8.705118179321289 4.999996185302734 7.388237476348877 4.999996185302734 M 7.388237476348877 -3.814697265625e-06 C 11.46864700317383 -3.814697265625e-06 14.7764778137207 3.307826042175293 14.7764778137207 7.388236045837402 C 14.7764778137207 11.46864604949951 11.46864700317383 14.77647590637207 7.388237476348877 14.77647590637207 C 3.307827949523926 14.77647590637207 -2.86102294921875e-06 11.46864604949951 -2.86102294921875e-06 7.388236045837402 C -2.86102294921875e-06 3.307826042175293 3.307827949523926 -3.814697265625e-06 7.388237476348877 -3.814697265625e-06 Z"/></g><g class="b" transform="translate(13.119 88.777) rotate(166)"><path class="d" d="M 5.41126537322998 8.322524070739746 C 3.805985450744629 8.322524070739746 2.499995470046997 7.016534328460693 2.499995470046997 5.411264419555664 C 2.499995470046997 3.805994510650635 3.805985450744629 2.500004529953003 5.41126537322998 2.500004529953003 C 7.01653528213501 2.500004529953003 8.322525024414063 3.805994510650635 8.322525024414063 5.411264419555664 C 8.322525024414063 6.188894271850586 8.019705772399902 6.919974327087402 7.469845294952393 7.469834327697754 C 6.919975280761719 8.019704818725586 6.188895225524902 8.322524070739746 5.41126537322998 8.322524070739746 Z"/><path class="e" d="M 5.41126537322998 5.000004291534424 C 5.18448543548584 5.000004291534424 4.999995231628418 5.184494495391846 4.999995231628418 5.411264419555664 C 4.999995231628418 5.638034343719482 5.18448543548584 5.822524547576904 5.41126537322998 5.822524547576904 C 5.453395366668701 5.822524547576904 5.581625461578369 5.822524547576904 5.702075481414795 5.702064514160156 C 5.822525501251221 5.581624507904053 5.822525501251221 5.453414440155029 5.822525501251221 5.411264419555664 C 5.822525501251221 5.184494495391846 5.638035297393799 5.000004291534424 5.41126537322998 5.000004291534424 M 5.41126537322998 4.76837158203125e-06 C 8.399825096130371 4.76837158203125e-06 10.82252502441406 2.422704696655273 10.82252502441406 5.411264419555664 C 10.82253551483154 8.399824142456055 8.399825096130371 10.82252407073975 5.41126537322998 10.82252407073975 C 2.42270565032959 10.82252407073975 -4.76837158203125e-06 8.399824142456055 -4.76837158203125e-06 5.411264419555664 C -4.76837158203125e-06 2.422704696655273 2.42270565032959 4.76837158203125e-06 5.41126537322998 4.76837158203125e-06 Z"/></g><path class="c" d="M2.524,0A2.524,2.524,0,1,1,0,2.524,2.524,2.524,0,0,1,2.524,0Z" transform="translate(84.847 4.898) rotate(166)"/><path class="c" d="M2.524,0A2.524,2.524,0,1,1,0,2.524,2.524,2.524,0,0,1,2.524,0Z" transform="translate(118.371 84.56) rotate(166)"/></g></g></g></svg>