<svg xmlns="http://www.w3.org/2000/svg" width="189.478" height="117.166" viewBox="0 0 189.478 117.166">
  <g id="Group_1929" data-name="Group 1929" transform="translate(-705 -550)">
    <g id="seconded2" transform="translate(297.998 285.166)">
      <g id="Group_281" data-name="Group 281" transform="translate(405.616 264.834)">
        <path id="Path_915" data-name="Path 915" d="M146.463,24h-70.8c-4.576,0-8.285,3.166-8.285,7.072s3.709,7.072,8.285,7.072h70.8c4.576,0,8.285-3.166,8.285-7.072S151.038,24,146.463,24Z" transform="translate(-20.649 -7.509)" fill="#f2f2f2"/>
        <path id="Path_916" data-name="Path 916" d="M108.649,145.086H54.6c-4.575,0-8.285,3.166-8.285,7.071s3.709,7.072,8.285,7.072h54.051c4.575,0,8.285-3.166,8.285-7.072S113.224,145.086,108.649,145.086Z" transform="translate(-14.057 -45.394)" fill="#f2f2f2"/>
        <path id="Path_917" data-name="Path 917" d="M168.477,67.579H20.861c-4.575,0-8.285,3.166-8.285,7.072s3.709,7.072,8.285,7.072H168.477c4.576,0,8.285-3.166,8.285-7.072S173.053,67.579,168.477,67.579Z" transform="translate(-3.502 -21.144)" fill="#f2f2f2"/>
        <path id="Path_918" data-name="Path 918" d="M161.9,111.158H14.285C9.709,111.158,6,114.324,6,118.23s3.709,7.071,8.285,7.071H161.9c4.576,0,8.285-3.166,8.285-7.071S166.477,111.158,161.9,111.158Z" transform="translate(-1.444 -34.779)" fill="#f2f2f2"/>
        <path id="Path_919" data-name="Path 919" d="M91.31,103.974H55.164a10.131,10.131,0,0,0,6.543-2.32,7.107,7.107,0,0,0,0-11.172,10.133,10.133,0,0,0-6.542-2.319H91.31a10.7,10.7,0,0,1,2.773.361H91.471a9.817,9.817,0,0,0-6.35,2.245,6.9,6.9,0,0,0,0,10.84,9.818,9.818,0,0,0,6.35,2.245h1.446a10.927,10.927,0,0,1-1.608.12Z" transform="translate(-16.519 -27.584)" fill="#f2f2f2"/>
        <path id="Path_920" data-name="Path 920" d="M227.485,160.054a3.534,3.534,0,1,1,2.177-1.609A3.534,3.534,0,0,1,227.485,160.054Z" transform="translate(-69.368 -47.899)" fill="#e4e4e4"/>
        <circle id="Ellipse_163" data-name="Ellipse 163" cx="5.505" cy="5.505" r="5.505" transform="translate(146.103 17.865)" fill="none" stroke="#ddd" stroke-width="3"/>
        <circle id="Ellipse_164" data-name="Ellipse 164" cx="4.188" cy="4.188" r="4.188" transform="translate(112.861 0)" fill="#ddd"/>
        <circle id="Ellipse_165" data-name="Ellipse 165" cx="2.094" cy="2.094" r="2.094" transform="translate(6.321 34.038)" fill="#ddd"/>
        <path id="Path_921" data-name="Path 921" d="M31.9,23h-.62a8.276,8.276,0,1,0,0,16.552h.62A8.276,8.276,0,0,0,31.9,23Z" transform="translate(-6.763 -7.196)" fill="#f2f2f2"/>
        <path id="Path_922" data-name="Path 922" d="M4.279,140.143a.353.353,0,0,0,.433.249,3.533,3.533,0,1,1-2.139,1.635.353.353,0,0,0-.611-.355,4.24,4.24,0,1,0,2.567-1.962.353.353,0,0,0-.25.433Z" transform="translate(0 -43.667)" fill="#ddd"/>
        <path id="Path_923" data-name="Path 923" d="M265.607,111.618a.943.943,0,0,1-.414,1.365,7.805,7.805,0,1,1,4.29-4.342.944.944,0,0,1-1.36.431h0a1.212,1.212,0,0,1-.485-1.463,5.717,5.717,0,1,0-3.5,3.542,1.212,1.212,0,0,1,1.469.467Z" transform="translate(-79.17 -30.649)" fill="#ddd"/>
        <path id="Path_924" data-name="Path 924" d="M159.918,60.491H119.829q-.414,0-.829-.016a17.282,17.282,0,0,0,8.766-2.586c2.292-1.529,3.567-3.547,3.567-5.643s-1.275-4.115-3.567-5.643A17.282,17.282,0,0,0,119,44.016c.29-.011.57-.016.829-.016h40.4a17.726,17.726,0,0,0-9.086,2.494c-2.4,1.538-3.748,3.6-3.767,5.748.019,2.15,1.369,4.211,3.767,5.749a17.727,17.727,0,0,0,9.086,2.5h-.308Z" transform="translate(-36.8 -13.767)" fill="#f2f2f2"/>
      </g>
      <g id="Group_302" data-name="Group 302" transform="translate(-7 1.93)">
        <rect id="Rectangle_921" data-name="Rectangle 921" width="87.478" height="4.71" rx="2.355" transform="translate(446.01 371.604)" fill="#1baf5d"/>
        <path id="Path_1050" data-name="Path 1050" d="M65.2,117.01V60.5H87.27V23l49.578,1.305L135.37,54.591l-1.477,4.8V90.048l2.955,5.909v7.018l5.171,4.8,4.432,2.216,1.847,8.125Z" transform="translate(391.039 257.089)" fill="#fff"/>
        <path id="Path_1051" data-name="Path 1051" d="M192.96,103.239v-27.7l-5.54-8.125-8.864-2.955-6.279,2.955-5.54,8.125v27.7l7.757,8.5h11.08Z" transform="translate(357.826 243.528)" fill="#fff"/>
        <path id="Path_1052" data-name="Path 1052" d="M115.011,48.853a1.919,1.919,0,0,0,1.919-1.919V38.363a1.919,1.919,0,0,0-3.838,0v8.571a1.919,1.919,0,0,0,1.919,1.919Z" transform="translate(375.372 252.691)" fill="#1baf5d"/>
        <path id="Path_1053" data-name="Path 1053" d="M135.1,48.853a1.919,1.919,0,0,0,1.919-1.919V38.363a1.919,1.919,0,1,0-3.838,0v8.571a1.918,1.918,0,0,0,1.919,1.919Z" transform="translate(368.8 252.691)" fill="#1baf5d"/>
        <path id="Path_1054" data-name="Path 1054" d="M155.2,48.853a1.918,1.918,0,0,0,1.918-1.919V38.363a1.919,1.919,0,1,0-3.838,0v8.571a1.919,1.919,0,0,0,1.92,1.919Z" transform="translate(362.228 252.691)" fill="#1baf5d"/>
        <path id="Path_1055" data-name="Path 1055" d="M113.093,76.375a1.919,1.919,0,0,0,3.838,0V67.8a1.919,1.919,0,1,0-3.838,0Z" transform="translate(375.372 243.061)" fill="#1baf5d"/>
        <path id="Path_1056" data-name="Path 1056" d="M133.185,76.375a1.919,1.919,0,0,0,3.838,0V67.8a1.919,1.919,0,1,0-3.838,0Z" transform="translate(368.8 243.061)" fill="#1baf5d"/>
        <path id="Path_1057" data-name="Path 1057" d="M153.276,76.375a1.919,1.919,0,1,0,3.838,0V67.8a1.919,1.919,0,0,0-3.838,0Z" transform="translate(362.228 243.061)" fill="#1baf5d"/>
        <path id="Path_1058" data-name="Path 1058" d="M113.093,105.817a1.919,1.919,0,1,0,3.838,0V97.246a1.919,1.919,0,1,0-3.838,0Z" transform="translate(375.372 233.431)" fill="#1baf5d"/>
        <path id="Path_1059" data-name="Path 1059" d="M133.185,105.817a1.919,1.919,0,0,0,3.838,0V97.246a1.919,1.919,0,1,0-3.838,0Z" transform="translate(368.8 233.431)" fill="#1baf5d"/>
        <path id="Path_1060" data-name="Path 1060" d="M153.276,105.817a1.919,1.919,0,1,0,3.838,0V97.246a1.919,1.919,0,0,0-3.838,0Z" transform="translate(362.228 233.431)" fill="#1baf5d"/>
        <path id="Path_1061" data-name="Path 1061" d="M82.313,95.328a1.919,1.919,0,0,0-1.919,1.919v8.571a1.919,1.919,0,0,0,3.838,0V97.246A1.919,1.919,0,0,0,82.313,95.328Z" transform="translate(386.067 233.431)" fill="#1baf5d"/>
        <path id="Path_1062" data-name="Path 1062" d="M82.313,124.77a1.919,1.919,0,0,0-1.919,1.918v8.571a1.919,1.919,0,1,0,3.838,0v-8.571a1.919,1.919,0,0,0-1.919-1.918Z" transform="translate(386.067 223.8)" fill="#1baf5d"/>
        <path id="Path_1063" data-name="Path 1063" d="M113.093,135.259a1.919,1.919,0,1,0,3.838,0v-8.571a1.919,1.919,0,0,0-3.838,0Z" transform="translate(375.372 223.8)" fill="#1baf5d"/>
        <path id="Path_1064" data-name="Path 1064" d="M133.185,135.259a1.919,1.919,0,0,0,3.838,0v-8.571a1.919,1.919,0,0,0-3.838,0Z" transform="translate(368.8 223.8)" fill="#1baf5d"/>
        <path id="Path_1065" data-name="Path 1065" d="M185.825,94.04a1.92,1.92,0,1,0-1.357-.562,1.92,1.92,0,0,0,1.357.562Z" transform="translate(352.209 235.107)" fill="#1baf5d"/>
        <path id="Path_1066" data-name="Path 1066" d="M161.244,84.41V63.251a14.958,14.958,0,0,0-23.41-12.35V23.838h2.591a1.919,1.919,0,1,0,0-3.838H83.819a1.919,1.919,0,0,0,0,3.838h2.59V33.879a1.919,1.919,0,1,0,3.837,0V23.838H134V54.347a1.959,1.959,0,0,0,.029.323,14.88,14.88,0,0,0-2.715,8.582V84.41A14.877,14.877,0,0,0,134,92.951v5.891a11.232,11.232,0,0,0-6.411-.164V92.419a1.919,1.919,0,0,0-3.838,0v8.139a11.2,11.2,0,0,0-3.077,3.569,8.342,8.342,0,0,0-10.17,10.279H90.247V49.23a1.919,1.919,0,1,0-3.837,0v8.379H64.919A1.919,1.919,0,0,0,63,59.528v56.8a1.919,1.919,0,0,0,1.919,1.919h94.406a1.919,1.919,0,1,0,0-3.838H148.2V99.25a14.986,14.986,0,0,0,13.044-14.84ZM66.838,61.447H86.41v52.96H66.838Zm79.44-9.325a11.142,11.142,0,0,1,11.129,11.129V84.41A11.145,11.145,0,0,1,148.2,95.37V76.834a1.919,1.919,0,1,0-3.838,0V95.371a11.145,11.145,0,0,1-9.21-10.96V63.251a11.142,11.142,0,0,1,11.129-11.129ZM137.834,96.76a14.87,14.87,0,0,0,6.524,2.49v6.221a8.3,8.3,0,0,0-4.121-1.579,11.232,11.232,0,0,0-2.4-2.892Zm-1.919,17.646h-21.3a4.509,4.509,0,0,1,6.13-6.144,1.918,1.918,0,0,0,2.76-1.071,7.388,7.388,0,0,1,13.782-.638,1.919,1.919,0,0,0,1.871,1.146c.088-.005.177-.009.266-.009a4.509,4.509,0,0,1,3.932,6.716Z" transform="translate(391.757 258.07)" fill="#1baf5d"/>
        <path id="Path_1067" data-name="Path 1067" d="M99.385,53.018a1.92,1.92,0,1,0-1.356-.562,1.92,1.92,0,0,0,1.356.562Z" transform="translate(380.483 248.526)" fill="#1baf5d"/>
      </g>
      <path id="Path_1344" data-name="Path 1344" d="M-18227.229-21154.428l-2.971,2.285v61.828l.8,2.172,2.172,1.6h20.457l1.027,2.287h1.83l2.514.912,1.6,1.373h2.516l1.713-1.373,2.973,2.629,2.855-1.256,1.6-2.285h3.086l2.285-2.287h2.057l2.057-1.6v-2.172h3.771l1.258-1.371v-1.828l-1.258-2.059,1.83-1.256,1.256-.572h2.287l2.285-1.256,1.715-.687-10.629-17.941-2.516,1.029v-26.059l-12.914-12.113Z" transform="translate(18726.002 21461.834)" fill="#fff"/>
      <g id="contract" transform="translate(472.531 306.234)">
        <g id="Group_1917" data-name="Group 1917" transform="translate(28.73 0)">
          <path id="Path_1344-2" data-name="Path 1344" d="M119.631,137.8H83.348a1.522,1.522,0,0,0,0,2.932h36.283a1.522,1.522,0,0,0,0-2.932Z" transform="translate(-81.316 -117.412)" fill="#1baf5d"/>
          <path id="Path_1345" data-name="Path 1345" d="M83.348,88.521h18.141c.616,0,1.115-.664,1.115-1.482s-.5-1.482-1.115-1.482H83.348c-.616,0-1.115.664-1.115,1.482S82.732,88.521,83.348,88.521Z" transform="translate(-81.316 -72.896)" fill="#1baf5d"/>
          <path id="Path_1346" data-name="Path 1346" d="M119.631,184.1H83.348a1.426,1.426,0,0,0,0,2.783h36.283a1.426,1.426,0,0,0,0-2.783Z" transform="translate(-81.316 -156.854)" fill="#1baf5d"/>
          <path id="Path_1347" data-name="Path 1347" d="M46.027,69.022H34.416c-1.906,0-2.457-.551-2.457-2.456V6.686a3.461,3.461,0,0,1,3.457-3.457H66.867a2.385,2.385,0,0,1,.32.024V10.2c0,3.135,3.551,5.686,6.686,5.686h5.951a2.365,2.365,0,0,1,.024.32V34.19A1.481,1.481,0,0,0,81.5,35.5a1.432,1.432,0,0,0,1.575-1.31V15.21a4.548,4.548,0,0,0-1.341-3.237L71.1,1.341A4.547,4.547,0,0,0,67.867,0H34.416A5.692,5.692,0,0,0,28.73,5.686v59.88a5.692,5.692,0,0,0,5.686,5.685H46.027a1.115,1.115,0,1,0,0-2.229ZM78.271,12.661h-4.4A3.461,3.461,0,0,1,70.416,9.2v-4.4Z" transform="translate(-35.73 0)" fill="#1baf5d"/>
          <path id="Path_1348" data-name="Path 1348" d="M145.55,270.042l-9.444-15.94a2.443,2.443,0,0,0-3.349-.858l-2.3,1.361a4.364,4.364,0,0,0-1.924,5.088,3.417,3.417,0,0,1-2.4-.026c-1.814-.571-3.193-1.719-5.47-1.143-3.867.984-3.749.935-4.1,1.055-2.264-1.289-3.625-1.673-6.029-.743l-2.142.828a3.428,3.428,0,0,1-3-.251l-.585-.345a4.354,4.354,0,0,0-2.078-4.464h0l-2.3-1.361a2.447,2.447,0,0,0-3.349.857l-9.444,15.941a2.443,2.443,0,0,0,.857,3.349l2.3,1.361a4.33,4.33,0,0,0,2.214.608,4.387,4.387,0,0,0,2.381-.7l.479.283-1.011,1.408a3.734,3.734,0,0,0,3.615,5.868,3.731,3.731,0,0,0,4.261,3.061,3.735,3.735,0,0,0,5.156,2.8,3.733,3.733,0,0,0,6.349,1.05l2.686,1.591a3.742,3.742,0,0,0,5.619-2.77l.006,0a3.738,3.738,0,0,0,5.633-2.94,3.738,3.738,0,0,0,4.631-3.233,3.739,3.739,0,0,0,4.226-5.887l1.48-.865a4.348,4.348,0,0,0,3.879-.278l2.3-1.361a2.443,2.443,0,0,0,.858-3.349Zm-53.622,2.792-2.3-1.361a.216.216,0,0,1-.076-.295L99,255.237a.216.216,0,0,1,.3-.075l2.3,1.361a2.128,2.128,0,0,1,.746,2.916l-7.494,12.649A2.131,2.131,0,0,1,91.928,272.834Zm5.082,6.917a1.507,1.507,0,0,1-.345-2.1l1.486-2.069a1.508,1.508,0,0,1,2.45,1.759l-1.486,2.069A1.51,1.51,0,0,1,97.01,279.751Zm4.261,3.059a1.51,1.51,0,0,1-.346-2.1l1.486-2.069h0l1.639-2.284a1.5,1.5,0,0,1,.981-.609,1.517,1.517,0,0,1,.247-.02,1.508,1.508,0,0,1,1.222,2.388l-3.125,4.353A1.507,1.507,0,0,1,101.272,282.81Zm4.261,3.059a1.51,1.51,0,0,1-.346-2.1h0l3.125-4.353a1.508,1.508,0,1,1,2.45,1.759l-1.388,1.934h0l-1.737,2.419A1.509,1.509,0,0,1,105.533,285.869Zm4.958,2.088a1.51,1.51,0,0,1-.347-2.1l1.04-1.449a1.508,1.508,0,0,1,2.45,1.759l-1.039,1.447A1.509,1.509,0,0,1,110.491,287.957Zm24.982-8.887a1.51,1.51,0,0,1-2.067.529l-9.866-5.845a1.115,1.115,0,0,0-1.136,1.918l7.459,4.419h0a1.509,1.509,0,0,1-1.538,2.6l-7.463-4.421a1.115,1.115,0,1,0-1.136,1.918l5.5,3.256h0a1.509,1.509,0,0,1-1.539,2.6l-2.949-1.747h0l-2.152-1.275a1.115,1.115,0,1,0-1.136,1.918l2.153,1.275h0a1.509,1.509,0,1,1-1.538,2.6l-2.511-1.488a3.735,3.735,0,0,0-2.51-5.714,3.734,3.734,0,0,0-4.078-5,3.737,3.737,0,0,0-6.34-2,3.734,3.734,0,0,0-5.2-1.333l-.511-.3,7.01-11.832.334.2a5.643,5.643,0,0,0,4.939.41l2.142-.828a3.289,3.289,0,0,1,3.115.067,4.989,4.989,0,0,0-1.264,3.323v4.942a2.384,2.384,0,0,0,2.379,2.382h0a4.936,4.936,0,0,0,4.666-3.336L134.944,277a1.508,1.508,0,0,1,.529,2.066Zm8.084-7.6-2.3,1.361a2.131,2.131,0,0,1-2.915-.746l-3.512-5.929a1.115,1.115,0,1,0-1.918,1.136l3.512,5.929c.066.112.138.218.212.321l-.977.57a5.66,5.66,0,0,0-.569.385l-15.142-8.967a1.115,1.115,0,0,0-1.682.959,2.846,2.846,0,0,1-.791,2.118,2.681,2.681,0,0,1-1.908.79h0a.152.152,0,0,1-.151-.153v-4.942a2.773,2.773,0,0,1,2.089-2.684l3.7-.937c1.343-.339,2.1.378,4.114,1.059a5.634,5.634,0,0,0,4.262-.069l.673,1.136a1.115,1.115,0,0,0,1.918-1.136l-1.325-2.236a2.127,2.127,0,0,1,.746-2.916l2.3-1.361a.215.215,0,0,1,.3.076l9.444,15.941a.215.215,0,0,1-.075.3Z" transform="translate(-85.629 -215.478)" fill="#1baf5d"/>
        </g>
      </g>
    </g>
  </g>
</svg>
