<svg xmlns="http://www.w3.org/2000/svg" width="189.479" height="114.666" viewBox="0 0 189.479 114.666">
  <g id="Group_323" data-name="Group 323" transform="translate(-674 -264.834)">
    <path id="Path_894" data-name="Path 894" d="M144.927,28.32l-.019,0-.018,0Z" transform="translate(628.913 251)" fill="#107050"/>
    <g id="Group_282" data-name="Group 282" transform="translate(672.616 264.834)">
      <path id="Path_915" data-name="Path 915" d="M146.463,24h-70.8c-4.576,0-8.285,3.166-8.285,7.072s3.709,7.072,8.285,7.072h70.8c4.576,0,8.285-3.166,8.285-7.072S151.038,24,146.463,24Z" transform="translate(-20.649 -7.509)" fill="#f2f2f2"/>
      <path id="Path_916" data-name="Path 916" d="M108.649,145.086H54.6c-4.575,0-8.285,3.166-8.285,7.071s3.709,7.072,8.285,7.072h54.051c4.575,0,8.285-3.166,8.285-7.072S113.224,145.086,108.649,145.086Z" transform="translate(-14.057 -45.394)" fill="#f2f2f2"/>
      <path id="Path_917" data-name="Path 917" d="M168.477,67.579H20.861c-4.575,0-8.285,3.166-8.285,7.072s3.709,7.072,8.285,7.072H168.477c4.576,0,8.285-3.166,8.285-7.072S173.053,67.579,168.477,67.579Z" transform="translate(-3.502 -21.144)" fill="#f2f2f2"/>
      <path id="Path_918" data-name="Path 918" d="M161.9,111.158H14.285C9.709,111.158,6,114.324,6,118.23s3.709,7.071,8.285,7.071H161.9c4.576,0,8.285-3.166,8.285-7.071S166.477,111.158,161.9,111.158Z" transform="translate(-1.444 -34.779)" fill="#f2f2f2"/>
      <path id="Path_919" data-name="Path 919" d="M91.31,103.974H55.164a10.131,10.131,0,0,0,6.543-2.32,7.107,7.107,0,0,0,0-11.172,10.133,10.133,0,0,0-6.542-2.319H91.31a10.7,10.7,0,0,1,2.773.361H91.471a9.817,9.817,0,0,0-6.35,2.245,6.9,6.9,0,0,0,0,10.84,9.818,9.818,0,0,0,6.35,2.245h1.446a10.927,10.927,0,0,1-1.608.12Z" transform="translate(-16.519 -27.584)" fill="#f2f2f2"/>
      <path id="Path_920" data-name="Path 920" d="M227.485,160.054a3.534,3.534,0,1,1,2.177-1.609,3.539,3.539,0,0,1-2.177,1.609Z" transform="translate(-69.368 -47.899)" fill="#e4e4e4"/>
      <circle id="Ellipse_163" data-name="Ellipse 163" cx="5.505" cy="5.505" r="5.505" transform="translate(146.103 17.865)" fill="none" stroke="#ddd" stroke-width="3"/>
      <circle id="Ellipse_164" data-name="Ellipse 164" cx="4.188" cy="4.188" r="4.188" transform="translate(112.861 0)" fill="#ddd"/>
      <circle id="Ellipse_165" data-name="Ellipse 165" cx="2.094" cy="2.094" r="2.094" transform="translate(6.321 34.038)" fill="#ddd"/>
      <path id="Path_921" data-name="Path 921" d="M31.9,23h-.62a8.276,8.276,0,1,0,0,16.552h.62A8.276,8.276,0,1,0,31.9,23Z" transform="translate(-6.763 -7.196)" fill="#f2f2f2"/>
      <path id="Path_922" data-name="Path 922" d="M4.279,140.143a.353.353,0,0,0,.433.249,3.533,3.533,0,1,1-2.139,1.635.353.353,0,1,0-.611-.355,4.24,4.24,0,1,0,2.567-1.962A.353.353,0,0,0,4.279,140.143Z" transform="translate(0 -43.667)" fill="#ddd"/>
      <path id="Path_923" data-name="Path 923" d="M265.607,111.618a.943.943,0,0,1-.414,1.365,7.805,7.805,0,1,1,4.29-4.342.944.944,0,0,1-1.36.431h0a1.212,1.212,0,0,1-.485-1.463,5.717,5.717,0,1,0-3.5,3.542,1.212,1.212,0,0,1,1.469.467Z" transform="translate(-79.17 -30.649)" fill="#ddd"/>
      <path id="Path_924" data-name="Path 924" d="M159.918,60.491H119.829q-.414,0-.829-.016a17.282,17.282,0,0,0,8.766-2.586c2.292-1.529,3.567-3.547,3.567-5.643s-1.275-4.115-3.567-5.643A17.282,17.282,0,0,0,119,44.016c.29-.011.57-.016.829-.016h40.4a17.726,17.726,0,0,0-9.086,2.494c-2.4,1.538-3.748,3.6-3.767,5.748.019,2.15,1.369,4.211,3.767,5.749a17.727,17.727,0,0,0,9.086,2.5h-.308Z" transform="translate(-36.8 -13.767)" fill="#f2f2f2"/>
    </g>
    <path id="Path_895" data-name="Path 895" d="M136.135,105.214V82.185l-2.551-7.112-4.464-4.4-8.608-3.725-10.521-4.064V57.124l3.188-3.387L115.73,47.3l3.826-1.693,1.275-3.725L119.556,38.5v-4.4l-1.275-7.451-8.29-8.128L101.383,17.5,91.5,19.871l-4.145,6.773L84.485,38.5l-.956,3.387,2.232,3.725L88.948,47.3l1.275,4.4,4.782,5.419v5.757l-22,8.805-3.507,6.1v32.851l1.275,2.709h62.809l2.551-1.016Z" transform="translate(653.771 260.503)" fill="#fff"/>
    <path id="Path_896" data-name="Path 896" d="M135.371,91.088a1.491,1.491,0,0,0-1.519,1.463v20.538a.825.825,0,0,1-.839.807h-8.165V85.1a1.52,1.52,0,0,0-3.038,0v28.8H105.37l4.768-5.049a2.557,2.557,0,0,0,.657-2.1c0-.015,0-.03-.007-.045l-4.541-25.826,1.223-1.773a3.511,3.511,0,0,0,2.175.908,2.672,2.672,0,0,0,2.38-1.417l4.79-9.242,10.911,4.068c.395.163,6.127,2.648,6.127,9.209v9.891a1.52,1.52,0,0,0,3.038,0V82.626c0-8.645-7.689-11.788-8.017-11.917l-.029-.011-18.159-6.77v-4.1a13.6,13.6,0,0,0,5.386-9.013,6.715,6.715,0,0,0,3.863-1.517,6.048,6.048,0,0,0,.673-8.759V35.122C120.6,25.13,112.161,17,101.781,17S82.957,25.13,82.957,35.122v5.559a5.749,5.749,0,0,0-1.566,3.914,6.1,6.1,0,0,0,2.24,4.7,6.71,6.71,0,0,0,3.86,1.516,13.476,13.476,0,0,0,5.694,9.229v3.884L75.045,70.7l-.029.011C74.689,70.838,67,73.981,67,82.626v30.462a3.81,3.81,0,0,0,3.877,3.732H85.348a1.463,1.463,0,1,0,0-2.924H82.08V85.1a1.52,1.52,0,0,0-3.038,0v28.8H70.877a.824.824,0,0,1-.839-.807V82.626c0-6.583,5.77-9.063,6.125-9.209l10.9-4.069,4.79,9.241a2.672,2.672,0,0,0,2.381,1.418A3.507,3.507,0,0,0,96.41,79.1l1.223,1.773L93.093,106.7c0,.014-.005.029-.007.044a2.556,2.556,0,0,0,.657,2.1l4.768,5.049H92.436a1.463,1.463,0,1,0,0,2.925h40.577a3.811,3.811,0,0,0,3.877-3.732V92.551A1.492,1.492,0,0,0,135.371,91.088Zm-21.4-22.8L109.5,76.9l-5.371-3.672,5.516-6.554Zm-8.978,9.117-1.158,1.678h-3.788l-1.158-1.678,3.051-2.087ZM96.222,64.4V61.663a15.937,15.937,0,0,0,5.743,1.048,14.733,14.733,0,0,0,5.681-1.14v2.84l-5.707,6.782Zm22.912-19.8a3.228,3.228,0,0,1-1.183,2.486,3.6,3.6,0,0,1-1.754.777V41.332A3.35,3.35,0,0,1,119.135,44.595Zm-31.77,3.264a3.346,3.346,0,0,1-2.936-3.264,3.52,3.52,0,0,1,2.936-3.189Zm.082-9.433a7.752,7.752,0,0,0-1.452.315V35.122c0-8.38,7.082-15.2,15.787-15.2s15.786,6.818,15.786,15.2V38.64a6.992,6.992,0,0,0-1.37-.255c0-1.411.013-1.139-4.782-6.1a2.779,2.779,0,0,0-3.45-.4,30.145,30.145,0,0,1-17.7,4.588A2.692,2.692,0,0,0,87.447,38.426ZM90.4,49.01v-9.6a33.416,33.416,0,0,0,18.984-4.929c2.2,2.273,3.389,3.465,3.773,3.919V49.009a11.012,11.012,0,0,1-11.195,10.777C95.041,59.786,90.4,54.615,90.4,49.01ZM94.375,76.9,89.91,68.288l4.313-1.608,5.516,6.556Zm1.743,30.111,4.4-25.007h2.849l4.4,25.007-5.821,6.165Z" transform="translate(654.462 262.641)" fill="#1baf5d"/>
    <rect id="Rectangle_910" data-name="Rectangle 910" width="80" height="3" rx="1.5" transform="translate(715.399 376.5)" fill="#1baf5d"/>
    <g id="Group_318" data-name="Group 318" transform="translate(257.099 -245)">
      <circle id="Ellipse_177" data-name="Ellipse 177" cx="19.5" cy="19.5" r="19.5" transform="translate(532.901 524)" fill="#fff"/>
      <g id="worldwide" transform="translate(533.254 524.25)">
        <g id="Group_316" data-name="Group 316" transform="translate(0 0)">
          <path id="Path_1084" data-name="Path 1084" d="M19.386.05A19.375,19.375,0,0,0,1.572,11.8l-.242.08.094.281A19.374,19.374,0,1,0,19.386.05Zm15.2,29.144-.995-.994V25.883a.645.645,0,0,0-.065-.289l-2.519-5.03V18.133a.646.646,0,0,0-.287-.537L28.78,16.3a.646.646,0,0,0-.517-.089l-2.373.593L21.905,15.1l-.548-3.841,1.52-1.519h3.262l1.1,1.65a.646.646,0,0,0,.431.278l3.875.646a.64.64,0,0,0,.31-.025l3.569-1.19A18.019,18.019,0,0,1,34.584,29.194ZM31.92,6.414l-1.05.7-2.928-.586-1.9-.632a.634.634,0,0,0-.36-.014l-2.4.6-1.053-.351.78-1.56h2.184a.646.646,0,0,0,.289-.068l2.235-1.117A18.15,18.15,0,0,1,31.92,6.414ZM12.306,2.784l1.55,1.033a.645.645,0,0,0,.253.1l3.13.522-.305.914L15.3,5.9a.646.646,0,0,0-.349.28L13.1,9.267l-2.979,1.788-4.392.627a.646.646,0,0,0-.555.639v1.938a.646.646,0,0,0,.189.457l1.1,1.1v1.11L3.777,15.135,2.8,12.212A18.187,18.187,0,0,1,12.306,2.784ZM10.468,23.959l-2.919-.584L6.464,21.21V19.692L8.87,17.286l.891,1.782a.646.646,0,0,0,.578.357h4.155l1.75,2.916a.646.646,0,0,0,.553.313h1.8l-.452,2.265L15.7,27.364a.646.646,0,0,0-.19.457v1.615L13.18,31.179a.646.646,0,0,0-.258.517v2.333l-.8-.266-1.134-2.837V24.592A.646.646,0,0,0,10.468,23.959ZM8.526,33.887A18.079,18.079,0,0,1,2.085,14.145l.537,1.609a.645.645,0,0,0,.254.333L6.1,18.233l-.734.735a.646.646,0,0,0-.189.457v1.938a.646.646,0,0,0,.068.289l1.292,2.583a.646.646,0,0,0,.452.344l2.713.542V31.05a.646.646,0,0,0,.046.24l1.292,3.229a.646.646,0,0,0,.4.373l1.938.646a.634.634,0,0,0,.2.034.646.646,0,0,0,.646-.646V32.019l2.325-1.744a.646.646,0,0,0,.258-.517v-1.67l2.394-2.394a.646.646,0,0,0,.176-.33l.646-3.229a.646.646,0,0,0-.633-.772H17.162l-1.75-2.916a.646.646,0,0,0-.553-.313H10.738l-1.11-2.226a.646.646,0,0,0-.475-.349.633.633,0,0,0-.56.181l-.838.835V15.55a.646.646,0,0,0-.189-.457l-1.1-1.1v-1.11l3.967-.566a.649.649,0,0,0,.241-.086L13.9,10.291a.645.645,0,0,0,.221-.221l1.815-3.024,1.711-.571a.639.639,0,0,0,.408-.408L18.7,4.129a.646.646,0,0,0-.506-.84l-3.738-.623L13.8,2.228A18.034,18.034,0,0,1,26.22,2.69l-1.18.589H22.609a.646.646,0,0,0-.581.357L20.737,6.22a.646.646,0,0,0,.374.9l1.938.646a.634.634,0,0,0,.36.014l2.4-.6,1.759.586a.475.475,0,0,0,.078.021l3.229.646a.641.641,0,0,0,.485-.1l1.47-.98a18.219,18.219,0,0,1,1.943,2.6L31.6,11.012l-3.44-.574L27.019,8.733a.646.646,0,0,0-.534-.287H22.609a.646.646,0,0,0-.457.189l-1.938,1.938a.646.646,0,0,0-.183.548l.646,4.521a.646.646,0,0,0,.387.5l4.521,1.938a.638.638,0,0,0,.411.033l2.306-.577,1.41.942v2.238a.645.645,0,0,0,.065.289l2.519,5.03v2.431a.646.646,0,0,0,.189.457l1.351,1.352A18.079,18.079,0,0,1,8.526,33.887Z" transform="translate(0 -0.05)" fill="#1baf5d"/>
        </g>
      </g>
    </g>
  </g>
</svg>
