<svg viewBox="0 0 13 15" fill="none" xmlns="http://www.w3.org/2000/svg">
  <path d="M9.5 0.25L13 3.75H9.5V0.25ZM8.625 3.75C8.625 4.24219 9.00781 4.625 9.5 4.625H13V12.9375C13 13.6758 12.3984 14.25 11.6875 14.25H3.8125C3.07422 14.25 2.5 13.6758 2.5 12.9375V9H4.41406L5.15234 10.5312C5.23438 10.668 5.37109 10.75 5.5625 10.75C5.72656 10.75 5.86328 10.668 5.94531 10.5312L7.3125 7.79688L7.77734 8.78125C7.85938 8.91797 7.99609 9 8.1875 9H10.375C10.5938 9 10.8125 8.80859 10.8125 8.5625C10.8125 8.34375 10.5938 8.125 10.375 8.125H8.43359L7.69531 6.62109C7.53125 6.34766 7.06641 6.34766 6.90234 6.62109L5.5625 9.35547L5.07031 8.37109C4.98828 8.23438 4.85156 8.125 4.6875 8.125H1.1875C0.941406 8.125 0.75 7.93359 0.75 7.6875V6.8125C0.75 6.59375 0.941406 6.375 1.1875 6.375H2.5V1.5625C2.5 0.851562 3.07422 0.25 3.8125 0.25H8.625V3.75Z" fill="#25815B"/>
</svg>
