<?xml version="1.0" encoding="utf-8"?>
<!-- Generator: Adobe Illustrator 26.2.1, SVG Export Plug-In . SVG Version: 6.00 Build 0)  -->
<svg version="1.1" id="Layer_1" xmlns="http://www.w3.org/2000/svg" xmlns:xlink="http://www.w3.org/1999/xlink" x="0px" y="0px"
	 viewBox="0 0 311.6 104.2" style="enable-background:new 0 0 311.6 104.2;" xml:space="preserve">
<style type="text/css">
	.st0{fill:#03B585;}
	.st1{fill:url(#SVGID_1_);}
	.st2{fill:url(#SVGID_00000067959152459100851780000004650315273576717446_);}
	.st3{fill:url(#SVGID_00000007430079707571864810000016231323621834100871_);}
	.st4{fill:url(#SVGID_00000032606433482989446770000010186276918052415115_);}
	.st5{fill:url(#SVGID_00000022547986321328123000000012974383853447629220_);}
	.st6{fill:url(#SVGID_00000087392212386624432920000011029863769702139011_);}
	.st7{fill:url(#SVGID_00000090978954202426856690000010003745093853398967_);}
	.st8{fill:url(#SVGID_00000010306434531003976840000005930110768750741637_);}
	.st9{fill:url(#SVGID_00000052102516747740155040000008499141287892278940_);}
	.st10{fill:url(#SVGID_00000101062760781138441260000002827242840750153644_);}
	.st11{fill:url(#SVGID_00000095338410849377136500000011355108893233958022_);}
	.st12{fill:url(#SVGID_00000139282260806518184530000010812103287884635800_);}
	.st13{fill:url(#SVGID_00000044169277739424171590000015316180313533898174_);}
	.st14{fill:url(#SVGID_00000115516262496575635230000002096000891313742245_);}
	.st15{fill:url(#SVGID_00000098183816681060379010000010214120753057115044_);}
	.st16{fill:url(#SVGID_00000120557144535118824380000004631218907222016679_);}
	.st17{fill:url(#SVGID_00000140694331425448974030000004405667302179427970_);}
	.st18{fill:url(#SVGID_00000124133634071035994660000016140762860944704661_);}
	.st19{fill:url(#SVGID_00000130632961213228873400000002694829449680622744_);}
	.st20{fill:url(#SVGID_00000160872344873426211880000018036368181797403536_);}
	.st21{fill:url(#SVGID_00000036934496740975607130000000931958305648057760_);}
	.st22{fill:url(#SVGID_00000150795285880434076130000006186933623255906964_);}
	.st23{fill:url(#SVGID_00000129890479689449409620000004570519721346317461_);}
	.st24{fill:url(#SVGID_00000102520095964749295410000009078521796838512306_);}
	.st25{fill:url(#SVGID_00000145744951413643436150000014140453511563602610_);}
	.st26{fill:url(#SVGID_00000043419806817167193100000004045052078832671129_);}
	.st27{fill:url(#SVGID_00000178199814025660574300000007324500226851119764_);}
	.st28{fill:url(#SVGID_00000129174298453415591190000008823651440102088864_);}
	.st29{fill:url(#SVGID_00000111178689901430334550000005160496172901994129_);}
	.st30{fill:url(#SVGID_00000116945203356359619630000015613690635268831408_);}
	.st31{fill:url(#SVGID_00000055665447478123634530000010346831752498467498_);}
	.st32{fill:url(#SVGID_00000134227657196002017370000010271718403362906788_);}
	.st33{fill:url(#SVGID_00000049913182520888295920000006512116207133191858_);}
	.st34{fill:url(#SVGID_00000038412193386248653290000016771074609377675449_);}
	.st35{fill:url(#SVGID_00000076570573621156481540000004927749169742024596_);}
	.st36{fill:url(#SVGID_00000106865934972153468820000006401557460509417400_);}
	.st37{fill:url(#SVGID_00000174599700273633629550000003102779468505024934_);}
	.st38{fill:url(#SVGID_00000130619071158617840700000017463490604323203226_);}
	.st39{fill:url(#SVGID_00000067939730333842314590000009514504689884894649_);}
	.st40{fill:url(#SVGID_00000051377213800416366930000017992942760680384934_);}
	.st41{fill:url(#SVGID_00000040537032505120487580000016170375730671669647_);}
	.st42{fill:url(#SVGID_00000059988724503945165340000002246019305389749678_);}
	.st43{fill:url(#SVGID_00000088820979813432529310000002350384199908100007_);}
	.st44{fill:url(#SVGID_00000011751622603967612110000011297583569615184011_);}
	.st45{fill:url(#SVGID_00000112618098521851214490000017556883025636988290_);}
	.st46{fill:url(#SVGID_00000174561630173978590170000014102912381730491527_);}
	.st47{fill:url(#SVGID_00000007409479495300865120000000398180009465902236_);}
	.st48{fill:url(#SVGID_00000000926966494659878010000013353855502648074657_);}
	.st49{fill:url(#SVGID_00000115506377032834868950000006668311891537997710_);}
	.st50{fill:url(#SVGID_00000132783627053728698270000015667765622779978646_);}
	.st51{fill:url(#SVGID_00000049189337905840773800000007928208395362092171_);}
	.st52{fill:url(#SVGID_00000031202267283132015440000009232180554774206107_);}
	.st53{fill:url(#SVGID_00000044870983546770392650000001938711285988560773_);}
	.st54{fill:url(#SVGID_00000173129653233201746120000003097693572901917312_);}
</style>
<g id="Layer_2_1_">
	<g id="Layer_1-2">
		<polygon class="st0" points="48,35.8 34.9,43.4 34.9,58.7 48,66.3 61.2,58.7 61.2,43.4 		"/>
		
			<linearGradient id="SVGID_1_" gradientUnits="userSpaceOnUse" x1="112.3461" y1="304.0476" x2="17.9861" y2="404.5276" gradientTransform="matrix(1 0 0 1 0 -293.7325)">
			<stop  offset="0" style="stop-color:#A6CE39"/>
			<stop  offset="0.5" style="stop-color:#03B585"/>
			<stop  offset="1" style="stop-color:#273470"/>
		</linearGradient>
		<polygon class="st1" points="49.4,68.6 60,74.8 49.4,80.9 		"/>
		
			<linearGradient id="SVGID_00000172414816293071610870000016242375967771118243_" gradientUnits="userSpaceOnUse" x1="85.1528" y1="278.9963" x2="-9.1972" y2="379.4563" gradientTransform="matrix(1 0 0 1 0 -293.7325)">
			<stop  offset="0" style="stop-color:#A6CE39"/>
			<stop  offset="0.5" style="stop-color:#03B585"/>
			<stop  offset="1" style="stop-color:#273470"/>
		</linearGradient>
		<polygon style="fill:url(#SVGID_00000172414816293071610870000016242375967771118243_);" points="36.1,28.8 46.7,34.9 36.1,41.1 
					"/>
		
			<linearGradient id="SVGID_00000055674153657644519380000008366116456297560738_" gradientUnits="userSpaceOnUse" x1="100.2384" y1="293.6298" x2="6.5284" y2="393.4198" gradientTransform="matrix(1 0 0 1 0 -293.7325)">
			<stop  offset="0" style="stop-color:#A6CE39"/>
			<stop  offset="0.5" style="stop-color:#03B585"/>
			<stop  offset="1" style="stop-color:#273470"/>
		</linearGradient>
		<polygon style="fill:url(#SVGID_00000055674153657644519380000008366116456297560738_);" points="34.9,58.7 48,51 48,66.3 		"/>
		
			<linearGradient id="SVGID_00000129913041118943211970000016815437066958602387_" gradientUnits="userSpaceOnUse" x1="95.8097" y1="289.454" x2="2.0797" y2="389.2541" gradientTransform="matrix(1 0 0 1 0 -293.7325)">
			<stop  offset="0" style="stop-color:#A6CE39"/>
			<stop  offset="0.5" style="stop-color:#03B585"/>
			<stop  offset="1" style="stop-color:#273470"/>
		</linearGradient>
		<polygon style="fill:url(#SVGID_00000129913041118943211970000016815437066958602387_);" points="48,35.8 61.2,43.4 48,51 		"/>
		
			<linearGradient id="SVGID_00000096739669990172253690000003004150058145485954_" gradientUnits="userSpaceOnUse" x1="61.1312" y1="267.713" x2="-14.3688" y2="348.0929" gradientTransform="matrix(1 0 0 1 0 -293.7325)">
			<stop  offset="0" style="stop-color:#A6CE39"/>
			<stop  offset="0.5" style="stop-color:#03B585"/>
			<stop  offset="1" style="stop-color:#273470"/>
		</linearGradient>
		<polygon style="fill:url(#SVGID_00000096739669990172253690000003004150058145485954_);" points="22.5,8.6 30.5,4 30.5,13.1 		"/>
		
			<linearGradient id="SVGID_00000148656021800244882720000002368540641376178870_" gradientUnits="userSpaceOnUse" x1="79.8991" y1="286.1011" x2="4.409" y2="366.4811" gradientTransform="matrix(1 0 0 1 0 -293.7325)">
			<stop  offset="0" style="stop-color:#A6CE39"/>
			<stop  offset="0.5" style="stop-color:#03B585"/>
			<stop  offset="1" style="stop-color:#273470"/>
		</linearGradient>
		<polygon style="fill:url(#SVGID_00000148656021800244882720000002368540641376178870_);" points="50.7,16.9 58.7,12.3 58.7,21.5 
					"/>
		
			<linearGradient id="SVGID_00000181772409840260976260000009846086520907508151_" gradientUnits="userSpaceOnUse" x1="99.4268" y1="301.2995" x2="23.9368" y2="381.6794" gradientTransform="matrix(1 0 0 1 0 -293.7325)">
			<stop  offset="0" style="stop-color:#A6CE39"/>
			<stop  offset="0.5" style="stop-color:#03B585"/>
			<stop  offset="1" style="stop-color:#273470"/>
		</linearGradient>
		<polygon style="fill:url(#SVGID_00000181772409840260976260000009846086520907508151_);" points="78.4,23.5 86.3,28 78.4,32.6 		
			"/>
		
			<linearGradient id="SVGID_00000147943051033856895490000008575784134795533977_" gradientUnits="userSpaceOnUse" x1="105.5586" y1="310.1205" x2="30.0686" y2="390.5005" gradientTransform="matrix(1 0 0 1 0 -293.7325)">
			<stop  offset="0" style="stop-color:#A6CE39"/>
			<stop  offset="0.5" style="stop-color:#03B585"/>
			<stop  offset="1" style="stop-color:#273470"/>
		</linearGradient>
		<polygon style="fill:url(#SVGID_00000147943051033856895490000008575784134795533977_);" points="78.4,38.8 86.3,43.4 78.4,48 		
			"/>
		
			<linearGradient id="SVGID_00000136411925584293503830000006558715073708631966_" gradientUnits="userSpaceOnUse" x1="116.0676" y1="319.9716" x2="40.5876" y2="400.3315" gradientTransform="matrix(1 0 0 1 0 -293.7325)">
			<stop  offset="0" style="stop-color:#A6CE39"/>
			<stop  offset="0.5" style="stop-color:#03B585"/>
			<stop  offset="1" style="stop-color:#273470"/>
		</linearGradient>
		<polygon style="fill:url(#SVGID_00000136411925584293503830000006558715073708631966_);" points="86.7,51 94.6,46.4 94.6,55.6 		
			"/>
		
			<linearGradient id="SVGID_00000129171846297628841740000017257234291698540199_" gradientUnits="userSpaceOnUse" x1="111.6646" y1="324.9862" x2="36.1745" y2="405.3662" gradientTransform="matrix(1 0 0 1 0 -293.7325)">
			<stop  offset="0" style="stop-color:#A6CE39"/>
			<stop  offset="0.5" style="stop-color:#03B585"/>
			<stop  offset="1" style="stop-color:#273470"/>
		</linearGradient>
		<polygon style="fill:url(#SVGID_00000129171846297628841740000017257234291698540199_);" points="64,75.5 71.9,70.9 71.9,80.1 		
			"/>
		
			<linearGradient id="SVGID_00000115516583934838257130000017786478713932539302_" gradientUnits="userSpaceOnUse" x1="89.3893" y1="313.6694" x2="13.8993" y2="394.0494" gradientTransform="matrix(1 0 0 1 0 -293.7325)">
			<stop  offset="0" style="stop-color:#A6CE39"/>
			<stop  offset="0.5" style="stop-color:#03B585"/>
			<stop  offset="1" style="stop-color:#273470"/>
		</linearGradient>
		<polygon style="fill:url(#SVGID_00000115516583934838257130000017786478713932539302_);" points="22.5,84.6 30.5,79.9 30.5,89.2 
					"/>
		
			<linearGradient id="SVGID_00000068656780795714321190000011459735051852013729_" gradientUnits="userSpaceOnUse" x1="69.2935" y1="292.5564" x2="-6.1965" y2="372.9364" gradientTransform="matrix(1 0 0 1 0 -293.7325)">
			<stop  offset="0" style="stop-color:#A6CE39"/>
			<stop  offset="0.5" style="stop-color:#03B585"/>
			<stop  offset="1" style="stop-color:#273470"/>
		</linearGradient>
		<polygon style="fill:url(#SVGID_00000068656780795714321190000011459735051852013729_);" points="6.9,58.7 14.9,54.1 14.9,63.3 		
			"/>
		
			<linearGradient id="SVGID_00000077284070202757246430000004125244046564188059_" gradientUnits="userSpaceOnUse" x1="90.07" y1="329.4325" x2="10.74" y2="329.4325" gradientTransform="matrix(1 0 0 1 0 -293.7325)">
			<stop  offset="0" style="stop-color:#A6CE39"/>
			<stop  offset="0.5" style="stop-color:#03B585"/>
			<stop  offset="1" style="stop-color:#273470"/>
		</linearGradient>
		<polygon style="fill:url(#SVGID_00000077284070202757246430000004125244046564188059_);" points="61.6,29.6 72.2,35.7 61.6,41.8 
					"/>
		
			<linearGradient id="SVGID_00000122686882269582734220000004198008501710609329_" gradientUnits="userSpaceOnUse" x1="91.13" y1="337.0825" x2="11.78" y2="337.0825" gradientTransform="matrix(1 0 0 1 0 -293.7325)">
			<stop  offset="0" style="stop-color:#A6CE39"/>
			<stop  offset="0.5" style="stop-color:#03B585"/>
			<stop  offset="1" style="stop-color:#273470"/>
		</linearGradient>
		<polygon style="fill:url(#SVGID_00000122686882269582734220000004198008501710609329_);" points="62.7,43.4 73.3,37.2 73.3,49.5 
					"/>
		
			<linearGradient id="SVGID_00000016766469044215311610000013842549436429363106_" gradientUnits="userSpaceOnUse" x1="91.12" y1="344.7825" x2="11.79" y2="344.7825" gradientTransform="matrix(1 0 0 1 0 -293.7325)">
			<stop  offset="0" style="stop-color:#A6CE39"/>
			<stop  offset="0.5" style="stop-color:#03B585"/>
			<stop  offset="1" style="stop-color:#273470"/>
		</linearGradient>
		<polygon style="fill:url(#SVGID_00000016766469044215311610000013842549436429363106_);" points="62.7,44.9 73.3,51 62.7,57.2 		
			"/>
		
			<linearGradient id="SVGID_00000061450850374752908330000014290734136182742666_" gradientUnits="userSpaceOnUse" x1="91.13" y1="352.4325" x2="11.78" y2="352.4325" gradientTransform="matrix(1 0 0 1 0 -293.7325)">
			<stop  offset="0" style="stop-color:#A6CE39"/>
			<stop  offset="0.5" style="stop-color:#03B585"/>
			<stop  offset="1" style="stop-color:#273470"/>
		</linearGradient>
		<polygon style="fill:url(#SVGID_00000061450850374752908330000014290734136182742666_);" points="62.7,58.7 73.3,52.6 73.3,64.8 
					"/>
		
			<linearGradient id="SVGID_00000034788523682239620940000017161398673954601096_" gradientUnits="userSpaceOnUse" x1="90.07" y1="360.0825" x2="10.74" y2="360.0825" gradientTransform="matrix(1 0 0 1 0 -293.7325)">
			<stop  offset="0" style="stop-color:#A6CE39"/>
			<stop  offset="0.5" style="stop-color:#03B585"/>
			<stop  offset="1" style="stop-color:#273470"/>
		</linearGradient>
		<polygon style="fill:url(#SVGID_00000034788523682239620940000017161398673954601096_);" points="61.6,60.2 72.2,66.4 61.6,72.5 
					"/>
		
			<linearGradient id="SVGID_00000105394574450823901940000015810336899122158245_" gradientUnits="userSpaceOnUse" x1="88.47" y1="360.8325" x2="9.13" y2="360.8325" gradientTransform="matrix(1 0 0 1 0 -293.7325)">
			<stop  offset="0" style="stop-color:#A6CE39"/>
			<stop  offset="0.5" style="stop-color:#03B585"/>
			<stop  offset="1" style="stop-color:#273470"/>
		</linearGradient>
		<polygon style="fill:url(#SVGID_00000105394574450823901940000015810336899122158245_);" points="49.4,67.1 60,61 60,73.2 		"/>
		
			<linearGradient id="SVGID_00000049943985134768531370000009197463453604284324_" gradientUnits="userSpaceOnUse" x1="85.82" y1="368.4825" x2="6.47" y2="368.4825" gradientTransform="matrix(1 0 0 1 0 -293.7325)">
			<stop  offset="0" style="stop-color:#A6CE39"/>
			<stop  offset="0.5" style="stop-color:#03B585"/>
			<stop  offset="1" style="stop-color:#273470"/>
		</linearGradient>
		<polygon style="fill:url(#SVGID_00000049943985134768531370000009197463453604284324_);" points="36.1,74.8 46.7,68.6 46.7,80.9 
					"/>
		
			<linearGradient id="SVGID_00000150093588308554987070000003049985078925737634_" gradientUnits="userSpaceOnUse" x1="85.81" y1="360.8325" x2="6.48" y2="360.8325" gradientTransform="matrix(1 0 0 1 0 -293.7325)">
			<stop  offset="0" style="stop-color:#A6CE39"/>
			<stop  offset="0.5" style="stop-color:#03B585"/>
			<stop  offset="1" style="stop-color:#273470"/>
		</linearGradient>
		<polygon style="fill:url(#SVGID_00000150093588308554987070000003049985078925737634_);" points="36.1,61 46.7,67.1 36.1,73.2 		
			"/>
		
			<linearGradient id="SVGID_00000073688698780583978300000017057437888508244394_" gradientUnits="userSpaceOnUse" x1="84.22" y1="360.0825" x2="4.87" y2="360.0825" gradientTransform="matrix(1 0 0 1 0 -293.7325)">
			<stop  offset="0" style="stop-color:#A6CE39"/>
			<stop  offset="0.5" style="stop-color:#03B585"/>
			<stop  offset="1" style="stop-color:#273470"/>
		</linearGradient>
		<polygon style="fill:url(#SVGID_00000073688698780583978300000017057437888508244394_);" points="23.9,66.4 34.5,60.2 34.5,72.5 
					"/>
		
			<linearGradient id="SVGID_00000117669842099212407630000006679278125302063241_" gradientUnits="userSpaceOnUse" x1="83.16" y1="352.4325" x2="3.82" y2="352.4325" gradientTransform="matrix(1 0 0 1 0 -293.7325)">
			<stop  offset="0" style="stop-color:#A6CE39"/>
			<stop  offset="0.5" style="stop-color:#03B585"/>
			<stop  offset="1" style="stop-color:#273470"/>
		</linearGradient>
		<polygon style="fill:url(#SVGID_00000117669842099212407630000006679278125302063241_);" points="33.4,58.7 22.8,64.8 22.8,52.6 
					"/>
		
			<linearGradient id="SVGID_00000071529325506033593620000002302291122419990405_" gradientUnits="userSpaceOnUse" x1="83.16" y1="344.7825" x2="3.82" y2="344.7825" gradientTransform="matrix(1 0 0 1 0 -293.7325)">
			<stop  offset="0" style="stop-color:#A6CE39"/>
			<stop  offset="0.5" style="stop-color:#03B585"/>
			<stop  offset="1" style="stop-color:#273470"/>
		</linearGradient>
		<polygon style="fill:url(#SVGID_00000071529325506033593620000002302291122419990405_);" points="22.8,51 33.4,44.9 33.4,57.2 		
			"/>
		
			<linearGradient id="SVGID_00000104695411027360368180000005176481911172869528_" gradientUnits="userSpaceOnUse" x1="83.16" y1="337.0825" x2="3.82" y2="337.0825" gradientTransform="matrix(1 0 0 1 0 -293.7325)">
			<stop  offset="0" style="stop-color:#A6CE39"/>
			<stop  offset="0.5" style="stop-color:#03B585"/>
			<stop  offset="1" style="stop-color:#273470"/>
		</linearGradient>
		<polygon style="fill:url(#SVGID_00000104695411027360368180000005176481911172869528_);" points="22.8,37.2 33.4,43.4 22.8,49.5 
					"/>
		
			<linearGradient id="SVGID_00000108275303503892305370000012455610819081774745_" gradientUnits="userSpaceOnUse" x1="84.22" y1="329.4325" x2="4.87" y2="329.4325" gradientTransform="matrix(1 0 0 1 0 -293.7325)">
			<stop  offset="0" style="stop-color:#A6CE39"/>
			<stop  offset="0.5" style="stop-color:#03B585"/>
			<stop  offset="1" style="stop-color:#273470"/>
		</linearGradient>
		<polygon style="fill:url(#SVGID_00000108275303503892305370000012455610819081774745_);" points="23.9,35.7 34.5,29.6 34.5,41.8 
					"/>
		
			<linearGradient id="SVGID_00000091737669611235603260000016192942985090523288_" gradientUnits="userSpaceOnUse" x1="85.82" y1="320.9825" x2="6.47" y2="320.9825" gradientTransform="matrix(1 0 0 1 0 -293.7325)">
			<stop  offset="0" style="stop-color:#A6CE39"/>
			<stop  offset="0.5" style="stop-color:#03B585"/>
			<stop  offset="1" style="stop-color:#273470"/>
		</linearGradient>
		<polygon style="fill:url(#SVGID_00000091737669611235603260000016192942985090523288_);" points="36.1,27.3 46.7,21.1 46.7,33.4 
					"/>
		
			<linearGradient id="SVGID_00000163764807088989855850000007925916224263343033_" gradientUnits="userSpaceOnUse" x1="88.47" y1="320.9825" x2="9.13" y2="320.9825" gradientTransform="matrix(1 0 0 1 0 -293.7325)">
			<stop  offset="0" style="stop-color:#A6CE39"/>
			<stop  offset="0.5" style="stop-color:#03B585"/>
			<stop  offset="1" style="stop-color:#273470"/>
		</linearGradient>
		<polygon style="fill:url(#SVGID_00000163764807088989855850000007925916224263343033_);" points="49.4,21.1 60,27.3 49.4,33.4 		
			"/>
		
			<linearGradient id="SVGID_00000125589408153019173440000012052984702536603282_" gradientUnits="userSpaceOnUse" x1="88.47" y1="328.6825" x2="9.13" y2="328.6825" gradientTransform="matrix(1 0 0 1 0 -293.7325)">
			<stop  offset="0" style="stop-color:#A6CE39"/>
			<stop  offset="0.5" style="stop-color:#03B585"/>
			<stop  offset="1" style="stop-color:#273470"/>
		</linearGradient>
		<polygon style="fill:url(#SVGID_00000125589408153019173440000012052984702536603282_);" points="49.4,34.9 60,28.8 60,41.1 		"/>
		
			<linearGradient id="SVGID_00000074424329927505963260000007600200312531106978_" gradientUnits="userSpaceOnUse" x1="96.59" y1="352.3825" x2="-1.92" y2="352.3825" gradientTransform="matrix(1 0 0 1 0 -293.7325)">
			<stop  offset="0" style="stop-color:#A6CE39"/>
			<stop  offset="0.5" style="stop-color:#03B585"/>
			<stop  offset="1" style="stop-color:#273470"/>
		</linearGradient>
		<polygon style="fill:url(#SVGID_00000074424329927505963260000007600200312531106978_);" points="48,51 61.2,58.7 48,66.3 		"/>
		
			<linearGradient id="SVGID_00000007392463084607318380000004363432938149756047_" gradientUnits="userSpaceOnUse" x1="96.59" y1="344.7825" x2="-1.92" y2="344.7825" gradientTransform="matrix(1 0 0 1 0 -293.7325)">
			<stop  offset="0" style="stop-color:#A6CE39"/>
			<stop  offset="0.5" style="stop-color:#03B585"/>
			<stop  offset="1" style="stop-color:#273470"/>
		</linearGradient>
		<polygon style="fill:url(#SVGID_00000007392463084607318380000004363432938149756047_);" points="48,51 61.2,43.4 61.2,58.7 		"/>
		
			<linearGradient id="SVGID_00000084493050487673985660000002961902438323784333_" gradientUnits="userSpaceOnUse" x1="96.58" y1="344.7825" x2="-1.91" y2="344.7825" gradientTransform="matrix(1 0 0 1 0 -293.7325)">
			<stop  offset="0" style="stop-color:#A6CE39"/>
			<stop  offset="0.5" style="stop-color:#03B585"/>
			<stop  offset="1" style="stop-color:#273470"/>
		</linearGradient>
		<polygon style="fill:url(#SVGID_00000084493050487673985660000002961902438323784333_);" points="34.9,43.4 48,51 34.9,58.7 		"/>
		
			<linearGradient id="SVGID_00000116952893325471222310000014547567738477735323_" gradientUnits="userSpaceOnUse" x1="96.6" y1="337.1325" x2="-1.93" y2="337.1325" gradientTransform="matrix(1 0 0 1 0 -293.7325)">
			<stop  offset="0" style="stop-color:#A6CE39"/>
			<stop  offset="0.5" style="stop-color:#03B585"/>
			<stop  offset="1" style="stop-color:#273470"/>
		</linearGradient>
		<polygon style="fill:url(#SVGID_00000116952893325471222310000014547567738477735323_);" points="34.9,43.4 48,35.8 48,51 		"/>
		
			<linearGradient id="SVGID_00000163764596552501974050000003138825740652885888_" gradientUnits="userSpaceOnUse" x1="85.91" y1="313.0325" x2="6.57" y2="313.0325" gradientTransform="matrix(1 0 0 1 0 -293.7325)">
			<stop  offset="0" style="stop-color:#A6CE39"/>
			<stop  offset="0.5" style="stop-color:#03B585"/>
			<stop  offset="1" style="stop-color:#273470"/>
		</linearGradient>
		<polygon style="fill:url(#SVGID_00000163764596552501974050000003138825740652885888_);" points="45.9,19.3 37.9,23.9 37.9,14.7 
					"/>
		
			<linearGradient id="SVGID_00000051352985254482902960000002956058540915454902_" gradientUnits="userSpaceOnUse" x1="85.27" y1="298.3325" x2="5.93" y2="298.3325" gradientTransform="matrix(1 0 0 1 0 -293.7325)">
			<stop  offset="0" style="stop-color:#A6CE39"/>
			<stop  offset="0.5" style="stop-color:#03B585"/>
			<stop  offset="1" style="stop-color:#273470"/>
		</linearGradient>
		<polygon style="fill:url(#SVGID_00000051352985254482902960000002956058540915454902_);" points="34.7,4.6 42.7,0 42.7,9.2 		"/>
		
			<linearGradient id="SVGID_00000102515262787575480150000017528120668125886602_" gradientUnits="userSpaceOnUse" x1="88.66" y1="299.7325" x2="9.32" y2="299.7325" gradientTransform="matrix(1 0 0 1 0 -293.7325)">
			<stop  offset="0" style="stop-color:#A6CE39"/>
			<stop  offset="0.5" style="stop-color:#03B585"/>
			<stop  offset="1" style="stop-color:#273470"/>
		</linearGradient>
		<polygon style="fill:url(#SVGID_00000102515262787575480150000017528120668125886602_);" points="51.7,1.4 59.6,6 51.7,10.6 		"/>
		
			<linearGradient id="SVGID_00000035499951887880764440000016590457344706857915_" gradientUnits="userSpaceOnUse" x1="96.4" y1="305.1325" x2="17.07" y2="305.1325" gradientTransform="matrix(1 0 0 1 0 -293.7325)">
			<stop  offset="0" style="stop-color:#A6CE39"/>
			<stop  offset="0.5" style="stop-color:#03B585"/>
			<stop  offset="1" style="stop-color:#273470"/>
		</linearGradient>
		<polygon style="fill:url(#SVGID_00000035499951887880764440000016590457344706857915_);" points="69.3,6.8 77.2,11.4 69.3,16 		
			"/>
		
			<linearGradient id="SVGID_00000035522529979365910250000011640718415303811457_" gradientUnits="userSpaceOnUse" x1="90.65" y1="319.0325" x2="11.31" y2="319.0325" gradientTransform="matrix(1 0 0 1 0 -293.7325)">
			<stop  offset="0" style="stop-color:#A6CE39"/>
			<stop  offset="0.5" style="stop-color:#03B585"/>
			<stop  offset="1" style="stop-color:#273470"/>
		</linearGradient>
		<polygon style="fill:url(#SVGID_00000035522529979365910250000011640718415303811457_);" points="61.6,25.3 69.6,20.7 69.6,29.9 
					"/>
		
			<linearGradient id="SVGID_00000145770447432403272280000004890503000009817503_" gradientUnits="userSpaceOnUse" x1="95" y1="328.8325" x2="15.66" y2="328.8325" gradientTransform="matrix(1 0 0 1 0 -293.7325)">
			<stop  offset="0" style="stop-color:#A6CE39"/>
			<stop  offset="0.5" style="stop-color:#03B585"/>
			<stop  offset="1" style="stop-color:#273470"/>
		</linearGradient>
		<polygon style="fill:url(#SVGID_00000145770447432403272280000004890503000009817503_);" points="83.4,35.1 91.3,30.5 91.3,39.7 
					"/>
		
			<linearGradient id="SVGID_00000010999364642540200920000008572629768349530516_" gradientUnits="userSpaceOnUse" x1="93.9" y1="352.9325" x2="14.56" y2="352.9325" gradientTransform="matrix(1 0 0 1 0 -293.7325)">
			<stop  offset="0" style="stop-color:#A6CE39"/>
			<stop  offset="0.5" style="stop-color:#03B585"/>
			<stop  offset="1" style="stop-color:#273470"/>
		</linearGradient>
		<polygon style="fill:url(#SVGID_00000010999364642540200920000008572629768349530516_);" points="77.9,63.8 77.9,54.6 85.8,59.2 
					"/>
		
			<linearGradient id="SVGID_00000124840483549127694380000011547378772621328823_" gradientUnits="userSpaceOnUse" x1="94.01" y1="360.1325" x2="14.66" y2="360.1325" gradientTransform="matrix(1 0 0 1 0 -293.7325)">
			<stop  offset="0" style="stop-color:#A6CE39"/>
			<stop  offset="0.5" style="stop-color:#03B585"/>
			<stop  offset="1" style="stop-color:#273470"/>
		</linearGradient>
		<polygon style="fill:url(#SVGID_00000124840483549127694380000011547378772621328823_);" points="78.4,66.4 86.3,61.8 86.3,71 		
			"/>
		
			<linearGradient id="SVGID_00000151507987517729669460000006202639412664788415_" gradientUnits="userSpaceOnUse" x1="98.9" y1="376.8325" x2="19.56" y2="376.8325" gradientTransform="matrix(1 0 0 1 0 -293.7325)">
			<stop  offset="0" style="stop-color:#A6CE39"/>
			<stop  offset="0.5" style="stop-color:#03B585"/>
			<stop  offset="1" style="stop-color:#273470"/>
		</linearGradient>
		<polygon style="fill:url(#SVGID_00000151507987517729669460000006202639412664788415_);" points="85.9,78.5 93.9,83.1 85.9,87.7 
					"/>
		
			<linearGradient id="SVGID_00000119809895730716010540000005776569687362651529_" gradientUnits="userSpaceOnUse" x1="91.46" y1="379.7325" x2="12.11" y2="379.7325" gradientTransform="matrix(1 0 0 1 0 -293.7325)">
			<stop  offset="0" style="stop-color:#A6CE39"/>
			<stop  offset="0.5" style="stop-color:#03B585"/>
			<stop  offset="1" style="stop-color:#273470"/>
		</linearGradient>
		<polygon style="fill:url(#SVGID_00000119809895730716010540000005776569687362651529_);" points="65.6,90.6 65.6,81.4 73.6,86 		
			"/>
		
			<linearGradient id="SVGID_00000027570502182818835850000015677762842143151804_" gradientUnits="userSpaceOnUse" x1="88.47" y1="376.6325" x2="9.13" y2="376.6325" gradientTransform="matrix(1 0 0 1 0 -293.7325)">
			<stop  offset="0" style="stop-color:#A6CE39"/>
			<stop  offset="0.5" style="stop-color:#03B585"/>
			<stop  offset="1" style="stop-color:#273470"/>
		</linearGradient>
		<polygon style="fill:url(#SVGID_00000027570502182818835850000015677762842143151804_);" points="50.7,82.9 58.7,78.3 58.7,87.5 
					"/>
		
			<linearGradient id="SVGID_00000097464398668016949130000006196451576928012472_" gradientUnits="userSpaceOnUse" x1="84.92" y1="393.3325" x2="5.57" y2="393.3325" gradientTransform="matrix(1 0 0 1 0 -293.7325)">
			<stop  offset="0" style="stop-color:#A6CE39"/>
			<stop  offset="0.5" style="stop-color:#03B585"/>
			<stop  offset="1" style="stop-color:#273470"/>
		</linearGradient>
		<polygon style="fill:url(#SVGID_00000097464398668016949130000006196451576928012472_);" points="32.9,99.6 40.9,95 40.9,104.2 		
			"/>
		
			<linearGradient id="SVGID_00000158030363283030122960000005011443481644766127_" gradientUnits="userSpaceOnUse" x1="85.98" y1="377.1825" x2="6.65" y2="377.1825" gradientTransform="matrix(1 0 0 1 0 -293.7325)">
			<stop  offset="0" style="stop-color:#A6CE39"/>
			<stop  offset="0.5" style="stop-color:#03B585"/>
			<stop  offset="1" style="stop-color:#273470"/>
		</linearGradient>
		<polygon style="fill:url(#SVGID_00000158030363283030122960000005011443481644766127_);" points="38.3,78.8 46.2,83.4 38.3,88.1 
					"/>
		
			<linearGradient id="SVGID_00000020397718153648924030000017527564409127329677_" gradientUnits="userSpaceOnUse" x1="83.16" y1="369.2325" x2="3.82" y2="369.2325" gradientTransform="matrix(1 0 0 1 0 -293.7325)">
			<stop  offset="0" style="stop-color:#A6CE39"/>
			<stop  offset="0.5" style="stop-color:#03B585"/>
			<stop  offset="1" style="stop-color:#273470"/>
		</linearGradient>
		<polygon style="fill:url(#SVGID_00000020397718153648924030000017527564409127329677_);" points="24.1,70.9 32.1,75.5 24.1,80.1 
					"/>
		
			<linearGradient id="SVGID_00000036968243848194892100000005173300539308901566_" gradientUnits="userSpaceOnUse" x1="73.14" y1="375.7325" x2="-6.21" y2="375.7325" gradientTransform="matrix(1 0 0 1 0 -293.7325)">
			<stop  offset="0" style="stop-color:#A6CE39"/>
			<stop  offset="0.5" style="stop-color:#03B585"/>
			<stop  offset="1" style="stop-color:#273470"/>
		</linearGradient>
		<polygon style="fill:url(#SVGID_00000036968243848194892100000005173300539308901566_);" points="3.5,82 11.5,77.4 11.5,86.6 		
			"/>
		
			<linearGradient id="SVGID_00000022521279605472545740000003122000375407224479_" gradientUnits="userSpaceOnUse" x1="75.3" y1="343.4825" x2="-4.04" y2="343.4825" gradientTransform="matrix(1 0 0 1 0 -293.7325)">
			<stop  offset="0" style="stop-color:#A6CE39"/>
			<stop  offset="0.5" style="stop-color:#03B585"/>
			<stop  offset="1" style="stop-color:#273470"/>
		</linearGradient>
		<polygon style="fill:url(#SVGID_00000022521279605472545740000003122000375407224479_);" points="4.8,45.2 12.7,49.8 4.8,54.3 		
			"/>
		
			<linearGradient id="SVGID_00000013163846294875779910000017614009406102709924_" gradientUnits="userSpaceOnUse" x1="80.39" y1="337.1325" x2="1.04" y2="337.1325" gradientTransform="matrix(1 0 0 1 0 -293.7325)">
			<stop  offset="0" style="stop-color:#A6CE39"/>
			<stop  offset="0.5" style="stop-color:#03B585"/>
			<stop  offset="1" style="stop-color:#273470"/>
		</linearGradient>
		<polygon style="fill:url(#SVGID_00000013163846294875779910000017614009406102709924_);" points="10.3,43.4 18.2,38.8 18.2,48 		
			"/>
		
			<linearGradient id="SVGID_00000161621683571568877120000005635706298770138300_" gradientUnits="userSpaceOnUse" x1="78.32" y1="329.4325" x2="-1.01" y2="329.4325" gradientTransform="matrix(1 0 0 1 0 -293.7325)">
			<stop  offset="0" style="stop-color:#A6CE39"/>
			<stop  offset="0.5" style="stop-color:#03B585"/>
			<stop  offset="1" style="stop-color:#273470"/>
		</linearGradient>
		<polygon style="fill:url(#SVGID_00000161621683571568877120000005635706298770138300_);" points="0,31.1 8,35.7 0,40.3 		"/>
		
			<linearGradient id="SVGID_00000054241236961187748070000002092163096680940695_" gradientUnits="userSpaceOnUse" x1="79.62" y1="319.1325" x2="0.27" y2="319.1325" gradientTransform="matrix(1 0 0 1 0 -293.7325)">
			<stop  offset="0" style="stop-color:#A6CE39"/>
			<stop  offset="0.5" style="stop-color:#03B585"/>
			<stop  offset="1" style="stop-color:#273470"/>
		</linearGradient>
		<polygon style="fill:url(#SVGID_00000054241236961187748070000002092163096680940695_);" points="6.4,25.4 14.4,20.8 14.4,30 		
			"/>
		
			<linearGradient id="SVGID_00000176745492441335439950000015809637809123852168_" gradientUnits="userSpaceOnUse" x1="83.16" y1="318.1325" x2="3.82" y2="318.1325" gradientTransform="matrix(1 0 0 1 0 -293.7325)">
			<stop  offset="0" style="stop-color:#A6CE39"/>
			<stop  offset="0.5" style="stop-color:#03B585"/>
			<stop  offset="1" style="stop-color:#273470"/>
		</linearGradient>
		<polygon style="fill:url(#SVGID_00000176745492441335439950000015809637809123852168_);" points="24.1,19.8 32.1,24.4 24.1,29 		
			"/>
		
			<linearGradient id="SVGID_00000123440915492083189060000011290978404614043540_" gradientUnits="userSpaceOnUse" x1="66.69" y1="362.7325" x2="-12.65" y2="362.7325" gradientTransform="matrix(1 0 0 1 0 -293.7325)">
			<stop  offset="0" style="stop-color:#A6CE39"/>
			<stop  offset="0.5" style="stop-color:#03B585"/>
			<stop  offset="1" style="stop-color:#273470"/>
		</linearGradient>
		<polygon style="fill:url(#SVGID_00000123440915492083189060000011290978404614043540_);" points="2,65 8.9,69 2,73 		"/>
		
			<linearGradient id="SVGID_00000013193400422725292650000005384513240663516817_" gradientUnits="userSpaceOnUse" x1="88.47" y1="389.5325" x2="9.13" y2="389.5325" gradientTransform="matrix(1 0 0 1 0 -293.7325)">
			<stop  offset="0" style="stop-color:#A6CE39"/>
			<stop  offset="0.5" style="stop-color:#03B585"/>
			<stop  offset="1" style="stop-color:#273470"/>
		</linearGradient>
		<polygon style="fill:url(#SVGID_00000013193400422725292650000005384513240663516817_);" points="50.7,100.4 50.7,91.2 58.7,95.8 
			58.7,95.8 		"/>
	</g>
</g>
<g>
	<path d="M153.6,15v30.2h11V8.6L153.6,15z"/>
	<path d="M190.3,37c-5.3,0-9.1-4.2-9.1-10.2s3.8-10.1,9.2-10.1c3.9,0,7.2,2.7,8.1,6.4l9.2-5.2C205,11.6,198.2,7.3,190,7.3
		c-11.5,0-19.8,8.2-19.8,19.5s8.4,19.5,19.9,19.5c10.1,0,17.9-6.1,18.7-14.6l-10.3-1.2C197.6,34.3,194.3,37,190.3,37z"/>
	<polygon points="136.2,14.6 136.2,31.7 123.6,8.6 112.2,15.2 112.2,45.1 122.4,45.1 122.4,21.9 135,45.1 146.5,45.1 146.5,8.6 	"/>
	<polygon points="121.2,84.1 121.2,84.1 115,74.7 113.4,74.7 113.4,86.3 114.8,86.3 114.8,77 114.9,77 121,86.3 122.6,86.3 
		122.6,74.7 121.2,74.7 	"/>
	<path d="M131.5,85c0-0.2-0.1-0.5-0.1-0.7V80c0-0.4-0.1-0.8-0.3-1.2c-0.2-0.3-0.4-0.6-0.7-0.7c-0.3-0.2-0.6-0.3-1-0.3
		s-0.8-0.1-1.2,0c-0.5,0-0.9,0-1.3,0.1c-0.4,0.1-0.8,0.3-1.1,0.5c-0.3,0.2-0.6,0.5-0.8,0.9c-0.2,0.4-0.3,0.9-0.3,1.3h1.4
		c0-0.5,0.2-1,0.6-1.3c0.5-0.2,1-0.4,1.5-0.3c0.2,0,0.4,0,0.7,0c0.2,0,0.4,0.1,0.6,0.2c0.2,0.1,0.3,0.2,0.4,0.4
		c0.1,0.2,0.2,0.5,0.2,0.7c0,0.2-0.1,0.4-0.2,0.6c-0.2,0.2-0.4,0.3-0.6,0.3c-0.3,0.1-0.6,0.1-0.9,0.2c-0.4,0-0.7,0.1-1.1,0.2
		c-0.4,0.1-0.7,0.1-1.1,0.3c-0.3,0.1-0.6,0.2-0.9,0.4c-0.3,0.2-0.5,0.4-0.7,0.7c-0.3,0.7-0.3,1.5,0,2.3c0.1,0.3,0.3,0.5,0.6,0.7
		c0.3,0.2,0.6,0.3,0.9,0.4c0.4,0.1,0.7,0.1,1.1,0.1c0.6,0,1.1-0.1,1.6-0.3s1-0.6,1.3-1c0,0.4,0.1,0.7,0.3,1c0.2,0.2,0.5,0.3,0.9,0.3
		c0.3,0,0.7-0.1,1-0.2v-1.1c-0.1,0-0.3,0.1-0.4,0.1C131.6,85.3,131.5,85.2,131.5,85z M130.1,83.4c0,0.2-0.1,0.4-0.1,0.6
		c-0.1,0.2-0.3,0.4-0.5,0.6s-0.5,0.4-0.8,0.5c-0.4,0.1-0.8,0.2-1.2,0.2c-0.2,0-0.4,0-0.6-0.1c-0.2,0-0.4-0.1-0.5-0.2
		c-0.2-0.1-0.3-0.2-0.4-0.4c-0.1-0.2-0.1-0.4-0.1-0.6s0-0.5,0.1-0.7c0.1-0.2,0.2-0.3,0.4-0.4c0.2-0.1,0.3-0.2,0.5-0.3
		c0.2-0.1,0.4-0.1,0.7-0.2c0.2,0,0.5-0.1,0.7-0.1l0.7-0.1c0.2,0,0.4-0.1,0.6-0.1c0.2,0,0.3-0.1,0.5-0.2
		C130.1,81.9,130.1,83.4,130.1,83.4z"/>
	<path d="M135.5,75.4h-1.4v2.5h-1.4v1.2h1.4v5.4c0,0.3,0,0.6,0.1,0.9c0.1,0.2,0.2,0.4,0.4,0.6c0.2,0.1,0.4,0.2,0.6,0.3
		c0.3,0.1,0.6,0.1,0.9,0.1h1.1v-1.2h-0.6c-0.2,0-0.4,0-0.5,0c-0.1,0-0.2,0-0.3-0.1c-0.1-0.1-0.1-0.1-0.2-0.2c0-0.1,0-0.3,0-0.4v-5.2
		h1.7v-1.2h-1.7L135.5,75.4z"/>
	<rect x="138.8" y="77.9" width="1.4" height="8.4"/>
	<path d="M148.9,79c-0.4-0.4-0.8-0.7-1.3-0.9c-1.1-0.5-2.4-0.5-3.5,0c-0.5,0.2-0.9,0.5-1.3,0.9c-0.4,0.4-0.6,0.9-0.8,1.4
		c-0.3,1.1-0.3,2.3,0,3.5c0.2,0.5,0.4,1,0.8,1.4c0.4,0.4,0.8,0.8,1.3,1c1.1,0.5,2.4,0.5,3.5,0c0.5-0.2,0.9-0.6,1.3-1
		c0.4-0.4,0.6-0.9,0.8-1.4c0.3-1.1,0.3-2.3,0-3.5C149.5,79.9,149.3,79.4,148.9,79z M148.3,83.4c-0.1,0.4-0.3,0.7-0.6,1
		c-0.2,0.3-0.5,0.5-0.8,0.6s-0.7,0.2-1,0.2c-0.7,0-1.4-0.3-1.9-0.8c-0.3-0.3-0.4-0.6-0.6-1c-0.1-0.4-0.2-0.9-0.2-1.4
		c0-0.5,0.1-0.9,0.2-1.4c0.1-0.4,0.3-0.7,0.6-1c0.2-0.3,0.5-0.5,0.8-0.6s0.7-0.2,1-0.2s0.7,0.1,1,0.2s0.6,0.4,0.8,0.6
		c0.3,0.3,0.4,0.6,0.6,1c0.1,0.4,0.2,0.9,0.2,1.4C148.5,82.5,148.4,83,148.3,83.4L148.3,83.4z"/>
	<path d="M157.9,78.6c-0.2-0.3-0.6-0.5-0.9-0.6c-0.4-0.2-0.9-0.2-1.4-0.2c-0.6,0-1.1,0.1-1.6,0.4s-0.9,0.7-1.1,1.2l0,0v-1.3h-1.3
		v8.4h1.4v-4.9c0-0.4,0-0.7,0.1-1.1c0.1-0.3,0.3-0.6,0.5-0.8c0.2-0.2,0.5-0.4,0.8-0.6c0.3-0.1,0.7-0.2,1.1-0.2
		c0.5,0,0.9,0.1,1.3,0.5c0.3,0.3,0.5,0.8,0.5,1.3v5.6h1.4v-5.5c0-0.4,0-0.8-0.1-1.3C158.3,79.2,158.2,78.9,157.9,78.6z"/>
	<path d="M167.2,85c0-0.2-0.1-0.5-0.1-0.7V80c0-0.4-0.1-0.8-0.3-1.2c-0.2-0.3-0.4-0.5-0.7-0.7c-0.3-0.2-0.7-0.3-1-0.3
		c-0.4-0.1-0.8-0.1-1.1-0.1c-0.5,0-0.9,0-1.4,0.1c-0.4,0.1-0.8,0.3-1.1,0.5c-0.3,0.2-0.6,0.5-0.8,0.9c-0.2,0.4-0.3,0.9-0.3,1.3h1.4
		c0-0.5,0.2-1,0.6-1.3c0.5-0.2,1-0.4,1.5-0.3c0.2,0,0.4,0,0.7,0c0.2,0,0.4,0.1,0.6,0.2s0.3,0.2,0.4,0.4c0.1,0.2,0.2,0.5,0.2,0.7
		c0,0.2-0.1,0.4-0.2,0.6c-0.2,0.2-0.4,0.3-0.6,0.3c-0.3,0.1-0.6,0.1-0.9,0.2c-0.4,0-0.7,0.1-1.1,0.2c-0.4,0.1-0.7,0.1-1.1,0.3
		c-0.3,0.1-0.6,0.2-0.9,0.4s-0.5,0.4-0.6,0.7c-0.2,0.4-0.3,0.8-0.2,1.2c0,0.4,0.1,0.7,0.2,1.1c0.1,0.3,0.3,0.5,0.6,0.7
		c0.3,0.2,0.6,0.3,0.9,0.4c0.4,0.1,0.7,0.1,1.1,0.1c0.6,0,1.1-0.1,1.6-0.3s1-0.6,1.3-1c0,0.4,0.1,0.7,0.3,1c0.2,0.2,0.5,0.3,0.9,0.3
		c0.3,0,0.7-0.1,1-0.2v-1c-0.1,0-0.3,0.1-0.4,0.1C167.4,85.3,167.3,85.2,167.2,85z M165.8,83.4c0,0.2-0.1,0.4-0.1,0.6
		c-0.1,0.2-0.3,0.4-0.5,0.6c-0.2,0.2-0.5,0.4-0.8,0.5c-0.6,0.2-1.2,0.2-1.8,0.1c-0.2,0-0.4-0.1-0.5-0.2c-0.2-0.1-0.3-0.2-0.4-0.4
		c-0.1-0.2-0.1-0.4-0.1-0.6s0-0.5,0.1-0.7c0.1-0.2,0.2-0.3,0.4-0.4c0.2-0.1,0.3-0.2,0.5-0.3c0.2-0.1,0.4-0.1,0.6-0.2
		c0.2,0,0.5-0.1,0.7-0.1l0.7-0.1c0.2,0,0.4-0.1,0.6-0.1s0.3-0.1,0.5-0.2L165.8,83.4z"/>
	<rect x="169.3" y="74.7" width="1.4" height="11.6"/>
	<rect x="177.6" y="74.7" width="1.6" height="11.6"/>
	<path d="M187.8,78.6c-0.2-0.3-0.6-0.5-0.9-0.6c-0.4-0.2-0.9-0.2-1.4-0.2c-0.6,0-1.1,0.1-1.6,0.4c-0.5,0.3-0.9,0.7-1.1,1.2l0,0v-1.3
		h-1.4v8.4h1.4v-4.9c0-0.4,0-0.7,0.2-1.1c0.1-0.3,0.2-0.6,0.5-0.8c0.2-0.2,0.5-0.4,0.8-0.6c0.3-0.1,0.7-0.2,1.1-0.2
		c0.5,0,0.9,0.1,1.3,0.5c0.3,0.3,0.5,0.8,0.5,1.3v5.6h1.4v-5.5c0-0.4,0-0.8-0.1-1.3C188.2,79.2,188,78.9,187.8,78.6z"/>
	<path d="M193.4,74.6c-0.6,0-1.2,0.1-1.7,0.5c-0.4,0.4-0.6,1-0.6,1.6V78h-1.4v1.2h1.4v7.1h1.4v-7.1h1.6V78h-1.6v-1.2
		c0-0.3,0.1-0.6,0.3-0.8c0.2-0.1,0.5-0.2,0.8-0.2c0.1,0,0.3,0,0.4,0c0.1,0,0.3,0,0.4,0.1v-1.2c-0.1,0-0.3-0.1-0.4-0.1L193.4,74.6z"
		/>
	<path d="M202,79c-0.4-0.4-0.8-0.7-1.3-0.9c-0.6-0.2-1.2-0.4-1.8-0.3c-0.6,0-1.2,0.1-1.8,0.3c-0.5,0.2-0.9,0.5-1.3,0.9
		c-0.4,0.4-0.6,0.9-0.8,1.4c-0.3,1.1-0.3,2.3,0,3.5c0.2,0.5,0.4,1,0.8,1.4c0.3,0.4,0.8,0.8,1.3,1c0.6,0.2,1.2,0.3,1.8,0.3
		s1.2-0.1,1.8-0.3c0.5-0.2,0.9-0.6,1.3-1c0.4-0.4,0.6-0.9,0.8-1.4c0.4-1.1,0.4-2.3,0-3.5C202.6,79.9,202.3,79.4,202,79z M201.3,83.5
		c-0.1,0.4-0.3,0.7-0.6,1c-0.7,0.8-1.9,1-2.9,0.6c-0.3-0.1-0.6-0.3-0.9-0.6c-0.3-0.3-0.4-0.6-0.6-1c0-0.5-0.1-1-0.1-1.4
		c0-0.5,0.1-0.9,0.2-1.4c0.1-0.4,0.3-0.7,0.6-1c0.2-0.3,0.5-0.5,0.9-0.6c0.6-0.3,1.4-0.3,2,0c0.3,0.1,0.6,0.4,0.8,0.6
		c0.3,0.3,0.4,0.6,0.6,1c0.1,0.4,0.2,0.9,0.2,1.4C201.5,82.5,201.4,83,201.3,83.5z"/>
	<path d="M205.9,79.7L205.9,79.7v-1.8h-1.3v8.4h1.4v-3.8c0-0.5,0.1-1,0.2-1.4c0.1-0.4,0.3-0.8,0.5-1.1c0.3-0.3,0.6-0.5,1-0.7
		c0.5-0.2,0.9-0.2,1.4-0.2v-1.4c-0.7,0-1.3,0.1-1.9,0.5C206.6,78.6,206.2,79.1,205.9,79.7z"/>
	<path d="M221,78.3c-0.3-0.2-0.6-0.4-0.9-0.4c-0.4-0.1-0.8-0.1-1.1-0.1c-0.5,0-1.1,0.1-1.5,0.4c-0.5,0.2-0.9,0.6-1.1,1.1
		c-0.1-0.5-0.5-0.9-0.9-1.1c-0.4-0.2-0.9-0.3-1.4-0.3c-1.1,0-2.1,0.5-2.7,1.4l0,0V78h-1.3v8.4h1.4v-5.2c0-0.2,0-0.4,0.1-0.6
		c0.1-0.3,0.2-0.5,0.4-0.7c0.2-0.2,0.4-0.4,0.7-0.6c0.3-0.2,0.7-0.3,1-0.3s0.5,0,0.8,0.1c0.2,0.1,0.4,0.2,0.5,0.4
		c0.1,0.2,0.2,0.4,0.3,0.6c0.1,0.2,0.1,0.5,0.1,0.8v5.4h1.4V81c0-0.6,0.2-1.1,0.6-1.6c0.4-0.4,1-0.6,1.6-0.6c0.3,0,0.6,0,0.8,0.2
		c0.2,0.1,0.4,0.2,0.5,0.4c0.1,0.2,0.2,0.4,0.3,0.6c0,0.2,0.1,0.5,0.1,0.7v5.4h1.4V80c0-0.4-0.1-0.8-0.2-1.1
		C221.4,78.8,221.2,78.5,221,78.3z"/>
	<path d="M230.5,85c0-0.2-0.1-0.5-0.1-0.7V80c0-0.4-0.1-0.8-0.3-1.2c-0.2-0.3-0.4-0.5-0.7-0.7s-0.7-0.3-1-0.3
		c-0.4-0.1-0.8-0.1-1.1-0.1c-0.5,0-0.9,0-1.3,0.1c-0.4,0.1-0.8,0.3-1.1,0.5c-0.3,0.2-0.6,0.5-0.8,0.9c-0.2,0.4-0.3,0.9-0.3,1.3h1.4
		c0-0.5,0.2-1,0.6-1.3c0.5-0.2,1-0.4,1.5-0.3c0.2,0,0.4,0,0.7,0c0.2,0,0.4,0.1,0.6,0.2s0.3,0.3,0.4,0.4c0.1,0.2,0.2,0.5,0.2,0.7
		c0,0.2-0.1,0.4-0.2,0.6c-0.2,0.2-0.4,0.3-0.6,0.3c-0.3,0.1-0.6,0.1-0.9,0.2c-0.3,0-0.7,0.1-1.1,0.2c-0.3,0.1-0.7,0.1-1,0.3
		c-0.3,0.1-0.6,0.2-0.9,0.4c-0.3,0.2-0.5,0.4-0.6,0.7c-0.2,0.4-0.3,0.8-0.2,1.2c0,0.4,0.1,0.7,0.2,1.1c0.1,0.3,0.3,0.5,0.6,0.7
		c0.3,0.2,0.6,0.3,0.9,0.4c0.9,0.2,1.9,0.2,2.7-0.2c0.5-0.2,1-0.6,1.3-1c0,0.4,0.1,0.7,0.3,1c0.2,0.2,0.5,0.3,0.9,0.3
		c0.3,0,0.7-0.1,1-0.2v-1c-0.1,0-0.3,0.1-0.4,0.1C230.6,85.3,230.5,85.2,230.5,85z M229,83.4c0,0.2-0.1,0.4-0.1,0.6
		c-0.1,0.2-0.3,0.4-0.5,0.6c-0.2,0.2-0.5,0.4-0.8,0.5c-0.4,0.1-0.8,0.2-1.2,0.2c-0.2,0-0.4,0-0.6-0.1c-0.2,0-0.4-0.1-0.5-0.2
		c-0.2-0.1-0.3-0.2-0.4-0.4c-0.1-0.2-0.1-0.4-0.1-0.6s0-0.5,0.1-0.7c0.1-0.2,0.2-0.3,0.4-0.4s0.3-0.2,0.5-0.3
		c0.2-0.1,0.4-0.1,0.6-0.2c0.2,0,0.5-0.1,0.7-0.1l0.7-0.1c0.2,0,0.4-0.1,0.6-0.1s0.3-0.1,0.5-0.2L229,83.4z"/>
	<path d="M234.4,75.4H233v2.5h-1.4v1.2h1.4v5.4c0,0.3,0,0.6,0.1,0.9c0.1,0.2,0.2,0.4,0.4,0.6c0.2,0.1,0.4,0.2,0.6,0.3
		c0.3,0.1,0.6,0.1,0.9,0.1h1.1v-1.2h-0.6c-0.2,0-0.4,0-0.5,0s-0.2,0-0.3-0.1c-0.1,0-0.1-0.1-0.1-0.2s-0.1-0.3-0.1-0.4v-5.2h1.7v-1.2
		h-1.7L234.4,75.4z"/>
	<rect x="237.7" y="77.9" width="1.4" height="8.4"/>
	<path d="M247.8,79c-0.4-0.4-0.8-0.7-1.3-0.9c-0.5-0.2-1.1-0.3-1.7-0.3s-1.2,0.1-1.8,0.3c-0.5,0.2-0.9,0.5-1.3,0.9s-0.6,0.9-0.8,1.4
		c-0.3,1.1-0.3,2.3,0,3.5c0.2,0.5,0.4,1,0.8,1.4c0.3,0.4,0.8,0.8,1.3,1c0.6,0.2,1.2,0.3,1.8,0.3c0.6,0,1.2-0.1,1.8-0.3
		c0.5-0.2,0.9-0.6,1.3-1c0.4-0.4,0.6-0.9,0.8-1.4c0.4-1.1,0.4-2.3,0-3.5C248.5,79.9,248.2,79.4,247.8,79z M247.2,83.4
		c-0.1,0.4-0.3,0.7-0.6,1c-0.7,0.8-1.9,1-2.9,0.6c-0.3-0.1-0.6-0.3-0.9-0.6c-0.3-0.3-0.4-0.6-0.6-1c-0.1-0.4-0.2-0.9-0.2-1.4
		c0-0.5,0.1-0.9,0.2-1.4c0.1-0.4,0.3-0.7,0.6-1c0.2-0.3,0.5-0.5,0.9-0.6c0.6-0.3,1.4-0.3,2,0c0.3,0.1,0.6,0.4,0.8,0.6
		c0.3,0.3,0.4,0.6,0.6,1c0.1,0.4,0.2,0.9,0.2,1.4C247.4,82.5,247.3,83,247.2,83.4L247.2,83.4z"/>
	<path d="M256.8,78.6c-0.2-0.3-0.6-0.5-0.9-0.6c-0.4-0.2-0.9-0.2-1.4-0.2c-0.6,0-1.1,0.1-1.6,0.4c-0.5,0.3-0.9,0.7-1.1,1.2l0,0v-1.3
		h-1.3v8.4h1.4v-4.9c0-0.4,0-0.7,0.2-1.1c0.1-0.3,0.3-0.6,0.5-0.8s0.5-0.4,0.8-0.6c0.4-0.1,0.7-0.2,1.1-0.2c0.5,0,0.9,0.1,1.3,0.5
		c0.3,0.3,0.5,0.8,0.5,1.3v5.6h1.4v-5.5c0-0.4,0-0.8-0.1-1.3C257.2,79.2,257.1,78.9,256.8,78.6z"/>
	<path d="M272.2,83.2c-0.2,0.4-0.4,0.8-0.7,1.1c-0.3,0.3-0.6,0.5-1,0.7c-0.4,0.2-0.9,0.3-1.4,0.3c-0.6,0-1.2-0.1-1.8-0.4
		c-0.5-0.2-0.9-0.6-1.2-1.1c-0.3-0.5-0.6-1-0.7-1.6c-0.2-0.6-0.2-1.3-0.2-1.9c0-0.6,0.1-1.2,0.2-1.8c0.1-0.5,0.4-1.1,0.7-1.5
		c0.3-0.4,0.7-0.8,1.2-1.1c0.6-0.3,1.2-0.4,1.8-0.4c0.4,0,0.8,0.1,1.1,0.2c0.4,0.1,0.7,0.3,1,0.5c0.3,0.2,0.5,0.5,0.7,0.8
		c0.2,0.3,0.3,0.7,0.4,1.1h1.6c-0.1-0.6-0.3-1.1-0.6-1.7c-0.3-0.5-0.6-0.9-1.1-1.2c-0.4-0.3-0.9-0.6-1.5-0.7
		c-0.6-0.2-1.2-0.3-1.7-0.3c-0.8,0-1.6,0.1-2.4,0.5c-0.7,0.3-1.3,0.8-1.7,1.3c-0.5,0.6-0.8,1.3-1.1,2c-0.3,0.8-0.4,1.5-0.4,2.3
		c0,0.8,0.1,1.6,0.3,2.4c0.2,0.7,0.5,1.4,1,1.9c0.5,0.6,1,1,1.7,1.3c0.7,0.3,1.6,0.5,2.4,0.5c1.3,0.1,2.6-0.4,3.6-1.2
		c0.9-0.9,1.5-2.1,1.5-3.4h-1.5C272.4,82.4,272.3,82.8,272.2,83.2z"/>
	<path d="M282.2,79.4c-0.3-0.5-0.7-0.9-1.2-1.2c-0.6-0.3-1.2-0.5-1.9-0.4c-0.5,0-1.1,0.1-1.6,0.3c-0.5,0.2-0.9,0.5-1.3,0.9
		c-0.4,0.4-0.6,0.9-0.8,1.4c-0.2,0.6-0.3,1.2-0.3,1.8s0.1,1.2,0.3,1.8c0.2,0.5,0.4,1,0.8,1.4c0.3,0.4,0.8,0.7,1.3,0.9
		c0.6,0.2,1.2,0.4,1.8,0.3c0.9,0,1.7-0.2,2.4-0.7c0.7-0.5,1.1-1.3,1.2-2.1h-1.4c-0.1,0.5-0.3,0.9-0.8,1.2c-0.4,0.3-0.9,0.4-1.4,0.4
		c-0.4,0-0.8-0.1-1.2-0.2c-0.6-0.3-1.1-0.8-1.3-1.5c-0.1-0.3-0.1-0.7-0.1-1.1h6.2c0-0.5,0-1.1-0.1-1.6
		C282.7,80.3,282.5,79.9,282.2,79.4z M276.7,81.3c0-0.3,0.1-0.6,0.2-0.9c0.1-0.3,0.3-0.5,0.5-0.8c0.2-0.2,0.5-0.4,0.7-0.5
		c0.3-0.1,0.7-0.2,1-0.2c0.3,0,0.6,0.1,1,0.2c0.3,0.1,0.5,0.3,0.8,0.5c0.2,0.2,0.4,0.5,0.5,0.8c0.1,0.3,0.2,0.6,0.2,0.9H276.7z"/>
	<path d="M290.7,78.6c-0.2-0.3-0.6-0.5-0.9-0.6c-0.4-0.2-0.9-0.2-1.4-0.2c-0.6,0-1.1,0.1-1.6,0.4s-0.9,0.7-1.1,1.2l0,0v-1.3h-1.3
		v8.4h1.4v-4.9c0-0.4,0-0.7,0.1-1.1c0.1-0.3,0.3-0.6,0.5-0.8c0.2-0.2,0.5-0.4,0.8-0.6c0.3-0.1,0.7-0.2,1.1-0.2
		c0.5,0,0.9,0.1,1.3,0.5c0.3,0.3,0.5,0.8,0.5,1.3v5.6h1.4v-5.5c0-0.4,0-0.8-0.1-1.3C291.1,79.2,290.9,78.9,290.7,78.6z"/>
	<path d="M295.3,75.4h-1.4v2.5h-1.4v1.2h1.4v5.4c0,0.3,0,0.6,0.1,0.9c0.1,0.2,0.2,0.4,0.4,0.6c0.2,0.1,0.4,0.2,0.6,0.3
		c0.3,0.1,0.6,0.1,0.9,0.1h1.1v-1.2h-0.7c-0.2,0-0.4,0-0.5,0s-0.2,0-0.3-0.1c-0.1-0.1-0.1-0.2-0.1-0.3c0-0.1,0-0.3,0-0.4v-5.1h1.7
		v-1.2h-1.7L295.3,75.4L295.3,75.4z"/>
	<path d="M305,79.4c-0.3-0.5-0.7-0.9-1.2-1.2c-0.6-0.3-1.2-0.5-1.9-0.5c-0.5,0-1.1,0.1-1.6,0.3c-0.5,0.2-0.9,0.5-1.3,0.9
		c-0.4,0.4-0.6,0.9-0.8,1.4c-0.2,0.6-0.3,1.2-0.3,1.8s0.1,1.2,0.3,1.8c0.2,0.5,0.4,1,0.8,1.4c0.3,0.4,0.8,0.7,1.3,0.9
		c0.6,0.2,1.2,0.4,1.8,0.3c0.9,0,1.7-0.2,2.4-0.7s1.1-1.3,1.2-2.1h-1.4c-0.1,0.5-0.3,0.9-0.8,1.2c-0.4,0.3-0.9,0.4-1.4,0.4
		c-0.4,0-0.8-0.1-1.2-0.2c-0.3-0.1-0.6-0.3-0.8-0.6c-0.2-0.3-0.4-0.6-0.5-0.9c-0.1-0.3-0.1-0.7-0.1-1.1h6.2c0-0.5,0-1.1-0.1-1.6
		C305.5,80.3,305.3,79.9,305,79.4z M299.5,81.3c0-0.3,0.1-0.6,0.2-0.9c0.1-0.3,0.3-0.5,0.5-0.8c0.2-0.2,0.5-0.4,0.7-0.5
		c0.3-0.1,0.7-0.2,1-0.2c0.3,0,0.6,0.1,0.9,0.2c0.3,0.1,0.5,0.3,0.8,0.5c0.2,0.2,0.4,0.5,0.5,0.8c0.1,0.3,0.2,0.6,0.2,0.9H299.5z"/>
	<path d="M308.4,79.7L308.4,79.7v-1.8h-1.3v8.4h1.4v-3.8c0-0.5,0-1,0.2-1.4c0.1-0.4,0.3-0.8,0.5-1.1c0.3-0.3,0.6-0.5,1-0.7
		c0.5-0.2,0.9-0.2,1.4-0.2v-1.4c-0.7,0-1.3,0.1-1.9,0.5C309.2,78.6,308.7,79.1,308.4,79.7z"/>
	<polygon points="140.2,74.7 138.8,74.7 138.8,76.4 140.2,75.6 	"/>
	<polygon points="239.1,74.7 237.7,74.7 237.7,76.4 239.1,75.6 	"/>
	<path d="M127.1,66.1c0.5-0.1,0.8-0.5,1-0.9c0.1,0.3,0.3,0.6,0.5,0.8c0.3,0.2,0.7,0.3,1.1,0.3h13.9v-2.9c0.1-1-0.3-2.1-0.9-2.9
		c-0.7-0.7-1.6-1.1-2.6-1c-1,0-1.9,0.3-2.7,0.8c-0.8,0.6-1.5,1.3-2,2.2v-8.3H134v10.7h-4.4c-0.3,0-0.5,0-0.7-0.1
		c-0.2-0.1-0.3-0.2-0.5-0.4c-0.1-0.2-0.2-0.4-0.2-0.6c0-0.3-0.1-0.5-0.1-0.8v-3.3h-1.4v3.9c0,0.2,0,0.5-0.1,0.7
		c-0.1,0.2-0.2,0.3-0.3,0.4c-0.1,0.1-0.3,0.1-0.5,0.2c-0.2,0-0.5,0-0.7,0h-2.8c-1.4,0-2.8-0.3-4.1-0.8v1.4c0.4,0,0.7,0.1,1.2,0.2
		c0.4,0.1,0.8,0.3,1.3,0.4c0.4,0.1,0.7,0.3,1,0.5c0.2,0.2,0.4,0.4,0.4,0.7c0,0.2-0.1,0.5-0.3,0.6c-0.3,0.2-0.6,0.4-0.9,0.4
		c-0.6,0.3-1,0.4-1.5,0.4c-0.5,0.1-1.1,0.1-1.6,0.1c-1.2,0.1-2.3-0.2-3.4-0.7c-0.7-0.5-1.1-1.3-1-2.2v-2.3h-1.4v2.6
		c0,0.5,0.1,1.1,0.3,1.6c0.2,0.5,0.5,0.9,0.9,1.3c0.5,0.4,1.1,0.7,1.8,0.9c0.9,0.2,1.9,0.3,2.8,0.3c0.9,0,1.8-0.1,2.6-0.2
		c0.6-0.1,1.2-0.3,1.7-0.6c0.4-0.2,0.8-0.5,1-0.9c0.2-0.3,0.3-0.6,0.3-1c0-0.2,0-0.5-0.1-0.7c-0.1-0.2-0.2-0.4-0.3-0.6h2.6
		C126.1,66.3,126.6,66.2,127.1,66.1z M136.1,63.5c0.3-0.5,0.6-0.9,1-1.3c0.4-0.4,0.8-0.7,1.3-0.9c0.4-0.3,1-0.4,1.5-0.4
		c0.4,0,0.8,0.1,1.1,0.2c0.3,0.1,0.6,0.3,0.8,0.6c0.2,0.3,0.3,0.6,0.4,0.9c0.1,0.4,0.1,0.7,0.1,1.1v1.2h-6.8
		C135.6,64.4,135.8,63.9,136.1,63.5L136.1,63.5z"/>
	<path d="M156.9,66.3V54.2h-1.4v10.7h-3.8v-0.8c0-0.6-0.1-1.2-0.2-1.8c-0.1-0.5-0.3-1-0.6-1.4c-0.3-0.4-0.6-0.7-1-0.9
		c-0.5-0.2-1-0.3-1.5-0.3c-0.5,0-1,0.1-1.4,0.3c-0.4,0.2-0.8,0.5-1.1,0.8c-0.3,0.3-0.5,0.7-0.7,1.2c-0.2,0.4-0.2,0.9-0.2,1.4
		s0.1,1,0.3,1.4c0.1,0.4,0.4,0.7,0.7,0.9c0.3,0.2,0.6,0.4,1,0.5s0.8,0.2,1.3,0.2h1.9c0,0.4-0.1,0.8-0.3,1.1
		c-0.2,0.3-0.5,0.5-0.8,0.7c-0.4,0.2-0.8,0.3-1.1,0.3c-0.5,0.1-1,0.1-1.5,0.1h-0.5V70h0.8c0.7,0,1.3,0,1.9-0.2
		c0.5-0.1,1-0.3,1.5-0.6c0.4-0.3,0.8-0.6,1-1.1c0.3-0.5,0.4-1.1,0.4-1.7L156.9,66.3z M150.3,64.9h-1.8c-0.5,0-1-0.1-1.5-0.4
		c-0.4-0.3-0.5-0.8-0.5-1.3c0-0.3,0-0.5,0.1-0.8c0.1-0.3,0.2-0.5,0.4-0.7c0.3-0.5,0.9-0.7,1.4-0.7c0.6-0.1,1.2,0.2,1.5,0.8
		c0.3,0.6,0.5,1.3,0.4,2C150.3,63.8,150.3,64.9,150.3,64.9z"/>
	<rect x="159.2" y="54.2" width="1.4" height="12"/>
	<path d="M178.7,64.9h-8.2c-0.5,0-1,0-1.3,0s-0.6-0.1-0.8-0.2c-0.2-0.1-0.4-0.3-0.4-0.5c-0.1-0.3-0.1-0.6-0.1-0.8v-2.2h-1.4v2.6
		c0,0.4,0,0.8,0.2,1.1c0.1,0.3,0.3,0.6,0.6,0.8c0.3,0.2,0.7,0.4,1.1,0.4c0.5,0.1,1.1,0.1,1.6,0.1h10.2v-6.4h-1.4L178.7,64.9z"/>
	<path d="M190.5,65.3c0.5,0.4,1.1,0.7,1.7,0.9c0.5,0.2,1.1,0.3,1.6,0.3c0.8,0.1,1.6-0.3,2.2-0.9c0.5-0.7,0.7-1.5,0.7-2.3
		c0-0.5-0.1-1-0.2-1.4c-0.1-0.4-0.4-0.8-0.6-1.1c-0.3-0.3-0.6-0.5-0.9-0.7c-0.4-0.2-0.8-0.3-1.2-0.3c-0.3,0-0.6,0-0.9,0.1
		c-0.3,0.1-0.7,0.3-0.9,0.5c-0.3,0.3-0.6,0.6-0.9,1c-0.3,0.6-0.6,1.1-0.8,1.8c-0.1,0.3-0.2,0.6-0.4,0.8c-0.1,0.2-0.3,0.3-0.4,0.5
		c-0.1,0.1-0.3,0.2-0.4,0.2c-0.1,0.1-0.3,0.1-0.4,0.2h-3.5c-0.5,0-0.8-0.1-1-0.3c-0.2-0.3-0.2-0.7-0.2-1v-9.3h-1.7V64
		c0,0.4,0,0.8,0.2,1.1c0.1,0.3,0.3,0.5,0.5,0.7c0.2,0.2,0.5,0.3,0.8,0.4s0.7,0.1,1,0.1h3.6c0.2,0,0.4,0,0.6,0s0.4,0,0.5-0.1
		c0.2-0.1,0.3-0.2,0.5-0.3C190.2,65.7,190.4,65.5,190.5,65.3z M192.3,61.9c0.3-0.4,0.8-0.6,1.3-0.6c0.3,0,0.5,0.1,0.7,0.2
		c0.2,0.1,0.4,0.3,0.5,0.4c0.1,0.2,0.3,0.4,0.3,0.6c0.1,0.2,0.1,0.5,0.1,0.7c0,0.5-0.1,1-0.4,1.4c-0.3,0.3-0.7,0.4-1.1,0.4
		c-0.4,0-0.9-0.1-1.3-0.3s-0.9-0.4-1.3-0.7C191.4,63.3,191.8,62.6,192.3,61.9L192.3,61.9z"/>
	<path d="M233.1,54.2v10.7h-2.7c-0.4,0-0.7-0.1-1-0.3c-0.2-0.2-0.4-0.5-0.5-0.8c0-0.1,0-0.1,0-0.2v-0.2c0-0.5-0.1-0.9-0.2-1.4
		c-0.2-0.4-0.4-0.7-0.6-1c-0.3-0.3-0.6-0.5-0.9-0.7c-0.4-0.2-0.8-0.3-1.2-0.3c-0.3,0-0.6,0-0.9,0.1s-0.6,0.3-0.9,0.5
		c-0.3,0.3-0.6,0.6-0.9,1c-0.3,0.6-0.6,1.1-0.8,1.8c-0.1,0.3-0.2,0.6-0.4,0.8c-0.1,0.2-0.3,0.3-0.4,0.5c-0.1,0.1-0.3,0.2-0.4,0.2
		c-0.1,0-0.3,0-0.4,0h-3c-0.3,0-0.6,0-0.9-0.1c0.6-0.4,1.1-0.9,1.4-1.5c0.3-0.5,0.5-1.1,0.5-1.8c0-0.3-0.1-0.5-0.2-0.8
		c-0.1-0.3-0.3-0.5-0.5-0.7c-0.3-0.2-0.6-0.4-0.9-0.5c-0.4-0.1-0.9-0.2-1.3-0.2c-0.6,0-1.1,0.1-1.7,0.3c-0.5,0.2-0.9,0.5-1.3,0.9
		c-0.1,0.1-0.1,0.2-0.2,0.3c-0.1,0.1-0.1,0.2-0.2,0.3c-0.1,0.1-0.1,0.3-0.2,0.4c-0.1,0.1-0.1,0.3-0.1,0.4l2.1,2.4
		c-0.8,0.2-1.6,0.4-2.5,0.3h-0.9c-0.4,0-0.8-0.2-1.1-0.5c-0.3-0.4-0.4-0.9-0.4-1.4v-8.6h-1.4v9.4c0,0.2,0,0.5-0.1,0.7
		c-0.1,0.1-0.1,0.3-0.3,0.4c-0.1,0.1-0.3,0.1-0.4,0.2c-0.2,0-0.4,0-0.5,0h-2.6V64c0-0.6-0.1-1.2-0.2-1.8c-0.1-0.5-0.3-1-0.6-1.4
		c-0.2-0.4-0.6-0.7-1-0.9c-0.5-0.2-1-0.3-1.5-0.3s-1,0.1-1.4,0.3c-0.4,0.2-0.7,0.5-1,0.8c-0.3,0.3-0.5,0.7-0.7,1.2
		c-0.2,0.4-0.2,0.9-0.2,1.4s0.1,1,0.2,1.4c0.2,0.3,0.4,0.7,0.7,0.9c0.3,0.2,0.6,0.4,1,0.5s0.9,0.2,1.3,0.2h1.9
		c0,0.4-0.1,0.8-0.3,1.1c-0.2,0.3-0.5,0.5-0.8,0.7c-0.4,0.2-0.8,0.3-1.1,0.3c-0.5,0.1-1,0.1-1.5,0.1h-0.5v1.4h0.7c0.7,0,1.3,0,2-0.2
		c0.5-0.1,1-0.3,1.5-0.6c0.4-0.3,0.8-0.6,1-1.1c0.3-0.5,0.4-1.1,0.4-1.7h2.4c0.6,0,1.2-0.1,1.7-0.2c0.5-0.1,0.8-0.5,1-0.9
		c0.1,0.3,0.3,0.6,0.5,0.8c0.3,0.2,0.6,0.3,1,0.3h1c0.6,0,1.2-0.1,1.8-0.2c0.6-0.1,1.1-0.3,1.7-0.5c0.3,0.3,0.6,0.4,1,0.6
		c0.3,0.1,0.6,0.1,0.9,0.1h3.5c0.2,0,0.4,0,0.6,0s0.4,0,0.5-0.1c0.2-0.1,0.3-0.2,0.5-0.3c0.2-0.2,0.3-0.3,0.4-0.5
		c0.5,0.4,1.1,0.7,1.7,0.9c0.5,0.2,1.1,0.3,1.6,0.3c0.5,0,1.1-0.1,1.6-0.4c0.4-0.2,0.7-0.6,0.9-1l0,0c0.2,0.4,0.4,0.7,0.8,0.9
		c0.3,0.2,0.7,0.3,1.1,0.3h4.1V54.2H233.1z M203.2,64.9h-1.8c-0.5,0-1-0.1-1.5-0.4c-0.4-0.3-0.5-0.8-0.5-1.3c0-0.3,0-0.5,0.1-0.8
		c0.1-0.3,0.2-0.5,0.3-0.7c0.2-0.2,0.4-0.4,0.6-0.5c0.3-0.1,0.6-0.2,0.9-0.2c0.6-0.1,1.2,0.2,1.5,0.8c0.3,0.6,0.5,1.3,0.4,2V64.9z
		 M215.7,64l-2.1-2.2c0.3-0.3,0.6-0.6,1-0.7c0.4-0.2,0.8-0.3,1.3-0.3c0.4,0,0.9,0.1,1.3,0.3c0.2,0.2,0.4,0.4,0.4,0.7
		c0,0.4-0.2,0.9-0.5,1.2C216.7,63.4,216.2,63.8,215.7,64L215.7,64z M227.2,64.7c-0.3,0.3-0.7,0.4-1.1,0.4c-0.4,0-0.9-0.1-1.3-0.3
		c-0.4-0.2-0.9-0.4-1.3-0.7c0.2-0.8,0.6-1.6,1.1-2.2c0.3-0.4,0.8-0.6,1.3-0.6c0.3,0,0.5,0.1,0.7,0.2c0.2,0.1,0.4,0.3,0.5,0.4
		c0.1,0.2,0.3,0.4,0.3,0.6c0.1,0.2,0.1,0.5,0.1,0.7C227.6,63.8,227.5,64.3,227.2,64.7L227.2,64.7z"/>
	<rect x="236.8" y="54.2" width="1.4" height="12"/>
	<path d="M252.9,58.4c-0.1,0.1-0.2,0.2-0.2,0.3c-0.1,0.1-0.1,0.3-0.2,0.4c-0.1,0.1-0.1,0.3-0.1,0.4c0.6,0.3,1.2,0.6,1.8,1
		c0.5,0.4,1.1,0.8,1.5,1.2c0.4,0.3,0.8,0.7,1.1,1.2c0.2,0.3,0.4,0.6,0.4,1c0,0.3-0.1,0.7-0.4,0.9c-0.3,0.1-0.7,0.2-1,0.2h-6.5
		c-0.4,0.1-0.9-0.1-1.2-0.5c-0.2-0.4-0.3-0.9-0.3-1.4v-2.4h-1.4v4.6c0,0.6,0,1.1,0,1.5c0,0.4-0.1,0.7-0.3,1s-0.4,0.5-0.7,0.6
		c-0.4,0.1-0.9,0.2-1.3,0.2v1.4c0.6,0,1.3-0.1,1.9-0.2c0.4-0.1,0.8-0.4,1.1-0.7c0.3-0.4,0.5-0.9,0.5-1.4c0.1-0.7,0.2-1.4,0.2-2.1
		c0.1,0.2,0.3,0.4,0.6,0.6s0.6,0.3,0.9,0.3h6.4c0.5,0,1-0.1,1.5-0.2c0.3-0.1,0.6-0.3,0.9-0.6c0.2-0.2,0.3-0.5,0.4-0.8
		s0.1-0.5,0.1-0.8c0-0.4-0.1-0.7-0.2-1.1c-0.2-0.4-0.4-0.8-0.8-1.2c-0.4-0.5-0.9-0.9-1.4-1.3c-0.6-0.5-1.3-1-2-1.4l4.9-2.2v-1.4
		l-6.1,2.7C253,58.3,252.9,58.3,252.9,58.4z"/>
	<path d="M273.2,65.6c0.5-0.7,0.8-1.5,0.7-2.3c0-0.5-0.1-1-0.2-1.4s-0.4-0.8-0.6-1.1c-0.3-0.3-0.6-0.5-1-0.7s-0.8-0.3-1.2-0.3
		c-0.3,0-0.6,0-0.9,0.1c-0.3,0.1-0.7,0.3-0.9,0.5c-0.3,0.3-0.6,0.6-0.9,1c-0.3,0.6-0.6,1.1-0.8,1.8c-0.1,0.3-0.2,0.6-0.4,0.8
		c-0.1,0.2-0.3,0.3-0.4,0.5c-0.1,0.1-0.3,0.2-0.5,0.2c-0.1,0-0.3,0-0.4,0h-0.7c-0.4,0-0.8-0.2-1.1-0.5c-0.2-0.4-0.3-0.9-0.3-1.4
		v-2.3h-1.4v4.6c0,0.6,0,1.1,0,1.5c0,0.3-0.1,0.7-0.3,1c-0.2,0.3-0.4,0.5-0.7,0.6c-0.4,0.1-0.9,0.2-1.3,0.2v1.4
		c0.6,0,1.2-0.1,1.9-0.2c0.4-0.1,0.8-0.4,1.1-0.7c0.3-0.4,0.5-0.9,0.5-1.4c0.1-0.7,0.2-1.4,0.1-2.1c0.1,0.2,0.3,0.4,0.6,0.6
		c0.3,0.2,0.5,0.3,0.8,0.3h0.8c0.2,0,0.4,0,0.6,0c0.2,0,0.4,0,0.5-0.1c0.2-0.1,0.3-0.2,0.5-0.3c0.2-0.2,0.3-0.3,0.5-0.5
		c0.5,0.4,1.1,0.7,1.7,0.9c0.5,0.2,1.1,0.3,1.6,0.3C271.9,66.6,272.7,66.3,273.2,65.6z M272.1,64.6c-0.3,0.3-0.7,0.4-1.1,0.4
		c-0.4,0-0.9-0.1-1.3-0.3c-0.4-0.2-0.9-0.4-1.3-0.7c0.2-0.8,0.6-1.6,1.1-2.2c0.3-0.4,0.8-0.6,1.3-0.6c0.2,0,0.5,0.1,0.7,0.2
		c0.2,0.1,0.4,0.2,0.5,0.4c0.1,0.2,0.3,0.4,0.3,0.6c0.1,0.2,0.1,0.5,0.1,0.7C272.6,63.8,272.4,64.3,272.1,64.6L272.1,64.6z"/>
	<polygon points="247.8,56.6 246.5,56.6 246.5,58.3 247.8,57.5 	"/>
	<polygon points="128.2,56.1 126.8,56.1 126.8,57.8 128.2,57 	"/>
	<polygon points="175.2,57.1 173.8,57.1 173.8,58.8 175.2,58 	"/>
	<polygon points="173,57.1 171.6,57.1 171.6,58.8 173,58 	"/>
	<polygon points="119.4,71.2 118,71.2 118,72.9 119.4,72.1 	"/>
	<polygon points="117.3,71.2 115.9,71.2 115.9,72.9 117.3,72.1 	"/>
</g>
</svg>
