<svg xmlns="http://www.w3.org/2000/svg" width="266.291" height="117.473" viewBox="0 0 266.291 117.473">
  <g id="Logo_Background" data-name="Logo Background" transform="translate(0 -83.088)">
    <g id="Group_12396" data-name="Group 12396">
      <g id="Group_252" data-name="Group 252" transform="translate(4.798 83.088)" opacity="0.05">
        <rect id="Rectangle_890" data-name="Rectangle 890" width="89.995" height="17.068" rx="8.534" transform="translate(88.925)" fill="#fff"/>
        <rect id="Rectangle_899" data-name="Rectangle 899" width="72.746" height="17.068" rx="8.534" transform="translate(53.305 100.405)" fill="#fff"/>
        <rect id="Rectangle_900" data-name="Rectangle 900" width="17.707" height="17.068" rx="8.534" transform="translate(10.841 1.982)" fill="#fff"/>
        <rect id="Rectangle_891" data-name="Rectangle 891" width="256.838" height="17.068" rx="8.534" transform="translate(4.655 36.136)" fill="#fff"/>
        <rect id="Rectangle_895" data-name="Rectangle 895" width="256.838" height="17.068" rx="8.534" transform="translate(0 72.272)" fill="#fff"/>
        <path id="Subtraction_18" data-name="Subtraction 18" d="M29.636,19.068H.6c-.2,0-.4-.006-.6-.019A9.545,9.545,0,0,0,8.931,9.534,9.545,9.545,0,0,0,0,.019C.21.006.413,0,.6,0H29.636l.224,0a9.587,9.587,0,0,0-9.309,9.531,9.588,9.588,0,0,0,9.309,9.532l-.029,0h-.194Z" transform="translate(141.733 17.068)" fill="#fff"/>
        <path id="Subtraction_20" data-name="Subtraction 20" d="M38.246,19.081H.227l-.227,0H1.009A9.539,9.539,0,0,0,1.009,0H38.246A9.514,9.514,0,0,1,41.1.437H38.418a9.25,9.25,0,1,0,0,18.5H39.9A9.6,9.6,0,0,1,38.246,19.081Z" transform="translate(56.645 53.204)" fill="#fff"/>
      </g>
      <g id="Path_819" data-name="Path 819" transform="translate(18.939 187.247) rotate(166)" fill="none" opacity="0.05">
        <path d="M7.812,0A7.812,7.812,0,1,1,0,7.812,7.812,7.812,0,0,1,7.812,0Z" stroke="none"/>
        <path d="M 7.811717987060547 4.999996185302734 C 6.261327743530273 4.999996185302734 4.999998092651367 6.261326789855957 4.999998092651367 7.811716556549072 C 4.999998092651367 9.362106323242188 6.261327743530273 10.62343597412109 7.811717987060547 10.62343597412109 C 9.36210823059082 10.62343597412109 10.62343788146973 9.362106323242188 10.62343788146973 7.811716556549072 C 10.62343788146973 6.261326789855957 9.36210823059082 4.999996185302734 7.811717987060547 4.999996185302734 M 7.811717987060547 -3.814697265625e-06 C 12.12600803375244 -3.814697265625e-06 15.62343788146973 3.497426986694336 15.62343788146973 7.811716556549072 C 15.62343788146973 12.12600708007812 12.12600803375244 15.62343692779541 7.811717987060547 15.62343692779541 C 3.497427940368652 15.62343692779541 -1.9073486328125e-06 12.12600708007812 -1.9073486328125e-06 7.811716556549072 C -1.9073486328125e-06 3.497426986694336 3.497427940368652 -3.814697265625e-06 7.811717987060547 -3.814697265625e-06 Z" stroke="none" fill="#fff"/>
      </g>
    </g>
  </g>
</svg>
