<svg xmlns="http://www.w3.org/2000/svg" width="232.064" height="91.198" viewBox="0 0 232.064 91.198">
  <path id="GOSI_Logo" data-name="GOSI Logo" d="M-2591.478,401.876a2.79,2.79,0,0,1-1.03-.729,3.05,3.05,0,0,1-.626-1.168h1.7a1.434,1.434,0,0,0,.574.452,2.176,2.176,0,0,0,.841.147,2.061,2.061,0,0,0,.992-.209,1.221,1.221,0,0,0,.532-.56,2.807,2.807,0,0,0,.158-1.159,2.372,2.372,0,0,1-.845.644,2.32,2.32,0,0,1-1.01.2,2.681,2.681,0,0,1-2.08-.963,3.65,3.65,0,0,1-.855-2.486,3.61,3.61,0,0,1,.9-2.562,2.544,2.544,0,0,1,1.932-.869,2.485,2.485,0,0,1,1,.2,3.37,3.37,0,0,1,.947.7V392.8h1.5v5.733a4.066,4.066,0,0,1-.617,2.509,2.979,2.979,0,0,1-2.52,1.083,3.931,3.931,0,0,1-1.5-.251Zm.34-7.16a1.91,1.91,0,0,0-.467,1.333,1.9,1.9,0,0,0,.487,1.372,1.515,1.515,0,0,0,1.2.529,1.486,1.486,0,0,0,1.175-.515,1.977,1.977,0,0,0,.47-1.368,1.966,1.966,0,0,0-.47-1.359,1.533,1.533,0,0,0-1.2-.53,1.53,1.53,0,0,0-1.192.536Zm77.455,4.531a3.745,3.745,0,0,1-1.114-1.493l1.316-.877c.4.8.851,1.2,1.372,1.2a.93.93,0,0,0,.675-.25.79.79,0,0,0,.274-.6,1.138,1.138,0,0,0-.2-.621,6.406,6.406,0,0,0-.922-.948,9.453,9.453,0,0,1-1.738-1.867,2.511,2.511,0,0,1-.387-1.307,2.219,2.219,0,0,1,.652-1.623,2.137,2.137,0,0,1,1.611-.675,2.277,2.277,0,0,1,1.183.322,4.666,4.666,0,0,1,1.21,1.159l-1.167,1.139c-.409-.621-.825-.941-1.246-.941a.7.7,0,0,0-.506.181.548.548,0,0,0-.2.411.772.772,0,0,0,.137.428,11.655,11.655,0,0,0,1.159,1.171c.607.546.962.886,1.088,1.03a3.7,3.7,0,0,1,.683,1.02,2.813,2.813,0,0,1,.2,1.05,2.513,2.513,0,0,1-.7,1.84,2.422,2.422,0,0,1-1.831.721,2.556,2.556,0,0,1-1.541-.475Zm-91.411-.94a4.973,4.973,0,0,1-1.224-3.363,5.016,5.016,0,0,1,.575-2.383,4.5,4.5,0,0,1,1.568-1.741,3.93,3.93,0,0,1,2.146-.632,3.911,3.911,0,0,1,3,1.392,4.892,4.892,0,0,1,1.26,3.4,4.912,4.912,0,0,1-1.239,3.367,3.918,3.918,0,0,1-3,1.369,3.918,3.918,0,0,1-3.078-1.415Zm1.12-5.569a3.257,3.257,0,0,0-.773,2.235,3,3,0,0,0,.98,2.378,2.518,2.518,0,0,0,1.749.689,2.462,2.462,0,0,0,1.892-.886,3.2,3.2,0,0,0,.78-2.189,3.223,3.223,0,0,0-.786-2.206,2.483,2.483,0,0,0-1.917-.892,2.506,2.506,0,0,0-1.923.873Zm-48.5,6.369a4.275,4.275,0,0,1-1.583-1.757,5.266,5.266,0,0,1-.586-2.447,4.777,4.777,0,0,1,1.073-3.123,4.064,4.064,0,0,1,3.333-1.595,4.611,4.611,0,0,1,2.008.437,4.375,4.375,0,0,1,1.529,1.275l-1.1,1.2a3.09,3.09,0,0,0-2.436-1.234,2.656,2.656,0,0,0-2.024.884,3.068,3.068,0,0,0-.822,2.16,3.165,3.165,0,0,0,.851,2.228,2.751,2.751,0,0,0,2.1.9,2.293,2.293,0,0,0,1.355-.375,2.5,2.5,0,0,0,.9-1.144h-2.386v-1.64h4.143l.008.386a4.763,4.763,0,0,1-.56,2.266,4.243,4.243,0,0,1-1.441,1.632,3.833,3.833,0,0,1-2.078.551,4.359,4.359,0,0,1-2.3-.6Zm223.176-.434a3.588,3.588,0,0,1-.9-2.5,3.719,3.719,0,0,1,.9-2.549,2.9,2.9,0,0,1,2.255-1.01,3.012,3.012,0,0,1,2.342,1.01,3.882,3.882,0,0,1,.9,2.69v.318h-4.922a2,2,0,0,0,.567,1.135,1.662,1.662,0,0,0,1.186.417,1.933,1.933,0,0,0,1.47-.656l1.281.666a3,3,0,0,1-1.151,1.113,3.2,3.2,0,0,1-1.6.366,3,3,0,0,1-2.337-1Zm1.215-4.231a2.12,2.12,0,0,0-.574.868h3.333a1.62,1.62,0,0,0-.6-.909,1.574,1.574,0,0,0-1.03-.348,1.689,1.689,0,0,0-1.117.384Zm-8.541,4.186a3.642,3.642,0,0,1-.912-2.471,3.855,3.855,0,0,1,.435-1.792,3.432,3.432,0,0,1,1.244-1.288,3.4,3.4,0,0,1,1.781-.468,3.234,3.234,0,0,1,1.626.386,3.13,3.13,0,0,1,1.188,1.117l-1.276.756a2.113,2.113,0,0,0-.709-.558,1.927,1.927,0,0,0-.826-.165,1.825,1.825,0,0,0-1.387.563,2.042,2.042,0,0,0-.526,1.454,1.97,1.97,0,0,0,.506,1.408,1.741,1.741,0,0,0,1.34.545,1.893,1.893,0,0,0,1.6-.773l1.206.912a3.182,3.182,0,0,1-2.768,1.4,3.159,3.159,0,0,1-2.517-1.026Zm-14.493.027a3.648,3.648,0,0,1-.866-2.5,3.792,3.792,0,0,1,.843-2.55,2.59,2.59,0,0,1,2.04-.991,2.39,2.39,0,0,1,1.031.228,2.869,2.869,0,0,1,.9.671V392.8h1.524v6.7h-1.524v-.7a2.917,2.917,0,0,1-.909.671,2.262,2.262,0,0,1-.974.21,2.649,2.649,0,0,1-2.067-1.02Zm1.159-3.94a2.108,2.108,0,0,0-.477,1.409,2.18,2.18,0,0,0,.483,1.446,1.514,1.514,0,0,0,1.184.558,1.546,1.546,0,0,0,1.194-.549,2.191,2.191,0,0,0,.478-1.456,2.105,2.105,0,0,0-.478-1.417,1.537,1.537,0,0,0-1.2-.546,1.492,1.492,0,0,0-1.185.554Zm-11.226,4.463a2.587,2.587,0,0,1-.87-1.374,9.159,9.159,0,0,1-.18-2.222V392.8h1.518v3.233a4.73,4.73,0,0,0,.129,1.315,1.132,1.132,0,0,0,.387.581,1.061,1.061,0,0,0,.654.2,1.1,1.1,0,0,0,.66-.2,1.073,1.073,0,0,0,.4-.592,5.138,5.138,0,0,0,.1-1.247V392.8h1.522v2.834a7.583,7.583,0,0,1-.257,2.408,2.636,2.636,0,0,1-.911,1.217,2.609,2.609,0,0,1-1.521.419,2.531,2.531,0,0,1-1.636-.5Zm-6.558-.644.934-1.132a2.123,2.123,0,0,0,.627.555,1.266,1.266,0,0,0,.644.215.681.681,0,0,0,.491-.161.489.489,0,0,0,.19-.372c0-.245-.234-.5-.67-.756l-.522-.283a2.387,2.387,0,0,1-1.461-2.061,1.872,1.872,0,0,1,.555-1.368,1.882,1.882,0,0,1,1.417-.559,2.271,2.271,0,0,1,1.12.283,2.691,2.691,0,0,1,.875.84l-.943,1.048a1.571,1.571,0,0,0-1.051-.631.645.645,0,0,0-.4.115.377.377,0,0,0-.149.3.439.439,0,0,0,.1.265,1.709,1.709,0,0,0,.452.29l.564.316a3.112,3.112,0,0,1,1.2.982,1.978,1.978,0,0,1,.336,1.159,2.03,2.03,0,0,1-.589,1.491,2.124,2.124,0,0,1-1.593.6,2.475,2.475,0,0,1-2.131-1.129Zm-22.561.121a3.64,3.64,0,0,1-.873-2.5,3.846,3.846,0,0,1,.843-2.55,2.59,2.59,0,0,1,2.048-.991,2.369,2.369,0,0,1,1.031.228,2.717,2.717,0,0,1,.893.671V392.8h1.521v6.7h-1.521v-.7a2.938,2.938,0,0,1-.9.671,2.251,2.251,0,0,1-.981.21,2.63,2.63,0,0,1-2.066-1.02Zm1.159-3.94a2.062,2.062,0,0,0-.479,1.409,2.183,2.183,0,0,0,.483,1.446,1.5,1.5,0,0,0,1.171.558,1.547,1.547,0,0,0,1.2-.549,2.177,2.177,0,0,0,.477-1.455,2.1,2.1,0,0,0-.477-1.417,1.534,1.534,0,0,0-1.2-.546,1.464,1.464,0,0,0-1.182.554Zm-11.2,3.913a3.653,3.653,0,0,1-.9-2.472,3.752,3.752,0,0,1,.437-1.792,3.311,3.311,0,0,1,1.246-1.288,3.421,3.421,0,0,1,1.779-.467,3.285,3.285,0,0,1,1.625.386,3.09,3.09,0,0,1,1.18,1.117l-1.269.756a2.044,2.044,0,0,0-.718-.558,1.89,1.89,0,0,0-.819-.165,1.8,1.8,0,0,0-1.385.563,2.036,2.036,0,0,0-.537,1.454,2.018,2.018,0,0,0,.515,1.408,1.741,1.741,0,0,0,1.346.545,1.9,1.9,0,0,0,1.6-.773l1.2.912a3.182,3.182,0,0,1-2.765,1.4,3.178,3.178,0,0,1-2.538-1.027Zm-7.32.014a3.589,3.589,0,0,1-.924-2.491,3.568,3.568,0,0,1,1.047-2.625,2.876,2.876,0,0,1,2.115-.909,2.951,2.951,0,0,1,1.618.479,3.181,3.181,0,0,1,1.192,1.278,3.815,3.815,0,0,1,.427,1.766,3.863,3.863,0,0,1-.427,1.774,3.13,3.13,0,0,1-1.175,1.3,3.036,3.036,0,0,1-1.635.465,2.9,2.9,0,0,1-2.249-1.033Zm1.076-3.893a2.044,2.044,0,0,0-.477,1.409,2.121,2.121,0,0,0,.469,1.426,1.483,1.483,0,0,0,1.177.545,1.556,1.556,0,0,0,1.208-.549,2.139,2.139,0,0,0,.478-1.417,2.1,2.1,0,0,0-.472-1.417,1.516,1.516,0,0,0-1.2-.527,1.508,1.508,0,0,0-1.189.53Zm-21.242,3.893a3.59,3.59,0,0,1-.937-2.491,3.58,3.58,0,0,1,1.049-2.625,2.9,2.9,0,0,1,2.115-.909,2.954,2.954,0,0,1,1.622.479,3.237,3.237,0,0,1,1.194,1.278,3.747,3.747,0,0,1,.422,1.766,3.791,3.791,0,0,1-.422,1.774,3.279,3.279,0,0,1-1.171,1.3,3.076,3.076,0,0,1-1.64.465,2.874,2.874,0,0,1-2.247-1.033Zm1.066-3.893a2.063,2.063,0,0,0-.478,1.409,2.115,2.115,0,0,0,.474,1.426,1.475,1.475,0,0,0,1.185.545,1.528,1.528,0,0,0,1.2-.549,2.084,2.084,0,0,0,.485-1.417,2.1,2.1,0,0,0-.478-1.417,1.512,1.512,0,0,0-1.2-.527,1.512,1.512,0,0,0-1.2.529Zm-21.7,3.893a3.576,3.576,0,0,1-.924-2.491,3.549,3.549,0,0,1,1.044-2.625,2.891,2.891,0,0,1,2.108-.909,2.948,2.948,0,0,1,1.629.479,3.266,3.266,0,0,1,1.19,1.278,3.87,3.87,0,0,1,.43,1.766,3.906,3.906,0,0,1-.43,1.773,3.262,3.262,0,0,1-1.177,1.3,3.027,3.027,0,0,1-1.631.465,2.9,2.9,0,0,1-2.251-1.033Zm1.067-3.893a2.1,2.1,0,0,0-.467,1.409,2.146,2.146,0,0,0,.465,1.426,1.5,1.5,0,0,0,1.193.545,1.545,1.545,0,0,0,1.2-.549,2.113,2.113,0,0,0,.476-1.417,2.13,2.13,0,0,0-.469-1.417,1.519,1.519,0,0,0-1.2-.527,1.526,1.526,0,0,0-1.2.529Zm-14.876,3.906a3.621,3.621,0,0,1-.865-2.5,3.832,3.832,0,0,1,.835-2.55,2.59,2.59,0,0,1,2.038-.99,2.389,2.389,0,0,1,1.038.228,2.876,2.876,0,0,1,.9.671V392.8h1.518v6.7h-1.518v-.7a3.015,3.015,0,0,1-.909.671,2.289,2.289,0,0,1-.986.21,2.613,2.613,0,0,1-2.061-1.02Zm1.153-3.94a2.072,2.072,0,0,0-.47,1.409,2.166,2.166,0,0,0,.47,1.446,1.514,1.514,0,0,0,1.178.558,1.545,1.545,0,0,0,1.2-.549,2.189,2.189,0,0,0,.48-1.456,2.111,2.111,0,0,0-.48-1.417,1.531,1.531,0,0,0-1.2-.546,1.461,1.461,0,0,0-1.178.554Zm-23.613,3.94a3.606,3.606,0,0,1-.876-2.5,3.809,3.809,0,0,1,.844-2.55,2.586,2.586,0,0,1,2.037-.99,2.407,2.407,0,0,1,1.03.228,2.758,2.758,0,0,1,.9.671V392.8h1.523v6.7h-1.523v-.7a2.913,2.913,0,0,1-.9.671,2.269,2.269,0,0,1-.986.21,2.609,2.609,0,0,1-2.058-1.02Zm1.149-3.94a2.027,2.027,0,0,0-.47,1.409,2.118,2.118,0,0,0,.47,1.446,1.5,1.5,0,0,0,1.177.558,1.535,1.535,0,0,0,1.2-.549,2.177,2.177,0,0,0,.475-1.455,2.1,2.1,0,0,0-.475-1.417,1.523,1.523,0,0,0-1.2-.546,1.473,1.473,0,0,0-1.19.554Zm-35.457,3.94a3.656,3.656,0,0,1-.868-2.5,3.8,3.8,0,0,1,.842-2.55,2.594,2.594,0,0,1,2.035-.991,2.369,2.369,0,0,1,1.031.228,2.829,2.829,0,0,1,.9.671V392.8h1.52v6.7h-1.52v-.7a2.979,2.979,0,0,1-.9.671,2.249,2.249,0,0,1-.979.21,2.628,2.628,0,0,1-2.061-1.02Zm1.142-3.94a2.1,2.1,0,0,0-.464,1.409,2.158,2.158,0,0,0,.481,1.446,1.49,1.49,0,0,0,1.172.558,1.532,1.532,0,0,0,1.2-.549,2.2,2.2,0,0,0,.479-1.455,2.123,2.123,0,0,0-.479-1.417,1.521,1.521,0,0,0-1.2-.546,1.508,1.508,0,0,0-1.182.554ZM-2630,398.673a3.59,3.59,0,0,1-.9-2.5,3.719,3.719,0,0,1,.9-2.549,2.9,2.9,0,0,1,2.254-1.01,3,3,0,0,1,2.34,1.01,3.868,3.868,0,0,1,.9,2.69v.318h-4.913a1.868,1.868,0,0,0,.574,1.135,1.608,1.608,0,0,0,1.171.417,1.916,1.916,0,0,0,1.468-.656l1.288.666a3.013,3.013,0,0,1-1.159,1.113,3.157,3.157,0,0,1-1.588.366,3,3,0,0,1-2.347-1Zm1.21-4.231a2.106,2.106,0,0,0-.567.868h3.328a1.619,1.619,0,0,0-.6-.909,1.592,1.592,0,0,0-1.04-.348,1.7,1.7,0,0,0-1.121.384Zm-15.415,4.231a3.554,3.554,0,0,1-.909-2.5,3.736,3.736,0,0,1,.9-2.549,2.894,2.894,0,0,1,2.253-1.01,3,3,0,0,1,2.34,1.01,3.9,3.9,0,0,1,.9,2.69v.318h-4.925a1.96,1.96,0,0,0,.582,1.135,1.632,1.632,0,0,0,1.174.417,1.889,1.889,0,0,0,1.462-.656l1.288.666a3.1,3.1,0,0,1-1.151,1.113,3.193,3.193,0,0,1-1.594.366,2.97,2.97,0,0,1-2.319-1Zm1.2-4.231a2.154,2.154,0,0,0-.575.868h3.333a1.589,1.589,0,0,0-.6-.909,1.568,1.568,0,0,0-1.031-.348,1.706,1.706,0,0,0-1.129.384Zm165.715,5.056v-9.082h1.545V399.5Zm37.059,0v-2.942a7.3,7.3,0,0,0-.107-1.583,1.111,1.111,0,0,0-.334-.607.9.9,0,0,0-.6-.207,1.078,1.078,0,0,0-.792.335,1.894,1.894,0,0,0-.466.949,8.858,8.858,0,0,0-.061,1.365V399.5h-1.53v-6.7h1.533v.67a3.561,3.561,0,0,1,.938-.67,2.194,2.194,0,0,1,.867-.184,2.034,2.034,0,0,1,1.545.688,2.569,2.569,0,0,1,.531,1.757V399.5Zm-15.455,0v-6.7h1.323v.829a1.93,1.93,0,0,1,.55-.764,1.311,1.311,0,0,1,.761-.25,1.241,1.241,0,0,1,.607.167l-.464,1.462a.962.962,0,0,0-.434-.157c-.221,0-.425.17-.585.48a5,5,0,0,0-.241,1.891l.008.325V399.5Zm-14.587,0v-2.942a7.636,7.636,0,0,0-.1-1.583,1.1,1.1,0,0,0-.339-.607.9.9,0,0,0-.595-.207,1.1,1.1,0,0,0-.805.335,1.958,1.958,0,0,0-.456.949,9.554,9.554,0,0,0-.067,1.365V399.5h-1.524v-6.7h1.524v.67a3.829,3.829,0,0,1,.942-.67,2.238,2.238,0,0,1,.871-.184,2.015,2.015,0,0,1,1.545.688,2.594,2.594,0,0,1,.538,1.757V399.5Zm-13.2,0v-9.312h1.527V399.5Zm-10.3,0v-6.7h1.518v6.7Zm-27.691,0v-6.7h1.323v.829a1.882,1.882,0,0,1,.558-.764,1.287,1.287,0,0,1,.756-.25,1.26,1.26,0,0,1,.613.167l-.47,1.462a.966.966,0,0,0-.43-.157c-.236,0-.424.17-.591.48a4.91,4.91,0,0,0-.233,1.891v3.04Zm-10.336,0v-5.27h-.582V392.8h.582c0-.894.009-1.417.036-1.584a1.316,1.316,0,0,1,.423-.886,1.5,1.5,0,0,1,1.021-.324,2.852,2.852,0,0,1,1.07.245v1.288a2.053,2.053,0,0,0-.543-.1.551.551,0,0,0-.4.113.627.627,0,0,0-.089.387l-.016.858h.981v1.426h-.968v5.27Zm-6.069,0v-2.942a7.605,7.605,0,0,0-.108-1.583,1.039,1.039,0,0,0-.339-.607.87.87,0,0,0-.595-.207,1.089,1.089,0,0,0-.795.335,1.892,1.892,0,0,0-.464.949,8.506,8.506,0,0,0-.069,1.365V399.5h-1.52v-6.7h1.52v.67a3.894,3.894,0,0,1,.947-.67,2.192,2.192,0,0,1,.867-.184,2,2,0,0,1,1.534.688,2.519,2.519,0,0,1,.534,1.757V399.5Zm-14.127,0v-6.7h1.518v6.7Zm-3.091,0v-5.27h-.773V392.8h.773v-2.5h1.528v2.5h.9v1.426h-.9v5.27Zm-13.7,0,2.7-5.27h-2.277V392.8h4.653l-2.7,5.261h2.543V399.5Zm-2.232,0v-6.7h1.517v6.7Zm-2.844,0v-2.942a7.522,7.522,0,0,0-.1-1.583,1.042,1.042,0,0,0-.341-.607.878.878,0,0,0-.6-.207,1.111,1.111,0,0,0-.8.335,1.9,1.9,0,0,0-.457.949,8.451,8.451,0,0,0-.069,1.365V399.5h-1.521v-6.7h1.521v.67a3.829,3.829,0,0,1,.949-.67,2.163,2.163,0,0,1,.867-.184,2.044,2.044,0,0,1,1.545.688,2.6,2.6,0,0,1,.524,1.757V399.5Zm-22.919,0v-6.7h1.311v.829a1.927,1.927,0,0,1,.559-.764,1.288,1.288,0,0,1,.752-.25,1.281,1.281,0,0,1,.618.167l-.477,1.462a.925.925,0,0,0-.422-.157c-.236,0-.43.17-.587.48a4.788,4.788,0,0,0-.241,1.891v3.04Zm-15.41,0v-9.312h1.523V399.5Zm-11.422,0v-6.7h1.332v.829a1.87,1.87,0,0,1,.558-.764,1.286,1.286,0,0,1,.758-.25,1.227,1.227,0,0,1,.6.168l-.456,1.462a.972.972,0,0,0-.442-.157c-.221,0-.424.17-.586.48a5.063,5.063,0,0,0-.232,1.891l.008.325V399.5Zm-9.983,0v-2.942a7.094,7.094,0,0,0-.116-1.583.98.98,0,0,0-.333-.607.889.889,0,0,0-.594-.207,1.074,1.074,0,0,0-.795.335,1.842,1.842,0,0,0-.466.949,8.4,8.4,0,0,0-.07,1.365V399.5h-1.515v-6.7h1.515v.67a3.754,3.754,0,0,1,.944-.67,2.26,2.26,0,0,1,.87-.184,2.012,2.012,0,0,1,1.546.688,2.556,2.556,0,0,1,.537,1.757V399.5Zm139.9-7.6a1.236,1.236,0,0,1-.289-.8,1.081,1.081,0,0,1,.289-.766.844.844,0,0,1,.666-.322.913.913,0,0,1,.69.325,1.15,1.15,0,0,1,.282.784,1.134,1.134,0,0,1-.282.783.847.847,0,0,1-.67.321.876.876,0,0,1-.7-.319Zm-58.222,0a1.21,1.21,0,0,1-.282-.8,1.1,1.1,0,0,1,.282-.766.832.832,0,0,1,.674-.322.9.9,0,0,1,.681.325,1.192,1.192,0,0,1,.284.784,1.188,1.188,0,0,1-.281.783.867.867,0,0,1-.677.321.867.867,0,0,1-.687-.319Zm-19.027,0a1.2,1.2,0,0,1-.278-.8,1.109,1.109,0,0,1,.278-.766.848.848,0,0,1,.676-.322.885.885,0,0,1,.678.325,1.147,1.147,0,0,1,.284.784,1.163,1.163,0,0,1-.279.783.856.856,0,0,1-.677.32.9.9,0,0,1-.7-.319Zm125.887-7.735a16.5,16.5,0,0,1-1.575-.545,3.248,3.248,0,0,1-.6-.282,2.221,2.221,0,0,1-.689-.467v-.144c.029-.03.113-.034.231-.034a7.7,7.7,0,0,1,.762.2c.481.111.735.17.757.17a2.733,2.733,0,0,0,.663-.1,5.632,5.632,0,0,0,2.833-1.932,16.648,16.648,0,0,1-1.71-.219,1.413,1.413,0,0,1-.547-.267.939.939,0,0,1-.412-.56c-.01-.116-.014-.191-.014-.216a3.409,3.409,0,0,1,.3-1.14,9.041,9.041,0,0,1,.5-1.142,3.322,3.322,0,0,1,.86-1.1.859.859,0,0,1,.548-.2.749.749,0,0,1,.18.018,1.465,1.465,0,0,1,.644.577,6.58,6.58,0,0,1,.809,2.643h.033v-.013h2.749v.013h1.826c.066,0,.212-.179.41-.533.257-.461.386-.7.415-.725a3.587,3.587,0,0,1,1.166-.911,2.83,2.83,0,0,1,1.232-.468c.289,0,.425.106.425.287a.558.558,0,0,1-.015.129.654.654,0,0,0,0,.154.754.754,0,0,0,.064.327,3.9,3.9,0,0,0,1.03,1.734h2.924a3.737,3.737,0,0,0,.063-.471,10.9,10.9,0,0,0-.178-1.321c-.093-.592-.265-1.466-.529-2.626-.114-.09-.305-.246-.568-.45a11.517,11.517,0,0,1,1.1-1.893,1.117,1.117,0,0,0,.116.6,4.079,4.079,0,0,0,.844.626c.232.14.6.37,1.081.663a2.468,2.468,0,0,1-.35.515c-.174.224-.43.55-.773.992-.027.019-.035.088-.035.176l.33,2.73-.37,1.976a.58.58,0,0,0-.129.039.624.624,0,0,1-.149.045h-4.014c-.1,0-.2.129-.274.379s-.18.4-.289.424l-3.282-1.741a3.085,3.085,0,0,0-.363.609c-.121.214-.258.33-.393.33h-4.285a14.492,14.492,0,0,1-.6,1.343,4.3,4.3,0,0,1-.967,1.229,2.159,2.159,0,0,1-1.031.572,1.426,1.426,0,0,1-.36.048,1.255,1.255,0,0,1-.391-.046Zm10.046-5.776a.917.917,0,0,0-.508.331q.431.286.866.536a2.014,2.014,0,0,0,.916.394.4.4,0,0,0,.137-.017.334.334,0,0,1,.086-.013v-.139a1.574,1.574,0,0,0-.2-.733.752.752,0,0,0-.678-.47,2.028,2.028,0,0,0-.621.112Zm-9.219-.248c-.147.169-.219.282-.219.35a.423.423,0,0,0,.144.335.866.866,0,0,0,.661.371.982.982,0,0,0,.292.026.917.917,0,0,0,.417-.063.86.86,0,0,1,.067-.054c.032-.032.058-.042.071-.064a2.708,2.708,0,0,0-.554-1,.656.656,0,0,0-.368-.191,1.018,1.018,0,0,0-.52.3Zm-108.485,5.377c-.077.063-.2.183-.386.375-.168.187-.273.29-.273.29a2.366,2.366,0,0,1-.575-.319,3.923,3.923,0,0,1-.581-.413,10.4,10.4,0,0,1,.84-1.048,4.453,4.453,0,0,0,1.038.689c.35-.361.6-.586.725-.689l1.2.689a8.248,8.248,0,0,1-.877,1.095Zm-85.543,0a4.707,4.707,0,0,0-.387.375c-.176.187-.285.29-.285.29a2.467,2.467,0,0,1-.568-.319,5.415,5.415,0,0,1-.59-.413c.108-.158.387-.515.841-1.048a4.747,4.747,0,0,0,1.044.689,8.4,8.4,0,0,1,.728-.689l1.19.689a7.89,7.89,0,0,1-.879,1.095Zm35.039-.424,1.153-1.171a9.351,9.351,0,0,0,1.514.8l-1.2,1.152Zm-16.606-3.012a2.9,2.9,0,0,0-.386.609c-.116.214-.233.33-.386.33h-5.925l-.684-7.3c0-.061.077-.171.22-.332.05-.081.35-.415.9-1.006.039.246.082.712.14,1.4q.309,3.588.57,5.3c0,.063.06.111.177.137.048.01.137.052.264.1a.589.589,0,0,0,.265.082h2.749v.013h1.825c.071,0,.207-.179.421-.533a7.325,7.325,0,0,1,.41-.725,3.467,3.467,0,0,1,1.159-.911,2.856,2.856,0,0,1,1.229-.468c.294,0,.437.106.437.287a.851.851,0,0,1-.019.129,1.02,1.02,0,0,0,0,.155.9.9,0,0,0,.059.327,3.952,3.952,0,0,0,1.041,1.734h.185V379.4h1.553v.013h2.68a1.574,1.574,0,0,0,.129-.75,2.058,2.058,0,0,1,.078-.722,1.878,1.878,0,0,1,.448-.63c.181-.169.36-.353.548-.536l-.151,1.839a1.309,1.309,0,0,0,.011.183.792.792,0,0,0,.308.43.813.813,0,0,0,.365.171h2.738v.013h2.95a5.407,5.407,0,0,0,.979-.194c.12-.052.295-.151.529-.277,0-.021-.019-.036-.053-.062a5.719,5.719,0,0,0-2.2-.773,1.355,1.355,0,0,0-.528.107,3.6,3.6,0,0,1-.591.209v-.18a1.01,1.01,0,0,1,.177-.294c.712-.917,1.3-1.373,1.789-1.373a2.22,2.22,0,0,1,.9.179c.092.044.656.331,1.688.882a10.158,10.158,0,0,0,2.038.881c.265.076.635.189,1.116.31,0,.018-.2.278-.589.782-.273.357-.456.541-.525.541l-2.456-.192a3.022,3.022,0,0,0-1.489.5,4.3,4.3,0,0,1-1.14.552h-5.888a1.075,1.075,0,0,1-.273-.086,1.129,1.129,0,0,1-.432-.344,1.946,1.946,0,0,1-.269-.549l-.555.979h-4.693c-.1,0-.2.129-.286.379s-.177.4-.284.424Zm1.646-1.694a.936.936,0,0,0-.516.331c.281.191.572.37.867.536a1.984,1.984,0,0,0,.919.394.412.412,0,0,0,.129-.017.3.3,0,0,1,.082-.013v-.139a1.583,1.583,0,0,0-.189-.733.786.786,0,0,0-.7-.47,2,2,0,0,0-.607.113Zm192.853-3.46a2.924,2.924,0,0,1,.487-.97,9.2,9.2,0,0,1,.644-.969l.386,5.089a4.583,4.583,0,0,1-.809,2.942Zm-25.559,6.046c-.116-.236-.186-.343-.21-.343s-.093.062-.185.182a.414.414,0,0,1-.323.2h-1.986a.515.515,0,0,1-.359-.215.86.86,0,0,1-.232-.37c-.3.386-.539.585-.725.585h-4.5l-.353-.5a2,2,0,0,0-.176.5h-2.122a1.126,1.126,0,0,0-.226-.386l-.34.386h-2.429a.533.533,0,0,1-.364-.215.937.937,0,0,1-.227-.37c-.307.386-.539.585-.724.585h-5a.284.284,0,0,1-.2-.108.8.8,0,0,1-.319-.386c-.055-.294-.137-.693-.278-1.224a1.448,1.448,0,0,0-.487.657c-.186.375-.386.58-.607.6l-2.373-.469v-.216c0,.053.192-.515.592-1.682a2.213,2.213,0,0,1,1.1-.981c.326-.184.725-.438,1.209-.748a4.9,4.9,0,0,0-.135-.488c.062-.081.341-.541.824-1.377.145,1.023.412,2.542.8,4.57.032.175.23.258.582.258h.08V379.4h2.74v.013h2.017c.155,0,.24-.179.3-.515.01-.187.027-.375.04-.559a10.57,10.57,0,0,1,1.273-1.388,3.406,3.406,0,0,1-.171.975c-.226.734-.344,1.106-.358,1.153a1.088,1.088,0,0,0,.631.331.593.593,0,0,0,.176-.06.412.412,0,0,1,.142-.076.217.217,0,0,0-.04.076.24.24,0,0,1-.078.06h1.576v-.849a4.238,4.238,0,0,1,1.216-1.275l-.429,1.674v.456h1.433a1.289,1.289,0,0,0,.015-.24,2.312,2.312,0,0,0-.1-.386,3.015,3.015,0,0,1-.1-.361,5.7,5.7,0,0,1,.686-1.065c.086-.085.208-.179.332-.314V378.3a5.827,5.827,0,0,1-.192.927c.058.119.2.169.413.182h2.683v.013h2.013c.144,0,.237-.179.29-.515.011-.187.022-.375.046-.559a10.046,10.046,0,0,1,1.276-1.388,3.283,3.283,0,0,1-.18.975c-.225.734-.347,1.106-.355,1.153a1.1,1.1,0,0,0,.624.331.6.6,0,0,0,.18-.061.5.5,0,0,1,.141-.076.672.672,0,0,1-.045.076.138.138,0,0,1-.068.06h1.134a4.723,4.723,0,0,1,.169-.941,2.745,2.745,0,0,1,.493-.59c.227-.207.434-.408.644-.592l-.368,1.629v.493h1.249c-.006-.118-.039-.3-.086-.58-.041-.245-.067-.4-.067-.406a2.862,2.862,0,0,1,.456-.613,8.755,8.755,0,0,1,.683-.766v2.3a2.04,2.04,0,0,1-.19.735c-.116.3-.258.589-.387.885a.759.759,0,0,1-.15.045Zm-21.887-3.638a1.511,1.511,0,0,1-.708.82c-.276.137-.547.258-.8.368a6.879,6.879,0,0,0,1.193.3h.883v-.3a7.511,7.511,0,0,0-.276-1.459.341.341,0,0,0-.3.273Zm-8.564-2.407a2.933,2.933,0,0,1,.491-.97,10.224,10.224,0,0,1,.643-.969l.4,5.089a4.611,4.611,0,0,1-.811,2.942Zm-8.1,6.092-.515-.939c-.105.188-.281.5-.533.939h-7.645l-.678-7.3c0-.061.064-.171.217-.332a12.079,12.079,0,0,1,.9-1.006c.038.246.077.712.135,1.4.215,2.393.4,4.159.572,5.3,0,.063.054.111.168.137a1.931,1.931,0,0,1,.271.1.614.614,0,0,0,.27.082h2.75v.013h3.007a1.491,1.491,0,0,0-1.376-.9,3.1,3.1,0,0,0-.468.048l.8-1.546c.237-.085.479-.152.722-.243a3.186,3.186,0,0,1,.866-.153,2.061,2.061,0,0,1,1.288.474,1.355,1.355,0,0,1,.624,1.063,1.1,1.1,0,0,1-.181.523c-.129.21-.245.413-.361.6v.135h3.339a2.947,2.947,0,0,0,.06-.471,10.2,10.2,0,0,0-.181-1.321c-.093-.593-.265-1.466-.527-2.626-.121-.09-.308-.246-.561-.45a11.583,11.583,0,0,1,1.088-1.893,1.089,1.089,0,0,0,.121.6,4.008,4.008,0,0,0,.841.626c.24.14.6.37,1.083.663a2.327,2.327,0,0,1-.347.515c-.184.224-.432.55-.773.992-.032.019-.033.088-.033.177l.33,2.73-.377,1.976a.834.834,0,0,0-.129.039.483.483,0,0,1-.145.045Zm-24.921,0a.276.276,0,0,1-.2-.108.754.754,0,0,1-.314-.386c-.052-.294-.14-.693-.279-1.224a1.4,1.4,0,0,0-.487.657c-.184.375-.387.58-.608.595l-2.379-.469v-.216c0,.053.2-.515.587-1.682a2.257,2.257,0,0,1,1.1-.981c.331-.184.732-.438,1.216-.748a4.126,4.126,0,0,0-.136-.488c.064-.081.335-.541.819-1.377.147,1.023.413,2.542.792,4.57.04.175.234.258.587.258h.077v-.013h8.467a4.8,4.8,0,0,0,.258-.644,3.948,3.948,0,0,1,.651-1.178,2.761,2.761,0,0,1,1.076-.958,4.75,4.75,0,0,1,1.784-.585,7.873,7.873,0,0,1,.865,2.524,1.283,1.283,0,0,1,.063.46.957.957,0,0,1-.14.417c-.113.211-.4.678-.863,1.374l-2.978-1.075a1.009,1.009,0,0,0-.5.56,1.849,1.849,0,0,1-.4.7h-1.94v.021Zm-1.4-3.683a1.526,1.526,0,0,1-.715.82c-.279.137-.541.258-.8.369a7.36,7.36,0,0,0,1.2.3h.884v-.3a7.206,7.206,0,0,0-.282-1.459.325.325,0,0,0-.291.272Zm12.74.365a2.749,2.749,0,0,0-.611.366l1.768.708c-.052-.2-.1-.4-.135-.619a1.367,1.367,0,0,0-.349-.5.353.353,0,0,0-.22-.048,1.249,1.249,0,0,0-.464.1Zm-25.631,3.319a.637.637,0,0,1-.189-.43,2.675,2.675,0,0,0-.13-.515c-.129.2-.355.515-.666.939h-2.7a1.1,1.1,0,0,1-.278-.086.994.994,0,0,1-.428-.344,2.024,2.024,0,0,1-.28-.549l-.545.979h-6.918l-.69-7.3q0-.091.215-.332c.055-.081.353-.415.9-1.006.04.246.088.712.129,1.4q.319,3.588.58,5.3c0,.063.048.111.17.137a2.358,2.358,0,0,1,.257.1.638.638,0,0,0,.275.082h2.743v.013h2.682a1.542,1.542,0,0,0,.121-.75,2.05,2.05,0,0,1,.067-.723,2.38,2.38,0,0,1,.447-.63c.192-.169.372-.353.554-.536l-.156,1.839a.823.823,0,0,0,.02.183.78.78,0,0,0,.305.43.731.731,0,0,0,.4.184h2.655l-.71-4.809,1.2-1.643c.04.344.089.788.162,1.3.1,1.043.239,2.6.424,4.693.016.3.179.456.515.456h2.568c.036-.24.063-.4.063-.471a11.25,11.25,0,0,0-.177-1.321c-.1-.593-.269-1.466-.537-2.626-.117-.09-.3-.246-.563-.449a11.567,11.567,0,0,1,1.1-1.893,1.121,1.121,0,0,0,.112.6,4.166,4.166,0,0,0,.843.626c.238.14.6.37,1.086.663a2.456,2.456,0,0,1-.354.515c-.173.224-.42.55-.773.992-.029.019-.035.088-.035.177l.323,2.73-.366,1.976a.716.716,0,0,0-.129.039.486.486,0,0,1-.139.045Zm-22.492,0a.868.868,0,0,1-.6-.386,1.478,1.478,0,0,1-.341-.612l-.551,1H-2556a.885.885,0,0,1-.237-.086c-.223-.1-.427-.386-.625-.892l-.5.979h-14.082l-.686-7.3c0-.061.073-.171.215-.332.054-.081.354-.415.9-1.006q.055.368.136,1.4.309,3.588.563,5.3c0,.063.055.111.174.137a2.356,2.356,0,0,1,.274.1.553.553,0,0,0,.258.082h9.933v.013h2.588a1.165,1.165,0,0,0,.119-.644,1.3,1.3,0,0,1,.059-.594,4.342,4.342,0,0,1,1.031-1.244v1c0,.025-.018.168-.054.4a2.969,2.969,0,0,0-.056.43.7.7,0,0,0,.078.308.786.786,0,0,0,.695.331h2.917a3.656,3.656,0,0,0,.162-.857,2.272,2.272,0,0,1,.038-.7,6.575,6.575,0,0,1,.978-1.083,1.753,1.753,0,0,1,.043.4,5.913,5.913,0,0,1-.081.751,4.828,4.828,0,0,0-.078.665c0,.419.31.684.918.806h2.534a4.7,4.7,0,0,0,.258-.644,3.582,3.582,0,0,1,.656-1.178,2.756,2.756,0,0,1,1.073-.958,4.739,4.739,0,0,1,1.792-.585,8.125,8.125,0,0,1,.852,2.525,1.244,1.244,0,0,1,.061.46.9.9,0,0,1-.129.417c-.119.211-.406.677-.867,1.374l-2.978-1.075a.977.977,0,0,0-.494.56,1.86,1.86,0,0,1-.415.7h-1.9v.021Zm5.458-3.319a2.824,2.824,0,0,0-.611.366l1.771.708a5.78,5.78,0,0,1-.139-.619,1.348,1.348,0,0,0-.355-.5.326.326,0,0,0-.214-.048,1.255,1.255,0,0,0-.455.1Zm-41.071-2.773a3.039,3.039,0,0,1,.487-.97,10.06,10.06,0,0,1,.644-.969l.4,5.089a4.559,4.559,0,0,1-.8,2.942Zm-7.74,6.092c-.2-.116-.3-.443-.3-1,0-.176.013-.4.042-.7a3.039,3.039,0,0,1,.171-.574c.066.09.161.215.28.368a.613.613,0,0,0,.487.225c.286,0,.913-.431,1.884-1.28a3.945,3.945,0,0,0-.727-.93,4.966,4.966,0,0,0-.983-.85,3.429,3.429,0,0,1-.233.47c-.206-.129-.83-.5-1.86-1.079-.185-.107-.285-.362-.285-.793a7.167,7.167,0,0,1,.2-.963h1.178a.747.747,0,0,0,.041-.426,9.98,9.98,0,0,1,1.866,1.573,9.914,9.914,0,0,1,1.482,1.959,3.468,3.468,0,0,0,.419-1.813,1.624,1.624,0,0,0-.393-1.06l1.175-1.835a4.114,4.114,0,0,0,.129.573,2.034,2.034,0,0,0,.537.461c.612.323.915.537.915.627a9.746,9.746,0,0,1-.862,1.37.5.5,0,0,1-.117.027.738.738,0,0,1-.331-.138,9.757,9.757,0,0,1-.351,1.459,3.739,3.739,0,0,1-.353.686,3.192,3.192,0,0,0-.277.479.335.335,0,0,0,.068.144.6.6,0,0,1,.075.129,3.654,3.654,0,0,1,.412,1.576,7.753,7.753,0,0,1-.128,1.307Zm1.983-1.593c.226.021.446.021.688.021s.478,0,.687-.021a7.965,7.965,0,0,0-.451-.868,4.72,4.72,0,0,1-.929.871Zm-44.177,1.593a.887.887,0,0,1-.6-.386,1.385,1.385,0,0,1-.337-.612l-.552,1h-11.772a.282.282,0,0,1-.2-.108.746.746,0,0,1-.311-.386c-.055-.294-.148-.693-.27-1.224-.153.063-.319.279-.5.657s-.4.58-.6.6l-2.382-.469v-.216c0,.053.2-.515.586-1.682a2.334,2.334,0,0,1,1.1-.982c.33-.184.733-.438,1.219-.748a3.01,3.01,0,0,0-.143-.488q.1-.122.836-1.377c.14,1.023.4,2.542.782,4.57.034.175.232.258.586.258h.084v-.013h8.732v.013h2.6a4.239,4.239,0,0,0,.158-.857,1.948,1.948,0,0,1,.04-.7,6.071,6.071,0,0,1,.977-1.083,1.779,1.779,0,0,1,.04.4,5,5,0,0,1-.081.751,5.234,5.234,0,0,0-.073.665c0,.422.318.7.955.819h1.06a1.888,1.888,0,0,0,.027-.434,4.441,4.441,0,0,1,.018-.456,1.975,1.975,0,0,1,.376-.682,5.482,5.482,0,0,1,2.152-1.867.932.932,0,0,1,.434-.092,1.5,1.5,0,0,1,.922.294,3.084,3.084,0,0,1,.773.721,3,3,0,0,1,.571,1.091v.329a2.753,2.753,0,0,0-1.592-.8,5.119,5.119,0,0,0-.781-.059,2.658,2.658,0,0,0-1.75.444,3.892,3.892,0,0,0,1.53,1.48.987.987,0,0,0,.354.039c.041,0,.281-.027.737-.06s.688-.058.719-.058h1.314a.309.309,0,0,0,.1-.018h.232l-.945,1.74Zm-14.665-3.683a1.48,1.48,0,0,1-.71.82c-.277.137-.54.258-.8.368a7.172,7.172,0,0,0,1.194.3h.886v-.3a7.669,7.669,0,0,0-.28-1.459.344.344,0,0,0-.3.272Zm71.157,3.606a.412.412,0,0,1-.128-.018.215.215,0,0,0-.1-.032,1.526,1.526,0,0,1-.84-.412,1.364,1.364,0,0,1-.535-.8,2.02,2.02,0,0,1-.026-.4,6.287,6.287,0,0,1,.281-1.582c.209-.7.417-1.106.609-1.208l.075.054a8.076,8.076,0,0,1-.061.813c-.049.4-.074.629-.074.661a1.971,1.971,0,0,0,.093.613,1.269,1.269,0,0,0,.564.48,1.763,1.763,0,0,0,.712.241h5.205a.5.5,0,0,0,.117-.23,4.76,4.76,0,0,0-.663-1.379l.8-1.417a2.536,2.536,0,0,1,.569.827,2.29,2.29,0,0,1,.273.977,6.569,6.569,0,0,1-.843,2.808Zm134.281-4.348c.042-.207.3-.465.773-.787a7.233,7.233,0,0,1-.858-.314c-.053-.027-.079-.071-.079-.161a1.711,1.711,0,0,1,.523-1.106,1.456,1.456,0,0,1,1.064-.565c.378,0,.568.143.568.411,0-.048-.1.14-.31.551a.96.96,0,0,0-.515-.292.569.569,0,0,0-.1-.028.579.579,0,0,0-.323.094c-.087.043-.2.129-.367.227a.3.3,0,0,0-.036.063c-.015.026-.016.041-.045.061a.407.407,0,0,0,.2.193,1.1,1.1,0,0,0,.6.176h1.567a2.553,2.553,0,0,1-.413.675,5.821,5.821,0,0,0-2.179.829Zm-26.945-.631c-.008.023-.015.023-.015.023-.006-.03.008-.028.008-.019Zm-42.994,0c-.013.023-.017.023-.017.023,0-.03,0-.028.011-.019Zm-135.588,0c0,.023-.018.023-.018.023-.007-.03.006-.028.019-.019Zm93.65-.652c-.363-.272-.54-.471-.54-.568a.374.374,0,0,1,.135-.245,8.416,8.416,0,0,1,.773-.708s.029-.019.088-.053a.569.569,0,0,1,.113-.051,2.672,2.672,0,0,1,.6.493c.337.317.514.5.514.564a.283.283,0,0,1-.113.2,5.416,5.416,0,0,1-.842.644.5.5,0,0,1-.16.061,1.753,1.753,0,0,1-.574-.336Zm-19.8-.386a3.258,3.258,0,0,0-.565.546,6.221,6.221,0,0,1-1.21-.619c.449-.589.748-.888.876-.888a2.038,2.038,0,0,1,.494.292,2.753,2.753,0,0,0,.49.273,2.638,2.638,0,0,0,.328-.25c.195-.168.332-.269.387-.316l1.159.6a5.917,5.917,0,0,1-.846.952Zm43.364-.211a4.928,4.928,0,0,0-.675.6,1.361,1.361,0,0,0-.283-.111,3.707,3.707,0,0,1-.981-.562,3.921,3.921,0,0,1,.481-.585c.241-.257.386-.394.44-.394a1.856,1.856,0,0,1,.386.236,3.04,3.04,0,0,0,.515.307.7.7,0,0,0,.178.075s.268-.2.815-.617l1.288.674a6.785,6.785,0,0,1-.773.9.3.3,0,0,1-.162.085,4.772,4.772,0,0,1-1.236-.613Zm-.675.6c.018.012.018.013-.014.013Zm-76.739-.6a5.463,5.463,0,0,0-.675.6c.007.012.011.013-.015.013l.015-.013a1.532,1.532,0,0,0-.288-.111,3.782,3.782,0,0,1-.98-.562,3.678,3.678,0,0,1,.484-.585c.234-.258.387-.394.441-.394a2.1,2.1,0,0,1,.373.236,4.244,4.244,0,0,0,.5.307,1.94,1.94,0,0,0,.187.075s.268-.2.813-.617l1.288.674a6.167,6.167,0,0,1-.773.9.278.278,0,0,1-.155.085,4.671,4.671,0,0,1-1.217-.613Zm137.3-.737c-.335.386-.548.573-.626.573a4.02,4.02,0,0,1-1.084-.619c.171-.19.437-.5.805-.939a3.6,3.6,0,0,0,1.03.644c-.049,0,.189-.224.706-.644l1.193.693c-.6.6-.88.9-.88.9a5.663,5.663,0,0,1-1.144-.61Zm-42.994,0c-.344.386-.549.573-.634.573a4.413,4.413,0,0,1-1.078-.619c.169-.189.441-.5.8-.939a3.614,3.614,0,0,0,1.022.644,3.8,3.8,0,0,1,.707-.644l1.2.693c-.6.6-.885.9-.885.9a5.76,5.76,0,0,1-1.134-.611Zm-135.585,0c-.341.386-.546.573-.627.573a4.175,4.175,0,0,1-1.078-.62c.164-.189.436-.5.8-.939a3.52,3.52,0,0,0,1.031.644c-.041,0,.189-.224.707-.644l1.19.693c-.6.6-.878.9-.878.9a5.72,5.72,0,0,1-1.15-.61Zm111.149-1.518v-.117c0-.116.191-.307.564-.571-.168-.044-.434-.144-.8-.288a1.255,1.255,0,0,1,.1-.5,1.348,1.348,0,0,1,1-.967c.053,0,.129-.018.214-.018.331,0,.5.108.5.334a2.483,2.483,0,0,1-.272.465.671.671,0,0,0-.321-.247.256.256,0,0,0-.129-.026,1.025,1.025,0,0,0-.418.1c-.174.08-.271.16-.271.257,0,.18.341.294,1.038.323l.212-.006c.172-.012.432-.022.783-.022a3.247,3.247,0,0,1-.295.558,2.74,2.74,0,0,0-1.738.725ZM-2540.583,371.2Zm16.478-11.651A39.118,39.118,0,0,0-2508.521,352c14.5-11.72,2.937-23.043,2.937-23.043-10.386-10.682-27.757-11.463-27.757-11.463l-20.079,19.286,9.423,9.04,9.112-8.728.042.063s2.044,3.1.528,4.928l-9.733,9.335-15.376-14.748,25.23-24.177s21.905.158,32.964,16.378c0,0,8.464,13.092-7.2,24.571,0,0-9.558,6.254-15.5,6.741Zm-53.085-16.274s-8.461-13.088,7.2-24.57c0,0,9.555-6.258,15.5-6.737l.167.635a39.065,39.065,0,0,0-15.584,7.55c-14.5,11.727-2.93,23.043-2.93,23.043,10.387,10.69,27.75,11.45,27.75,11.45l20.092-19.281-9.438-9.038-9.1,8.725-.055.061s-2.034-3.22-.522-5.054l9.74-9.327,15.374,14.75-25.242,24.178s-21.9-.161-32.959-16.384Zm33.025-4.665,8.9-8.664a4.735,4.735,0,0,1-.34,5.538l-8.083,7.935a5.375,5.375,0,0,1-.486-4.811Z" transform="translate(2655.358 -311.439)" fill="#fff" stroke="rgba(0,0,0,0)" stroke-width="1"/>
</svg>
