<svg xmlns="http://www.w3.org/2000/svg" width="15.666" height="16.538" viewBox="0 0 15.666 16.538">
  <g id="Annuity" transform="translate(-17070 -14938)">
    <path id="Path_1212" data-name="Path 1212" d="M17086.65,15253l-.9,2.262-.549,1.131-1.064-.453-1.293-1-.84.452.289,1.262,2.908,1.775,4.49.613,3.715-.613,2.326-1.034.871-.741.324-.712-.324-1h-.613l-1.227.809-.842.646-.516-1.455-.777-1.292-.58-.483-1,.161-.16.646.482,1.293.518.678.484.712v.321l-1.484.42h-3.619l-.615-.226a1.243,1.243,0,0,0,0-.516c-.062-.228.615-1.262.615-1.262l.518-1.292.742-.774-.549-.323h-1.326Z" transform="translate(-11.612 -304.825)" fill="#1ed0dd"/>
    <path id="Path_1211" data-name="Path 1211" d="M17119.875,14954.621a1.551,1.551,0,0,1,0-1.616l1.162-.419,1.162-.389,2.1.228,2.135.58,1.389-3.229.549-1.453.873-.323.611.451-.387,1.647-2.2,6.007-1.258,1.745-3.393.227-3.359-.484-1.9.969-1-.259-.355-.71.68-.711,1.68-.776h1.9l2.361.194,2.2.13,1.2-1.067.258-1.13-3.262-.58-2.23.58Z" transform="translate(-44.512 -9.677)" fill="#1ed0dd"/>
    <g id="retirement" transform="translate(17070 14938)">
      <g id="Group_546" data-name="Group 546" transform="translate(0 0)">
        <path id="Path_1210" data-name="Path 1210" d="M14.023,11.964a1.174,1.174,0,0,1,1.622.346,3.033,3.033,0,0,0,1.119.917L18.1,10.361a1.825,1.825,0,0,0-1.062.427l-.334.28a1.164,1.164,0,0,1-.752.274q-.052,0-.1,0A1.172,1.172,0,0,1,15.2,9.271l.334-.28a4.157,4.157,0,0,1,3.055-.963l4.845.424a.869.869,0,0,0,.893-.572l.385-1.071L21.778,6.4a2.119,2.119,0,0,0-1.581.409l-.444.334a1.074,1.074,0,0,1-.649.218,1.092,1.092,0,0,1-.153-.011,1.082,1.082,0,0,1-.5-1.936l.444-.334a4.271,4.271,0,0,1,3.185-.824l3.378.475L26.879.776a1.173,1.173,0,0,1,2.207.794l-2.555,7.1a3.214,3.214,0,0,1-1.843,1.9L25.9,13.179a2.925,2.925,0,0,0,1.033-.87A1.173,1.173,0,0,1,28.9,13.586a6.083,6.083,0,0,1-3.071,2.2,13.227,13.227,0,0,1-4.542.756,13.227,13.227,0,0,1-4.542-.756,6.084,6.084,0,0,1-3.071-2.2A1.174,1.174,0,0,1,14.023,11.964Zm3.4,1.564.144.055c.175.065.357.124.543.179l1.533-3.289-.765-.067Zm1.4.415a11.919,11.919,0,0,0,2.472.25,11.844,11.844,0,0,0,2.57-.271l-1.5-3.209-1.96-.172Zm3.161-8.974a3.553,3.553,0,0,0-2.65.685l-.444.334a.361.361,0,0,0,.167.645h0a.358.358,0,0,0,.267-.069l.444-.334a2.833,2.833,0,0,1,1.712-.576,2.9,2.9,0,0,1,.4.028l3.08.433.249-.694ZM25.852,8.43l2.555-7.1a.451.451,0,1,0-.849-.305L25,8.124A1.592,1.592,0,0,1,23.368,9.17l-4.845-.424a3.44,3.44,0,0,0-2.528.8l-.334.28a.451.451,0,0,0,.25.795h0a.449.449,0,0,0,.329-.1l.334-.28a2.542,2.542,0,0,1,1.642-.6q.113,0,.228.01l4.845.424A2.5,2.5,0,0,0,25.852,8.43Zm-1.871,2.335a3.2,3.2,0,0,1-.474.036c-.093,0-.187,0-.281-.012l-.032,0,1.375,2.949q.229-.07.448-.151.12-.045.235-.092Zm-9.7,2.429A5.387,5.387,0,0,0,17,15.105a12.5,12.5,0,0,0,4.291.711,12.5,12.5,0,0,0,4.291-.711A5.387,5.387,0,0,0,28.3,13.193a.451.451,0,0,0-.757-.491,4.591,4.591,0,0,1-2.273,1.557,11.594,11.594,0,0,1-3.978.654,11.594,11.594,0,0,1-3.978-.654A4.591,4.591,0,0,1,15.039,12.7a.451.451,0,1,0-.757.491Z" transform="translate(-13.489 0)" fill="#1ed0dd"/>
      </g>
    </g>
  </g>
</svg>