<svg xmlns="http://www.w3.org/2000/svg" width="16" height="19.781" viewBox="0 0 16 19.781">
  <g id="Group_12682" data-name="Group 12682" transform="translate(22270.662 13163)">
    <path id="Path_1313" data-name="Path 1313" d="M148.074,38.158v2.291a2.711,2.711,0,0,1-2.881,2.989h-2.261l0,10.719c0,1.574.551,2.165,2.077,2.165h7.14V53.814a4.567,4.567,0,0,1-1.239-2.994,4.638,4.638,0,0,1,4.62-4.619,4.553,4.553,0,0,1,2.156.541l0-6.419c0-1.573-.553-2.165-2.078-2.165h-7.539Z" transform="translate(-22413.594 -13201.157)" fill="#666"/>
    <path id="Path_1314" data-name="Path 1314" d="M146.852,38.168v2.143a2.22,2.22,0,0,1-.372,1.535,1.91,1.91,0,0,1-1.437.38h-2.1c0-.366.222-.533.45-.767l2.866-2.949a.882.882,0,0,1,.6-.342Z" transform="translate(-22413.6 -13201.168)" fill="#666"/>
    <path id="Path_1315" data-name="Path 1315" d="M376.165,271.367a1.557,1.557,0,1,1-1.557,1.557A1.557,1.557,0,0,1,376.165,271.367Zm0-1.839a3.4,3.4,0,0,0-2.158,6.018v4.107c0,.418.39.506.692.233l1.466-1.346,1.468,1.346c.3.274.689.185.689-.233v-4.108a3.394,3.394,0,0,0-2.157-6.017Z" transform="translate(-22634.225 -13423.262)" fill="#666" fill-rule="evenodd"/>
  </g>
</svg>
