<svg xmlns="http://www.w3.org/2000/svg" width="28" height="28" viewBox="0 0 28 28">
  <g id="gcc_icon1" data-name="gcc icon1" transform="translate(16587 2757)">
    <path id="GCC_logo_1" data-name="GCC logo 1" d="M70.5,48.828a14.928,14.928,0,0,1-.338,2.51,13.925,13.925,0,0,1-6.421,8.834,13.342,13.342,0,0,1-6.324,1.979,1.337,1.337,0,0,0-.434.048H55.921a18.16,18.16,0,0,1-3.234-.579,14.059,14.059,0,0,1-10.138-12.6.612.612,0,0,0-.048-.29V47.524c0-.29.048-.628.048-.917l.145-1.014a12.024,12.024,0,0,1,.434-1.786,13.755,13.755,0,0,1,.579-1.5,13.6,13.6,0,0,1,1.014-1.834c.241-.386.531-.772.821-1.159a8.393,8.393,0,0,1,.628-.724c.386-.386.772-.772,1.207-1.159.241-.193.531-.434.772-.628.386-.29.821-.531,1.207-.772a6.489,6.489,0,0,1,1.159-.579,7.587,7.587,0,0,1,1.11-.434,13.483,13.483,0,0,1,2.752-.676,9.375,9.375,0,0,1,1.159-.1.821.821,0,0,0,.338-.048h1.11a7.368,7.368,0,0,1,1.448.145A14.5,14.5,0,0,1,62,35.359a13.952,13.952,0,0,1,8.352,11.924.821.821,0,0,0,.048.338v1.207C70.452,48.779,70.5,48.779,70.5,48.828ZM56.4,35.793a12.352,12.352,0,1,0,8.769,3.55,12.359,12.359,0,0,0-8.769-3.55Zm0,23.028c-3.09-1.786-6.179-3.572-9.269-5.31a.177.177,0,0,1-.048-.145V42.745c0-.048,0-.1.1-.145l9.269-5.359a.091.091,0,0,1,.145,0L65.866,42.6c.048.048.048.048.048.145V53.414c0,.048,0,.1-.1.145-3.09,1.786-6.179,3.572-9.269,5.31C56.5,58.869,56.5,58.869,56.4,58.821Zm8.448-6.034V43.324c0-.048,0-.1-.048-.1C62.052,41.634,59.3,40.09,56.6,38.5a.091.091,0,0,0-.145,0c-2.752,1.593-5.5,3.138-8.207,4.731-.048.048-.048.048-.048.1v9.462c0,.048,0,.1.048.1,2.752,1.593,5.5,3.138,8.207,4.731a.091.091,0,0,0,.145,0c2.752-1.593,5.455-3.138,8.207-4.731C64.852,52.931,64.852,52.883,64.852,52.786Zm-8.69-.676c-.1.048-.193.048-.193.145-.048.048-.048.193-.193.193a.048.048,0,0,1-.048.048c0,.1-.048.145-.048.241-.145.048-.241,0-.241-.145,0-.048-.048-.1-.1-.145-.193-.193-.434-.338-.531-.628l-.145-.145c-.048-.048-.1-.1-.1-.145a.649.649,0,0,0-.29-.338c-.048-.048-.145-.1-.145-.145a.524.524,0,0,0-.386-.386.177.177,0,0,1-.145-.048c-.1,0-.193-.048-.193-.1a2.6,2.6,0,0,1-.338-.628c-.048-.1-.048-.241-.1-.338a4.872,4.872,0,0,0-.338-.724c0-.048-.048-.048-.1-.1l-.29-.145c-.1-.048-.145-.145-.29-.145a.168.168,0,0,1-.1-.048c-.1-.145-.145-.241-.241-.386a1.369,1.369,0,0,0-.386-.531.483.483,0,0,1-.193-.241c-.1-.1-.145-.193-.241-.29a1.734,1.734,0,0,1-.338-.483.685.685,0,0,0-.434-.386c-.1,0-.145-.1-.1-.193v-.29a.612.612,0,0,0-.048-.29.128.128,0,0,1,.145-.145.367.367,0,0,0,.386-.29c.048-.193.1-.241.29-.241.1,0,.145,0,.145-.1.048-.145.145-.241.193-.386L51,44.1a.821.821,0,0,1-.29-.386.4.4,0,0,1,.145-.386c.145-.048.338-.1.483-.145l.048-.048a1.21,1.21,0,0,0,.193-.338h.483c.048.048.1.193.193.193a1.622,1.622,0,0,1,.676.241c.048,0,.1.1.145.1a.355.355,0,0,1,.386.193.048.048,0,0,1,.048.048,1.055,1.055,0,0,1,.241.145c.048.048.048.1.1.1l.29.145.048.048c.048.241.1.29.338.29h.1c.29,0,.531.048.821.048h.241V44.29a1.359,1.359,0,0,1,.29-.724.168.168,0,0,1,.1-.048c.145-.048.29.048.434.1s.145.145.1.241c0,.048-.048.1-.048.145s.048.1.048.145a4.352,4.352,0,0,1,.434.483l.145.145a.367.367,0,0,0,.29.386,2.1,2.1,0,0,1,.338.193.321.321,0,0,1,.193.241,2.792,2.792,0,0,0,.241.676h0c.048.048.1.145.145.193a1.01,1.01,0,0,0,.29.193c.048.048.145.048.193.1a.434.434,0,0,0-.048-.241.717.717,0,0,1-.1-.434c0-.048.048-.1.1-.193l.145.145v.1c0,.1.048.145.1.241a.424.424,0,0,1,.048.338c-.1.145,0,.241.1.29a.233.233,0,0,0,.338.048.779.779,0,0,1,.434-.145.688.688,0,0,0,.579-.29c.1-.1.241-.193.29-.338.048-.1.1-.241.145-.338a1.631,1.631,0,0,0,.29-.579c0-.048.048-.1.048-.145h.048l.29.724a1.259,1.259,0,0,0,.531.772c.048.048.1.048.193.1a1.61,1.61,0,0,0,.483,0c.1,0,.145.048.241.1.1.1.193.241.29.29a.778.778,0,0,1,.338.193v.1c0,.048-.048.048-.048.1-.1.338-.193.628-.29.966,0,.048-.1.145-.145.193s-.1.048-.145.1c-.1.241-.29.483-.145.821.048.145,0,.193-.1.29-.048.048-.1.048-.145.1a.223.223,0,0,0-.145.241.6.6,0,0,1-.193.386,4.352,4.352,0,0,0-.483.434c-.048.1-.1.1-.193.145-.1,0-.193,0-.241.1a1.412,1.412,0,0,1-.579.338c-.1.048-.193-.048-.193-.145A1.014,1.014,0,0,0,60.507,51l-.29-.434c0-.048-.1-.048-.1-.048-.29.1-.531.193-.821.29-.1.048-.193.048-.29.1s-.145.1-.241.145-.241.048-.338.145a1.873,1.873,0,0,0-.29.531c-.1.145-.145.29-.241.434l-.145.29c-.048.1-.048.193-.193.193l-.048.048h-.145v-.241a.313.313,0,0,0-.241-.29H56.79c-.1,0-.145-.048-.241-.048-.1.145-.29.193-.386,0Zm2.317-5.793a2.354,2.354,0,0,1-.145-.338c0-.048,0-.1.048-.1h.145a.778.778,0,0,1,.193.338c-.048.048-.048.145-.1.145-.1,0-.145,0-.145-.048Z" transform="translate(-16629.5 -2791.2)" fill="#1baf5d"/>
  </g>
</svg>
