<svg xmlns="http://www.w3.org/2000/svg" width="180.481" height="71.032" viewBox="0 0 180.481 71.032">
  <path id="Path_1791" data-name="Path 1791" d="M-2605.6,381.776a2.169,2.169,0,0,1-.8-.566,2.373,2.373,0,0,1-.486-.907h1.32a1.113,1.113,0,0,0,.446.351,1.689,1.689,0,0,0,.653.114,1.6,1.6,0,0,0,.77-.162.948.948,0,0,0,.413-.435,2.187,2.187,0,0,0,.123-.9,1.838,1.838,0,0,1-.656.5,1.8,1.8,0,0,1-.784.158,2.082,2.082,0,0,1-1.615-.748,2.835,2.835,0,0,1-.664-1.93,2.8,2.8,0,0,1,.7-1.989,1.974,1.974,0,0,1,1.5-.675,1.928,1.928,0,0,1,.778.158,2.613,2.613,0,0,1,.735.541v-.555H-2602v4.451a3.158,3.158,0,0,1-.479,1.948,2.313,2.313,0,0,1-1.956.841A3.053,3.053,0,0,1-2605.6,381.776Zm.264-5.559a1.484,1.484,0,0,0-.362,1.035,1.482,1.482,0,0,0,.378,1.065,1.176,1.176,0,0,0,.933.411,1.154,1.154,0,0,0,.912-.4,1.533,1.533,0,0,0,.364-1.062,1.524,1.524,0,0,0-.364-1.055,1.19,1.19,0,0,0-.93-.411A1.186,1.186,0,0,0-2605.335,376.216Zm60.138,3.518a2.908,2.908,0,0,1-.865-1.159l1.022-.681c.311.621.661.933,1.065.933a.722.722,0,0,0,.524-.194.613.613,0,0,0,.212-.464.887.887,0,0,0-.158-.482,4.985,4.985,0,0,0-.716-.736,7.356,7.356,0,0,1-1.349-1.45,1.953,1.953,0,0,1-.3-1.015,1.725,1.725,0,0,1,.506-1.26,1.659,1.659,0,0,1,1.251-.524,1.77,1.77,0,0,1,.919.25,3.626,3.626,0,0,1,.939.9l-.906.884c-.318-.482-.641-.731-.968-.731a.541.541,0,0,0-.392.141.423.423,0,0,0-.156.319.6.6,0,0,0,.107.332,9.063,9.063,0,0,0,.9.909c.471.424.747.688.845.8a2.873,2.873,0,0,1,.53.792,2.192,2.192,0,0,1,.152.815,1.953,1.953,0,0,1-.545,1.429,1.883,1.883,0,0,1-1.422.56A1.984,1.984,0,0,1-2545.2,379.734Zm-70.974-.73a3.859,3.859,0,0,1-.95-2.611,3.894,3.894,0,0,1,.446-1.85,3.494,3.494,0,0,1,1.218-1.352,3.052,3.052,0,0,1,1.667-.491,3.037,3.037,0,0,1,2.326,1.081,3.8,3.8,0,0,1,.978,2.64,3.813,3.813,0,0,1-.962,2.614,3.042,3.042,0,0,1-2.331,1.063A3.042,3.042,0,0,1-2616.171,379Zm.87-4.324a2.53,2.53,0,0,0-.6,1.735,2.329,2.329,0,0,0,.761,1.846,1.956,1.956,0,0,0,1.358.535,1.912,1.912,0,0,0,1.469-.688,2.483,2.483,0,0,0,.606-1.7,2.5,2.5,0,0,0-.61-1.713,1.927,1.927,0,0,0-1.488-.693A1.946,1.946,0,0,0-2615.3,374.681Zm-37.657,4.945a3.321,3.321,0,0,1-1.229-1.364,4.091,4.091,0,0,1-.455-1.9,3.712,3.712,0,0,1,.834-2.425,3.156,3.156,0,0,1,2.588-1.238,3.582,3.582,0,0,1,1.559.339,3.4,3.4,0,0,1,1.187.99l-.852.929a2.4,2.4,0,0,0-1.891-.958,2.062,2.062,0,0,0-1.571.686,2.383,2.383,0,0,0-.638,1.677,2.457,2.457,0,0,0,.661,1.73,2.135,2.135,0,0,0,1.632.7,1.782,1.782,0,0,0,1.052-.291,1.946,1.946,0,0,0,.7-.888h-1.853v-1.273h3.217l.006.3a3.693,3.693,0,0,1-.434,1.759,3.293,3.293,0,0,1-1.119,1.267,2.975,2.975,0,0,1-1.613.428A3.383,3.383,0,0,1-2652.958,379.626Zm173.281-.337a2.787,2.787,0,0,1-.7-1.939,2.889,2.889,0,0,1,.7-1.979,2.254,2.254,0,0,1,1.751-.784,2.339,2.339,0,0,1,1.818.784,3.018,3.018,0,0,1,.7,2.089v.247h-3.822a1.557,1.557,0,0,0,.441.881,1.289,1.289,0,0,0,.921.324,1.5,1.5,0,0,0,1.141-.509l.995.517a2.329,2.329,0,0,1-.893.864,2.487,2.487,0,0,1-1.239.284A2.325,2.325,0,0,1-2479.677,379.29Zm.943-3.285a1.647,1.647,0,0,0-.446.674h2.588a1.255,1.255,0,0,0-.469-.706,1.221,1.221,0,0,0-.8-.27A1.311,1.311,0,0,0-2478.734,376Zm-6.631,3.25a2.831,2.831,0,0,1-.708-1.919,2.992,2.992,0,0,1,.338-1.391,2.657,2.657,0,0,1,.966-1,2.642,2.642,0,0,1,1.383-.363,2.509,2.509,0,0,1,1.262.3,2.435,2.435,0,0,1,.923.867l-.991.587a1.642,1.642,0,0,0-.551-.433,1.494,1.494,0,0,0-.641-.128,1.417,1.417,0,0,0-1.077.437,1.585,1.585,0,0,0-.409,1.129,1.53,1.53,0,0,0,.393,1.093,1.351,1.351,0,0,0,1.04.423,1.47,1.47,0,0,0,1.245-.6l.936.708a2.47,2.47,0,0,1-2.149,1.088A2.452,2.452,0,0,1-2485.365,379.255Zm-11.253.021a2.831,2.831,0,0,1-.672-1.939,2.944,2.944,0,0,1,.654-1.98,2.012,2.012,0,0,1,1.584-.769,1.855,1.855,0,0,1,.8.177,2.226,2.226,0,0,1,.7.521v-.555h1.184v5.2h-1.184v-.547a2.258,2.258,0,0,1-.706.521,1.754,1.754,0,0,1-.756.163A2.056,2.056,0,0,1-2496.618,379.275Zm.9-3.059a1.636,1.636,0,0,0-.37,1.094,1.689,1.689,0,0,0,.375,1.123,1.175,1.175,0,0,0,.919.433,1.2,1.2,0,0,0,.927-.426,1.7,1.7,0,0,0,.371-1.13,1.635,1.635,0,0,0-.371-1.1,1.194,1.194,0,0,0-.932-.424A1.158,1.158,0,0,0-2495.723,376.216Zm-8.716,3.465a2.008,2.008,0,0,1-.676-1.067,7.127,7.127,0,0,1-.14-1.725V374.73h1.179v2.51a3.656,3.656,0,0,0,.1,1.021.882.882,0,0,0,.3.451.825.825,0,0,0,.508.153.85.85,0,0,0,.512-.153.832.832,0,0,0,.311-.46,3.962,3.962,0,0,0,.078-.968V374.73h1.182v2.2a5.882,5.882,0,0,1-.2,1.87,2.045,2.045,0,0,1-.707.945,2.024,2.024,0,0,1-1.181.325A1.964,1.964,0,0,1-2504.438,379.681Zm-5.092-.5.725-.879a1.646,1.646,0,0,0,.487.431.983.983,0,0,0,.5.167.526.526,0,0,0,.381-.125.378.378,0,0,0,.148-.289c0-.19-.182-.392-.52-.587l-.405-.22a1.853,1.853,0,0,1-1.134-1.6,1.453,1.453,0,0,1,.431-1.062,1.461,1.461,0,0,1,1.1-.434,1.762,1.762,0,0,1,.869.22,2.09,2.09,0,0,1,.68.652l-.732.814a1.222,1.222,0,0,0-.816-.49.5.5,0,0,0-.311.089.293.293,0,0,0-.116.231.341.341,0,0,0,.076.206,1.322,1.322,0,0,0,.351.225l.438.245a2.418,2.418,0,0,1,.933.762,1.536,1.536,0,0,1,.261.9,1.575,1.575,0,0,1-.458,1.158,1.648,1.648,0,0,1-1.236.464A1.922,1.922,0,0,1-2509.53,379.182Zm-17.517.094a2.826,2.826,0,0,1-.678-1.939,2.986,2.986,0,0,1,.654-1.98,2.01,2.01,0,0,1,1.59-.769,1.84,1.84,0,0,1,.8.177,2.113,2.113,0,0,1,.694.521v-.555h1.181v5.2h-1.181v-.547a2.281,2.281,0,0,1-.7.521,1.747,1.747,0,0,1-.762.163A2.042,2.042,0,0,1-2527.047,379.275Zm.9-3.059a1.6,1.6,0,0,0-.372,1.094,1.694,1.694,0,0,0,.375,1.123,1.166,1.166,0,0,0,.909.433,1.2,1.2,0,0,0,.934-.426,1.688,1.688,0,0,0,.37-1.13,1.626,1.626,0,0,0-.37-1.1,1.19,1.19,0,0,0-.934-.424A1.136,1.136,0,0,0-2526.152,376.216Zm-8.693,3.038a2.837,2.837,0,0,1-.7-1.919,2.919,2.919,0,0,1,.339-1.391,2.568,2.568,0,0,1,.967-1,2.656,2.656,0,0,1,1.381-.363,2.549,2.549,0,0,1,1.262.3,2.4,2.4,0,0,1,.916.867l-.985.587a1.588,1.588,0,0,0-.557-.433,1.469,1.469,0,0,0-.636-.128,1.4,1.4,0,0,0-1.076.437,1.577,1.577,0,0,0-.417,1.129,1.566,1.566,0,0,0,.4,1.093,1.352,1.352,0,0,0,1.045.423,1.476,1.476,0,0,0,1.243-.6l.933.708a2.47,2.47,0,0,1-2.147,1.088A2.468,2.468,0,0,1-2534.845,379.255Zm-5.684.011a2.788,2.788,0,0,1-.717-1.934,2.769,2.769,0,0,1,.813-2.038,2.232,2.232,0,0,1,1.642-.706,2.291,2.291,0,0,1,1.256.372,2.47,2.47,0,0,1,.925.992,2.961,2.961,0,0,1,.332,1.371,3,3,0,0,1-.332,1.377,2.433,2.433,0,0,1-.912,1.007,2.358,2.358,0,0,1-1.269.361A2.252,2.252,0,0,1-2540.529,379.265Zm.836-3.023a1.587,1.587,0,0,0-.37,1.094,1.643,1.643,0,0,0,.364,1.107,1.151,1.151,0,0,0,.914.423,1.208,1.208,0,0,0,.938-.426,1.658,1.658,0,0,0,.371-1.1,1.624,1.624,0,0,0-.367-1.1,1.177,1.177,0,0,0-.931-.409A1.171,1.171,0,0,0-2539.693,376.242Zm-16.493,3.023a2.788,2.788,0,0,1-.727-1.934,2.78,2.78,0,0,1,.815-2.038,2.249,2.249,0,0,1,1.642-.706,2.292,2.292,0,0,1,1.259.372,2.512,2.512,0,0,1,.927.992,2.913,2.913,0,0,1,.328,1.371,2.948,2.948,0,0,1-.328,1.377,2.547,2.547,0,0,1-.909,1.007,2.388,2.388,0,0,1-1.274.361A2.231,2.231,0,0,1-2556.186,379.265Zm.828-3.023a1.6,1.6,0,0,0-.371,1.094,1.64,1.64,0,0,0,.368,1.107,1.146,1.146,0,0,0,.92.423,1.186,1.186,0,0,0,.928-.426,1.622,1.622,0,0,0,.377-1.1,1.631,1.631,0,0,0-.371-1.1,1.175,1.175,0,0,0-.93-.409A1.175,1.175,0,0,0-2555.357,376.242Zm-16.85,3.023a2.776,2.776,0,0,1-.718-1.934,2.756,2.756,0,0,1,.811-2.038,2.245,2.245,0,0,1,1.637-.706,2.29,2.29,0,0,1,1.265.372,2.537,2.537,0,0,1,.924.992,3,3,0,0,1,.334,1.371,3.033,3.033,0,0,1-.334,1.377,2.532,2.532,0,0,1-.914,1.007,2.351,2.351,0,0,1-1.266.361A2.254,2.254,0,0,1-2572.207,379.265Zm.828-3.023a1.627,1.627,0,0,0-.363,1.094,1.665,1.665,0,0,0,.361,1.107,1.166,1.166,0,0,0,.927.423,1.2,1.2,0,0,0,.93-.426,1.64,1.64,0,0,0,.369-1.1,1.655,1.655,0,0,0-.364-1.1,1.18,1.18,0,0,0-.935-.409A1.185,1.185,0,0,0-2571.379,376.242Zm-11.55,3.033a2.812,2.812,0,0,1-.671-1.939,2.973,2.973,0,0,1,.648-1.98,2.012,2.012,0,0,1,1.582-.769,1.855,1.855,0,0,1,.806.177,2.237,2.237,0,0,1,.7.521v-.555h1.179v5.2h-1.179v-.547a2.335,2.335,0,0,1-.706.521,1.774,1.774,0,0,1-.765.163A2.03,2.03,0,0,1-2582.929,379.275Zm.895-3.059a1.609,1.609,0,0,0-.365,1.094,1.683,1.683,0,0,0,.365,1.123,1.175,1.175,0,0,0,.915.433,1.2,1.2,0,0,0,.933-.426,1.7,1.7,0,0,0,.372-1.13,1.636,1.636,0,0,0-.372-1.1,1.189,1.189,0,0,0-.935-.424A1.134,1.134,0,0,0-2582.034,376.216Zm-18.334,3.059a2.8,2.8,0,0,1-.68-1.939,2.958,2.958,0,0,1,.655-1.98,2.007,2.007,0,0,1,1.581-.769,1.869,1.869,0,0,1,.8.177,2.146,2.146,0,0,1,.7.521v-.555h1.182v5.2h-1.182v-.547a2.272,2.272,0,0,1-.7.521,1.764,1.764,0,0,1-.766.163A2.026,2.026,0,0,1-2600.368,379.275Zm.892-3.059a1.574,1.574,0,0,0-.365,1.094,1.646,1.646,0,0,0,.365,1.123,1.169,1.169,0,0,0,.914.433,1.192,1.192,0,0,0,.932-.426,1.688,1.688,0,0,0,.369-1.13,1.626,1.626,0,0,0-.369-1.1,1.182,1.182,0,0,0-.932-.424A1.144,1.144,0,0,0-2599.476,376.216ZM-2627,379.275a2.84,2.84,0,0,1-.674-1.939,2.953,2.953,0,0,1,.654-1.98,2.014,2.014,0,0,1,1.58-.769,1.839,1.839,0,0,1,.8.177,2.193,2.193,0,0,1,.7.521v-.555h1.18v5.2h-1.18v-.547a2.31,2.31,0,0,1-.7.521,1.747,1.747,0,0,1-.76.163A2.042,2.042,0,0,1-2627,379.275Zm.887-3.059a1.625,1.625,0,0,0-.36,1.094,1.675,1.675,0,0,0,.374,1.123,1.156,1.156,0,0,0,.91.433,1.189,1.189,0,0,0,.931-.426,1.707,1.707,0,0,0,.372-1.13,1.645,1.645,0,0,0-.372-1.1,1.181,1.181,0,0,0-.934-.424A1.171,1.171,0,0,0-2626.111,376.216Zm-9.4,3.073a2.788,2.788,0,0,1-.7-1.939,2.89,2.89,0,0,1,.7-1.979,2.253,2.253,0,0,1,1.75-.784,2.332,2.332,0,0,1,1.817.784,3,3,0,0,1,.7,2.089l0,.247h-3.814a1.449,1.449,0,0,0,.446.881,1.249,1.249,0,0,0,.909.324,1.488,1.488,0,0,0,1.14-.509l1,.517a2.34,2.34,0,0,1-.9.864,2.453,2.453,0,0,1-1.233.284A2.33,2.33,0,0,1-2635.516,379.29Zm.94-3.285a1.635,1.635,0,0,0-.44.674h2.584a1.255,1.255,0,0,0-.463-.706,1.237,1.237,0,0,0-.808-.27A1.319,1.319,0,0,0-2634.575,376Zm-11.969,3.285a2.761,2.761,0,0,1-.706-1.939,2.9,2.9,0,0,1,.7-1.979,2.246,2.246,0,0,1,1.749-.784,2.328,2.328,0,0,1,1.817.784,3.027,3.027,0,0,1,.7,2.089v.247h-3.824a1.52,1.52,0,0,0,.452.881,1.268,1.268,0,0,0,.911.324,1.466,1.466,0,0,0,1.135-.509l1,.517a2.4,2.4,0,0,1-.894.864,2.477,2.477,0,0,1-1.237.284A2.306,2.306,0,0,1-2646.545,379.29Zm.933-3.285a1.675,1.675,0,0,0-.446.674h2.588a1.233,1.233,0,0,0-.466-.706,1.217,1.217,0,0,0-.8-.27A1.324,1.324,0,0,0-2645.611,376Zm128.666,3.926v-7.052h1.2v7.052Zm28.774,0v-2.284a5.7,5.7,0,0,0-.084-1.229.859.859,0,0,0-.259-.471.7.7,0,0,0-.466-.161.837.837,0,0,0-.615.26,1.475,1.475,0,0,0-.362.737,6.866,6.866,0,0,0-.047,1.06v2.088h-1.188v-5.2H-2490v.52a2.761,2.761,0,0,1,.728-.52,1.7,1.7,0,0,1,.673-.143,1.58,1.58,0,0,1,1.2.534,2,2,0,0,1,.412,1.364v3.444Zm-12,0v-5.2h1.027v.644a1.494,1.494,0,0,1,.427-.593,1.019,1.019,0,0,1,.591-.194.964.964,0,0,1,.471.13l-.36,1.135a.748.748,0,0,0-.337-.122c-.172,0-.33.132-.455.373a3.88,3.88,0,0,0-.187,1.468l.006.252v2.108Zm-11.326,0v-2.284a5.944,5.944,0,0,0-.074-1.229.858.858,0,0,0-.264-.471.7.7,0,0,0-.462-.161.853.853,0,0,0-.625.26,1.521,1.521,0,0,0-.354.737,7.369,7.369,0,0,0-.052,1.06v2.088h-1.183v-5.2h1.183v.52a2.968,2.968,0,0,1,.732-.52,1.74,1.74,0,0,1,.676-.143,1.564,1.564,0,0,1,1.2.534,2.014,2.014,0,0,1,.418,1.364v3.444Zm-10.248,0V372.7h1.186v7.229Zm-8,0v-5.2h1.179v5.2Zm-21.5,0v-5.2h1.027v.644a1.457,1.457,0,0,1,.433-.593,1,1,0,0,1,.587-.194.981.981,0,0,1,.476.13l-.365,1.135a.751.751,0,0,0-.334-.122c-.183,0-.329.132-.459.373a3.806,3.806,0,0,0-.181,1.468v2.36Zm-8.025,0v-4.092h-.452V374.73h.452c0-.694.007-1.1.028-1.23a1.023,1.023,0,0,1,.328-.688,1.166,1.166,0,0,1,.793-.252,2.215,2.215,0,0,1,.831.19v1a1.594,1.594,0,0,0-.422-.077.427.427,0,0,0-.308.088.491.491,0,0,0-.069.3l-.012.666h.762v1.107h-.751v4.092Zm-4.712,0v-2.284a5.9,5.9,0,0,0-.083-1.229.808.808,0,0,0-.264-.471.675.675,0,0,0-.462-.161.844.844,0,0,0-.617.26,1.467,1.467,0,0,0-.36.737,6.58,6.58,0,0,0-.053,1.06v2.088h-1.18v-5.2h1.18v.52a3.028,3.028,0,0,1,.735-.52,1.7,1.7,0,0,1,.673-.143,1.551,1.551,0,0,1,1.191.534,1.954,1.954,0,0,1,.415,1.364v3.444Zm-10.969,0v-5.2h1.179v5.2Zm-2.4,0v-4.092h-.6V374.73h.6v-1.94h1.187v1.94h.7v1.107h-.7v4.092Zm-10.636,0,2.1-4.092h-1.768V374.73h3.613l-2.1,4.085h1.975v1.114Zm-1.733,0v-5.2h1.178v5.2Zm-2.208,0v-2.284a5.875,5.875,0,0,0-.081-1.229.812.812,0,0,0-.265-.471.681.681,0,0,0-.462-.161.862.862,0,0,0-.621.26,1.474,1.474,0,0,0-.354.737,6.549,6.549,0,0,0-.054,1.06v2.088h-1.181v-5.2h1.181v.52a2.978,2.978,0,0,1,.737-.52,1.681,1.681,0,0,1,.673-.143,1.587,1.587,0,0,1,1.2.534,2.013,2.013,0,0,1,.407,1.364v3.444Zm-17.795,0v-5.2h1.018v.644a1.5,1.5,0,0,1,.434-.593,1,1,0,0,1,.584-.194.992.992,0,0,1,.479.13l-.37,1.135a.719.719,0,0,0-.328-.122c-.183,0-.334.132-.456.373a3.723,3.723,0,0,0-.187,1.468l0,.252v2.108Zm-11.965,0V372.7h1.183v7.229Zm-8.868,0v-5.2h1.034v.644a1.45,1.45,0,0,1,.433-.593,1,1,0,0,1,.589-.194.951.951,0,0,1,.465.13l-.354,1.135a.757.757,0,0,0-.343-.122c-.172,0-.329.132-.455.373a3.928,3.928,0,0,0-.18,1.468l.006.252v2.108Zm-7.751,0v-2.284a5.517,5.517,0,0,0-.09-1.229.761.761,0,0,0-.258-.471.691.691,0,0,0-.462-.161.833.833,0,0,0-.617.26,1.427,1.427,0,0,0-.362.737,6.518,6.518,0,0,0-.055,1.06v2.088h-1.176v-5.2h1.176v.52a2.92,2.92,0,0,1,.733-.52,1.754,1.754,0,0,1,.676-.143,1.562,1.562,0,0,1,1.2.534,1.982,1.982,0,0,1,.417,1.364v3.444Zm108.625-5.9a.958.958,0,0,1-.224-.625.839.839,0,0,1,.224-.595.656.656,0,0,1,.517-.25.709.709,0,0,1,.536.252.892.892,0,0,1,.219.609.881.881,0,0,1-.219.608.658.658,0,0,1-.52.249A.68.68,0,0,1-2529.686,374.03Zm-45.205,0a.94.94,0,0,1-.219-.625.851.851,0,0,1,.219-.595.645.645,0,0,1,.523-.25.7.7,0,0,1,.529.252.921.921,0,0,1,.22.609.922.922,0,0,1-.218.608.674.674,0,0,1-.526.249A.673.673,0,0,1-2574.891,374.03Zm-14.774,0a.937.937,0,0,1-.216-.625.861.861,0,0,1,.216-.595.658.658,0,0,1,.525-.25.686.686,0,0,1,.526.252.889.889,0,0,1,.221.609.9.9,0,0,1-.217.608.663.663,0,0,1-.525.249A.7.7,0,0,1-2589.666,374.03Zm97.743-6.006a12.784,12.784,0,0,1-1.223-.423,2.526,2.526,0,0,1-.469-.219,1.726,1.726,0,0,1-.535-.363v-.112c.023-.023.088-.026.18-.026a5.99,5.99,0,0,1,.592.154c.373.086.57.132.588.132a2.12,2.12,0,0,0,.514-.08,4.375,4.375,0,0,0,2.2-1.5,12.933,12.933,0,0,1-1.328-.17,1.093,1.093,0,0,1-.425-.207.728.728,0,0,1-.32-.435c-.007-.09-.011-.148-.011-.168a2.658,2.658,0,0,1,.231-.885,7.049,7.049,0,0,1,.391-.887,2.581,2.581,0,0,1,.668-.855.667.667,0,0,1,.426-.154.583.583,0,0,1,.14.014,1.139,1.139,0,0,1,.5.448,5.112,5.112,0,0,1,.628,2.052h.026v-.01h2.134v.01h1.418c.051,0,.164-.139.318-.414.2-.358.3-.544.322-.563a2.781,2.781,0,0,1,.905-.707,2.2,2.2,0,0,1,.957-.363c.224,0,.33.082.33.223a.446.446,0,0,1-.012.1.506.506,0,0,0,0,.12.581.581,0,0,0,.05.254,3.03,3.03,0,0,0,.8,1.346h2.27a2.937,2.937,0,0,0,.049-.366,8.585,8.585,0,0,0-.138-1.026c-.072-.46-.206-1.138-.411-2.039-.088-.07-.237-.191-.441-.349a8.932,8.932,0,0,1,.852-1.47.865.865,0,0,0,.09.469,3.149,3.149,0,0,0,.655.486c.18.109.464.287.839.515a1.887,1.887,0,0,1-.272.4c-.135.174-.334.427-.6.77-.021.015-.027.068-.027.137l.256,2.12-.287,1.534a.462.462,0,0,0-.1.03.485.485,0,0,1-.116.035h-3.117c-.076,0-.152.1-.213.294s-.14.314-.224.329l-2.548-1.352a2.4,2.4,0,0,0-.282.473c-.094.166-.2.256-.305.256h-3.327a11.39,11.39,0,0,1-.468,1.043,3.344,3.344,0,0,1-.751.954,1.675,1.675,0,0,1-.8.444,1.108,1.108,0,0,1-.28.037A.979.979,0,0,1-2491.923,368.024Zm7.8-4.485a.712.712,0,0,0-.394.257c.223.148.447.287.672.416a1.564,1.564,0,0,0,.711.306.315.315,0,0,0,.107-.013.259.259,0,0,1,.067-.01v-.108a1.225,1.225,0,0,0-.158-.569.584.584,0,0,0-.527-.365A1.572,1.572,0,0,0-2484.123,363.54Zm-7.158-.193c-.114.131-.17.219-.17.272a.328.328,0,0,0,.112.26.671.671,0,0,0,.513.288.765.765,0,0,0,.227.02.713.713,0,0,0,.324-.049.662.662,0,0,1,.052-.042c.025-.025.045-.033.055-.05a2.1,2.1,0,0,0-.43-.779.509.509,0,0,0-.286-.148A.791.791,0,0,0-2491.281,363.347Zm-84.231,4.175c-.06.049-.154.142-.3.291-.13.145-.212.225-.212.225a1.83,1.83,0,0,1-.447-.248,3.04,3.04,0,0,1-.451-.321,8.149,8.149,0,0,1,.652-.814,3.466,3.466,0,0,0,.806.535c.272-.28.467-.455.563-.535l.928.535a6.4,6.4,0,0,1-.681.85Zm-66.418,0a3.642,3.642,0,0,0-.3.291c-.137.145-.221.225-.221.225a1.906,1.906,0,0,1-.441-.248,4.219,4.219,0,0,1-.458-.321c.084-.123.3-.4.653-.814a3.7,3.7,0,0,0,.811.535,6.508,6.508,0,0,1,.565-.535l.924.535a6.108,6.108,0,0,1-.683.85Zm27.205-.329.895-.909a7.239,7.239,0,0,0,1.175.624l-.931.894Zm-12.893-2.339a2.256,2.256,0,0,0-.3.473c-.09.166-.181.256-.3.256h-4.6l-.531-5.667c0-.047.059-.133.17-.258.039-.063.272-.322.7-.781.03.191.064.553.109,1.089q.241,2.786.443,4.115c0,.049.046.086.137.106.037.008.106.04.205.077a.456.456,0,0,0,.205.064h2.135v.01h1.417c.055,0,.161-.139.327-.414a5.563,5.563,0,0,1,.318-.563,2.693,2.693,0,0,1,.9-.707,2.22,2.22,0,0,1,.954-.363c.228,0,.339.082.339.223a.749.749,0,0,1-.015.1.8.8,0,0,0,0,.12.7.7,0,0,0,.046.254,3.062,3.062,0,0,0,.808,1.346h.144v-.01h1.206v.01h2.081a1.221,1.221,0,0,0,.1-.582,1.609,1.609,0,0,1,.06-.561,1.462,1.462,0,0,1,.348-.489c.14-.131.279-.274.425-.416l-.117,1.428a1.024,1.024,0,0,0,.008.142.615.615,0,0,0,.239.334.631.631,0,0,0,.284.133h2.126v.01h2.291a4.209,4.209,0,0,0,.76-.151c.093-.04.229-.117.411-.215,0-.016-.015-.028-.041-.048a4.44,4.44,0,0,0-1.709-.6,1.052,1.052,0,0,0-.41.083,2.826,2.826,0,0,1-.459.162v-.14a.794.794,0,0,1,.137-.228c.553-.712,1.01-1.066,1.389-1.066a1.722,1.722,0,0,1,.7.139c.072.034.509.257,1.311.685a7.9,7.9,0,0,0,1.583.684c.205.059.493.147.866.241,0,.014-.159.216-.458.607-.212.277-.354.42-.407.42l-1.907-.149a2.345,2.345,0,0,0-1.156.389,3.34,3.34,0,0,1-.885.429h-4.571a.837.837,0,0,1-.212-.067.875.875,0,0,1-.335-.267,1.512,1.512,0,0,1-.209-.426l-.431.76h-3.644c-.081,0-.156.1-.222.294s-.137.314-.221.329Zm1.278-1.315a.726.726,0,0,0-.4.257c.218.148.444.287.673.416a1.545,1.545,0,0,0,.714.306.316.316,0,0,0,.1-.013.238.238,0,0,1,.064-.01v-.108a1.229,1.229,0,0,0-.147-.569.611.611,0,0,0-.541-.365A1.554,1.554,0,0,0-2626.341,363.54Zm149.737-2.686a2.276,2.276,0,0,1,.378-.753,7.162,7.162,0,0,1,.5-.752l.3,3.951a3.558,3.558,0,0,1-.628,2.284Zm-19.845,4.694c-.09-.183-.144-.266-.163-.266s-.072.048-.144.141a.321.321,0,0,1-.251.159h-1.542a.4.4,0,0,1-.279-.167.668.668,0,0,1-.18-.287c-.23.3-.419.454-.563.454h-3.494l-.274-.387a1.544,1.544,0,0,0-.137.387h-1.647a.865.865,0,0,0-.175-.3l-.264.3h-1.886a.414.414,0,0,1-.283-.167.73.73,0,0,1-.176-.287c-.238.3-.418.454-.562.454h-3.879a.221.221,0,0,1-.153-.084.623.623,0,0,1-.247-.3c-.043-.228-.107-.538-.216-.95a1.126,1.126,0,0,0-.378.51c-.144.291-.3.45-.472.462l-1.842-.364v-.168c0,.041.149-.4.46-1.306a1.717,1.717,0,0,1,.853-.762c.253-.143.563-.34.939-.581a3.917,3.917,0,0,0-.105-.379c.048-.063.265-.42.64-1.069.113.794.32,1.974.618,3.548.025.136.179.2.452.2h.062v-.01h2.128v.01h1.566c.12,0,.186-.139.229-.4.008-.145.021-.291.031-.434a8.213,8.213,0,0,1,.988-1.078,2.646,2.646,0,0,1-.132.757c-.176.57-.267.859-.278.895a.842.842,0,0,0,.49.257.465.465,0,0,0,.137-.047.322.322,0,0,1,.11-.059.166.166,0,0,0-.031.059.178.178,0,0,1-.06.047h1.224v-.659a3.287,3.287,0,0,1,.944-.99l-.333,1.3v.354h1.112a1.02,1.02,0,0,0,.012-.186,1.781,1.781,0,0,0-.075-.3,2.315,2.315,0,0,1-.075-.28,4.425,4.425,0,0,1,.532-.827c.067-.066.162-.139.258-.244v.965a4.533,4.533,0,0,1-.149.72c.045.092.156.131.321.141h2.083v.01h1.563c.112,0,.184-.139.225-.4.009-.145.017-.291.036-.434a7.819,7.819,0,0,1,.991-1.078,2.521,2.521,0,0,1-.14.757c-.174.57-.269.859-.276.895a.859.859,0,0,0,.485.257.468.468,0,0,0,.14-.047.386.386,0,0,1,.109-.059.559.559,0,0,1-.034.059.108.108,0,0,1-.053.047h.88a3.694,3.694,0,0,1,.131-.731,2.124,2.124,0,0,1,.384-.458c.176-.161.337-.317.5-.46l-.286,1.265v.383h.97c-.005-.092-.03-.234-.067-.45-.031-.19-.052-.31-.052-.315a2.224,2.224,0,0,1,.354-.476,6.743,6.743,0,0,1,.531-.595v1.789a1.573,1.573,0,0,1-.148.571c-.09.229-.2.457-.3.687a.583.583,0,0,1-.117.035Zm-16.994-2.825a1.173,1.173,0,0,1-.55.637c-.214.106-.425.2-.622.286a5.352,5.352,0,0,0,.927.232h.685v-.232a5.885,5.885,0,0,0-.214-1.133A.265.265,0,0,0-2513.443,362.723Zm-6.65-1.869a2.294,2.294,0,0,1,.381-.753,8.063,8.063,0,0,1,.5-.752l.31,3.951a3.581,3.581,0,0,1-.629,2.284Zm-6.289,4.73-.4-.729c-.082.146-.218.388-.414.729h-5.936l-.526-5.667c0-.047.049-.133.168-.258a9.273,9.273,0,0,1,.7-.781c.03.191.06.553.105,1.089.167,1.858.311,3.229.444,4.115,0,.049.042.086.131.106a1.5,1.5,0,0,1,.21.077.474.474,0,0,0,.209.064h2.136v.01h2.334a1.157,1.157,0,0,0-1.068-.7,2.425,2.425,0,0,0-.364.037l.625-1.2c.184-.066.372-.118.561-.189a2.473,2.473,0,0,1,.672-.119,1.6,1.6,0,0,1,1,.368,1.053,1.053,0,0,1,.484.825.853.853,0,0,1-.14.406c-.1.163-.19.321-.28.466v.105h2.592a2.226,2.226,0,0,0,.046-.366,7.8,7.8,0,0,0-.14-1.026c-.072-.46-.206-1.138-.41-2.039-.094-.07-.239-.191-.435-.349a8.978,8.978,0,0,1,.845-1.47.84.84,0,0,0,.094.469,3.12,3.12,0,0,0,.653.486c.186.109.465.287.841.515a1.836,1.836,0,0,1-.27.4c-.143.174-.335.427-.6.77-.025.015-.026.068-.026.137l.256,2.12-.293,1.534a.633.633,0,0,0-.1.03.384.384,0,0,1-.113.035Zm-19.349,0a.217.217,0,0,1-.153-.084.586.586,0,0,1-.243-.3c-.04-.228-.109-.538-.217-.95a1.082,1.082,0,0,0-.378.51c-.142.291-.3.45-.472.462l-1.847-.364v-.168c0,.041.153-.4.456-1.306a1.75,1.75,0,0,1,.857-.762c.257-.143.568-.34.944-.581a3.285,3.285,0,0,0-.106-.379c.05-.063.26-.42.636-1.069.114.794.32,1.974.615,3.548.031.136.182.2.456.2h.06v-.01h6.574a3.634,3.634,0,0,0,.2-.5,3.077,3.077,0,0,1,.506-.915,2.14,2.14,0,0,1,.835-.744,3.68,3.68,0,0,1,1.385-.454,6.119,6.119,0,0,1,.672,1.96.988.988,0,0,1,.049.357.73.73,0,0,1-.109.324c-.088.164-.314.526-.67,1.067l-2.312-.835a.782.782,0,0,0-.387.435,1.441,1.441,0,0,1-.313.546h-1.506v.016Zm-1.09-2.86a1.182,1.182,0,0,1-.555.637c-.217.106-.42.2-.625.286a5.693,5.693,0,0,0,.931.232h.686v-.232a5.592,5.592,0,0,0-.219-1.133A.252.252,0,0,0-2546.821,362.723Zm9.891.283a2.143,2.143,0,0,0-.474.284l1.372.55c-.04-.156-.077-.307-.105-.481a1.059,1.059,0,0,0-.271-.392.274.274,0,0,0-.171-.037A.97.97,0,0,0-2536.93,363.007Zm-19.9,2.577a.493.493,0,0,1-.147-.334,2.064,2.064,0,0,0-.1-.4c-.1.157-.276.4-.517.729h-2.1a.853.853,0,0,1-.216-.067.773.773,0,0,1-.332-.267,1.576,1.576,0,0,1-.217-.426l-.423.76h-5.372l-.536-5.667c0-.047.056-.133.167-.258.043-.063.274-.322.7-.781.031.191.068.553.1,1.089q.248,2.786.45,4.115c0,.049.037.086.132.106a1.8,1.8,0,0,1,.2.077.494.494,0,0,0,.213.064h2.13v.01h2.083a1.2,1.2,0,0,0,.094-.582,1.59,1.59,0,0,1,.052-.561,1.83,1.83,0,0,1,.347-.489c.149-.131.289-.274.43-.416l-.121,1.428a.656.656,0,0,0,.016.142.607.607,0,0,0,.237.334.567.567,0,0,0,.309.143h2.061l-.551-3.734.931-1.276c.031.267.069.612.126,1.013.076.81.186,2.021.329,3.644.012.234.139.354.4.354h1.994c.028-.186.049-.308.049-.366a8.79,8.79,0,0,0-.137-1.026c-.078-.46-.209-1.138-.417-2.039-.091-.07-.235-.191-.437-.349a9,9,0,0,1,.853-1.47.874.874,0,0,0,.088.469,3.231,3.231,0,0,0,.654.486c.184.109.466.287.843.515a1.894,1.894,0,0,1-.276.4c-.134.174-.326.427-.6.77-.022.015-.027.068-.027.137l.251,2.12-.284,1.534a.566.566,0,0,0-.1.03.38.38,0,0,1-.108.035Zm-17.464,0a.674.674,0,0,1-.465-.3,1.154,1.154,0,0,1-.265-.475l-.428.777h-2.613a.683.683,0,0,1-.184-.067c-.173-.076-.331-.3-.485-.693l-.39.76h-10.934l-.532-5.667c0-.047.057-.133.167-.258.042-.063.275-.322.7-.781q.043.286.106,1.089.24,2.786.437,4.115c0,.049.043.086.135.106a1.851,1.851,0,0,1,.213.077.43.43,0,0,0,.2.064h7.713v.01h2.009a.9.9,0,0,0,.092-.5,1.013,1.013,0,0,1,.046-.461,3.374,3.374,0,0,1,.8-.966v.78c0,.019-.014.13-.042.312a2.284,2.284,0,0,0-.044.334.55.55,0,0,0,.06.239.611.611,0,0,0,.54.257h2.265a2.834,2.834,0,0,0,.125-.665,1.772,1.772,0,0,1,.03-.542,5.088,5.088,0,0,1,.76-.841,1.36,1.36,0,0,1,.033.312,4.474,4.474,0,0,1-.063.583,3.752,3.752,0,0,0-.06.516c0,.325.24.531.713.626h1.967a3.624,3.624,0,0,0,.2-.5,2.792,2.792,0,0,1,.509-.915,2.141,2.141,0,0,1,.833-.744,3.677,3.677,0,0,1,1.391-.454,6.308,6.308,0,0,1,.662,1.96.958.958,0,0,1,.047.357.7.7,0,0,1-.1.324c-.092.164-.315.526-.673,1.067l-2.312-.835a.759.759,0,0,0-.384.435,1.438,1.438,0,0,1-.322.546h-1.477v.016Zm4.238-2.577a2.188,2.188,0,0,0-.474.284l1.375.55a4.5,4.5,0,0,1-.108-.481,1.046,1.046,0,0,0-.276-.392.255.255,0,0,0-.167-.037A.97.97,0,0,0-2570.054,363.007Zm-31.889-2.153a2.364,2.364,0,0,1,.378-.753,7.92,7.92,0,0,1,.5-.752l.308,3.951a3.544,3.544,0,0,1-.621,2.284Zm-6.01,4.73c-.154-.09-.229-.344-.229-.777,0-.137.01-.312.032-.543a2.377,2.377,0,0,1,.133-.446c.051.07.125.167.217.286a.474.474,0,0,0,.378.175c.223,0,.709-.335,1.463-.994a3.057,3.057,0,0,0-.564-.722,3.853,3.853,0,0,0-.763-.66,2.623,2.623,0,0,1-.181.365c-.16-.1-.644-.387-1.444-.838-.143-.083-.221-.281-.221-.616a5.533,5.533,0,0,1,.159-.748h.914a.581.581,0,0,0,.032-.331,7.731,7.731,0,0,1,1.449,1.221,7.715,7.715,0,0,1,1.151,1.521,2.694,2.694,0,0,0,.325-1.408,1.259,1.259,0,0,0-.305-.823l.912-1.425a3.215,3.215,0,0,0,.1.445,1.583,1.583,0,0,0,.417.358c.475.251.711.417.711.487a7.6,7.6,0,0,1-.669,1.064.392.392,0,0,1-.091.021.573.573,0,0,1-.257-.107,7.619,7.619,0,0,1-.273,1.133,2.9,2.9,0,0,1-.274.533,2.493,2.493,0,0,0-.215.372.258.258,0,0,0,.053.112c.038.062.058.087.058.1a2.84,2.84,0,0,1,.32,1.224,6.022,6.022,0,0,1-.1,1.015Zm1.54-1.237c.175.016.346.016.534.016s.371,0,.533-.016a6.093,6.093,0,0,0-.35-.674A3.663,3.663,0,0,1-2606.414,364.347Zm-34.3,1.237a.688.688,0,0,1-.464-.3,1.077,1.077,0,0,1-.262-.475l-.428.777H-2651a.221.221,0,0,1-.155-.084.581.581,0,0,1-.242-.3c-.042-.228-.114-.538-.209-.95-.119.049-.248.217-.387.51s-.307.45-.469.462l-1.849-.364v-.168c0,.041.157-.4.455-1.306a1.81,1.81,0,0,1,.855-.762c.256-.143.569-.34.946-.581a2.384,2.384,0,0,0-.111-.379q.075-.095.649-1.069c.109.794.311,1.974.608,3.548.026.136.18.2.454.2h.066v-.01h6.78v.01h2.018a3.292,3.292,0,0,0,.123-.665,1.509,1.509,0,0,1,.031-.542,4.7,4.7,0,0,1,.758-.841,1.38,1.38,0,0,1,.031.312,3.909,3.909,0,0,1-.063.583,4.041,4.041,0,0,0-.057.516c0,.328.246.544.741.636h.823a1.459,1.459,0,0,0,.021-.337,3.268,3.268,0,0,1,.014-.354,1.53,1.53,0,0,1,.292-.53,4.254,4.254,0,0,1,1.671-1.45.723.723,0,0,1,.337-.071,1.167,1.167,0,0,1,.716.228,2.4,2.4,0,0,1,.6.56,2.323,2.323,0,0,1,.443.847v.255a2.139,2.139,0,0,0-1.236-.625,3.974,3.974,0,0,0-.606-.046,2.065,2.065,0,0,0-1.359.345,3.024,3.024,0,0,0,1.188,1.149.77.77,0,0,0,.275.03c.032,0,.218-.021.572-.047s.534-.045.558-.045h1.02a.238.238,0,0,0,.077-.014h.18l-.734,1.351Zm-11.386-2.86a1.151,1.151,0,0,1-.552.637c-.215.106-.419.2-.62.286a5.564,5.564,0,0,0,.927.232h.688v-.232a5.966,5.966,0,0,0-.217-1.133A.267.267,0,0,0-2652.1,362.723Zm55.249,2.8a.322.322,0,0,1-.1-.014.169.169,0,0,0-.076-.025,1.184,1.184,0,0,1-.652-.32,1.062,1.062,0,0,1-.416-.619,1.61,1.61,0,0,1-.02-.311,4.886,4.886,0,0,1,.218-1.228c.162-.542.324-.859.473-.938l.058.042a6.179,6.179,0,0,1-.047.631c-.038.309-.057.488-.057.513a1.521,1.521,0,0,0,.072.476.988.988,0,0,0,.438.373,1.372,1.372,0,0,0,.553.187h4.041a.387.387,0,0,0,.091-.179,3.691,3.691,0,0,0-.515-1.071l.624-1.1a1.982,1.982,0,0,1,.442.642,1.782,1.782,0,0,1,.212.759,5.107,5.107,0,0,1-.654,2.18Zm104.26-3.376c.033-.161.234-.361.6-.611a5.6,5.6,0,0,1-.666-.244c-.041-.021-.061-.055-.061-.125a1.329,1.329,0,0,1,.406-.859,1.129,1.129,0,0,1,.826-.439c.294,0,.441.111.441.319,0-.037-.079.109-.241.428a.744.744,0,0,0-.4-.227.429.429,0,0,0-.076-.022.449.449,0,0,0-.251.073c-.068.033-.157.1-.285.176a.213.213,0,0,0-.028.049c-.012.02-.013.032-.035.047a.316.316,0,0,0,.156.15.855.855,0,0,0,.462.137h1.217a1.973,1.973,0,0,1-.32.524,4.519,4.519,0,0,0-1.692.644Zm-20.921-.49c-.006.018-.012.018-.012.018C-2513.52,361.651-2513.514,361.652-2513.508,361.659Zm-33.382,0c-.01.018-.013.018-.013.018C-2546.9,361.651-2546.9,361.652-2546.889,361.659Zm-105.275,0c0,.018-.014.018-.014.018C-2652.178,361.651-2652.169,361.652-2652.164,361.659Zm72.713-.506c-.282-.211-.419-.366-.419-.441a.29.29,0,0,1,.105-.19,6.56,6.56,0,0,1,.6-.55s.023-.015.068-.041a.434.434,0,0,1,.088-.04,2.073,2.073,0,0,1,.468.383c.262.246.4.391.4.438a.222.222,0,0,1-.088.158,4.211,4.211,0,0,1-.654.5.389.389,0,0,1-.124.047A1.36,1.36,0,0,1-2579.451,361.153Zm-15.376-.3a2.537,2.537,0,0,0-.439.424,4.828,4.828,0,0,1-.939-.481c.348-.457.58-.689.68-.689a1.581,1.581,0,0,1,.384.227,2.145,2.145,0,0,0,.381.212,2.094,2.094,0,0,0,.255-.194c.151-.13.257-.209.3-.245l.9.463a4.612,4.612,0,0,1-.657.739Zm33.669-.164a3.838,3.838,0,0,0-.524.468,1.058,1.058,0,0,0-.22-.086,2.881,2.881,0,0,1-.762-.436,3.05,3.05,0,0,1,.373-.454c.188-.2.3-.306.342-.306a1.451,1.451,0,0,1,.3.183,2.359,2.359,0,0,0,.4.238.553.553,0,0,0,.138.058s.208-.159.633-.479l1,.523a5.267,5.267,0,0,1-.6.7.23.23,0,0,1-.126.066A3.712,3.712,0,0,1-2561.159,360.685Zm-.524.468c.014.009.014.01-.011.01Zm-59.582-.468a4.2,4.2,0,0,0-.524.468c.005.009.008.01-.012.01l.012-.01a1.193,1.193,0,0,0-.224-.086,2.94,2.94,0,0,1-.761-.436,2.849,2.849,0,0,1,.376-.454c.181-.2.3-.306.342-.306a1.641,1.641,0,0,1,.29.183,3.271,3.271,0,0,0,.391.238,1.516,1.516,0,0,0,.145.058s.208-.159.631-.479l1,.523a4.775,4.775,0,0,1-.6.7.214.214,0,0,1-.12.066A3.622,3.622,0,0,1-2621.264,360.685Zm106.6-.572c-.26.3-.425.445-.486.445a3.123,3.123,0,0,1-.841-.481c.133-.147.339-.391.625-.729a2.788,2.788,0,0,0,.8.5c-.038,0,.147-.174.548-.5l.926.538c-.468.465-.683.7-.683.7A4.389,4.389,0,0,1-2514.663,360.113Zm-33.382,0c-.267.3-.426.445-.492.445a3.421,3.421,0,0,1-.837-.481c.131-.147.343-.391.625-.729a2.807,2.807,0,0,0,.794.5,2.926,2.926,0,0,1,.549-.5l.932.538c-.468.465-.687.7-.687.7A4.474,4.474,0,0,1-2548.045,360.113Zm-105.273,0c-.264.3-.424.445-.487.445a3.248,3.248,0,0,1-.837-.481c.128-.147.339-.391.622-.729a2.728,2.728,0,0,0,.8.5c-.031,0,.147-.174.549-.5l.924.538c-.465.465-.682.7-.682.7A4.463,4.463,0,0,1-2653.318,360.113Zm86.3-1.179v-.091c0-.09.149-.238.438-.443-.131-.034-.337-.112-.623-.224a.971.971,0,0,1,.079-.388,1.045,1.045,0,0,1,.776-.751c.041,0,.1-.014.166-.014.257,0,.385.084.385.259a1.972,1.972,0,0,1-.212.361.521.521,0,0,0-.249-.192.2.2,0,0,0-.1-.02.8.8,0,0,0-.325.077c-.135.062-.21.124-.21.2,0,.14.265.228.806.251l.164-.005c.134-.009.336-.017.608-.017a2.516,2.516,0,0,1-.229.433,2.128,2.128,0,0,0-1.349.563Zm.932-.974Zm12.794-9.046a30.375,30.375,0,0,0,12.1-5.863c11.258-9.1,2.28-17.891,2.28-17.891-8.064-8.294-21.551-8.9-21.551-8.9l-15.59,14.974,7.316,7.019,7.075-6.777.033.049s1.587,2.408.41,3.826l-7.557,7.248-11.938-11.451,19.589-18.772s17.008.123,25.594,12.716c0,0,6.572,10.165-5.591,19.078,0,0-7.421,4.856-12.038,5.234Zm-41.217-12.636s-6.569-10.162,5.593-19.077c0,0,7.419-4.859,12.038-5.231l.13.493a30.323,30.323,0,0,0-12.1,5.862c-11.255,9.105-2.275,17.891-2.275,17.891,8.065,8.3,21.546,8.89,21.546,8.89l15.6-14.97-7.328-7.017-7.069,6.774-.043.047s-1.579-2.5-.405-3.924l7.562-7.242,11.937,11.452L-2568.92,349S-2585.923,348.875-2594.514,336.279Zm25.642-3.622,6.912-6.727a3.676,3.676,0,0,1-.264,4.3l-6.276,6.161A4.176,4.176,0,0,1-2568.872,332.656Z" transform="translate(2655.39 -311.439)" fill="#fff" stroke="rgba(0,0,0,0)" stroke-width="1"/>
</svg>
