<svg xmlns="http://www.w3.org/2000/svg" width="52.001" height="31.599" viewBox="0 0 52.001 31.599">
  <path id="Path_1791" data-name="Path 1791" d="M-2569.555,342.106a24.774,24.774,0,0,0,9.87-4.782c9.183-7.423,1.86-14.594,1.86-14.594-6.578-6.765-17.579-7.26-17.579-7.26l-12.717,12.214,5.968,5.725,5.771-5.528.027.04s1.294,1.964.334,3.121l-6.164,5.912-9.738-9.341,15.979-15.312s13.874.1,20.877,10.372c0,0,5.361,8.292-4.561,15.562,0,0-6.053,3.961-9.82,4.269Zm-33.621-10.307s-5.358-8.289,4.562-15.561c0,0,6.052-3.964,9.82-4.267l.106.4a24.738,24.738,0,0,0-9.87,4.782c-9.181,7.427-1.856,14.594-1.856,14.594,6.579,6.77,17.575,7.252,17.575,7.252l12.725-12.211-5.977-5.724-5.766,5.526-.035.038s-1.288-2.039-.33-3.2l6.168-5.907,9.737,9.341-15.987,15.313s-13.867-.1-20.874-10.377Zm20.916-2.954,5.638-5.487a3,3,0,0,1-.215,3.507l-5.119,5.026a3.406,3.406,0,0,1-.308-3.047Z" transform="translate(2605.121 -311.439)" fill="#fff" stroke="rgba(0,0,0,0)" stroke-width="1"/>
</svg>
