<svg xmlns="http://www.w3.org/2000/svg" width="44.419" height="27.064" viewBox="0 0 44.419 27.064">
  <path id="Path_1791" data-name="Path 1791" d="M-2591.442,337.627a21.091,21.091,0,0,0,8.4-4.071c7.818-6.319,1.583-12.425,1.583-12.425-5.6-5.76-14.966-6.178-14.966-6.178l-10.827,10.4,5.081,4.875,4.914-4.706.023.034s1.1,1.673.285,2.657l-5.248,5.033-8.29-7.952,13.6-13.037s11.811.086,17.774,8.831c0,0,4.564,7.059-3.883,13.249,0,0-5.153,3.373-8.36,3.635Zm-28.624-8.775s-4.562-7.057,3.885-13.249c0,0,5.151-3.374,8.359-3.633l.091.342a21.061,21.061,0,0,0-8.4,4.071c-7.816,6.323-1.58,12.425-1.58,12.425,5.6,5.764,14.963,6.174,14.963,6.174l10.833-10.4-5.089-4.873-4.909,4.7-.03.033s-1.1-1.734-.281-2.725l5.252-5.03,8.289,7.953-13.6,13.037S-2614.1,337.6-2620.065,328.852Zm17.808-2.516,4.8-4.671a2.553,2.553,0,0,1-.184,2.988l-4.359,4.279A2.9,2.9,0,0,1-2602.258,326.336Z" transform="translate(2621.796 -311.439)" fill="#fff" stroke="rgba(0,0,0,0)" stroke-width="1"/>
</svg>
