<svg xmlns="http://www.w3.org/2000/svg" width="144.604" height="114.556" viewBox="0 0 144.604 114.556">
  <g id="gray_logo_icon" data-name="gray logo icon" transform="translate(-376.654 -141.917)">
    <g id="Group_17202" data-name="Group 17202" transform="translate(376.654 141.917)">
      <g id="Group_251" data-name="Group 251" transform="translate(3.885 19.434)">
        <rect id="Rectangle_890" data-name="Rectangle 890" width="72.872" height="13.821" rx="6.91" transform="translate(35.18)" fill="#f8f8f8"/>
        <rect id="Rectangle_899" data-name="Rectangle 899" width="58.905" height="13.821" rx="6.91" transform="translate(23.105 81.302)" fill="#f8f8f8"/>
        <rect id="Rectangle_900" data-name="Rectangle 900" width="14.338" height="13.821" rx="6.91" transform="translate(8.778 1.605)" fill="#f8f8f8"/>
        <rect id="Rectangle_891" data-name="Rectangle 891" width="136.949" height="13.821" rx="6.91" transform="translate(3.769 29.261)" fill="#f8f8f8"/>
        <rect id="Rectangle_895" data-name="Rectangle 895" width="136.949" height="13.821" rx="6.91" transform="translate(0 58.521)" fill="#f8f8f8"/>
        <path id="Subtraction_18" data-name="Subtraction 18" d="M24,15.44H.489c-.158,0-.323-.005-.489-.015a7.729,7.729,0,0,0,7.231-7.7A7.729,7.729,0,0,0,0,.015C.185,0,.34,0,.489,0H24l.181,0A7.764,7.764,0,0,0,16.64,7.72a7.764,7.764,0,0,0,7.539,7.718.48.48,0,0,1-.05,0H24Z" transform="translate(71.309 13.821)" fill="#f8f8f8"/>
        <path id="Subtraction_20" data-name="Subtraction 20" d="M30.153,15.45H.056A7.748,7.748,0,0,0,7.725,7.724,7.733,7.733,0,0,0,0,0H30.153a7.7,7.7,0,0,1,2.313.354H30.291a7.49,7.49,0,0,0,0,14.98h1.2A7.772,7.772,0,0,1,30.153,15.45Z" transform="translate(28.431 43.081)" fill="#f8f8f8"/>
      </g>
      <g id="Path_785" data-name="Path 785" transform="translate(124.087 12.956)" fill="#fff">
        <path d="M 8.636385917663574 14.77276420593262 C 5.252766132354736 14.77276420593262 2.499995946884155 12.01999378204346 2.499995946884155 8.636384010314941 C 2.499995946884155 5.252774238586426 5.252766132354736 2.500004053115845 8.636385917663574 2.500004053115845 C 12.02000617980957 2.500004053115845 14.77277565002441 5.252774238586426 14.77277565002441 8.636384010314941 C 14.77277565002441 12.01999378204346 12.02000617980957 14.77276420593262 8.636385917663574 14.77276420593262 Z" stroke="none"/>
        <path d="M 8.636385917663574 5.000003814697266 C 6.63127613067627 5.000003814697266 4.999996185302734 6.631274223327637 4.999996185302734 8.636384010314941 C 4.999996185302734 10.64149379730225 6.63127613067627 12.27276420593262 8.636385917663574 12.27276420593262 C 10.64149570465088 12.27276420593262 12.27277565002441 10.64149379730225 12.27277565002441 8.636384010314941 C 12.27277565002441 6.631274223327637 10.64149570465088 5.000003814697266 8.636385917663574 5.000003814697266 M 8.636385917663574 3.814697265625e-06 C 13.40612602233887 3.814697265625e-06 17.27277565002441 3.866643905639648 17.27277565002441 8.636384010314941 C 17.27277565002441 13.40612411499023 13.40612602233887 17.27276420593262 8.636385917663574 17.27276420593262 C 3.866645812988281 17.27276420593262 -3.814697265625e-06 13.40612411499023 -3.814697265625e-06 8.636384010314941 C -3.814697265625e-06 3.866643905639648 3.866645812988281 3.814697265625e-06 8.636385917663574 3.814697265625e-06 Z" stroke="none" fill="#f8f8f8"/>
      </g>
      <g id="Path_788" data-name="Path 788" transform="translate(15.336 103.775) rotate(166)" fill="#fff">
        <path d="M 6.325429439544678 10.15085792541504 C 4.216079235076904 10.15085792541504 2.499999523162842 8.434778213500977 2.499999523162842 6.325428009033203 C 2.499999523162842 4.21607780456543 4.216079235076904 2.499998092651367 6.325429439544678 2.499998092651367 C 8.434779167175293 2.499998092651367 10.15085983276367 4.21607780456543 10.15085983276367 6.325428009033203 C 10.15085983276367 8.434778213500977 8.434779167175293 10.15085792541504 6.325429439544678 10.15085792541504 Z" stroke="none"/>
        <path d="M 6.325429439544678 4.999998092651367 C 5.594589233398438 4.999998092651367 4.999999523162842 5.594587802886963 4.999999523162842 6.325428009033203 C 4.999999523162842 7.056268215179443 5.594589233398438 7.650857925415039 6.325429439544678 7.650857925415039 C 7.056269645690918 7.650857925415039 7.650859355926514 7.056268215179443 7.650859355926514 6.325428009033203 C 7.650859355926514 5.594587802886963 7.056269645690918 4.999998092651367 6.325429439544678 4.999998092651367 M 6.325429439544678 -1.9073486328125e-06 C 9.818869590759277 -1.9073486328125e-06 12.65085983276367 2.831988334655762 12.65085983276367 6.325428009033203 C 12.65085983276367 9.818867683410645 9.818869590759277 12.65085792541504 6.325429439544678 12.65085792541504 C 2.831989288330078 12.65085792541504 -9.5367431640625e-07 9.818867683410645 -9.5367431640625e-07 6.325428009033203 C -9.5367431640625e-07 2.831988334655762 2.831989288330078 -1.9073486328125e-06 6.325429439544678 -1.9073486328125e-06 Z" stroke="none" fill="#f8f8f8"/>
      </g>
      <path id="Path_796" data-name="Path 796" d="M2.95,0A2.95,2.95,0,1,1,0,2.95,2.95,2.95,0,0,1,2.95,0Z" transform="translate(99.18 5.725) rotate(166)" fill="#1baf5d" opacity="0.05"/>
      <path id="Path_797" data-name="Path 797" d="M2.95,0A2.95,2.95,0,1,1,0,2.95,2.95,2.95,0,0,1,2.95,0Z" transform="translate(138.369 98.845) rotate(166)" fill="#1baf5d" opacity="0.05"/>
    </g>
    <g id="godi_logo" data-name="godi logo" transform="translate(414.009 178.272)">
      <path id="Path_483" data-name="Path 483" d="M420.464,269.5s-1.767-2.8-.453-4.4L428.458,257,441.8,269.8l-21.9,20.993s-19.007-.14-28.6-14.22c0,0-7.347-11.354,6.249-21.32,0,0,8.29-5.434,13.454-5.853l.147.553a33.719,33.719,0,0,0-13.517,6.553c-12.573,10.176-2.544,20-2.544,20,9.011,9.269,24.08,9.937,24.08,9.937l17.439-16.735-8.194-7.842-7.909,7.563Z" transform="translate(-389.321 -249.4)" fill="#bcbcbc"/>
      <path id="Path_484" data-name="Path 484" d="M493.649,273s1.773,2.695.457,4.281l-8.449,8.1-13.347-12.8,21.9-20.985s19.011.14,28.611,14.218c0,0,7.334,11.358-6.257,21.324,0,0-8.29,5.427-13.454,5.851l-.143-.555a33.951,33.951,0,0,0,13.523-6.549c12.584-10.172,2.546-20.006,2.546-20.006-9.011-9.269-24.087-9.939-24.087-9.939L477.522,272.69l8.173,7.839,7.926-7.573Z" transform="translate(-454.919 -251.139)" fill="#bcbcbc"/>
      <path id="Path_485" data-name="Path 485" d="M542.117,323.838l-7.722,7.523a4.665,4.665,0,0,0,.419,4.179l7.012-6.89a4.121,4.121,0,0,0,.289-4.82" transform="translate(-503.753 -308.233)" fill="#bcbcbc"/>
    </g>
  </g>
</svg>
