<svg xmlns="http://www.w3.org/2000/svg" width="154.837" height="61.033" viewBox="0 0 154.837 61.033">
  <path id="Path_1791" data-name="Path 1791" d="M-2612.61,371.8a1.86,1.86,0,0,1-.686-.485,2.037,2.037,0,0,1-.417-.777h1.131a.952.952,0,0,0,.382.3,1.448,1.448,0,0,0,.56.1,1.372,1.372,0,0,0,.66-.139.811.811,0,0,0,.354-.373,1.875,1.875,0,0,0,.105-.771,1.574,1.574,0,0,1-.562.428,1.543,1.543,0,0,1-.672.135,1.784,1.784,0,0,1-1.384-.641,2.429,2.429,0,0,1-.569-1.654,2.4,2.4,0,0,1,.6-1.7,1.692,1.692,0,0,1,1.286-.579,1.652,1.652,0,0,1,.667.135,2.238,2.238,0,0,1,.63.464v-.476h1v3.815a2.706,2.706,0,0,1-.41,1.67,1.983,1.983,0,0,1-1.677.721,2.618,2.618,0,0,1-1-.167Zm.226-4.764a1.271,1.271,0,0,0-.31.887,1.269,1.269,0,0,0,.324.913,1.008,1.008,0,0,0,.8.352.989.989,0,0,0,.782-.343,1.313,1.313,0,0,0,.312-.91,1.307,1.307,0,0,0-.312-.9,1.021,1.021,0,0,0-.8-.352,1.017,1.017,0,0,0-.793.357Zm51.542,3.015a2.493,2.493,0,0,1-.741-.993l.876-.584c.267.532.566.8.913.8a.619.619,0,0,0,.449-.166.526.526,0,0,0,.182-.4.757.757,0,0,0-.136-.413,4.253,4.253,0,0,0-.613-.631,6.3,6.3,0,0,1-1.156-1.243,1.674,1.674,0,0,1-.258-.87,1.478,1.478,0,0,1,.434-1.08,1.423,1.423,0,0,1,1.072-.449,1.517,1.517,0,0,1,.788.214,3.106,3.106,0,0,1,.8.771l-.777.758c-.273-.413-.549-.626-.83-.626a.463.463,0,0,0-.336.121.362.362,0,0,0-.133.273.515.515,0,0,0,.091.285,7.714,7.714,0,0,0,.771.779c.4.363.64.59.724.686a2.466,2.466,0,0,1,.454.679,1.873,1.873,0,0,1,.13.7,1.674,1.674,0,0,1-.467,1.225,1.612,1.612,0,0,1-1.219.48,1.7,1.7,0,0,1-1.025-.316Zm-60.83-.626a3.308,3.308,0,0,1-.814-2.238,3.341,3.341,0,0,1,.382-1.586,3,3,0,0,1,1.044-1.159,2.615,2.615,0,0,1,1.429-.421,2.6,2.6,0,0,1,1.994.926,3.256,3.256,0,0,1,.838,2.263,3.268,3.268,0,0,1-.824,2.24,2.607,2.607,0,0,1-2,.911,2.608,2.608,0,0,1-2.048-.942Zm.746-3.706a2.166,2.166,0,0,0-.514,1.487,2,2,0,0,0,.652,1.582,1.676,1.676,0,0,0,1.164.458,1.639,1.639,0,0,0,1.259-.59,2.128,2.128,0,0,0,.519-1.457,2.142,2.142,0,0,0-.523-1.468,1.651,1.651,0,0,0-1.275-.594,1.667,1.667,0,0,0-1.28.581Zm-32.275,4.238a2.846,2.846,0,0,1-1.053-1.169,3.5,3.5,0,0,1-.39-1.628,3.179,3.179,0,0,1,.714-2.078,2.7,2.7,0,0,1,2.218-1.061,3.07,3.07,0,0,1,1.336.291,2.913,2.913,0,0,1,1.017.848l-.73.8a2.056,2.056,0,0,0-1.621-.821,1.767,1.767,0,0,0-1.347.588,2.042,2.042,0,0,0-.547,1.437,2.106,2.106,0,0,0,.567,1.483,1.83,1.83,0,0,0,1.4.6,1.527,1.527,0,0,0,.9-.249,1.668,1.668,0,0,0,.6-.761h-1.588V367.14h2.757l.005.257a3.167,3.167,0,0,1-.372,1.508,2.82,2.82,0,0,1-.959,1.086,2.55,2.55,0,0,1-1.382.367,2.9,2.9,0,0,1-1.527-.4Zm148.514-.289a2.389,2.389,0,0,1-.6-1.662,2.475,2.475,0,0,1,.6-1.7,1.932,1.932,0,0,1,1.5-.672,2.005,2.005,0,0,1,1.558.672,2.586,2.586,0,0,1,.6,1.79v.212h-3.276a1.334,1.334,0,0,0,.378.755,1.105,1.105,0,0,0,.789.278,1.285,1.285,0,0,0,.978-.436l.853.443a2,2,0,0,1-.765.741,2.131,2.131,0,0,1-1.062.243,1.993,1.993,0,0,1-1.555-.667Zm.808-2.815a1.41,1.41,0,0,0-.382.578h2.218a1.076,1.076,0,0,0-.4-.605,1.047,1.047,0,0,0-.686-.231,1.123,1.123,0,0,0-.743.255Zm-5.683,2.785a2.426,2.426,0,0,1-.607-1.645,2.565,2.565,0,0,1,.29-1.192,2.278,2.278,0,0,1,.828-.857,2.264,2.264,0,0,1,1.185-.311,2.151,2.151,0,0,1,1.082.257,2.085,2.085,0,0,1,.791.743l-.849.5a1.408,1.408,0,0,0-.472-.371,1.282,1.282,0,0,0-.55-.11,1.214,1.214,0,0,0-.923.375,1.358,1.358,0,0,0-.351.968,1.312,1.312,0,0,0,.337.937,1.158,1.158,0,0,0,.892.363,1.26,1.26,0,0,0,1.067-.514l.8.607a2.117,2.117,0,0,1-1.842.932,2.1,2.1,0,0,1-1.675-.683Zm-9.645.018a2.427,2.427,0,0,1-.576-1.662,2.525,2.525,0,0,1,.561-1.7,1.724,1.724,0,0,1,1.358-.659,1.59,1.59,0,0,1,.686.152,1.908,1.908,0,0,1,.6.447v-.476h1.015v4.457h-1.015v-.469a1.937,1.937,0,0,1-.605.447,1.5,1.5,0,0,1-.648.14,1.762,1.762,0,0,1-1.375-.679Zm.771-2.622a1.4,1.4,0,0,0-.317.938,1.447,1.447,0,0,0,.321.962,1.007,1.007,0,0,0,.787.371,1.028,1.028,0,0,0,.794-.365,1.455,1.455,0,0,0,.318-.969,1.4,1.4,0,0,0-.318-.943,1.022,1.022,0,0,0-.8-.363.992.992,0,0,0-.788.368Zm-7.47,2.97a1.719,1.719,0,0,1-.579-.915,6.108,6.108,0,0,1-.12-1.478v-1.85h1.01v2.151a3.142,3.142,0,0,0,.086.875.755.755,0,0,0,.257.387.706.706,0,0,0,.435.131.728.728,0,0,0,.439-.131.713.713,0,0,0,.267-.394,3.4,3.4,0,0,0,.067-.83V365.76h1.013v1.886a5.035,5.035,0,0,1-.171,1.6,1.75,1.75,0,0,1-.606.81,1.735,1.735,0,0,1-1.012.279,1.683,1.683,0,0,1-1.089-.333Zm-4.364-.429.621-.753a1.416,1.416,0,0,0,.418.369.842.842,0,0,0,.428.143.452.452,0,0,0,.327-.107.324.324,0,0,0,.127-.248c0-.163-.156-.336-.446-.5l-.347-.189a1.588,1.588,0,0,1-.972-1.371,1.245,1.245,0,0,1,.369-.91,1.252,1.252,0,0,1,.943-.372,1.51,1.51,0,0,1,.745.189,1.8,1.8,0,0,1,.583.559l-.627.7a1.047,1.047,0,0,0-.7-.42.429.429,0,0,0-.267.076.252.252,0,0,0-.1.2.292.292,0,0,0,.065.177,1.135,1.135,0,0,0,.3.193l.375.21a2.075,2.075,0,0,1,.8.653,1.318,1.318,0,0,1,.223.771,1.351,1.351,0,0,1-.392.992,1.413,1.413,0,0,1-1.06.4,1.648,1.648,0,0,1-1.418-.752Zm-15.013.081a2.423,2.423,0,0,1-.581-1.662,2.559,2.559,0,0,1,.561-1.7,1.723,1.723,0,0,1,1.363-.659,1.579,1.579,0,0,1,.686.152,1.811,1.811,0,0,1,.595.447v-.476h1.012v4.457h-1.012v-.469a1.956,1.956,0,0,1-.6.447,1.5,1.5,0,0,1-.653.14,1.75,1.75,0,0,1-1.375-.679Zm.771-2.622a1.372,1.372,0,0,0-.319.938,1.452,1.452,0,0,0,.321.962,1,1,0,0,0,.779.371,1.029,1.029,0,0,0,.8-.365,1.449,1.449,0,0,0,.317-.969,1.393,1.393,0,0,0-.317-.943,1.02,1.02,0,0,0-.8-.363.974.974,0,0,0-.786.368Zm-7.45,2.6a2.431,2.431,0,0,1-.6-1.645,2.5,2.5,0,0,1,.291-1.192,2.2,2.2,0,0,1,.829-.857,2.276,2.276,0,0,1,1.184-.311,2.185,2.185,0,0,1,1.082.257,2.057,2.057,0,0,1,.785.743l-.844.5a1.363,1.363,0,0,0-.477-.371,1.261,1.261,0,0,0-.545-.11,1.2,1.2,0,0,0-.922.375,1.353,1.353,0,0,0-.357.968,1.342,1.342,0,0,0,.343.937,1.159,1.159,0,0,0,.9.363,1.265,1.265,0,0,0,1.065-.514l.8.607a2.117,2.117,0,0,1-1.84.932,2.115,2.115,0,0,1-1.689-.683Zm-4.872.009a2.389,2.389,0,0,1-.615-1.658,2.373,2.373,0,0,1,.7-1.747,1.914,1.914,0,0,1,1.408-.605,1.963,1.963,0,0,1,1.076.319,2.117,2.117,0,0,1,.793.85,2.536,2.536,0,0,1,.284,1.175,2.57,2.57,0,0,1-.284,1.18,2.083,2.083,0,0,1-.781.863,2.02,2.02,0,0,1-1.088.309,1.931,1.931,0,0,1-1.5-.687Zm.717-2.591a1.359,1.359,0,0,0-.317.938,1.409,1.409,0,0,0,.312.949.986.986,0,0,0,.783.363,1.035,1.035,0,0,0,.8-.365,1.421,1.421,0,0,0,.318-.943,1.393,1.393,0,0,0-.314-.943,1.009,1.009,0,0,0-.8-.351,1,1,0,0,0-.791.352Zm-14.135,2.591a2.388,2.388,0,0,1-.623-1.658,2.381,2.381,0,0,1,.7-1.747,1.929,1.929,0,0,1,1.408-.605,1.964,1.964,0,0,1,1.079.319,2.156,2.156,0,0,1,.794.85,2.5,2.5,0,0,1,.281,1.175,2.525,2.525,0,0,1-.281,1.18,2.184,2.184,0,0,1-.779.863,2.046,2.046,0,0,1-1.092.309,1.912,1.912,0,0,1-1.495-.687Zm.709-2.591a1.372,1.372,0,0,0-.318.938,1.405,1.405,0,0,0,.316.949.981.981,0,0,0,.788.363,1.016,1.016,0,0,0,.8-.365,1.39,1.39,0,0,0,.323-.943,1.4,1.4,0,0,0-.318-.943,1.006,1.006,0,0,0-.8-.351,1.007,1.007,0,0,0-.8.352Zm-14.442,2.591a2.38,2.38,0,0,1-.615-1.658,2.364,2.364,0,0,1,.7-1.747,1.924,1.924,0,0,1,1.4-.605,1.962,1.962,0,0,1,1.084.319,2.172,2.172,0,0,1,.792.85,2.572,2.572,0,0,1,.286,1.175,2.6,2.6,0,0,1-.286,1.18,2.17,2.17,0,0,1-.783.863,2.015,2.015,0,0,1-1.085.309,1.932,1.932,0,0,1-1.5-.687Zm.709-2.591a1.4,1.4,0,0,0-.311.938,1.428,1.428,0,0,0,.309.949,1,1,0,0,0,.794.362,1.028,1.028,0,0,0,.8-.365,1.406,1.406,0,0,0,.316-.943,1.418,1.418,0,0,0-.312-.943,1.011,1.011,0,0,0-.8-.351,1.016,1.016,0,0,0-.8.352Zm-9.9,2.6a2.41,2.41,0,0,1-.575-1.662,2.548,2.548,0,0,1,.555-1.7,1.724,1.724,0,0,1,1.356-.659,1.589,1.589,0,0,1,.691.152,1.915,1.915,0,0,1,.6.447v-.476h1.01v4.457h-1.01v-.469a2,2,0,0,1-.6.447,1.521,1.521,0,0,1-.656.14,1.74,1.74,0,0,1-1.372-.679Zm.767-2.622a1.379,1.379,0,0,0-.313.938,1.441,1.441,0,0,0,.313.962,1.007,1.007,0,0,0,.784.371,1.028,1.028,0,0,0,.8-.365,1.456,1.456,0,0,0,.319-.969,1.4,1.4,0,0,0-.319-.943,1.019,1.019,0,0,0-.8-.363.972.972,0,0,0-.784.369Zm-15.714,2.622a2.4,2.4,0,0,1-.583-1.662,2.535,2.535,0,0,1,.561-1.7,1.721,1.721,0,0,1,1.355-.659,1.6,1.6,0,0,1,.686.152,1.837,1.837,0,0,1,.6.446v-.476h1.013v4.457h-1.013v-.469a1.946,1.946,0,0,1-.6.447,1.51,1.51,0,0,1-.656.14,1.737,1.737,0,0,1-1.37-.679Zm.765-2.622a1.349,1.349,0,0,0-.313.938,1.41,1.41,0,0,0,.313.963,1,1,0,0,0,.784.371,1.021,1.021,0,0,0,.8-.365,1.448,1.448,0,0,0,.316-.968,1.4,1.4,0,0,0-.316-.943,1.013,1.013,0,0,0-.8-.363.981.981,0,0,0-.792.369Zm-23.6,2.622a2.434,2.434,0,0,1-.577-1.662,2.53,2.53,0,0,1,.56-1.7,1.726,1.726,0,0,1,1.354-.659,1.577,1.577,0,0,1,.686.152,1.88,1.88,0,0,1,.6.447v-.476h1.011v4.457h-1.011v-.469a1.982,1.982,0,0,1-.6.447,1.5,1.5,0,0,1-.651.14A1.75,1.75,0,0,1-2630.951,369.655Zm.76-2.622a1.394,1.394,0,0,0-.309.938,1.436,1.436,0,0,0,.321.962.991.991,0,0,0,.78.371,1.019,1.019,0,0,0,.8-.365,1.462,1.462,0,0,0,.319-.968,1.41,1.41,0,0,0-.319-.943,1.012,1.012,0,0,0-.8-.363,1,1,0,0,0-.787.368Zm-8.056,2.634a2.39,2.39,0,0,1-.6-1.662,2.477,2.477,0,0,1,.6-1.7,1.931,1.931,0,0,1,1.5-.672,2,2,0,0,1,1.557.672,2.572,2.572,0,0,1,.6,1.79v.212h-3.269a1.242,1.242,0,0,0,.382.755,1.07,1.07,0,0,0,.779.278,1.276,1.276,0,0,0,.977-.436l.857.443a2,2,0,0,1-.771.741,2.1,2.1,0,0,1-1.057.243,2,2,0,0,1-1.562-.667Zm.806-2.815a1.4,1.4,0,0,0-.377.578h2.215a1.076,1.076,0,0,0-.4-.605,1.059,1.059,0,0,0-.692-.231,1.131,1.131,0,0,0-.746.255Zm-10.258,2.815a2.368,2.368,0,0,1-.605-1.662,2.486,2.486,0,0,1,.6-1.7,1.925,1.925,0,0,1,1.5-.672,2,2,0,0,1,1.558.672,2.6,2.6,0,0,1,.6,1.79v.212h-3.277a1.3,1.3,0,0,0,.387.755,1.086,1.086,0,0,0,.781.278,1.258,1.258,0,0,0,.973-.436l.857.443a2.057,2.057,0,0,1-.766.741,2.123,2.123,0,0,1-1.06.243,1.976,1.976,0,0,1-1.543-.667Zm.8-2.815a1.434,1.434,0,0,0-.383.578h2.218a1.057,1.057,0,0,0-.4-.605,1.043,1.043,0,0,0-.686-.231,1.134,1.134,0,0,0-.751.255Zm110.276,3.365v-6.044h1.029v6.044Zm24.661,0v-1.958a4.881,4.881,0,0,0-.072-1.053.736.736,0,0,0-.222-.4.6.6,0,0,0-.4-.138.717.717,0,0,0-.527.223,1.262,1.262,0,0,0-.31.632,5.884,5.884,0,0,0-.04.909v1.79h-1.018V365.76h1.02v.446a2.361,2.361,0,0,1,.624-.446,1.457,1.457,0,0,1,.577-.123,1.354,1.354,0,0,1,1.028.458,1.714,1.714,0,0,1,.353,1.169v2.952Zm-10.285,0V365.76h.88v.552a1.28,1.28,0,0,1,.366-.508.872.872,0,0,1,.506-.166.827.827,0,0,1,.4.111l-.309.973a.639.639,0,0,0-.289-.1c-.147,0-.283.113-.39.32a3.327,3.327,0,0,0-.16,1.258l.005.216v1.807Zm-9.707,0v-1.958a5.089,5.089,0,0,0-.063-1.053.737.737,0,0,0-.226-.4.6.6,0,0,0-.4-.138.731.731,0,0,0-.536.223,1.3,1.3,0,0,0-.3.632,6.311,6.311,0,0,0-.045.909v1.79h-1.014V365.76h1.014v.446a2.544,2.544,0,0,1,.627-.446,1.49,1.49,0,0,1,.579-.123,1.341,1.341,0,0,1,1.029.458,1.725,1.725,0,0,1,.358,1.169v2.952Zm-8.783,0v-6.2h1.017v6.2Zm-6.856,0V365.76h1.01v4.457Zm-18.427,0V365.76h.88v.552a1.25,1.25,0,0,1,.371-.508.856.856,0,0,1,.5-.166.84.84,0,0,1,.408.111l-.313.973a.643.643,0,0,0-.286-.1c-.157,0-.282.113-.393.32a3.271,3.271,0,0,0-.155,1.258v2.023Zm-6.878,0v-3.507h-.387v-.95h.387c0-.595.006-.943.024-1.054a.875.875,0,0,1,.281-.59,1,1,0,0,1,.679-.216,1.9,1.9,0,0,1,.713.163v.857a1.366,1.366,0,0,0-.362-.066.367.367,0,0,0-.264.075.42.42,0,0,0-.059.257l-.01.571h.653v.949h-.644v3.507Zm-4.038,0v-1.958a5.092,5.092,0,0,0-.072-1.053.691.691,0,0,0-.226-.4.58.58,0,0,0-.4-.138.724.724,0,0,0-.529.223,1.258,1.258,0,0,0-.309.632,5.623,5.623,0,0,0-.046.909v1.79h-1.011V365.76h1.011v.446a2.6,2.6,0,0,1,.63-.446,1.457,1.457,0,0,1,.577-.123,1.329,1.329,0,0,1,1.02.458,1.676,1.676,0,0,1,.356,1.169v2.952Zm-9.4,0V365.76h1.01v4.457Zm-2.057,0v-3.507h-.514v-.95h.514V364.1h1.017v1.663h.6v.949h-.6v3.507Zm-9.116,0,1.8-3.507h-1.515v-.95h3.1l-1.8,3.5h1.693v.955Zm-1.485,0V365.76h1.01v4.457Zm-1.893,0v-1.958a5.024,5.024,0,0,0-.069-1.053.7.7,0,0,0-.227-.4.584.584,0,0,0-.4-.138.739.739,0,0,0-.532.223,1.264,1.264,0,0,0-.3.632,5.623,5.623,0,0,0-.046.909v1.79h-1.012V365.76h1.012v.446a2.547,2.547,0,0,1,.632-.446,1.441,1.441,0,0,1,.577-.123,1.36,1.36,0,0,1,1.028.458,1.724,1.724,0,0,1,.349,1.169v2.952Zm-15.251,0V365.76h.873v.552a1.286,1.286,0,0,1,.372-.508.857.857,0,0,1,.5-.166.852.852,0,0,1,.411.111l-.317.973a.614.614,0,0,0-.281-.1c-.157,0-.286.113-.391.32a3.189,3.189,0,0,0-.16,1.258v2.023Zm-10.255,0v-6.2h1.014v6.2Zm-7.6,0V365.76h.886v.552a1.244,1.244,0,0,1,.371-.508.857.857,0,0,1,.5-.166.815.815,0,0,1,.4.111l-.3.973a.649.649,0,0,0-.294-.1c-.147,0-.282.113-.39.32a3.365,3.365,0,0,0-.154,1.258l.005.216v1.807Zm-6.643,0v-1.958a4.746,4.746,0,0,0-.077-1.053.653.653,0,0,0-.221-.4.592.592,0,0,0-.4-.138.715.715,0,0,0-.529.223,1.223,1.223,0,0,0-.31.632,5.623,5.623,0,0,0-.047.908v1.79h-1.008V365.76h1.008v.446a2.506,2.506,0,0,1,.628-.446,1.5,1.5,0,0,1,.579-.123,1.338,1.338,0,0,1,1.029.458,1.7,1.7,0,0,1,.357,1.169v2.952Zm93.1-5.057a.821.821,0,0,1-.192-.536.719.719,0,0,1,.192-.51.562.562,0,0,1,.443-.214.608.608,0,0,1,.459.216.764.764,0,0,1,.188.522.753.753,0,0,1-.187.521.564.564,0,0,1-.446.213.583.583,0,0,1-.466-.213Zm-38.744,0a.8.8,0,0,1-.188-.536.73.73,0,0,1,.188-.51.553.553,0,0,1,.448-.214.6.6,0,0,1,.453.216.79.79,0,0,1,.188.522.79.79,0,0,1-.187.521.577.577,0,0,1-.451.213.577.577,0,0,1-.458-.213Zm-12.662,0a.8.8,0,0,1-.185-.536.739.739,0,0,1,.185-.51.564.564,0,0,1,.45-.214.588.588,0,0,1,.451.216.763.763,0,0,1,.189.522.771.771,0,0,1-.186.521.569.569,0,0,1-.45.213.6.6,0,0,1-.464-.213Zm83.772-5.148a10.994,10.994,0,0,1-1.048-.362,2.171,2.171,0,0,1-.4-.188,1.478,1.478,0,0,1-.458-.311v-.1c.02-.02.075-.022.154-.022a5.143,5.143,0,0,1,.507.132c.32.074.489.113.5.113a1.818,1.818,0,0,0,.441-.069,3.748,3.748,0,0,0,1.885-1.285,11.08,11.08,0,0,1-1.138-.146.94.94,0,0,1-.364-.177.624.624,0,0,1-.274-.373c-.006-.077-.01-.127-.01-.144a2.278,2.278,0,0,1,.2-.759,6.039,6.039,0,0,1,.336-.76,2.21,2.21,0,0,1,.573-.733.571.571,0,0,1,.365-.132.5.5,0,0,1,.12.012.976.976,0,0,1,.429.384,4.383,4.383,0,0,1,.538,1.759h.022v-.009h1.829v.009h1.215c.044,0,.141-.119.273-.355.171-.307.257-.466.276-.483a2.385,2.385,0,0,1,.776-.606,1.885,1.885,0,0,1,.82-.311c.192,0,.283.07.283.191a.375.375,0,0,1-.01.086.439.439,0,0,0,0,.1.505.505,0,0,0,.043.218,2.6,2.6,0,0,0,.686,1.154h1.946a2.513,2.513,0,0,0,.042-.314,7.3,7.3,0,0,0-.118-.879c-.062-.394-.177-.975-.353-1.748-.075-.06-.2-.164-.378-.3a7.673,7.673,0,0,1,.73-1.26.741.741,0,0,0,.077.4,2.707,2.707,0,0,0,.562.417c.154.093.4.246.719.441a1.622,1.622,0,0,1-.233.343c-.116.149-.286.366-.514.66-.018.013-.023.058-.023.117l.22,1.817-.246,1.315a.4.4,0,0,0-.086.026.411.411,0,0,1-.1.03h-2.672c-.065,0-.13.086-.182.252s-.12.269-.192.282l-2.184-1.159a2.052,2.052,0,0,0-.242.405c-.081.142-.171.219-.261.219h-2.851q-.178.457-.4.894a2.866,2.866,0,0,1-.644.818,1.434,1.434,0,0,1-.686.381.951.951,0,0,1-.24.032.84.84,0,0,1-.261-.031Zm6.685-3.844a.61.61,0,0,0-.338.22q.287.19.576.357a1.34,1.34,0,0,0,.609.262.267.267,0,0,0,.091-.011.223.223,0,0,1,.058-.009V356.9a1.052,1.052,0,0,0-.135-.488.5.5,0,0,0-.451-.313,1.347,1.347,0,0,0-.414.075Zm-6.135-.165c-.1.112-.146.188-.146.233a.281.281,0,0,0,.1.223.575.575,0,0,0,.44.247.654.654,0,0,0,.195.017.611.611,0,0,0,.278-.042.562.562,0,0,1,.045-.036c.021-.021.039-.028.047-.043a1.8,1.8,0,0,0-.369-.668.438.438,0,0,0-.245-.127.678.678,0,0,0-.346.2Zm-72.192,3.578c-.052.042-.132.122-.257.249s-.182.193-.182.193a1.569,1.569,0,0,1-.383-.213,2.617,2.617,0,0,1-.387-.275,6.975,6.975,0,0,1,.559-.7,2.97,2.97,0,0,0,.691.459c.233-.24.4-.39.482-.459l.8.459a5.481,5.481,0,0,1-.584.728Zm-56.925,0a3.12,3.12,0,0,0-.257.249c-.117.124-.189.193-.189.193a1.635,1.635,0,0,1-.378-.212,3.613,3.613,0,0,1-.393-.275c.072-.105.257-.343.56-.7a3.164,3.164,0,0,0,.7.459,5.582,5.582,0,0,1,.484-.459l.792.459a5.229,5.229,0,0,1-.585.729Zm23.317-.282.767-.779a6.218,6.218,0,0,0,1.007.535l-.8.766Zm-11.05-2a1.933,1.933,0,0,0-.257.405c-.077.142-.155.219-.257.219h-3.943l-.455-4.857c0-.04.051-.114.146-.221.033-.054.233-.276.6-.669.026.164.055.474.093.933q.207,2.388.38,3.527c0,.042.039.074.117.091.032.007.091.034.176.066a.394.394,0,0,0,.176.055h1.83v.009h1.215c.047,0,.138-.119.28-.355a4.9,4.9,0,0,1,.273-.483,2.311,2.311,0,0,1,.771-.606,1.9,1.9,0,0,1,.818-.311c.2,0,.291.07.291.191a.566.566,0,0,1-.013.086.689.689,0,0,0,0,.1.6.6,0,0,0,.04.218,2.623,2.623,0,0,0,.693,1.154h.123v-.009h1.034v.009h1.783a1.051,1.051,0,0,0,.086-.5,1.379,1.379,0,0,1,.051-.481,1.255,1.255,0,0,1,.3-.419c.12-.112.239-.235.365-.357l-.1,1.224a.882.882,0,0,0,.007.122.527.527,0,0,0,.2.286.542.542,0,0,0,.243.114h1.822v.009h1.964a3.6,3.6,0,0,0,.651-.129c.08-.034.2-.1.352-.184,0-.014-.013-.024-.035-.041a3.807,3.807,0,0,0-1.465-.514.9.9,0,0,0-.351.071,2.417,2.417,0,0,1-.394.139v-.12a.68.68,0,0,1,.117-.2c.474-.61.866-.914,1.19-.914a1.478,1.478,0,0,1,.6.119c.062.029.436.22,1.124.587a6.761,6.761,0,0,0,1.356.586c.176.051.423.126.742.207,0,.012-.136.185-.393.52-.182.237-.3.36-.349.36l-1.634-.128a2.011,2.011,0,0,0-.991.333,2.862,2.862,0,0,1-.758.368h-3.918a.712.712,0,0,1-.182-.057.749.749,0,0,1-.287-.229,1.293,1.293,0,0,1-.179-.365l-.369.651h-3.123c-.07,0-.134.086-.19.252s-.117.269-.189.282Zm1.1-1.127a.622.622,0,0,0-.343.22c.187.127.381.246.577.357a1.322,1.322,0,0,0,.612.262.272.272,0,0,0,.086-.011.2.2,0,0,1,.055-.009v-.093a1.053,1.053,0,0,0-.126-.488.523.523,0,0,0-.463-.313,1.331,1.331,0,0,0-.4.075Zm128.335-2.3a1.947,1.947,0,0,1,.324-.645,6.13,6.13,0,0,1,.428-.645l.257,3.386a3.049,3.049,0,0,1-.538,1.957Zm-17.009,4.023c-.077-.157-.124-.228-.14-.228s-.062.041-.124.121a.275.275,0,0,1-.215.136h-1.322a.342.342,0,0,1-.239-.143.573.573,0,0,1-.155-.246c-.2.257-.359.389-.482.389h-2.995l-.235-.332a1.312,1.312,0,0,0-.117.332h-1.412a.751.751,0,0,0-.15-.257l-.226.257h-1.616a.355.355,0,0,1-.242-.143.626.626,0,0,1-.151-.246c-.2.257-.358.389-.481.389h-3.324a.189.189,0,0,1-.131-.072.534.534,0,0,1-.212-.257c-.037-.2-.091-.461-.185-.814a.964.964,0,0,0-.324.437c-.123.249-.257.386-.4.4l-1.579-.312v-.144c0,.035.127-.343.394-1.119a1.472,1.472,0,0,1,.731-.653c.217-.123.482-.291.8-.5q-.037-.165-.09-.325c.041-.054.227-.36.548-.916.1.681.274,1.692.53,3.041.021.117.154.171.387.171h.053v-.009h1.824v.009h1.342c.1,0,.159-.119.2-.343.007-.124.018-.249.027-.372a7.022,7.022,0,0,1,.847-.924,2.281,2.281,0,0,1-.113.649c-.151.489-.229.736-.239.767a.723.723,0,0,0,.42.22.4.4,0,0,0,.117-.04.279.279,0,0,1,.095-.051.142.142,0,0,0-.027.051.153.153,0,0,1-.052.04h1.049v-.565a2.819,2.819,0,0,1,.809-.849l-.285,1.114v.3h.953a.85.85,0,0,0,.01-.159,1.551,1.551,0,0,0-.064-.257,1.988,1.988,0,0,1-.064-.24,3.79,3.79,0,0,1,.456-.709c.057-.057.139-.119.221-.209v.827a3.854,3.854,0,0,1-.128.617c.039.079.134.112.275.121h1.785v.009h1.34c.1,0,.158-.119.193-.343.008-.124.015-.249.031-.372a6.7,6.7,0,0,1,.849-.924,2.176,2.176,0,0,1-.12.649c-.149.489-.231.736-.237.767a.735.735,0,0,0,.416.22.4.4,0,0,0,.12-.04.333.333,0,0,1,.093-.051.42.42,0,0,1-.029.051.093.093,0,0,1-.045.04h.754a3.173,3.173,0,0,1,.113-.626,1.816,1.816,0,0,1,.329-.393c.151-.138.289-.272.429-.394l-.245,1.084v.328h.831c0-.079-.026-.2-.057-.386-.027-.163-.045-.266-.045-.27a1.9,1.9,0,0,1,.3-.408,5.752,5.752,0,0,1,.455-.51v1.533a1.357,1.357,0,0,1-.127.489c-.077.2-.171.392-.257.589a.5.5,0,0,1-.1.03Zm-14.565-2.421a1,1,0,0,1-.471.546c-.184.091-.364.172-.533.245a4.585,4.585,0,0,0,.794.2h.587v-.2a5.051,5.051,0,0,0-.184-.971.227.227,0,0,0-.2.182Zm-5.7-1.6a1.966,1.966,0,0,1,.327-.645,6.833,6.833,0,0,1,.428-.645l.266,3.386a3.071,3.071,0,0,1-.539,1.958Zm-5.39,4.054-.343-.625c-.07.125-.187.333-.355.625h-5.088l-.451-4.857c0-.04.042-.114.144-.221a7.967,7.967,0,0,1,.6-.669c.026.164.051.474.09.933.143,1.592.267,2.767.381,3.527,0,.042.036.074.112.091a1.289,1.289,0,0,1,.18.066.408.408,0,0,0,.179.055h1.831v.009h2a.991.991,0,0,0-.916-.6,2.085,2.085,0,0,0-.312.032l.536-1.028c.158-.057.319-.1.481-.162a2.12,2.12,0,0,1,.576-.1,1.371,1.371,0,0,1,.857.315.9.9,0,0,1,.416.707.729.729,0,0,1-.12.348c-.086.14-.163.275-.24.4v.09h2.221a1.885,1.885,0,0,0,.04-.314,6.708,6.708,0,0,0-.12-.879c-.062-.394-.177-.975-.351-1.748-.081-.06-.2-.164-.373-.3a7.7,7.7,0,0,1,.724-1.26.724.724,0,0,0,.081.4,2.677,2.677,0,0,0,.56.416c.159.093.4.246.721.441a1.561,1.561,0,0,1-.231.343c-.123.149-.287.366-.514.66-.021.013-.022.058-.022.117l.219,1.817-.251,1.315a.543.543,0,0,0-.086.026.327.327,0,0,1-.1.03Zm-16.583,0a.186.186,0,0,1-.131-.072.5.5,0,0,1-.208-.257c-.034-.2-.094-.461-.186-.814a.929.929,0,0,0-.324.437c-.122.249-.257.386-.4.4l-1.583-.312v-.144c0,.035.131-.343.391-1.119a1.5,1.5,0,0,1,.734-.653c.22-.123.487-.291.809-.5a2.773,2.773,0,0,0-.091-.325c.043-.054.223-.36.545-.916.1.681.274,1.692.527,3.041.027.117.156.171.391.171h.052v-.009h5.634a3.109,3.109,0,0,0,.171-.429,2.639,2.639,0,0,1,.434-.784,1.833,1.833,0,0,1,.716-.638,3.155,3.155,0,0,1,1.187-.389,5.252,5.252,0,0,1,.576,1.68.85.85,0,0,1,.042.306.629.629,0,0,1-.093.278c-.075.141-.269.451-.574.915l-1.982-.716a.671.671,0,0,0-.332.373,1.232,1.232,0,0,1-.268.468h-1.291v.014Zm-.934-2.451a1.015,1.015,0,0,1-.476.546c-.186.091-.36.172-.535.245a4.873,4.873,0,0,0,.8.2h.588v-.2a4.782,4.782,0,0,0-.188-.971.216.216,0,0,0-.193.181Zm8.477.243a1.837,1.837,0,0,0-.406.243l1.176.471c-.034-.134-.066-.263-.09-.412a.911.911,0,0,0-.232-.336.235.235,0,0,0-.146-.032.831.831,0,0,0-.309.067Zm-17.055,2.209a.421.421,0,0,1-.126-.286,1.784,1.784,0,0,0-.086-.343c-.085.135-.236.343-.443.625h-1.8a.729.729,0,0,1-.185-.057.663.663,0,0,1-.284-.229,1.351,1.351,0,0,1-.186-.365l-.363.651h-4.6l-.459-4.857q0-.06.143-.221c.037-.054.235-.276.6-.669.027.164.059.474.086.933q.212,2.388.385,3.527c0,.042.032.074.113.091a1.557,1.557,0,0,1,.171.066.423.423,0,0,0,.183.055h1.825v.009h1.785a1.028,1.028,0,0,0,.08-.5,1.36,1.36,0,0,1,.045-.481,1.578,1.578,0,0,1,.3-.419c.128-.112.248-.235.369-.357l-.1,1.224a.552.552,0,0,0,.013.122.521.521,0,0,0,.2.286.487.487,0,0,0,.265.123h1.767l-.472-3.2.8-1.094c.027.229.059.525.108.868.065.694.159,1.732.282,3.123.01.2.119.3.343.3h1.709c.024-.159.042-.264.042-.314a7.507,7.507,0,0,0-.118-.879c-.066-.394-.179-.975-.357-1.748-.078-.06-.2-.164-.375-.3a7.724,7.724,0,0,1,.731-1.26.748.748,0,0,0,.075.4,2.766,2.766,0,0,0,.561.417c.158.093.4.246.723.441a1.627,1.627,0,0,1-.236.343c-.115.149-.28.366-.515.66-.019.013-.023.058-.023.117l.215,1.817-.243,1.315a.479.479,0,0,0-.086.026.326.326,0,0,1-.093.03Zm-14.968,0a.578.578,0,0,1-.4-.257.991.991,0,0,1-.227-.407l-.366.666H-2589a.584.584,0,0,1-.158-.057c-.148-.065-.284-.257-.416-.594l-.334.651h-9.371l-.456-4.857c0-.04.049-.114.143-.221.036-.054.236-.276.6-.669q.037.245.091.933.205,2.388.375,3.527c0,.042.037.074.116.091a1.561,1.561,0,0,1,.183.066.369.369,0,0,0,.171.055h6.611v.009h1.722a.772.772,0,0,0,.079-.429.868.868,0,0,1,.039-.4,2.89,2.89,0,0,1,.686-.828v.669c0,.016-.012.111-.036.267a1.95,1.95,0,0,0-.038.286.478.478,0,0,0,.052.2.524.524,0,0,0,.463.22h1.941a2.423,2.423,0,0,0,.107-.57,1.53,1.53,0,0,1,.026-.465,4.347,4.347,0,0,1,.651-.721,1.16,1.16,0,0,1,.028.267,3.813,3.813,0,0,1-.054.5,3.206,3.206,0,0,0-.052.442c0,.279.206.455.611.537h1.686a3.137,3.137,0,0,0,.171-.428,2.4,2.4,0,0,1,.436-.784,1.836,1.836,0,0,1,.714-.638,3.151,3.151,0,0,1,1.192-.389,5.4,5.4,0,0,1,.567,1.68.823.823,0,0,1,.041.306.6.6,0,0,1-.086.278c-.079.14-.27.451-.577.914l-1.982-.716a.651.651,0,0,0-.329.373,1.233,1.233,0,0,1-.276.468h-1.266v.014Zm3.632-2.209a1.88,1.88,0,0,0-.406.243l1.178.471a3.894,3.894,0,0,1-.092-.412.9.9,0,0,0-.237-.336.218.218,0,0,0-.143-.032.833.833,0,0,0-.3.067Zm-27.331-1.845a2.019,2.019,0,0,1,.324-.645,6.758,6.758,0,0,1,.428-.645l.264,3.386a3.037,3.037,0,0,1-.532,1.958Zm-5.151,4.054c-.132-.077-.2-.295-.2-.666,0-.117.009-.267.028-.465a2.008,2.008,0,0,1,.114-.382c.044.06.107.143.186.245a.407.407,0,0,0,.324.15c.191,0,.607-.287,1.254-.852a2.618,2.618,0,0,0-.483-.619,3.3,3.3,0,0,0-.654-.566,2.263,2.263,0,0,1-.155.313c-.137-.086-.552-.332-1.238-.718-.123-.071-.189-.241-.189-.528a4.746,4.746,0,0,1,.136-.641h.783a.5.5,0,0,0,.028-.284,6.64,6.64,0,0,1,1.242,1.047,6.619,6.619,0,0,1,.986,1.3,2.31,2.31,0,0,0,.279-1.207,1.079,1.079,0,0,0-.261-.705l.782-1.221a2.753,2.753,0,0,0,.086.381,1.354,1.354,0,0,0,.357.307c.407.215.609.357.609.417a6.522,6.522,0,0,1-.573.912.334.334,0,0,1-.078.018.493.493,0,0,1-.22-.092,6.473,6.473,0,0,1-.234.971,2.475,2.475,0,0,1-.235.457,2.166,2.166,0,0,0-.184.319.226.226,0,0,0,.045.1.4.4,0,0,1,.05.086,2.431,2.431,0,0,1,.274,1.049,5.15,5.15,0,0,1-.085.87Zm1.32-1.06c.15.014.3.014.458.014s.318,0,.457-.014a5.238,5.238,0,0,0-.3-.578,3.143,3.143,0,0,1-.618.579Zm-29.4,1.06a.591.591,0,0,1-.4-.257.924.924,0,0,1-.224-.407l-.367.666h-7.833a.189.189,0,0,1-.133-.072.5.5,0,0,1-.207-.257c-.036-.2-.1-.461-.179-.814-.1.042-.213.186-.332.437s-.263.386-.4.4l-1.585-.312v-.144c0,.035.135-.343.39-1.119a1.551,1.551,0,0,1,.733-.653c.219-.123.488-.291.811-.5a2.034,2.034,0,0,0-.1-.325q.064-.081.556-.916c.093.681.267,1.692.521,3.041.022.117.154.171.389.171h.056v-.009h5.811v.009h1.73a2.844,2.844,0,0,0,.105-.57,1.3,1.3,0,0,1,.026-.465,4.039,4.039,0,0,1,.65-.721,1.187,1.187,0,0,1,.027.267,3.366,3.366,0,0,1-.054.5,3.447,3.447,0,0,0-.049.442c0,.281.211.466.635.545h.705a1.258,1.258,0,0,0,.018-.289,2.8,2.8,0,0,1,.012-.3,1.31,1.31,0,0,1,.25-.454,3.648,3.648,0,0,1,1.432-1.243.621.621,0,0,1,.289-.061,1,1,0,0,1,.614.2,2.054,2.054,0,0,1,.514.48,1.991,1.991,0,0,1,.38.726v.219a1.832,1.832,0,0,0-1.059-.536,3.41,3.41,0,0,0-.52-.039,1.77,1.77,0,0,0-1.165.3,2.592,2.592,0,0,0,1.018.985.659.659,0,0,0,.236.026c.027,0,.187-.018.49-.04s.458-.039.478-.039h.874a.2.2,0,0,0,.066-.012h.155l-.629,1.158Zm-9.759-2.451a.987.987,0,0,1-.473.546c-.185.091-.359.171-.531.245a4.764,4.764,0,0,0,.794.2h.59v-.2a5.094,5.094,0,0,0-.186-.971.229.229,0,0,0-.2.181Zm47.352,2.4a.276.276,0,0,1-.086-.012.144.144,0,0,0-.065-.021,1.016,1.016,0,0,1-.559-.274.911.911,0,0,1-.356-.531,1.372,1.372,0,0,1-.017-.267,4.181,4.181,0,0,1,.187-1.052c.139-.465.278-.736.405-.8l.05.036a5.206,5.206,0,0,1-.041.541c-.032.265-.049.418-.049.44a1.3,1.3,0,0,0,.062.408.845.845,0,0,0,.375.32,1.175,1.175,0,0,0,.474.16h3.464a.331.331,0,0,0,.078-.153,3.163,3.163,0,0,0-.441-.918l.534-.943a1.7,1.7,0,0,1,.379.55,1.526,1.526,0,0,1,.182.651,4.375,4.375,0,0,1-.561,1.868Zm89.358-2.893c.028-.138.2-.309.514-.524a4.8,4.8,0,0,1-.571-.209c-.035-.018-.052-.047-.052-.107a1.137,1.137,0,0,1,.348-.736.968.968,0,0,1,.708-.376c.252,0,.378.1.378.273,0-.032-.068.093-.207.367a.636.636,0,0,0-.343-.195.375.375,0,0,0-.065-.019.386.386,0,0,0-.215.063c-.058.028-.135.086-.244.151a.185.185,0,0,0-.024.042c-.01.017-.011.027-.03.04a.271.271,0,0,0,.134.129.733.733,0,0,0,.4.117h1.043a1.693,1.693,0,0,1-.275.449,3.872,3.872,0,0,0-1.45.552Zm-17.931-.42c-.005.015-.01.015-.01.015,0-.02.005-.019.005-.013Zm-28.611,0c-.009.015-.011.015-.011.015,0-.02,0-.019.008-.013Zm-90.228,0c0,.015-.012.015-.012.015,0-.02,0-.019.013-.013Zm62.32-.434c-.241-.181-.359-.314-.359-.378a.247.247,0,0,1,.09-.163,5.589,5.589,0,0,1,.514-.471s.02-.013.058-.035a.377.377,0,0,1,.075-.034,1.776,1.776,0,0,1,.4.328c.224.211.343.335.343.375a.19.19,0,0,1-.075.135,3.608,3.608,0,0,1-.561.428.334.334,0,0,1-.106.04,1.167,1.167,0,0,1-.382-.224Zm-13.178-.257a2.184,2.184,0,0,0-.376.363,4.142,4.142,0,0,1-.8-.412c.3-.392.5-.591.583-.591a1.358,1.358,0,0,1,.329.195,1.837,1.837,0,0,0,.326.182,1.81,1.81,0,0,0,.219-.166c.129-.111.22-.179.257-.21l.771.4a3.97,3.97,0,0,1-.563.633Zm28.857-.141a3.28,3.28,0,0,0-.449.4.906.906,0,0,0-.188-.074,2.468,2.468,0,0,1-.653-.374,2.607,2.607,0,0,1,.32-.389c.161-.171.257-.262.293-.262a1.242,1.242,0,0,1,.257.157,2.031,2.031,0,0,0,.343.2.475.475,0,0,0,.118.05s.178-.136.543-.411l.857.448a4.508,4.508,0,0,1-.514.6.2.2,0,0,1-.108.057,3.175,3.175,0,0,1-.822-.408Zm-.449.4c.012.008.012.009-.01.009Zm-51.066-.4a3.6,3.6,0,0,0-.449.4c0,.008.007.009-.01.009l.01-.009a1.023,1.023,0,0,0-.192-.074,2.52,2.52,0,0,1-.652-.374,2.432,2.432,0,0,1,.322-.389c.155-.171.257-.262.293-.262a1.4,1.4,0,0,1,.248.157,2.8,2.8,0,0,0,.335.2,1.258,1.258,0,0,0,.124.05s.178-.136.541-.411l.857.448a4.088,4.088,0,0,1-.514.6.184.184,0,0,1-.1.057,3.106,3.106,0,0,1-.81-.408Zm91.364-.49c-.223.257-.364.381-.417.381a2.675,2.675,0,0,1-.721-.412c.114-.126.291-.335.536-.625a2.391,2.391,0,0,0,.686.429c-.033,0,.126-.149.47-.429l.794.461c-.4.4-.585.6-.585.6a3.762,3.762,0,0,1-.761-.406Zm-28.611,0c-.229.257-.365.381-.422.381a2.934,2.934,0,0,1-.717-.412c.112-.126.294-.335.536-.625a2.4,2.4,0,0,0,.681.429,2.509,2.509,0,0,1,.47-.428l.8.461c-.4.4-.589.6-.589.6a3.829,3.829,0,0,1-.755-.406Zm-90.226,0c-.226.257-.364.381-.417.381a2.78,2.78,0,0,1-.717-.412c.109-.126.29-.335.533-.625a2.342,2.342,0,0,0,.686.429c-.027,0,.126-.149.47-.429l.792.461c-.4.4-.584.6-.584.6a3.824,3.824,0,0,1-.766-.406Zm73.965-1.01v-.078c0-.077.128-.2.375-.38-.113-.029-.289-.1-.534-.192a.837.837,0,0,1,.068-.333.9.9,0,0,1,.665-.644c.035,0,.085-.012.142-.012.22,0,.33.072.33.222a1.66,1.66,0,0,1-.181.309.445.445,0,0,0-.214-.165.171.171,0,0,0-.086-.017.686.686,0,0,0-.279.066c-.116.053-.18.106-.18.171,0,.12.227.2.691.215l.141,0c.115-.008.288-.015.521-.015a2.137,2.137,0,0,1-.2.371,1.824,1.824,0,0,0-1.156.482ZM-2578.742,351.388Zm10.965-7.753a26.031,26.031,0,0,0,10.371-5.025c9.649-7.8,1.954-15.334,1.954-15.334-6.911-7.109-18.471-7.628-18.471-7.628l-13.362,12.834,6.27,6.016,6.064-5.808.028.042s1.36,2.064.351,3.279l-6.477,6.212-10.232-9.814,16.789-16.089s14.577.105,21.936,10.9c0,0,5.633,8.712-4.792,16.351,0,0-6.36,4.162-10.318,4.486ZM-2603.1,332.8s-5.63-8.71,4.793-16.35c0,0,6.359-4.165,10.318-4.483l.111.423a25.992,25.992,0,0,0-10.371,5.024c-9.646,7.8-1.95,15.334-1.95,15.334,6.912,7.114,18.466,7.619,18.466,7.619l13.371-12.83-6.281-6.014-6.059,5.806-.037.04s-1.353-2.143-.347-3.363l6.481-6.207,10.231,9.815-16.8,16.09s-14.57-.107-21.933-10.9Zm21.977-3.1,5.924-5.765a3.151,3.151,0,0,1-.226,3.685l-5.379,5.28a3.578,3.578,0,0,1-.324-3.2Z" transform="translate(2655.36 -311.439)" fill="#fff" stroke="rgba(0,0,0,0)" stroke-width="1"/>
</svg>
