<svg xmlns="http://www.w3.org/2000/svg" xmlns:xlink="http://www.w3.org/1999/xlink" width="1440" height="400" viewBox="0 0 1440 400">
  <defs>
    <linearGradient id="linear-gradient" x1="0.118" y1="-0.232" x2="0.803" y2="1.304" gradientUnits="objectBoundingBox">
      <stop offset="0" stop-color="#3fb774"/>
      <stop offset="1" stop-color="#369172"/>
    </linearGradient>
  </defs>
  <g id="Group_13687" data-name="Group 13687" transform="translate(5994 -4381)">
    <path id="Path_10576" data-name="Path 10576" d="M0,0H1440V400H0Z" transform="translate(-5994 4381)" fill="url(#linear-gradient)"/>
    <g id="Group_13686" data-name="Group 13686" transform="translate(-910 891)" opacity="0.1">
      <g id="Group_13684" data-name="Group 13684">
        <path id="Mar.Ellipse" d="M4.706,0A4.706,4.706,0,1,1,0,4.706,4.706,4.706,0,0,1,4.706,0Z" transform="translate(-4254.282 3586.864)" fill="#fff"/>
        <path id="Line.Graph" d="M396.513,434.21c63.946,25.058,154.381,54,233.085,55.084,91.425,1.264,146.024-18.944,202.843-45.757,30.014-14.164,60.671-30.187,97.719-45.851,107.074-45.271,208.863-53,302.576-51.475s184.815,48.962,299.96,51.48c95.57,2.09,240.146-55.782,298.527-115.947" transform="translate(-5477.013 3245.893)" fill="none" stroke="#fff" stroke-width="1" stroke-dasharray="4 3"/>
      </g>
      <g id="Group_13685" data-name="Group 13685">
        <path id="Line.Graph-2" data-name="Line.Graph" d="M313,397.567s176.8,89.794,316.6,91.727,193.489-46.337,300.562-91.608,208.863-53,302.576-51.475,184.815,48.962,299.961,51.48c63.048,1.379,147.425-23.339,214.282-57.559" transform="translate(-5393.055 3397.149)" fill="none" stroke="#fff" stroke-width="1" stroke-dasharray="4 3"/>
        <circle id="Mar.Ellipse-2" data-name="Mar.Ellipse" cx="4.706" cy="4.706" r="4.706" transform="translate(-4259.128 3740.691)" fill="#fff"/>
      </g>
      <g id="Group_13683" data-name="Group 13683">
        <path id="Line.Graph-3" data-name="Line.Graph" d="M402.716,368c64.143,56.213,152.594,118.777,229.3,119.836,127.649,1.763,178.693-101,272.018-150.8a229.733,229.733,0,0,1,28.2-12.735c112.383-41.718,209.875,79.576,303.7,81.1s183.664-91.126,298.952-88.608c106.757,2.332,227.681,62.6,302.919,115.448" transform="translate(-5483.216 3215.367)" fill="none" stroke="#fff" stroke-width="1" stroke-dasharray="4 3"/>
        <circle id="May.Ellipse" cx="4.706" cy="4.706" r="4.706" transform="translate(-3939.014 3526.371)" fill="#fff"/>
        <circle id="Feb.Ellipse" cx="4.706" cy="4.706" r="4.706" transform="translate(-4642.194 3587.875)" fill="#fff"/>
      </g>
    </g>
  </g>
</svg>
