<svg xmlns="http://www.w3.org/2000/svg" width="35.957" height="26.527" viewBox="0 0 35.957 26.527">
  <g id="Marital_Status" data-name="Marital Status" transform="translate(-0.001 -104.949)">
    <path id="Path_1180" data-name="Path 1180" d="M9.282,104.949A8.821,8.821,0,0,0,2.6,107.431C.68,109.448-.183,112.648.033,116.943a6.858,6.858,0,0,0,3.595,5.982c.06.033.119.065.179.1a4.782,4.782,0,0,0-2.568,4.242v3.474a.738.738,0,0,0,.738.738H16.589a.738.738,0,0,0,.738-.738v-3.474a4.781,4.781,0,0,0-2.568-4.242c.06-.031.119-.063.179-.1a6.858,6.858,0,0,0,3.595-5.982c.216-4.3-.647-7.5-2.565-9.512a8.823,8.823,0,0,0-6.685-2.482Zm-1.2,19.007a.738.738,0,0,0,.738-.738V122q.23.015.462.015T9.744,122v1.22a.738.738,0,0,0,.738.738h.771l-1.971,1.971-1.971-1.971Zm3.177-1.475h-.04v-.735a7.2,7.2,0,0,0,.824-.287,11.655,11.655,0,0,1-.783,1.022Zm2.17-3.741a5.682,5.682,0,0,1-8.3,0,7.838,7.838,0,0,1-.166-4.918.729.729,0,0,0,.465,0,14.616,14.616,0,0,1,3.849-.339,14.7,14.7,0,0,1,3.842.337.737.737,0,0,0,.471,0,7.837,7.837,0,0,1-.165,4.92Zm-6.085,3.006v.735H7.3a11.547,11.547,0,0,1-.785-1.023A7.19,7.19,0,0,0,7.345,121.746Zm8.506,5.518V130H2.714v-2.737a3.3,3.3,0,0,1,2.589-3.23l3.458,3.458a.738.738,0,0,0,1.043,0l3.458-3.458a3.3,3.3,0,0,1,2.589,3.23Zm1.207-10.395a5.49,5.49,0,0,1-3.606,5.138,12.979,12.979,0,0,0,1.272-2.508l.04-.109.01-.029a9.418,9.418,0,0,0-1.667-9.479.738.738,0,0,0-1.213.832,6.744,6.744,0,0,1,.609,1.48,23.211,23.211,0,0,0-3.222-.189,23.249,23.249,0,0,0-3.221.189,6.85,6.85,0,0,1,.608-1.479.738.738,0,0,0-1.213-.832,9.418,9.418,0,0,0-1.667,9.479l.011.029c.013.037.027.073.04.109A12.97,12.97,0,0,0,5.105,122a6.858,6.858,0,0,1-.762-.362,5.4,5.4,0,0,1-2.836-4.765c-.2-3.876.532-6.709,2.16-8.422a7.42,7.42,0,0,1,5.616-2.023,7.42,7.42,0,0,1,5.616,2.023c1.628,1.712,2.355,4.546,2.16,8.421Zm0,0" transform="translate(0)" fill="#1baf5d"/>
    <path id="Path_1181" data-name="Path 1181" d="M267.478,124.7h-1.324v-.9a7.17,7.17,0,0,0,4.7-6.722c0-.19-.023-2.458-.023-2.458a5.72,5.72,0,0,0-1.645-4.156,7.647,7.647,0,0,0-5.478-1.985h-.037c-4.253.015-7.11,2.511-7.11,6.211,0,0-.023,2.2-.023,2.388a7.17,7.17,0,0,0,4.7,6.722v.9h-1.324a4.788,4.788,0,0,0-4.783,4.783V134a.738.738,0,0,0,.737.738h15.661a.738.738,0,0,0,.738-.738v-4.522A4.788,4.788,0,0,0,267.478,124.7Zm-9.445-10.013c0-3.481,3.038-4.727,5.64-4.736h.033a6.2,6.2,0,0,1,4.437,1.555,4.221,4.221,0,0,1,1.211,3.111v1.134c-3.771-.323-7.862-2.94-7.906-2.968a.739.739,0,0,0-1.079.329,5.2,5.2,0,0,1-2.335,2.536Zm-.022,2.5a5.512,5.512,0,0,0,3.325-2.747,20.7,20.7,0,0,0,8.036,2.793,5.682,5.682,0,0,1-11.361-.046Zm5.681,7.047a7.174,7.174,0,0,0,.986-.068v.535h-1.971v-.535A7.175,7.175,0,0,0,263.693,124.233Zm2.071,1.943-2.071,3.356-2.071-3.356Zm5.021,7.092H256.6v-3.784a3.311,3.311,0,0,1,3.288-3.307l3.177,5.147a.738.738,0,0,0,1.256,0l3.177-5.147a3.311,3.311,0,0,1,3.288,3.307v3.784Zm0,0" transform="translate(-236.304 -3.267)" fill="#1baf5d"/>
  </g>
</svg>
