<svg xmlns="http://www.w3.org/2000/svg" width="430.76" height="468" viewBox="0 0 430.76 468">
  <g id="most-recent" transform="translate(-18)">
    <g id="Group_2" data-name="Group 2">
      <path id="Path_1" data-name="Path 1" d="M222.144,73.313H100.322a12,12,0,1,1,0-24H222.144a12,12,0,1,1,0,24Z"/>
      <g id="Group_1" data-name="Group 1">
        <ellipse id="Ellipse_1" data-name="Ellipse 1" cx="12.021" cy="12" rx="12.021" ry="12" transform="translate(373.451 49.314)"/>
        <ellipse id="Ellipse_2" data-name="Ellipse 2" cx="12.021" cy="12" rx="12.021" ry="12" transform="translate(323.363 49.314)"/>
        <ellipse id="Ellipse_3" data-name="Ellipse 3" cx="12.021" cy="12" rx="12.021" ry="12" transform="translate(273.274 49.314)"/>
      </g>
    </g>
    <g id="Group_4" data-name="Group 4">
      <path id="Path_2" data-name="Path 2" d="M280.494,381.534a11.976,11.976,0,0,1-6.845-2.144l-47.125-32.661a11.994,11.994,0,0,1-5.165-9.857V284.411a12.021,12.021,0,0,1,24.042,0v46.184l41.959,29.081c9.712,6.232,4.432,22.291-6.866,21.858Z"/>
      <g id="Group_3" data-name="Group 3">
        <path id="Path_3" data-name="Path 3" d="M436.739,123.819a12.011,12.011,0,0,0,12.021-12V12A12.011,12.011,0,0,0,436.739,0H30.021A12.011,12.011,0,0,0,18,12V382.146a12.011,12.011,0,0,0,12.021,12h85.325a131.248,131.248,0,0,0,236.068,0h85.325a12.011,12.011,0,0,0,12.021-12V111.819c0-6.627-5.382,3.168-12.021,3.168s-9.055.268-9.055,6.895l-2.966,248.264H360.326a130.777,130.777,0,0,0,4.286-33.274c0-72.3-58.87-131.129-131.232-131.129S102.148,264.567,102.148,336.872a130.765,130.765,0,0,0,4.286,33.274H42.042V123.819ZM42.042,24H424.718V99.819H42.042ZM233.38,229.743A107.129,107.129,0,1,1,126.191,336.872,107.281,107.281,0,0,1,233.38,229.743Z"/>
      </g>
    </g>
  </g>
</svg>
