<svg xmlns="http://www.w3.org/2000/svg" xmlns:xlink="http://www.w3.org/1999/xlink" width="128" height="128" viewBox="0 0 128 128">
  <defs>
    <clipPath id="clip-path">
      <path id="Path_10461" data-name="Path 10461" d="M17.5,20H129.293V131.77H17.5Zm0,0" transform="translate(-17.5 -20)"/>
    </clipPath>
    <clipPath id="clip-path-2">
      <path id="Path_10464" data-name="Path 10464" d="M85.1,148.328H96.937v15.907H85.1Zm0,0" transform="translate(-85.1 -148.328)" fill="#004c66"/>
    </clipPath>
    <clipPath id="clip-path-3">
      <path id="Path_10470" data-name="Path 10470" d="M96.02,123.508h20.108v34.405H96.02Zm0,0" transform="translate(-96.02 -123.508)"/>
    </clipPath>
    <clipPath id="clip-path-4">
      <path id="Path_10473" data-name="Path 10473" d="M62.27,123.508H82.244v34.405H62.27Zm0,0" transform="translate(-62.27 -123.508)"/>
    </clipPath>
  </defs>
  <g id="Group_13488" data-name="Group 13488" transform="translate(16328 8098)">
    <g id="Group_13480" data-name="Group 13480">
      <g id="Ellipse_915" data-name="Ellipse 915" transform="translate(-16328 -8098)" fill="none" stroke="#f2f2f2" stroke-width="1">
        <circle cx="64" cy="64" r="64" stroke="none"/>
        <circle cx="64" cy="64" r="63.5" fill="none"/>
      </g>
      <g id="_10" data-name="10" transform="translate(-16337.396 -8103.77)">
        <g id="Group_13474" data-name="Group 13474" transform="translate(17.5 20)" clip-path="url(#clip-path)">
          <path id="Path_10460" data-name="Path 10460" d="M73.235,20.27a55.537,55.537,0,0,0-47.727,84.1,56.165,56.165,0,0,0,33.008,25.185,55.463,55.463,0,0,0,9.666,1.8c.4.041.792.075,1.192.1q2.1.158,4.23.16c1.837,0,3.645-.093,5.432-.265a54.9,54.9,0,0,0,9.663-1.8A55.693,55.693,0,0,0,73.235,20.27" transform="translate(-17.525 -20.068)" fill="none"/>
        </g>
        <path id="Path_10462" data-name="Path 10462" d="M107.961,112.543s2.806,4.655,4.049,7c.353.663.6,1.141.638,1.267a4.025,4.025,0,0,1,.177,1.162,3.975,3.975,0,0,1-.285,1.5l-6.026,18.073-7.386-9.763h0l-3.741-4.955a17.32,17.32,0,0,0,6.375-2.038c5.794-3.211,6.475-7.756,6.466-9.768a6.754,6.754,0,0,0-.075-1.028l-.192-1.453" transform="translate(-19.839 -23.572)" fill="#f9f9f9"/>
        <g id="Group_13475" data-name="Group 13475" transform="translate(67.881 115.641)" clip-path="url(#clip-path-2)">
          <path id="Path_10463" data-name="Path 10463" d="M88.131,148.555a1.051,1.051,0,0,0,.32.049h4.78a1.085,1.085,0,0,0,.323-.049l2.763,15.473c-1.789.172-3.6.265-5.432.265q-2.131,0-4.23-.16c-.4-.029-.794-.061-1.192-.1l2.667-15.476" transform="translate(-85.192 -148.386)" fill="#004c66"/>
        </g>
        <path id="Path_10465" data-name="Path 10465" d="M116.812,121.929l31.979,8.335c-7.959,12.3-20.779,21.317-35.8,25.181l6.853-16.527a15.068,15.068,0,0,0-1.156-13.806l-1.181-1.918c-.041-.125-.311-.6-.7-1.267" transform="translate(-24.323 -25.962)" fill="#002836"/>
        <path id="Path_10466" data-name="Path 10466" d="M59.967,121.93c-.376.663-.635,1.141-.676,1.267l-1.171,1.915a15.191,15.191,0,0,0-1.042,13.806l6.938,16.535a60.569,60.569,0,0,1-35.8-25.185l31.752-8.338" transform="translate(-5.551 -25.97)" fill="#002836"/>
        <path id="Path_10467" data-name="Path 10467" d="M73.568,103.141c.166.154.332.306.507.46.35.312.7.623,1.074.943.149.117.294.242.443.367.11.09.206.177.315.262.07.055.131.108.2.169.105.084.215.168.323.265l.108.09c.18.149.361.288.539.429l.1.081c.364.288.728.571,1.086.847l.087.069a33.319,33.319,0,0,0,3.412,2.507,11.48,11.48,0,0,0,5.142,1.016h.832c.116,0,.233,0,.35-.006s.218-.006.329-.014c.087-.006.174-.009.265-.015l.149-.006.163-.011.454-.044h.006l.09-.009.116-.014c.122-.012.241-.026.361-.041a13.137,13.137,0,0,0,1.391-.253l.026-.008c.149-.035.285-.075.422-.114.157-.043.312-.1.457-.145.084-.029.166-.064.244-.1l.038-.017a2.38,2.38,0,0,0,.224-.1l.015-.009.075-.041.133-.075c.114-.064.227-.134.347-.2l.1-.058.032-.017a43.637,43.637,0,0,0,7.712-6.061l.894,6.857.192,1.453a6.754,6.754,0,0,1,.075,1.028c.009,2.012-.671,6.559-6.466,9.768a17.709,17.709,0,0,1-8.347,2.161h-.155a17.8,17.8,0,0,1-8.37-2.161c-5.813-3.211-6.521-7.756-6.527-9.768A6.624,6.624,0,0,1,72.6,111.6l.166-1.453.093-.783a14.526,14.526,0,0,0,5.91,11.089,14.116,14.116,0,0,0,6.588,2.21l.105.009h.1a1.933,1.933,0,0,0,1.933-1.933l-.022-5.777a2.223,2.223,0,0,0-1.816-2.169c-.5-.09-.949-.183-1.362-.282l-.174-.041a11.444,11.444,0,0,1-5.307-2.963l-5.374-5.238v.006h0l-.507,4.458.637-5.59" transform="translate(-14.017 -21.177)" fill="#f4c9ab"/>
        <path id="Path_10468" data-name="Path 10468" d="M71.209,112.543,71.043,114a6.624,6.624,0,0,0-.067,1.028c.006,2.012.716,6.559,6.527,9.768a17.463,17.463,0,0,0,6.393,2.038l-3.715,4.955h0l-7.319,9.763-6.143-18.073a4.005,4.005,0,0,1-.122-2.667c.038-.125.277-.6.623-1.267,1.234-2.341,3.989-7,3.989-7" transform="translate(-12.462 -23.572)" fill="#f9f9f9"/>
        <g id="Group_13476" data-name="Group 13476" transform="translate(76.02 97.143)" clip-path="url(#clip-path-3)">
          <path id="Path_10469" data-name="Path 10469" d="M112.885,123.627l1.083,1.916a16.264,16.264,0,0,1,1.06,13.806l-6.283,16.527a54.629,54.629,0,0,1-9.663,1.8L96.32,142.2l.052-.015a1.158,1.158,0,0,0,.606-.5l2.385-7.08V134.6l7.386,9.763,6.026-18.073a3.975,3.975,0,0,0,.285-1.5,4.025,4.025,0,0,0-.177-1.162" transform="translate(-96.096 -123.537)" fill="#e8f2f9"/>
        </g>
        <path id="Path_10471" data-name="Path 10471" d="M88.6,131.711a17.338,17.338,0,0,0,1.977.125h.163a17.42,17.42,0,0,0,1.974-.125l3.741,4.955h0l-2.385,7.08a1.158,1.158,0,0,1-.605.5l-.052.015a1.086,1.086,0,0,1-.323.049H88.3a1.051,1.051,0,0,1-.32-.049,1.155,1.155,0,0,1-.667-.522l-2.434-7.075,3.715-4.955" transform="translate(-17.163 -28.454)" fill="#004c66"/>
        <g id="Group_13477" data-name="Group 13477" transform="translate(50.867 97.143)" clip-path="url(#clip-path-4)">
          <path id="Path_10472" data-name="Path 10472" d="M65.585,123.628a4.006,4.006,0,0,0-.172,1.162,4.049,4.049,0,0,0,.294,1.5l6.143,18.073,7.319-9.763h0L81.6,141.68a1.154,1.154,0,0,0,.667.522L79.6,157.681a55.19,55.19,0,0,1-9.663-1.8l-6.393-16.533a16.322,16.322,0,0,1,.958-13.808l1.08-1.918" transform="translate(-62.316 -123.538)" fill="#e8f2f9"/>
        </g>
        <path id="Path_10474" data-name="Path 10474" d="M82.245,27.816c3.348,0,8.72,4.976,8.72,4.976q.961-.083,1.938-.081c4.39,0,8.836,1.307,11.483,5.063a9.548,9.548,0,0,1,1.761,7.016l-1.64,14.05-.053.285-.2.987-.015.07-1.135,5.747c-.1-1.257-.154-2.521-.183-3.782v-.192c-.015-1.628.192-3.29.18-4.919,0-.39-.018-.777-.05-1.162a6.884,6.884,0,0,0-2.8-4.8l-.125-.084a3.762,3.762,0,0,0-2.026-.7h-.143a2.213,2.213,0,0,0-.244.009,7.021,7.021,0,0,0-2.623.83c-.265.134-.533.274-.8.42-.079.041-.155.084-.233.128a18.26,18.26,0,0,1-7.942,2.285H84.777a18.329,18.329,0,0,1-7.954-2.285,8.676,8.676,0,0,0-3.913-1.385h-.064a3.811,3.811,0,0,0-2.227.786,6.857,6.857,0,0,0-2.766,4.8c-.029.385-.041.771-.041,1.162,0,1.565.2,3.156.209,4.719v.39c-.015,1.26-.064,2.524-.149,3.782l-.447-2.149-.92-4.472-.081-.393-.035-.18-.084-.411q-.441-5.52-.879-11.039a18.835,18.835,0,0,1,2.422-10.956,6.286,6.286,0,0,1,1.362-1.785c1.689-1.267,9.561-6.588,12.9-6.722h.134" transform="translate(-12.19 -1.991)" fill="#4c4c4c"/>
        <path id="Path_10475" data-name="Path 10475" d="M89.3,77.051a.936.936,0,0,0-.177-.562l-1.714-1.651-1.1-8.116a1.166,1.166,0,0,0-.643-.885c-1.93-.932-8.422-4.105-11.761-6.134-.2-.119-.4-.23-.588-.326a4.812,4.812,0,0,0-2.143-.556h-.093a5.326,5.326,0,0,0-.562.041l-.238.035-.108.075a6.857,6.857,0,0,0-2.766,4.8c-.029.385-.041.771-.041,1.162,0,1.565.2,3.156.209,4.719v.39c-.015,1.26-.064,2.524-.149,3.779l-.447-2.146-.92-4.472-.081-.393a1.781,1.781,0,0,0-.447-.058,1.863,1.863,0,0,0-1.822,1.54c-.562,3.214,1.17,9.057,1.593,10.187a1.284,1.284,0,0,0,1.3.87,2.711,2.711,0,0,0,.941-.183c0,.113,0,.23.006.344v.023c.035,1.633.1,3.464.192,5.06v.032a15.1,15.1,0,0,0,.53,3.852,5.348,5.348,0,0,0,.661.981l.14.157a4.208,4.208,0,0,0,.291.335l.16.174.171.178c.224.241.475.492.745.745.169.162.341.329.522.495.09.084.18.171.274.253l.061.056c.166.149.332.309.507.46.347.312.7.623,1.074.943.149.117.294.242.443.367.11.09.206.177.315.262.07.055.131.108.2.169.105.084.215.168.323.265l.108.09c.18.149.361.288.539.429l.1.081c.364.288.728.571,1.086.847l.087.069c.317.245.632.478.938.705.414.3.82.591,1.192.853.09.061.171.125.262.183q.224.158.437.3l.1.064c.113.075.224.149.332.215s.2.131.3.189c.061.037.131.075.2.113l.017.009a2.14,2.14,0,0,0,.233.107c.084.035.174.075.271.111.169.067.347.122.539.177q.373.11.794.192h0c.274.058.574.107.876.145.358.047.736.084,1.118.113h.035c.119.009.241.018.373.021s.253.014.388.017l.157.009h.719l-.029-8.434-.023-7.08-.018-3.121v-1.4l3.176-.306a.955.955,0,0,0,.847-.952V77.052" transform="translate(-11.741 -9.888)" fill="#ffdbc2"/>
        <path id="Path_10476" data-name="Path 10476" d="M109.071,68.073a1.875,1.875,0,0,0-1.837-1.54,1.727,1.727,0,0,0-.941.274l-.212,1.054-1.135,5.747c-.1-1.257-.154-2.521-.183-3.782v-.192c-.015-1.628.192-3.29.18-4.919,0-.39-.018-.777-.05-1.162a6.884,6.884,0,0,0-2.8-4.8l-.125-.084a3.761,3.761,0,0,0-2.026-.7H99.8a2.212,2.212,0,0,0-.244.009,7.021,7.021,0,0,0-2.623.829c-.265.134-.533.274-.8.42-.079.041-.155.084-.233.128a18.26,18.26,0,0,1-7.942,2.285H86.617a18.329,18.329,0,0,1-7.954-2.285,8.676,8.676,0,0,0-3.913-1.385h-.064a3.8,3.8,0,0,0-2.12.713l.238-.035a5.324,5.324,0,0,1,.562-.041h.093a4.812,4.812,0,0,1,2.143.556c.189.1.388.206.588.326,3.34,2.029,9.831,5.2,11.761,6.134a1.166,1.166,0,0,1,.643.885l1.1,8.117,1.714,1.651a.936.936,0,0,1,.177.562v1.019a.955.955,0,0,1-.847.952l-3.176.306.006,1.4.009,3.118.023,7.08.029,8.434h.116c.113,0,.23,0,.347-.006s.218-.006.329-.014l.061-.006.2-.009.149-.006L89,99.09l.454-.044h.006l.09-.009.116-.014c.122-.012.241-.026.361-.041a13.94,13.94,0,0,0,1.391-.253l.026-.008c.1-.027.2-.05.291-.075l.131-.038c.157-.043.312-.1.457-.145.084-.029.166-.064.244-.1l.02-.009.017-.008a2.376,2.376,0,0,0,.224-.1l.015-.009.075-.041.133-.075c.114-.064.227-.131.347-.2l.1-.058.032-.017c.46-.288.981-.641,1.546-1.043.189-.131.394-.274.588-.419s.4-.3.612-.455c.4-.309.82-.631,1.237-.958.136-.113.279-.224.416-.335.186-.149.373-.3.559-.457.108-.093.21-.178.315-.262s.218-.174.323-.268c.192-.157.384-.323.57-.487l.053-.043c.41-.355.809-.713,1.2-1.066.157-.145.312-.291.466-.428.2-.2.408-.394.6-.582.1-.088.195-.181.282-.277h0a13.113,13.113,0,0,0,2.009-2.39l.052-.119c.763-1.558.565-6.026.894-9.3v-.025a2.822,2.822,0,0,0,.987.2,1.274,1.274,0,0,0,1.306-.869c.417-1.13,2.108-6.972,1.529-10.187" transform="translate(-14.026 -9.671)" fill="#f4c9ab"/>
        <path id="Path_10477" data-name="Path 10477" d="M73.547,104.659h0l5.377,5.232a11.4,11.4,0,0,0,5.307,2.963l.174.041c.414.1.865.192,1.362.285a2.222,2.222,0,0,1,1.814,2.172l.017,5.776a1.927,1.927,0,0,1-1.927,1.93,1.645,1.645,0,0,1-.209-.012,14.116,14.116,0,0,1-6.588-2.21,14.526,14.526,0,0,1-5.91-11.089v-.006l.075-.628.507-4.458" transform="translate(-14.127 -21.563)" fill="#ffdbc2"/>
      </g>
    </g>
  </g>
</svg>
