<svg xmlns="http://www.w3.org/2000/svg" width="78.592" height="41.582" viewBox="0 0 78.592 41.582">
  <g id="Layer_1" transform="translate(98.4 -145.27)">
    <g id="Group_12335" data-name="Group 12335" transform="translate(-98.4 145.27)">
      <g id="Group_12332" data-name="Group 12332" transform="translate(0.002 0)">
        <path id="Path_2049" data-name="Path 2049" d="M367.084,36.27h-.3a4.927,4.927,0,0,0-2.611.732c-2.709,1.651-3.639,5.518-3.639,5.518h2.992c.109,0,.211,0,.315-.011C367.354,42.3,369,38.6,369.548,37c.154-.448.222-.732.222-.732Z" transform="translate(-295.373 -36.27)" fill="#fff"/>
        <g id="Group_12331" data-name="Group 12331" transform="translate(0 6.252)">
          <path id="Path_2050" data-name="Path 2050" d="M82.161,145.57a1.153,1.153,0,1,0,1.141,1.164A1.139,1.139,0,0,0,82.161,145.57Z" transform="translate(-76.586 -128.077)" fill="#fff"/>
          <path id="Path_2051" data-name="Path 2051" d="M96.811,145.57a1.153,1.153,0,1,0,1.141,1.164A1.153,1.153,0,0,0,96.811,145.57Z" transform="translate(-88.053 -128.077)" fill="#fff"/>
          <path id="Path_2052" data-name="Path 2052" d="M162.8,71.781a1.141,1.141,0,0,0,0-2.281,1.132,1.132,0,0,0-1.141,1.141A1.118,1.118,0,0,0,162.8,71.781Z" transform="translate(-139.707 -68.533)" fill="#fff"/>
          <path id="Path_2053" data-name="Path 2053" d="M177.451,69.49a1.141,1.141,0,1,0,0,2.281,1.148,1.148,0,0,0,1.143-1.141A1.135,1.135,0,0,0,177.451,69.49Z" transform="translate(-151.174 -68.525)" fill="#fff"/>
          <path id="Path_2054" data-name="Path 2054" d="M84.362,96.727H79.311V92.556c0-3.007-1.23-4.786-4.895-4.786a21.165,21.165,0,0,0-4,.417v8.54H68.533c-4.588,0-5.9-1.69-5.9-5.027a9.082,9.082,0,0,1,.856-3.776l-2.172.352a9.806,9.806,0,0,0-.7,3.665c0,4.171,2.129,6.387,7.66,6.387h4.1V89.549a11.62,11.62,0,0,1,1.844-.176c2.218,0,3.118.965,3.118,3.446v5.509h9.048V88.013h-2.02v8.714Z" transform="translate(-60.61 -82.834)" fill="#fff"/>
          <path id="Path_2055" data-name="Path 2055" d="M237.106,71.774a1.219,1.219,0,0,0,1.208-1.208,1.2,1.2,0,0,0-2.394,0A1.214,1.214,0,0,0,237.106,71.774Z" transform="translate(-197.834 -68.439)" fill="#fff"/>
          <path id="Path_2056" data-name="Path 2056" d="M265.363,145.57a1.153,1.153,0,1,0,1.141,1.164A1.14,1.14,0,0,0,265.363,145.57Z" transform="translate(-219.986 -128.077)" fill="#fff"/>
          <path id="Path_2057" data-name="Path 2057" d="M280.011,145.57a1.153,1.153,0,1,0,1.143,1.164A1.153,1.153,0,0,0,280.011,145.57Z" transform="translate(-231.453 -128.077)" fill="#fff"/>
          <path id="Path_2058" data-name="Path 2058" d="M222.521,69.987a5.146,5.146,0,0,0-5.488,5.355c0,1.866.55,3.028,1.625,3.711a6.658,6.658,0,0,0-1.273-.109h-4.853V70.228h-2.018v8.714h-5.685V70.228H202.81v8.714h-5.666V65.07a22.992,22.992,0,0,0-3.754.154v1.186c.593.043,1.23.133,1.734.219V80.547h32.1V74.905C227.218,71.764,225.658,69.987,222.521,69.987Zm2.722,8.955h-2.173c-2.809,0-4-1.208-4-3.711,0-2.194,1.23-3.643,3.272-3.643,1.823,0,2.9,1.032,2.9,3.643v3.711Z" transform="translate(-164.544 -65.048)" fill="#fff"/>
          <path id="Path_2059" data-name="Path 2059" d="M398.35,71.781a1.141,1.141,0,1,0,0-2.281,1.132,1.132,0,0,0-1.141,1.141A1.118,1.118,0,0,0,398.35,71.781Z" transform="translate(-324.084 -68.533)" fill="#fff"/>
          <path id="Path_2060" data-name="Path 2060" d="M413,69.49a1.141,1.141,0,0,0,0,2.281,1.146,1.146,0,0,0,1.141-1.141A1.132,1.132,0,0,0,413,69.49Z" transform="translate(-335.551 -68.525)" fill="#fff"/>
          <path id="Path_2061" data-name="Path 2061" d="M370.29,82.534h-6.016V69.649a25.587,25.587,0,0,0-3.754.176v1.186c.593.043,1.23.133,1.734.219V84.138h10.054V73.821H370.29Z" transform="translate(-295.365 -68.641)" fill="#fff"/>
        </g>
      </g>
      <g id="Group_12334" data-name="Group 12334" transform="translate(0 28.162)">
        <g id="Group_12333" data-name="Group 12333" transform="translate(7.745)">
          <path id="Path_2062" data-name="Path 2062" d="M98.442,181.31h1.412v.978H97.328V174.1c-.148-.024-.319-.048-.515-.067l-.563-.056v-.656c.313-.041.667-.07,1.06-.087s.769-.017,1.134,0v8.077Z" transform="translate(-96.25 -171.63)" fill="#fff"/>
          <path id="Path_2063" data-name="Path 2063" d="M111.7,210.46h3.519v.978H111.7Z" transform="translate(-108.343 -200.779)" fill="#fff"/>
          <path id="Path_2064" data-name="Path 2064" d="M129.7,193.492a2.256,2.256,0,0,1-.88-.849,1.707,1.707,0,0,1-.613.849,1.974,1.974,0,0,1-1.208.328h-.235v-.978h.4a1.436,1.436,0,0,0,.458-.074.948.948,0,0,0,.4-.267,1.414,1.414,0,0,0,.278-.519,2.763,2.763,0,0,0,.1-.823,4.394,4.394,0,0,1,.2-1.419,2.733,2.733,0,0,1,.576-1,2.357,2.357,0,0,1,.886-.6,3.159,3.159,0,0,1,1.145-.2,2.767,2.767,0,0,1,.984.167,1.844,1.844,0,0,1,.749.521,2.431,2.431,0,0,1,.478.9,4.6,4.6,0,0,1,.167,1.319v1.981h1.288v.978h-3.543A3.385,3.385,0,0,1,129.7,193.492Zm2.774-.652v-2.212a2.418,2.418,0,0,0-.093-.682,1.772,1.772,0,0,0-.272-.565,1.293,1.293,0,0,0-.445-.38,1.325,1.325,0,0,0-.613-.137,1.411,1.411,0,0,0-.676.15,1.3,1.3,0,0,0-.458.411,1.791,1.791,0,0,0-.261.608,3.327,3.327,0,0,0-.08.758,2.17,2.17,0,0,0,.478,1.56,2,2,0,0,0,1.492.491h.928Z" transform="translate(-120.132 -183.16)" fill="#fff"/>
          <path id="Path_2065" data-name="Path 2065" d="M162.97,210.46h3.519v.978H162.97Z" transform="translate(-148.475 -200.779)" fill="#fff"/>
          <path id="Path_2066" data-name="Path 2066" d="M178.02,192.825h1.97a2.765,2.765,0,0,1-.519-.867,3.11,3.11,0,0,1-.2-1.141,3.261,3.261,0,0,1,.187-1.1,2.579,2.579,0,0,1,.558-.917,2.638,2.638,0,0,1,.941-.632,3.537,3.537,0,0,1,1.351-.235,5.362,5.362,0,0,1,.719.05,4.273,4.273,0,0,1,.669.146l-.124,1.043a4.211,4.211,0,0,0-.606-.18,3.244,3.244,0,0,0-.719-.08,1.721,1.721,0,0,0-1.382.515,2.173,2.173,0,0,0,.193,2.842,2.639,2.639,0,0,0,1.81.558h1.388v.978h-6.231v-.975Z" transform="translate(-160.256 -183.144)" fill="#fff"/>
          <path id="Path_2067" data-name="Path 2067" d="M211.584,166.55c-.074-.009-.146-.015-.211-.02s-.132-.007-.2-.007a.528.528,0,0,0-.341.1.353.353,0,0,0-.13.291.468.468,0,0,0,.148.335.7.7,0,0,0,.508.148h.519v.706h-2.44V167.4q.137,0,.4.007a1.425,1.425,0,0,1,.434.067.642.642,0,0,1-.228-.254.885.885,0,0,1-.067-.378.821.821,0,0,1,.335-.689,1.375,1.375,0,0,1,.854-.254q.124,0,.267.013c.1.009.2.02.3.037Zm.074,10.011h-1.115V170c-.148-.024-.319-.048-.515-.067l-.563-.057v-.656c.313-.041.667-.07,1.06-.087s.769-.017,1.134,0v7.432Z" transform="translate(-184.85 -165.9)" fill="#fff"/>
        </g>
        <path id="Path_2068" data-name="Path 2068" d="M66.627,173.77c-.176,0-.3,0-.48.011h-.015c-.385.017-.734.043-1.041.085v.645c.178.017.363.035.554.056s.356.041.5.067v9.939H65.078c-2.592,0-3.337-.956-3.337-2.842a5.118,5.118,0,0,1,.484-2.133L61,179.8a5.528,5.528,0,0,0-.4,2.07c0,2.357,1.2,3.611,4.33,3.611h2.262V173.77Z" transform="translate(-60.6 -172.06)" fill="#fff"/>
      </g>
    </g>
  </g>
</svg>
