<svg xmlns="http://www.w3.org/2000/svg" width="40" height="40" viewBox="0 0 40 40">
  <g id="UNEMPLOYMENT" transform="translate(-594 -941)">
    <g id="Group_562" data-name="Group 562" transform="translate(-10 -80)">
      <g id="Group_550" data-name="Group 550" transform="translate(145 225)">
        <circle id="Ellipse_132" data-name="Ellipse 132" cx="30" cy="30" r="60" transform="translate(459 796)" fill="rgba(255,162,0,0.1)"/>
      </g>
    </g>
    <path id="Path_1244" data-name="Path 1244" d="M11.25-3.937a.562.562,0,0,1-.562.563H7.313a.562.562,0,0,1-.562-.562V-5.625H0V-.562A1.73,1.73,0,0,0,1.688,1.125H16.313A1.73,1.73,0,0,0,18-.562V-5.625H11.25Zm5.063-7.312H13.5v-1.687a1.73,1.73,0,0,0-1.687-1.687H6.188A1.73,1.73,0,0,0,4.5-12.937v1.688H1.688A1.73,1.73,0,0,0,0-9.562V-6.75H18V-9.562A1.73,1.73,0,0,0,16.313-11.25Zm-5.062,0H6.75v-1.125h4.5Z" transform="translate(603.999 968)" fill="#ffa200"/>
    <circle id="Ellipse_239" data-name="Ellipse 239" cx="5.5" cy="5.5" r="5.5" transform="translate(614 960)" fill="#fff"/>
    <path id="Path_1213" data-name="Path 1213" d="M16253.938,14763.125l8,.188v-10.969l7.469,2-.594,8.094-5.969,5.969s-10.594.375-10.687,0A49.565,49.565,0,0,1,16253.938,14763.125Z" transform="translate(-15640 -13794)" fill="#fff6e5"/>
    <path id="Rectangle_1174" data-name="Rectangle 1174" d="M0,0H2A1,1,0,0,1,3,1V4A2,2,0,0,1,1,6H0A0,0,0,0,1,0,6V0A0,0,0,0,1,0,0Z" transform="translate(621 963)" fill="#fff"/>
    <g id="Group_551" data-name="Group 551" transform="matrix(0.174, 0.985, -0.985, 0.174, 623.848, 959.699)">
      <path id="Path_1245" data-name="Path 1245" d="M5-8.594A4.844,4.844,0,0,0,.156-3.75,4.844,4.844,0,0,0,5,1.094,4.844,4.844,0,0,0,9.844-3.75,4.844,4.844,0,0,0,5-8.594Zm2.541,2.3a3.594,3.594,0,0,1,.4,4.6L2.939-6.7A3.594,3.594,0,0,1,7.541-6.291ZM2.459-1.209a3.594,3.594,0,0,1-.4-4.6L7.061-.8A3.594,3.594,0,0,1,2.459-1.209Z" transform="translate(0 9)" fill="#ff4040"/>
    </g>
  </g>
</svg>
