<svg xmlns="http://www.w3.org/2000/svg" width="23.971" height="26.694" viewBox="0 0 23.971 26.694"><defs><style>.a{fill:#fff;}</style></defs><path class="a" d="M13666.008,1663.695a1.756,1.756,0,0,1-.509-.093l-.043-.021c-1.913-.926-11.456-6.316-11.456-21.547a1.207,1.207,0,0,1,1.108-1.2c6.584-.611,10.086-3.527,10.113-3.556a1.259,1.259,0,0,1,1.572,0,20.142,20.142,0,0,0,10.067,3.6,1.172,1.172,0,0,1,1.109,1.2,29.107,29.107,0,0,1-1.725,10.235,22.228,22.228,0,0,1-3.829,6.589,17.466,17.466,0,0,1-5.9,4.7l-.082.021-.029.007A1.5,1.5,0,0,1,13666.008,1663.695Zm-.254-11.259a1.667,1.667,0,1,0,1.668,1.668A1.669,1.669,0,0,0,13665.754,1652.435Zm.055-6.508c.784,0,1.658.491,1.658,1.195,0,.541-.449.82-1.182,1.229l-.073.041c-.851.48-1.907,1.076-1.907,2.52v.237a.577.577,0,0,0,.577.577h1.743a.579.579,0,0,0,.58-.577v-.137c0-.391.427-.637.966-.948a3.225,3.225,0,0,0,2.049-2.92c0-2.116-2.229-3.7-4.223-3.7a4.645,4.645,0,0,0-4.144,2.19.582.582,0,0,0,.124.793l1.04.786a.581.581,0,0,0,.351.118.569.569,0,0,0,.449-.218A2.344,2.344,0,0,1,13665.809,1645.927Z" transform="translate(-13654 -1637.001)"/></svg>