<svg xmlns="http://www.w3.org/2000/svg" width="20.391" height="13" viewBox="5.2 0 42.203 44.811">
<defs><style>.a{fill:#e7e7e7;}</style></defs>
<g transform="translate(-5.491 -2.5)">
<path class="a" d="M67.775,42.111A31.285,31.285,0,0,1,66.36,45.54a4.171,4.171,0,0,1-.343,3.429c-.171.3-.386.643-.6.986-.6.814-1.415,1.715-2.315,2.7-.043.086-.129.129-.171.214a.653.653,0,1,1-.986-.857c.086-.086.129-.171.214-.214A21.538,21.538,0,0,0,64.9,48.412c.857-1.715.3-2.872-.557-3.344a1.589,1.589,0,0,0-2.186.386,32.617,32.617,0,0,1-2.786,3.43A25.7,25.7,0,0,0,56.415,52.7a18.382,18.382,0,0,0-1.843,7.2c-.086,1.5-.129,3.215-.171,4.244a.951.951,0,0,0,.943.943h6.044a.951.951,0,0,0,.943-.943V62.43a1.414,1.414,0,0,1,.514-1.029,31.778,31.778,0,0,0,5.316-4.587c2.444-2.872,3.344-11.36,3.472-13.889A1.973,1.973,0,0,0,67.775,42.111Z" transform="translate(-27.942 -21.777)"/><path class="a" d="M20.671,52.513A28.12,28.12,0,0,0,17.713,48.7a31.609,31.609,0,0,1-2.786-3.43,1.616,1.616,0,0,0-2.186-.386c-.857.472-1.415,1.629-.557,3.344a18.23,18.23,0,0,0,2.744,3.387c.086.086.129.171.214.214a.657.657,0,0,1-.129.986.719.719,0,0,1-.857-.129c-.043-.086-.129-.129-.171-.214-.9-.986-1.715-1.886-2.315-2.7a4.056,4.056,0,0,1-.6-.986,4.162,4.162,0,0,1-.343-3.429A33.021,33.021,0,0,1,9.31,41.924,1.948,1.948,0,0,0,5.5,42.7c.129,2.529,1.029,11.017,3.472,13.889a30.129,30.129,0,0,0,5.316,4.587A1.17,1.17,0,0,1,14.8,62.2v1.715a.951.951,0,0,0,.943.943h6.044a.951.951,0,0,0,.943-.943c-.043-1.029-.086-2.744-.171-4.244A17.815,17.815,0,0,0,20.671,52.513Z" transform="translate(0 -21.677)"/><path class="a" d="M46.249,7.216A1.09,1.09,0,0,0,45.22,6.1a18.534,18.534,0,0,1-9.345-3.344,1.161,1.161,0,0,0-1.458,0,18.328,18.328,0,0,1-9.388,3.3A1.119,1.119,0,0,0,24,7.173c0,15.176,10.246,19.805,10.674,20.02a1.541,1.541,0,0,0,.472.086,1.823,1.823,0,0,0,.472-.086C36.046,27.021,46.249,22.391,46.249,7.216Zm-6.73,6-4.5,4.5a1.346,1.346,0,0,1-1.886,0l-2.444-2.444a1.346,1.346,0,0,1,0-1.886,1.346,1.346,0,0,1,1.886,0l1.543,1.543,3.6-3.6a1.346,1.346,0,0,1,1.886,0,1.33,1.33,0,0,1,.386.943A1.969,1.969,0,0,1,39.518,13.217Z" transform="translate(-10.574 0)" fill="#ccc"/>
</g>
</svg>
