<svg xmlns="http://www.w3.org/2000/svg" width="23.388" height="19" viewBox="0 0 23.388 19">
  <g id="Helper_Started" data-name="Helper Started" transform="translate(6976.522 -13839)">
    <path id="Path_1282" data-name="Path 1282" d="M274.211,54.752a1.631,1.631,0,1,1-1.631-1.631,1.631,1.631,0,0,1,1.631,1.631" transform="translate(-7239.153 13785.879)" fill="#0eac2e"/>
    <path id="Path_1283" data-name="Path 1283" d="M400.357,133.212a1.487,1.487,0,1,1-1.487-1.487,1.487,1.487,0,0,1,1.487,1.487" transform="translate(-7360.194 13710.628)" fill="#0eac2e"/>
    <path id="Path_1284" data-name="Path 1284" d="M410.367,218.575a.877.877,0,0,1,.134.463.8.8,0,0,1-.255.6.85.85,0,0,1-.609.242.81.81,0,0,1-.754-.421l-1.97-3.388h-4.162a1.489,1.489,0,0,1-1.03-.387,1.4,1.4,0,0,1-.477-.963l-.266-4.5a1.443,1.443,0,0,1,2.879-.177l.089,1.285h2.446a.586.586,0,0,1,.664.663.6.6,0,0,1-.664.687h-2.357l.021,1.107h3.077a.776.776,0,0,1,.709.421Z" transform="translate(-7363.635 13636.942)" fill="#0eac2e"/>
    <path id="Path_1285" data-name="Path 1285" d="M88.261,130.78H85.774v-3.261a1.548,1.548,0,0,0-.346-.954,1.713,1.713,0,0,0-1.109-.739,1.8,1.8,0,0,0-1.725.794l-1.9,3.549a4.3,4.3,0,0,0-.322.681,3.575,3.575,0,0,0-.225.759l-.693,3.992-2.9,1.217c-.98.427-.617,2.189.918,1.738l3.183-1.354a.923.923,0,0,0,.291-.2.466.466,0,0,0,.038-.034.951.951,0,0,0,.181-.284c0-.01.013-.018.018-.028l.669-2.116,1.837,1.969-.623,4.176c-.036,1.4,1.741,1.332,1.91.012l.606-4.075a1.96,1.96,0,0,0-.271-1.1l-.2-.35-1.841-2.531.992-1.85v.747a.756.756,0,0,0,.756.757h3.244a.756.756,0,1,0,0-1.512Z" transform="translate(-7052.531 13716.29)" fill="#0eac2e"/>
    <path id="Path_1286" data-name="Path 1286" d="M326.392,309.648a4.465,4.465,0,0,1-2.5-8.165.514.514,0,0,1,.576.853,3.436,3.436,0,1,0,5.264,3.652.514.514,0,1,1,1,.241,4.459,4.459,0,0,1-3.972,3.4c-.125.01-.249.016-.372.016Z" transform="translate(-7287.96 13548.198)" fill="#0eac2e"/>
  </g>
</svg>
