<svg xmlns="http://www.w3.org/2000/svg" width="21.866" height="17.764" viewBox="0 0 21.866 17.764">
  <g id="Helper_Stopped" data-name="Helper Stopped" transform="translate(6976.522 -13839)">
    <path id="Path_1282" data-name="Path 1282" d="M274,54.646a1.525,1.525,0,1,1-1.525-1.525A1.525,1.525,0,0,1,274,54.646" transform="translate(-7239.695 13785.879)" fill="#d65b5b"/>
    <path id="Path_1283" data-name="Path 1283" d="M400.164,133.115a1.39,1.39,0,1,1-1.39-1.39,1.39,1.39,0,0,1,1.39,1.39" transform="translate(-7361.086 13710.41)" fill="#d65b5b"/>
    <path id="Path_1284" data-name="Path 1284" d="M409.756,217.932a.82.82,0,0,1,.125.433.746.746,0,0,1-.239.56.8.8,0,0,1-.569.227.757.757,0,0,1-.7-.394l-1.842-3.168h-3.891a1.392,1.392,0,0,1-.963-.362,1.305,1.305,0,0,1-.446-.9l-.248-4.2a1.349,1.349,0,0,1,2.692-.166l.083,1.2h2.287a.548.548,0,0,1,.621.62.559.559,0,0,1-.621.643h-2.2l.019,1.035h2.877a.726.726,0,0,1,.663.394Z" transform="translate(-7364.538 13636.511)" fill="#d65b5b"/>
    <path id="Path_1285" data-name="Path 1285" d="M87.464,130.457H85.139v-3.049a1.448,1.448,0,0,0-.323-.892,1.6,1.6,0,0,0-1.037-.691,1.681,1.681,0,0,0-1.613.742l-1.777,3.318a4.016,4.016,0,0,0-.3.637,3.343,3.343,0,0,0-.211.71l-.648,3.732L76.518,136.1c-.916.4-.577,2.047.859,1.625l2.976-1.266a.863.863,0,0,0,.272-.188.432.432,0,0,0,.035-.031.889.889,0,0,0,.169-.265c0-.01.012-.017.016-.027l.625-1.978,1.717,1.841-.582,3.9c-.034,1.309,1.628,1.245,1.786.011l.567-3.81a1.832,1.832,0,0,0-.253-1.029l-.187-.327L82.8,132.195l.928-1.73v.7a.707.707,0,0,0,.707.707h3.033a.707.707,0,1,0,0-1.414Z" transform="translate(-7052.531 13716.089)" fill="#d65b5b"/>
    <path id="Path_1286" data-name="Path 1286" d="M326.1,309.111a4.174,4.174,0,0,1-2.333-7.634.481.481,0,0,1,.538.8,3.212,3.212,0,1,0,4.922,3.414.481.481,0,1,1,.935.226,4.169,4.169,0,0,1-3.713,3.182c-.117.01-.233.014-.348.014Z" transform="translate(-7288.643 13547.509)" fill="#d65b5b"/>
  </g>
</svg>
