<svg xmlns="http://www.w3.org/2000/svg" width="26.701" height="25.036" viewBox="0 0 26.701 25.036">
  <g id="imprisonment" transform="translate(-0.6 495.877)">
    <path id="Path_1989" data-name="Path 1989" d="M12.567-495.805a5.637,5.637,0,0,0-3.176,1.64,5.266,5.266,0,0,0-1.118,1.546,6.678,6.678,0,0,0-.6,3.2v.9H5.343l-.334,1.29c-.183.716-.35,1.369-.376,1.463-.037.131-.146.23-.58.517a9.1,9.1,0,0,0-2.116,2.105,8.274,8.274,0,0,0-1.222,2.92A6.056,6.056,0,0,0,.6-478.777a6.913,6.913,0,0,0,.266,2.168,8.08,8.08,0,0,0,2.157,3.594l.293.261.961-1.515,1.055-1.656c.089-.141.089-.146-.1-.4a4.275,4.275,0,0,1-.642-1.353,4.253,4.253,0,0,1,.026-2.142,3.829,3.829,0,0,1,1.05-1.729,2.833,2.833,0,0,1,1.019-.742,4.959,4.959,0,0,1,.925-.345,4.347,4.347,0,0,1,1.818.026l.528.131c.1.026.115-.005.172-.355A9.631,9.631,0,0,1,11.6-486.4l.376-.564-.089-.371c-.047-.2-.136-.554-.193-.778l-.11-.4H9.229l.026-1.113a5.574,5.574,0,0,1,.136-1.52,4.249,4.249,0,0,1,2.9-2.988,4.444,4.444,0,0,1,1.426-.167,9.9,9.9,0,0,1,1.379.042,4.284,4.284,0,0,1,3.348,2.674,2.49,2.49,0,0,1,.141.4,3.464,3.464,0,0,1-.977.068l-.977.016-.115.418c-.063.23-.24.893-.387,1.473l-.277,1.055-.4.23a8.014,8.014,0,0,0-3.777,5.25,10.508,10.508,0,0,0-.026,3.056,8.136,8.136,0,0,0,2.058,3.959c.366.381.465.46.517.4.089-.1,1.8-2.8,1.8-2.852a2.126,2.126,0,0,0-.214-.324,4.948,4.948,0,0,1-.731-1.541,5.24,5.24,0,0,1-.005-2.225,4.925,4.925,0,0,1,1.577-2.408,4.3,4.3,0,0,1,2.795-.945,3.954,3.954,0,0,1,1.959.46,4.452,4.452,0,0,1,1.207,7.13,4.428,4.428,0,0,1-2.956,1.342,4.593,4.593,0,0,1-2.126-.407,1.262,1.262,0,0,0-.219-.1c-.037,0-1.807,2.805-1.807,2.862a6.5,6.5,0,0,0,1.515.679,6.375,6.375,0,0,0,2.4.345,6.782,6.782,0,0,0,2.455-.366,7.929,7.929,0,0,0,5.213-5.688,7.893,7.893,0,0,0-3.63-8.577c-.266-.157-.486-.293-.486-.3s-.172-.663-.387-1.468L22.21-491.1l-1-.016-1-.01-.031-.146a5.847,5.847,0,0,0-4.9-4.55A15.129,15.129,0,0,0,12.567-495.805Zm7.59,7.522v.763l-.742-.016-.747-.016-.016-.747-.016-.742h1.52ZM9.229-485.818l.016.747H7.725v-1.52l.747.016.742.016Z" fill="#fff"/>
    <path id="Path_1990" data-name="Path 1990" d="M83.617-114.938a4.372,4.372,0,0,1-1.243.825,4.1,4.1,0,0,1-3.087.031,3.928,3.928,0,0,1-1.6-1.15,17.468,17.468,0,0,0-1.109,1.563l-.937,1.8h0a8.887,8.887,0,0,0,3.684,1.8,9.706,9.706,0,0,0,2.622.047,8.108,8.108,0,0,0,3.1-1.175,11.72,11.72,0,0,0,1.353-1.081c.052-.068-.005-.131-.376-.407a10.257,10.257,0,0,1-2.168-2.293l-.078-.12Z" transform="translate(-72.314 -360.887)" fill="#fff"/>
  </g>
</svg>
