<svg xmlns="http://www.w3.org/2000/svg" width="123.705" height="98" viewBox="0 0 123.705 98">
  <g id="Group_1529" data-name="Group 1529" transform="translate(-1108 -279)">
    <g id="Group_812" data-name="Group 812" transform="translate(338 -83)">
      <g id="Group_260" data-name="Group 260" transform="translate(770 362)">
        <g id="Group_252" data-name="Group 252" transform="translate(3.324 16.625)">
          <rect id="Rectangle_890" data-name="Rectangle 890" width="62.34" height="11.823" rx="5.912" transform="translate(30.095 0)" fill="#f6f6f6"/>
          <rect id="Rectangle_899" data-name="Rectangle 899" width="50.392" height="11.823" rx="5.912" transform="translate(19.766 69.552)" fill="#f6f6f6"/>
          <rect id="Rectangle_900" data-name="Rectangle 900" width="12.266" height="11.823" rx="5.912" transform="translate(7.51 1.373)" fill="#f6f6f6"/>
          <rect id="Rectangle_891" data-name="Rectangle 891" width="117.157" height="11.823" rx="5.912" transform="translate(3.224 25.032)" fill="#f6f6f6"/>
          <rect id="Rectangle_895" data-name="Rectangle 895" width="117.157" height="11.823" rx="5.912" transform="translate(0 50.064)" fill="#f6f6f6"/>
          <path id="Subtraction_18" data-name="Subtraction 18" d="M20.684,13.209H.418c-.134,0-.275,0-.418-.013A6.613,6.613,0,0,0,6.187,6.6,6.613,6.613,0,0,0,0,.013C.163,0,.3,0,.418,0H20.529l.155,0a6.641,6.641,0,0,0-6.449,6.6,6.642,6.642,0,0,0,6.449,6.6Z" transform="translate(61.003 11.823)" fill="#f6f6f6"/>
          <path id="Subtraction_20" data-name="Subtraction 20" d="M26.494,13.217H.751a6.629,6.629,0,0,0,6.556-6.61A6.616,6.616,0,0,0,.7,0h25.8a6.589,6.589,0,0,1,1.978.3H26.613a6.408,6.408,0,1,0,0,12.815h1.03A6.646,6.646,0,0,1,26.494,13.217Z" transform="translate(23.623 36.855)" fill="#f6f6f6"/>
        </g>
        <g id="Path_818" data-name="Path 818" transform="translate(106.154 11.083)" fill="#fff">
          <path d="M 7.388237476348877 12.27647590637207 C 4.692857265472412 12.27647590637207 2.49999737739563 10.08361625671387 2.49999737739563 7.388236045837402 C 2.49999737739563 4.692855834960938 4.692857265472412 2.499995946884155 7.388237476348877 2.499995946884155 C 10.08361721038818 2.499995946884155 12.2764778137207 4.692855834960938 12.2764778137207 7.388236045837402 C 12.2764778137207 10.08361625671387 10.08361721038818 12.27647590637207 7.388237476348877 12.27647590637207 Z" stroke="none"/>
          <path d="M 7.388237476348877 4.999996185302734 C 6.071357727050781 4.999996185302734 4.999997138977051 6.071355819702148 4.999997138977051 7.388236045837402 C 4.999997138977051 8.705116271972656 6.071357727050781 9.77647590637207 7.388237476348877 9.77647590637207 C 8.705118179321289 9.77647590637207 9.776477813720703 8.705116271972656 9.776477813720703 7.388236045837402 C 9.776477813720703 6.071355819702148 8.705118179321289 4.999996185302734 7.388237476348877 4.999996185302734 M 7.388237476348877 -3.814697265625e-06 C 11.46864700317383 -3.814697265625e-06 14.7764778137207 3.307826042175293 14.7764778137207 7.388236045837402 C 14.7764778137207 11.46864604949951 11.46864700317383 14.77647590637207 7.388237476348877 14.77647590637207 C 3.307827949523926 14.77647590637207 -2.86102294921875e-06 11.46864604949951 -2.86102294921875e-06 7.388236045837402 C -2.86102294921875e-06 3.307826042175293 3.307827949523926 -3.814697265625e-06 7.388237476348877 -3.814697265625e-06 Z" stroke="none" fill="#ccc"/>
        </g>
        <g id="Path_819" data-name="Path 819" transform="translate(13.119 88.777) rotate(166)" fill="#fff">
          <path d="M 5.41126537322998 8.322524070739746 C 3.805985450744629 8.322524070739746 2.499995470046997 7.016534328460693 2.499995470046997 5.411264419555664 C 2.499995470046997 3.805994510650635 3.805985450744629 2.500004529953003 5.41126537322998 2.500004529953003 C 7.01653528213501 2.500004529953003 8.322525024414063 3.805994510650635 8.322525024414063 5.411264419555664 C 8.322525024414063 6.188894271850586 8.019705772399902 6.919974327087402 7.469845294952393 7.469834327697754 C 6.919975280761719 8.019704818725586 6.188895225524902 8.322524070739746 5.41126537322998 8.322524070739746 Z" stroke="none"/>
          <path d="M 5.41126537322998 5.000004291534424 C 5.18448543548584 5.000004291534424 4.999995231628418 5.184494495391846 4.999995231628418 5.411264419555664 C 4.999995231628418 5.638034343719482 5.18448543548584 5.822524547576904 5.41126537322998 5.822524547576904 C 5.453395366668701 5.822524547576904 5.581625461578369 5.822524547576904 5.702075481414795 5.702064514160156 C 5.822525501251221 5.581624507904053 5.822525501251221 5.453414440155029 5.822525501251221 5.411264419555664 C 5.822525501251221 5.184494495391846 5.638035297393799 5.000004291534424 5.41126537322998 5.000004291534424 M 5.41126537322998 4.76837158203125e-06 C 8.399825096130371 4.76837158203125e-06 10.82252502441406 2.422704696655273 10.82252502441406 5.411264419555664 C 10.82253551483154 8.399824142456055 8.399825096130371 10.82252407073975 5.41126537322998 10.82252407073975 C 2.42270565032959 10.82252407073975 -4.76837158203125e-06 8.399824142456055 -4.76837158203125e-06 5.411264419555664 C -4.76837158203125e-06 2.422704696655273 2.42270565032959 4.76837158203125e-06 5.41126537322998 4.76837158203125e-06 Z" stroke="none" fill="#ccc"/>
        </g>
        <path id="Path_820" data-name="Path 820" d="M2.524,0A2.524,2.524,0,1,1,0,2.524,2.524,2.524,0,0,1,2.524,0Z" transform="translate(84.847 4.898) rotate(166)" fill="#ccc"/>
        <path id="Path_821" data-name="Path 821" d="M2.524,0A2.524,2.524,0,1,1,0,2.524,2.524,2.524,0,0,1,2.524,0Z" transform="translate(118.371 84.56) rotate(166)" fill="#ccc"/>
      </g>
    </g>
    <g id="Benefits" transform="translate(1145.508 312.097)">
      <path id="Path_1270" data-name="Path 1270" d="M67.775,42.111A31.285,31.285,0,0,1,66.36,45.54a4.171,4.171,0,0,1-.343,3.429c-.171.3-.386.643-.6.986-.6.814-1.415,1.715-2.315,2.7-.043.086-.129.129-.171.214a.653.653,0,1,1-.986-.857c.086-.086.129-.171.214-.214A21.538,21.538,0,0,0,64.9,48.412c.857-1.715.3-2.872-.557-3.344a1.589,1.589,0,0,0-2.186.386,32.617,32.617,0,0,1-2.786,3.43A25.7,25.7,0,0,0,56.415,52.7a18.382,18.382,0,0,0-1.843,7.2c-.086,1.5-.129,3.215-.171,4.244a.951.951,0,0,0,.943.943h6.044a.951.951,0,0,0,.943-.943V62.43a1.414,1.414,0,0,1,.514-1.029,31.778,31.778,0,0,0,5.316-4.587c2.444-2.872,3.344-11.36,3.472-13.889A1.973,1.973,0,0,0,67.775,42.111Z" transform="translate(-27.942 -21.777)" fill="#999"/>
      <path id="Path_1271" data-name="Path 1271" d="M20.671,52.513A28.12,28.12,0,0,0,17.713,48.7a31.609,31.609,0,0,1-2.786-3.43,1.616,1.616,0,0,0-2.186-.386c-.857.472-1.415,1.629-.557,3.344a18.23,18.23,0,0,0,2.744,3.387c.086.086.129.171.214.214a.657.657,0,0,1-.129.986.719.719,0,0,1-.857-.129c-.043-.086-.129-.129-.171-.214-.9-.986-1.715-1.886-2.315-2.7a4.056,4.056,0,0,1-.6-.986,4.162,4.162,0,0,1-.343-3.429A33.021,33.021,0,0,1,9.31,41.924,1.948,1.948,0,0,0,5.5,42.7c.129,2.529,1.029,11.017,3.472,13.889a30.129,30.129,0,0,0,5.316,4.587A1.17,1.17,0,0,1,14.8,62.2v1.715a.951.951,0,0,0,.943.943h6.044a.951.951,0,0,0,.943-.943c-.043-1.029-.086-2.744-.171-4.244A17.815,17.815,0,0,0,20.671,52.513Z" transform="translate(0 -21.677)" fill="#999"/>
      <path id="Path_1272" data-name="Path 1272" d="M46.249,7.216A1.09,1.09,0,0,0,45.22,6.1a18.534,18.534,0,0,1-9.345-3.344,1.161,1.161,0,0,0-1.458,0,18.328,18.328,0,0,1-9.388,3.3A1.119,1.119,0,0,0,24,7.173c0,15.176,10.246,19.805,10.674,20.02a1.541,1.541,0,0,0,.472.086,1.823,1.823,0,0,0,.472-.086C36.046,27.021,46.249,22.391,46.249,7.216Zm-6.73,6-4.5,4.5a1.346,1.346,0,0,1-1.886,0l-2.444-2.444a1.346,1.346,0,0,1,0-1.886,1.346,1.346,0,0,1,1.886,0l1.543,1.543,3.6-3.6a1.346,1.346,0,0,1,1.886,0,1.33,1.33,0,0,1,.386.943A1.969,1.969,0,0,1,39.518,13.217Z" transform="translate(-10.574 0)" fill="#999"/>
    </g>
  </g>
</svg>
