<svg xmlns="http://www.w3.org/2000/svg" width="33.5" height="30.456" viewBox="0 0 33.5 30.456">
  <g id="Group_12394" data-name="Group 12394" transform="translate(-533.879 -225.998)">
    <path id="Union_1" data-name="Union 1" d="M-346.689-231.546a.621.621,0,0,1-.616-.616c.028-.672.056-1.793.112-2.773a12.018,12.018,0,0,1,1.2-4.7,16.835,16.835,0,0,1,1.932-2.492,21.153,21.153,0,0,0,1.82-2.24,1.038,1.038,0,0,1,1.428-.252c.561.308.924,1.064.365,2.184a14.017,14.017,0,0,1-1.793,2.212c-.056.028-.084.084-.14.14a.428.428,0,0,0,.084.643.434.434,0,0,0,.561-.084c.028-.056.084-.085.112-.14.588-.643,1.121-1.232,1.513-1.764.139-.224.279-.448.391-.644a2.723,2.723,0,0,0,.224-2.24,20.377,20.377,0,0,0,.923-2.24,1.5,1.5,0,0,1,.3-.556,7.8,7.8,0,0,1-3.631-3.154,12.415,12.415,0,0,1-6.333,8.19,1.152,1.152,0,0,1-.308.057.977.977,0,0,1-.308-.057c-.281-.14-6.973-3.164-6.973-13.077a.731.731,0,0,1,.673-.728,11.957,11.957,0,0,0,6.132-2.156.761.761,0,0,1,.952,0,11.7,11.7,0,0,0,5.25,2.073A7.769,7.769,0,0,1-335.248-262a7.759,7.759,0,0,1,7.748,7.754,7.757,7.757,0,0,1-7.748,7.748,7.8,7.8,0,0,1-.849-.046,1.734,1.734,0,0,1,.05.523c-.085,1.652-.672,7.2-2.268,9.073a20.772,20.772,0,0,1-3.473,3,.927.927,0,0,0-.336.672v1.12a.621.621,0,0,1-.617.616Zm-4.76-19.545a.88.88,0,0,0,0,1.232l1.6,1.6a.878.878,0,0,0,1.232,0l2.94-2.94a1.278,1.278,0,0,0,.309-.616.873.873,0,0,0-.252-.617.878.878,0,0,0-1.231,0l-2.353,2.353-1.009-1.008a.869.869,0,0,0-.616-.252A.868.868,0,0,0-351.449-251.091Zm14.178-1.28-.6.609a.178.178,0,0,0-.054.139.181.181,0,0,0,.059.127,3.794,3.794,0,0,0,2.552.978,3.8,3.8,0,0,0,3.8-3.8,3.806,3.806,0,0,0-3.8-3.807h-.008a3.785,3.785,0,0,0-2.621,1.053l-.547-.546a.356.356,0,0,0-.257-.108.371.371,0,0,0-.372.369v2.055a.367.367,0,0,0,.372.372h2.055a.365.365,0,0,0,.339-.227.365.365,0,0,0-.082-.406l-.638-.641a2.542,2.542,0,0,1,1.738-.694l.027,0a2.562,2.562,0,0,1,1.829.768,2.55,2.55,0,0,1,.743,1.832,2.581,2.581,0,0,1-2.576,2.556,2.563,2.563,0,0,1-1.7-.636.2.2,0,0,0-.125-.045A.187.187,0,0,0-337.271-252.371Zm-17.034,20.741a.621.621,0,0,1-.616-.617v-1.12a.766.766,0,0,0-.337-.672,19.723,19.723,0,0,1-3.472-3c-1.6-1.876-2.184-7.421-2.268-9.073a1.273,1.273,0,0,1,2.492-.5,21.536,21.536,0,0,0,.924,2.24,2.717,2.717,0,0,0,.224,2.24,2.664,2.664,0,0,0,.392.644c.392.532.923,1.12,1.512,1.764.028.056.084.084.112.14a.47.47,0,0,0,.56.084.43.43,0,0,0,.085-.644c-.056-.028-.085-.084-.139-.14a11.945,11.945,0,0,1-1.793-2.212c-.56-1.12-.2-1.877.364-2.184a1.057,1.057,0,0,1,1.429.252,20.5,20.5,0,0,0,1.82,2.24,18.333,18.333,0,0,1,1.931,2.492,11.614,11.614,0,0,1,1.232,4.676c.057.98.085,2.1.112,2.772a.622.622,0,0,1-.617.617Z" transform="translate(894.88 488)" fill="#fff"/>
  </g>
</svg>
