<svg xmlns="http://www.w3.org/2000/svg" width="21.79" height="18.117" viewBox="0 0 21.79 18.117">
  <g id="Group_11403" data-name="Group 11403" transform="translate(-492.002 -926.374)">
    <path id="Subtraction_22" data-name="Subtraction 22" d="M13932.364-14300.25h-10.678a1.731,1.731,0,0,1-1.685-1.688V-14307h6.747v1.688a.565.565,0,0,0,.564.564h3.373a.565.565,0,0,0,.414-.182,5.556,5.556,0,0,0-.1,1.055,5.492,5.492,0,0,0,1.364,3.623Zm-1.111-5.28h0V-14307h.724A5.466,5.466,0,0,0,13931.253-14305.53Zm1.757-2.6H13920v-2.812a1.729,1.729,0,0,1,1.685-1.686h2.813v-1.688a1.733,1.733,0,0,1,1.688-1.688h5.623a1.733,1.733,0,0,1,1.688,1.688v1.688h2.813a1.732,1.732,0,0,1,1.688,1.686v1.771a5.5,5.5,0,0,0-1.5-.208,5.514,5.514,0,0,0-3.489,1.25Zm-6.261-5.622v1.124h4.5v-1.124Z" transform="translate(-13428 15242.375)" fill="#7f7f7f"/>
    <g id="Group_606" data-name="Group 606" transform="translate(503.792 933.491)">
      <text id="_" data-name="" transform="translate(0 9)" fill="#7f7f7f" font-size="10" font-family="FontAwesome5Free-Solid, 'Font Awesome \35  Free'"><tspan x="0" y="0"></tspan></text>
    </g>
  </g>
</svg>
