<svg xmlns="http://www.w3.org/2000/svg" width="33.62" height="30.454" viewBox="0 0 33.62 30.454">
  <g id="Group_11321" data-name="Group 11321" transform="translate(-533.88 -226)">
    <path id="Union_2" data-name="Union 2" d="M-404.689-231.546a.621.621,0,0,1-.616-.616c.028-.672.056-1.793.112-2.773a12.017,12.017,0,0,1,1.2-4.7,16.835,16.835,0,0,1,1.932-2.492,21.153,21.153,0,0,0,1.82-2.24,1.038,1.038,0,0,1,1.428-.252c.561.308.924,1.064.365,2.184a14.017,14.017,0,0,1-1.793,2.212c-.056.028-.084.084-.14.14a.428.428,0,0,0,.084.643.434.434,0,0,0,.561-.084c.028-.056.084-.085.112-.14.588-.643,1.121-1.232,1.512-1.764.14-.224.28-.448.392-.644a2.723,2.723,0,0,0,.224-2.24,20.377,20.377,0,0,0,.923-2.24,1.482,1.482,0,0,1,.337-.593,7.8,7.8,0,0,1-3.628-3.259c-1.623,6.192-6.141,8.24-6.37,8.332a1.158,1.158,0,0,1-.308.057.977.977,0,0,1-.308-.057c-.281-.14-6.973-3.164-6.973-13.077a.731.731,0,0,1,.672-.728,11.958,11.958,0,0,0,6.133-2.156.761.761,0,0,1,.952,0,11.757,11.757,0,0,0,5.366,2.091A7.765,7.765,0,0,1-393.13-262a7.758,7.758,0,0,1,7.75,7.75,7.758,7.758,0,0,1-7.75,7.75,7.8,7.8,0,0,1-.971-.061,1.727,1.727,0,0,1,.054.538c-.085,1.652-.672,7.2-2.269,9.073a20.723,20.723,0,0,1-3.472,3,.927.927,0,0,0-.336.672v1.12a.621.621,0,0,1-.616.616Zm-4.76-19.545a.88.88,0,0,0,0,1.232l1.6,1.6a.878.878,0,0,0,1.232,0l2.94-2.94a1.286,1.286,0,0,0,.309-.616.873.873,0,0,0-.252-.617.88.88,0,0,0-1.232,0l-2.353,2.353-1.008-1.008a.869.869,0,0,0-.616-.252A.868.868,0,0,0-409.449-251.091Zm17.568.091h2v-6h-2Zm-4,0h2v-6h-2Zm-16.425,19.371a.621.621,0,0,1-.616-.617v-1.12a.766.766,0,0,0-.337-.672,19.723,19.723,0,0,1-3.472-3c-1.6-1.876-2.184-7.421-2.268-9.073a1.273,1.273,0,0,1,2.492-.5,21.536,21.536,0,0,0,.924,2.24,2.717,2.717,0,0,0,.224,2.24,2.635,2.635,0,0,0,.392.644c.392.532.923,1.12,1.512,1.764.028.056.084.084.112.14a.47.47,0,0,0,.56.084.43.43,0,0,0,.085-.644c-.056-.028-.085-.084-.14-.14a11.934,11.934,0,0,1-1.792-2.212c-.56-1.12-.2-1.877.364-2.184a1.056,1.056,0,0,1,1.428.252,20.626,20.626,0,0,0,1.821,2.24,18.333,18.333,0,0,1,1.931,2.492,11.614,11.614,0,0,1,1.232,4.676c.057.98.085,2.1.112,2.772a.622.622,0,0,1-.617.617Z" transform="translate(952.88 488)" fill="#F5F5F5"/>
  </g>
</svg>
