<svg xmlns="http://www.w3.org/2000/svg" width="178.582" height="141.79" viewBox="0 0 178.582 141.79">
  <g id="Success" transform="translate(-551 -298)">
    <g id="Group_638" data-name="Group 638" transform="translate(15.799 0.298)">
      <g id="Group_251" data-name="Group 251" transform="translate(540 324)" opacity="0.05">
        <rect id="Rectangle_890" data-name="Rectangle 890" width="89.995" height="17.068" rx="8.534" transform="translate(43.446 -1.982)" fill="#1baf5d"/>
        <rect id="Rectangle_899" data-name="Rectangle 899" width="72.746" height="17.068" rx="8.534" transform="translate(28.534 98.423)" fill="#1baf5d"/>
        <rect id="Rectangle_900" data-name="Rectangle 900" width="17.707" height="17.068" rx="8.534" transform="translate(10.841)" fill="#1baf5d"/>
        <rect id="Rectangle_891" data-name="Rectangle 891" width="169.128" height="17.068" rx="8.534" transform="translate(4.655 34.154)" fill="#1baf5d"/>
        <rect id="Rectangle_895" data-name="Rectangle 895" width="169.128" height="17.068" rx="8.534" transform="translate(0 70.29)" fill="#1baf5d"/>
        <path id="Subtraction_18" data-name="Subtraction 18" d="M33.136,19.068H4.1c-.2,0-.4-.006-.6-.019A9.534,9.534,0,0,0,3.5.019C3.71.006,3.913,0,4.1,0H33.136l.224,0a9.587,9.587,0,0,0-9.309,9.531,9.588,9.588,0,0,0,9.309,9.532l-.029,0h-.194Z" transform="translate(84.564 15.086)" fill="#1baf5d"/>
        <path id="Subtraction_20" data-name="Subtraction 20" d="M33.634,19.227H-4.386l-.228,0H-3.6A9.55,9.55,0,0,0,5.935,9.685,9.55,9.55,0,0,0-3.6.146H33.634A9.511,9.511,0,0,1,36.49.582H33.8a9.25,9.25,0,1,0,0,18.5H35.29A9.594,9.594,0,0,1,33.634,19.227Z" transform="translate(38.715 51.076)" fill="#1baf5d"/>
      </g>
      <g id="Path_785" data-name="Path 785" transform="translate(688.445 314.465)" fill="#fff">
        <path d="M10.666,0A10.666,10.666,0,1,1,0,10.666,10.666,10.666,0,0,1,10.666,0Z" stroke="none"/>
        <path d="M 10.66568088531494 4.999998092651367 C 7.541610717773438 4.999998092651367 5 7.541608810424805 5 10.66567897796631 C 5 13.78974914550781 7.541610717773438 16.33135986328125 10.66568088531494 16.33135986328125 C 13.78975105285645 16.33135986328125 16.33135986328125 13.78974914550781 16.33135986328125 10.66567897796631 C 16.33135986328125 7.541608810424805 13.78975105285645 4.999998092651367 10.66568088531494 4.999998092651367 M 10.66568088531494 -1.9073486328125e-06 C 16.55617141723633 -1.9073486328125e-06 21.33136177062988 4.775188446044922 21.33136177062988 10.66567897796631 C 21.33136177062988 16.5561695098877 16.55617141723633 21.33135986328125 10.66568088531494 21.33135986328125 C 4.775190353393555 21.33135986328125 0 16.5561695098877 0 10.66567897796631 C 0 4.775188446044922 4.775190353393555 -1.9073486328125e-06 10.66568088531494 -1.9073486328125e-06 Z" stroke="none" fill="rgba(27,175,93,0.3)"/>
      </g>
      <g id="Path_788" data-name="Path 788" transform="translate(554.141 425.676) rotate(166)" fill="#fff">
        <path d="M7.812,0A7.812,7.812,0,1,1,0,7.812,7.812,7.812,0,0,1,7.812,0Z" stroke="none"/>
        <path d="M 7.811717987060547 4.999996185302734 C 6.261327743530273 4.999996185302734 4.999998092651367 6.261326789855957 4.999998092651367 7.811716556549072 C 4.999998092651367 9.362106323242188 6.261327743530273 10.62343597412109 7.811717987060547 10.62343597412109 C 9.36210823059082 10.62343597412109 10.62343788146973 9.362106323242188 10.62343788146973 7.811716556549072 C 10.62343788146973 6.261326789855957 9.36210823059082 4.999996185302734 7.811717987060547 4.999996185302734 M 7.811717987060547 -3.814697265625e-06 C 12.12600803375244 -3.814697265625e-06 15.62343788146973 3.497426986694336 15.62343788146973 7.811716556549072 C 15.62343788146973 12.12600708007812 12.12600803375244 15.62343692779541 7.811717987060547 15.62343692779541 C 3.497427940368652 15.62343692779541 -1.9073486328125e-06 12.12600708007812 -1.9073486328125e-06 7.811716556549072 C -1.9073486328125e-06 3.497426986694336 3.497427940368652 -3.814697265625e-06 7.811717987060547 -3.814697265625e-06 Z" stroke="none" fill="rgba(27,175,93,0.3)"/>
      </g>
      <path id="Path_796" data-name="Path 796" d="M3.644,0A3.644,3.644,0,1,1,0,3.644,3.644,3.644,0,0,1,3.644,0Z" transform="translate(657.687 304.772) rotate(166)" fill="rgba(27,175,93,0.3)"/>
      <path id="Path_797" data-name="Path 797" d="M3.644,0A3.644,3.644,0,1,1,0,3.644,3.644,3.644,0,0,1,3.644,0Z" transform="translate(706.083 419.871) rotate(166)" fill="rgba(27,175,93,0.3)"/>
    </g>
    <g id="Ellipse_132" data-name="Ellipse 132" transform="translate(605 334)" fill="#fff" stroke="#1baf5d" stroke-width="2">
      <circle cx="35" cy="35" r="35" stroke="none"/>
      <circle cx="35" cy="35" r="34" fill="none"/>
    </g>
    <g id="Group_243" data-name="Group 243" transform="translate(625 359)">
      <line id="Line_27" data-name="Line 27" x2="10.612" y2="10.612" transform="translate(0 9.286)" fill="none" stroke="#1baf5d" stroke-linecap="round" stroke-width="4"/>
      <line id="Line_28" data-name="Line 28" y1="19.898" x2="19.898" transform="translate(10.612)" fill="none" stroke="#1baf5d" stroke-linecap="round" stroke-width="4"/>
    </g>
  </g>
</svg>
