<svg xmlns="http://www.w3.org/2000/svg" width="33.997" height="34.003" viewBox="0 0 33.997 34.003"><defs><style>.a{fill:#999;}</style></defs><path class="a" d="M33.535-.352,26.914-6.973a1.593,1.593,0,0,0-1.129-.465H24.7a13.745,13.745,0,0,0,2.922-8.5A13.81,13.81,0,0,0,13.813-29.75,13.81,13.81,0,0,0,0-15.937,13.81,13.81,0,0,0,13.813-2.125a13.745,13.745,0,0,0,8.5-2.922v1.082a1.593,1.593,0,0,0,.465,1.129L29.4,3.785a1.587,1.587,0,0,0,2.251,0l1.879-1.879A1.6,1.6,0,0,0,33.535-.352ZM13.813-7.437a8.5,8.5,0,0,1-8.5-8.5,8.5,8.5,0,0,1,8.5-8.5,8.5,8.5,0,0,1,8.5,8.5A8.5,8.5,0,0,1,13.813-7.437Z" transform="translate(0 29.75)"/></svg>