<svg xmlns="http://www.w3.org/2000/svg" width="27" height="20.148" viewBox="0 0 27 20.148">
  <g id="Cancellation_Details" data-name="Cancellation Details" transform="translate(-122 -1300.375)">
    <g id="Group_1608" data-name="Group 1608">
      <path id="Path_1311" data-name="Path 1311" d="M13.277-2.012a.664.664,0,0,1-.664.664H8.63a.664.664,0,0,1-.664-.664V-4H0V1.971A2.042,2.042,0,0,0,1.992,3.963h17.26a2.042,2.042,0,0,0,1.992-1.992V-4H13.277Zm5.975-8.63H15.932v-1.992a2.042,2.042,0,0,0-1.992-1.992H7.3a2.042,2.042,0,0,0-1.992,1.992v1.992H1.992A2.042,2.042,0,0,0,0-8.65v3.319H21.243V-8.65A2.042,2.042,0,0,0,19.252-10.642Zm-5.975,0H7.966V-11.97h5.311Z" transform="translate(122 1315)" fill="#fff"/>
      <path id="Path_1313" data-name="Path 1313" d="M6.5,0A6.5,6.5,0,1,1,0,6.5,6.5,6.5,0,0,1,6.5,0Z" transform="translate(136 1307.523)" fill="#1baf5d"/>
      <path id="Path_1312" data-name="Path 1312" d="M5.739-6.875A5.613,5.613,0,0,0,.125-1.261,5.613,5.613,0,0,0,5.739,4.352a5.613,5.613,0,0,0,5.614-5.614A5.613,5.613,0,0,0,5.739-6.875ZM8.491.212a.272.272,0,0,1,0,.385l-.9.894a.272.272,0,0,1-.385,0L5.739.006,4.265,1.491a.272.272,0,0,1-.385,0l-.894-.9a.272.272,0,0,1,0-.385L4.471-1.261,2.986-2.735a.272.272,0,0,1,0-.385l.9-.9a.272.272,0,0,1,.385,0L5.739-2.529,7.212-4.014a.272.272,0,0,1,.385,0l.9.9a.272.272,0,0,1,0,.385L7.006-1.261Z" transform="translate(136.665 1315.381)" fill="#fff"/>
    </g>
  </g>
</svg>
