<svg xmlns="http://www.w3.org/2000/svg" width="24.812" height="28.815" viewBox="0 0 24.812 28.815"><defs><style>.a{fill:#fff;}</style></defs><path class="a" d="M396.5,8095.814H379v-.782a.468.468,0,0,1,.469-.467h.78v-17.812a.94.94,0,0,1,.937-.941H390.8a8.071,8.071,0,0,0,4.446,4.015v14.739h.784a.468.468,0,0,1,.467.467v.782Zm-10-4.533v3.283H389v-3.283a.47.47,0,0,0-.469-.47h-1.56A.471.471,0,0,0,386.5,8091.281Zm2.5-5v1.563a.469.469,0,0,0,.469.467h1.562a.469.469,0,0,0,.469-.467v-1.562a.471.471,0,0,0-.469-.469h-1.562A.471.471,0,0,0,389,8086.281Zm-5,0v1.563a.468.468,0,0,0,.469.467h1.56a.469.469,0,0,0,.469-.467v-1.562a.471.471,0,0,0-.469-.469h-1.56A.47.47,0,0,0,384,8086.281Zm5-3.749v1.563a.469.469,0,0,0,.469.467h1.562a.469.469,0,0,0,.469-.467v-1.562a.469.469,0,0,0-.469-.469h-1.562A.469.469,0,0,0,389,8082.532Zm-5,0v1.563a.468.468,0,0,0,.469.467h1.56a.469.469,0,0,0,.469-.467v-1.562a.469.469,0,0,0-.469-.469h-1.56A.468.468,0,0,0,384,8082.532Zm5-3.751v1.563a.469.469,0,0,0,.469.467h1.562a.469.469,0,0,0,.469-.467v-1.562a.471.471,0,0,0-.469-.469h-1.562A.471.471,0,0,0,389,8078.781Zm-5,0v1.563a.468.468,0,0,0,.469.467h1.56a.469.469,0,0,0,.469-.467v-1.562a.471.471,0,0,0-.469-.469h-1.56A.47.47,0,0,0,384,8078.781Zm8.186-5.969a5.813,5.813,0,1,1,5.813,5.813A5.813,5.813,0,0,1,392.187,8072.812Zm7.337,2.851a.282.282,0,0,0,.4,0l.929-.926a.282.282,0,0,0,0-.4l-1.538-1.526,1.54-1.524a.282.282,0,0,0,0-.4l-.929-.929a.283.283,0,0,0-.4,0L398,8071.5l-1.524-1.54a.282.282,0,0,0-.4,0l-.929.929a.282.282,0,0,0,0,.4l1.538,1.526-1.538,1.524a.282.282,0,0,0,0,.4l.926.928a.282.282,0,0,0,.4,0l1.526-1.538Z" transform="translate(-379 -8066.999)"/></svg>