<svg xmlns="http://www.w3.org/2000/svg" width="27" height="27.25" viewBox="0 0 27 27.25"><defs><style>.a{fill:#fff;}</style></defs><path class="a" d="M30.842,6.864a12.128,12.128,0,0,1-7.6-3.5l-.523-.549a1.137,1.137,0,0,0-1.568,0l-.523.549a12.128,12.128,0,0,1-7.6,3.5A1.108,1.108,0,0,0,12,7.962v3.162A18.516,18.516,0,0,0,21.382,27.2a1,1,0,0,0,.549.131,1.4,1.4,0,0,0,.549-.131,18.516,18.516,0,0,0,9.382-16.072V7.962A1.108,1.108,0,0,0,30.842,6.864ZM26.713,12.8l-4.887,5.3a1.291,1.291,0,0,1-.784.366h-.026a1.106,1.106,0,0,1-.784-.314l-2.744-2.8a1.09,1.09,0,0,1,1.542-1.542l1.96,1.96,4.1-4.469a1.107,1.107,0,0,1,1.542-.078A1.139,1.139,0,0,1,26.713,12.8Z" transform="translate(-12 -2.5)"/></svg>