<svg xmlns="http://www.w3.org/2000/svg" width="27" height="27.25" viewBox="0 0 27 27.25">
  <g id="seconded" transform="translate(-373 -1174.75)">
    <path id="Path_1349" data-name="Path 1349" d="M9.625-13.406V-19.25H1.031A1.029,1.029,0,0,0,0-18.219V1.719A1.029,1.029,0,0,0,1.031,2.75H15.469A1.029,1.029,0,0,0,16.5,1.719V-12.375H10.656A1.034,1.034,0,0,1,9.625-13.406ZM2.75-16.156a.344.344,0,0,1,.344-.344H6.531a.344.344,0,0,1,.344.344v.688a.344.344,0,0,1-.344.344H3.094a.344.344,0,0,1-.344-.344Zm0,2.75a.344.344,0,0,1,.344-.344H6.531a.344.344,0,0,1,.344.344v.688a.344.344,0,0,1-.344.344H3.094a.344.344,0,0,1-.344-.344ZM11.035-2.75h2.028a.687.687,0,0,1,.688.688.687.687,0,0,1-.687.688H11.035A1.847,1.847,0,0,1,9.374-2.4a.476.476,0,0,0-.437-.28.469.469,0,0,0-.431.266l-.33.659a.687.687,0,0,1-.615.381s0,0,0,0l-.049,0a.685.685,0,0,1-.6-.468L6.188-4.014l-.456,1.37A1.855,1.855,0,0,1,3.97-1.375H3.438a.687.687,0,0,1-.687-.687.687.687,0,0,1,.688-.687H3.97a.482.482,0,0,0,.457-.329l.782-2.348a1.032,1.032,0,0,1,.979-.705,1.031,1.031,0,0,1,.978.705l.6,1.789a1.928,1.928,0,0,1,2.836.608A.49.49,0,0,0,11.035-2.75ZM16.2-14.738l-4.207-4.211a1.03,1.03,0,0,0-.73-.3H11v5.5h5.5v-.262A1.028,1.028,0,0,0,16.2-14.738Z" transform="translate(373 1194)" fill="#fff"/>
    <g id="Ellipse_448" data-name="Ellipse 448" transform="translate(382 1184)" fill="#fff" stroke="#1baf5d" stroke-width="1">
      <circle cx="9" cy="9" r="9" stroke="none"/>
      <circle cx="9" cy="9" r="8.5" fill="none"/>
    </g>
    <path id="Path_1350" data-name="Path 1350" d="M5.25-4.5a3,3,0,0,0,3-3,3,3,0,0,0-3-3,3,3,0,0,0-3,3A3,3,0,0,0,5.25-4.5ZM7.5-3.736,6.375.75l-.75-3.187.75-1.312H4.125l.75,1.313L4.125.75,3-3.736A3.145,3.145,0,0,0,0-.6V.375A1.125,1.125,0,0,0,1.125,1.5h8.25A1.125,1.125,0,0,0,10.5.375V-.6A3.145,3.145,0,0,0,7.5-3.736Z" transform="translate(386 1197)" fill="#1baf5d"/>
  </g>
</svg>
