<svg xmlns="http://www.w3.org/2000/svg" width="25.342" height="22.281" viewBox="0 0 25.342 22.281">
  <g id="Transfer_To" data-name="Transfer To" transform="translate(19862.799 18798.553)">
    <path id="Path_1374" data-name="Path 1374" d="M226,390h2.659v5.406H226Z" transform="translate(-20084.146 -19171.68)" fill="#fff"/>
    <path id="Path_1375" data-name="Path 1375" d="M121.023,22.278h3.323V15.665h5.318v6.614H133V0H121.023Zm9.305-19.668h1.329V3.916h-1.329Zm0,2.611h1.329V6.527h-1.329Zm0,2.611h1.329V9.138h-1.329Zm0,2.611h1.329v1.305h-1.329Zm0,2.611h1.329v1.305h-1.329ZM127.669,2.611H129V3.916h-1.329Zm0,2.611H129V6.527h-1.329Zm0,2.611H129V9.138h-1.329Zm0,2.611H129v1.305h-1.329Zm0,2.611H129v1.305h-1.329ZM125.01,2.611h1.329V3.916H125.01Zm0,2.611h1.329V6.527H125.01Zm0,2.611h1.329V9.138H125.01Zm0,2.611h1.329v1.305H125.01Zm0,2.611h1.329v1.305H125.01ZM122.351,2.611h1.329V3.916h-1.329Zm0,2.611h1.329V6.527h-1.329Zm0,2.611h1.329V9.138h-1.329Zm0,2.611h1.329v1.305h-1.329Zm0,2.611h1.329v1.305h-1.329Z" transform="translate(-19983.822 -18798.553)" fill="#fff"/>
    <g id="business-man-walking-with-suitcase" transform="translate(-19849.748 -18794.205)">
      <g id="Group_1930" data-name="Group 1930" transform="translate(0)">
        <path id="Path_1376" data-name="Path 1376" d="M143.591,596.044a.857.857,0,0,1-1.417.963c-.133-.194-1.473-2.156-2.776-4.07l1.04-1.518C141.941,593.628,143.492,595.9,143.591,596.044Z" transform="translate(-131.448 -579.449)" fill="#fff"/>
        <path id="Path_1377" data-name="Path 1377" d="M269.84,1.549A1.551,1.551,0,1,1,268.289,0,1.551,1.551,0,0,1,269.84,1.549Z" transform="translate(-260.127)" fill="#fff"/>
        <path id="Path_1378" data-name="Path 1378" d="M150.737,184.265h1.212v-.622a.3.3,0,0,1,.3-.3h.645a.641.641,0,0,1,.109-.435l3.262-4.744a1.086,1.086,0,0,1,.926-.494h2.447a1.061,1.061,0,0,1,.854.407s1.466,2.007,1.792,2.451a.649.649,0,0,1,.122.437c0,.322,0,1.949,0,2.444a.646.646,0,0,1-1.292,0c0-.152,0-1.584,0-2.294l-.927-1.266v3.088a3.022,3.022,0,0,1-.447,1.8c-1.08,1.576-4.5,6.571-4.718,6.891a.857.857,0,0,1-1.418-.963l1.723-2.516h-4.594a.4.4,0,0,1-.4-.4v-3.094A.4.4,0,0,1,150.737,184.265Zm4.227-.622v.622h1.169a.4.4,0,0,1,.4.4V186.4l.39-.568v-6.344l-2.647,3.851h.389A.3.3,0,0,1,154.965,183.644Zm-2.409.622h1.8v-.318h-1.8Z" transform="translate(-150.342 -174.071)" fill="#fff"/>
      </g>
    </g>
  </g>
</svg>
