<svg xmlns="http://www.w3.org/2000/svg" width="14" height="12.25" viewBox="0 0 14 12.25">
  <path id="Bar_Code" data-name="Bar Code" d="M.656-11.375A.655.655,0,0,0,0-10.719V.219A.655.655,0,0,0,.656.875h.438A.655.655,0,0,0,1.75.219V-10.719a.655.655,0,0,0-.656-.656Zm2.406,0a.439.439,0,0,0-.437.438V.438a.438.438,0,0,0,.875,0V-10.937A.439.439,0,0,0,3.063-11.375Zm1.969,0a.655.655,0,0,0-.656.656V.219a.655.655,0,0,0,.656.656h.438A.655.655,0,0,0,6.125.219V-10.719a.655.655,0,0,0-.656-.656Zm2.625,0A.655.655,0,0,0,7-10.719V.219a.655.655,0,0,0,.656.656h.438A.655.655,0,0,0,8.75.219V-10.719a.655.655,0,0,0-.656-.656Zm4.594.656V.219a.655.655,0,0,0,.656.656h.438A.655.655,0,0,0,14,.219V-10.719a.655.655,0,0,0-.656-.656h-.437A.655.655,0,0,0,12.25-10.719Zm-1.75-.219V.438a.438.438,0,0,0,.875,0V-10.937a.439.439,0,0,0-.437-.437A.439.439,0,0,0,10.5-10.937Z" transform="translate(0 11.375)" fill="#666"/>
</svg>
